# 무전기 — 블록아웃
# 삼각형 1112 · 조각 1
# 생성: tools/blockout — 손으로 고치지 말 것, 생성기를 고칠 것
g radio
v -0.1000 -0.1500 0.0600
v -0.1000 -0.1071 0.0600
v -0.1000 -0.0643 0.0600
v -0.1000 -0.0214 0.0600
v -0.1000 0.0214 0.0600
v -0.1000 0.0643 0.0600
v -0.1000 0.1071 0.0600
v -0.1000 0.1500 0.0600
v -0.0714 -0.1500 0.0600
v -0.0714 -0.1071 0.0600
v -0.0714 -0.0643 0.0600
v -0.0714 -0.0214 0.0600
v -0.0714 0.0214 0.0600
v -0.0714 0.0643 0.0600
v -0.0714 0.1071 0.0600
v -0.0714 0.1500 0.0600
v -0.0429 -0.1500 0.0600
v -0.0429 -0.1071 0.0600
v -0.0429 -0.0643 0.0600
v -0.0429 -0.0214 0.0600
v -0.0429 0.0214 0.0600
v -0.0429 0.0643 0.0600
v -0.0429 0.1071 0.0600
v -0.0429 0.1500 0.0600
v -0.0143 -0.1500 0.0600
v -0.0143 -0.1071 0.0600
v -0.0143 -0.0643 0.0600
v -0.0143 -0.0214 0.0600
v -0.0143 0.0214 0.0600
v -0.0143 0.0643 0.0600
v -0.0143 0.1071 0.0600
v -0.0143 0.1500 0.0600
v 0.0143 -0.1500 0.0600
v 0.0143 -0.1071 0.0600
v 0.0143 -0.0643 0.0600
v 0.0143 -0.0214 0.0600
v 0.0143 0.0214 0.0600
v 0.0143 0.0643 0.0600
v 0.0143 0.1071 0.0600
v 0.0143 0.1500 0.0600
v 0.0429 -0.1500 0.0600
v 0.0429 -0.1071 0.0600
v 0.0429 -0.0643 0.0600
v 0.0429 -0.0214 0.0600
v 0.0429 0.0214 0.0600
v 0.0429 0.0643 0.0600
v 0.0429 0.1071 0.0600
v 0.0429 0.1500 0.0600
v 0.0714 -0.1500 0.0600
v 0.0714 -0.1071 0.0600
v 0.0714 -0.0643 0.0600
v 0.0714 -0.0214 0.0600
v 0.0714 0.0214 0.0600
v 0.0714 0.0643 0.0600
v 0.0714 0.1071 0.0600
v 0.0714 0.1500 0.0600
v 0.1000 -0.1500 0.0600
v 0.1000 -0.1071 0.0600
v 0.1000 -0.0643 0.0600
v 0.1000 -0.0214 0.0600
v 0.1000 0.0214 0.0600
v 0.1000 0.0643 0.0600
v 0.1000 0.1071 0.0600
v 0.1000 0.1500 0.0600
v 0.1000 -0.1500 -0.0600
v 0.1000 -0.1071 -0.0600
v 0.1000 -0.0643 -0.0600
v 0.1000 -0.0214 -0.0600
v 0.1000 0.0214 -0.0600
v 0.1000 0.0643 -0.0600
v 0.1000 0.1071 -0.0600
v 0.1000 0.1500 -0.0600
v 0.0714 -0.1500 -0.0600
v 0.0714 -0.1071 -0.0600
v 0.0714 -0.0643 -0.0600
v 0.0714 -0.0214 -0.0600
v 0.0714 0.0214 -0.0600
v 0.0714 0.0643 -0.0600
v 0.0714 0.1071 -0.0600
v 0.0714 0.1500 -0.0600
v 0.0429 -0.1500 -0.0600
v 0.0429 -0.1071 -0.0600
v 0.0429 -0.0643 -0.0600
v 0.0429 -0.0214 -0.0600
v 0.0429 0.0214 -0.0600
v 0.0429 0.0643 -0.0600
v 0.0429 0.1071 -0.0600
v 0.0429 0.1500 -0.0600
v 0.0143 -0.1500 -0.0600
v 0.0143 -0.1071 -0.0600
v 0.0143 -0.0643 -0.0600
v 0.0143 -0.0214 -0.0600
v 0.0143 0.0214 -0.0600
v 0.0143 0.0643 -0.0600
v 0.0143 0.1071 -0.0600
v 0.0143 0.1500 -0.0600
v -0.0143 -0.1500 -0.0600
v -0.0143 -0.1071 -0.0600
v -0.0143 -0.0643 -0.0600
v -0.0143 -0.0214 -0.0600
v -0.0143 0.0214 -0.0600
v -0.0143 0.0643 -0.0600
v -0.0143 0.1071 -0.0600
v -0.0143 0.1500 -0.0600
v -0.0429 -0.1500 -0.0600
v -0.0429 -0.1071 -0.0600
v -0.0429 -0.0643 -0.0600
v -0.0429 -0.0214 -0.0600
v -0.0429 0.0214 -0.0600
v -0.0429 0.0643 -0.0600
v -0.0429 0.1071 -0.0600
v -0.0429 0.1500 -0.0600
v -0.0714 -0.1500 -0.0600
v -0.0714 -0.1071 -0.0600
v -0.0714 -0.0643 -0.0600
v -0.0714 -0.0214 -0.0600
v -0.0714 0.0214 -0.0600
v -0.0714 0.0643 -0.0600
v -0.0714 0.1071 -0.0600
v -0.0714 0.1500 -0.0600
v -0.1000 -0.1500 -0.0600
v -0.1000 -0.1071 -0.0600
v -0.1000 -0.0643 -0.0600
v -0.1000 -0.0214 -0.0600
v -0.1000 0.0214 -0.0600
v -0.1000 0.0643 -0.0600
v -0.1000 0.1071 -0.0600
v -0.1000 0.1500 -0.0600
v -0.1000 -0.1500 -0.0600
v -0.1000 -0.1071 -0.0600
v -0.1000 -0.0643 -0.0600
v -0.1000 -0.0214 -0.0600
v -0.1000 0.0214 -0.0600
v -0.1000 0.0643 -0.0600
v -0.1000 0.1071 -0.0600
v -0.1000 0.1500 -0.0600
v -0.1000 -0.1500 -0.0429
v -0.1000 -0.1071 -0.0429
v -0.1000 -0.0643 -0.0429
v -0.1000 -0.0214 -0.0429
v -0.1000 0.0214 -0.0429
v -0.1000 0.0643 -0.0429
v -0.1000 0.1071 -0.0429
v -0.1000 0.1500 -0.0429
v -0.1000 -0.1500 -0.0257
v -0.1000 -0.1071 -0.0257
v -0.1000 -0.0643 -0.0257
v -0.1000 -0.0214 -0.0257
v -0.1000 0.0214 -0.0257
v -0.1000 0.0643 -0.0257
v -0.1000 0.1071 -0.0257
v -0.1000 0.1500 -0.0257
v -0.1000 -0.1500 -0.0086
v -0.1000 -0.1071 -0.0086
v -0.1000 -0.0643 -0.0086
v -0.1000 -0.0214 -0.0086
v -0.1000 0.0214 -0.0086
v -0.1000 0.0643 -0.0086
v -0.1000 0.1071 -0.0086
v -0.1000 0.1500 -0.0086
v -0.1000 -0.1500 0.0086
v -0.1000 -0.1071 0.0086
v -0.1000 -0.0643 0.0086
v -0.1000 -0.0214 0.0086
v -0.1000 0.0214 0.0086
v -0.1000 0.0643 0.0086
v -0.1000 0.1071 0.0086
v -0.1000 0.1500 0.0086
v -0.1000 -0.1500 0.0257
v -0.1000 -0.1071 0.0257
v -0.1000 -0.0643 0.0257
v -0.1000 -0.0214 0.0257
v -0.1000 0.0214 0.0257
v -0.1000 0.0643 0.0257
v -0.1000 0.1071 0.0257
v -0.1000 0.1500 0.0257
v -0.1000 -0.1500 0.0429
v -0.1000 -0.1071 0.0429
v -0.1000 -0.0643 0.0429
v -0.1000 -0.0214 0.0429
v -0.1000 0.0214 0.0429
v -0.1000 0.0643 0.0429
v -0.1000 0.1071 0.0429
v -0.1000 0.1500 0.0429
v -0.1000 -0.1500 0.0600
v -0.1000 -0.1071 0.0600
v -0.1000 -0.0643 0.0600
v -0.1000 -0.0214 0.0600
v -0.1000 0.0214 0.0600
v -0.1000 0.0643 0.0600
v -0.1000 0.1071 0.0600
v -0.1000 0.1500 0.0600
v 0.1000 -0.1500 0.0600
v 0.1000 -0.1071 0.0600
v 0.1000 -0.0643 0.0600
v 0.1000 -0.0214 0.0600
v 0.1000 0.0214 0.0600
v 0.1000 0.0643 0.0600
v 0.1000 0.1071 0.0600
v 0.1000 0.1500 0.0600
v 0.1000 -0.1500 0.0429
v 0.1000 -0.1071 0.0429
v 0.1000 -0.0643 0.0429
v 0.1000 -0.0214 0.0429
v 0.1000 0.0214 0.0429
v 0.1000 0.0643 0.0429
v 0.1000 0.1071 0.0429
v 0.1000 0.1500 0.0429
v 0.1000 -0.1500 0.0257
v 0.1000 -0.1071 0.0257
v 0.1000 -0.0643 0.0257
v 0.1000 -0.0214 0.0257
v 0.1000 0.0214 0.0257
v 0.1000 0.0643 0.0257
v 0.1000 0.1071 0.0257
v 0.1000 0.1500 0.0257
v 0.1000 -0.1500 0.0086
v 0.1000 -0.1071 0.0086
v 0.1000 -0.0643 0.0086
v 0.1000 -0.0214 0.0086
v 0.1000 0.0214 0.0086
v 0.1000 0.0643 0.0086
v 0.1000 0.1071 0.0086
v 0.1000 0.1500 0.0086
v 0.1000 -0.1500 -0.0086
v 0.1000 -0.1071 -0.0086
v 0.1000 -0.0643 -0.0086
v 0.1000 -0.0214 -0.0086
v 0.1000 0.0214 -0.0086
v 0.1000 0.0643 -0.0086
v 0.1000 0.1071 -0.0086
v 0.1000 0.1500 -0.0086
v 0.1000 -0.1500 -0.0257
v 0.1000 -0.1071 -0.0257
v 0.1000 -0.0643 -0.0257
v 0.1000 -0.0214 -0.0257
v 0.1000 0.0214 -0.0257
v 0.1000 0.0643 -0.0257
v 0.1000 0.1071 -0.0257
v 0.1000 0.1500 -0.0257
v 0.1000 -0.1500 -0.0429
v 0.1000 -0.1071 -0.0429
v 0.1000 -0.0643 -0.0429
v 0.1000 -0.0214 -0.0429
v 0.1000 0.0214 -0.0429
v 0.1000 0.0643 -0.0429
v 0.1000 0.1071 -0.0429
v 0.1000 0.1500 -0.0429
v 0.1000 -0.1500 -0.0600
v 0.1000 -0.1071 -0.0600
v 0.1000 -0.0643 -0.0600
v 0.1000 -0.0214 -0.0600
v 0.1000 0.0214 -0.0600
v 0.1000 0.0643 -0.0600
v 0.1000 0.1071 -0.0600
v 0.1000 0.1500 -0.0600
v -0.1000 0.1500 -0.0600
v -0.1000 0.1500 -0.0429
v -0.1000 0.1500 -0.0257
v -0.1000 0.1500 -0.0086
v -0.1000 0.1500 0.0086
v -0.1000 0.1500 0.0257
v -0.1000 0.1500 0.0429
v -0.1000 0.1500 0.0600
v -0.0714 0.1500 -0.0600
v -0.0714 0.1500 -0.0429
v -0.0714 0.1500 -0.0257
v -0.0714 0.1500 -0.0086
v -0.0714 0.1500 0.0086
v -0.0714 0.1500 0.0257
v -0.0714 0.1500 0.0429
v -0.0714 0.1500 0.0600
v -0.0429 0.1500 -0.0600
v -0.0429 0.1500 -0.0429
v -0.0429 0.1500 -0.0257
v -0.0429 0.1500 -0.0086
v -0.0429 0.1500 0.0086
v -0.0429 0.1500 0.0257
v -0.0429 0.1500 0.0429
v -0.0429 0.1500 0.0600
v -0.0143 0.1500 -0.0600
v -0.0143 0.1500 -0.0429
v -0.0143 0.1500 -0.0257
v -0.0143 0.1500 -0.0086
v -0.0143 0.1500 0.0086
v -0.0143 0.1500 0.0257
v -0.0143 0.1500 0.0429
v -0.0143 0.1500 0.0600
v 0.0143 0.1500 -0.0600
v 0.0143 0.1500 -0.0429
v 0.0143 0.1500 -0.0257
v 0.0143 0.1500 -0.0086
v 0.0143 0.1500 0.0086
v 0.0143 0.1500 0.0257
v 0.0143 0.1500 0.0429
v 0.0143 0.1500 0.0600
v 0.0429 0.1500 -0.0600
v 0.0429 0.1500 -0.0429
v 0.0429 0.1500 -0.0257
v 0.0429 0.1500 -0.0086
v 0.0429 0.1500 0.0086
v 0.0429 0.1500 0.0257
v 0.0429 0.1500 0.0429
v 0.0429 0.1500 0.0600
v 0.0714 0.1500 -0.0600
v 0.0714 0.1500 -0.0429
v 0.0714 0.1500 -0.0257
v 0.0714 0.1500 -0.0086
v 0.0714 0.1500 0.0086
v 0.0714 0.1500 0.0257
v 0.0714 0.1500 0.0429
v 0.0714 0.1500 0.0600
v 0.1000 0.1500 -0.0600
v 0.1000 0.1500 -0.0429
v 0.1000 0.1500 -0.0257
v 0.1000 0.1500 -0.0086
v 0.1000 0.1500 0.0086
v 0.1000 0.1500 0.0257
v 0.1000 0.1500 0.0429
v 0.1000 0.1500 0.0600
v -0.1000 -0.1500 0.0600
v -0.1000 -0.1500 0.0429
v -0.1000 -0.1500 0.0257
v -0.1000 -0.1500 0.0086
v -0.1000 -0.1500 -0.0086
v -0.1000 -0.1500 -0.0257
v -0.1000 -0.1500 -0.0429
v -0.1000 -0.1500 -0.0600
v -0.0714 -0.1500 0.0600
v -0.0714 -0.1500 0.0429
v -0.0714 -0.1500 0.0257
v -0.0714 -0.1500 0.0086
v -0.0714 -0.1500 -0.0086
v -0.0714 -0.1500 -0.0257
v -0.0714 -0.1500 -0.0429
v -0.0714 -0.1500 -0.0600
v -0.0429 -0.1500 0.0600
v -0.0429 -0.1500 0.0429
v -0.0429 -0.1500 0.0257
v -0.0429 -0.1500 0.0086
v -0.0429 -0.1500 -0.0086
v -0.0429 -0.1500 -0.0257
v -0.0429 -0.1500 -0.0429
v -0.0429 -0.1500 -0.0600
v -0.0143 -0.1500 0.0600
v -0.0143 -0.1500 0.0429
v -0.0143 -0.1500 0.0257
v -0.0143 -0.1500 0.0086
v -0.0143 -0.1500 -0.0086
v -0.0143 -0.1500 -0.0257
v -0.0143 -0.1500 -0.0429
v -0.0143 -0.1500 -0.0600
v 0.0143 -0.1500 0.0600
v 0.0143 -0.1500 0.0429
v 0.0143 -0.1500 0.0257
v 0.0143 -0.1500 0.0086
v 0.0143 -0.1500 -0.0086
v 0.0143 -0.1500 -0.0257
v 0.0143 -0.1500 -0.0429
v 0.0143 -0.1500 -0.0600
v 0.0429 -0.1500 0.0600
v 0.0429 -0.1500 0.0429
v 0.0429 -0.1500 0.0257
v 0.0429 -0.1500 0.0086
v 0.0429 -0.1500 -0.0086
v 0.0429 -0.1500 -0.0257
v 0.0429 -0.1500 -0.0429
v 0.0429 -0.1500 -0.0600
v 0.0714 -0.1500 0.0600
v 0.0714 -0.1500 0.0429
v 0.0714 -0.1500 0.0257
v 0.0714 -0.1500 0.0086
v 0.0714 -0.1500 -0.0086
v 0.0714 -0.1500 -0.0257
v 0.0714 -0.1500 -0.0429
v 0.0714 -0.1500 -0.0600
v 0.1000 -0.1500 0.0600
v 0.1000 -0.1500 0.0429
v 0.1000 -0.1500 0.0257
v 0.1000 -0.1500 0.0086
v 0.1000 -0.1500 -0.0086
v 0.1000 -0.1500 -0.0257
v 0.1000 -0.1500 -0.0429
v 0.1000 -0.1500 -0.0600
v 0.0760 0.1500 0.0000
v 0.0760 1.0500 0.0000
v 0.0742 0.1500 0.0042
v 0.0742 1.0500 0.0042
v 0.0700 0.1500 0.0060
v 0.0700 1.0500 0.0060
v 0.0658 0.1500 0.0042
v 0.0658 1.0500 0.0042
v 0.0640 0.1500 0.0000
v 0.0640 1.0500 0.0000
v 0.0658 0.1500 -0.0042
v 0.0658 1.0500 -0.0042
v 0.0700 0.1500 -0.0060
v 0.0700 1.0500 -0.0060
v 0.0742 0.1500 -0.0042
v 0.0742 1.0500 -0.0042
v 0.0700 1.0500 0.0000
v 0.0700 0.1500 0.0000
v -0.1500 -0.0150 0.1050
v -0.1500 0.0110 0.1050
v -0.1500 0.0370 0.1050
v -0.1500 0.0630 0.1050
v -0.1500 0.0890 0.1050
v -0.1500 0.1150 0.1050
v -0.1380 -0.0150 0.1050
v -0.1380 0.0110 0.1050
v -0.1380 0.0370 0.1050
v -0.1380 0.0630 0.1050
v -0.1380 0.0890 0.1050
v -0.1380 0.1150 0.1050
v -0.1260 -0.0150 0.1050
v -0.1260 0.0110 0.1050
v -0.1260 0.0370 0.1050
v -0.1260 0.0630 0.1050
v -0.1260 0.0890 0.1050
v -0.1260 0.1150 0.1050
v -0.1140 -0.0150 0.1050
v -0.1140 0.0110 0.1050
v -0.1140 0.0370 0.1050
v -0.1140 0.0630 0.1050
v -0.1140 0.0890 0.1050
v -0.1140 0.1150 0.1050
v -0.1020 -0.0150 0.1050
v -0.1020 0.0110 0.1050
v -0.1020 0.0370 0.1050
v -0.1020 0.0630 0.1050
v -0.1020 0.0890 0.1050
v -0.1020 0.1150 0.1050
v -0.0900 -0.0150 0.1050
v -0.0900 0.0110 0.1050
v -0.0900 0.0370 0.1050
v -0.0900 0.0630 0.1050
v -0.0900 0.0890 0.1050
v -0.0900 0.1150 0.1050
v -0.0900 -0.0150 0.0550
v -0.0900 0.0110 0.0550
v -0.0900 0.0370 0.0550
v -0.0900 0.0630 0.0550
v -0.0900 0.0890 0.0550
v -0.0900 0.1150 0.0550
v -0.1020 -0.0150 0.0550
v -0.1020 0.0110 0.0550
v -0.1020 0.0370 0.0550
v -0.1020 0.0630 0.0550
v -0.1020 0.0890 0.0550
v -0.1020 0.1150 0.0550
v -0.1140 -0.0150 0.0550
v -0.1140 0.0110 0.0550
v -0.1140 0.0370 0.0550
v -0.1140 0.0630 0.0550
v -0.1140 0.0890 0.0550
v -0.1140 0.1150 0.0550
v -0.1260 -0.0150 0.0550
v -0.1260 0.0110 0.0550
v -0.1260 0.0370 0.0550
v -0.1260 0.0630 0.0550
v -0.1260 0.0890 0.0550
v -0.1260 0.1150 0.0550
v -0.1380 -0.0150 0.0550
v -0.1380 0.0110 0.0550
v -0.1380 0.0370 0.0550
v -0.1380 0.0630 0.0550
v -0.1380 0.0890 0.0550
v -0.1380 0.1150 0.0550
v -0.1500 -0.0150 0.0550
v -0.1500 0.0110 0.0550
v -0.1500 0.0370 0.0550
v -0.1500 0.0630 0.0550
v -0.1500 0.0890 0.0550
v -0.1500 0.1150 0.0550
v -0.1500 -0.0150 0.0550
v -0.1500 0.0110 0.0550
v -0.1500 0.0370 0.0550
v -0.1500 0.0630 0.0550
v -0.1500 0.0890 0.0550
v -0.1500 0.1150 0.0550
v -0.1500 -0.0150 0.0650
v -0.1500 0.0110 0.0650
v -0.1500 0.0370 0.0650
v -0.1500 0.0630 0.0650
v -0.1500 0.0890 0.0650
v -0.1500 0.1150 0.0650
v -0.1500 -0.0150 0.0750
v -0.1500 0.0110 0.0750
v -0.1500 0.0370 0.0750
v -0.1500 0.0630 0.0750
v -0.1500 0.0890 0.0750
v -0.1500 0.1150 0.0750
v -0.1500 -0.0150 0.0850
v -0.1500 0.0110 0.0850
v -0.1500 0.0370 0.0850
v -0.1500 0.0630 0.0850
v -0.1500 0.0890 0.0850
v -0.1500 0.1150 0.0850
v -0.1500 -0.0150 0.0950
v -0.1500 0.0110 0.0950
v -0.1500 0.0370 0.0950
v -0.1500 0.0630 0.0950
v -0.1500 0.0890 0.0950
v -0.1500 0.1150 0.0950
v -0.1500 -0.0150 0.1050
v -0.1500 0.0110 0.1050
v -0.1500 0.0370 0.1050
v -0.1500 0.0630 0.1050
v -0.1500 0.0890 0.1050
v -0.1500 0.1150 0.1050
v -0.0900 -0.0150 0.1050
v -0.0900 0.0110 0.1050
v -0.0900 0.0370 0.1050
v -0.0900 0.0630 0.1050
v -0.0900 0.0890 0.1050
v -0.0900 0.1150 0.1050
v -0.0900 -0.0150 0.0950
v -0.0900 0.0110 0.0950
v -0.0900 0.0370 0.0950
v -0.0900 0.0630 0.0950
v -0.0900 0.0890 0.0950
v -0.0900 0.1150 0.0950
v -0.0900 -0.0150 0.0850
v -0.0900 0.0110 0.0850
v -0.0900 0.0370 0.0850
v -0.0900 0.0630 0.0850
v -0.0900 0.0890 0.0850
v -0.0900 0.1150 0.0850
v -0.0900 -0.0150 0.0750
v -0.0900 0.0110 0.0750
v -0.0900 0.0370 0.0750
v -0.0900 0.0630 0.0750
v -0.0900 0.0890 0.0750
v -0.0900 0.1150 0.0750
v -0.0900 -0.0150 0.0650
v -0.0900 0.0110 0.0650
v -0.0900 0.0370 0.0650
v -0.0900 0.0630 0.0650
v -0.0900 0.0890 0.0650
v -0.0900 0.1150 0.0650
v -0.0900 -0.0150 0.0550
v -0.0900 0.0110 0.0550
v -0.0900 0.0370 0.0550
v -0.0900 0.0630 0.0550
v -0.0900 0.0890 0.0550
v -0.0900 0.1150 0.0550
v -0.1500 0.1150 0.0550
v -0.1500 0.1150 0.0650
v -0.1500 0.1150 0.0750
v -0.1500 0.1150 0.0850
v -0.1500 0.1150 0.0950
v -0.1500 0.1150 0.1050
v -0.1380 0.1150 0.0550
v -0.1380 0.1150 0.0650
v -0.1380 0.1150 0.0750
v -0.1380 0.1150 0.0850
v -0.1380 0.1150 0.0950
v -0.1380 0.1150 0.1050
v -0.1260 0.1150 0.0550
v -0.1260 0.1150 0.0650
v -0.1260 0.1150 0.0750
v -0.1260 0.1150 0.0850
v -0.1260 0.1150 0.0950
v -0.1260 0.1150 0.1050
v -0.1140 0.1150 0.0550
v -0.1140 0.1150 0.0650
v -0.1140 0.1150 0.0750
v -0.1140 0.1150 0.0850
v -0.1140 0.1150 0.0950
v -0.1140 0.1150 0.1050
v -0.1020 0.1150 0.0550
v -0.1020 0.1150 0.0650
v -0.1020 0.1150 0.0750
v -0.1020 0.1150 0.0850
v -0.1020 0.1150 0.0950
v -0.1020 0.1150 0.1050
v -0.0900 0.1150 0.0550
v -0.0900 0.1150 0.0650
v -0.0900 0.1150 0.0750
v -0.0900 0.1150 0.0850
v -0.0900 0.1150 0.0950
v -0.0900 0.1150 0.1050
v -0.1500 -0.0150 0.1050
v -0.1500 -0.0150 0.0950
v -0.1500 -0.0150 0.0850
v -0.1500 -0.0150 0.0750
v -0.1500 -0.0150 0.0650
v -0.1500 -0.0150 0.0550
v -0.1380 -0.0150 0.1050
v -0.1380 -0.0150 0.0950
v -0.1380 -0.0150 0.0850
v -0.1380 -0.0150 0.0750
v -0.1380 -0.0150 0.0650
v -0.1380 -0.0150 0.0550
v -0.1260 -0.0150 0.1050
v -0.1260 -0.0150 0.0950
v -0.1260 -0.0150 0.0850
v -0.1260 -0.0150 0.0750
v -0.1260 -0.0150 0.0650
v -0.1260 -0.0150 0.0550
v -0.1140 -0.0150 0.1050
v -0.1140 -0.0150 0.0950
v -0.1140 -0.0150 0.0850
v -0.1140 -0.0150 0.0750
v -0.1140 -0.0150 0.0650
v -0.1140 -0.0150 0.0550
v -0.1020 -0.0150 0.1050
v -0.1020 -0.0150 0.0950
v -0.1020 -0.0150 0.0850
v -0.1020 -0.0150 0.0750
v -0.1020 -0.0150 0.0650
v -0.1020 -0.0150 0.0550
v -0.0900 -0.0150 0.1050
v -0.0900 -0.0150 0.0950
v -0.0900 -0.0150 0.0850
v -0.0900 -0.0150 0.0750
v -0.0900 -0.0150 0.0650
v -0.0900 -0.0150 0.0550
v -0.0800 -0.1900 0.0100
v -0.0800 -0.1800 0.0100
v -0.0800 -0.1700 0.0100
v -0.0800 -0.1600 0.0100
v -0.0800 -0.1500 0.0100
v -0.0400 -0.1900 0.0100
v -0.0400 -0.1800 0.0100
v -0.0400 -0.1700 0.0100
v -0.0400 -0.1600 0.0100
v -0.0400 -0.1500 0.0100
v 0.0000 -0.1900 0.0100
v 0.0000 -0.1800 0.0100
v 0.0000 -0.1700 0.0100
v 0.0000 -0.1600 0.0100
v 0.0000 -0.1500 0.0100
v 0.0400 -0.1900 0.0100
v 0.0400 -0.1800 0.0100
v 0.0400 -0.1700 0.0100
v 0.0400 -0.1600 0.0100
v 0.0400 -0.1500 0.0100
v 0.0800 -0.1900 0.0100
v 0.0800 -0.1800 0.0100
v 0.0800 -0.1700 0.0100
v 0.0800 -0.1600 0.0100
v 0.0800 -0.1500 0.0100
v 0.0800 -0.1900 -0.0100
v 0.0800 -0.1800 -0.0100
v 0.0800 -0.1700 -0.0100
v 0.0800 -0.1600 -0.0100
v 0.0800 -0.1500 -0.0100
v 0.0400 -0.1900 -0.0100
v 0.0400 -0.1800 -0.0100
v 0.0400 -0.1700 -0.0100
v 0.0400 -0.1600 -0.0100
v 0.0400 -0.1500 -0.0100
v 0.0000 -0.1900 -0.0100
v 0.0000 -0.1800 -0.0100
v 0.0000 -0.1700 -0.0100
v 0.0000 -0.1600 -0.0100
v 0.0000 -0.1500 -0.0100
v -0.0400 -0.1900 -0.0100
v -0.0400 -0.1800 -0.0100
v -0.0400 -0.1700 -0.0100
v -0.0400 -0.1600 -0.0100
v -0.0400 -0.1500 -0.0100
v -0.0800 -0.1900 -0.0100
v -0.0800 -0.1800 -0.0100
v -0.0800 -0.1700 -0.0100
v -0.0800 -0.1600 -0.0100
v -0.0800 -0.1500 -0.0100
v -0.0800 -0.1900 -0.0100
v -0.0800 -0.1800 -0.0100
v -0.0800 -0.1700 -0.0100
v -0.0800 -0.1600 -0.0100
v -0.0800 -0.1500 -0.0100
v -0.0800 -0.1900 -0.0050
v -0.0800 -0.1800 -0.0050
v -0.0800 -0.1700 -0.0050
v -0.0800 -0.1600 -0.0050
v -0.0800 -0.1500 -0.0050
v -0.0800 -0.1900 0.0000
v -0.0800 -0.1800 0.0000
v -0.0800 -0.1700 0.0000
v -0.0800 -0.1600 0.0000
v -0.0800 -0.1500 0.0000
v -0.0800 -0.1900 0.0050
v -0.0800 -0.1800 0.0050
v -0.0800 -0.1700 0.0050
v -0.0800 -0.1600 0.0050
v -0.0800 -0.1500 0.0050
v -0.0800 -0.1900 0.0100
v -0.0800 -0.1800 0.0100
v -0.0800 -0.1700 0.0100
v -0.0800 -0.1600 0.0100
v -0.0800 -0.1500 0.0100
v 0.0800 -0.1900 0.0100
v 0.0800 -0.1800 0.0100
v 0.0800 -0.1700 0.0100
v 0.0800 -0.1600 0.0100
v 0.0800 -0.1500 0.0100
v 0.0800 -0.1900 0.0050
v 0.0800 -0.1800 0.0050
v 0.0800 -0.1700 0.0050
v 0.0800 -0.1600 0.0050
v 0.0800 -0.1500 0.0050
v 0.0800 -0.1900 0.0000
v 0.0800 -0.1800 0.0000
v 0.0800 -0.1700 0.0000
v 0.0800 -0.1600 0.0000
v 0.0800 -0.1500 0.0000
v 0.0800 -0.1900 -0.0050
v 0.0800 -0.1800 -0.0050
v 0.0800 -0.1700 -0.0050
v 0.0800 -0.1600 -0.0050
v 0.0800 -0.1500 -0.0050
v 0.0800 -0.1900 -0.0100
v 0.0800 -0.1800 -0.0100
v 0.0800 -0.1700 -0.0100
v 0.0800 -0.1600 -0.0100
v 0.0800 -0.1500 -0.0100
v -0.0800 -0.1500 -0.0100
v -0.0800 -0.1500 -0.0050
v -0.0800 -0.1500 0.0000
v -0.0800 -0.1500 0.0050
v -0.0800 -0.1500 0.0100
v -0.0400 -0.1500 -0.0100
v -0.0400 -0.1500 -0.0050
v -0.0400 -0.1500 0.0000
v -0.0400 -0.1500 0.0050
v -0.0400 -0.1500 0.0100
v 0.0000 -0.1500 -0.0100
v 0.0000 -0.1500 -0.0050
v 0.0000 -0.1500 0.0000
v 0.0000 -0.1500 0.0050
v 0.0000 -0.1500 0.0100
v 0.0400 -0.1500 -0.0100
v 0.0400 -0.1500 -0.0050
v 0.0400 -0.1500 0.0000
v 0.0400 -0.1500 0.0050
v 0.0400 -0.1500 0.0100
v 0.0800 -0.1500 -0.0100
v 0.0800 -0.1500 -0.0050
v 0.0800 -0.1500 0.0000
v 0.0800 -0.1500 0.0050
v 0.0800 -0.1500 0.0100
v -0.0800 -0.1900 0.0100
v -0.0800 -0.1900 0.0050
v -0.0800 -0.1900 0.0000
v -0.0800 -0.1900 -0.0050
v -0.0800 -0.1900 -0.0100
v -0.0400 -0.1900 0.0100
v -0.0400 -0.1900 0.0050
v -0.0400 -0.1900 0.0000
v -0.0400 -0.1900 -0.0050
v -0.0400 -0.1900 -0.0100
v 0.0000 -0.1900 0.0100
v 0.0000 -0.1900 0.0050
v 0.0000 -0.1900 0.0000
v 0.0000 -0.1900 -0.0050
v 0.0000 -0.1900 -0.0100
v 0.0400 -0.1900 0.0100
v 0.0400 -0.1900 0.0050
v 0.0400 -0.1900 0.0000
v 0.0400 -0.1900 -0.0050
v 0.0400 -0.1900 -0.0100
v 0.0800 -0.1900 0.0100
v 0.0800 -0.1900 0.0050
v 0.0800 -0.1900 0.0000
v 0.0800 -0.1900 -0.0050
v 0.0800 -0.1900 -0.0100
f 1 2 10
f 1 10 9
f 2 3 11
f 2 11 10
f 3 4 12
f 3 12 11
f 4 5 13
f 4 13 12
f 5 6 14
f 5 14 13
f 6 7 15
f 6 15 14
f 7 8 16
f 7 16 15
f 9 10 18
f 9 18 17
f 10 11 19
f 10 19 18
f 11 12 20
f 11 20 19
f 12 13 21
f 12 21 20
f 13 14 22
f 13 22 21
f 14 15 23
f 14 23 22
f 15 16 24
f 15 24 23
f 17 18 26
f 17 26 25
f 18 19 27
f 18 27 26
f 19 20 28
f 19 28 27
f 20 21 29
f 20 29 28
f 21 22 30
f 21 30 29
f 22 23 31
f 22 31 30
f 23 24 32
f 23 32 31
f 25 26 34
f 25 34 33
f 26 27 35
f 26 35 34
f 27 28 36
f 27 36 35
f 28 29 37
f 28 37 36
f 29 30 38
f 29 38 37
f 30 31 39
f 30 39 38
f 31 32 40
f 31 40 39
f 33 34 42
f 33 42 41
f 34 35 43
f 34 43 42
f 35 36 44
f 35 44 43
f 36 37 45
f 36 45 44
f 37 38 46
f 37 46 45
f 38 39 47
f 38 47 46
f 39 40 48
f 39 48 47
f 41 42 50
f 41 50 49
f 42 43 51
f 42 51 50
f 43 44 52
f 43 52 51
f 44 45 53
f 44 53 52
f 45 46 54
f 45 54 53
f 46 47 55
f 46 55 54
f 47 48 56
f 47 56 55
f 49 50 58
f 49 58 57
f 50 51 59
f 50 59 58
f 51 52 60
f 51 60 59
f 52 53 61
f 52 61 60
f 53 54 62
f 53 62 61
f 54 55 63
f 54 63 62
f 55 56 64
f 55 64 63
f 65 66 74
f 65 74 73
f 66 67 75
f 66 75 74
f 67 68 76
f 67 76 75
f 68 69 77
f 68 77 76
f 69 70 78
f 69 78 77
f 70 71 79
f 70 79 78
f 71 72 80
f 71 80 79
f 73 74 82
f 73 82 81
f 74 75 83
f 74 83 82
f 75 76 84
f 75 84 83
f 76 77 85
f 76 85 84
f 77 78 86
f 77 86 85
f 78 79 87
f 78 87 86
f 79 80 88
f 79 88 87
f 81 82 90
f 81 90 89
f 82 83 91
f 82 91 90
f 83 84 92
f 83 92 91
f 84 85 93
f 84 93 92
f 85 86 94
f 85 94 93
f 86 87 95
f 86 95 94
f 87 88 96
f 87 96 95
f 89 90 98
f 89 98 97
f 90 91 99
f 90 99 98
f 91 92 100
f 91 100 99
f 92 93 101
f 92 101 100
f 93 94 102
f 93 102 101
f 94 95 103
f 94 103 102
f 95 96 104
f 95 104 103
f 97 98 106
f 97 106 105
f 98 99 107
f 98 107 106
f 99 100 108
f 99 108 107
f 100 101 109
f 100 109 108
f 101 102 110
f 101 110 109
f 102 103 111
f 102 111 110
f 103 104 112
f 103 112 111
f 105 106 114
f 105 114 113
f 106 107 115
f 106 115 114
f 107 108 116
f 107 116 115
f 108 109 117
f 108 117 116
f 109 110 118
f 109 118 117
f 110 111 119
f 110 119 118
f 111 112 120
f 111 120 119
f 113 114 122
f 113 122 121
f 114 115 123
f 114 123 122
f 115 116 124
f 115 124 123
f 116 117 125
f 116 125 124
f 117 118 126
f 117 126 125
f 118 119 127
f 118 127 126
f 119 120 128
f 119 128 127
f 129 130 138
f 129 138 137
f 130 131 139
f 130 139 138
f 131 132 140
f 131 140 139
f 132 133 141
f 132 141 140
f 133 134 142
f 133 142 141
f 134 135 143
f 134 143 142
f 135 136 144
f 135 144 143
f 137 138 146
f 137 146 145
f 138 139 147
f 138 147 146
f 139 140 148
f 139 148 147
f 140 141 149
f 140 149 148
f 141 142 150
f 141 150 149
f 142 143 151
f 142 151 150
f 143 144 152
f 143 152 151
f 145 146 154
f 145 154 153
f 146 147 155
f 146 155 154
f 147 148 156
f 147 156 155
f 148 149 157
f 148 157 156
f 149 150 158
f 149 158 157
f 150 151 159
f 150 159 158
f 151 152 160
f 151 160 159
f 153 154 162
f 153 162 161
f 154 155 163
f 154 163 162
f 155 156 164
f 155 164 163
f 156 157 165
f 156 165 164
f 157 158 166
f 157 166 165
f 158 159 167
f 158 167 166
f 159 160 168
f 159 168 167
f 161 162 170
f 161 170 169
f 162 163 171
f 162 171 170
f 163 164 172
f 163 172 171
f 164 165 173
f 164 173 172
f 165 166 174
f 165 174 173
f 166 167 175
f 166 175 174
f 167 168 176
f 167 176 175
f 169 170 178
f 169 178 177
f 170 171 179
f 170 179 178
f 171 172 180
f 171 180 179
f 172 173 181
f 172 181 180
f 173 174 182
f 173 182 181
f 174 175 183
f 174 183 182
f 175 176 184
f 175 184 183
f 177 178 186
f 177 186 185
f 178 179 187
f 178 187 186
f 179 180 188
f 179 188 187
f 180 181 189
f 180 189 188
f 181 182 190
f 181 190 189
f 182 183 191
f 182 191 190
f 183 184 192
f 183 192 191
f 193 194 202
f 193 202 201
f 194 195 203
f 194 203 202
f 195 196 204
f 195 204 203
f 196 197 205
f 196 205 204
f 197 198 206
f 197 206 205
f 198 199 207
f 198 207 206
f 199 200 208
f 199 208 207
f 201 202 210
f 201 210 209
f 202 203 211
f 202 211 210
f 203 204 212
f 203 212 211
f 204 205 213
f 204 213 212
f 205 206 214
f 205 214 213
f 206 207 215
f 206 215 214
f 207 208 216
f 207 216 215
f 209 210 218
f 209 218 217
f 210 211 219
f 210 219 218
f 211 212 220
f 211 220 219
f 212 213 221
f 212 221 220
f 213 214 222
f 213 222 221
f 214 215 223
f 214 223 222
f 215 216 224
f 215 224 223
f 217 218 226
f 217 226 225
f 218 219 227
f 218 227 226
f 219 220 228
f 219 228 227
f 220 221 229
f 220 229 228
f 221 222 230
f 221 230 229
f 222 223 231
f 222 231 230
f 223 224 232
f 223 232 231
f 225 226 234
f 225 234 233
f 226 227 235
f 226 235 234
f 227 228 236
f 227 236 235
f 228 229 237
f 228 237 236
f 229 230 238
f 229 238 237
f 230 231 239
f 230 239 238
f 231 232 240
f 231 240 239
f 233 234 242
f 233 242 241
f 234 235 243
f 234 243 242
f 235 236 244
f 235 244 243
f 236 237 245
f 236 245 244
f 237 238 246
f 237 246 245
f 238 239 247
f 238 247 246
f 239 240 248
f 239 248 247
f 241 242 250
f 241 250 249
f 242 243 251
f 242 251 250
f 243 244 252
f 243 252 251
f 244 245 253
f 244 253 252
f 245 246 254
f 245 254 253
f 246 247 255
f 246 255 254
f 247 248 256
f 247 256 255
f 257 258 266
f 257 266 265
f 258 259 267
f 258 267 266
f 259 260 268
f 259 268 267
f 260 261 269
f 260 269 268
f 261 262 270
f 261 270 269
f 262 263 271
f 262 271 270
f 263 264 272
f 263 272 271
f 265 266 274
f 265 274 273
f 266 267 275
f 266 275 274
f 267 268 276
f 267 276 275
f 268 269 277
f 268 277 276
f 269 270 278
f 269 278 277
f 270 271 279
f 270 279 278
f 271 272 280
f 271 280 279
f 273 274 282
f 273 282 281
f 274 275 283
f 274 283 282
f 275 276 284
f 275 284 283
f 276 277 285
f 276 285 284
f 277 278 286
f 277 286 285
f 278 279 287
f 278 287 286
f 279 280 288
f 279 288 287
f 281 282 290
f 281 290 289
f 282 283 291
f 282 291 290
f 283 284 292
f 283 292 291
f 284 285 293
f 284 293 292
f 285 286 294
f 285 294 293
f 286 287 295
f 286 295 294
f 287 288 296
f 287 296 295
f 289 290 298
f 289 298 297
f 290 291 299
f 290 299 298
f 291 292 300
f 291 300 299
f 292 293 301
f 292 301 300
f 293 294 302
f 293 302 301
f 294 295 303
f 294 303 302
f 295 296 304
f 295 304 303
f 297 298 306
f 297 306 305
f 298 299 307
f 298 307 306
f 299 300 308
f 299 308 307
f 300 301 309
f 300 309 308
f 301 302 310
f 301 310 309
f 302 303 311
f 302 311 310
f 303 304 312
f 303 312 311
f 305 306 314
f 305 314 313
f 306 307 315
f 306 315 314
f 307 308 316
f 307 316 315
f 308 309 317
f 308 317 316
f 309 310 318
f 309 318 317
f 310 311 319
f 310 319 318
f 311 312 320
f 311 320 319
f 321 322 330
f 321 330 329
f 322 323 331
f 322 331 330
f 323 324 332
f 323 332 331
f 324 325 333
f 324 333 332
f 325 326 334
f 325 334 333
f 326 327 335
f 326 335 334
f 327 328 336
f 327 336 335
f 329 330 338
f 329 338 337
f 330 331 339
f 330 339 338
f 331 332 340
f 331 340 339
f 332 333 341
f 332 341 340
f 333 334 342
f 333 342 341
f 334 335 343
f 334 343 342
f 335 336 344
f 335 344 343
f 337 338 346
f 337 346 345
f 338 339 347
f 338 347 346
f 339 340 348
f 339 348 347
f 340 341 349
f 340 349 348
f 341 342 350
f 341 350 349
f 342 343 351
f 342 351 350
f 343 344 352
f 343 352 351
f 345 346 354
f 345 354 353
f 346 347 355
f 346 355 354
f 347 348 356
f 347 356 355
f 348 349 357
f 348 357 356
f 349 350 358
f 349 358 357
f 350 351 359
f 350 359 358
f 351 352 360
f 351 360 359
f 353 354 362
f 353 362 361
f 354 355 363
f 354 363 362
f 355 356 364
f 355 364 363
f 356 357 365
f 356 365 364
f 357 358 366
f 357 366 365
f 358 359 367
f 358 367 366
f 359 360 368
f 359 368 367
f 361 362 370
f 361 370 369
f 362 363 371
f 362 371 370
f 363 364 372
f 363 372 371
f 364 365 373
f 364 373 372
f 365 366 374
f 365 374 373
f 366 367 375
f 366 375 374
f 367 368 376
f 367 376 375
f 369 370 378
f 369 378 377
f 370 371 379
f 370 379 378
f 371 372 380
f 371 380 379
f 372 373 381
f 372 381 380
f 373 374 382
f 373 382 381
f 374 375 383
f 374 383 382
f 375 376 384
f 375 384 383
f 385 387 388
f 385 388 386
f 387 389 390
f 387 390 388
f 389 391 392
f 389 392 390
f 391 393 394
f 391 394 392
f 393 395 396
f 393 396 394
f 395 397 398
f 395 398 396
f 397 399 400
f 397 400 398
f 399 385 386
f 399 386 400
f 401 386 388
f 402 387 385
f 401 388 390
f 402 389 387
f 401 390 392
f 402 391 389
f 401 392 394
f 402 393 391
f 401 394 396
f 402 395 393
f 401 396 398
f 402 397 395
f 401 398 400
f 402 399 397
f 401 400 386
f 402 385 399
f 403 404 410
f 403 410 409
f 404 405 411
f 404 411 410
f 405 406 412
f 405 412 411
f 406 407 413
f 406 413 412
f 407 408 414
f 407 414 413
f 409 410 416
f 409 416 415
f 410 411 417
f 410 417 416
f 411 412 418
f 411 418 417
f 412 413 419
f 412 419 418
f 413 414 420
f 413 420 419
f 415 416 422
f 415 422 421
f 416 417 423
f 416 423 422
f 417 418 424
f 417 424 423
f 418 419 425
f 418 425 424
f 419 420 426
f 419 426 425
f 421 422 428
f 421 428 427
f 422 423 429
f 422 429 428
f 423 424 430
f 423 430 429
f 424 425 431
f 424 431 430
f 425 426 432
f 425 432 431
f 427 428 434
f 427 434 433
f 428 429 435
f 428 435 434
f 429 430 436
f 429 436 435
f 430 431 437
f 430 437 436
f 431 432 438
f 431 438 437
f 439 440 446
f 439 446 445
f 440 441 447
f 440 447 446
f 441 442 448
f 441 448 447
f 442 443 449
f 442 449 448
f 443 444 450
f 443 450 449
f 445 446 452
f 445 452 451
f 446 447 453
f 446 453 452
f 447 448 454
f 447 454 453
f 448 449 455
f 448 455 454
f 449 450 456
f 449 456 455
f 451 452 458
f 451 458 457
f 452 453 459
f 452 459 458
f 453 454 460
f 453 460 459
f 454 455 461
f 454 461 460
f 455 456 462
f 455 462 461
f 457 458 464
f 457 464 463
f 458 459 465
f 458 465 464
f 459 460 466
f 459 466 465
f 460 461 467
f 460 467 466
f 461 462 468
f 461 468 467
f 463 464 470
f 463 470 469
f 464 465 471
f 464 471 470
f 465 466 472
f 465 472 471
f 466 467 473
f 466 473 472
f 467 468 474
f 467 474 473
f 475 476 482
f 475 482 481
f 476 477 483
f 476 483 482
f 477 478 484
f 477 484 483
f 478 479 485
f 478 485 484
f 479 480 486
f 479 486 485
f 481 482 488
f 481 488 487
f 482 483 489
f 482 489 488
f 483 484 490
f 483 490 489
f 484 485 491
f 484 491 490
f 485 486 492
f 485 492 491
f 487 488 494
f 487 494 493
f 488 489 495
f 488 495 494
f 489 490 496
f 489 496 495
f 490 491 497
f 490 497 496
f 491 492 498
f 491 498 497
f 493 494 500
f 493 500 499
f 494 495 501
f 494 501 500
f 495 496 502
f 495 502 501
f 496 497 503
f 496 503 502
f 497 498 504
f 497 504 503
f 499 500 506
f 499 506 505
f 500 501 507
f 500 507 506
f 501 502 508
f 501 508 507
f 502 503 509
f 502 509 508
f 503 504 510
f 503 510 509
f 511 512 518
f 511 518 517
f 512 513 519
f 512 519 518
f 513 514 520
f 513 520 519
f 514 515 521
f 514 521 520
f 515 516 522
f 515 522 521
f 517 518 524
f 517 524 523
f 518 519 525
f 518 525 524
f 519 520 526
f 519 526 525
f 520 521 527
f 520 527 526
f 521 522 528
f 521 528 527
f 523 524 530
f 523 530 529
f 524 525 531
f 524 531 530
f 525 526 532
f 525 532 531
f 526 527 533
f 526 533 532
f 527 528 534
f 527 534 533
f 529 530 536
f 529 536 535
f 530 531 537
f 530 537 536
f 531 532 538
f 531 538 537
f 532 533 539
f 532 539 538
f 533 534 540
f 533 540 539
f 535 536 542
f 535 542 541
f 536 537 543
f 536 543 542
f 537 538 544
f 537 544 543
f 538 539 545
f 538 545 544
f 539 540 546
f 539 546 545
f 547 548 554
f 547 554 553
f 548 549 555
f 548 555 554
f 549 550 556
f 549 556 555
f 550 551 557
f 550 557 556
f 551 552 558
f 551 558 557
f 553 554 560
f 553 560 559
f 554 555 561
f 554 561 560
f 555 556 562
f 555 562 561
f 556 557 563
f 556 563 562
f 557 558 564
f 557 564 563
f 559 560 566
f 559 566 565
f 560 561 567
f 560 567 566
f 561 562 568
f 561 568 567
f 562 563 569
f 562 569 568
f 563 564 570
f 563 570 569
f 565 566 572
f 565 572 571
f 566 567 573
f 566 573 572
f 567 568 574
f 567 574 573
f 568 569 575
f 568 575 574
f 569 570 576
f 569 576 575
f 571 572 578
f 571 578 577
f 572 573 579
f 572 579 578
f 573 574 580
f 573 580 579
f 574 575 581
f 574 581 580
f 575 576 582
f 575 582 581
f 583 584 590
f 583 590 589
f 584 585 591
f 584 591 590
f 585 586 592
f 585 592 591
f 586 587 593
f 586 593 592
f 587 588 594
f 587 594 593
f 589 590 596
f 589 596 595
f 590 591 597
f 590 597 596
f 591 592 598
f 591 598 597
f 592 593 599
f 592 599 598
f 593 594 600
f 593 600 599
f 595 596 602
f 595 602 601
f 596 597 603
f 596 603 602
f 597 598 604
f 597 604 603
f 598 599 605
f 598 605 604
f 599 600 606
f 599 606 605
f 601 602 608
f 601 608 607
f 602 603 609
f 602 609 608
f 603 604 610
f 603 610 609
f 604 605 611
f 604 611 610
f 605 606 612
f 605 612 611
f 607 608 614
f 607 614 613
f 608 609 615
f 608 615 614
f 609 610 616
f 609 616 615
f 610 611 617
f 610 617 616
f 611 612 618
f 611 618 617
f 619 620 625
f 619 625 624
f 620 621 626
f 620 626 625
f 621 622 627
f 621 627 626
f 622 623 628
f 622 628 627
f 624 625 630
f 624 630 629
f 625 626 631
f 625 631 630
f 626 627 632
f 626 632 631
f 627 628 633
f 627 633 632
f 629 630 635
f 629 635 634
f 630 631 636
f 630 636 635
f 631 632 637
f 631 637 636
f 632 633 638
f 632 638 637
f 634 635 640
f 634 640 639
f 635 636 641
f 635 641 640
f 636 637 642
f 636 642 641
f 637 638 643
f 637 643 642
f 644 645 650
f 644 650 649
f 645 646 651
f 645 651 650
f 646 647 652
f 646 652 651
f 647 648 653
f 647 653 652
f 649 650 655
f 649 655 654
f 650 651 656
f 650 656 655
f 651 652 657
f 651 657 656
f 652 653 658
f 652 658 657
f 654 655 660
f 654 660 659
f 655 656 661
f 655 661 660
f 656 657 662
f 656 662 661
f 657 658 663
f 657 663 662
f 659 660 665
f 659 665 664
f 660 661 666
f 660 666 665
f 661 662 667
f 661 667 666
f 662 663 668
f 662 668 667
f 669 670 675
f 669 675 674
f 670 671 676
f 670 676 675
f 671 672 677
f 671 677 676
f 672 673 678
f 672 678 677
f 674 675 680
f 674 680 679
f 675 676 681
f 675 681 680
f 676 677 682
f 676 682 681
f 677 678 683
f 677 683 682
f 679 680 685
f 679 685 684
f 680 681 686
f 680 686 685
f 681 682 687
f 681 687 686
f 682 683 688
f 682 688 687
f 684 685 690
f 684 690 689
f 685 686 691
f 685 691 690
f 686 687 692
f 686 692 691
f 687 688 693
f 687 693 692
f 694 695 700
f 694 700 699
f 695 696 701
f 695 701 700
f 696 697 702
f 696 702 701
f 697 698 703
f 697 703 702
f 699 700 705
f 699 705 704
f 700 701 706
f 700 706 705
f 701 702 707
f 701 707 706
f 702 703 708
f 702 708 707
f 704 705 710
f 704 710 709
f 705 706 711
f 705 711 710
f 706 707 712
f 706 712 711
f 707 708 713
f 707 713 712
f 709 710 715
f 709 715 714
f 710 711 716
f 710 716 715
f 711 712 717
f 711 717 716
f 712 713 718
f 712 718 717
f 719 720 725
f 719 725 724
f 720 721 726
f 720 726 725
f 721 722 727
f 721 727 726
f 722 723 728
f 722 728 727
f 724 725 730
f 724 730 729
f 725 726 731
f 725 731 730
f 726 727 732
f 726 732 731
f 727 728 733
f 727 733 732
f 729 730 735
f 729 735 734
f 730 731 736
f 730 736 735
f 731 732 737
f 731 737 736
f 732 733 738
f 732 738 737
f 734 735 740
f 734 740 739
f 735 736 741
f 735 741 740
f 736 737 742
f 736 742 741
f 737 738 743
f 737 743 742
f 744 745 750
f 744 750 749
f 745 746 751
f 745 751 750
f 746 747 752
f 746 752 751
f 747 748 753
f 747 753 752
f 749 750 755
f 749 755 754
f 750 751 756
f 750 756 755
f 751 752 757
f 751 757 756
f 752 753 758
f 752 758 757
f 754 755 760
f 754 760 759
f 755 756 761
f 755 761 760
f 756 757 762
f 756 762 761
f 757 758 763
f 757 763 762
f 759 760 765
f 759 765 764
f 760 761 766
f 760 766 765
f 761 762 767
f 761 767 766
f 762 763 768
f 762 768 767
