# 의무낭 — 블록아웃
# 삼각형 948 · 조각 1
# 생성: tools/blockout — 손으로 고치지 말 것, 생성기를 고칠 것
g medicBag
v -0.1500 -0.1100 0.0800
v -0.1500 -0.0733 0.0800
v -0.1500 -0.0367 0.0800
v -0.1500 0.0000 0.0800
v -0.1500 0.0367 0.0800
v -0.1500 0.0733 0.0800
v -0.1500 0.1100 0.0800
v -0.1000 -0.1100 0.0800
v -0.1000 -0.0733 0.0800
v -0.1000 -0.0367 0.0800
v -0.1000 0.0000 0.0800
v -0.1000 0.0367 0.0800
v -0.1000 0.0733 0.0800
v -0.1000 0.1100 0.0800
v -0.0500 -0.1100 0.0800
v -0.0500 -0.0733 0.0800
v -0.0500 -0.0367 0.0800
v -0.0500 0.0000 0.0800
v -0.0500 0.0367 0.0800
v -0.0500 0.0733 0.0800
v -0.0500 0.1100 0.0800
v 0.0000 -0.1100 0.0800
v 0.0000 -0.0733 0.0800
v 0.0000 -0.0367 0.0800
v 0.0000 0.0000 0.0800
v 0.0000 0.0367 0.0800
v 0.0000 0.0733 0.0800
v 0.0000 0.1100 0.0800
v 0.0500 -0.1100 0.0800
v 0.0500 -0.0733 0.0800
v 0.0500 -0.0367 0.0800
v 0.0500 0.0000 0.0800
v 0.0500 0.0367 0.0800
v 0.0500 0.0733 0.0800
v 0.0500 0.1100 0.0800
v 0.1000 -0.1100 0.0800
v 0.1000 -0.0733 0.0800
v 0.1000 -0.0367 0.0800
v 0.1000 0.0000 0.0800
v 0.1000 0.0367 0.0800
v 0.1000 0.0733 0.0800
v 0.1000 0.1100 0.0800
v 0.1500 -0.1100 0.0800
v 0.1500 -0.0733 0.0800
v 0.1500 -0.0367 0.0800
v 0.1500 0.0000 0.0800
v 0.1500 0.0367 0.0800
v 0.1500 0.0733 0.0800
v 0.1500 0.1100 0.0800
v 0.1500 -0.1100 -0.0800
v 0.1500 -0.0733 -0.0800
v 0.1500 -0.0367 -0.0800
v 0.1500 0.0000 -0.0800
v 0.1500 0.0367 -0.0800
v 0.1500 0.0733 -0.0800
v 0.1500 0.1100 -0.0800
v 0.1000 -0.1100 -0.0800
v 0.1000 -0.0733 -0.0800
v 0.1000 -0.0367 -0.0800
v 0.1000 0.0000 -0.0800
v 0.1000 0.0367 -0.0800
v 0.1000 0.0733 -0.0800
v 0.1000 0.1100 -0.0800
v 0.0500 -0.1100 -0.0800
v 0.0500 -0.0733 -0.0800
v 0.0500 -0.0367 -0.0800
v 0.0500 0.0000 -0.0800
v 0.0500 0.0367 -0.0800
v 0.0500 0.0733 -0.0800
v 0.0500 0.1100 -0.0800
v 0.0000 -0.1100 -0.0800
v 0.0000 -0.0733 -0.0800
v 0.0000 -0.0367 -0.0800
v 0.0000 0.0000 -0.0800
v 0.0000 0.0367 -0.0800
v 0.0000 0.0733 -0.0800
v 0.0000 0.1100 -0.0800
v -0.0500 -0.1100 -0.0800
v -0.0500 -0.0733 -0.0800
v -0.0500 -0.0367 -0.0800
v -0.0500 0.0000 -0.0800
v -0.0500 0.0367 -0.0800
v -0.0500 0.0733 -0.0800
v -0.0500 0.1100 -0.0800
v -0.1000 -0.1100 -0.0800
v -0.1000 -0.0733 -0.0800
v -0.1000 -0.0367 -0.0800
v -0.1000 0.0000 -0.0800
v -0.1000 0.0367 -0.0800
v -0.1000 0.0733 -0.0800
v -0.1000 0.1100 -0.0800
v -0.1500 -0.1100 -0.0800
v -0.1500 -0.0733 -0.0800
v -0.1500 -0.0367 -0.0800
v -0.1500 0.0000 -0.0800
v -0.1500 0.0367 -0.0800
v -0.1500 0.0733 -0.0800
v -0.1500 0.1100 -0.0800
v -0.1500 -0.1100 -0.0800
v -0.1500 -0.0733 -0.0800
v -0.1500 -0.0367 -0.0800
v -0.1500 0.0000 -0.0800
v -0.1500 0.0367 -0.0800
v -0.1500 0.0733 -0.0800
v -0.1500 0.1100 -0.0800
v -0.1500 -0.1100 -0.0533
v -0.1500 -0.0733 -0.0533
v -0.1500 -0.0367 -0.0533
v -0.1500 0.0000 -0.0533
v -0.1500 0.0367 -0.0533
v -0.1500 0.0733 -0.0533
v -0.1500 0.1100 -0.0533
v -0.1500 -0.1100 -0.0267
v -0.1500 -0.0733 -0.0267
v -0.1500 -0.0367 -0.0267
v -0.1500 0.0000 -0.0267
v -0.1500 0.0367 -0.0267
v -0.1500 0.0733 -0.0267
v -0.1500 0.1100 -0.0267
v -0.1500 -0.1100 0.0000
v -0.1500 -0.0733 0.0000
v -0.1500 -0.0367 0.0000
v -0.1500 0.0000 0.0000
v -0.1500 0.0367 0.0000
v -0.1500 0.0733 0.0000
v -0.1500 0.1100 0.0000
v -0.1500 -0.1100 0.0267
v -0.1500 -0.0733 0.0267
v -0.1500 -0.0367 0.0267
v -0.1500 0.0000 0.0267
v -0.1500 0.0367 0.0267
v -0.1500 0.0733 0.0267
v -0.1500 0.1100 0.0267
v -0.1500 -0.1100 0.0533
v -0.1500 -0.0733 0.0533
v -0.1500 -0.0367 0.0533
v -0.1500 0.0000 0.0533
v -0.1500 0.0367 0.0533
v -0.1500 0.0733 0.0533
v -0.1500 0.1100 0.0533
v -0.1500 -0.1100 0.0800
v -0.1500 -0.0733 0.0800
v -0.1500 -0.0367 0.0800
v -0.1500 0.0000 0.0800
v -0.1500 0.0367 0.0800
v -0.1500 0.0733 0.0800
v -0.1500 0.1100 0.0800
v 0.1500 -0.1100 0.0800
v 0.1500 -0.0733 0.0800
v 0.1500 -0.0367 0.0800
v 0.1500 0.0000 0.0800
v 0.1500 0.0367 0.0800
v 0.1500 0.0733 0.0800
v 0.1500 0.1100 0.0800
v 0.1500 -0.1100 0.0533
v 0.1500 -0.0733 0.0533
v 0.1500 -0.0367 0.0533
v 0.1500 0.0000 0.0533
v 0.1500 0.0367 0.0533
v 0.1500 0.0733 0.0533
v 0.1500 0.1100 0.0533
v 0.1500 -0.1100 0.0267
v 0.1500 -0.0733 0.0267
v 0.1500 -0.0367 0.0267
v 0.1500 0.0000 0.0267
v 0.1500 0.0367 0.0267
v 0.1500 0.0733 0.0267
v 0.1500 0.1100 0.0267
v 0.1500 -0.1100 0.0000
v 0.1500 -0.0733 0.0000
v 0.1500 -0.0367 0.0000
v 0.1500 0.0000 0.0000
v 0.1500 0.0367 0.0000
v 0.1500 0.0733 0.0000
v 0.1500 0.1100 0.0000
v 0.1500 -0.1100 -0.0267
v 0.1500 -0.0733 -0.0267
v 0.1500 -0.0367 -0.0267
v 0.1500 0.0000 -0.0267
v 0.1500 0.0367 -0.0267
v 0.1500 0.0733 -0.0267
v 0.1500 0.1100 -0.0267
v 0.1500 -0.1100 -0.0533
v 0.1500 -0.0733 -0.0533
v 0.1500 -0.0367 -0.0533
v 0.1500 0.0000 -0.0533
v 0.1500 0.0367 -0.0533
v 0.1500 0.0733 -0.0533
v 0.1500 0.1100 -0.0533
v 0.1500 -0.1100 -0.0800
v 0.1500 -0.0733 -0.0800
v 0.1500 -0.0367 -0.0800
v 0.1500 0.0000 -0.0800
v 0.1500 0.0367 -0.0800
v 0.1500 0.0733 -0.0800
v 0.1500 0.1100 -0.0800
v -0.1500 0.1100 -0.0800
v -0.1500 0.1100 -0.0533
v -0.1500 0.1100 -0.0267
v -0.1500 0.1100 0.0000
v -0.1500 0.1100 0.0267
v -0.1500 0.1100 0.0533
v -0.1500 0.1100 0.0800
v -0.1000 0.1100 -0.0800
v -0.1000 0.1100 -0.0533
v -0.1000 0.1100 -0.0267
v -0.1000 0.1100 0.0000
v -0.1000 0.1100 0.0267
v -0.1000 0.1100 0.0533
v -0.1000 0.1100 0.0800
v -0.0500 0.1100 -0.0800
v -0.0500 0.1100 -0.0533
v -0.0500 0.1100 -0.0267
v -0.0500 0.1100 0.0000
v -0.0500 0.1100 0.0267
v -0.0500 0.1100 0.0533
v -0.0500 0.1100 0.0800
v 0.0000 0.1100 -0.0800
v 0.0000 0.1100 -0.0533
v 0.0000 0.1100 -0.0267
v 0.0000 0.1100 0.0000
v 0.0000 0.1100 0.0267
v 0.0000 0.1100 0.0533
v 0.0000 0.1100 0.0800
v 0.0500 0.1100 -0.0800
v 0.0500 0.1100 -0.0533
v 0.0500 0.1100 -0.0267
v 0.0500 0.1100 0.0000
v 0.0500 0.1100 0.0267
v 0.0500 0.1100 0.0533
v 0.0500 0.1100 0.0800
v 0.1000 0.1100 -0.0800
v 0.1000 0.1100 -0.0533
v 0.1000 0.1100 -0.0267
v 0.1000 0.1100 0.0000
v 0.1000 0.1100 0.0267
v 0.1000 0.1100 0.0533
v 0.1000 0.1100 0.0800
v 0.1500 0.1100 -0.0800
v 0.1500 0.1100 -0.0533
v 0.1500 0.1100 -0.0267
v 0.1500 0.1100 0.0000
v 0.1500 0.1100 0.0267
v 0.1500 0.1100 0.0533
v 0.1500 0.1100 0.0800
v -0.1500 -0.1100 0.0800
v -0.1500 -0.1100 0.0533
v -0.1500 -0.1100 0.0267
v -0.1500 -0.1100 0.0000
v -0.1500 -0.1100 -0.0267
v -0.1500 -0.1100 -0.0533
v -0.1500 -0.1100 -0.0800
v -0.1000 -0.1100 0.0800
v -0.1000 -0.1100 0.0533
v -0.1000 -0.1100 0.0267
v -0.1000 -0.1100 0.0000
v -0.1000 -0.1100 -0.0267
v -0.1000 -0.1100 -0.0533
v -0.1000 -0.1100 -0.0800
v -0.0500 -0.1100 0.0800
v -0.0500 -0.1100 0.0533
v -0.0500 -0.1100 0.0267
v -0.0500 -0.1100 0.0000
v -0.0500 -0.1100 -0.0267
v -0.0500 -0.1100 -0.0533
v -0.0500 -0.1100 -0.0800
v 0.0000 -0.1100 0.0800
v 0.0000 -0.1100 0.0533
v 0.0000 -0.1100 0.0267
v 0.0000 -0.1100 0.0000
v 0.0000 -0.1100 -0.0267
v 0.0000 -0.1100 -0.0533
v 0.0000 -0.1100 -0.0800
v 0.0500 -0.1100 0.0800
v 0.0500 -0.1100 0.0533
v 0.0500 -0.1100 0.0267
v 0.0500 -0.1100 0.0000
v 0.0500 -0.1100 -0.0267
v 0.0500 -0.1100 -0.0533
v 0.0500 -0.1100 -0.0800
v 0.1000 -0.1100 0.0800
v 0.1000 -0.1100 0.0533
v 0.1000 -0.1100 0.0267
v 0.1000 -0.1100 0.0000
v 0.1000 -0.1100 -0.0267
v 0.1000 -0.1100 -0.0533
v 0.1000 -0.1100 -0.0800
v 0.1500 -0.1100 0.0800
v 0.1500 -0.1100 0.0533
v 0.1500 -0.1100 0.0267
v 0.1500 -0.1100 0.0000
v 0.1500 -0.1100 -0.0267
v 0.1500 -0.1100 -0.0533
v 0.1500 -0.1100 -0.0800
v -0.1400 0.0950 0.0700
v -0.1400 0.1050 0.0700
v -0.1400 0.1150 0.0700
v -0.1400 0.1250 0.0700
v -0.1400 0.1350 0.0700
v -0.1400 0.1450 0.0700
v -0.0840 0.0950 0.0700
v -0.0840 0.1050 0.0700
v -0.0840 0.1150 0.0700
v -0.0840 0.1250 0.0700
v -0.0840 0.1350 0.0700
v -0.0840 0.1450 0.0700
v -0.0280 0.0950 0.0700
v -0.0280 0.1050 0.0700
v -0.0280 0.1150 0.0700
v -0.0280 0.1250 0.0700
v -0.0280 0.1350 0.0700
v -0.0280 0.1450 0.0700
v 0.0280 0.0950 0.0700
v 0.0280 0.1050 0.0700
v 0.0280 0.1150 0.0700
v 0.0280 0.1250 0.0700
v 0.0280 0.1350 0.0700
v 0.0280 0.1450 0.0700
v 0.0840 0.0950 0.0700
v 0.0840 0.1050 0.0700
v 0.0840 0.1150 0.0700
v 0.0840 0.1250 0.0700
v 0.0840 0.1350 0.0700
v 0.0840 0.1450 0.0700
v 0.1400 0.0950 0.0700
v 0.1400 0.1050 0.0700
v 0.1400 0.1150 0.0700
v 0.1400 0.1250 0.0700
v 0.1400 0.1350 0.0700
v 0.1400 0.1450 0.0700
v 0.1400 0.0950 -0.0700
v 0.1400 0.1050 -0.0700
v 0.1400 0.1150 -0.0700
v 0.1400 0.1250 -0.0700
v 0.1400 0.1350 -0.0700
v 0.1400 0.1450 -0.0700
v 0.0840 0.0950 -0.0700
v 0.0840 0.1050 -0.0700
v 0.0840 0.1150 -0.0700
v 0.0840 0.1250 -0.0700
v 0.0840 0.1350 -0.0700
v 0.0840 0.1450 -0.0700
v 0.0280 0.0950 -0.0700
v 0.0280 0.1050 -0.0700
v 0.0280 0.1150 -0.0700
v 0.0280 0.1250 -0.0700
v 0.0280 0.1350 -0.0700
v 0.0280 0.1450 -0.0700
v -0.0280 0.0950 -0.0700
v -0.0280 0.1050 -0.0700
v -0.0280 0.1150 -0.0700
v -0.0280 0.1250 -0.0700
v -0.0280 0.1350 -0.0700
v -0.0280 0.1450 -0.0700
v -0.0840 0.0950 -0.0700
v -0.0840 0.1050 -0.0700
v -0.0840 0.1150 -0.0700
v -0.0840 0.1250 -0.0700
v -0.0840 0.1350 -0.0700
v -0.0840 0.1450 -0.0700
v -0.1400 0.0950 -0.0700
v -0.1400 0.1050 -0.0700
v -0.1400 0.1150 -0.0700
v -0.1400 0.1250 -0.0700
v -0.1400 0.1350 -0.0700
v -0.1400 0.1450 -0.0700
v -0.1400 0.0950 -0.0700
v -0.1400 0.1050 -0.0700
v -0.1400 0.1150 -0.0700
v -0.1400 0.1250 -0.0700
v -0.1400 0.1350 -0.0700
v -0.1400 0.1450 -0.0700
v -0.1400 0.0950 -0.0420
v -0.1400 0.1050 -0.0420
v -0.1400 0.1150 -0.0420
v -0.1400 0.1250 -0.0420
v -0.1400 0.1350 -0.0420
v -0.1400 0.1450 -0.0420
v -0.1400 0.0950 -0.0140
v -0.1400 0.1050 -0.0140
v -0.1400 0.1150 -0.0140
v -0.1400 0.1250 -0.0140
v -0.1400 0.1350 -0.0140
v -0.1400 0.1450 -0.0140
v -0.1400 0.0950 0.0140
v -0.1400 0.1050 0.0140
v -0.1400 0.1150 0.0140
v -0.1400 0.1250 0.0140
v -0.1400 0.1350 0.0140
v -0.1400 0.1450 0.0140
v -0.1400 0.0950 0.0420
v -0.1400 0.1050 0.0420
v -0.1400 0.1150 0.0420
v -0.1400 0.1250 0.0420
v -0.1400 0.1350 0.0420
v -0.1400 0.1450 0.0420
v -0.1400 0.0950 0.0700
v -0.1400 0.1050 0.0700
v -0.1400 0.1150 0.0700
v -0.1400 0.1250 0.0700
v -0.1400 0.1350 0.0700
v -0.1400 0.1450 0.0700
v 0.1400 0.0950 0.0700
v 0.1400 0.1050 0.0700
v 0.1400 0.1150 0.0700
v 0.1400 0.1250 0.0700
v 0.1400 0.1350 0.0700
v 0.1400 0.1450 0.0700
v 0.1400 0.0950 0.0420
v 0.1400 0.1050 0.0420
v 0.1400 0.1150 0.0420
v 0.1400 0.1250 0.0420
v 0.1400 0.1350 0.0420
v 0.1400 0.1450 0.0420
v 0.1400 0.0950 0.0140
v 0.1400 0.1050 0.0140
v 0.1400 0.1150 0.0140
v 0.1400 0.1250 0.0140
v 0.1400 0.1350 0.0140
v 0.1400 0.1450 0.0140
v 0.1400 0.0950 -0.0140
v 0.1400 0.1050 -0.0140
v 0.1400 0.1150 -0.0140
v 0.1400 0.1250 -0.0140
v 0.1400 0.1350 -0.0140
v 0.1400 0.1450 -0.0140
v 0.1400 0.0950 -0.0420
v 0.1400 0.1050 -0.0420
v 0.1400 0.1150 -0.0420
v 0.1400 0.1250 -0.0420
v 0.1400 0.1350 -0.0420
v 0.1400 0.1450 -0.0420
v 0.1400 0.0950 -0.0700
v 0.1400 0.1050 -0.0700
v 0.1400 0.1150 -0.0700
v 0.1400 0.1250 -0.0700
v 0.1400 0.1350 -0.0700
v 0.1400 0.1450 -0.0700
v -0.1400 0.1450 -0.0700
v -0.1400 0.1450 -0.0420
v -0.1400 0.1450 -0.0140
v -0.1400 0.1450 0.0140
v -0.1400 0.1450 0.0420
v -0.1400 0.1450 0.0700
v -0.0840 0.1450 -0.0700
v -0.0840 0.1450 -0.0420
v -0.0840 0.1450 -0.0140
v -0.0840 0.1450 0.0140
v -0.0840 0.1450 0.0420
v -0.0840 0.1450 0.0700
v -0.0280 0.1450 -0.0700
v -0.0280 0.1450 -0.0420
v -0.0280 0.1450 -0.0140
v -0.0280 0.1450 0.0140
v -0.0280 0.1450 0.0420
v -0.0280 0.1450 0.0700
v 0.0280 0.1450 -0.0700
v 0.0280 0.1450 -0.0420
v 0.0280 0.1450 -0.0140
v 0.0280 0.1450 0.0140
v 0.0280 0.1450 0.0420
v 0.0280 0.1450 0.0700
v 0.0840 0.1450 -0.0700
v 0.0840 0.1450 -0.0420
v 0.0840 0.1450 -0.0140
v 0.0840 0.1450 0.0140
v 0.0840 0.1450 0.0420
v 0.0840 0.1450 0.0700
v 0.1400 0.1450 -0.0700
v 0.1400 0.1450 -0.0420
v 0.1400 0.1450 -0.0140
v 0.1400 0.1450 0.0140
v 0.1400 0.1450 0.0420
v 0.1400 0.1450 0.0700
v -0.1400 0.0950 0.0700
v -0.1400 0.0950 0.0420
v -0.1400 0.0950 0.0140
v -0.1400 0.0950 -0.0140
v -0.1400 0.0950 -0.0420
v -0.1400 0.0950 -0.0700
v -0.0840 0.0950 0.0700
v -0.0840 0.0950 0.0420
v -0.0840 0.0950 0.0140
v -0.0840 0.0950 -0.0140
v -0.0840 0.0950 -0.0420
v -0.0840 0.0950 -0.0700
v -0.0280 0.0950 0.0700
v -0.0280 0.0950 0.0420
v -0.0280 0.0950 0.0140
v -0.0280 0.0950 -0.0140
v -0.0280 0.0950 -0.0420
v -0.0280 0.0950 -0.0700
v 0.0280 0.0950 0.0700
v 0.0280 0.0950 0.0420
v 0.0280 0.0950 0.0140
v 0.0280 0.0950 -0.0140
v 0.0280 0.0950 -0.0420
v 0.0280 0.0950 -0.0700
v 0.0840 0.0950 0.0700
v 0.0840 0.0950 0.0420
v 0.0840 0.0950 0.0140
v 0.0840 0.0950 -0.0140
v 0.0840 0.0950 -0.0420
v 0.0840 0.0950 -0.0700
v 0.1400 0.0950 0.0700
v 0.1400 0.0950 0.0420
v 0.1400 0.0950 0.0140
v 0.1400 0.0950 -0.0140
v 0.1400 0.0950 -0.0420
v 0.1400 0.0950 -0.0700
v -0.0400 -0.0100 0.0900
v -0.0400 -0.0033 0.0900
v -0.0400 0.0033 0.0900
v -0.0400 0.0100 0.0900
v -0.0133 -0.0100 0.0900
v -0.0133 -0.0033 0.0900
v -0.0133 0.0033 0.0900
v -0.0133 0.0100 0.0900
v 0.0133 -0.0100 0.0900
v 0.0133 -0.0033 0.0900
v 0.0133 0.0033 0.0900
v 0.0133 0.0100 0.0900
v 0.0400 -0.0100 0.0900
v 0.0400 -0.0033 0.0900
v 0.0400 0.0033 0.0900
v 0.0400 0.0100 0.0900
v 0.0400 -0.0100 0.0800
v 0.0400 -0.0033 0.0800
v 0.0400 0.0033 0.0800
v 0.0400 0.0100 0.0800
v 0.0133 -0.0100 0.0800
v 0.0133 -0.0033 0.0800
v 0.0133 0.0033 0.0800
v 0.0133 0.0100 0.0800
v -0.0133 -0.0100 0.0800
v -0.0133 -0.0033 0.0800
v -0.0133 0.0033 0.0800
v -0.0133 0.0100 0.0800
v -0.0400 -0.0100 0.0800
v -0.0400 -0.0033 0.0800
v -0.0400 0.0033 0.0800
v -0.0400 0.0100 0.0800
v -0.0400 -0.0100 0.0800
v -0.0400 -0.0033 0.0800
v -0.0400 0.0033 0.0800
v -0.0400 0.0100 0.0800
v -0.0400 -0.0100 0.0833
v -0.0400 -0.0033 0.0833
v -0.0400 0.0033 0.0833
v -0.0400 0.0100 0.0833
v -0.0400 -0.0100 0.0867
v -0.0400 -0.0033 0.0867
v -0.0400 0.0033 0.0867
v -0.0400 0.0100 0.0867
v -0.0400 -0.0100 0.0900
v -0.0400 -0.0033 0.0900
v -0.0400 0.0033 0.0900
v -0.0400 0.0100 0.0900
v 0.0400 -0.0100 0.0900
v 0.0400 -0.0033 0.0900
v 0.0400 0.0033 0.0900
v 0.0400 0.0100 0.0900
v 0.0400 -0.0100 0.0867
v 0.0400 -0.0033 0.0867
v 0.0400 0.0033 0.0867
v 0.0400 0.0100 0.0867
v 0.0400 -0.0100 0.0833
v 0.0400 -0.0033 0.0833
v 0.0400 0.0033 0.0833
v 0.0400 0.0100 0.0833
v 0.0400 -0.0100 0.0800
v 0.0400 -0.0033 0.0800
v 0.0400 0.0033 0.0800
v 0.0400 0.0100 0.0800
v -0.0400 0.0100 0.0800
v -0.0400 0.0100 0.0833
v -0.0400 0.0100 0.0867
v -0.0400 0.0100 0.0900
v -0.0133 0.0100 0.0800
v -0.0133 0.0100 0.0833
v -0.0133 0.0100 0.0867
v -0.0133 0.0100 0.0900
v 0.0133 0.0100 0.0800
v 0.0133 0.0100 0.0833
v 0.0133 0.0100 0.0867
v 0.0133 0.0100 0.0900
v 0.0400 0.0100 0.0800
v 0.0400 0.0100 0.0833
v 0.0400 0.0100 0.0867
v 0.0400 0.0100 0.0900
v -0.0400 -0.0100 0.0900
v -0.0400 -0.0100 0.0867
v -0.0400 -0.0100 0.0833
v -0.0400 -0.0100 0.0800
v -0.0133 -0.0100 0.0900
v -0.0133 -0.0100 0.0867
v -0.0133 -0.0100 0.0833
v -0.0133 -0.0100 0.0800
v 0.0133 -0.0100 0.0900
v 0.0133 -0.0100 0.0867
v 0.0133 -0.0100 0.0833
v 0.0133 -0.0100 0.0800
v 0.0400 -0.0100 0.0900
v 0.0400 -0.0100 0.0867
v 0.0400 -0.0100 0.0833
v 0.0400 -0.0100 0.0800
v -0.0100 -0.0400 0.0900
v -0.0100 -0.0133 0.0900
v -0.0100 0.0133 0.0900
v -0.0100 0.0400 0.0900
v -0.0033 -0.0400 0.0900
v -0.0033 -0.0133 0.0900
v -0.0033 0.0133 0.0900
v -0.0033 0.0400 0.0900
v 0.0033 -0.0400 0.0900
v 0.0033 -0.0133 0.0900
v 0.0033 0.0133 0.0900
v 0.0033 0.0400 0.0900
v 0.0100 -0.0400 0.0900
v 0.0100 -0.0133 0.0900
v 0.0100 0.0133 0.0900
v 0.0100 0.0400 0.0900
v 0.0100 -0.0400 0.0800
v 0.0100 -0.0133 0.0800
v 0.0100 0.0133 0.0800
v 0.0100 0.0400 0.0800
v 0.0033 -0.0400 0.0800
v 0.0033 -0.0133 0.0800
v 0.0033 0.0133 0.0800
v 0.0033 0.0400 0.0800
v -0.0033 -0.0400 0.0800
v -0.0033 -0.0133 0.0800
v -0.0033 0.0133 0.0800
v -0.0033 0.0400 0.0800
v -0.0100 -0.0400 0.0800
v -0.0100 -0.0133 0.0800
v -0.0100 0.0133 0.0800
v -0.0100 0.0400 0.0800
v -0.0100 -0.0400 0.0800
v -0.0100 -0.0133 0.0800
v -0.0100 0.0133 0.0800
v -0.0100 0.0400 0.0800
v -0.0100 -0.0400 0.0833
v -0.0100 -0.0133 0.0833
v -0.0100 0.0133 0.0833
v -0.0100 0.0400 0.0833
v -0.0100 -0.0400 0.0867
v -0.0100 -0.0133 0.0867
v -0.0100 0.0133 0.0867
v -0.0100 0.0400 0.0867
v -0.0100 -0.0400 0.0900
v -0.0100 -0.0133 0.0900
v -0.0100 0.0133 0.0900
v -0.0100 0.0400 0.0900
v 0.0100 -0.0400 0.0900
v 0.0100 -0.0133 0.0900
v 0.0100 0.0133 0.0900
v 0.0100 0.0400 0.0900
v 0.0100 -0.0400 0.0867
v 0.0100 -0.0133 0.0867
v 0.0100 0.0133 0.0867
v 0.0100 0.0400 0.0867
v 0.0100 -0.0400 0.0833
v 0.0100 -0.0133 0.0833
v 0.0100 0.0133 0.0833
v 0.0100 0.0400 0.0833
v 0.0100 -0.0400 0.0800
v 0.0100 -0.0133 0.0800
v 0.0100 0.0133 0.0800
v 0.0100 0.0400 0.0800
v -0.0100 0.0400 0.0800
v -0.0100 0.0400 0.0833
v -0.0100 0.0400 0.0867
v -0.0100 0.0400 0.0900
v -0.0033 0.0400 0.0800
v -0.0033 0.0400 0.0833
v -0.0033 0.0400 0.0867
v -0.0033 0.0400 0.0900
v 0.0033 0.0400 0.0800
v 0.0033 0.0400 0.0833
v 0.0033 0.0400 0.0867
v 0.0033 0.0400 0.0900
v 0.0100 0.0400 0.0800
v 0.0100 0.0400 0.0833
v 0.0100 0.0400 0.0867
v 0.0100 0.0400 0.0900
v -0.0100 -0.0400 0.0900
v -0.0100 -0.0400 0.0867
v -0.0100 -0.0400 0.0833
v -0.0100 -0.0400 0.0800
v -0.0033 -0.0400 0.0900
v -0.0033 -0.0400 0.0867
v -0.0033 -0.0400 0.0833
v -0.0033 -0.0400 0.0800
v 0.0033 -0.0400 0.0900
v 0.0033 -0.0400 0.0867
v 0.0033 -0.0400 0.0833
v 0.0033 -0.0400 0.0800
v 0.0100 -0.0400 0.0900
v 0.0100 -0.0400 0.0867
v 0.0100 -0.0400 0.0833
v 0.0100 -0.0400 0.0800
f 1 2 9
f 1 9 8
f 2 3 10
f 2 10 9
f 3 4 11
f 3 11 10
f 4 5 12
f 4 12 11
f 5 6 13
f 5 13 12
f 6 7 14
f 6 14 13
f 8 9 16
f 8 16 15
f 9 10 17
f 9 17 16
f 10 11 18
f 10 18 17
f 11 12 19
f 11 19 18
f 12 13 20
f 12 20 19
f 13 14 21
f 13 21 20
f 15 16 23
f 15 23 22
f 16 17 24
f 16 24 23
f 17 18 25
f 17 25 24
f 18 19 26
f 18 26 25
f 19 20 27
f 19 27 26
f 20 21 28
f 20 28 27
f 22 23 30
f 22 30 29
f 23 24 31
f 23 31 30
f 24 25 32
f 24 32 31
f 25 26 33
f 25 33 32
f 26 27 34
f 26 34 33
f 27 28 35
f 27 35 34
f 29 30 37
f 29 37 36
f 30 31 38
f 30 38 37
f 31 32 39
f 31 39 38
f 32 33 40
f 32 40 39
f 33 34 41
f 33 41 40
f 34 35 42
f 34 42 41
f 36 37 44
f 36 44 43
f 37 38 45
f 37 45 44
f 38 39 46
f 38 46 45
f 39 40 47
f 39 47 46
f 40 41 48
f 40 48 47
f 41 42 49
f 41 49 48
f 50 51 58
f 50 58 57
f 51 52 59
f 51 59 58
f 52 53 60
f 52 60 59
f 53 54 61
f 53 61 60
f 54 55 62
f 54 62 61
f 55 56 63
f 55 63 62
f 57 58 65
f 57 65 64
f 58 59 66
f 58 66 65
f 59 60 67
f 59 67 66
f 60 61 68
f 60 68 67
f 61 62 69
f 61 69 68
f 62 63 70
f 62 70 69
f 64 65 72
f 64 72 71
f 65 66 73
f 65 73 72
f 66 67 74
f 66 74 73
f 67 68 75
f 67 75 74
f 68 69 76
f 68 76 75
f 69 70 77
f 69 77 76
f 71 72 79
f 71 79 78
f 72 73 80
f 72 80 79
f 73 74 81
f 73 81 80
f 74 75 82
f 74 82 81
f 75 76 83
f 75 83 82
f 76 77 84
f 76 84 83
f 78 79 86
f 78 86 85
f 79 80 87
f 79 87 86
f 80 81 88
f 80 88 87
f 81 82 89
f 81 89 88
f 82 83 90
f 82 90 89
f 83 84 91
f 83 91 90
f 85 86 93
f 85 93 92
f 86 87 94
f 86 94 93
f 87 88 95
f 87 95 94
f 88 89 96
f 88 96 95
f 89 90 97
f 89 97 96
f 90 91 98
f 90 98 97
f 99 100 107
f 99 107 106
f 100 101 108
f 100 108 107
f 101 102 109
f 101 109 108
f 102 103 110
f 102 110 109
f 103 104 111
f 103 111 110
f 104 105 112
f 104 112 111
f 106 107 114
f 106 114 113
f 107 108 115
f 107 115 114
f 108 109 116
f 108 116 115
f 109 110 117
f 109 117 116
f 110 111 118
f 110 118 117
f 111 112 119
f 111 119 118
f 113 114 121
f 113 121 120
f 114 115 122
f 114 122 121
f 115 116 123
f 115 123 122
f 116 117 124
f 116 124 123
f 117 118 125
f 117 125 124
f 118 119 126
f 118 126 125
f 120 121 128
f 120 128 127
f 121 122 129
f 121 129 128
f 122 123 130
f 122 130 129
f 123 124 131
f 123 131 130
f 124 125 132
f 124 132 131
f 125 126 133
f 125 133 132
f 127 128 135
f 127 135 134
f 128 129 136
f 128 136 135
f 129 130 137
f 129 137 136
f 130 131 138
f 130 138 137
f 131 132 139
f 131 139 138
f 132 133 140
f 132 140 139
f 134 135 142
f 134 142 141
f 135 136 143
f 135 143 142
f 136 137 144
f 136 144 143
f 137 138 145
f 137 145 144
f 138 139 146
f 138 146 145
f 139 140 147
f 139 147 146
f 148 149 156
f 148 156 155
f 149 150 157
f 149 157 156
f 150 151 158
f 150 158 157
f 151 152 159
f 151 159 158
f 152 153 160
f 152 160 159
f 153 154 161
f 153 161 160
f 155 156 163
f 155 163 162
f 156 157 164
f 156 164 163
f 157 158 165
f 157 165 164
f 158 159 166
f 158 166 165
f 159 160 167
f 159 167 166
f 160 161 168
f 160 168 167
f 162 163 170
f 162 170 169
f 163 164 171
f 163 171 170
f 164 165 172
f 164 172 171
f 165 166 173
f 165 173 172
f 166 167 174
f 166 174 173
f 167 168 175
f 167 175 174
f 169 170 177
f 169 177 176
f 170 171 178
f 170 178 177
f 171 172 179
f 171 179 178
f 172 173 180
f 172 180 179
f 173 174 181
f 173 181 180
f 174 175 182
f 174 182 181
f 176 177 184
f 176 184 183
f 177 178 185
f 177 185 184
f 178 179 186
f 178 186 185
f 179 180 187
f 179 187 186
f 180 181 188
f 180 188 187
f 181 182 189
f 181 189 188
f 183 184 191
f 183 191 190
f 184 185 192
f 184 192 191
f 185 186 193
f 185 193 192
f 186 187 194
f 186 194 193
f 187 188 195
f 187 195 194
f 188 189 196
f 188 196 195
f 197 198 205
f 197 205 204
f 198 199 206
f 198 206 205
f 199 200 207
f 199 207 206
f 200 201 208
f 200 208 207
f 201 202 209
f 201 209 208
f 202 203 210
f 202 210 209
f 204 205 212
f 204 212 211
f 205 206 213
f 205 213 212
f 206 207 214
f 206 214 213
f 207 208 215
f 207 215 214
f 208 209 216
f 208 216 215
f 209 210 217
f 209 217 216
f 211 212 219
f 211 219 218
f 212 213 220
f 212 220 219
f 213 214 221
f 213 221 220
f 214 215 222
f 214 222 221
f 215 216 223
f 215 223 222
f 216 217 224
f 216 224 223
f 218 219 226
f 218 226 225
f 219 220 227
f 219 227 226
f 220 221 228
f 220 228 227
f 221 222 229
f 221 229 228
f 222 223 230
f 222 230 229
f 223 224 231
f 223 231 230
f 225 226 233
f 225 233 232
f 226 227 234
f 226 234 233
f 227 228 235
f 227 235 234
f 228 229 236
f 228 236 235
f 229 230 237
f 229 237 236
f 230 231 238
f 230 238 237
f 232 233 240
f 232 240 239
f 233 234 241
f 233 241 240
f 234 235 242
f 234 242 241
f 235 236 243
f 235 243 242
f 236 237 244
f 236 244 243
f 237 238 245
f 237 245 244
f 246 247 254
f 246 254 253
f 247 248 255
f 247 255 254
f 248 249 256
f 248 256 255
f 249 250 257
f 249 257 256
f 250 251 258
f 250 258 257
f 251 252 259
f 251 259 258
f 253 254 261
f 253 261 260
f 254 255 262
f 254 262 261
f 255 256 263
f 255 263 262
f 256 257 264
f 256 264 263
f 257 258 265
f 257 265 264
f 258 259 266
f 258 266 265
f 260 261 268
f 260 268 267
f 261 262 269
f 261 269 268
f 262 263 270
f 262 270 269
f 263 264 271
f 263 271 270
f 264 265 272
f 264 272 271
f 265 266 273
f 265 273 272
f 267 268 275
f 267 275 274
f 268 269 276
f 268 276 275
f 269 270 277
f 269 277 276
f 270 271 278
f 270 278 277
f 271 272 279
f 271 279 278
f 272 273 280
f 272 280 279
f 274 275 282
f 274 282 281
f 275 276 283
f 275 283 282
f 276 277 284
f 276 284 283
f 277 278 285
f 277 285 284
f 278 279 286
f 278 286 285
f 279 280 287
f 279 287 286
f 281 282 289
f 281 289 288
f 282 283 290
f 282 290 289
f 283 284 291
f 283 291 290
f 284 285 292
f 284 292 291
f 285 286 293
f 285 293 292
f 286 287 294
f 286 294 293
f 295 296 302
f 295 302 301
f 296 297 303
f 296 303 302
f 297 298 304
f 297 304 303
f 298 299 305
f 298 305 304
f 299 300 306
f 299 306 305
f 301 302 308
f 301 308 307
f 302 303 309
f 302 309 308
f 303 304 310
f 303 310 309
f 304 305 311
f 304 311 310
f 305 306 312
f 305 312 311
f 307 308 314
f 307 314 313
f 308 309 315
f 308 315 314
f 309 310 316
f 309 316 315
f 310 311 317
f 310 317 316
f 311 312 318
f 311 318 317
f 313 314 320
f 313 320 319
f 314 315 321
f 314 321 320
f 315 316 322
f 315 322 321
f 316 317 323
f 316 323 322
f 317 318 324
f 317 324 323
f 319 320 326
f 319 326 325
f 320 321 327
f 320 327 326
f 321 322 328
f 321 328 327
f 322 323 329
f 322 329 328
f 323 324 330
f 323 330 329
f 331 332 338
f 331 338 337
f 332 333 339
f 332 339 338
f 333 334 340
f 333 340 339
f 334 335 341
f 334 341 340
f 335 336 342
f 335 342 341
f 337 338 344
f 337 344 343
f 338 339 345
f 338 345 344
f 339 340 346
f 339 346 345
f 340 341 347
f 340 347 346
f 341 342 348
f 341 348 347
f 343 344 350
f 343 350 349
f 344 345 351
f 344 351 350
f 345 346 352
f 345 352 351
f 346 347 353
f 346 353 352
f 347 348 354
f 347 354 353
f 349 350 356
f 349 356 355
f 350 351 357
f 350 357 356
f 351 352 358
f 351 358 357
f 352 353 359
f 352 359 358
f 353 354 360
f 353 360 359
f 355 356 362
f 355 362 361
f 356 357 363
f 356 363 362
f 357 358 364
f 357 364 363
f 358 359 365
f 358 365 364
f 359 360 366
f 359 366 365
f 367 368 374
f 367 374 373
f 368 369 375
f 368 375 374
f 369 370 376
f 369 376 375
f 370 371 377
f 370 377 376
f 371 372 378
f 371 378 377
f 373 374 380
f 373 380 379
f 374 375 381
f 374 381 380
f 375 376 382
f 375 382 381
f 376 377 383
f 376 383 382
f 377 378 384
f 377 384 383
f 379 380 386
f 379 386 385
f 380 381 387
f 380 387 386
f 381 382 388
f 381 388 387
f 382 383 389
f 382 389 388
f 383 384 390
f 383 390 389
f 385 386 392
f 385 392 391
f 386 387 393
f 386 393 392
f 387 388 394
f 387 394 393
f 388 389 395
f 388 395 394
f 389 390 396
f 389 396 395
f 391 392 398
f 391 398 397
f 392 393 399
f 392 399 398
f 393 394 400
f 393 400 399
f 394 395 401
f 394 401 400
f 395 396 402
f 395 402 401
f 403 404 410
f 403 410 409
f 404 405 411
f 404 411 410
f 405 406 412
f 405 412 411
f 406 407 413
f 406 413 412
f 407 408 414
f 407 414 413
f 409 410 416
f 409 416 415
f 410 411 417
f 410 417 416
f 411 412 418
f 411 418 417
f 412 413 419
f 412 419 418
f 413 414 420
f 413 420 419
f 415 416 422
f 415 422 421
f 416 417 423
f 416 423 422
f 417 418 424
f 417 424 423
f 418 419 425
f 418 425 424
f 419 420 426
f 419 426 425
f 421 422 428
f 421 428 427
f 422 423 429
f 422 429 428
f 423 424 430
f 423 430 429
f 424 425 431
f 424 431 430
f 425 426 432
f 425 432 431
f 427 428 434
f 427 434 433
f 428 429 435
f 428 435 434
f 429 430 436
f 429 436 435
f 430 431 437
f 430 437 436
f 431 432 438
f 431 438 437
f 439 440 446
f 439 446 445
f 440 441 447
f 440 447 446
f 441 442 448
f 441 448 447
f 442 443 449
f 442 449 448
f 443 444 450
f 443 450 449
f 445 446 452
f 445 452 451
f 446 447 453
f 446 453 452
f 447 448 454
f 447 454 453
f 448 449 455
f 448 455 454
f 449 450 456
f 449 456 455
f 451 452 458
f 451 458 457
f 452 453 459
f 452 459 458
f 453 454 460
f 453 460 459
f 454 455 461
f 454 461 460
f 455 456 462
f 455 462 461
f 457 458 464
f 457 464 463
f 458 459 465
f 458 465 464
f 459 460 466
f 459 466 465
f 460 461 467
f 460 467 466
f 461 462 468
f 461 468 467
f 463 464 470
f 463 470 469
f 464 465 471
f 464 471 470
f 465 466 472
f 465 472 471
f 466 467 473
f 466 473 472
f 467 468 474
f 467 474 473
f 475 476 482
f 475 482 481
f 476 477 483
f 476 483 482
f 477 478 484
f 477 484 483
f 478 479 485
f 478 485 484
f 479 480 486
f 479 486 485
f 481 482 488
f 481 488 487
f 482 483 489
f 482 489 488
f 483 484 490
f 483 490 489
f 484 485 491
f 484 491 490
f 485 486 492
f 485 492 491
f 487 488 494
f 487 494 493
f 488 489 495
f 488 495 494
f 489 490 496
f 489 496 495
f 490 491 497
f 490 497 496
f 491 492 498
f 491 498 497
f 493 494 500
f 493 500 499
f 494 495 501
f 494 501 500
f 495 496 502
f 495 502 501
f 496 497 503
f 496 503 502
f 497 498 504
f 497 504 503
f 499 500 506
f 499 506 505
f 500 501 507
f 500 507 506
f 501 502 508
f 501 508 507
f 502 503 509
f 502 509 508
f 503 504 510
f 503 510 509
f 511 512 516
f 511 516 515
f 512 513 517
f 512 517 516
f 513 514 518
f 513 518 517
f 515 516 520
f 515 520 519
f 516 517 521
f 516 521 520
f 517 518 522
f 517 522 521
f 519 520 524
f 519 524 523
f 520 521 525
f 520 525 524
f 521 522 526
f 521 526 525
f 527 528 532
f 527 532 531
f 528 529 533
f 528 533 532
f 529 530 534
f 529 534 533
f 531 532 536
f 531 536 535
f 532 533 537
f 532 537 536
f 533 534 538
f 533 538 537
f 535 536 540
f 535 540 539
f 536 537 541
f 536 541 540
f 537 538 542
f 537 542 541
f 543 544 548
f 543 548 547
f 544 545 549
f 544 549 548
f 545 546 550
f 545 550 549
f 547 548 552
f 547 552 551
f 548 549 553
f 548 553 552
f 549 550 554
f 549 554 553
f 551 552 556
f 551 556 555
f 552 553 557
f 552 557 556
f 553 554 558
f 553 558 557
f 559 560 564
f 559 564 563
f 560 561 565
f 560 565 564
f 561 562 566
f 561 566 565
f 563 564 568
f 563 568 567
f 564 565 569
f 564 569 568
f 565 566 570
f 565 570 569
f 567 568 572
f 567 572 571
f 568 569 573
f 568 573 572
f 569 570 574
f 569 574 573
f 575 576 580
f 575 580 579
f 576 577 581
f 576 581 580
f 577 578 582
f 577 582 581
f 579 580 584
f 579 584 583
f 580 581 585
f 580 585 584
f 581 582 586
f 581 586 585
f 583 584 588
f 583 588 587
f 584 585 589
f 584 589 588
f 585 586 590
f 585 590 589
f 591 592 596
f 591 596 595
f 592 593 597
f 592 597 596
f 593 594 598
f 593 598 597
f 595 596 600
f 595 600 599
f 596 597 601
f 596 601 600
f 597 598 602
f 597 602 601
f 599 600 604
f 599 604 603
f 600 601 605
f 600 605 604
f 601 602 606
f 601 606 605
f 607 608 612
f 607 612 611
f 608 609 613
f 608 613 612
f 609 610 614
f 609 614 613
f 611 612 616
f 611 616 615
f 612 613 617
f 612 617 616
f 613 614 618
f 613 618 617
f 615 616 620
f 615 620 619
f 616 617 621
f 616 621 620
f 617 618 622
f 617 622 621
f 623 624 628
f 623 628 627
f 624 625 629
f 624 629 628
f 625 626 630
f 625 630 629
f 627 628 632
f 627 632 631
f 628 629 633
f 628 633 632
f 629 630 634
f 629 634 633
f 631 632 636
f 631 636 635
f 632 633 637
f 632 637 636
f 633 634 638
f 633 638 637
f 639 640 644
f 639 644 643
f 640 641 645
f 640 645 644
f 641 642 646
f 641 646 645
f 643 644 648
f 643 648 647
f 644 645 649
f 644 649 648
f 645 646 650
f 645 650 649
f 647 648 652
f 647 652 651
f 648 649 653
f 648 653 652
f 649 650 654
f 649 654 653
f 655 656 660
f 655 660 659
f 656 657 661
f 656 661 660
f 657 658 662
f 657 662 661
f 659 660 664
f 659 664 663
f 660 661 665
f 660 665 664
f 661 662 666
f 661 666 665
f 663 664 668
f 663 668 667
f 664 665 669
f 664 669 668
f 665 666 670
f 665 670 669
f 671 672 676
f 671 676 675
f 672 673 677
f 672 677 676
f 673 674 678
f 673 678 677
f 675 676 680
f 675 680 679
f 676 677 681
f 676 681 680
f 677 678 682
f 677 682 681
f 679 680 684
f 679 684 683
f 680 681 685
f 680 685 684
f 681 682 686
f 681 686 685
f 687 688 692
f 687 692 691
f 688 689 693
f 688 693 692
f 689 690 694
f 689 694 693
f 691 692 696
f 691 696 695
f 692 693 697
f 692 697 696
f 693 694 698
f 693 698 697
f 695 696 700
f 695 700 699
f 696 697 701
f 696 701 700
f 697 698 702
f 697 702 701
