# 안테나 — 블록아웃 (예산 1500 tris)
# 삼각형 1376 · 조각 1
# 생성: tools/blockout — 손으로 고치지 말 것, 생성기를 고칠 것
g antenna
v 0.0500 0.0000 0.0000
v 0.0500 3.2000 0.0000
v 0.0476 0.0000 0.0155
v 0.0476 3.2000 0.0155
v 0.0405 0.0000 0.0294
v 0.0405 3.2000 0.0294
v 0.0294 0.0000 0.0405
v 0.0294 3.2000 0.0405
v 0.0155 0.0000 0.0476
v 0.0155 3.2000 0.0476
v 0.0000 0.0000 0.0500
v 0.0000 3.2000 0.0500
v -0.0155 0.0000 0.0476
v -0.0155 3.2000 0.0476
v -0.0294 0.0000 0.0405
v -0.0294 3.2000 0.0405
v -0.0405 0.0000 0.0294
v -0.0405 3.2000 0.0294
v -0.0476 0.0000 0.0155
v -0.0476 3.2000 0.0155
v -0.0500 0.0000 0.0000
v -0.0500 3.2000 0.0000
v -0.0476 0.0000 -0.0155
v -0.0476 3.2000 -0.0155
v -0.0405 0.0000 -0.0294
v -0.0405 3.2000 -0.0294
v -0.0294 0.0000 -0.0405
v -0.0294 3.2000 -0.0405
v -0.0155 0.0000 -0.0476
v -0.0155 3.2000 -0.0476
v -0.0000 0.0000 -0.0500
v -0.0000 3.2000 -0.0500
v 0.0155 0.0000 -0.0476
v 0.0155 3.2000 -0.0476
v 0.0294 0.0000 -0.0405
v 0.0294 3.2000 -0.0405
v 0.0405 0.0000 -0.0294
v 0.0405 3.2000 -0.0294
v 0.0476 0.0000 -0.0155
v 0.0476 3.2000 -0.0155
v 0.0000 3.2000 0.0000
v 0.0000 0.0000 0.0000
v -0.4500 2.5800 0.0200
v -0.4500 2.5867 0.0200
v -0.4500 2.5933 0.0200
v -0.4500 2.6000 0.0200
v -0.4500 2.6067 0.0200
v -0.4500 2.6133 0.0200
v -0.4500 2.6200 0.0200
v -0.3000 2.5800 0.0200
v -0.3000 2.5867 0.0200
v -0.3000 2.5933 0.0200
v -0.3000 2.6000 0.0200
v -0.3000 2.6067 0.0200
v -0.3000 2.6133 0.0200
v -0.3000 2.6200 0.0200
v -0.1500 2.5800 0.0200
v -0.1500 2.5867 0.0200
v -0.1500 2.5933 0.0200
v -0.1500 2.6000 0.0200
v -0.1500 2.6067 0.0200
v -0.1500 2.6133 0.0200
v -0.1500 2.6200 0.0200
v 0.0000 2.5800 0.0200
v 0.0000 2.5867 0.0200
v 0.0000 2.5933 0.0200
v 0.0000 2.6000 0.0200
v 0.0000 2.6067 0.0200
v 0.0000 2.6133 0.0200
v 0.0000 2.6200 0.0200
v 0.1500 2.5800 0.0200
v 0.1500 2.5867 0.0200
v 0.1500 2.5933 0.0200
v 0.1500 2.6000 0.0200
v 0.1500 2.6067 0.0200
v 0.1500 2.6133 0.0200
v 0.1500 2.6200 0.0200
v 0.3000 2.5800 0.0200
v 0.3000 2.5867 0.0200
v 0.3000 2.5933 0.0200
v 0.3000 2.6000 0.0200
v 0.3000 2.6067 0.0200
v 0.3000 2.6133 0.0200
v 0.3000 2.6200 0.0200
v 0.4500 2.5800 0.0200
v 0.4500 2.5867 0.0200
v 0.4500 2.5933 0.0200
v 0.4500 2.6000 0.0200
v 0.4500 2.6067 0.0200
v 0.4500 2.6133 0.0200
v 0.4500 2.6200 0.0200
v 0.4500 2.5800 -0.0200
v 0.4500 2.5867 -0.0200
v 0.4500 2.5933 -0.0200
v 0.4500 2.6000 -0.0200
v 0.4500 2.6067 -0.0200
v 0.4500 2.6133 -0.0200
v 0.4500 2.6200 -0.0200
v 0.3000 2.5800 -0.0200
v 0.3000 2.5867 -0.0200
v 0.3000 2.5933 -0.0200
v 0.3000 2.6000 -0.0200
v 0.3000 2.6067 -0.0200
v 0.3000 2.6133 -0.0200
v 0.3000 2.6200 -0.0200
v 0.1500 2.5800 -0.0200
v 0.1500 2.5867 -0.0200
v 0.1500 2.5933 -0.0200
v 0.1500 2.6000 -0.0200
v 0.1500 2.6067 -0.0200
v 0.1500 2.6133 -0.0200
v 0.1500 2.6200 -0.0200
v 0.0000 2.5800 -0.0200
v 0.0000 2.5867 -0.0200
v 0.0000 2.5933 -0.0200
v 0.0000 2.6000 -0.0200
v 0.0000 2.6067 -0.0200
v 0.0000 2.6133 -0.0200
v 0.0000 2.6200 -0.0200
v -0.1500 2.5800 -0.0200
v -0.1500 2.5867 -0.0200
v -0.1500 2.5933 -0.0200
v -0.1500 2.6000 -0.0200
v -0.1500 2.6067 -0.0200
v -0.1500 2.6133 -0.0200
v -0.1500 2.6200 -0.0200
v -0.3000 2.5800 -0.0200
v -0.3000 2.5867 -0.0200
v -0.3000 2.5933 -0.0200
v -0.3000 2.6000 -0.0200
v -0.3000 2.6067 -0.0200
v -0.3000 2.6133 -0.0200
v -0.3000 2.6200 -0.0200
v -0.4500 2.5800 -0.0200
v -0.4500 2.5867 -0.0200
v -0.4500 2.5933 -0.0200
v -0.4500 2.6000 -0.0200
v -0.4500 2.6067 -0.0200
v -0.4500 2.6133 -0.0200
v -0.4500 2.6200 -0.0200
v -0.4500 2.5800 -0.0200
v -0.4500 2.5867 -0.0200
v -0.4500 2.5933 -0.0200
v -0.4500 2.6000 -0.0200
v -0.4500 2.6067 -0.0200
v -0.4500 2.6133 -0.0200
v -0.4500 2.6200 -0.0200
v -0.4500 2.5800 -0.0133
v -0.4500 2.5867 -0.0133
v -0.4500 2.5933 -0.0133
v -0.4500 2.6000 -0.0133
v -0.4500 2.6067 -0.0133
v -0.4500 2.6133 -0.0133
v -0.4500 2.6200 -0.0133
v -0.4500 2.5800 -0.0067
v -0.4500 2.5867 -0.0067
v -0.4500 2.5933 -0.0067
v -0.4500 2.6000 -0.0067
v -0.4500 2.6067 -0.0067
v -0.4500 2.6133 -0.0067
v -0.4500 2.6200 -0.0067
v -0.4500 2.5800 0.0000
v -0.4500 2.5867 0.0000
v -0.4500 2.5933 0.0000
v -0.4500 2.6000 0.0000
v -0.4500 2.6067 0.0000
v -0.4500 2.6133 0.0000
v -0.4500 2.6200 0.0000
v -0.4500 2.5800 0.0067
v -0.4500 2.5867 0.0067
v -0.4500 2.5933 0.0067
v -0.4500 2.6000 0.0067
v -0.4500 2.6067 0.0067
v -0.4500 2.6133 0.0067
v -0.4500 2.6200 0.0067
v -0.4500 2.5800 0.0133
v -0.4500 2.5867 0.0133
v -0.4500 2.5933 0.0133
v -0.4500 2.6000 0.0133
v -0.4500 2.6067 0.0133
v -0.4500 2.6133 0.0133
v -0.4500 2.6200 0.0133
v -0.4500 2.5800 0.0200
v -0.4500 2.5867 0.0200
v -0.4500 2.5933 0.0200
v -0.4500 2.6000 0.0200
v -0.4500 2.6067 0.0200
v -0.4500 2.6133 0.0200
v -0.4500 2.6200 0.0200
v 0.4500 2.5800 0.0200
v 0.4500 2.5867 0.0200
v 0.4500 2.5933 0.0200
v 0.4500 2.6000 0.0200
v 0.4500 2.6067 0.0200
v 0.4500 2.6133 0.0200
v 0.4500 2.6200 0.0200
v 0.4500 2.5800 0.0133
v 0.4500 2.5867 0.0133
v 0.4500 2.5933 0.0133
v 0.4500 2.6000 0.0133
v 0.4500 2.6067 0.0133
v 0.4500 2.6133 0.0133
v 0.4500 2.6200 0.0133
v 0.4500 2.5800 0.0067
v 0.4500 2.5867 0.0067
v 0.4500 2.5933 0.0067
v 0.4500 2.6000 0.0067
v 0.4500 2.6067 0.0067
v 0.4500 2.6133 0.0067
v 0.4500 2.6200 0.0067
v 0.4500 2.5800 0.0000
v 0.4500 2.5867 0.0000
v 0.4500 2.5933 0.0000
v 0.4500 2.6000 0.0000
v 0.4500 2.6067 0.0000
v 0.4500 2.6133 0.0000
v 0.4500 2.6200 0.0000
v 0.4500 2.5800 -0.0067
v 0.4500 2.5867 -0.0067
v 0.4500 2.5933 -0.0067
v 0.4500 2.6000 -0.0067
v 0.4500 2.6067 -0.0067
v 0.4500 2.6133 -0.0067
v 0.4500 2.6200 -0.0067
v 0.4500 2.5800 -0.0133
v 0.4500 2.5867 -0.0133
v 0.4500 2.5933 -0.0133
v 0.4500 2.6000 -0.0133
v 0.4500 2.6067 -0.0133
v 0.4500 2.6133 -0.0133
v 0.4500 2.6200 -0.0133
v 0.4500 2.5800 -0.0200
v 0.4500 2.5867 -0.0200
v 0.4500 2.5933 -0.0200
v 0.4500 2.6000 -0.0200
v 0.4500 2.6067 -0.0200
v 0.4500 2.6133 -0.0200
v 0.4500 2.6200 -0.0200
v -0.4500 2.6200 -0.0200
v -0.4500 2.6200 -0.0133
v -0.4500 2.6200 -0.0067
v -0.4500 2.6200 0.0000
v -0.4500 2.6200 0.0067
v -0.4500 2.6200 0.0133
v -0.4500 2.6200 0.0200
v -0.3000 2.6200 -0.0200
v -0.3000 2.6200 -0.0133
v -0.3000 2.6200 -0.0067
v -0.3000 2.6200 0.0000
v -0.3000 2.6200 0.0067
v -0.3000 2.6200 0.0133
v -0.3000 2.6200 0.0200
v -0.1500 2.6200 -0.0200
v -0.1500 2.6200 -0.0133
v -0.1500 2.6200 -0.0067
v -0.1500 2.6200 0.0000
v -0.1500 2.6200 0.0067
v -0.1500 2.6200 0.0133
v -0.1500 2.6200 0.0200
v 0.0000 2.6200 -0.0200
v 0.0000 2.6200 -0.0133
v 0.0000 2.6200 -0.0067
v 0.0000 2.6200 0.0000
v 0.0000 2.6200 0.0067
v 0.0000 2.6200 0.0133
v 0.0000 2.6200 0.0200
v 0.1500 2.6200 -0.0200
v 0.1500 2.6200 -0.0133
v 0.1500 2.6200 -0.0067
v 0.1500 2.6200 0.0000
v 0.1500 2.6200 0.0067
v 0.1500 2.6200 0.0133
v 0.1500 2.6200 0.0200
v 0.3000 2.6200 -0.0200
v 0.3000 2.6200 -0.0133
v 0.3000 2.6200 -0.0067
v 0.3000 2.6200 0.0000
v 0.3000 2.6200 0.0067
v 0.3000 2.6200 0.0133
v 0.3000 2.6200 0.0200
v 0.4500 2.6200 -0.0200
v 0.4500 2.6200 -0.0133
v 0.4500 2.6200 -0.0067
v 0.4500 2.6200 0.0000
v 0.4500 2.6200 0.0067
v 0.4500 2.6200 0.0133
v 0.4500 2.6200 0.0200
v -0.4500 2.5800 0.0200
v -0.4500 2.5800 0.0133
v -0.4500 2.5800 0.0067
v -0.4500 2.5800 0.0000
v -0.4500 2.5800 -0.0067
v -0.4500 2.5800 -0.0133
v -0.4500 2.5800 -0.0200
v -0.3000 2.5800 0.0200
v -0.3000 2.5800 0.0133
v -0.3000 2.5800 0.0067
v -0.3000 2.5800 0.0000
v -0.3000 2.5800 -0.0067
v -0.3000 2.5800 -0.0133
v -0.3000 2.5800 -0.0200
v -0.1500 2.5800 0.0200
v -0.1500 2.5800 0.0133
v -0.1500 2.5800 0.0067
v -0.1500 2.5800 0.0000
v -0.1500 2.5800 -0.0067
v -0.1500 2.5800 -0.0133
v -0.1500 2.5800 -0.0200
v 0.0000 2.5800 0.0200
v 0.0000 2.5800 0.0133
v 0.0000 2.5800 0.0067
v 0.0000 2.5800 0.0000
v 0.0000 2.5800 -0.0067
v 0.0000 2.5800 -0.0133
v 0.0000 2.5800 -0.0200
v 0.1500 2.5800 0.0200
v 0.1500 2.5800 0.0133
v 0.1500 2.5800 0.0067
v 0.1500 2.5800 0.0000
v 0.1500 2.5800 -0.0067
v 0.1500 2.5800 -0.0133
v 0.1500 2.5800 -0.0200
v 0.3000 2.5800 0.0200
v 0.3000 2.5800 0.0133
v 0.3000 2.5800 0.0067
v 0.3000 2.5800 0.0000
v 0.3000 2.5800 -0.0067
v 0.3000 2.5800 -0.0133
v 0.3000 2.5800 -0.0200
v 0.4500 2.5800 0.0200
v 0.4500 2.5800 0.0133
v 0.4500 2.5800 0.0067
v 0.4500 2.5800 0.0000
v 0.4500 2.5800 -0.0067
v 0.4500 2.5800 -0.0133
v 0.4500 2.5800 -0.0200
v -0.3500 2.1800 0.0200
v -0.3500 2.1867 0.0200
v -0.3500 2.1933 0.0200
v -0.3500 2.2000 0.0200
v -0.3500 2.2067 0.0200
v -0.3500 2.2133 0.0200
v -0.3500 2.2200 0.0200
v -0.2333 2.1800 0.0200
v -0.2333 2.1867 0.0200
v -0.2333 2.1933 0.0200
v -0.2333 2.2000 0.0200
v -0.2333 2.2067 0.0200
v -0.2333 2.2133 0.0200
v -0.2333 2.2200 0.0200
v -0.1167 2.1800 0.0200
v -0.1167 2.1867 0.0200
v -0.1167 2.1933 0.0200
v -0.1167 2.2000 0.0200
v -0.1167 2.2067 0.0200
v -0.1167 2.2133 0.0200
v -0.1167 2.2200 0.0200
v 0.0000 2.1800 0.0200
v 0.0000 2.1867 0.0200
v 0.0000 2.1933 0.0200
v 0.0000 2.2000 0.0200
v 0.0000 2.2067 0.0200
v 0.0000 2.2133 0.0200
v 0.0000 2.2200 0.0200
v 0.1167 2.1800 0.0200
v 0.1167 2.1867 0.0200
v 0.1167 2.1933 0.0200
v 0.1167 2.2000 0.0200
v 0.1167 2.2067 0.0200
v 0.1167 2.2133 0.0200
v 0.1167 2.2200 0.0200
v 0.2333 2.1800 0.0200
v 0.2333 2.1867 0.0200
v 0.2333 2.1933 0.0200
v 0.2333 2.2000 0.0200
v 0.2333 2.2067 0.0200
v 0.2333 2.2133 0.0200
v 0.2333 2.2200 0.0200
v 0.3500 2.1800 0.0200
v 0.3500 2.1867 0.0200
v 0.3500 2.1933 0.0200
v 0.3500 2.2000 0.0200
v 0.3500 2.2067 0.0200
v 0.3500 2.2133 0.0200
v 0.3500 2.2200 0.0200
v 0.3500 2.1800 -0.0200
v 0.3500 2.1867 -0.0200
v 0.3500 2.1933 -0.0200
v 0.3500 2.2000 -0.0200
v 0.3500 2.2067 -0.0200
v 0.3500 2.2133 -0.0200
v 0.3500 2.2200 -0.0200
v 0.2333 2.1800 -0.0200
v 0.2333 2.1867 -0.0200
v 0.2333 2.1933 -0.0200
v 0.2333 2.2000 -0.0200
v 0.2333 2.2067 -0.0200
v 0.2333 2.2133 -0.0200
v 0.2333 2.2200 -0.0200
v 0.1167 2.1800 -0.0200
v 0.1167 2.1867 -0.0200
v 0.1167 2.1933 -0.0200
v 0.1167 2.2000 -0.0200
v 0.1167 2.2067 -0.0200
v 0.1167 2.2133 -0.0200
v 0.1167 2.2200 -0.0200
v 0.0000 2.1800 -0.0200
v 0.0000 2.1867 -0.0200
v 0.0000 2.1933 -0.0200
v 0.0000 2.2000 -0.0200
v 0.0000 2.2067 -0.0200
v 0.0000 2.2133 -0.0200
v 0.0000 2.2200 -0.0200
v -0.1167 2.1800 -0.0200
v -0.1167 2.1867 -0.0200
v -0.1167 2.1933 -0.0200
v -0.1167 2.2000 -0.0200
v -0.1167 2.2067 -0.0200
v -0.1167 2.2133 -0.0200
v -0.1167 2.2200 -0.0200
v -0.2333 2.1800 -0.0200
v -0.2333 2.1867 -0.0200
v -0.2333 2.1933 -0.0200
v -0.2333 2.2000 -0.0200
v -0.2333 2.2067 -0.0200
v -0.2333 2.2133 -0.0200
v -0.2333 2.2200 -0.0200
v -0.3500 2.1800 -0.0200
v -0.3500 2.1867 -0.0200
v -0.3500 2.1933 -0.0200
v -0.3500 2.2000 -0.0200
v -0.3500 2.2067 -0.0200
v -0.3500 2.2133 -0.0200
v -0.3500 2.2200 -0.0200
v -0.3500 2.1800 -0.0200
v -0.3500 2.1867 -0.0200
v -0.3500 2.1933 -0.0200
v -0.3500 2.2000 -0.0200
v -0.3500 2.2067 -0.0200
v -0.3500 2.2133 -0.0200
v -0.3500 2.2200 -0.0200
v -0.3500 2.1800 -0.0133
v -0.3500 2.1867 -0.0133
v -0.3500 2.1933 -0.0133
v -0.3500 2.2000 -0.0133
v -0.3500 2.2067 -0.0133
v -0.3500 2.2133 -0.0133
v -0.3500 2.2200 -0.0133
v -0.3500 2.1800 -0.0067
v -0.3500 2.1867 -0.0067
v -0.3500 2.1933 -0.0067
v -0.3500 2.2000 -0.0067
v -0.3500 2.2067 -0.0067
v -0.3500 2.2133 -0.0067
v -0.3500 2.2200 -0.0067
v -0.3500 2.1800 0.0000
v -0.3500 2.1867 0.0000
v -0.3500 2.1933 0.0000
v -0.3500 2.2000 0.0000
v -0.3500 2.2067 0.0000
v -0.3500 2.2133 0.0000
v -0.3500 2.2200 0.0000
v -0.3500 2.1800 0.0067
v -0.3500 2.1867 0.0067
v -0.3500 2.1933 0.0067
v -0.3500 2.2000 0.0067
v -0.3500 2.2067 0.0067
v -0.3500 2.2133 0.0067
v -0.3500 2.2200 0.0067
v -0.3500 2.1800 0.0133
v -0.3500 2.1867 0.0133
v -0.3500 2.1933 0.0133
v -0.3500 2.2000 0.0133
v -0.3500 2.2067 0.0133
v -0.3500 2.2133 0.0133
v -0.3500 2.2200 0.0133
v -0.3500 2.1800 0.0200
v -0.3500 2.1867 0.0200
v -0.3500 2.1933 0.0200
v -0.3500 2.2000 0.0200
v -0.3500 2.2067 0.0200
v -0.3500 2.2133 0.0200
v -0.3500 2.2200 0.0200
v 0.3500 2.1800 0.0200
v 0.3500 2.1867 0.0200
v 0.3500 2.1933 0.0200
v 0.3500 2.2000 0.0200
v 0.3500 2.2067 0.0200
v 0.3500 2.2133 0.0200
v 0.3500 2.2200 0.0200
v 0.3500 2.1800 0.0133
v 0.3500 2.1867 0.0133
v 0.3500 2.1933 0.0133
v 0.3500 2.2000 0.0133
v 0.3500 2.2067 0.0133
v 0.3500 2.2133 0.0133
v 0.3500 2.2200 0.0133
v 0.3500 2.1800 0.0067
v 0.3500 2.1867 0.0067
v 0.3500 2.1933 0.0067
v 0.3500 2.2000 0.0067
v 0.3500 2.2067 0.0067
v 0.3500 2.2133 0.0067
v 0.3500 2.2200 0.0067
v 0.3500 2.1800 0.0000
v 0.3500 2.1867 0.0000
v 0.3500 2.1933 0.0000
v 0.3500 2.2000 0.0000
v 0.3500 2.2067 0.0000
v 0.3500 2.2133 0.0000
v 0.3500 2.2200 0.0000
v 0.3500 2.1800 -0.0067
v 0.3500 2.1867 -0.0067
v 0.3500 2.1933 -0.0067
v 0.3500 2.2000 -0.0067
v 0.3500 2.2067 -0.0067
v 0.3500 2.2133 -0.0067
v 0.3500 2.2200 -0.0067
v 0.3500 2.1800 -0.0133
v 0.3500 2.1867 -0.0133
v 0.3500 2.1933 -0.0133
v 0.3500 2.2000 -0.0133
v 0.3500 2.2067 -0.0133
v 0.3500 2.2133 -0.0133
v 0.3500 2.2200 -0.0133
v 0.3500 2.1800 -0.0200
v 0.3500 2.1867 -0.0200
v 0.3500 2.1933 -0.0200
v 0.3500 2.2000 -0.0200
v 0.3500 2.2067 -0.0200
v 0.3500 2.2133 -0.0200
v 0.3500 2.2200 -0.0200
v -0.3500 2.2200 -0.0200
v -0.3500 2.2200 -0.0133
v -0.3500 2.2200 -0.0067
v -0.3500 2.2200 0.0000
v -0.3500 2.2200 0.0067
v -0.3500 2.2200 0.0133
v -0.3500 2.2200 0.0200
v -0.2333 2.2200 -0.0200
v -0.2333 2.2200 -0.0133
v -0.2333 2.2200 -0.0067
v -0.2333 2.2200 0.0000
v -0.2333 2.2200 0.0067
v -0.2333 2.2200 0.0133
v -0.2333 2.2200 0.0200
v -0.1167 2.2200 -0.0200
v -0.1167 2.2200 -0.0133
v -0.1167 2.2200 -0.0067
v -0.1167 2.2200 0.0000
v -0.1167 2.2200 0.0067
v -0.1167 2.2200 0.0133
v -0.1167 2.2200 0.0200
v 0.0000 2.2200 -0.0200
v 0.0000 2.2200 -0.0133
v 0.0000 2.2200 -0.0067
v 0.0000 2.2200 0.0000
v 0.0000 2.2200 0.0067
v 0.0000 2.2200 0.0133
v 0.0000 2.2200 0.0200
v 0.1167 2.2200 -0.0200
v 0.1167 2.2200 -0.0133
v 0.1167 2.2200 -0.0067
v 0.1167 2.2200 0.0000
v 0.1167 2.2200 0.0067
v 0.1167 2.2200 0.0133
v 0.1167 2.2200 0.0200
v 0.2333 2.2200 -0.0200
v 0.2333 2.2200 -0.0133
v 0.2333 2.2200 -0.0067
v 0.2333 2.2200 0.0000
v 0.2333 2.2200 0.0067
v 0.2333 2.2200 0.0133
v 0.2333 2.2200 0.0200
v 0.3500 2.2200 -0.0200
v 0.3500 2.2200 -0.0133
v 0.3500 2.2200 -0.0067
v 0.3500 2.2200 0.0000
v 0.3500 2.2200 0.0067
v 0.3500 2.2200 0.0133
v 0.3500 2.2200 0.0200
v -0.3500 2.1800 0.0200
v -0.3500 2.1800 0.0133
v -0.3500 2.1800 0.0067
v -0.3500 2.1800 0.0000
v -0.3500 2.1800 -0.0067
v -0.3500 2.1800 -0.0133
v -0.3500 2.1800 -0.0200
v -0.2333 2.1800 0.0200
v -0.2333 2.1800 0.0133
v -0.2333 2.1800 0.0067
v -0.2333 2.1800 0.0000
v -0.2333 2.1800 -0.0067
v -0.2333 2.1800 -0.0133
v -0.2333 2.1800 -0.0200
v -0.1167 2.1800 0.0200
v -0.1167 2.1800 0.0133
v -0.1167 2.1800 0.0067
v -0.1167 2.1800 0.0000
v -0.1167 2.1800 -0.0067
v -0.1167 2.1800 -0.0133
v -0.1167 2.1800 -0.0200
v 0.0000 2.1800 0.0200
v 0.0000 2.1800 0.0133
v 0.0000 2.1800 0.0067
v 0.0000 2.1800 0.0000
v 0.0000 2.1800 -0.0067
v 0.0000 2.1800 -0.0133
v 0.0000 2.1800 -0.0200
v 0.1167 2.1800 0.0200
v 0.1167 2.1800 0.0133
v 0.1167 2.1800 0.0067
v 0.1167 2.1800 0.0000
v 0.1167 2.1800 -0.0067
v 0.1167 2.1800 -0.0133
v 0.1167 2.1800 -0.0200
v 0.2333 2.1800 0.0200
v 0.2333 2.1800 0.0133
v 0.2333 2.1800 0.0067
v 0.2333 2.1800 0.0000
v 0.2333 2.1800 -0.0067
v 0.2333 2.1800 -0.0133
v 0.2333 2.1800 -0.0200
v 0.3500 2.1800 0.0200
v 0.3500 2.1800 0.0133
v 0.3500 2.1800 0.0067
v 0.3500 2.1800 0.0000
v 0.3500 2.1800 -0.0067
v 0.3500 2.1800 -0.0133
v 0.3500 2.1800 -0.0200
v -0.1500 0.0000 0.1500
v -0.1500 0.0167 0.1500
v -0.1500 0.0333 0.1500
v -0.1500 0.0500 0.1500
v -0.1500 0.0667 0.1500
v -0.1500 0.0833 0.1500
v -0.1500 0.1000 0.1500
v -0.1000 0.0000 0.1500
v -0.1000 0.0167 0.1500
v -0.1000 0.0333 0.1500
v -0.1000 0.0500 0.1500
v -0.1000 0.0667 0.1500
v -0.1000 0.0833 0.1500
v -0.1000 0.1000 0.1500
v -0.0500 0.0000 0.1500
v -0.0500 0.0167 0.1500
v -0.0500 0.0333 0.1500
v -0.0500 0.0500 0.1500
v -0.0500 0.0667 0.1500
v -0.0500 0.0833 0.1500
v -0.0500 0.1000 0.1500
v 0.0000 0.0000 0.1500
v 0.0000 0.0167 0.1500
v 0.0000 0.0333 0.1500
v 0.0000 0.0500 0.1500
v 0.0000 0.0667 0.1500
v 0.0000 0.0833 0.1500
v 0.0000 0.1000 0.1500
v 0.0500 0.0000 0.1500
v 0.0500 0.0167 0.1500
v 0.0500 0.0333 0.1500
v 0.0500 0.0500 0.1500
v 0.0500 0.0667 0.1500
v 0.0500 0.0833 0.1500
v 0.0500 0.1000 0.1500
v 0.1000 0.0000 0.1500
v 0.1000 0.0167 0.1500
v 0.1000 0.0333 0.1500
v 0.1000 0.0500 0.1500
v 0.1000 0.0667 0.1500
v 0.1000 0.0833 0.1500
v 0.1000 0.1000 0.1500
v 0.1500 0.0000 0.1500
v 0.1500 0.0167 0.1500
v 0.1500 0.0333 0.1500
v 0.1500 0.0500 0.1500
v 0.1500 0.0667 0.1500
v 0.1500 0.0833 0.1500
v 0.1500 0.1000 0.1500
v 0.1500 0.0000 -0.1500
v 0.1500 0.0167 -0.1500
v 0.1500 0.0333 -0.1500
v 0.1500 0.0500 -0.1500
v 0.1500 0.0667 -0.1500
v 0.1500 0.0833 -0.1500
v 0.1500 0.1000 -0.1500
v 0.1000 0.0000 -0.1500
v 0.1000 0.0167 -0.1500
v 0.1000 0.0333 -0.1500
v 0.1000 0.0500 -0.1500
v 0.1000 0.0667 -0.1500
v 0.1000 0.0833 -0.1500
v 0.1000 0.1000 -0.1500
v 0.0500 0.0000 -0.1500
v 0.0500 0.0167 -0.1500
v 0.0500 0.0333 -0.1500
v 0.0500 0.0500 -0.1500
v 0.0500 0.0667 -0.1500
v 0.0500 0.0833 -0.1500
v 0.0500 0.1000 -0.1500
v 0.0000 0.0000 -0.1500
v 0.0000 0.0167 -0.1500
v 0.0000 0.0333 -0.1500
v 0.0000 0.0500 -0.1500
v 0.0000 0.0667 -0.1500
v 0.0000 0.0833 -0.1500
v 0.0000 0.1000 -0.1500
v -0.0500 0.0000 -0.1500
v -0.0500 0.0167 -0.1500
v -0.0500 0.0333 -0.1500
v -0.0500 0.0500 -0.1500
v -0.0500 0.0667 -0.1500
v -0.0500 0.0833 -0.1500
v -0.0500 0.1000 -0.1500
v -0.1000 0.0000 -0.1500
v -0.1000 0.0167 -0.1500
v -0.1000 0.0333 -0.1500
v -0.1000 0.0500 -0.1500
v -0.1000 0.0667 -0.1500
v -0.1000 0.0833 -0.1500
v -0.1000 0.1000 -0.1500
v -0.1500 0.0000 -0.1500
v -0.1500 0.0167 -0.1500
v -0.1500 0.0333 -0.1500
v -0.1500 0.0500 -0.1500
v -0.1500 0.0667 -0.1500
v -0.1500 0.0833 -0.1500
v -0.1500 0.1000 -0.1500
v -0.1500 0.0000 -0.1500
v -0.1500 0.0167 -0.1500
v -0.1500 0.0333 -0.1500
v -0.1500 0.0500 -0.1500
v -0.1500 0.0667 -0.1500
v -0.1500 0.0833 -0.1500
v -0.1500 0.1000 -0.1500
v -0.1500 0.0000 -0.1000
v -0.1500 0.0167 -0.1000
v -0.1500 0.0333 -0.1000
v -0.1500 0.0500 -0.1000
v -0.1500 0.0667 -0.1000
v -0.1500 0.0833 -0.1000
v -0.1500 0.1000 -0.1000
v -0.1500 0.0000 -0.0500
v -0.1500 0.0167 -0.0500
v -0.1500 0.0333 -0.0500
v -0.1500 0.0500 -0.0500
v -0.1500 0.0667 -0.0500
v -0.1500 0.0833 -0.0500
v -0.1500 0.1000 -0.0500
v -0.1500 0.0000 0.0000
v -0.1500 0.0167 0.0000
v -0.1500 0.0333 0.0000
v -0.1500 0.0500 0.0000
v -0.1500 0.0667 0.0000
v -0.1500 0.0833 0.0000
v -0.1500 0.1000 0.0000
v -0.1500 0.0000 0.0500
v -0.1500 0.0167 0.0500
v -0.1500 0.0333 0.0500
v -0.1500 0.0500 0.0500
v -0.1500 0.0667 0.0500
v -0.1500 0.0833 0.0500
v -0.1500 0.1000 0.0500
v -0.1500 0.0000 0.1000
v -0.1500 0.0167 0.1000
v -0.1500 0.0333 0.1000
v -0.1500 0.0500 0.1000
v -0.1500 0.0667 0.1000
v -0.1500 0.0833 0.1000
v -0.1500 0.1000 0.1000
v -0.1500 0.0000 0.1500
v -0.1500 0.0167 0.1500
v -0.1500 0.0333 0.1500
v -0.1500 0.0500 0.1500
v -0.1500 0.0667 0.1500
v -0.1500 0.0833 0.1500
v -0.1500 0.1000 0.1500
v 0.1500 0.0000 0.1500
v 0.1500 0.0167 0.1500
v 0.1500 0.0333 0.1500
v 0.1500 0.0500 0.1500
v 0.1500 0.0667 0.1500
v 0.1500 0.0833 0.1500
v 0.1500 0.1000 0.1500
v 0.1500 0.0000 0.1000
v 0.1500 0.0167 0.1000
v 0.1500 0.0333 0.1000
v 0.1500 0.0500 0.1000
v 0.1500 0.0667 0.1000
v 0.1500 0.0833 0.1000
v 0.1500 0.1000 0.1000
v 0.1500 0.0000 0.0500
v 0.1500 0.0167 0.0500
v 0.1500 0.0333 0.0500
v 0.1500 0.0500 0.0500
v 0.1500 0.0667 0.0500
v 0.1500 0.0833 0.0500
v 0.1500 0.1000 0.0500
v 0.1500 0.0000 0.0000
v 0.1500 0.0167 0.0000
v 0.1500 0.0333 0.0000
v 0.1500 0.0500 0.0000
v 0.1500 0.0667 0.0000
v 0.1500 0.0833 0.0000
v 0.1500 0.1000 0.0000
v 0.1500 0.0000 -0.0500
v 0.1500 0.0167 -0.0500
v 0.1500 0.0333 -0.0500
v 0.1500 0.0500 -0.0500
v 0.1500 0.0667 -0.0500
v 0.1500 0.0833 -0.0500
v 0.1500 0.1000 -0.0500
v 0.1500 0.0000 -0.1000
v 0.1500 0.0167 -0.1000
v 0.1500 0.0333 -0.1000
v 0.1500 0.0500 -0.1000
v 0.1500 0.0667 -0.1000
v 0.1500 0.0833 -0.1000
v 0.1500 0.1000 -0.1000
v 0.1500 0.0000 -0.1500
v 0.1500 0.0167 -0.1500
v 0.1500 0.0333 -0.1500
v 0.1500 0.0500 -0.1500
v 0.1500 0.0667 -0.1500
v 0.1500 0.0833 -0.1500
v 0.1500 0.1000 -0.1500
v -0.1500 0.1000 -0.1500
v -0.1500 0.1000 -0.1000
v -0.1500 0.1000 -0.0500
v -0.1500 0.1000 0.0000
v -0.1500 0.1000 0.0500
v -0.1500 0.1000 0.1000
v -0.1500 0.1000 0.1500
v -0.1000 0.1000 -0.1500
v -0.1000 0.1000 -0.1000
v -0.1000 0.1000 -0.0500
v -0.1000 0.1000 0.0000
v -0.1000 0.1000 0.0500
v -0.1000 0.1000 0.1000
v -0.1000 0.1000 0.1500
v -0.0500 0.1000 -0.1500
v -0.0500 0.1000 -0.1000
v -0.0500 0.1000 -0.0500
v -0.0500 0.1000 0.0000
v -0.0500 0.1000 0.0500
v -0.0500 0.1000 0.1000
v -0.0500 0.1000 0.1500
v 0.0000 0.1000 -0.1500
v 0.0000 0.1000 -0.1000
v 0.0000 0.1000 -0.0500
v 0.0000 0.1000 0.0000
v 0.0000 0.1000 0.0500
v 0.0000 0.1000 0.1000
v 0.0000 0.1000 0.1500
v 0.0500 0.1000 -0.1500
v 0.0500 0.1000 -0.1000
v 0.0500 0.1000 -0.0500
v 0.0500 0.1000 0.0000
v 0.0500 0.1000 0.0500
v 0.0500 0.1000 0.1000
v 0.0500 0.1000 0.1500
v 0.1000 0.1000 -0.1500
v 0.1000 0.1000 -0.1000
v 0.1000 0.1000 -0.0500
v 0.1000 0.1000 0.0000
v 0.1000 0.1000 0.0500
v 0.1000 0.1000 0.1000
v 0.1000 0.1000 0.1500
v 0.1500 0.1000 -0.1500
v 0.1500 0.1000 -0.1000
v 0.1500 0.1000 -0.0500
v 0.1500 0.1000 0.0000
v 0.1500 0.1000 0.0500
v 0.1500 0.1000 0.1000
v 0.1500 0.1000 0.1500
v -0.1500 0.0000 0.1500
v -0.1500 0.0000 0.1000
v -0.1500 0.0000 0.0500
v -0.1500 0.0000 0.0000
v -0.1500 0.0000 -0.0500
v -0.1500 0.0000 -0.1000
v -0.1500 0.0000 -0.1500
v -0.1000 0.0000 0.1500
v -0.1000 0.0000 0.1000
v -0.1000 0.0000 0.0500
v -0.1000 0.0000 0.0000
v -0.1000 0.0000 -0.0500
v -0.1000 0.0000 -0.1000
v -0.1000 0.0000 -0.1500
v -0.0500 0.0000 0.1500
v -0.0500 0.0000 0.1000
v -0.0500 0.0000 0.0500
v -0.0500 0.0000 0.0000
v -0.0500 0.0000 -0.0500
v -0.0500 0.0000 -0.1000
v -0.0500 0.0000 -0.1500
v 0.0000 0.0000 0.1500
v 0.0000 0.0000 0.1000
v 0.0000 0.0000 0.0500
v 0.0000 0.0000 0.0000
v 0.0000 0.0000 -0.0500
v 0.0000 0.0000 -0.1000
v 0.0000 0.0000 -0.1500
v 0.0500 0.0000 0.1500
v 0.0500 0.0000 0.1000
v 0.0500 0.0000 0.0500
v 0.0500 0.0000 0.0000
v 0.0500 0.0000 -0.0500
v 0.0500 0.0000 -0.1000
v 0.0500 0.0000 -0.1500
v 0.1000 0.0000 0.1500
v 0.1000 0.0000 0.1000
v 0.1000 0.0000 0.0500
v 0.1000 0.0000 0.0000
v 0.1000 0.0000 -0.0500
v 0.1000 0.0000 -0.1000
v 0.1000 0.0000 -0.1500
v 0.1500 0.0000 0.1500
v 0.1500 0.0000 0.1000
v 0.1500 0.0000 0.0500
v 0.1500 0.0000 0.0000
v 0.1500 0.0000 -0.0500
v 0.1500 0.0000 -0.1000
v 0.1500 0.0000 -0.1500
f 1 3 4
f 1 4 2
f 3 5 6
f 3 6 4
f 5 7 8
f 5 8 6
f 7 9 10
f 7 10 8
f 9 11 12
f 9 12 10
f 11 13 14
f 11 14 12
f 13 15 16
f 13 16 14
f 15 17 18
f 15 18 16
f 17 19 20
f 17 20 18
f 19 21 22
f 19 22 20
f 21 23 24
f 21 24 22
f 23 25 26
f 23 26 24
f 25 27 28
f 25 28 26
f 27 29 30
f 27 30 28
f 29 31 32
f 29 32 30
f 31 33 34
f 31 34 32
f 33 35 36
f 33 36 34
f 35 37 38
f 35 38 36
f 37 39 40
f 37 40 38
f 39 1 2
f 39 2 40
f 41 2 4
f 42 3 1
f 41 4 6
f 42 5 3
f 41 6 8
f 42 7 5
f 41 8 10
f 42 9 7
f 41 10 12
f 42 11 9
f 41 12 14
f 42 13 11
f 41 14 16
f 42 15 13
f 41 16 18
f 42 17 15
f 41 18 20
f 42 19 17
f 41 20 22
f 42 21 19
f 41 22 24
f 42 23 21
f 41 24 26
f 42 25 23
f 41 26 28
f 42 27 25
f 41 28 30
f 42 29 27
f 41 30 32
f 42 31 29
f 41 32 34
f 42 33 31
f 41 34 36
f 42 35 33
f 41 36 38
f 42 37 35
f 41 38 40
f 42 39 37
f 41 40 2
f 42 1 39
f 43 44 51
f 43 51 50
f 44 45 52
f 44 52 51
f 45 46 53
f 45 53 52
f 46 47 54
f 46 54 53
f 47 48 55
f 47 55 54
f 48 49 56
f 48 56 55
f 50 51 58
f 50 58 57
f 51 52 59
f 51 59 58
f 52 53 60
f 52 60 59
f 53 54 61
f 53 61 60
f 54 55 62
f 54 62 61
f 55 56 63
f 55 63 62
f 57 58 65
f 57 65 64
f 58 59 66
f 58 66 65
f 59 60 67
f 59 67 66
f 60 61 68
f 60 68 67
f 61 62 69
f 61 69 68
f 62 63 70
f 62 70 69
f 64 65 72
f 64 72 71
f 65 66 73
f 65 73 72
f 66 67 74
f 66 74 73
f 67 68 75
f 67 75 74
f 68 69 76
f 68 76 75
f 69 70 77
f 69 77 76
f 71 72 79
f 71 79 78
f 72 73 80
f 72 80 79
f 73 74 81
f 73 81 80
f 74 75 82
f 74 82 81
f 75 76 83
f 75 83 82
f 76 77 84
f 76 84 83
f 78 79 86
f 78 86 85
f 79 80 87
f 79 87 86
f 80 81 88
f 80 88 87
f 81 82 89
f 81 89 88
f 82 83 90
f 82 90 89
f 83 84 91
f 83 91 90
f 92 93 100
f 92 100 99
f 93 94 101
f 93 101 100
f 94 95 102
f 94 102 101
f 95 96 103
f 95 103 102
f 96 97 104
f 96 104 103
f 97 98 105
f 97 105 104
f 99 100 107
f 99 107 106
f 100 101 108
f 100 108 107
f 101 102 109
f 101 109 108
f 102 103 110
f 102 110 109
f 103 104 111
f 103 111 110
f 104 105 112
f 104 112 111
f 106 107 114
f 106 114 113
f 107 108 115
f 107 115 114
f 108 109 116
f 108 116 115
f 109 110 117
f 109 117 116
f 110 111 118
f 110 118 117
f 111 112 119
f 111 119 118
f 113 114 121
f 113 121 120
f 114 115 122
f 114 122 121
f 115 116 123
f 115 123 122
f 116 117 124
f 116 124 123
f 117 118 125
f 117 125 124
f 118 119 126
f 118 126 125
f 120 121 128
f 120 128 127
f 121 122 129
f 121 129 128
f 122 123 130
f 122 130 129
f 123 124 131
f 123 131 130
f 124 125 132
f 124 132 131
f 125 126 133
f 125 133 132
f 127 128 135
f 127 135 134
f 128 129 136
f 128 136 135
f 129 130 137
f 129 137 136
f 130 131 138
f 130 138 137
f 131 132 139
f 131 139 138
f 132 133 140
f 132 140 139
f 141 142 149
f 141 149 148
f 142 143 150
f 142 150 149
f 143 144 151
f 143 151 150
f 144 145 152
f 144 152 151
f 145 146 153
f 145 153 152
f 146 147 154
f 146 154 153
f 148 149 156
f 148 156 155
f 149 150 157
f 149 157 156
f 150 151 158
f 150 158 157
f 151 152 159
f 151 159 158
f 152 153 160
f 152 160 159
f 153 154 161
f 153 161 160
f 155 156 163
f 155 163 162
f 156 157 164
f 156 164 163
f 157 158 165
f 157 165 164
f 158 159 166
f 158 166 165
f 159 160 167
f 159 167 166
f 160 161 168
f 160 168 167
f 162 163 170
f 162 170 169
f 163 164 171
f 163 171 170
f 164 165 172
f 164 172 171
f 165 166 173
f 165 173 172
f 166 167 174
f 166 174 173
f 167 168 175
f 167 175 174
f 169 170 177
f 169 177 176
f 170 171 178
f 170 178 177
f 171 172 179
f 171 179 178
f 172 173 180
f 172 180 179
f 173 174 181
f 173 181 180
f 174 175 182
f 174 182 181
f 176 177 184
f 176 184 183
f 177 178 185
f 177 185 184
f 178 179 186
f 178 186 185
f 179 180 187
f 179 187 186
f 180 181 188
f 180 188 187
f 181 182 189
f 181 189 188
f 190 191 198
f 190 198 197
f 191 192 199
f 191 199 198
f 192 193 200
f 192 200 199
f 193 194 201
f 193 201 200
f 194 195 202
f 194 202 201
f 195 196 203
f 195 203 202
f 197 198 205
f 197 205 204
f 198 199 206
f 198 206 205
f 199 200 207
f 199 207 206
f 200 201 208
f 200 208 207
f 201 202 209
f 201 209 208
f 202 203 210
f 202 210 209
f 204 205 212
f 204 212 211
f 205 206 213
f 205 213 212
f 206 207 214
f 206 214 213
f 207 208 215
f 207 215 214
f 208 209 216
f 208 216 215
f 209 210 217
f 209 217 216
f 211 212 219
f 211 219 218
f 212 213 220
f 212 220 219
f 213 214 221
f 213 221 220
f 214 215 222
f 214 222 221
f 215 216 223
f 215 223 222
f 216 217 224
f 216 224 223
f 218 219 226
f 218 226 225
f 219 220 227
f 219 227 226
f 220 221 228
f 220 228 227
f 221 222 229
f 221 229 228
f 222 223 230
f 222 230 229
f 223 224 231
f 223 231 230
f 225 226 233
f 225 233 232
f 226 227 234
f 226 234 233
f 227 228 235
f 227 235 234
f 228 229 236
f 228 236 235
f 229 230 237
f 229 237 236
f 230 231 238
f 230 238 237
f 239 240 247
f 239 247 246
f 240 241 248
f 240 248 247
f 241 242 249
f 241 249 248
f 242 243 250
f 242 250 249
f 243 244 251
f 243 251 250
f 244 245 252
f 244 252 251
f 246 247 254
f 246 254 253
f 247 248 255
f 247 255 254
f 248 249 256
f 248 256 255
f 249 250 257
f 249 257 256
f 250 251 258
f 250 258 257
f 251 252 259
f 251 259 258
f 253 254 261
f 253 261 260
f 254 255 262
f 254 262 261
f 255 256 263
f 255 263 262
f 256 257 264
f 256 264 263
f 257 258 265
f 257 265 264
f 258 259 266
f 258 266 265
f 260 261 268
f 260 268 267
f 261 262 269
f 261 269 268
f 262 263 270
f 262 270 269
f 263 264 271
f 263 271 270
f 264 265 272
f 264 272 271
f 265 266 273
f 265 273 272
f 267 268 275
f 267 275 274
f 268 269 276
f 268 276 275
f 269 270 277
f 269 277 276
f 270 271 278
f 270 278 277
f 271 272 279
f 271 279 278
f 272 273 280
f 272 280 279
f 274 275 282
f 274 282 281
f 275 276 283
f 275 283 282
f 276 277 284
f 276 284 283
f 277 278 285
f 277 285 284
f 278 279 286
f 278 286 285
f 279 280 287
f 279 287 286
f 288 289 296
f 288 296 295
f 289 290 297
f 289 297 296
f 290 291 298
f 290 298 297
f 291 292 299
f 291 299 298
f 292 293 300
f 292 300 299
f 293 294 301
f 293 301 300
f 295 296 303
f 295 303 302
f 296 297 304
f 296 304 303
f 297 298 305
f 297 305 304
f 298 299 306
f 298 306 305
f 299 300 307
f 299 307 306
f 300 301 308
f 300 308 307
f 302 303 310
f 302 310 309
f 303 304 311
f 303 311 310
f 304 305 312
f 304 312 311
f 305 306 313
f 305 313 312
f 306 307 314
f 306 314 313
f 307 308 315
f 307 315 314
f 309 310 317
f 309 317 316
f 310 311 318
f 310 318 317
f 311 312 319
f 311 319 318
f 312 313 320
f 312 320 319
f 313 314 321
f 313 321 320
f 314 315 322
f 314 322 321
f 316 317 324
f 316 324 323
f 317 318 325
f 317 325 324
f 318 319 326
f 318 326 325
f 319 320 327
f 319 327 326
f 320 321 328
f 320 328 327
f 321 322 329
f 321 329 328
f 323 324 331
f 323 331 330
f 324 325 332
f 324 332 331
f 325 326 333
f 325 333 332
f 326 327 334
f 326 334 333
f 327 328 335
f 327 335 334
f 328 329 336
f 328 336 335
f 337 338 345
f 337 345 344
f 338 339 346
f 338 346 345
f 339 340 347
f 339 347 346
f 340 341 348
f 340 348 347
f 341 342 349
f 341 349 348
f 342 343 350
f 342 350 349
f 344 345 352
f 344 352 351
f 345 346 353
f 345 353 352
f 346 347 354
f 346 354 353
f 347 348 355
f 347 355 354
f 348 349 356
f 348 356 355
f 349 350 357
f 349 357 356
f 351 352 359
f 351 359 358
f 352 353 360
f 352 360 359
f 353 354 361
f 353 361 360
f 354 355 362
f 354 362 361
f 355 356 363
f 355 363 362
f 356 357 364
f 356 364 363
f 358 359 366
f 358 366 365
f 359 360 367
f 359 367 366
f 360 361 368
f 360 368 367
f 361 362 369
f 361 369 368
f 362 363 370
f 362 370 369
f 363 364 371
f 363 371 370
f 365 366 373
f 365 373 372
f 366 367 374
f 366 374 373
f 367 368 375
f 367 375 374
f 368 369 376
f 368 376 375
f 369 370 377
f 369 377 376
f 370 371 378
f 370 378 377
f 372 373 380
f 372 380 379
f 373 374 381
f 373 381 380
f 374 375 382
f 374 382 381
f 375 376 383
f 375 383 382
f 376 377 384
f 376 384 383
f 377 378 385
f 377 385 384
f 386 387 394
f 386 394 393
f 387 388 395
f 387 395 394
f 388 389 396
f 388 396 395
f 389 390 397
f 389 397 396
f 390 391 398
f 390 398 397
f 391 392 399
f 391 399 398
f 393 394 401
f 393 401 400
f 394 395 402
f 394 402 401
f 395 396 403
f 395 403 402
f 396 397 404
f 396 404 403
f 397 398 405
f 397 405 404
f 398 399 406
f 398 406 405
f 400 401 408
f 400 408 407
f 401 402 409
f 401 409 408
f 402 403 410
f 402 410 409
f 403 404 411
f 403 411 410
f 404 405 412
f 404 412 411
f 405 406 413
f 405 413 412
f 407 408 415
f 407 415 414
f 408 409 416
f 408 416 415
f 409 410 417
f 409 417 416
f 410 411 418
f 410 418 417
f 411 412 419
f 411 419 418
f 412 413 420
f 412 420 419
f 414 415 422
f 414 422 421
f 415 416 423
f 415 423 422
f 416 417 424
f 416 424 423
f 417 418 425
f 417 425 424
f 418 419 426
f 418 426 425
f 419 420 427
f 419 427 426
f 421 422 429
f 421 429 428
f 422 423 430
f 422 430 429
f 423 424 431
f 423 431 430
f 424 425 432
f 424 432 431
f 425 426 433
f 425 433 432
f 426 427 434
f 426 434 433
f 435 436 443
f 435 443 442
f 436 437 444
f 436 444 443
f 437 438 445
f 437 445 444
f 438 439 446
f 438 446 445
f 439 440 447
f 439 447 446
f 440 441 448
f 440 448 447
f 442 443 450
f 442 450 449
f 443 444 451
f 443 451 450
f 444 445 452
f 444 452 451
f 445 446 453
f 445 453 452
f 446 447 454
f 446 454 453
f 447 448 455
f 447 455 454
f 449 450 457
f 449 457 456
f 450 451 458
f 450 458 457
f 451 452 459
f 451 459 458
f 452 453 460
f 452 460 459
f 453 454 461
f 453 461 460
f 454 455 462
f 454 462 461
f 456 457 464
f 456 464 463
f 457 458 465
f 457 465 464
f 458 459 466
f 458 466 465
f 459 460 467
f 459 467 466
f 460 461 468
f 460 468 467
f 461 462 469
f 461 469 468
f 463 464 471
f 463 471 470
f 464 465 472
f 464 472 471
f 465 466 473
f 465 473 472
f 466 467 474
f 466 474 473
f 467 468 475
f 467 475 474
f 468 469 476
f 468 476 475
f 470 471 478
f 470 478 477
f 471 472 479
f 471 479 478
f 472 473 480
f 472 480 479
f 473 474 481
f 473 481 480
f 474 475 482
f 474 482 481
f 475 476 483
f 475 483 482
f 484 485 492
f 484 492 491
f 485 486 493
f 485 493 492
f 486 487 494
f 486 494 493
f 487 488 495
f 487 495 494
f 488 489 496
f 488 496 495
f 489 490 497
f 489 497 496
f 491 492 499
f 491 499 498
f 492 493 500
f 492 500 499
f 493 494 501
f 493 501 500
f 494 495 502
f 494 502 501
f 495 496 503
f 495 503 502
f 496 497 504
f 496 504 503
f 498 499 506
f 498 506 505
f 499 500 507
f 499 507 506
f 500 501 508
f 500 508 507
f 501 502 509
f 501 509 508
f 502 503 510
f 502 510 509
f 503 504 511
f 503 511 510
f 505 506 513
f 505 513 512
f 506 507 514
f 506 514 513
f 507 508 515
f 507 515 514
f 508 509 516
f 508 516 515
f 509 510 517
f 509 517 516
f 510 511 518
f 510 518 517
f 512 513 520
f 512 520 519
f 513 514 521
f 513 521 520
f 514 515 522
f 514 522 521
f 515 516 523
f 515 523 522
f 516 517 524
f 516 524 523
f 517 518 525
f 517 525 524
f 519 520 527
f 519 527 526
f 520 521 528
f 520 528 527
f 521 522 529
f 521 529 528
f 522 523 530
f 522 530 529
f 523 524 531
f 523 531 530
f 524 525 532
f 524 532 531
f 533 534 541
f 533 541 540
f 534 535 542
f 534 542 541
f 535 536 543
f 535 543 542
f 536 537 544
f 536 544 543
f 537 538 545
f 537 545 544
f 538 539 546
f 538 546 545
f 540 541 548
f 540 548 547
f 541 542 549
f 541 549 548
f 542 543 550
f 542 550 549
f 543 544 551
f 543 551 550
f 544 545 552
f 544 552 551
f 545 546 553
f 545 553 552
f 547 548 555
f 547 555 554
f 548 549 556
f 548 556 555
f 549 550 557
f 549 557 556
f 550 551 558
f 550 558 557
f 551 552 559
f 551 559 558
f 552 553 560
f 552 560 559
f 554 555 562
f 554 562 561
f 555 556 563
f 555 563 562
f 556 557 564
f 556 564 563
f 557 558 565
f 557 565 564
f 558 559 566
f 558 566 565
f 559 560 567
f 559 567 566
f 561 562 569
f 561 569 568
f 562 563 570
f 562 570 569
f 563 564 571
f 563 571 570
f 564 565 572
f 564 572 571
f 565 566 573
f 565 573 572
f 566 567 574
f 566 574 573
f 568 569 576
f 568 576 575
f 569 570 577
f 569 577 576
f 570 571 578
f 570 578 577
f 571 572 579
f 571 579 578
f 572 573 580
f 572 580 579
f 573 574 581
f 573 581 580
f 582 583 590
f 582 590 589
f 583 584 591
f 583 591 590
f 584 585 592
f 584 592 591
f 585 586 593
f 585 593 592
f 586 587 594
f 586 594 593
f 587 588 595
f 587 595 594
f 589 590 597
f 589 597 596
f 590 591 598
f 590 598 597
f 591 592 599
f 591 599 598
f 592 593 600
f 592 600 599
f 593 594 601
f 593 601 600
f 594 595 602
f 594 602 601
f 596 597 604
f 596 604 603
f 597 598 605
f 597 605 604
f 598 599 606
f 598 606 605
f 599 600 607
f 599 607 606
f 600 601 608
f 600 608 607
f 601 602 609
f 601 609 608
f 603 604 611
f 603 611 610
f 604 605 612
f 604 612 611
f 605 606 613
f 605 613 612
f 606 607 614
f 606 614 613
f 607 608 615
f 607 615 614
f 608 609 616
f 608 616 615
f 610 611 618
f 610 618 617
f 611 612 619
f 611 619 618
f 612 613 620
f 612 620 619
f 613 614 621
f 613 621 620
f 614 615 622
f 614 622 621
f 615 616 623
f 615 623 622
f 617 618 625
f 617 625 624
f 618 619 626
f 618 626 625
f 619 620 627
f 619 627 626
f 620 621 628
f 620 628 627
f 621 622 629
f 621 629 628
f 622 623 630
f 622 630 629
f 631 632 639
f 631 639 638
f 632 633 640
f 632 640 639
f 633 634 641
f 633 641 640
f 634 635 642
f 634 642 641
f 635 636 643
f 635 643 642
f 636 637 644
f 636 644 643
f 638 639 646
f 638 646 645
f 639 640 647
f 639 647 646
f 640 641 648
f 640 648 647
f 641 642 649
f 641 649 648
f 642 643 650
f 642 650 649
f 643 644 651
f 643 651 650
f 645 646 653
f 645 653 652
f 646 647 654
f 646 654 653
f 647 648 655
f 647 655 654
f 648 649 656
f 648 656 655
f 649 650 657
f 649 657 656
f 650 651 658
f 650 658 657
f 652 653 660
f 652 660 659
f 653 654 661
f 653 661 660
f 654 655 662
f 654 662 661
f 655 656 663
f 655 663 662
f 656 657 664
f 656 664 663
f 657 658 665
f 657 665 664
f 659 660 667
f 659 667 666
f 660 661 668
f 660 668 667
f 661 662 669
f 661 669 668
f 662 663 670
f 662 670 669
f 663 664 671
f 663 671 670
f 664 665 672
f 664 672 671
f 666 667 674
f 666 674 673
f 667 668 675
f 667 675 674
f 668 669 676
f 668 676 675
f 669 670 677
f 669 677 676
f 670 671 678
f 670 678 677
f 671 672 679
f 671 679 678
f 680 681 688
f 680 688 687
f 681 682 689
f 681 689 688
f 682 683 690
f 682 690 689
f 683 684 691
f 683 691 690
f 684 685 692
f 684 692 691
f 685 686 693
f 685 693 692
f 687 688 695
f 687 695 694
f 688 689 696
f 688 696 695
f 689 690 697
f 689 697 696
f 690 691 698
f 690 698 697
f 691 692 699
f 691 699 698
f 692 693 700
f 692 700 699
f 694 695 702
f 694 702 701
f 695 696 703
f 695 703 702
f 696 697 704
f 696 704 703
f 697 698 705
f 697 705 704
f 698 699 706
f 698 706 705
f 699 700 707
f 699 707 706
f 701 702 709
f 701 709 708
f 702 703 710
f 702 710 709
f 703 704 711
f 703 711 710
f 704 705 712
f 704 712 711
f 705 706 713
f 705 713 712
f 706 707 714
f 706 714 713
f 708 709 716
f 708 716 715
f 709 710 717
f 709 717 716
f 710 711 718
f 710 718 717
f 711 712 719
f 711 719 718
f 712 713 720
f 712 720 719
f 713 714 721
f 713 721 720
f 715 716 723
f 715 723 722
f 716 717 724
f 716 724 723
f 717 718 725
f 717 725 724
f 718 719 726
f 718 726 725
f 719 720 727
f 719 727 726
f 720 721 728
f 720 728 727
f 729 730 737
f 729 737 736
f 730 731 738
f 730 738 737
f 731 732 739
f 731 739 738
f 732 733 740
f 732 740 739
f 733 734 741
f 733 741 740
f 734 735 742
f 734 742 741
f 736 737 744
f 736 744 743
f 737 738 745
f 737 745 744
f 738 739 746
f 738 746 745
f 739 740 747
f 739 747 746
f 740 741 748
f 740 748 747
f 741 742 749
f 741 749 748
f 743 744 751
f 743 751 750
f 744 745 752
f 744 752 751
f 745 746 753
f 745 753 752
f 746 747 754
f 746 754 753
f 747 748 755
f 747 755 754
f 748 749 756
f 748 756 755
f 750 751 758
f 750 758 757
f 751 752 759
f 751 759 758
f 752 753 760
f 752 760 759
f 753 754 761
f 753 761 760
f 754 755 762
f 754 762 761
f 755 756 763
f 755 763 762
f 757 758 765
f 757 765 764
f 758 759 766
f 758 766 765
f 759 760 767
f 759 767 766
f 760 761 768
f 760 768 767
f 761 762 769
f 761 769 768
f 762 763 770
f 762 770 769
f 764 765 772
f 764 772 771
f 765 766 773
f 765 773 772
f 766 767 774
f 766 774 773
f 767 768 775
f 767 775 774
f 768 769 776
f 768 776 775
f 769 770 777
f 769 777 776
f 778 779 786
f 778 786 785
f 779 780 787
f 779 787 786
f 780 781 788
f 780 788 787
f 781 782 789
f 781 789 788
f 782 783 790
f 782 790 789
f 783 784 791
f 783 791 790
f 785 786 793
f 785 793 792
f 786 787 794
f 786 794 793
f 787 788 795
f 787 795 794
f 788 789 796
f 788 796 795
f 789 790 797
f 789 797 796
f 790 791 798
f 790 798 797
f 792 793 800
f 792 800 799
f 793 794 801
f 793 801 800
f 794 795 802
f 794 802 801
f 795 796 803
f 795 803 802
f 796 797 804
f 796 804 803
f 797 798 805
f 797 805 804
f 799 800 807
f 799 807 806
f 800 801 808
f 800 808 807
f 801 802 809
f 801 809 808
f 802 803 810
f 802 810 809
f 803 804 811
f 803 811 810
f 804 805 812
f 804 812 811
f 806 807 814
f 806 814 813
f 807 808 815
f 807 815 814
f 808 809 816
f 808 816 815
f 809 810 817
f 809 817 816
f 810 811 818
f 810 818 817
f 811 812 819
f 811 819 818
f 813 814 821
f 813 821 820
f 814 815 822
f 814 822 821
f 815 816 823
f 815 823 822
f 816 817 824
f 816 824 823
f 817 818 825
f 817 825 824
f 818 819 826
f 818 826 825
f 827 828 835
f 827 835 834
f 828 829 836
f 828 836 835
f 829 830 837
f 829 837 836
f 830 831 838
f 830 838 837
f 831 832 839
f 831 839 838
f 832 833 840
f 832 840 839
f 834 835 842
f 834 842 841
f 835 836 843
f 835 843 842
f 836 837 844
f 836 844 843
f 837 838 845
f 837 845 844
f 838 839 846
f 838 846 845
f 839 840 847
f 839 847 846
f 841 842 849
f 841 849 848
f 842 843 850
f 842 850 849
f 843 844 851
f 843 851 850
f 844 845 852
f 844 852 851
f 845 846 853
f 845 853 852
f 846 847 854
f 846 854 853
f 848 849 856
f 848 856 855
f 849 850 857
f 849 857 856
f 850 851 858
f 850 858 857
f 851 852 859
f 851 859 858
f 852 853 860
f 852 860 859
f 853 854 861
f 853 861 860
f 855 856 863
f 855 863 862
f 856 857 864
f 856 864 863
f 857 858 865
f 857 865 864
f 858 859 866
f 858 866 865
f 859 860 867
f 859 867 866
f 860 861 868
f 860 868 867
f 862 863 870
f 862 870 869
f 863 864 871
f 863 871 870
f 864 865 872
f 864 872 871
f 865 866 873
f 865 873 872
f 866 867 874
f 866 874 873
f 867 868 875
f 867 875 874
f 876 877 884
f 876 884 883
f 877 878 885
f 877 885 884
f 878 879 886
f 878 886 885
f 879 880 887
f 879 887 886
f 880 881 888
f 880 888 887
f 881 882 889
f 881 889 888
f 883 884 891
f 883 891 890
f 884 885 892
f 884 892 891
f 885 886 893
f 885 893 892
f 886 887 894
f 886 894 893
f 887 888 895
f 887 895 894
f 888 889 896
f 888 896 895
f 890 891 898
f 890 898 897
f 891 892 899
f 891 899 898
f 892 893 900
f 892 900 899
f 893 894 901
f 893 901 900
f 894 895 902
f 894 902 901
f 895 896 903
f 895 903 902
f 897 898 905
f 897 905 904
f 898 899 906
f 898 906 905
f 899 900 907
f 899 907 906
f 900 901 908
f 900 908 907
f 901 902 909
f 901 909 908
f 902 903 910
f 902 910 909
f 904 905 912
f 904 912 911
f 905 906 913
f 905 913 912
f 906 907 914
f 906 914 913
f 907 908 915
f 907 915 914
f 908 909 916
f 908 916 915
f 909 910 917
f 909 917 916
f 911 912 919
f 911 919 918
f 912 913 920
f 912 920 919
f 913 914 921
f 913 921 920
f 914 915 922
f 914 922 921
f 915 916 923
f 915 923 922
f 916 917 924
f 916 924 923
