# 유류통 — 블록아웃 (예산 1500 tris)
# 삼각형 1480 · 조각 1
# 생성: tools/blockout — 손으로 고치지 말 것, 생성기를 고칠 것
g fuelDrum
v 0.2900 -0.4400 0.0000
v 0.2900 0.4400 0.0000
v 0.2898 -0.4400 0.0111
v 0.2898 0.4400 0.0111
v 0.2891 -0.4400 0.0222
v 0.2891 0.4400 0.0222
v 0.2881 -0.4400 0.0333
v 0.2881 0.4400 0.0333
v 0.2866 -0.4400 0.0443
v 0.2866 0.4400 0.0443
v 0.2847 -0.4400 0.0552
v 0.2847 0.4400 0.0552
v 0.2824 -0.4400 0.0661
v 0.2824 0.4400 0.0661
v 0.2796 -0.4400 0.0768
v 0.2796 0.4400 0.0768
v 0.2765 -0.4400 0.0875
v 0.2765 0.4400 0.0875
v 0.2729 -0.4400 0.0980
v 0.2729 0.4400 0.0980
v 0.2690 -0.4400 0.1084
v 0.2690 0.4400 0.1084
v 0.2646 -0.4400 0.1186
v 0.2646 0.4400 0.1186
v 0.2599 -0.4400 0.1287
v 0.2599 0.4400 0.1287
v 0.2548 -0.4400 0.1385
v 0.2548 0.4400 0.1385
v 0.2493 -0.4400 0.1482
v 0.2493 0.4400 0.1482
v 0.2434 -0.4400 0.1576
v 0.2434 0.4400 0.1576
v 0.2372 -0.4400 0.1668
v 0.2372 0.4400 0.1668
v 0.2306 -0.4400 0.1758
v 0.2306 0.4400 0.1758
v 0.2237 -0.4400 0.1845
v 0.2237 0.4400 0.1845
v 0.2165 -0.4400 0.1929
v 0.2165 0.4400 0.1929
v 0.2090 -0.4400 0.2011
v 0.2090 0.4400 0.2011
v 0.2011 -0.4400 0.2090
v 0.2011 0.4400 0.2090
v 0.1929 -0.4400 0.2165
v 0.1929 0.4400 0.2165
v 0.1845 -0.4400 0.2237
v 0.1845 0.4400 0.2237
v 0.1758 -0.4400 0.2306
v 0.1758 0.4400 0.2306
v 0.1668 -0.4400 0.2372
v 0.1668 0.4400 0.2372
v 0.1576 -0.4400 0.2434
v 0.1576 0.4400 0.2434
v 0.1482 -0.4400 0.2493
v 0.1482 0.4400 0.2493
v 0.1385 -0.4400 0.2548
v 0.1385 0.4400 0.2548
v 0.1287 -0.4400 0.2599
v 0.1287 0.4400 0.2599
v 0.1186 -0.4400 0.2646
v 0.1186 0.4400 0.2646
v 0.1084 -0.4400 0.2690
v 0.1084 0.4400 0.2690
v 0.0980 -0.4400 0.2729
v 0.0980 0.4400 0.2729
v 0.0875 -0.4400 0.2765
v 0.0875 0.4400 0.2765
v 0.0768 -0.4400 0.2796
v 0.0768 0.4400 0.2796
v 0.0661 -0.4400 0.2824
v 0.0661 0.4400 0.2824
v 0.0552 -0.4400 0.2847
v 0.0552 0.4400 0.2847
v 0.0443 -0.4400 0.2866
v 0.0443 0.4400 0.2866
v 0.0333 -0.4400 0.2881
v 0.0333 0.4400 0.2881
v 0.0222 -0.4400 0.2891
v 0.0222 0.4400 0.2891
v 0.0111 -0.4400 0.2898
v 0.0111 0.4400 0.2898
v 0.0000 -0.4400 0.2900
v 0.0000 0.4400 0.2900
v -0.0111 -0.4400 0.2898
v -0.0111 0.4400 0.2898
v -0.0222 -0.4400 0.2891
v -0.0222 0.4400 0.2891
v -0.0333 -0.4400 0.2881
v -0.0333 0.4400 0.2881
v -0.0443 -0.4400 0.2866
v -0.0443 0.4400 0.2866
v -0.0552 -0.4400 0.2847
v -0.0552 0.4400 0.2847
v -0.0661 -0.4400 0.2824
v -0.0661 0.4400 0.2824
v -0.0768 -0.4400 0.2796
v -0.0768 0.4400 0.2796
v -0.0875 -0.4400 0.2765
v -0.0875 0.4400 0.2765
v -0.0980 -0.4400 0.2729
v -0.0980 0.4400 0.2729
v -0.1084 -0.4400 0.2690
v -0.1084 0.4400 0.2690
v -0.1186 -0.4400 0.2646
v -0.1186 0.4400 0.2646
v -0.1287 -0.4400 0.2599
v -0.1287 0.4400 0.2599
v -0.1385 -0.4400 0.2548
v -0.1385 0.4400 0.2548
v -0.1482 -0.4400 0.2493
v -0.1482 0.4400 0.2493
v -0.1576 -0.4400 0.2434
v -0.1576 0.4400 0.2434
v -0.1668 -0.4400 0.2372
v -0.1668 0.4400 0.2372
v -0.1758 -0.4400 0.2306
v -0.1758 0.4400 0.2306
v -0.1845 -0.4400 0.2237
v -0.1845 0.4400 0.2237
v -0.1929 -0.4400 0.2165
v -0.1929 0.4400 0.2165
v -0.2011 -0.4400 0.2090
v -0.2011 0.4400 0.2090
v -0.2090 -0.4400 0.2011
v -0.2090 0.4400 0.2011
v -0.2165 -0.4400 0.1929
v -0.2165 0.4400 0.1929
v -0.2237 -0.4400 0.1845
v -0.2237 0.4400 0.1845
v -0.2306 -0.4400 0.1758
v -0.2306 0.4400 0.1758
v -0.2372 -0.4400 0.1668
v -0.2372 0.4400 0.1668
v -0.2434 -0.4400 0.1576
v -0.2434 0.4400 0.1576
v -0.2493 -0.4400 0.1482
v -0.2493 0.4400 0.1482
v -0.2548 -0.4400 0.1385
v -0.2548 0.4400 0.1385
v -0.2599 -0.4400 0.1287
v -0.2599 0.4400 0.1287
v -0.2646 -0.4400 0.1186
v -0.2646 0.4400 0.1186
v -0.2690 -0.4400 0.1084
v -0.2690 0.4400 0.1084
v -0.2729 -0.4400 0.0980
v -0.2729 0.4400 0.0980
v -0.2765 -0.4400 0.0875
v -0.2765 0.4400 0.0875
v -0.2796 -0.4400 0.0768
v -0.2796 0.4400 0.0768
v -0.2824 -0.4400 0.0661
v -0.2824 0.4400 0.0661
v -0.2847 -0.4400 0.0552
v -0.2847 0.4400 0.0552
v -0.2866 -0.4400 0.0443
v -0.2866 0.4400 0.0443
v -0.2881 -0.4400 0.0333
v -0.2881 0.4400 0.0333
v -0.2891 -0.4400 0.0222
v -0.2891 0.4400 0.0222
v -0.2898 -0.4400 0.0111
v -0.2898 0.4400 0.0111
v -0.2900 -0.4400 0.0000
v -0.2900 0.4400 0.0000
v -0.2898 -0.4400 -0.0111
v -0.2898 0.4400 -0.0111
v -0.2891 -0.4400 -0.0222
v -0.2891 0.4400 -0.0222
v -0.2881 -0.4400 -0.0333
v -0.2881 0.4400 -0.0333
v -0.2866 -0.4400 -0.0443
v -0.2866 0.4400 -0.0443
v -0.2847 -0.4400 -0.0552
v -0.2847 0.4400 -0.0552
v -0.2824 -0.4400 -0.0661
v -0.2824 0.4400 -0.0661
v -0.2796 -0.4400 -0.0768
v -0.2796 0.4400 -0.0768
v -0.2765 -0.4400 -0.0875
v -0.2765 0.4400 -0.0875
v -0.2729 -0.4400 -0.0980
v -0.2729 0.4400 -0.0980
v -0.2690 -0.4400 -0.1084
v -0.2690 0.4400 -0.1084
v -0.2646 -0.4400 -0.1186
v -0.2646 0.4400 -0.1186
v -0.2599 -0.4400 -0.1287
v -0.2599 0.4400 -0.1287
v -0.2548 -0.4400 -0.1385
v -0.2548 0.4400 -0.1385
v -0.2493 -0.4400 -0.1482
v -0.2493 0.4400 -0.1482
v -0.2434 -0.4400 -0.1576
v -0.2434 0.4400 -0.1576
v -0.2372 -0.4400 -0.1668
v -0.2372 0.4400 -0.1668
v -0.2306 -0.4400 -0.1758
v -0.2306 0.4400 -0.1758
v -0.2237 -0.4400 -0.1845
v -0.2237 0.4400 -0.1845
v -0.2165 -0.4400 -0.1929
v -0.2165 0.4400 -0.1929
v -0.2090 -0.4400 -0.2011
v -0.2090 0.4400 -0.2011
v -0.2011 -0.4400 -0.2090
v -0.2011 0.4400 -0.2090
v -0.1929 -0.4400 -0.2165
v -0.1929 0.4400 -0.2165
v -0.1845 -0.4400 -0.2237
v -0.1845 0.4400 -0.2237
v -0.1758 -0.4400 -0.2306
v -0.1758 0.4400 -0.2306
v -0.1668 -0.4400 -0.2372
v -0.1668 0.4400 -0.2372
v -0.1576 -0.4400 -0.2434
v -0.1576 0.4400 -0.2434
v -0.1482 -0.4400 -0.2493
v -0.1482 0.4400 -0.2493
v -0.1385 -0.4400 -0.2548
v -0.1385 0.4400 -0.2548
v -0.1287 -0.4400 -0.2599
v -0.1287 0.4400 -0.2599
v -0.1186 -0.4400 -0.2646
v -0.1186 0.4400 -0.2646
v -0.1084 -0.4400 -0.2690
v -0.1084 0.4400 -0.2690
v -0.0980 -0.4400 -0.2729
v -0.0980 0.4400 -0.2729
v -0.0875 -0.4400 -0.2765
v -0.0875 0.4400 -0.2765
v -0.0768 -0.4400 -0.2796
v -0.0768 0.4400 -0.2796
v -0.0661 -0.4400 -0.2824
v -0.0661 0.4400 -0.2824
v -0.0552 -0.4400 -0.2847
v -0.0552 0.4400 -0.2847
v -0.0443 -0.4400 -0.2866
v -0.0443 0.4400 -0.2866
v -0.0333 -0.4400 -0.2881
v -0.0333 0.4400 -0.2881
v -0.0222 -0.4400 -0.2891
v -0.0222 0.4400 -0.2891
v -0.0111 -0.4400 -0.2898
v -0.0111 0.4400 -0.2898
v -0.0000 -0.4400 -0.2900
v -0.0000 0.4400 -0.2900
v 0.0111 -0.4400 -0.2898
v 0.0111 0.4400 -0.2898
v 0.0222 -0.4400 -0.2891
v 0.0222 0.4400 -0.2891
v 0.0333 -0.4400 -0.2881
v 0.0333 0.4400 -0.2881
v 0.0443 -0.4400 -0.2866
v 0.0443 0.4400 -0.2866
v 0.0552 -0.4400 -0.2847
v 0.0552 0.4400 -0.2847
v 0.0661 -0.4400 -0.2824
v 0.0661 0.4400 -0.2824
v 0.0768 -0.4400 -0.2796
v 0.0768 0.4400 -0.2796
v 0.0875 -0.4400 -0.2765
v 0.0875 0.4400 -0.2765
v 0.0980 -0.4400 -0.2729
v 0.0980 0.4400 -0.2729
v 0.1084 -0.4400 -0.2690
v 0.1084 0.4400 -0.2690
v 0.1186 -0.4400 -0.2646
v 0.1186 0.4400 -0.2646
v 0.1287 -0.4400 -0.2599
v 0.1287 0.4400 -0.2599
v 0.1385 -0.4400 -0.2548
v 0.1385 0.4400 -0.2548
v 0.1482 -0.4400 -0.2493
v 0.1482 0.4400 -0.2493
v 0.1576 -0.4400 -0.2434
v 0.1576 0.4400 -0.2434
v 0.1668 -0.4400 -0.2372
v 0.1668 0.4400 -0.2372
v 0.1758 -0.4400 -0.2306
v 0.1758 0.4400 -0.2306
v 0.1845 -0.4400 -0.2237
v 0.1845 0.4400 -0.2237
v 0.1929 -0.4400 -0.2165
v 0.1929 0.4400 -0.2165
v 0.2011 -0.4400 -0.2090
v 0.2011 0.4400 -0.2090
v 0.2090 -0.4400 -0.2011
v 0.2090 0.4400 -0.2011
v 0.2165 -0.4400 -0.1929
v 0.2165 0.4400 -0.1929
v 0.2237 -0.4400 -0.1845
v 0.2237 0.4400 -0.1845
v 0.2306 -0.4400 -0.1758
v 0.2306 0.4400 -0.1758
v 0.2372 -0.4400 -0.1668
v 0.2372 0.4400 -0.1668
v 0.2434 -0.4400 -0.1576
v 0.2434 0.4400 -0.1576
v 0.2493 -0.4400 -0.1482
v 0.2493 0.4400 -0.1482
v 0.2548 -0.4400 -0.1385
v 0.2548 0.4400 -0.1385
v 0.2599 -0.4400 -0.1287
v 0.2599 0.4400 -0.1287
v 0.2646 -0.4400 -0.1186
v 0.2646 0.4400 -0.1186
v 0.2690 -0.4400 -0.1084
v 0.2690 0.4400 -0.1084
v 0.2729 -0.4400 -0.0980
v 0.2729 0.4400 -0.0980
v 0.2765 -0.4400 -0.0875
v 0.2765 0.4400 -0.0875
v 0.2796 -0.4400 -0.0768
v 0.2796 0.4400 -0.0768
v 0.2824 -0.4400 -0.0661
v 0.2824 0.4400 -0.0661
v 0.2847 -0.4400 -0.0552
v 0.2847 0.4400 -0.0552
v 0.2866 -0.4400 -0.0443
v 0.2866 0.4400 -0.0443
v 0.2881 -0.4400 -0.0333
v 0.2881 0.4400 -0.0333
v 0.2891 -0.4400 -0.0222
v 0.2891 0.4400 -0.0222
v 0.2898 -0.4400 -0.0111
v 0.2898 0.4400 -0.0111
v 0.0000 0.4400 0.0000
v 0.0000 -0.4400 0.0000
v 0.3000 0.1850 0.0000
v 0.3000 0.2150 0.0000
v 0.2991 0.1850 0.0230
v 0.2991 0.2150 0.0230
v 0.2965 0.1850 0.0458
v 0.2965 0.2150 0.0458
v 0.2921 0.1850 0.0684
v 0.2921 0.2150 0.0684
v 0.2860 0.1850 0.0905
v 0.2860 0.2150 0.0905
v 0.2783 0.1850 0.1121
v 0.2783 0.2150 0.1121
v 0.2688 0.1850 0.1331
v 0.2688 0.2150 0.1331
v 0.2579 0.1850 0.1533
v 0.2579 0.2150 0.1533
v 0.2454 0.1850 0.1726
v 0.2454 0.2150 0.1726
v 0.2314 0.1850 0.1909
v 0.2314 0.2150 0.1909
v 0.2162 0.1850 0.2080
v 0.2162 0.2150 0.2080
v 0.1996 0.1850 0.2240
v 0.1996 0.2150 0.2240
v 0.1819 0.1850 0.2386
v 0.1819 0.2150 0.2386
v 0.1631 0.1850 0.2518
v 0.1631 0.2150 0.2518
v 0.1433 0.1850 0.2636
v 0.1433 0.2150 0.2636
v 0.1227 0.1850 0.2738
v 0.1227 0.2150 0.2738
v 0.1014 0.1850 0.2823
v 0.1014 0.2150 0.2823
v 0.0795 0.1850 0.2893
v 0.0795 0.2150 0.2893
v 0.0571 0.1850 0.2945
v 0.0571 0.2150 0.2945
v 0.0344 0.1850 0.2980
v 0.0344 0.2150 0.2980
v 0.0115 0.1850 0.2998
v 0.0115 0.2150 0.2998
v -0.0115 0.1850 0.2998
v -0.0115 0.2150 0.2998
v -0.0344 0.1850 0.2980
v -0.0344 0.2150 0.2980
v -0.0571 0.1850 0.2945
v -0.0571 0.2150 0.2945
v -0.0795 0.1850 0.2893
v -0.0795 0.2150 0.2893
v -0.1014 0.1850 0.2823
v -0.1014 0.2150 0.2823
v -0.1227 0.1850 0.2738
v -0.1227 0.2150 0.2738
v -0.1433 0.1850 0.2636
v -0.1433 0.2150 0.2636
v -0.1631 0.1850 0.2518
v -0.1631 0.2150 0.2518
v -0.1819 0.1850 0.2386
v -0.1819 0.2150 0.2386
v -0.1996 0.1850 0.2240
v -0.1996 0.2150 0.2240
v -0.2162 0.1850 0.2080
v -0.2162 0.2150 0.2080
v -0.2314 0.1850 0.1909
v -0.2314 0.2150 0.1909
v -0.2454 0.1850 0.1726
v -0.2454 0.2150 0.1726
v -0.2579 0.1850 0.1533
v -0.2579 0.2150 0.1533
v -0.2688 0.1850 0.1331
v -0.2688 0.2150 0.1331
v -0.2783 0.1850 0.1121
v -0.2783 0.2150 0.1121
v -0.2860 0.1850 0.0905
v -0.2860 0.2150 0.0905
v -0.2921 0.1850 0.0684
v -0.2921 0.2150 0.0684
v -0.2965 0.1850 0.0458
v -0.2965 0.2150 0.0458
v -0.2991 0.1850 0.0230
v -0.2991 0.2150 0.0230
v -0.3000 0.1850 0.0000
v -0.3000 0.2150 0.0000
v -0.2991 0.1850 -0.0230
v -0.2991 0.2150 -0.0230
v -0.2965 0.1850 -0.0458
v -0.2965 0.2150 -0.0458
v -0.2921 0.1850 -0.0684
v -0.2921 0.2150 -0.0684
v -0.2860 0.1850 -0.0905
v -0.2860 0.2150 -0.0905
v -0.2783 0.1850 -0.1121
v -0.2783 0.2150 -0.1121
v -0.2688 0.1850 -0.1331
v -0.2688 0.2150 -0.1331
v -0.2579 0.1850 -0.1533
v -0.2579 0.2150 -0.1533
v -0.2454 0.1850 -0.1726
v -0.2454 0.2150 -0.1726
v -0.2314 0.1850 -0.1909
v -0.2314 0.2150 -0.1909
v -0.2162 0.1850 -0.2080
v -0.2162 0.2150 -0.2080
v -0.1996 0.1850 -0.2240
v -0.1996 0.2150 -0.2240
v -0.1819 0.1850 -0.2386
v -0.1819 0.2150 -0.2386
v -0.1631 0.1850 -0.2518
v -0.1631 0.2150 -0.2518
v -0.1433 0.1850 -0.2636
v -0.1433 0.2150 -0.2636
v -0.1227 0.1850 -0.2738
v -0.1227 0.2150 -0.2738
v -0.1014 0.1850 -0.2823
v -0.1014 0.2150 -0.2823
v -0.0795 0.1850 -0.2893
v -0.0795 0.2150 -0.2893
v -0.0571 0.1850 -0.2945
v -0.0571 0.2150 -0.2945
v -0.0344 0.1850 -0.2980
v -0.0344 0.2150 -0.2980
v -0.0115 0.1850 -0.2998
v -0.0115 0.2150 -0.2998
v 0.0115 0.1850 -0.2998
v 0.0115 0.2150 -0.2998
v 0.0344 0.1850 -0.2980
v 0.0344 0.2150 -0.2980
v 0.0571 0.1850 -0.2945
v 0.0571 0.2150 -0.2945
v 0.0795 0.1850 -0.2893
v 0.0795 0.2150 -0.2893
v 0.1014 0.1850 -0.2823
v 0.1014 0.2150 -0.2823
v 0.1227 0.1850 -0.2738
v 0.1227 0.2150 -0.2738
v 0.1433 0.1850 -0.2636
v 0.1433 0.2150 -0.2636
v 0.1631 0.1850 -0.2518
v 0.1631 0.2150 -0.2518
v 0.1819 0.1850 -0.2386
v 0.1819 0.2150 -0.2386
v 0.1996 0.1850 -0.2240
v 0.1996 0.2150 -0.2240
v 0.2162 0.1850 -0.2080
v 0.2162 0.2150 -0.2080
v 0.2314 0.1850 -0.1909
v 0.2314 0.2150 -0.1909
v 0.2454 0.1850 -0.1726
v 0.2454 0.2150 -0.1726
v 0.2579 0.1850 -0.1533
v 0.2579 0.2150 -0.1533
v 0.2688 0.1850 -0.1331
v 0.2688 0.2150 -0.1331
v 0.2783 0.1850 -0.1121
v 0.2783 0.2150 -0.1121
v 0.2860 0.1850 -0.0905
v 0.2860 0.2150 -0.0905
v 0.2921 0.1850 -0.0684
v 0.2921 0.2150 -0.0684
v 0.2965 0.1850 -0.0458
v 0.2965 0.2150 -0.0458
v 0.2991 0.1850 -0.0230
v 0.2991 0.2150 -0.0230
v 0.0000 0.2150 0.0000
v 0.0000 0.1850 0.0000
v 0.3000 -0.2150 0.0000
v 0.3000 -0.1850 0.0000
v 0.2991 -0.2150 0.0230
v 0.2991 -0.1850 0.0230
v 0.2965 -0.2150 0.0458
v 0.2965 -0.1850 0.0458
v 0.2921 -0.2150 0.0684
v 0.2921 -0.1850 0.0684
v 0.2860 -0.2150 0.0905
v 0.2860 -0.1850 0.0905
v 0.2783 -0.2150 0.1121
v 0.2783 -0.1850 0.1121
v 0.2688 -0.2150 0.1331
v 0.2688 -0.1850 0.1331
v 0.2579 -0.2150 0.1533
v 0.2579 -0.1850 0.1533
v 0.2454 -0.2150 0.1726
v 0.2454 -0.1850 0.1726
v 0.2314 -0.2150 0.1909
v 0.2314 -0.1850 0.1909
v 0.2162 -0.2150 0.2080
v 0.2162 -0.1850 0.2080
v 0.1996 -0.2150 0.2240
v 0.1996 -0.1850 0.2240
v 0.1819 -0.2150 0.2386
v 0.1819 -0.1850 0.2386
v 0.1631 -0.2150 0.2518
v 0.1631 -0.1850 0.2518
v 0.1433 -0.2150 0.2636
v 0.1433 -0.1850 0.2636
v 0.1227 -0.2150 0.2738
v 0.1227 -0.1850 0.2738
v 0.1014 -0.2150 0.2823
v 0.1014 -0.1850 0.2823
v 0.0795 -0.2150 0.2893
v 0.0795 -0.1850 0.2893
v 0.0571 -0.2150 0.2945
v 0.0571 -0.1850 0.2945
v 0.0344 -0.2150 0.2980
v 0.0344 -0.1850 0.2980
v 0.0115 -0.2150 0.2998
v 0.0115 -0.1850 0.2998
v -0.0115 -0.2150 0.2998
v -0.0115 -0.1850 0.2998
v -0.0344 -0.2150 0.2980
v -0.0344 -0.1850 0.2980
v -0.0571 -0.2150 0.2945
v -0.0571 -0.1850 0.2945
v -0.0795 -0.2150 0.2893
v -0.0795 -0.1850 0.2893
v -0.1014 -0.2150 0.2823
v -0.1014 -0.1850 0.2823
v -0.1227 -0.2150 0.2738
v -0.1227 -0.1850 0.2738
v -0.1433 -0.2150 0.2636
v -0.1433 -0.1850 0.2636
v -0.1631 -0.2150 0.2518
v -0.1631 -0.1850 0.2518
v -0.1819 -0.2150 0.2386
v -0.1819 -0.1850 0.2386
v -0.1996 -0.2150 0.2240
v -0.1996 -0.1850 0.2240
v -0.2162 -0.2150 0.2080
v -0.2162 -0.1850 0.2080
v -0.2314 -0.2150 0.1909
v -0.2314 -0.1850 0.1909
v -0.2454 -0.2150 0.1726
v -0.2454 -0.1850 0.1726
v -0.2579 -0.2150 0.1533
v -0.2579 -0.1850 0.1533
v -0.2688 -0.2150 0.1331
v -0.2688 -0.1850 0.1331
v -0.2783 -0.2150 0.1121
v -0.2783 -0.1850 0.1121
v -0.2860 -0.2150 0.0905
v -0.2860 -0.1850 0.0905
v -0.2921 -0.2150 0.0684
v -0.2921 -0.1850 0.0684
v -0.2965 -0.2150 0.0458
v -0.2965 -0.1850 0.0458
v -0.2991 -0.2150 0.0230
v -0.2991 -0.1850 0.0230
v -0.3000 -0.2150 0.0000
v -0.3000 -0.1850 0.0000
v -0.2991 -0.2150 -0.0230
v -0.2991 -0.1850 -0.0230
v -0.2965 -0.2150 -0.0458
v -0.2965 -0.1850 -0.0458
v -0.2921 -0.2150 -0.0684
v -0.2921 -0.1850 -0.0684
v -0.2860 -0.2150 -0.0905
v -0.2860 -0.1850 -0.0905
v -0.2783 -0.2150 -0.1121
v -0.2783 -0.1850 -0.1121
v -0.2688 -0.2150 -0.1331
v -0.2688 -0.1850 -0.1331
v -0.2579 -0.2150 -0.1533
v -0.2579 -0.1850 -0.1533
v -0.2454 -0.2150 -0.1726
v -0.2454 -0.1850 -0.1726
v -0.2314 -0.2150 -0.1909
v -0.2314 -0.1850 -0.1909
v -0.2162 -0.2150 -0.2080
v -0.2162 -0.1850 -0.2080
v -0.1996 -0.2150 -0.2240
v -0.1996 -0.1850 -0.2240
v -0.1819 -0.2150 -0.2386
v -0.1819 -0.1850 -0.2386
v -0.1631 -0.2150 -0.2518
v -0.1631 -0.1850 -0.2518
v -0.1433 -0.2150 -0.2636
v -0.1433 -0.1850 -0.2636
v -0.1227 -0.2150 -0.2738
v -0.1227 -0.1850 -0.2738
v -0.1014 -0.2150 -0.2823
v -0.1014 -0.1850 -0.2823
v -0.0795 -0.2150 -0.2893
v -0.0795 -0.1850 -0.2893
v -0.0571 -0.2150 -0.2945
v -0.0571 -0.1850 -0.2945
v -0.0344 -0.2150 -0.2980
v -0.0344 -0.1850 -0.2980
v -0.0115 -0.2150 -0.2998
v -0.0115 -0.1850 -0.2998
v 0.0115 -0.2150 -0.2998
v 0.0115 -0.1850 -0.2998
v 0.0344 -0.2150 -0.2980
v 0.0344 -0.1850 -0.2980
v 0.0571 -0.2150 -0.2945
v 0.0571 -0.1850 -0.2945
v 0.0795 -0.2150 -0.2893
v 0.0795 -0.1850 -0.2893
v 0.1014 -0.2150 -0.2823
v 0.1014 -0.1850 -0.2823
v 0.1227 -0.2150 -0.2738
v 0.1227 -0.1850 -0.2738
v 0.1433 -0.2150 -0.2636
v 0.1433 -0.1850 -0.2636
v 0.1631 -0.2150 -0.2518
v 0.1631 -0.1850 -0.2518
v 0.1819 -0.2150 -0.2386
v 0.1819 -0.1850 -0.2386
v 0.1996 -0.2150 -0.2240
v 0.1996 -0.1850 -0.2240
v 0.2162 -0.2150 -0.2080
v 0.2162 -0.1850 -0.2080
v 0.2314 -0.2150 -0.1909
v 0.2314 -0.1850 -0.1909
v 0.2454 -0.2150 -0.1726
v 0.2454 -0.1850 -0.1726
v 0.2579 -0.2150 -0.1533
v 0.2579 -0.1850 -0.1533
v 0.2688 -0.2150 -0.1331
v 0.2688 -0.1850 -0.1331
v 0.2783 -0.2150 -0.1121
v 0.2783 -0.1850 -0.1121
v 0.2860 -0.2150 -0.0905
v 0.2860 -0.1850 -0.0905
v 0.2921 -0.2150 -0.0684
v 0.2921 -0.1850 -0.0684
v 0.2965 -0.2150 -0.0458
v 0.2965 -0.1850 -0.0458
v 0.2991 -0.2150 -0.0230
v 0.2991 -0.1850 -0.0230
v 0.0000 -0.1850 0.0000
v 0.0000 -0.2150 0.0000
v 0.1600 0.4250 0.0000
v 0.1600 0.4750 0.0000
v 0.1596 0.4250 0.0060
v 0.1596 0.4750 0.0060
v 0.1582 0.4250 0.0118
v 0.1582 0.4750 0.0118
v 0.1560 0.4250 0.0174
v 0.1560 0.4750 0.0174
v 0.1530 0.4250 0.0225
v 0.1530 0.4750 0.0225
v 0.1493 0.4250 0.0272
v 0.1493 0.4750 0.0272
v 0.1449 0.4250 0.0313
v 0.1449 0.4750 0.0313
v 0.1400 0.4250 0.0346
v 0.1400 0.4750 0.0346
v 0.1346 0.4250 0.0372
v 0.1346 0.4750 0.0372
v 0.1289 0.4250 0.0390
v 0.1289 0.4750 0.0390
v 0.1230 0.4250 0.0399
v 0.1230 0.4750 0.0399
v 0.1170 0.4250 0.0399
v 0.1170 0.4750 0.0399
v 0.1111 0.4250 0.0390
v 0.1111 0.4750 0.0390
v 0.1054 0.4250 0.0372
v 0.1054 0.4750 0.0372
v 0.1000 0.4250 0.0346
v 0.1000 0.4750 0.0346
v 0.0951 0.4250 0.0313
v 0.0951 0.4750 0.0313
v 0.0907 0.4250 0.0272
v 0.0907 0.4750 0.0272
v 0.0870 0.4250 0.0225
v 0.0870 0.4750 0.0225
v 0.0840 0.4250 0.0174
v 0.0840 0.4750 0.0174
v 0.0818 0.4250 0.0118
v 0.0818 0.4750 0.0118
v 0.0804 0.4250 0.0060
v 0.0804 0.4750 0.0060
v 0.0800 0.4250 0.0000
v 0.0800 0.4750 0.0000
v 0.0804 0.4250 -0.0060
v 0.0804 0.4750 -0.0060
v 0.0818 0.4250 -0.0118
v 0.0818 0.4750 -0.0118
v 0.0840 0.4250 -0.0174
v 0.0840 0.4750 -0.0174
v 0.0870 0.4250 -0.0225
v 0.0870 0.4750 -0.0225
v 0.0907 0.4250 -0.0272
v 0.0907 0.4750 -0.0272
v 0.0951 0.4250 -0.0313
v 0.0951 0.4750 -0.0313
v 0.1000 0.4250 -0.0346
v 0.1000 0.4750 -0.0346
v 0.1054 0.4250 -0.0372
v 0.1054 0.4750 -0.0372
v 0.1111 0.4250 -0.0390
v 0.1111 0.4750 -0.0390
v 0.1170 0.4250 -0.0399
v 0.1170 0.4750 -0.0399
v 0.1230 0.4250 -0.0399
v 0.1230 0.4750 -0.0399
v 0.1289 0.4250 -0.0390
v 0.1289 0.4750 -0.0390
v 0.1346 0.4250 -0.0372
v 0.1346 0.4750 -0.0372
v 0.1400 0.4250 -0.0346
v 0.1400 0.4750 -0.0346
v 0.1449 0.4250 -0.0313
v 0.1449 0.4750 -0.0313
v 0.1493 0.4250 -0.0272
v 0.1493 0.4750 -0.0272
v 0.1530 0.4250 -0.0225
v 0.1530 0.4750 -0.0225
v 0.1560 0.4250 -0.0174
v 0.1560 0.4750 -0.0174
v 0.1582 0.4250 -0.0118
v 0.1582 0.4750 -0.0118
v 0.1596 0.4250 -0.0060
v 0.1596 0.4750 -0.0060
v 0.1200 0.4750 0.0000
v 0.1200 0.4250 0.0000
f 1 3 4
f 1 4 2
f 3 5 6
f 3 6 4
f 5 7 8
f 5 8 6
f 7 9 10
f 7 10 8
f 9 11 12
f 9 12 10
f 11 13 14
f 11 14 12
f 13 15 16
f 13 16 14
f 15 17 18
f 15 18 16
f 17 19 20
f 17 20 18
f 19 21 22
f 19 22 20
f 21 23 24
f 21 24 22
f 23 25 26
f 23 26 24
f 25 27 28
f 25 28 26
f 27 29 30
f 27 30 28
f 29 31 32
f 29 32 30
f 31 33 34
f 31 34 32
f 33 35 36
f 33 36 34
f 35 37 38
f 35 38 36
f 37 39 40
f 37 40 38
f 39 41 42
f 39 42 40
f 41 43 44
f 41 44 42
f 43 45 46
f 43 46 44
f 45 47 48
f 45 48 46
f 47 49 50
f 47 50 48
f 49 51 52
f 49 52 50
f 51 53 54
f 51 54 52
f 53 55 56
f 53 56 54
f 55 57 58
f 55 58 56
f 57 59 60
f 57 60 58
f 59 61 62
f 59 62 60
f 61 63 64
f 61 64 62
f 63 65 66
f 63 66 64
f 65 67 68
f 65 68 66
f 67 69 70
f 67 70 68
f 69 71 72
f 69 72 70
f 71 73 74
f 71 74 72
f 73 75 76
f 73 76 74
f 75 77 78
f 75 78 76
f 77 79 80
f 77 80 78
f 79 81 82
f 79 82 80
f 81 83 84
f 81 84 82
f 83 85 86
f 83 86 84
f 85 87 88
f 85 88 86
f 87 89 90
f 87 90 88
f 89 91 92
f 89 92 90
f 91 93 94
f 91 94 92
f 93 95 96
f 93 96 94
f 95 97 98
f 95 98 96
f 97 99 100
f 97 100 98
f 99 101 102
f 99 102 100
f 101 103 104
f 101 104 102
f 103 105 106
f 103 106 104
f 105 107 108
f 105 108 106
f 107 109 110
f 107 110 108
f 109 111 112
f 109 112 110
f 111 113 114
f 111 114 112
f 113 115 116
f 113 116 114
f 115 117 118
f 115 118 116
f 117 119 120
f 117 120 118
f 119 121 122
f 119 122 120
f 121 123 124
f 121 124 122
f 123 125 126
f 123 126 124
f 125 127 128
f 125 128 126
f 127 129 130
f 127 130 128
f 129 131 132
f 129 132 130
f 131 133 134
f 131 134 132
f 133 135 136
f 133 136 134
f 135 137 138
f 135 138 136
f 137 139 140
f 137 140 138
f 139 141 142
f 139 142 140
f 141 143 144
f 141 144 142
f 143 145 146
f 143 146 144
f 145 147 148
f 145 148 146
f 147 149 150
f 147 150 148
f 149 151 152
f 149 152 150
f 151 153 154
f 151 154 152
f 153 155 156
f 153 156 154
f 155 157 158
f 155 158 156
f 157 159 160
f 157 160 158
f 159 161 162
f 159 162 160
f 161 163 164
f 161 164 162
f 163 165 166
f 163 166 164
f 165 167 168
f 165 168 166
f 167 169 170
f 167 170 168
f 169 171 172
f 169 172 170
f 171 173 174
f 171 174 172
f 173 175 176
f 173 176 174
f 175 177 178
f 175 178 176
f 177 179 180
f 177 180 178
f 179 181 182
f 179 182 180
f 181 183 184
f 181 184 182
f 183 185 186
f 183 186 184
f 185 187 188
f 185 188 186
f 187 189 190
f 187 190 188
f 189 191 192
f 189 192 190
f 191 193 194
f 191 194 192
f 193 195 196
f 193 196 194
f 195 197 198
f 195 198 196
f 197 199 200
f 197 200 198
f 199 201 202
f 199 202 200
f 201 203 204
f 201 204 202
f 203 205 206
f 203 206 204
f 205 207 208
f 205 208 206
f 207 209 210
f 207 210 208
f 209 211 212
f 209 212 210
f 211 213 214
f 211 214 212
f 213 215 216
f 213 216 214
f 215 217 218
f 215 218 216
f 217 219 220
f 217 220 218
f 219 221 222
f 219 222 220
f 221 223 224
f 221 224 222
f 223 225 226
f 223 226 224
f 225 227 228
f 225 228 226
f 227 229 230
f 227 230 228
f 229 231 232
f 229 232 230
f 231 233 234
f 231 234 232
f 233 235 236
f 233 236 234
f 235 237 238
f 235 238 236
f 237 239 240
f 237 240 238
f 239 241 242
f 239 242 240
f 241 243 244
f 241 244 242
f 243 245 246
f 243 246 244
f 245 247 248
f 245 248 246
f 247 249 250
f 247 250 248
f 249 251 252
f 249 252 250
f 251 253 254
f 251 254 252
f 253 255 256
f 253 256 254
f 255 257 258
f 255 258 256
f 257 259 260
f 257 260 258
f 259 261 262
f 259 262 260
f 261 263 264
f 261 264 262
f 263 265 266
f 263 266 264
f 265 267 268
f 265 268 266
f 267 269 270
f 267 270 268
f 269 271 272
f 269 272 270
f 271 273 274
f 271 274 272
f 273 275 276
f 273 276 274
f 275 277 278
f 275 278 276
f 277 279 280
f 277 280 278
f 279 281 282
f 279 282 280
f 281 283 284
f 281 284 282
f 283 285 286
f 283 286 284
f 285 287 288
f 285 288 286
f 287 289 290
f 287 290 288
f 289 291 292
f 289 292 290
f 291 293 294
f 291 294 292
f 293 295 296
f 293 296 294
f 295 297 298
f 295 298 296
f 297 299 300
f 297 300 298
f 299 301 302
f 299 302 300
f 301 303 304
f 301 304 302
f 303 305 306
f 303 306 304
f 305 307 308
f 305 308 306
f 307 309 310
f 307 310 308
f 309 311 312
f 309 312 310
f 311 313 314
f 311 314 312
f 313 315 316
f 313 316 314
f 315 317 318
f 315 318 316
f 317 319 320
f 317 320 318
f 319 321 322
f 319 322 320
f 321 323 324
f 321 324 322
f 323 325 326
f 323 326 324
f 325 327 328
f 325 328 326
f 327 1 2
f 327 2 328
f 329 2 4
f 330 3 1
f 329 4 6
f 330 5 3
f 329 6 8
f 330 7 5
f 329 8 10
f 330 9 7
f 329 10 12
f 330 11 9
f 329 12 14
f 330 13 11
f 329 14 16
f 330 15 13
f 329 16 18
f 330 17 15
f 329 18 20
f 330 19 17
f 329 20 22
f 330 21 19
f 329 22 24
f 330 23 21
f 329 24 26
f 330 25 23
f 329 26 28
f 330 27 25
f 329 28 30
f 330 29 27
f 329 30 32
f 330 31 29
f 329 32 34
f 330 33 31
f 329 34 36
f 330 35 33
f 329 36 38
f 330 37 35
f 329 38 40
f 330 39 37
f 329 40 42
f 330 41 39
f 329 42 44
f 330 43 41
f 329 44 46
f 330 45 43
f 329 46 48
f 330 47 45
f 329 48 50
f 330 49 47
f 329 50 52
f 330 51 49
f 329 52 54
f 330 53 51
f 329 54 56
f 330 55 53
f 329 56 58
f 330 57 55
f 329 58 60
f 330 59 57
f 329 60 62
f 330 61 59
f 329 62 64
f 330 63 61
f 329 64 66
f 330 65 63
f 329 66 68
f 330 67 65
f 329 68 70
f 330 69 67
f 329 70 72
f 330 71 69
f 329 72 74
f 330 73 71
f 329 74 76
f 330 75 73
f 329 76 78
f 330 77 75
f 329 78 80
f 330 79 77
f 329 80 82
f 330 81 79
f 329 82 84
f 330 83 81
f 329 84 86
f 330 85 83
f 329 86 88
f 330 87 85
f 329 88 90
f 330 89 87
f 329 90 92
f 330 91 89
f 329 92 94
f 330 93 91
f 329 94 96
f 330 95 93
f 329 96 98
f 330 97 95
f 329 98 100
f 330 99 97
f 329 100 102
f 330 101 99
f 329 102 104
f 330 103 101
f 329 104 106
f 330 105 103
f 329 106 108
f 330 107 105
f 329 108 110
f 330 109 107
f 329 110 112
f 330 111 109
f 329 112 114
f 330 113 111
f 329 114 116
f 330 115 113
f 329 116 118
f 330 117 115
f 329 118 120
f 330 119 117
f 329 120 122
f 330 121 119
f 329 122 124
f 330 123 121
f 329 124 126
f 330 125 123
f 329 126 128
f 330 127 125
f 329 128 130
f 330 129 127
f 329 130 132
f 330 131 129
f 329 132 134
f 330 133 131
f 329 134 136
f 330 135 133
f 329 136 138
f 330 137 135
f 329 138 140
f 330 139 137
f 329 140 142
f 330 141 139
f 329 142 144
f 330 143 141
f 329 144 146
f 330 145 143
f 329 146 148
f 330 147 145
f 329 148 150
f 330 149 147
f 329 150 152
f 330 151 149
f 329 152 154
f 330 153 151
f 329 154 156
f 330 155 153
f 329 156 158
f 330 157 155
f 329 158 160
f 330 159 157
f 329 160 162
f 330 161 159
f 329 162 164
f 330 163 161
f 329 164 166
f 330 165 163
f 329 166 168
f 330 167 165
f 329 168 170
f 330 169 167
f 329 170 172
f 330 171 169
f 329 172 174
f 330 173 171
f 329 174 176
f 330 175 173
f 329 176 178
f 330 177 175
f 329 178 180
f 330 179 177
f 329 180 182
f 330 181 179
f 329 182 184
f 330 183 181
f 329 184 186
f 330 185 183
f 329 186 188
f 330 187 185
f 329 188 190
f 330 189 187
f 329 190 192
f 330 191 189
f 329 192 194
f 330 193 191
f 329 194 196
f 330 195 193
f 329 196 198
f 330 197 195
f 329 198 200
f 330 199 197
f 329 200 202
f 330 201 199
f 329 202 204
f 330 203 201
f 329 204 206
f 330 205 203
f 329 206 208
f 330 207 205
f 329 208 210
f 330 209 207
f 329 210 212
f 330 211 209
f 329 212 214
f 330 213 211
f 329 214 216
f 330 215 213
f 329 216 218
f 330 217 215
f 329 218 220
f 330 219 217
f 329 220 222
f 330 221 219
f 329 222 224
f 330 223 221
f 329 224 226
f 330 225 223
f 329 226 228
f 330 227 225
f 329 228 230
f 330 229 227
f 329 230 232
f 330 231 229
f 329 232 234
f 330 233 231
f 329 234 236
f 330 235 233
f 329 236 238
f 330 237 235
f 329 238 240
f 330 239 237
f 329 240 242
f 330 241 239
f 329 242 244
f 330 243 241
f 329 244 246
f 330 245 243
f 329 246 248
f 330 247 245
f 329 248 250
f 330 249 247
f 329 250 252
f 330 251 249
f 329 252 254
f 330 253 251
f 329 254 256
f 330 255 253
f 329 256 258
f 330 257 255
f 329 258 260
f 330 259 257
f 329 260 262
f 330 261 259
f 329 262 264
f 330 263 261
f 329 264 266
f 330 265 263
f 329 266 268
f 330 267 265
f 329 268 270
f 330 269 267
f 329 270 272
f 330 271 269
f 329 272 274
f 330 273 271
f 329 274 276
f 330 275 273
f 329 276 278
f 330 277 275
f 329 278 280
f 330 279 277
f 329 280 282
f 330 281 279
f 329 282 284
f 330 283 281
f 329 284 286
f 330 285 283
f 329 286 288
f 330 287 285
f 329 288 290
f 330 289 287
f 329 290 292
f 330 291 289
f 329 292 294
f 330 293 291
f 329 294 296
f 330 295 293
f 329 296 298
f 330 297 295
f 329 298 300
f 330 299 297
f 329 300 302
f 330 301 299
f 329 302 304
f 330 303 301
f 329 304 306
f 330 305 303
f 329 306 308
f 330 307 305
f 329 308 310
f 330 309 307
f 329 310 312
f 330 311 309
f 329 312 314
f 330 313 311
f 329 314 316
f 330 315 313
f 329 316 318
f 330 317 315
f 329 318 320
f 330 319 317
f 329 320 322
f 330 321 319
f 329 322 324
f 330 323 321
f 329 324 326
f 330 325 323
f 329 326 328
f 330 327 325
f 329 328 2
f 330 1 327
f 331 333 334
f 331 334 332
f 333 335 336
f 333 336 334
f 335 337 338
f 335 338 336
f 337 339 340
f 337 340 338
f 339 341 342
f 339 342 340
f 341 343 344
f 341 344 342
f 343 345 346
f 343 346 344
f 345 347 348
f 345 348 346
f 347 349 350
f 347 350 348
f 349 351 352
f 349 352 350
f 351 353 354
f 351 354 352
f 353 355 356
f 353 356 354
f 355 357 358
f 355 358 356
f 357 359 360
f 357 360 358
f 359 361 362
f 359 362 360
f 361 363 364
f 361 364 362
f 363 365 366
f 363 366 364
f 365 367 368
f 365 368 366
f 367 369 370
f 367 370 368
f 369 371 372
f 369 372 370
f 371 373 374
f 371 374 372
f 373 375 376
f 373 376 374
f 375 377 378
f 375 378 376
f 377 379 380
f 377 380 378
f 379 381 382
f 379 382 380
f 381 383 384
f 381 384 382
f 383 385 386
f 383 386 384
f 385 387 388
f 385 388 386
f 387 389 390
f 387 390 388
f 389 391 392
f 389 392 390
f 391 393 394
f 391 394 392
f 393 395 396
f 393 396 394
f 395 397 398
f 395 398 396
f 397 399 400
f 397 400 398
f 399 401 402
f 399 402 400
f 401 403 404
f 401 404 402
f 403 405 406
f 403 406 404
f 405 407 408
f 405 408 406
f 407 409 410
f 407 410 408
f 409 411 412
f 409 412 410
f 411 413 414
f 411 414 412
f 413 415 416
f 413 416 414
f 415 417 418
f 415 418 416
f 417 419 420
f 417 420 418
f 419 421 422
f 419 422 420
f 421 423 424
f 421 424 422
f 423 425 426
f 423 426 424
f 425 427 428
f 425 428 426
f 427 429 430
f 427 430 428
f 429 431 432
f 429 432 430
f 431 433 434
f 431 434 432
f 433 435 436
f 433 436 434
f 435 437 438
f 435 438 436
f 437 439 440
f 437 440 438
f 439 441 442
f 439 442 440
f 441 443 444
f 441 444 442
f 443 445 446
f 443 446 444
f 445 447 448
f 445 448 446
f 447 449 450
f 447 450 448
f 449 451 452
f 449 452 450
f 451 453 454
f 451 454 452
f 453 455 456
f 453 456 454
f 455 457 458
f 455 458 456
f 457 459 460
f 457 460 458
f 459 461 462
f 459 462 460
f 461 463 464
f 461 464 462
f 463 465 466
f 463 466 464
f 465 467 468
f 465 468 466
f 467 469 470
f 467 470 468
f 469 471 472
f 469 472 470
f 471 473 474
f 471 474 472
f 473 475 476
f 473 476 474
f 475 477 478
f 475 478 476
f 477 479 480
f 477 480 478
f 479 481 482
f 479 482 480
f 481 483 484
f 481 484 482
f 483 485 486
f 483 486 484
f 485 487 488
f 485 488 486
f 487 489 490
f 487 490 488
f 489 491 492
f 489 492 490
f 491 493 494
f 491 494 492
f 493 331 332
f 493 332 494
f 495 332 334
f 496 333 331
f 495 334 336
f 496 335 333
f 495 336 338
f 496 337 335
f 495 338 340
f 496 339 337
f 495 340 342
f 496 341 339
f 495 342 344
f 496 343 341
f 495 344 346
f 496 345 343
f 495 346 348
f 496 347 345
f 495 348 350
f 496 349 347
f 495 350 352
f 496 351 349
f 495 352 354
f 496 353 351
f 495 354 356
f 496 355 353
f 495 356 358
f 496 357 355
f 495 358 360
f 496 359 357
f 495 360 362
f 496 361 359
f 495 362 364
f 496 363 361
f 495 364 366
f 496 365 363
f 495 366 368
f 496 367 365
f 495 368 370
f 496 369 367
f 495 370 372
f 496 371 369
f 495 372 374
f 496 373 371
f 495 374 376
f 496 375 373
f 495 376 378
f 496 377 375
f 495 378 380
f 496 379 377
f 495 380 382
f 496 381 379
f 495 382 384
f 496 383 381
f 495 384 386
f 496 385 383
f 495 386 388
f 496 387 385
f 495 388 390
f 496 389 387
f 495 390 392
f 496 391 389
f 495 392 394
f 496 393 391
f 495 394 396
f 496 395 393
f 495 396 398
f 496 397 395
f 495 398 400
f 496 399 397
f 495 400 402
f 496 401 399
f 495 402 404
f 496 403 401
f 495 404 406
f 496 405 403
f 495 406 408
f 496 407 405
f 495 408 410
f 496 409 407
f 495 410 412
f 496 411 409
f 495 412 414
f 496 413 411
f 495 414 416
f 496 415 413
f 495 416 418
f 496 417 415
f 495 418 420
f 496 419 417
f 495 420 422
f 496 421 419
f 495 422 424
f 496 423 421
f 495 424 426
f 496 425 423
f 495 426 428
f 496 427 425
f 495 428 430
f 496 429 427
f 495 430 432
f 496 431 429
f 495 432 434
f 496 433 431
f 495 434 436
f 496 435 433
f 495 436 438
f 496 437 435
f 495 438 440
f 496 439 437
f 495 440 442
f 496 441 439
f 495 442 444
f 496 443 441
f 495 444 446
f 496 445 443
f 495 446 448
f 496 447 445
f 495 448 450
f 496 449 447
f 495 450 452
f 496 451 449
f 495 452 454
f 496 453 451
f 495 454 456
f 496 455 453
f 495 456 458
f 496 457 455
f 495 458 460
f 496 459 457
f 495 460 462
f 496 461 459
f 495 462 464
f 496 463 461
f 495 464 466
f 496 465 463
f 495 466 468
f 496 467 465
f 495 468 470
f 496 469 467
f 495 470 472
f 496 471 469
f 495 472 474
f 496 473 471
f 495 474 476
f 496 475 473
f 495 476 478
f 496 477 475
f 495 478 480
f 496 479 477
f 495 480 482
f 496 481 479
f 495 482 484
f 496 483 481
f 495 484 486
f 496 485 483
f 495 486 488
f 496 487 485
f 495 488 490
f 496 489 487
f 495 490 492
f 496 491 489
f 495 492 494
f 496 493 491
f 495 494 332
f 496 331 493
f 497 499 500
f 497 500 498
f 499 501 502
f 499 502 500
f 501 503 504
f 501 504 502
f 503 505 506
f 503 506 504
f 505 507 508
f 505 508 506
f 507 509 510
f 507 510 508
f 509 511 512
f 509 512 510
f 511 513 514
f 511 514 512
f 513 515 516
f 513 516 514
f 515 517 518
f 515 518 516
f 517 519 520
f 517 520 518
f 519 521 522
f 519 522 520
f 521 523 524
f 521 524 522
f 523 525 526
f 523 526 524
f 525 527 528
f 525 528 526
f 527 529 530
f 527 530 528
f 529 531 532
f 529 532 530
f 531 533 534
f 531 534 532
f 533 535 536
f 533 536 534
f 535 537 538
f 535 538 536
f 537 539 540
f 537 540 538
f 539 541 542
f 539 542 540
f 541 543 544
f 541 544 542
f 543 545 546
f 543 546 544
f 545 547 548
f 545 548 546
f 547 549 550
f 547 550 548
f 549 551 552
f 549 552 550
f 551 553 554
f 551 554 552
f 553 555 556
f 553 556 554
f 555 557 558
f 555 558 556
f 557 559 560
f 557 560 558
f 559 561 562
f 559 562 560
f 561 563 564
f 561 564 562
f 563 565 566
f 563 566 564
f 565 567 568
f 565 568 566
f 567 569 570
f 567 570 568
f 569 571 572
f 569 572 570
f 571 573 574
f 571 574 572
f 573 575 576
f 573 576 574
f 575 577 578
f 575 578 576
f 577 579 580
f 577 580 578
f 579 581 582
f 579 582 580
f 581 583 584
f 581 584 582
f 583 585 586
f 583 586 584
f 585 587 588
f 585 588 586
f 587 589 590
f 587 590 588
f 589 591 592
f 589 592 590
f 591 593 594
f 591 594 592
f 593 595 596
f 593 596 594
f 595 597 598
f 595 598 596
f 597 599 600
f 597 600 598
f 599 601 602
f 599 602 600
f 601 603 604
f 601 604 602
f 603 605 606
f 603 606 604
f 605 607 608
f 605 608 606
f 607 609 610
f 607 610 608
f 609 611 612
f 609 612 610
f 611 613 614
f 611 614 612
f 613 615 616
f 613 616 614
f 615 617 618
f 615 618 616
f 617 619 620
f 617 620 618
f 619 621 622
f 619 622 620
f 621 623 624
f 621 624 622
f 623 625 626
f 623 626 624
f 625 627 628
f 625 628 626
f 627 629 630
f 627 630 628
f 629 631 632
f 629 632 630
f 631 633 634
f 631 634 632
f 633 635 636
f 633 636 634
f 635 637 638
f 635 638 636
f 637 639 640
f 637 640 638
f 639 641 642
f 639 642 640
f 641 643 644
f 641 644 642
f 643 645 646
f 643 646 644
f 645 647 648
f 645 648 646
f 647 649 650
f 647 650 648
f 649 651 652
f 649 652 650
f 651 653 654
f 651 654 652
f 653 655 656
f 653 656 654
f 655 657 658
f 655 658 656
f 657 659 660
f 657 660 658
f 659 497 498
f 659 498 660
f 661 498 500
f 662 499 497
f 661 500 502
f 662 501 499
f 661 502 504
f 662 503 501
f 661 504 506
f 662 505 503
f 661 506 508
f 662 507 505
f 661 508 510
f 662 509 507
f 661 510 512
f 662 511 509
f 661 512 514
f 662 513 511
f 661 514 516
f 662 515 513
f 661 516 518
f 662 517 515
f 661 518 520
f 662 519 517
f 661 520 522
f 662 521 519
f 661 522 524
f 662 523 521
f 661 524 526
f 662 525 523
f 661 526 528
f 662 527 525
f 661 528 530
f 662 529 527
f 661 530 532
f 662 531 529
f 661 532 534
f 662 533 531
f 661 534 536
f 662 535 533
f 661 536 538
f 662 537 535
f 661 538 540
f 662 539 537
f 661 540 542
f 662 541 539
f 661 542 544
f 662 543 541
f 661 544 546
f 662 545 543
f 661 546 548
f 662 547 545
f 661 548 550
f 662 549 547
f 661 550 552
f 662 551 549
f 661 552 554
f 662 553 551
f 661 554 556
f 662 555 553
f 661 556 558
f 662 557 555
f 661 558 560
f 662 559 557
f 661 560 562
f 662 561 559
f 661 562 564
f 662 563 561
f 661 564 566
f 662 565 563
f 661 566 568
f 662 567 565
f 661 568 570
f 662 569 567
f 661 570 572
f 662 571 569
f 661 572 574
f 662 573 571
f 661 574 576
f 662 575 573
f 661 576 578
f 662 577 575
f 661 578 580
f 662 579 577
f 661 580 582
f 662 581 579
f 661 582 584
f 662 583 581
f 661 584 586
f 662 585 583
f 661 586 588
f 662 587 585
f 661 588 590
f 662 589 587
f 661 590 592
f 662 591 589
f 661 592 594
f 662 593 591
f 661 594 596
f 662 595 593
f 661 596 598
f 662 597 595
f 661 598 600
f 662 599 597
f 661 600 602
f 662 601 599
f 661 602 604
f 662 603 601
f 661 604 606
f 662 605 603
f 661 606 608
f 662 607 605
f 661 608 610
f 662 609 607
f 661 610 612
f 662 611 609
f 661 612 614
f 662 613 611
f 661 614 616
f 662 615 613
f 661 616 618
f 662 617 615
f 661 618 620
f 662 619 617
f 661 620 622
f 662 621 619
f 661 622 624
f 662 623 621
f 661 624 626
f 662 625 623
f 661 626 628
f 662 627 625
f 661 628 630
f 662 629 627
f 661 630 632
f 662 631 629
f 661 632 634
f 662 633 631
f 661 634 636
f 662 635 633
f 661 636 638
f 662 637 635
f 661 638 640
f 662 639 637
f 661 640 642
f 662 641 639
f 661 642 644
f 662 643 641
f 661 644 646
f 662 645 643
f 661 646 648
f 662 647 645
f 661 648 650
f 662 649 647
f 661 650 652
f 662 651 649
f 661 652 654
f 662 653 651
f 661 654 656
f 662 655 653
f 661 656 658
f 662 657 655
f 661 658 660
f 662 659 657
f 661 660 498
f 662 497 659
f 663 665 666
f 663 666 664
f 665 667 668
f 665 668 666
f 667 669 670
f 667 670 668
f 669 671 672
f 669 672 670
f 671 673 674
f 671 674 672
f 673 675 676
f 673 676 674
f 675 677 678
f 675 678 676
f 677 679 680
f 677 680 678
f 679 681 682
f 679 682 680
f 681 683 684
f 681 684 682
f 683 685 686
f 683 686 684
f 685 687 688
f 685 688 686
f 687 689 690
f 687 690 688
f 689 691 692
f 689 692 690
f 691 693 694
f 691 694 692
f 693 695 696
f 693 696 694
f 695 697 698
f 695 698 696
f 697 699 700
f 697 700 698
f 699 701 702
f 699 702 700
f 701 703 704
f 701 704 702
f 703 705 706
f 703 706 704
f 705 707 708
f 705 708 706
f 707 709 710
f 707 710 708
f 709 711 712
f 709 712 710
f 711 713 714
f 711 714 712
f 713 715 716
f 713 716 714
f 715 717 718
f 715 718 716
f 717 719 720
f 717 720 718
f 719 721 722
f 719 722 720
f 721 723 724
f 721 724 722
f 723 725 726
f 723 726 724
f 725 727 728
f 725 728 726
f 727 729 730
f 727 730 728
f 729 731 732
f 729 732 730
f 731 733 734
f 731 734 732
f 733 735 736
f 733 736 734
f 735 737 738
f 735 738 736
f 737 739 740
f 737 740 738
f 739 741 742
f 739 742 740
f 741 743 744
f 741 744 742
f 743 745 746
f 743 746 744
f 745 663 664
f 745 664 746
f 747 664 666
f 748 665 663
f 747 666 668
f 748 667 665
f 747 668 670
f 748 669 667
f 747 670 672
f 748 671 669
f 747 672 674
f 748 673 671
f 747 674 676
f 748 675 673
f 747 676 678
f 748 677 675
f 747 678 680
f 748 679 677
f 747 680 682
f 748 681 679
f 747 682 684
f 748 683 681
f 747 684 686
f 748 685 683
f 747 686 688
f 748 687 685
f 747 688 690
f 748 689 687
f 747 690 692
f 748 691 689
f 747 692 694
f 748 693 691
f 747 694 696
f 748 695 693
f 747 696 698
f 748 697 695
f 747 698 700
f 748 699 697
f 747 700 702
f 748 701 699
f 747 702 704
f 748 703 701
f 747 704 706
f 748 705 703
f 747 706 708
f 748 707 705
f 747 708 710
f 748 709 707
f 747 710 712
f 748 711 709
f 747 712 714
f 748 713 711
f 747 714 716
f 748 715 713
f 747 716 718
f 748 717 715
f 747 718 720
f 748 719 717
f 747 720 722
f 748 721 719
f 747 722 724
f 748 723 721
f 747 724 726
f 748 725 723
f 747 726 728
f 748 727 725
f 747 728 730
f 748 729 727
f 747 730 732
f 748 731 729
f 747 732 734
f 748 733 731
f 747 734 736
f 748 735 733
f 747 736 738
f 748 737 735
f 747 738 740
f 748 739 737
f 747 740 742
f 748 741 739
f 747 742 744
f 748 743 741
f 747 744 746
f 748 745 743
f 747 746 664
f 748 663 745
