# 배식대 — 블록아웃 (예산 1500 tris)
# 삼각형 1488 · 조각 1
# 생성: tools/blockout — 손으로 고치지 말 것, 생성기를 고칠 것
g servingCounter
v -1.1000 0.7900 0.3750
v -1.1000 0.8071 0.3750
v -1.1000 0.8243 0.3750
v -1.1000 0.8414 0.3750
v -1.1000 0.8586 0.3750
v -1.1000 0.8757 0.3750
v -1.1000 0.8929 0.3750
v -1.1000 0.9100 0.3750
v -0.7857 0.7900 0.3750
v -0.7857 0.8071 0.3750
v -0.7857 0.8243 0.3750
v -0.7857 0.8414 0.3750
v -0.7857 0.8586 0.3750
v -0.7857 0.8757 0.3750
v -0.7857 0.8929 0.3750
v -0.7857 0.9100 0.3750
v -0.4714 0.7900 0.3750
v -0.4714 0.8071 0.3750
v -0.4714 0.8243 0.3750
v -0.4714 0.8414 0.3750
v -0.4714 0.8586 0.3750
v -0.4714 0.8757 0.3750
v -0.4714 0.8929 0.3750
v -0.4714 0.9100 0.3750
v -0.1571 0.7900 0.3750
v -0.1571 0.8071 0.3750
v -0.1571 0.8243 0.3750
v -0.1571 0.8414 0.3750
v -0.1571 0.8586 0.3750
v -0.1571 0.8757 0.3750
v -0.1571 0.8929 0.3750
v -0.1571 0.9100 0.3750
v 0.1571 0.7900 0.3750
v 0.1571 0.8071 0.3750
v 0.1571 0.8243 0.3750
v 0.1571 0.8414 0.3750
v 0.1571 0.8586 0.3750
v 0.1571 0.8757 0.3750
v 0.1571 0.8929 0.3750
v 0.1571 0.9100 0.3750
v 0.4714 0.7900 0.3750
v 0.4714 0.8071 0.3750
v 0.4714 0.8243 0.3750
v 0.4714 0.8414 0.3750
v 0.4714 0.8586 0.3750
v 0.4714 0.8757 0.3750
v 0.4714 0.8929 0.3750
v 0.4714 0.9100 0.3750
v 0.7857 0.7900 0.3750
v 0.7857 0.8071 0.3750
v 0.7857 0.8243 0.3750
v 0.7857 0.8414 0.3750
v 0.7857 0.8586 0.3750
v 0.7857 0.8757 0.3750
v 0.7857 0.8929 0.3750
v 0.7857 0.9100 0.3750
v 1.1000 0.7900 0.3750
v 1.1000 0.8071 0.3750
v 1.1000 0.8243 0.3750
v 1.1000 0.8414 0.3750
v 1.1000 0.8586 0.3750
v 1.1000 0.8757 0.3750
v 1.1000 0.8929 0.3750
v 1.1000 0.9100 0.3750
v 1.1000 0.7900 -0.3750
v 1.1000 0.8071 -0.3750
v 1.1000 0.8243 -0.3750
v 1.1000 0.8414 -0.3750
v 1.1000 0.8586 -0.3750
v 1.1000 0.8757 -0.3750
v 1.1000 0.8929 -0.3750
v 1.1000 0.9100 -0.3750
v 0.7857 0.7900 -0.3750
v 0.7857 0.8071 -0.3750
v 0.7857 0.8243 -0.3750
v 0.7857 0.8414 -0.3750
v 0.7857 0.8586 -0.3750
v 0.7857 0.8757 -0.3750
v 0.7857 0.8929 -0.3750
v 0.7857 0.9100 -0.3750
v 0.4714 0.7900 -0.3750
v 0.4714 0.8071 -0.3750
v 0.4714 0.8243 -0.3750
v 0.4714 0.8414 -0.3750
v 0.4714 0.8586 -0.3750
v 0.4714 0.8757 -0.3750
v 0.4714 0.8929 -0.3750
v 0.4714 0.9100 -0.3750
v 0.1571 0.7900 -0.3750
v 0.1571 0.8071 -0.3750
v 0.1571 0.8243 -0.3750
v 0.1571 0.8414 -0.3750
v 0.1571 0.8586 -0.3750
v 0.1571 0.8757 -0.3750
v 0.1571 0.8929 -0.3750
v 0.1571 0.9100 -0.3750
v -0.1571 0.7900 -0.3750
v -0.1571 0.8071 -0.3750
v -0.1571 0.8243 -0.3750
v -0.1571 0.8414 -0.3750
v -0.1571 0.8586 -0.3750
v -0.1571 0.8757 -0.3750
v -0.1571 0.8929 -0.3750
v -0.1571 0.9100 -0.3750
v -0.4714 0.7900 -0.3750
v -0.4714 0.8071 -0.3750
v -0.4714 0.8243 -0.3750
v -0.4714 0.8414 -0.3750
v -0.4714 0.8586 -0.3750
v -0.4714 0.8757 -0.3750
v -0.4714 0.8929 -0.3750
v -0.4714 0.9100 -0.3750
v -0.7857 0.7900 -0.3750
v -0.7857 0.8071 -0.3750
v -0.7857 0.8243 -0.3750
v -0.7857 0.8414 -0.3750
v -0.7857 0.8586 -0.3750
v -0.7857 0.8757 -0.3750
v -0.7857 0.8929 -0.3750
v -0.7857 0.9100 -0.3750
v -1.1000 0.7900 -0.3750
v -1.1000 0.8071 -0.3750
v -1.1000 0.8243 -0.3750
v -1.1000 0.8414 -0.3750
v -1.1000 0.8586 -0.3750
v -1.1000 0.8757 -0.3750
v -1.1000 0.8929 -0.3750
v -1.1000 0.9100 -0.3750
v -1.1000 0.7900 -0.3750
v -1.1000 0.8071 -0.3750
v -1.1000 0.8243 -0.3750
v -1.1000 0.8414 -0.3750
v -1.1000 0.8586 -0.3750
v -1.1000 0.8757 -0.3750
v -1.1000 0.8929 -0.3750
v -1.1000 0.9100 -0.3750
v -1.1000 0.7900 -0.2679
v -1.1000 0.8071 -0.2679
v -1.1000 0.8243 -0.2679
v -1.1000 0.8414 -0.2679
v -1.1000 0.8586 -0.2679
v -1.1000 0.8757 -0.2679
v -1.1000 0.8929 -0.2679
v -1.1000 0.9100 -0.2679
v -1.1000 0.7900 -0.1607
v -1.1000 0.8071 -0.1607
v -1.1000 0.8243 -0.1607
v -1.1000 0.8414 -0.1607
v -1.1000 0.8586 -0.1607
v -1.1000 0.8757 -0.1607
v -1.1000 0.8929 -0.1607
v -1.1000 0.9100 -0.1607
v -1.1000 0.7900 -0.0536
v -1.1000 0.8071 -0.0536
v -1.1000 0.8243 -0.0536
v -1.1000 0.8414 -0.0536
v -1.1000 0.8586 -0.0536
v -1.1000 0.8757 -0.0536
v -1.1000 0.8929 -0.0536
v -1.1000 0.9100 -0.0536
v -1.1000 0.7900 0.0536
v -1.1000 0.8071 0.0536
v -1.1000 0.8243 0.0536
v -1.1000 0.8414 0.0536
v -1.1000 0.8586 0.0536
v -1.1000 0.8757 0.0536
v -1.1000 0.8929 0.0536
v -1.1000 0.9100 0.0536
v -1.1000 0.7900 0.1607
v -1.1000 0.8071 0.1607
v -1.1000 0.8243 0.1607
v -1.1000 0.8414 0.1607
v -1.1000 0.8586 0.1607
v -1.1000 0.8757 0.1607
v -1.1000 0.8929 0.1607
v -1.1000 0.9100 0.1607
v -1.1000 0.7900 0.2679
v -1.1000 0.8071 0.2679
v -1.1000 0.8243 0.2679
v -1.1000 0.8414 0.2679
v -1.1000 0.8586 0.2679
v -1.1000 0.8757 0.2679
v -1.1000 0.8929 0.2679
v -1.1000 0.9100 0.2679
v -1.1000 0.7900 0.3750
v -1.1000 0.8071 0.3750
v -1.1000 0.8243 0.3750
v -1.1000 0.8414 0.3750
v -1.1000 0.8586 0.3750
v -1.1000 0.8757 0.3750
v -1.1000 0.8929 0.3750
v -1.1000 0.9100 0.3750
v 1.1000 0.7900 0.3750
v 1.1000 0.8071 0.3750
v 1.1000 0.8243 0.3750
v 1.1000 0.8414 0.3750
v 1.1000 0.8586 0.3750
v 1.1000 0.8757 0.3750
v 1.1000 0.8929 0.3750
v 1.1000 0.9100 0.3750
v 1.1000 0.7900 0.2679
v 1.1000 0.8071 0.2679
v 1.1000 0.8243 0.2679
v 1.1000 0.8414 0.2679
v 1.1000 0.8586 0.2679
v 1.1000 0.8757 0.2679
v 1.1000 0.8929 0.2679
v 1.1000 0.9100 0.2679
v 1.1000 0.7900 0.1607
v 1.1000 0.8071 0.1607
v 1.1000 0.8243 0.1607
v 1.1000 0.8414 0.1607
v 1.1000 0.8586 0.1607
v 1.1000 0.8757 0.1607
v 1.1000 0.8929 0.1607
v 1.1000 0.9100 0.1607
v 1.1000 0.7900 0.0536
v 1.1000 0.8071 0.0536
v 1.1000 0.8243 0.0536
v 1.1000 0.8414 0.0536
v 1.1000 0.8586 0.0536
v 1.1000 0.8757 0.0536
v 1.1000 0.8929 0.0536
v 1.1000 0.9100 0.0536
v 1.1000 0.7900 -0.0536
v 1.1000 0.8071 -0.0536
v 1.1000 0.8243 -0.0536
v 1.1000 0.8414 -0.0536
v 1.1000 0.8586 -0.0536
v 1.1000 0.8757 -0.0536
v 1.1000 0.8929 -0.0536
v 1.1000 0.9100 -0.0536
v 1.1000 0.7900 -0.1607
v 1.1000 0.8071 -0.1607
v 1.1000 0.8243 -0.1607
v 1.1000 0.8414 -0.1607
v 1.1000 0.8586 -0.1607
v 1.1000 0.8757 -0.1607
v 1.1000 0.8929 -0.1607
v 1.1000 0.9100 -0.1607
v 1.1000 0.7900 -0.2679
v 1.1000 0.8071 -0.2679
v 1.1000 0.8243 -0.2679
v 1.1000 0.8414 -0.2679
v 1.1000 0.8586 -0.2679
v 1.1000 0.8757 -0.2679
v 1.1000 0.8929 -0.2679
v 1.1000 0.9100 -0.2679
v 1.1000 0.7900 -0.3750
v 1.1000 0.8071 -0.3750
v 1.1000 0.8243 -0.3750
v 1.1000 0.8414 -0.3750
v 1.1000 0.8586 -0.3750
v 1.1000 0.8757 -0.3750
v 1.1000 0.8929 -0.3750
v 1.1000 0.9100 -0.3750
v -1.1000 0.9100 -0.3750
v -1.1000 0.9100 -0.2679
v -1.1000 0.9100 -0.1607
v -1.1000 0.9100 -0.0536
v -1.1000 0.9100 0.0536
v -1.1000 0.9100 0.1607
v -1.1000 0.9100 0.2679
v -1.1000 0.9100 0.3750
v -0.7857 0.9100 -0.3750
v -0.7857 0.9100 -0.2679
v -0.7857 0.9100 -0.1607
v -0.7857 0.9100 -0.0536
v -0.7857 0.9100 0.0536
v -0.7857 0.9100 0.1607
v -0.7857 0.9100 0.2679
v -0.7857 0.9100 0.3750
v -0.4714 0.9100 -0.3750
v -0.4714 0.9100 -0.2679
v -0.4714 0.9100 -0.1607
v -0.4714 0.9100 -0.0536
v -0.4714 0.9100 0.0536
v -0.4714 0.9100 0.1607
v -0.4714 0.9100 0.2679
v -0.4714 0.9100 0.3750
v -0.1571 0.9100 -0.3750
v -0.1571 0.9100 -0.2679
v -0.1571 0.9100 -0.1607
v -0.1571 0.9100 -0.0536
v -0.1571 0.9100 0.0536
v -0.1571 0.9100 0.1607
v -0.1571 0.9100 0.2679
v -0.1571 0.9100 0.3750
v 0.1571 0.9100 -0.3750
v 0.1571 0.9100 -0.2679
v 0.1571 0.9100 -0.1607
v 0.1571 0.9100 -0.0536
v 0.1571 0.9100 0.0536
v 0.1571 0.9100 0.1607
v 0.1571 0.9100 0.2679
v 0.1571 0.9100 0.3750
v 0.4714 0.9100 -0.3750
v 0.4714 0.9100 -0.2679
v 0.4714 0.9100 -0.1607
v 0.4714 0.9100 -0.0536
v 0.4714 0.9100 0.0536
v 0.4714 0.9100 0.1607
v 0.4714 0.9100 0.2679
v 0.4714 0.9100 0.3750
v 0.7857 0.9100 -0.3750
v 0.7857 0.9100 -0.2679
v 0.7857 0.9100 -0.1607
v 0.7857 0.9100 -0.0536
v 0.7857 0.9100 0.0536
v 0.7857 0.9100 0.1607
v 0.7857 0.9100 0.2679
v 0.7857 0.9100 0.3750
v 1.1000 0.9100 -0.3750
v 1.1000 0.9100 -0.2679
v 1.1000 0.9100 -0.1607
v 1.1000 0.9100 -0.0536
v 1.1000 0.9100 0.0536
v 1.1000 0.9100 0.1607
v 1.1000 0.9100 0.2679
v 1.1000 0.9100 0.3750
v -1.1000 0.7900 0.3750
v -1.1000 0.7900 0.2679
v -1.1000 0.7900 0.1607
v -1.1000 0.7900 0.0536
v -1.1000 0.7900 -0.0536
v -1.1000 0.7900 -0.1607
v -1.1000 0.7900 -0.2679
v -1.1000 0.7900 -0.3750
v -0.7857 0.7900 0.3750
v -0.7857 0.7900 0.2679
v -0.7857 0.7900 0.1607
v -0.7857 0.7900 0.0536
v -0.7857 0.7900 -0.0536
v -0.7857 0.7900 -0.1607
v -0.7857 0.7900 -0.2679
v -0.7857 0.7900 -0.3750
v -0.4714 0.7900 0.3750
v -0.4714 0.7900 0.2679
v -0.4714 0.7900 0.1607
v -0.4714 0.7900 0.0536
v -0.4714 0.7900 -0.0536
v -0.4714 0.7900 -0.1607
v -0.4714 0.7900 -0.2679
v -0.4714 0.7900 -0.3750
v -0.1571 0.7900 0.3750
v -0.1571 0.7900 0.2679
v -0.1571 0.7900 0.1607
v -0.1571 0.7900 0.0536
v -0.1571 0.7900 -0.0536
v -0.1571 0.7900 -0.1607
v -0.1571 0.7900 -0.2679
v -0.1571 0.7900 -0.3750
v 0.1571 0.7900 0.3750
v 0.1571 0.7900 0.2679
v 0.1571 0.7900 0.1607
v 0.1571 0.7900 0.0536
v 0.1571 0.7900 -0.0536
v 0.1571 0.7900 -0.1607
v 0.1571 0.7900 -0.2679
v 0.1571 0.7900 -0.3750
v 0.4714 0.7900 0.3750
v 0.4714 0.7900 0.2679
v 0.4714 0.7900 0.1607
v 0.4714 0.7900 0.0536
v 0.4714 0.7900 -0.0536
v 0.4714 0.7900 -0.1607
v 0.4714 0.7900 -0.2679
v 0.4714 0.7900 -0.3750
v 0.7857 0.7900 0.3750
v 0.7857 0.7900 0.2679
v 0.7857 0.7900 0.1607
v 0.7857 0.7900 0.0536
v 0.7857 0.7900 -0.0536
v 0.7857 0.7900 -0.1607
v 0.7857 0.7900 -0.2679
v 0.7857 0.7900 -0.3750
v 1.1000 0.7900 0.3750
v 1.1000 0.7900 0.2679
v 1.1000 0.7900 0.1607
v 1.1000 0.7900 0.0536
v 1.1000 0.7900 -0.0536
v 1.1000 0.7900 -0.1607
v 1.1000 0.7900 -0.2679
v 1.1000 0.7900 -0.3750
v -1.0500 -0.0050 0.0500
v -1.0500 0.1650 0.0500
v -1.0500 0.3350 0.0500
v -1.0500 0.5050 0.0500
v -1.0500 0.6750 0.0500
v -1.0500 0.8450 0.0500
v -1.0300 -0.0050 0.0500
v -1.0300 0.1650 0.0500
v -1.0300 0.3350 0.0500
v -1.0300 0.5050 0.0500
v -1.0300 0.6750 0.0500
v -1.0300 0.8450 0.0500
v -1.0100 -0.0050 0.0500
v -1.0100 0.1650 0.0500
v -1.0100 0.3350 0.0500
v -1.0100 0.5050 0.0500
v -1.0100 0.6750 0.0500
v -1.0100 0.8450 0.0500
v -0.9900 -0.0050 0.0500
v -0.9900 0.1650 0.0500
v -0.9900 0.3350 0.0500
v -0.9900 0.5050 0.0500
v -0.9900 0.6750 0.0500
v -0.9900 0.8450 0.0500
v -0.9700 -0.0050 0.0500
v -0.9700 0.1650 0.0500
v -0.9700 0.3350 0.0500
v -0.9700 0.5050 0.0500
v -0.9700 0.6750 0.0500
v -0.9700 0.8450 0.0500
v -0.9500 -0.0050 0.0500
v -0.9500 0.1650 0.0500
v -0.9500 0.3350 0.0500
v -0.9500 0.5050 0.0500
v -0.9500 0.6750 0.0500
v -0.9500 0.8450 0.0500
v -0.9500 -0.0050 -0.0500
v -0.9500 0.1650 -0.0500
v -0.9500 0.3350 -0.0500
v -0.9500 0.5050 -0.0500
v -0.9500 0.6750 -0.0500
v -0.9500 0.8450 -0.0500
v -0.9700 -0.0050 -0.0500
v -0.9700 0.1650 -0.0500
v -0.9700 0.3350 -0.0500
v -0.9700 0.5050 -0.0500
v -0.9700 0.6750 -0.0500
v -0.9700 0.8450 -0.0500
v -0.9900 -0.0050 -0.0500
v -0.9900 0.1650 -0.0500
v -0.9900 0.3350 -0.0500
v -0.9900 0.5050 -0.0500
v -0.9900 0.6750 -0.0500
v -0.9900 0.8450 -0.0500
v -1.0100 -0.0050 -0.0500
v -1.0100 0.1650 -0.0500
v -1.0100 0.3350 -0.0500
v -1.0100 0.5050 -0.0500
v -1.0100 0.6750 -0.0500
v -1.0100 0.8450 -0.0500
v -1.0300 -0.0050 -0.0500
v -1.0300 0.1650 -0.0500
v -1.0300 0.3350 -0.0500
v -1.0300 0.5050 -0.0500
v -1.0300 0.6750 -0.0500
v -1.0300 0.8450 -0.0500
v -1.0500 -0.0050 -0.0500
v -1.0500 0.1650 -0.0500
v -1.0500 0.3350 -0.0500
v -1.0500 0.5050 -0.0500
v -1.0500 0.6750 -0.0500
v -1.0500 0.8450 -0.0500
v -1.0500 -0.0050 -0.0500
v -1.0500 0.1650 -0.0500
v -1.0500 0.3350 -0.0500
v -1.0500 0.5050 -0.0500
v -1.0500 0.6750 -0.0500
v -1.0500 0.8450 -0.0500
v -1.0500 -0.0050 -0.0300
v -1.0500 0.1650 -0.0300
v -1.0500 0.3350 -0.0300
v -1.0500 0.5050 -0.0300
v -1.0500 0.6750 -0.0300
v -1.0500 0.8450 -0.0300
v -1.0500 -0.0050 -0.0100
v -1.0500 0.1650 -0.0100
v -1.0500 0.3350 -0.0100
v -1.0500 0.5050 -0.0100
v -1.0500 0.6750 -0.0100
v -1.0500 0.8450 -0.0100
v -1.0500 -0.0050 0.0100
v -1.0500 0.1650 0.0100
v -1.0500 0.3350 0.0100
v -1.0500 0.5050 0.0100
v -1.0500 0.6750 0.0100
v -1.0500 0.8450 0.0100
v -1.0500 -0.0050 0.0300
v -1.0500 0.1650 0.0300
v -1.0500 0.3350 0.0300
v -1.0500 0.5050 0.0300
v -1.0500 0.6750 0.0300
v -1.0500 0.8450 0.0300
v -1.0500 -0.0050 0.0500
v -1.0500 0.1650 0.0500
v -1.0500 0.3350 0.0500
v -1.0500 0.5050 0.0500
v -1.0500 0.6750 0.0500
v -1.0500 0.8450 0.0500
v -0.9500 -0.0050 0.0500
v -0.9500 0.1650 0.0500
v -0.9500 0.3350 0.0500
v -0.9500 0.5050 0.0500
v -0.9500 0.6750 0.0500
v -0.9500 0.8450 0.0500
v -0.9500 -0.0050 0.0300
v -0.9500 0.1650 0.0300
v -0.9500 0.3350 0.0300
v -0.9500 0.5050 0.0300
v -0.9500 0.6750 0.0300
v -0.9500 0.8450 0.0300
v -0.9500 -0.0050 0.0100
v -0.9500 0.1650 0.0100
v -0.9500 0.3350 0.0100
v -0.9500 0.5050 0.0100
v -0.9500 0.6750 0.0100
v -0.9500 0.8450 0.0100
v -0.9500 -0.0050 -0.0100
v -0.9500 0.1650 -0.0100
v -0.9500 0.3350 -0.0100
v -0.9500 0.5050 -0.0100
v -0.9500 0.6750 -0.0100
v -0.9500 0.8450 -0.0100
v -0.9500 -0.0050 -0.0300
v -0.9500 0.1650 -0.0300
v -0.9500 0.3350 -0.0300
v -0.9500 0.5050 -0.0300
v -0.9500 0.6750 -0.0300
v -0.9500 0.8450 -0.0300
v -0.9500 -0.0050 -0.0500
v -0.9500 0.1650 -0.0500
v -0.9500 0.3350 -0.0500
v -0.9500 0.5050 -0.0500
v -0.9500 0.6750 -0.0500
v -0.9500 0.8450 -0.0500
v -1.0500 0.8450 -0.0500
v -1.0500 0.8450 -0.0300
v -1.0500 0.8450 -0.0100
v -1.0500 0.8450 0.0100
v -1.0500 0.8450 0.0300
v -1.0500 0.8450 0.0500
v -1.0300 0.8450 -0.0500
v -1.0300 0.8450 -0.0300
v -1.0300 0.8450 -0.0100
v -1.0300 0.8450 0.0100
v -1.0300 0.8450 0.0300
v -1.0300 0.8450 0.0500
v -1.0100 0.8450 -0.0500
v -1.0100 0.8450 -0.0300
v -1.0100 0.8450 -0.0100
v -1.0100 0.8450 0.0100
v -1.0100 0.8450 0.0300
v -1.0100 0.8450 0.0500
v -0.9900 0.8450 -0.0500
v -0.9900 0.8450 -0.0300
v -0.9900 0.8450 -0.0100
v -0.9900 0.8450 0.0100
v -0.9900 0.8450 0.0300
v -0.9900 0.8450 0.0500
v -0.9700 0.8450 -0.0500
v -0.9700 0.8450 -0.0300
v -0.9700 0.8450 -0.0100
v -0.9700 0.8450 0.0100
v -0.9700 0.8450 0.0300
v -0.9700 0.8450 0.0500
v -0.9500 0.8450 -0.0500
v -0.9500 0.8450 -0.0300
v -0.9500 0.8450 -0.0100
v -0.9500 0.8450 0.0100
v -0.9500 0.8450 0.0300
v -0.9500 0.8450 0.0500
v -1.0500 -0.0050 0.0500
v -1.0500 -0.0050 0.0300
v -1.0500 -0.0050 0.0100
v -1.0500 -0.0050 -0.0100
v -1.0500 -0.0050 -0.0300
v -1.0500 -0.0050 -0.0500
v -1.0300 -0.0050 0.0500
v -1.0300 -0.0050 0.0300
v -1.0300 -0.0050 0.0100
v -1.0300 -0.0050 -0.0100
v -1.0300 -0.0050 -0.0300
v -1.0300 -0.0050 -0.0500
v -1.0100 -0.0050 0.0500
v -1.0100 -0.0050 0.0300
v -1.0100 -0.0050 0.0100
v -1.0100 -0.0050 -0.0100
v -1.0100 -0.0050 -0.0300
v -1.0100 -0.0050 -0.0500
v -0.9900 -0.0050 0.0500
v -0.9900 -0.0050 0.0300
v -0.9900 -0.0050 0.0100
v -0.9900 -0.0050 -0.0100
v -0.9900 -0.0050 -0.0300
v -0.9900 -0.0050 -0.0500
v -0.9700 -0.0050 0.0500
v -0.9700 -0.0050 0.0300
v -0.9700 -0.0050 0.0100
v -0.9700 -0.0050 -0.0100
v -0.9700 -0.0050 -0.0300
v -0.9700 -0.0050 -0.0500
v -0.9500 -0.0050 0.0500
v -0.9500 -0.0050 0.0300
v -0.9500 -0.0050 0.0100
v -0.9500 -0.0050 -0.0100
v -0.9500 -0.0050 -0.0300
v -0.9500 -0.0050 -0.0500
v 0.9500 -0.0050 0.0500
v 0.9500 0.1650 0.0500
v 0.9500 0.3350 0.0500
v 0.9500 0.5050 0.0500
v 0.9500 0.6750 0.0500
v 0.9500 0.8450 0.0500
v 0.9700 -0.0050 0.0500
v 0.9700 0.1650 0.0500
v 0.9700 0.3350 0.0500
v 0.9700 0.5050 0.0500
v 0.9700 0.6750 0.0500
v 0.9700 0.8450 0.0500
v 0.9900 -0.0050 0.0500
v 0.9900 0.1650 0.0500
v 0.9900 0.3350 0.0500
v 0.9900 0.5050 0.0500
v 0.9900 0.6750 0.0500
v 0.9900 0.8450 0.0500
v 1.0100 -0.0050 0.0500
v 1.0100 0.1650 0.0500
v 1.0100 0.3350 0.0500
v 1.0100 0.5050 0.0500
v 1.0100 0.6750 0.0500
v 1.0100 0.8450 0.0500
v 1.0300 -0.0050 0.0500
v 1.0300 0.1650 0.0500
v 1.0300 0.3350 0.0500
v 1.0300 0.5050 0.0500
v 1.0300 0.6750 0.0500
v 1.0300 0.8450 0.0500
v 1.0500 -0.0050 0.0500
v 1.0500 0.1650 0.0500
v 1.0500 0.3350 0.0500
v 1.0500 0.5050 0.0500
v 1.0500 0.6750 0.0500
v 1.0500 0.8450 0.0500
v 1.0500 -0.0050 -0.0500
v 1.0500 0.1650 -0.0500
v 1.0500 0.3350 -0.0500
v 1.0500 0.5050 -0.0500
v 1.0500 0.6750 -0.0500
v 1.0500 0.8450 -0.0500
v 1.0300 -0.0050 -0.0500
v 1.0300 0.1650 -0.0500
v 1.0300 0.3350 -0.0500
v 1.0300 0.5050 -0.0500
v 1.0300 0.6750 -0.0500
v 1.0300 0.8450 -0.0500
v 1.0100 -0.0050 -0.0500
v 1.0100 0.1650 -0.0500
v 1.0100 0.3350 -0.0500
v 1.0100 0.5050 -0.0500
v 1.0100 0.6750 -0.0500
v 1.0100 0.8450 -0.0500
v 0.9900 -0.0050 -0.0500
v 0.9900 0.1650 -0.0500
v 0.9900 0.3350 -0.0500
v 0.9900 0.5050 -0.0500
v 0.9900 0.6750 -0.0500
v 0.9900 0.8450 -0.0500
v 0.9700 -0.0050 -0.0500
v 0.9700 0.1650 -0.0500
v 0.9700 0.3350 -0.0500
v 0.9700 0.5050 -0.0500
v 0.9700 0.6750 -0.0500
v 0.9700 0.8450 -0.0500
v 0.9500 -0.0050 -0.0500
v 0.9500 0.1650 -0.0500
v 0.9500 0.3350 -0.0500
v 0.9500 0.5050 -0.0500
v 0.9500 0.6750 -0.0500
v 0.9500 0.8450 -0.0500
v 0.9500 -0.0050 -0.0500
v 0.9500 0.1650 -0.0500
v 0.9500 0.3350 -0.0500
v 0.9500 0.5050 -0.0500
v 0.9500 0.6750 -0.0500
v 0.9500 0.8450 -0.0500
v 0.9500 -0.0050 -0.0300
v 0.9500 0.1650 -0.0300
v 0.9500 0.3350 -0.0300
v 0.9500 0.5050 -0.0300
v 0.9500 0.6750 -0.0300
v 0.9500 0.8450 -0.0300
v 0.9500 -0.0050 -0.0100
v 0.9500 0.1650 -0.0100
v 0.9500 0.3350 -0.0100
v 0.9500 0.5050 -0.0100
v 0.9500 0.6750 -0.0100
v 0.9500 0.8450 -0.0100
v 0.9500 -0.0050 0.0100
v 0.9500 0.1650 0.0100
v 0.9500 0.3350 0.0100
v 0.9500 0.5050 0.0100
v 0.9500 0.6750 0.0100
v 0.9500 0.8450 0.0100
v 0.9500 -0.0050 0.0300
v 0.9500 0.1650 0.0300
v 0.9500 0.3350 0.0300
v 0.9500 0.5050 0.0300
v 0.9500 0.6750 0.0300
v 0.9500 0.8450 0.0300
v 0.9500 -0.0050 0.0500
v 0.9500 0.1650 0.0500
v 0.9500 0.3350 0.0500
v 0.9500 0.5050 0.0500
v 0.9500 0.6750 0.0500
v 0.9500 0.8450 0.0500
v 1.0500 -0.0050 0.0500
v 1.0500 0.1650 0.0500
v 1.0500 0.3350 0.0500
v 1.0500 0.5050 0.0500
v 1.0500 0.6750 0.0500
v 1.0500 0.8450 0.0500
v 1.0500 -0.0050 0.0300
v 1.0500 0.1650 0.0300
v 1.0500 0.3350 0.0300
v 1.0500 0.5050 0.0300
v 1.0500 0.6750 0.0300
v 1.0500 0.8450 0.0300
v 1.0500 -0.0050 0.0100
v 1.0500 0.1650 0.0100
v 1.0500 0.3350 0.0100
v 1.0500 0.5050 0.0100
v 1.0500 0.6750 0.0100
v 1.0500 0.8450 0.0100
v 1.0500 -0.0050 -0.0100
v 1.0500 0.1650 -0.0100
v 1.0500 0.3350 -0.0100
v 1.0500 0.5050 -0.0100
v 1.0500 0.6750 -0.0100
v 1.0500 0.8450 -0.0100
v 1.0500 -0.0050 -0.0300
v 1.0500 0.1650 -0.0300
v 1.0500 0.3350 -0.0300
v 1.0500 0.5050 -0.0300
v 1.0500 0.6750 -0.0300
v 1.0500 0.8450 -0.0300
v 1.0500 -0.0050 -0.0500
v 1.0500 0.1650 -0.0500
v 1.0500 0.3350 -0.0500
v 1.0500 0.5050 -0.0500
v 1.0500 0.6750 -0.0500
v 1.0500 0.8450 -0.0500
v 0.9500 0.8450 -0.0500
v 0.9500 0.8450 -0.0300
v 0.9500 0.8450 -0.0100
v 0.9500 0.8450 0.0100
v 0.9500 0.8450 0.0300
v 0.9500 0.8450 0.0500
v 0.9700 0.8450 -0.0500
v 0.9700 0.8450 -0.0300
v 0.9700 0.8450 -0.0100
v 0.9700 0.8450 0.0100
v 0.9700 0.8450 0.0300
v 0.9700 0.8450 0.0500
v 0.9900 0.8450 -0.0500
v 0.9900 0.8450 -0.0300
v 0.9900 0.8450 -0.0100
v 0.9900 0.8450 0.0100
v 0.9900 0.8450 0.0300
v 0.9900 0.8450 0.0500
v 1.0100 0.8450 -0.0500
v 1.0100 0.8450 -0.0300
v 1.0100 0.8450 -0.0100
v 1.0100 0.8450 0.0100
v 1.0100 0.8450 0.0300
v 1.0100 0.8450 0.0500
v 1.0300 0.8450 -0.0500
v 1.0300 0.8450 -0.0300
v 1.0300 0.8450 -0.0100
v 1.0300 0.8450 0.0100
v 1.0300 0.8450 0.0300
v 1.0300 0.8450 0.0500
v 1.0500 0.8450 -0.0500
v 1.0500 0.8450 -0.0300
v 1.0500 0.8450 -0.0100
v 1.0500 0.8450 0.0100
v 1.0500 0.8450 0.0300
v 1.0500 0.8450 0.0500
v 0.9500 -0.0050 0.0500
v 0.9500 -0.0050 0.0300
v 0.9500 -0.0050 0.0100
v 0.9500 -0.0050 -0.0100
v 0.9500 -0.0050 -0.0300
v 0.9500 -0.0050 -0.0500
v 0.9700 -0.0050 0.0500
v 0.9700 -0.0050 0.0300
v 0.9700 -0.0050 0.0100
v 0.9700 -0.0050 -0.0100
v 0.9700 -0.0050 -0.0300
v 0.9700 -0.0050 -0.0500
v 0.9900 -0.0050 0.0500
v 0.9900 -0.0050 0.0300
v 0.9900 -0.0050 0.0100
v 0.9900 -0.0050 -0.0100
v 0.9900 -0.0050 -0.0300
v 0.9900 -0.0050 -0.0500
v 1.0100 -0.0050 0.0500
v 1.0100 -0.0050 0.0300
v 1.0100 -0.0050 0.0100
v 1.0100 -0.0050 -0.0100
v 1.0100 -0.0050 -0.0300
v 1.0100 -0.0050 -0.0500
v 1.0300 -0.0050 0.0500
v 1.0300 -0.0050 0.0300
v 1.0300 -0.0050 0.0100
v 1.0300 -0.0050 -0.0100
v 1.0300 -0.0050 -0.0300
v 1.0300 -0.0050 -0.0500
v 1.0500 -0.0050 0.0500
v 1.0500 -0.0050 0.0300
v 1.0500 -0.0050 0.0100
v 1.0500 -0.0050 -0.0100
v 1.0500 -0.0050 -0.0300
v 1.0500 -0.0050 -0.0500
v -1.0000 0.9250 -0.2700
v -1.0000 0.9750 -0.2700
v -1.0000 1.0250 -0.2700
v -1.0000 1.0750 -0.2700
v -1.0000 1.1250 -0.2700
v -1.0000 1.1750 -0.2700
v -0.6000 0.9250 -0.2700
v -0.6000 0.9750 -0.2700
v -0.6000 1.0250 -0.2700
v -0.6000 1.0750 -0.2700
v -0.6000 1.1250 -0.2700
v -0.6000 1.1750 -0.2700
v -0.2000 0.9250 -0.2700
v -0.2000 0.9750 -0.2700
v -0.2000 1.0250 -0.2700
v -0.2000 1.0750 -0.2700
v -0.2000 1.1250 -0.2700
v -0.2000 1.1750 -0.2700
v 0.2000 0.9250 -0.2700
v 0.2000 0.9750 -0.2700
v 0.2000 1.0250 -0.2700
v 0.2000 1.0750 -0.2700
v 0.2000 1.1250 -0.2700
v 0.2000 1.1750 -0.2700
v 0.6000 0.9250 -0.2700
v 0.6000 0.9750 -0.2700
v 0.6000 1.0250 -0.2700
v 0.6000 1.0750 -0.2700
v 0.6000 1.1250 -0.2700
v 0.6000 1.1750 -0.2700
v 1.0000 0.9250 -0.2700
v 1.0000 0.9750 -0.2700
v 1.0000 1.0250 -0.2700
v 1.0000 1.0750 -0.2700
v 1.0000 1.1250 -0.2700
v 1.0000 1.1750 -0.2700
v 1.0000 0.9250 -0.3300
v 1.0000 0.9750 -0.3300
v 1.0000 1.0250 -0.3300
v 1.0000 1.0750 -0.3300
v 1.0000 1.1250 -0.3300
v 1.0000 1.1750 -0.3300
v 0.6000 0.9250 -0.3300
v 0.6000 0.9750 -0.3300
v 0.6000 1.0250 -0.3300
v 0.6000 1.0750 -0.3300
v 0.6000 1.1250 -0.3300
v 0.6000 1.1750 -0.3300
v 0.2000 0.9250 -0.3300
v 0.2000 0.9750 -0.3300
v 0.2000 1.0250 -0.3300
v 0.2000 1.0750 -0.3300
v 0.2000 1.1250 -0.3300
v 0.2000 1.1750 -0.3300
v -0.2000 0.9250 -0.3300
v -0.2000 0.9750 -0.3300
v -0.2000 1.0250 -0.3300
v -0.2000 1.0750 -0.3300
v -0.2000 1.1250 -0.3300
v -0.2000 1.1750 -0.3300
v -0.6000 0.9250 -0.3300
v -0.6000 0.9750 -0.3300
v -0.6000 1.0250 -0.3300
v -0.6000 1.0750 -0.3300
v -0.6000 1.1250 -0.3300
v -0.6000 1.1750 -0.3300
v -1.0000 0.9250 -0.3300
v -1.0000 0.9750 -0.3300
v -1.0000 1.0250 -0.3300
v -1.0000 1.0750 -0.3300
v -1.0000 1.1250 -0.3300
v -1.0000 1.1750 -0.3300
v -1.0000 0.9250 -0.3300
v -1.0000 0.9750 -0.3300
v -1.0000 1.0250 -0.3300
v -1.0000 1.0750 -0.3300
v -1.0000 1.1250 -0.3300
v -1.0000 1.1750 -0.3300
v -1.0000 0.9250 -0.3180
v -1.0000 0.9750 -0.3180
v -1.0000 1.0250 -0.3180
v -1.0000 1.0750 -0.3180
v -1.0000 1.1250 -0.3180
v -1.0000 1.1750 -0.3180
v -1.0000 0.9250 -0.3060
v -1.0000 0.9750 -0.3060
v -1.0000 1.0250 -0.3060
v -1.0000 1.0750 -0.3060
v -1.0000 1.1250 -0.3060
v -1.0000 1.1750 -0.3060
v -1.0000 0.9250 -0.2940
v -1.0000 0.9750 -0.2940
v -1.0000 1.0250 -0.2940
v -1.0000 1.0750 -0.2940
v -1.0000 1.1250 -0.2940
v -1.0000 1.1750 -0.2940
v -1.0000 0.9250 -0.2820
v -1.0000 0.9750 -0.2820
v -1.0000 1.0250 -0.2820
v -1.0000 1.0750 -0.2820
v -1.0000 1.1250 -0.2820
v -1.0000 1.1750 -0.2820
v -1.0000 0.9250 -0.2700
v -1.0000 0.9750 -0.2700
v -1.0000 1.0250 -0.2700
v -1.0000 1.0750 -0.2700
v -1.0000 1.1250 -0.2700
v -1.0000 1.1750 -0.2700
v 1.0000 0.9250 -0.2700
v 1.0000 0.9750 -0.2700
v 1.0000 1.0250 -0.2700
v 1.0000 1.0750 -0.2700
v 1.0000 1.1250 -0.2700
v 1.0000 1.1750 -0.2700
v 1.0000 0.9250 -0.2820
v 1.0000 0.9750 -0.2820
v 1.0000 1.0250 -0.2820
v 1.0000 1.0750 -0.2820
v 1.0000 1.1250 -0.2820
v 1.0000 1.1750 -0.2820
v 1.0000 0.9250 -0.2940
v 1.0000 0.9750 -0.2940
v 1.0000 1.0250 -0.2940
v 1.0000 1.0750 -0.2940
v 1.0000 1.1250 -0.2940
v 1.0000 1.1750 -0.2940
v 1.0000 0.9250 -0.3060
v 1.0000 0.9750 -0.3060
v 1.0000 1.0250 -0.3060
v 1.0000 1.0750 -0.3060
v 1.0000 1.1250 -0.3060
v 1.0000 1.1750 -0.3060
v 1.0000 0.9250 -0.3180
v 1.0000 0.9750 -0.3180
v 1.0000 1.0250 -0.3180
v 1.0000 1.0750 -0.3180
v 1.0000 1.1250 -0.3180
v 1.0000 1.1750 -0.3180
v 1.0000 0.9250 -0.3300
v 1.0000 0.9750 -0.3300
v 1.0000 1.0250 -0.3300
v 1.0000 1.0750 -0.3300
v 1.0000 1.1250 -0.3300
v 1.0000 1.1750 -0.3300
v -1.0000 1.1750 -0.3300
v -1.0000 1.1750 -0.3180
v -1.0000 1.1750 -0.3060
v -1.0000 1.1750 -0.2940
v -1.0000 1.1750 -0.2820
v -1.0000 1.1750 -0.2700
v -0.6000 1.1750 -0.3300
v -0.6000 1.1750 -0.3180
v -0.6000 1.1750 -0.3060
v -0.6000 1.1750 -0.2940
v -0.6000 1.1750 -0.2820
v -0.6000 1.1750 -0.2700
v -0.2000 1.1750 -0.3300
v -0.2000 1.1750 -0.3180
v -0.2000 1.1750 -0.3060
v -0.2000 1.1750 -0.2940
v -0.2000 1.1750 -0.2820
v -0.2000 1.1750 -0.2700
v 0.2000 1.1750 -0.3300
v 0.2000 1.1750 -0.3180
v 0.2000 1.1750 -0.3060
v 0.2000 1.1750 -0.2940
v 0.2000 1.1750 -0.2820
v 0.2000 1.1750 -0.2700
v 0.6000 1.1750 -0.3300
v 0.6000 1.1750 -0.3180
v 0.6000 1.1750 -0.3060
v 0.6000 1.1750 -0.2940
v 0.6000 1.1750 -0.2820
v 0.6000 1.1750 -0.2700
v 1.0000 1.1750 -0.3300
v 1.0000 1.1750 -0.3180
v 1.0000 1.1750 -0.3060
v 1.0000 1.1750 -0.2940
v 1.0000 1.1750 -0.2820
v 1.0000 1.1750 -0.2700
v -1.0000 0.9250 -0.2700
v -1.0000 0.9250 -0.2820
v -1.0000 0.9250 -0.2940
v -1.0000 0.9250 -0.3060
v -1.0000 0.9250 -0.3180
v -1.0000 0.9250 -0.3300
v -0.6000 0.9250 -0.2700
v -0.6000 0.9250 -0.2820
v -0.6000 0.9250 -0.2940
v -0.6000 0.9250 -0.3060
v -0.6000 0.9250 -0.3180
v -0.6000 0.9250 -0.3300
v -0.2000 0.9250 -0.2700
v -0.2000 0.9250 -0.2820
v -0.2000 0.9250 -0.2940
v -0.2000 0.9250 -0.3060
v -0.2000 0.9250 -0.3180
v -0.2000 0.9250 -0.3300
v 0.2000 0.9250 -0.2700
v 0.2000 0.9250 -0.2820
v 0.2000 0.9250 -0.2940
v 0.2000 0.9250 -0.3060
v 0.2000 0.9250 -0.3180
v 0.2000 0.9250 -0.3300
v 0.6000 0.9250 -0.2700
v 0.6000 0.9250 -0.2820
v 0.6000 0.9250 -0.2940
v 0.6000 0.9250 -0.3060
v 0.6000 0.9250 -0.3180
v 0.6000 0.9250 -0.3300
v 1.0000 0.9250 -0.2700
v 1.0000 0.9250 -0.2820
v 1.0000 0.9250 -0.2940
v 1.0000 0.9250 -0.3060
v 1.0000 0.9250 -0.3180
v 1.0000 0.9250 -0.3300
f 1 2 10
f 1 10 9
f 2 3 11
f 2 11 10
f 3 4 12
f 3 12 11
f 4 5 13
f 4 13 12
f 5 6 14
f 5 14 13
f 6 7 15
f 6 15 14
f 7 8 16
f 7 16 15
f 9 10 18
f 9 18 17
f 10 11 19
f 10 19 18
f 11 12 20
f 11 20 19
f 12 13 21
f 12 21 20
f 13 14 22
f 13 22 21
f 14 15 23
f 14 23 22
f 15 16 24
f 15 24 23
f 17 18 26
f 17 26 25
f 18 19 27
f 18 27 26
f 19 20 28
f 19 28 27
f 20 21 29
f 20 29 28
f 21 22 30
f 21 30 29
f 22 23 31
f 22 31 30
f 23 24 32
f 23 32 31
f 25 26 34
f 25 34 33
f 26 27 35
f 26 35 34
f 27 28 36
f 27 36 35
f 28 29 37
f 28 37 36
f 29 30 38
f 29 38 37
f 30 31 39
f 30 39 38
f 31 32 40
f 31 40 39
f 33 34 42
f 33 42 41
f 34 35 43
f 34 43 42
f 35 36 44
f 35 44 43
f 36 37 45
f 36 45 44
f 37 38 46
f 37 46 45
f 38 39 47
f 38 47 46
f 39 40 48
f 39 48 47
f 41 42 50
f 41 50 49
f 42 43 51
f 42 51 50
f 43 44 52
f 43 52 51
f 44 45 53
f 44 53 52
f 45 46 54
f 45 54 53
f 46 47 55
f 46 55 54
f 47 48 56
f 47 56 55
f 49 50 58
f 49 58 57
f 50 51 59
f 50 59 58
f 51 52 60
f 51 60 59
f 52 53 61
f 52 61 60
f 53 54 62
f 53 62 61
f 54 55 63
f 54 63 62
f 55 56 64
f 55 64 63
f 65 66 74
f 65 74 73
f 66 67 75
f 66 75 74
f 67 68 76
f 67 76 75
f 68 69 77
f 68 77 76
f 69 70 78
f 69 78 77
f 70 71 79
f 70 79 78
f 71 72 80
f 71 80 79
f 73 74 82
f 73 82 81
f 74 75 83
f 74 83 82
f 75 76 84
f 75 84 83
f 76 77 85
f 76 85 84
f 77 78 86
f 77 86 85
f 78 79 87
f 78 87 86
f 79 80 88
f 79 88 87
f 81 82 90
f 81 90 89
f 82 83 91
f 82 91 90
f 83 84 92
f 83 92 91
f 84 85 93
f 84 93 92
f 85 86 94
f 85 94 93
f 86 87 95
f 86 95 94
f 87 88 96
f 87 96 95
f 89 90 98
f 89 98 97
f 90 91 99
f 90 99 98
f 91 92 100
f 91 100 99
f 92 93 101
f 92 101 100
f 93 94 102
f 93 102 101
f 94 95 103
f 94 103 102
f 95 96 104
f 95 104 103
f 97 98 106
f 97 106 105
f 98 99 107
f 98 107 106
f 99 100 108
f 99 108 107
f 100 101 109
f 100 109 108
f 101 102 110
f 101 110 109
f 102 103 111
f 102 111 110
f 103 104 112
f 103 112 111
f 105 106 114
f 105 114 113
f 106 107 115
f 106 115 114
f 107 108 116
f 107 116 115
f 108 109 117
f 108 117 116
f 109 110 118
f 109 118 117
f 110 111 119
f 110 119 118
f 111 112 120
f 111 120 119
f 113 114 122
f 113 122 121
f 114 115 123
f 114 123 122
f 115 116 124
f 115 124 123
f 116 117 125
f 116 125 124
f 117 118 126
f 117 126 125
f 118 119 127
f 118 127 126
f 119 120 128
f 119 128 127
f 129 130 138
f 129 138 137
f 130 131 139
f 130 139 138
f 131 132 140
f 131 140 139
f 132 133 141
f 132 141 140
f 133 134 142
f 133 142 141
f 134 135 143
f 134 143 142
f 135 136 144
f 135 144 143
f 137 138 146
f 137 146 145
f 138 139 147
f 138 147 146
f 139 140 148
f 139 148 147
f 140 141 149
f 140 149 148
f 141 142 150
f 141 150 149
f 142 143 151
f 142 151 150
f 143 144 152
f 143 152 151
f 145 146 154
f 145 154 153
f 146 147 155
f 146 155 154
f 147 148 156
f 147 156 155
f 148 149 157
f 148 157 156
f 149 150 158
f 149 158 157
f 150 151 159
f 150 159 158
f 151 152 160
f 151 160 159
f 153 154 162
f 153 162 161
f 154 155 163
f 154 163 162
f 155 156 164
f 155 164 163
f 156 157 165
f 156 165 164
f 157 158 166
f 157 166 165
f 158 159 167
f 158 167 166
f 159 160 168
f 159 168 167
f 161 162 170
f 161 170 169
f 162 163 171
f 162 171 170
f 163 164 172
f 163 172 171
f 164 165 173
f 164 173 172
f 165 166 174
f 165 174 173
f 166 167 175
f 166 175 174
f 167 168 176
f 167 176 175
f 169 170 178
f 169 178 177
f 170 171 179
f 170 179 178
f 171 172 180
f 171 180 179
f 172 173 181
f 172 181 180
f 173 174 182
f 173 182 181
f 174 175 183
f 174 183 182
f 175 176 184
f 175 184 183
f 177 178 186
f 177 186 185
f 178 179 187
f 178 187 186
f 179 180 188
f 179 188 187
f 180 181 189
f 180 189 188
f 181 182 190
f 181 190 189
f 182 183 191
f 182 191 190
f 183 184 192
f 183 192 191
f 193 194 202
f 193 202 201
f 194 195 203
f 194 203 202
f 195 196 204
f 195 204 203
f 196 197 205
f 196 205 204
f 197 198 206
f 197 206 205
f 198 199 207
f 198 207 206
f 199 200 208
f 199 208 207
f 201 202 210
f 201 210 209
f 202 203 211
f 202 211 210
f 203 204 212
f 203 212 211
f 204 205 213
f 204 213 212
f 205 206 214
f 205 214 213
f 206 207 215
f 206 215 214
f 207 208 216
f 207 216 215
f 209 210 218
f 209 218 217
f 210 211 219
f 210 219 218
f 211 212 220
f 211 220 219
f 212 213 221
f 212 221 220
f 213 214 222
f 213 222 221
f 214 215 223
f 214 223 222
f 215 216 224
f 215 224 223
f 217 218 226
f 217 226 225
f 218 219 227
f 218 227 226
f 219 220 228
f 219 228 227
f 220 221 229
f 220 229 228
f 221 222 230
f 221 230 229
f 222 223 231
f 222 231 230
f 223 224 232
f 223 232 231
f 225 226 234
f 225 234 233
f 226 227 235
f 226 235 234
f 227 228 236
f 227 236 235
f 228 229 237
f 228 237 236
f 229 230 238
f 229 238 237
f 230 231 239
f 230 239 238
f 231 232 240
f 231 240 239
f 233 234 242
f 233 242 241
f 234 235 243
f 234 243 242
f 235 236 244
f 235 244 243
f 236 237 245
f 236 245 244
f 237 238 246
f 237 246 245
f 238 239 247
f 238 247 246
f 239 240 248
f 239 248 247
f 241 242 250
f 241 250 249
f 242 243 251
f 242 251 250
f 243 244 252
f 243 252 251
f 244 245 253
f 244 253 252
f 245 246 254
f 245 254 253
f 246 247 255
f 246 255 254
f 247 248 256
f 247 256 255
f 257 258 266
f 257 266 265
f 258 259 267
f 258 267 266
f 259 260 268
f 259 268 267
f 260 261 269
f 260 269 268
f 261 262 270
f 261 270 269
f 262 263 271
f 262 271 270
f 263 264 272
f 263 272 271
f 265 266 274
f 265 274 273
f 266 267 275
f 266 275 274
f 267 268 276
f 267 276 275
f 268 269 277
f 268 277 276
f 269 270 278
f 269 278 277
f 270 271 279
f 270 279 278
f 271 272 280
f 271 280 279
f 273 274 282
f 273 282 281
f 274 275 283
f 274 283 282
f 275 276 284
f 275 284 283
f 276 277 285
f 276 285 284
f 277 278 286
f 277 286 285
f 278 279 287
f 278 287 286
f 279 280 288
f 279 288 287
f 281 282 290
f 281 290 289
f 282 283 291
f 282 291 290
f 283 284 292
f 283 292 291
f 284 285 293
f 284 293 292
f 285 286 294
f 285 294 293
f 286 287 295
f 286 295 294
f 287 288 296
f 287 296 295
f 289 290 298
f 289 298 297
f 290 291 299
f 290 299 298
f 291 292 300
f 291 300 299
f 292 293 301
f 292 301 300
f 293 294 302
f 293 302 301
f 294 295 303
f 294 303 302
f 295 296 304
f 295 304 303
f 297 298 306
f 297 306 305
f 298 299 307
f 298 307 306
f 299 300 308
f 299 308 307
f 300 301 309
f 300 309 308
f 301 302 310
f 301 310 309
f 302 303 311
f 302 311 310
f 303 304 312
f 303 312 311
f 305 306 314
f 305 314 313
f 306 307 315
f 306 315 314
f 307 308 316
f 307 316 315
f 308 309 317
f 308 317 316
f 309 310 318
f 309 318 317
f 310 311 319
f 310 319 318
f 311 312 320
f 311 320 319
f 321 322 330
f 321 330 329
f 322 323 331
f 322 331 330
f 323 324 332
f 323 332 331
f 324 325 333
f 324 333 332
f 325 326 334
f 325 334 333
f 326 327 335
f 326 335 334
f 327 328 336
f 327 336 335
f 329 330 338
f 329 338 337
f 330 331 339
f 330 339 338
f 331 332 340
f 331 340 339
f 332 333 341
f 332 341 340
f 333 334 342
f 333 342 341
f 334 335 343
f 334 343 342
f 335 336 344
f 335 344 343
f 337 338 346
f 337 346 345
f 338 339 347
f 338 347 346
f 339 340 348
f 339 348 347
f 340 341 349
f 340 349 348
f 341 342 350
f 341 350 349
f 342 343 351
f 342 351 350
f 343 344 352
f 343 352 351
f 345 346 354
f 345 354 353
f 346 347 355
f 346 355 354
f 347 348 356
f 347 356 355
f 348 349 357
f 348 357 356
f 349 350 358
f 349 358 357
f 350 351 359
f 350 359 358
f 351 352 360
f 351 360 359
f 353 354 362
f 353 362 361
f 354 355 363
f 354 363 362
f 355 356 364
f 355 364 363
f 356 357 365
f 356 365 364
f 357 358 366
f 357 366 365
f 358 359 367
f 358 367 366
f 359 360 368
f 359 368 367
f 361 362 370
f 361 370 369
f 362 363 371
f 362 371 370
f 363 364 372
f 363 372 371
f 364 365 373
f 364 373 372
f 365 366 374
f 365 374 373
f 366 367 375
f 366 375 374
f 367 368 376
f 367 376 375
f 369 370 378
f 369 378 377
f 370 371 379
f 370 379 378
f 371 372 380
f 371 380 379
f 372 373 381
f 372 381 380
f 373 374 382
f 373 382 381
f 374 375 383
f 374 383 382
f 375 376 384
f 375 384 383
f 385 386 392
f 385 392 391
f 386 387 393
f 386 393 392
f 387 388 394
f 387 394 393
f 388 389 395
f 388 395 394
f 389 390 396
f 389 396 395
f 391 392 398
f 391 398 397
f 392 393 399
f 392 399 398
f 393 394 400
f 393 400 399
f 394 395 401
f 394 401 400
f 395 396 402
f 395 402 401
f 397 398 404
f 397 404 403
f 398 399 405
f 398 405 404
f 399 400 406
f 399 406 405
f 400 401 407
f 400 407 406
f 401 402 408
f 401 408 407
f 403 404 410
f 403 410 409
f 404 405 411
f 404 411 410
f 405 406 412
f 405 412 411
f 406 407 413
f 406 413 412
f 407 408 414
f 407 414 413
f 409 410 416
f 409 416 415
f 410 411 417
f 410 417 416
f 411 412 418
f 411 418 417
f 412 413 419
f 412 419 418
f 413 414 420
f 413 420 419
f 421 422 428
f 421 428 427
f 422 423 429
f 422 429 428
f 423 424 430
f 423 430 429
f 424 425 431
f 424 431 430
f 425 426 432
f 425 432 431
f 427 428 434
f 427 434 433
f 428 429 435
f 428 435 434
f 429 430 436
f 429 436 435
f 430 431 437
f 430 437 436
f 431 432 438
f 431 438 437
f 433 434 440
f 433 440 439
f 434 435 441
f 434 441 440
f 435 436 442
f 435 442 441
f 436 437 443
f 436 443 442
f 437 438 444
f 437 444 443
f 439 440 446
f 439 446 445
f 440 441 447
f 440 447 446
f 441 442 448
f 441 448 447
f 442 443 449
f 442 449 448
f 443 444 450
f 443 450 449
f 445 446 452
f 445 452 451
f 446 447 453
f 446 453 452
f 447 448 454
f 447 454 453
f 448 449 455
f 448 455 454
f 449 450 456
f 449 456 455
f 457 458 464
f 457 464 463
f 458 459 465
f 458 465 464
f 459 460 466
f 459 466 465
f 460 461 467
f 460 467 466
f 461 462 468
f 461 468 467
f 463 464 470
f 463 470 469
f 464 465 471
f 464 471 470
f 465 466 472
f 465 472 471
f 466 467 473
f 466 473 472
f 467 468 474
f 467 474 473
f 469 470 476
f 469 476 475
f 470 471 477
f 470 477 476
f 471 472 478
f 471 478 477
f 472 473 479
f 472 479 478
f 473 474 480
f 473 480 479
f 475 476 482
f 475 482 481
f 476 477 483
f 476 483 482
f 477 478 484
f 477 484 483
f 478 479 485
f 478 485 484
f 479 480 486
f 479 486 485
f 481 482 488
f 481 488 487
f 482 483 489
f 482 489 488
f 483 484 490
f 483 490 489
f 484 485 491
f 484 491 490
f 485 486 492
f 485 492 491
f 493 494 500
f 493 500 499
f 494 495 501
f 494 501 500
f 495 496 502
f 495 502 501
f 496 497 503
f 496 503 502
f 497 498 504
f 497 504 503
f 499 500 506
f 499 506 505
f 500 501 507
f 500 507 506
f 501 502 508
f 501 508 507
f 502 503 509
f 502 509 508
f 503 504 510
f 503 510 509
f 505 506 512
f 505 512 511
f 506 507 513
f 506 513 512
f 507 508 514
f 507 514 513
f 508 509 515
f 508 515 514
f 509 510 516
f 509 516 515
f 511 512 518
f 511 518 517
f 512 513 519
f 512 519 518
f 513 514 520
f 513 520 519
f 514 515 521
f 514 521 520
f 515 516 522
f 515 522 521
f 517 518 524
f 517 524 523
f 518 519 525
f 518 525 524
f 519 520 526
f 519 526 525
f 520 521 527
f 520 527 526
f 521 522 528
f 521 528 527
f 529 530 536
f 529 536 535
f 530 531 537
f 530 537 536
f 531 532 538
f 531 538 537
f 532 533 539
f 532 539 538
f 533 534 540
f 533 540 539
f 535 536 542
f 535 542 541
f 536 537 543
f 536 543 542
f 537 538 544
f 537 544 543
f 538 539 545
f 538 545 544
f 539 540 546
f 539 546 545
f 541 542 548
f 541 548 547
f 542 543 549
f 542 549 548
f 543 544 550
f 543 550 549
f 544 545 551
f 544 551 550
f 545 546 552
f 545 552 551
f 547 548 554
f 547 554 553
f 548 549 555
f 548 555 554
f 549 550 556
f 549 556 555
f 550 551 557
f 550 557 556
f 551 552 558
f 551 558 557
f 553 554 560
f 553 560 559
f 554 555 561
f 554 561 560
f 555 556 562
f 555 562 561
f 556 557 563
f 556 563 562
f 557 558 564
f 557 564 563
f 565 566 572
f 565 572 571
f 566 567 573
f 566 573 572
f 567 568 574
f 567 574 573
f 568 569 575
f 568 575 574
f 569 570 576
f 569 576 575
f 571 572 578
f 571 578 577
f 572 573 579
f 572 579 578
f 573 574 580
f 573 580 579
f 574 575 581
f 574 581 580
f 575 576 582
f 575 582 581
f 577 578 584
f 577 584 583
f 578 579 585
f 578 585 584
f 579 580 586
f 579 586 585
f 580 581 587
f 580 587 586
f 581 582 588
f 581 588 587
f 583 584 590
f 583 590 589
f 584 585 591
f 584 591 590
f 585 586 592
f 585 592 591
f 586 587 593
f 586 593 592
f 587 588 594
f 587 594 593
f 589 590 596
f 589 596 595
f 590 591 597
f 590 597 596
f 591 592 598
f 591 598 597
f 592 593 599
f 592 599 598
f 593 594 600
f 593 600 599
f 601 602 608
f 601 608 607
f 602 603 609
f 602 609 608
f 603 604 610
f 603 610 609
f 604 605 611
f 604 611 610
f 605 606 612
f 605 612 611
f 607 608 614
f 607 614 613
f 608 609 615
f 608 615 614
f 609 610 616
f 609 616 615
f 610 611 617
f 610 617 616
f 611 612 618
f 611 618 617
f 613 614 620
f 613 620 619
f 614 615 621
f 614 621 620
f 615 616 622
f 615 622 621
f 616 617 623
f 616 623 622
f 617 618 624
f 617 624 623
f 619 620 626
f 619 626 625
f 620 621 627
f 620 627 626
f 621 622 628
f 621 628 627
f 622 623 629
f 622 629 628
f 623 624 630
f 623 630 629
f 625 626 632
f 625 632 631
f 626 627 633
f 626 633 632
f 627 628 634
f 627 634 633
f 628 629 635
f 628 635 634
f 629 630 636
f 629 636 635
f 637 638 644
f 637 644 643
f 638 639 645
f 638 645 644
f 639 640 646
f 639 646 645
f 640 641 647
f 640 647 646
f 641 642 648
f 641 648 647
f 643 644 650
f 643 650 649
f 644 645 651
f 644 651 650
f 645 646 652
f 645 652 651
f 646 647 653
f 646 653 652
f 647 648 654
f 647 654 653
f 649 650 656
f 649 656 655
f 650 651 657
f 650 657 656
f 651 652 658
f 651 658 657
f 652 653 659
f 652 659 658
f 653 654 660
f 653 660 659
f 655 656 662
f 655 662 661
f 656 657 663
f 656 663 662
f 657 658 664
f 657 664 663
f 658 659 665
f 658 665 664
f 659 660 666
f 659 666 665
f 661 662 668
f 661 668 667
f 662 663 669
f 662 669 668
f 663 664 670
f 663 670 669
f 664 665 671
f 664 671 670
f 665 666 672
f 665 672 671
f 673 674 680
f 673 680 679
f 674 675 681
f 674 681 680
f 675 676 682
f 675 682 681
f 676 677 683
f 676 683 682
f 677 678 684
f 677 684 683
f 679 680 686
f 679 686 685
f 680 681 687
f 680 687 686
f 681 682 688
f 681 688 687
f 682 683 689
f 682 689 688
f 683 684 690
f 683 690 689
f 685 686 692
f 685 692 691
f 686 687 693
f 686 693 692
f 687 688 694
f 687 694 693
f 688 689 695
f 688 695 694
f 689 690 696
f 689 696 695
f 691 692 698
f 691 698 697
f 692 693 699
f 692 699 698
f 693 694 700
f 693 700 699
f 694 695 701
f 694 701 700
f 695 696 702
f 695 702 701
f 697 698 704
f 697 704 703
f 698 699 705
f 698 705 704
f 699 700 706
f 699 706 705
f 700 701 707
f 700 707 706
f 701 702 708
f 701 708 707
f 709 710 716
f 709 716 715
f 710 711 717
f 710 717 716
f 711 712 718
f 711 718 717
f 712 713 719
f 712 719 718
f 713 714 720
f 713 720 719
f 715 716 722
f 715 722 721
f 716 717 723
f 716 723 722
f 717 718 724
f 717 724 723
f 718 719 725
f 718 725 724
f 719 720 726
f 719 726 725
f 721 722 728
f 721 728 727
f 722 723 729
f 722 729 728
f 723 724 730
f 723 730 729
f 724 725 731
f 724 731 730
f 725 726 732
f 725 732 731
f 727 728 734
f 727 734 733
f 728 729 735
f 728 735 734
f 729 730 736
f 729 736 735
f 730 731 737
f 730 737 736
f 731 732 738
f 731 738 737
f 733 734 740
f 733 740 739
f 734 735 741
f 734 741 740
f 735 736 742
f 735 742 741
f 736 737 743
f 736 743 742
f 737 738 744
f 737 744 743
f 745 746 752
f 745 752 751
f 746 747 753
f 746 753 752
f 747 748 754
f 747 754 753
f 748 749 755
f 748 755 754
f 749 750 756
f 749 756 755
f 751 752 758
f 751 758 757
f 752 753 759
f 752 759 758
f 753 754 760
f 753 760 759
f 754 755 761
f 754 761 760
f 755 756 762
f 755 762 761
f 757 758 764
f 757 764 763
f 758 759 765
f 758 765 764
f 759 760 766
f 759 766 765
f 760 761 767
f 760 767 766
f 761 762 768
f 761 768 767
f 763 764 770
f 763 770 769
f 764 765 771
f 764 771 770
f 765 766 772
f 765 772 771
f 766 767 773
f 766 773 772
f 767 768 774
f 767 774 773
f 769 770 776
f 769 776 775
f 770 771 777
f 770 777 776
f 771 772 778
f 771 778 777
f 772 773 779
f 772 779 778
f 773 774 780
f 773 780 779
f 781 782 788
f 781 788 787
f 782 783 789
f 782 789 788
f 783 784 790
f 783 790 789
f 784 785 791
f 784 791 790
f 785 786 792
f 785 792 791
f 787 788 794
f 787 794 793
f 788 789 795
f 788 795 794
f 789 790 796
f 789 796 795
f 790 791 797
f 790 797 796
f 791 792 798
f 791 798 797
f 793 794 800
f 793 800 799
f 794 795 801
f 794 801 800
f 795 796 802
f 795 802 801
f 796 797 803
f 796 803 802
f 797 798 804
f 797 804 803
f 799 800 806
f 799 806 805
f 800 801 807
f 800 807 806
f 801 802 808
f 801 808 807
f 802 803 809
f 802 809 808
f 803 804 810
f 803 810 809
f 805 806 812
f 805 812 811
f 806 807 813
f 806 813 812
f 807 808 814
f 807 814 813
f 808 809 815
f 808 815 814
f 809 810 816
f 809 816 815
f 817 818 824
f 817 824 823
f 818 819 825
f 818 825 824
f 819 820 826
f 819 826 825
f 820 821 827
f 820 827 826
f 821 822 828
f 821 828 827
f 823 824 830
f 823 830 829
f 824 825 831
f 824 831 830
f 825 826 832
f 825 832 831
f 826 827 833
f 826 833 832
f 827 828 834
f 827 834 833
f 829 830 836
f 829 836 835
f 830 831 837
f 830 837 836
f 831 832 838
f 831 838 837
f 832 833 839
f 832 839 838
f 833 834 840
f 833 840 839
f 835 836 842
f 835 842 841
f 836 837 843
f 836 843 842
f 837 838 844
f 837 844 843
f 838 839 845
f 838 845 844
f 839 840 846
f 839 846 845
f 841 842 848
f 841 848 847
f 842 843 849
f 842 849 848
f 843 844 850
f 843 850 849
f 844 845 851
f 844 851 850
f 845 846 852
f 845 852 851
f 853 854 860
f 853 860 859
f 854 855 861
f 854 861 860
f 855 856 862
f 855 862 861
f 856 857 863
f 856 863 862
f 857 858 864
f 857 864 863
f 859 860 866
f 859 866 865
f 860 861 867
f 860 867 866
f 861 862 868
f 861 868 867
f 862 863 869
f 862 869 868
f 863 864 870
f 863 870 869
f 865 866 872
f 865 872 871
f 866 867 873
f 866 873 872
f 867 868 874
f 867 874 873
f 868 869 875
f 868 875 874
f 869 870 876
f 869 876 875
f 871 872 878
f 871 878 877
f 872 873 879
f 872 879 878
f 873 874 880
f 873 880 879
f 874 875 881
f 874 881 880
f 875 876 882
f 875 882 881
f 877 878 884
f 877 884 883
f 878 879 885
f 878 885 884
f 879 880 886
f 879 886 885
f 880 881 887
f 880 887 886
f 881 882 888
f 881 888 887
f 889 890 896
f 889 896 895
f 890 891 897
f 890 897 896
f 891 892 898
f 891 898 897
f 892 893 899
f 892 899 898
f 893 894 900
f 893 900 899
f 895 896 902
f 895 902 901
f 896 897 903
f 896 903 902
f 897 898 904
f 897 904 903
f 898 899 905
f 898 905 904
f 899 900 906
f 899 906 905
f 901 902 908
f 901 908 907
f 902 903 909
f 902 909 908
f 903 904 910
f 903 910 909
f 904 905 911
f 904 911 910
f 905 906 912
f 905 912 911
f 907 908 914
f 907 914 913
f 908 909 915
f 908 915 914
f 909 910 916
f 909 916 915
f 910 911 917
f 910 917 916
f 911 912 918
f 911 918 917
f 913 914 920
f 913 920 919
f 914 915 921
f 914 921 920
f 915 916 922
f 915 922 921
f 916 917 923
f 916 923 922
f 917 918 924
f 917 924 923
f 925 926 932
f 925 932 931
f 926 927 933
f 926 933 932
f 927 928 934
f 927 934 933
f 928 929 935
f 928 935 934
f 929 930 936
f 929 936 935
f 931 932 938
f 931 938 937
f 932 933 939
f 932 939 938
f 933 934 940
f 933 940 939
f 934 935 941
f 934 941 940
f 935 936 942
f 935 942 941
f 937 938 944
f 937 944 943
f 938 939 945
f 938 945 944
f 939 940 946
f 939 946 945
f 940 941 947
f 940 947 946
f 941 942 948
f 941 948 947
f 943 944 950
f 943 950 949
f 944 945 951
f 944 951 950
f 945 946 952
f 945 952 951
f 946 947 953
f 946 953 952
f 947 948 954
f 947 954 953
f 949 950 956
f 949 956 955
f 950 951 957
f 950 957 956
f 951 952 958
f 951 958 957
f 952 953 959
f 952 959 958
f 953 954 960
f 953 960 959
f 961 962 968
f 961 968 967
f 962 963 969
f 962 969 968
f 963 964 970
f 963 970 969
f 964 965 971
f 964 971 970
f 965 966 972
f 965 972 971
f 967 968 974
f 967 974 973
f 968 969 975
f 968 975 974
f 969 970 976
f 969 976 975
f 970 971 977
f 970 977 976
f 971 972 978
f 971 978 977
f 973 974 980
f 973 980 979
f 974 975 981
f 974 981 980
f 975 976 982
f 975 982 981
f 976 977 983
f 976 983 982
f 977 978 984
f 977 984 983
f 979 980 986
f 979 986 985
f 980 981 987
f 980 987 986
f 981 982 988
f 981 988 987
f 982 983 989
f 982 989 988
f 983 984 990
f 983 990 989
f 985 986 992
f 985 992 991
f 986 987 993
f 986 993 992
f 987 988 994
f 987 994 993
f 988 989 995
f 988 995 994
f 989 990 996
f 989 996 995
f 997 998 1004
f 997 1004 1003
f 998 999 1005
f 998 1005 1004
f 999 1000 1006
f 999 1006 1005
f 1000 1001 1007
f 1000 1007 1006
f 1001 1002 1008
f 1001 1008 1007
f 1003 1004 1010
f 1003 1010 1009
f 1004 1005 1011
f 1004 1011 1010
f 1005 1006 1012
f 1005 1012 1011
f 1006 1007 1013
f 1006 1013 1012
f 1007 1008 1014
f 1007 1014 1013
f 1009 1010 1016
f 1009 1016 1015
f 1010 1011 1017
f 1010 1017 1016
f 1011 1012 1018
f 1011 1018 1017
f 1012 1013 1019
f 1012 1019 1018
f 1013 1014 1020
f 1013 1020 1019
f 1015 1016 1022
f 1015 1022 1021
f 1016 1017 1023
f 1016 1023 1022
f 1017 1018 1024
f 1017 1024 1023
f 1018 1019 1025
f 1018 1025 1024
f 1019 1020 1026
f 1019 1026 1025
f 1021 1022 1028
f 1021 1028 1027
f 1022 1023 1029
f 1022 1029 1028
f 1023 1024 1030
f 1023 1030 1029
f 1024 1025 1031
f 1024 1031 1030
f 1025 1026 1032
f 1025 1032 1031
