# 난로 — 블록아웃 (예산 1500 tris)
# 삼각형 1480 · 조각 1
# 생성: tools/blockout — 손으로 고치지 말 것, 생성기를 고칠 것
g stove
v 0.2800 -0.4000 0.0000
v 0.2800 0.4000 0.0000
v 0.2766 -0.4000 0.0438
v 0.2766 0.4000 0.0438
v 0.2663 -0.4000 0.0865
v 0.2663 0.4000 0.0865
v 0.2495 -0.4000 0.1271
v 0.2495 0.4000 0.1271
v 0.2265 -0.4000 0.1646
v 0.2265 0.4000 0.1646
v 0.1980 -0.4000 0.1980
v 0.1980 0.4000 0.1980
v 0.1646 -0.4000 0.2265
v 0.1646 0.4000 0.2265
v 0.1271 -0.4000 0.2495
v 0.1271 0.4000 0.2495
v 0.0865 -0.4000 0.2663
v 0.0865 0.4000 0.2663
v 0.0438 -0.4000 0.2766
v 0.0438 0.4000 0.2766
v 0.0000 -0.4000 0.2800
v 0.0000 0.4000 0.2800
v -0.0438 -0.4000 0.2766
v -0.0438 0.4000 0.2766
v -0.0865 -0.4000 0.2663
v -0.0865 0.4000 0.2663
v -0.1271 -0.4000 0.2495
v -0.1271 0.4000 0.2495
v -0.1646 -0.4000 0.2265
v -0.1646 0.4000 0.2265
v -0.1980 -0.4000 0.1980
v -0.1980 0.4000 0.1980
v -0.2265 -0.4000 0.1646
v -0.2265 0.4000 0.1646
v -0.2495 -0.4000 0.1271
v -0.2495 0.4000 0.1271
v -0.2663 -0.4000 0.0865
v -0.2663 0.4000 0.0865
v -0.2766 -0.4000 0.0438
v -0.2766 0.4000 0.0438
v -0.2800 -0.4000 0.0000
v -0.2800 0.4000 0.0000
v -0.2766 -0.4000 -0.0438
v -0.2766 0.4000 -0.0438
v -0.2663 -0.4000 -0.0865
v -0.2663 0.4000 -0.0865
v -0.2495 -0.4000 -0.1271
v -0.2495 0.4000 -0.1271
v -0.2265 -0.4000 -0.1646
v -0.2265 0.4000 -0.1646
v -0.1980 -0.4000 -0.1980
v -0.1980 0.4000 -0.1980
v -0.1646 -0.4000 -0.2265
v -0.1646 0.4000 -0.2265
v -0.1271 -0.4000 -0.2495
v -0.1271 0.4000 -0.2495
v -0.0865 -0.4000 -0.2663
v -0.0865 0.4000 -0.2663
v -0.0438 -0.4000 -0.2766
v -0.0438 0.4000 -0.2766
v -0.0000 -0.4000 -0.2800
v -0.0000 0.4000 -0.2800
v 0.0438 -0.4000 -0.2766
v 0.0438 0.4000 -0.2766
v 0.0865 -0.4000 -0.2663
v 0.0865 0.4000 -0.2663
v 0.1271 -0.4000 -0.2495
v 0.1271 0.4000 -0.2495
v 0.1646 -0.4000 -0.2265
v 0.1646 0.4000 -0.2265
v 0.1980 -0.4000 -0.1980
v 0.1980 0.4000 -0.1980
v 0.2265 -0.4000 -0.1646
v 0.2265 0.4000 -0.1646
v 0.2495 -0.4000 -0.1271
v 0.2495 0.4000 -0.1271
v 0.2663 -0.4000 -0.0865
v 0.2663 0.4000 -0.0865
v 0.2766 -0.4000 -0.0438
v 0.2766 0.4000 -0.0438
v 0.0000 0.4000 0.0000
v 0.0000 -0.4000 0.0000
v 0.0900 0.3000 0.0000
v 0.0900 1.9000 0.0000
v 0.0880 0.3000 0.0187
v 0.0880 1.9000 0.0187
v 0.0822 0.3000 0.0366
v 0.0822 1.9000 0.0366
v 0.0728 0.3000 0.0529
v 0.0728 1.9000 0.0529
v 0.0602 0.3000 0.0669
v 0.0602 1.9000 0.0669
v 0.0450 0.3000 0.0779
v 0.0450 1.9000 0.0779
v 0.0278 0.3000 0.0856
v 0.0278 1.9000 0.0856
v 0.0094 0.3000 0.0895
v 0.0094 1.9000 0.0895
v -0.0094 0.3000 0.0895
v -0.0094 1.9000 0.0895
v -0.0278 0.3000 0.0856
v -0.0278 1.9000 0.0856
v -0.0450 0.3000 0.0779
v -0.0450 1.9000 0.0779
v -0.0602 0.3000 0.0669
v -0.0602 1.9000 0.0669
v -0.0728 0.3000 0.0529
v -0.0728 1.9000 0.0529
v -0.0822 0.3000 0.0366
v -0.0822 1.9000 0.0366
v -0.0880 0.3000 0.0187
v -0.0880 1.9000 0.0187
v -0.0900 0.3000 0.0000
v -0.0900 1.9000 0.0000
v -0.0880 0.3000 -0.0187
v -0.0880 1.9000 -0.0187
v -0.0822 0.3000 -0.0366
v -0.0822 1.9000 -0.0366
v -0.0728 0.3000 -0.0529
v -0.0728 1.9000 -0.0529
v -0.0602 0.3000 -0.0669
v -0.0602 1.9000 -0.0669
v -0.0450 0.3000 -0.0779
v -0.0450 1.9000 -0.0779
v -0.0278 0.3000 -0.0856
v -0.0278 1.9000 -0.0856
v -0.0094 0.3000 -0.0895
v -0.0094 1.9000 -0.0895
v 0.0094 0.3000 -0.0895
v 0.0094 1.9000 -0.0895
v 0.0278 0.3000 -0.0856
v 0.0278 1.9000 -0.0856
v 0.0450 0.3000 -0.0779
v 0.0450 1.9000 -0.0779
v 0.0602 0.3000 -0.0669
v 0.0602 1.9000 -0.0669
v 0.0728 0.3000 -0.0529
v 0.0728 1.9000 -0.0529
v 0.0822 0.3000 -0.0366
v 0.0822 1.9000 -0.0366
v 0.0880 0.3000 -0.0187
v 0.0880 1.9000 -0.0187
v 0.0000 1.9000 0.0000
v 0.0000 0.3000 0.0000
v -0.1500 -0.2100 0.2950
v -0.1500 -0.1880 0.2950
v -0.1500 -0.1660 0.2950
v -0.1500 -0.1440 0.2950
v -0.1500 -0.1220 0.2950
v -0.1500 -0.1000 0.2950
v -0.1500 -0.0780 0.2950
v -0.1500 -0.0560 0.2950
v -0.1500 -0.0340 0.2950
v -0.1500 -0.0120 0.2950
v -0.1500 0.0100 0.2950
v -0.1200 -0.2100 0.2950
v -0.1200 -0.1880 0.2950
v -0.1200 -0.1660 0.2950
v -0.1200 -0.1440 0.2950
v -0.1200 -0.1220 0.2950
v -0.1200 -0.1000 0.2950
v -0.1200 -0.0780 0.2950
v -0.1200 -0.0560 0.2950
v -0.1200 -0.0340 0.2950
v -0.1200 -0.0120 0.2950
v -0.1200 0.0100 0.2950
v -0.0900 -0.2100 0.2950
v -0.0900 -0.1880 0.2950
v -0.0900 -0.1660 0.2950
v -0.0900 -0.1440 0.2950
v -0.0900 -0.1220 0.2950
v -0.0900 -0.1000 0.2950
v -0.0900 -0.0780 0.2950
v -0.0900 -0.0560 0.2950
v -0.0900 -0.0340 0.2950
v -0.0900 -0.0120 0.2950
v -0.0900 0.0100 0.2950
v -0.0600 -0.2100 0.2950
v -0.0600 -0.1880 0.2950
v -0.0600 -0.1660 0.2950
v -0.0600 -0.1440 0.2950
v -0.0600 -0.1220 0.2950
v -0.0600 -0.1000 0.2950
v -0.0600 -0.0780 0.2950
v -0.0600 -0.0560 0.2950
v -0.0600 -0.0340 0.2950
v -0.0600 -0.0120 0.2950
v -0.0600 0.0100 0.2950
v -0.0300 -0.2100 0.2950
v -0.0300 -0.1880 0.2950
v -0.0300 -0.1660 0.2950
v -0.0300 -0.1440 0.2950
v -0.0300 -0.1220 0.2950
v -0.0300 -0.1000 0.2950
v -0.0300 -0.0780 0.2950
v -0.0300 -0.0560 0.2950
v -0.0300 -0.0340 0.2950
v -0.0300 -0.0120 0.2950
v -0.0300 0.0100 0.2950
v 0.0000 -0.2100 0.2950
v 0.0000 -0.1880 0.2950
v 0.0000 -0.1660 0.2950
v 0.0000 -0.1440 0.2950
v 0.0000 -0.1220 0.2950
v 0.0000 -0.1000 0.2950
v 0.0000 -0.0780 0.2950
v 0.0000 -0.0560 0.2950
v 0.0000 -0.0340 0.2950
v 0.0000 -0.0120 0.2950
v 0.0000 0.0100 0.2950
v 0.0300 -0.2100 0.2950
v 0.0300 -0.1880 0.2950
v 0.0300 -0.1660 0.2950
v 0.0300 -0.1440 0.2950
v 0.0300 -0.1220 0.2950
v 0.0300 -0.1000 0.2950
v 0.0300 -0.0780 0.2950
v 0.0300 -0.0560 0.2950
v 0.0300 -0.0340 0.2950
v 0.0300 -0.0120 0.2950
v 0.0300 0.0100 0.2950
v 0.0600 -0.2100 0.2950
v 0.0600 -0.1880 0.2950
v 0.0600 -0.1660 0.2950
v 0.0600 -0.1440 0.2950
v 0.0600 -0.1220 0.2950
v 0.0600 -0.1000 0.2950
v 0.0600 -0.0780 0.2950
v 0.0600 -0.0560 0.2950
v 0.0600 -0.0340 0.2950
v 0.0600 -0.0120 0.2950
v 0.0600 0.0100 0.2950
v 0.0900 -0.2100 0.2950
v 0.0900 -0.1880 0.2950
v 0.0900 -0.1660 0.2950
v 0.0900 -0.1440 0.2950
v 0.0900 -0.1220 0.2950
v 0.0900 -0.1000 0.2950
v 0.0900 -0.0780 0.2950
v 0.0900 -0.0560 0.2950
v 0.0900 -0.0340 0.2950
v 0.0900 -0.0120 0.2950
v 0.0900 0.0100 0.2950
v 0.1200 -0.2100 0.2950
v 0.1200 -0.1880 0.2950
v 0.1200 -0.1660 0.2950
v 0.1200 -0.1440 0.2950
v 0.1200 -0.1220 0.2950
v 0.1200 -0.1000 0.2950
v 0.1200 -0.0780 0.2950
v 0.1200 -0.0560 0.2950
v 0.1200 -0.0340 0.2950
v 0.1200 -0.0120 0.2950
v 0.1200 0.0100 0.2950
v 0.1500 -0.2100 0.2950
v 0.1500 -0.1880 0.2950
v 0.1500 -0.1660 0.2950
v 0.1500 -0.1440 0.2950
v 0.1500 -0.1220 0.2950
v 0.1500 -0.1000 0.2950
v 0.1500 -0.0780 0.2950
v 0.1500 -0.0560 0.2950
v 0.1500 -0.0340 0.2950
v 0.1500 -0.0120 0.2950
v 0.1500 0.0100 0.2950
v 0.1500 -0.2100 0.2650
v 0.1500 -0.1880 0.2650
v 0.1500 -0.1660 0.2650
v 0.1500 -0.1440 0.2650
v 0.1500 -0.1220 0.2650
v 0.1500 -0.1000 0.2650
v 0.1500 -0.0780 0.2650
v 0.1500 -0.0560 0.2650
v 0.1500 -0.0340 0.2650
v 0.1500 -0.0120 0.2650
v 0.1500 0.0100 0.2650
v 0.1200 -0.2100 0.2650
v 0.1200 -0.1880 0.2650
v 0.1200 -0.1660 0.2650
v 0.1200 -0.1440 0.2650
v 0.1200 -0.1220 0.2650
v 0.1200 -0.1000 0.2650
v 0.1200 -0.0780 0.2650
v 0.1200 -0.0560 0.2650
v 0.1200 -0.0340 0.2650
v 0.1200 -0.0120 0.2650
v 0.1200 0.0100 0.2650
v 0.0900 -0.2100 0.2650
v 0.0900 -0.1880 0.2650
v 0.0900 -0.1660 0.2650
v 0.0900 -0.1440 0.2650
v 0.0900 -0.1220 0.2650
v 0.0900 -0.1000 0.2650
v 0.0900 -0.0780 0.2650
v 0.0900 -0.0560 0.2650
v 0.0900 -0.0340 0.2650
v 0.0900 -0.0120 0.2650
v 0.0900 0.0100 0.2650
v 0.0600 -0.2100 0.2650
v 0.0600 -0.1880 0.2650
v 0.0600 -0.1660 0.2650
v 0.0600 -0.1440 0.2650
v 0.0600 -0.1220 0.2650
v 0.0600 -0.1000 0.2650
v 0.0600 -0.0780 0.2650
v 0.0600 -0.0560 0.2650
v 0.0600 -0.0340 0.2650
v 0.0600 -0.0120 0.2650
v 0.0600 0.0100 0.2650
v 0.0300 -0.2100 0.2650
v 0.0300 -0.1880 0.2650
v 0.0300 -0.1660 0.2650
v 0.0300 -0.1440 0.2650
v 0.0300 -0.1220 0.2650
v 0.0300 -0.1000 0.2650
v 0.0300 -0.0780 0.2650
v 0.0300 -0.0560 0.2650
v 0.0300 -0.0340 0.2650
v 0.0300 -0.0120 0.2650
v 0.0300 0.0100 0.2650
v 0.0000 -0.2100 0.2650
v 0.0000 -0.1880 0.2650
v 0.0000 -0.1660 0.2650
v 0.0000 -0.1440 0.2650
v 0.0000 -0.1220 0.2650
v 0.0000 -0.1000 0.2650
v 0.0000 -0.0780 0.2650
v 0.0000 -0.0560 0.2650
v 0.0000 -0.0340 0.2650
v 0.0000 -0.0120 0.2650
v 0.0000 0.0100 0.2650
v -0.0300 -0.2100 0.2650
v -0.0300 -0.1880 0.2650
v -0.0300 -0.1660 0.2650
v -0.0300 -0.1440 0.2650
v -0.0300 -0.1220 0.2650
v -0.0300 -0.1000 0.2650
v -0.0300 -0.0780 0.2650
v -0.0300 -0.0560 0.2650
v -0.0300 -0.0340 0.2650
v -0.0300 -0.0120 0.2650
v -0.0300 0.0100 0.2650
v -0.0600 -0.2100 0.2650
v -0.0600 -0.1880 0.2650
v -0.0600 -0.1660 0.2650
v -0.0600 -0.1440 0.2650
v -0.0600 -0.1220 0.2650
v -0.0600 -0.1000 0.2650
v -0.0600 -0.0780 0.2650
v -0.0600 -0.0560 0.2650
v -0.0600 -0.0340 0.2650
v -0.0600 -0.0120 0.2650
v -0.0600 0.0100 0.2650
v -0.0900 -0.2100 0.2650
v -0.0900 -0.1880 0.2650
v -0.0900 -0.1660 0.2650
v -0.0900 -0.1440 0.2650
v -0.0900 -0.1220 0.2650
v -0.0900 -0.1000 0.2650
v -0.0900 -0.0780 0.2650
v -0.0900 -0.0560 0.2650
v -0.0900 -0.0340 0.2650
v -0.0900 -0.0120 0.2650
v -0.0900 0.0100 0.2650
v -0.1200 -0.2100 0.2650
v -0.1200 -0.1880 0.2650
v -0.1200 -0.1660 0.2650
v -0.1200 -0.1440 0.2650
v -0.1200 -0.1220 0.2650
v -0.1200 -0.1000 0.2650
v -0.1200 -0.0780 0.2650
v -0.1200 -0.0560 0.2650
v -0.1200 -0.0340 0.2650
v -0.1200 -0.0120 0.2650
v -0.1200 0.0100 0.2650
v -0.1500 -0.2100 0.2650
v -0.1500 -0.1880 0.2650
v -0.1500 -0.1660 0.2650
v -0.1500 -0.1440 0.2650
v -0.1500 -0.1220 0.2650
v -0.1500 -0.1000 0.2650
v -0.1500 -0.0780 0.2650
v -0.1500 -0.0560 0.2650
v -0.1500 -0.0340 0.2650
v -0.1500 -0.0120 0.2650
v -0.1500 0.0100 0.2650
v -0.1500 -0.2100 0.2650
v -0.1500 -0.1880 0.2650
v -0.1500 -0.1660 0.2650
v -0.1500 -0.1440 0.2650
v -0.1500 -0.1220 0.2650
v -0.1500 -0.1000 0.2650
v -0.1500 -0.0780 0.2650
v -0.1500 -0.0560 0.2650
v -0.1500 -0.0340 0.2650
v -0.1500 -0.0120 0.2650
v -0.1500 0.0100 0.2650
v -0.1500 -0.2100 0.2680
v -0.1500 -0.1880 0.2680
v -0.1500 -0.1660 0.2680
v -0.1500 -0.1440 0.2680
v -0.1500 -0.1220 0.2680
v -0.1500 -0.1000 0.2680
v -0.1500 -0.0780 0.2680
v -0.1500 -0.0560 0.2680
v -0.1500 -0.0340 0.2680
v -0.1500 -0.0120 0.2680
v -0.1500 0.0100 0.2680
v -0.1500 -0.2100 0.2710
v -0.1500 -0.1880 0.2710
v -0.1500 -0.1660 0.2710
v -0.1500 -0.1440 0.2710
v -0.1500 -0.1220 0.2710
v -0.1500 -0.1000 0.2710
v -0.1500 -0.0780 0.2710
v -0.1500 -0.0560 0.2710
v -0.1500 -0.0340 0.2710
v -0.1500 -0.0120 0.2710
v -0.1500 0.0100 0.2710
v -0.1500 -0.2100 0.2740
v -0.1500 -0.1880 0.2740
v -0.1500 -0.1660 0.2740
v -0.1500 -0.1440 0.2740
v -0.1500 -0.1220 0.2740
v -0.1500 -0.1000 0.2740
v -0.1500 -0.0780 0.2740
v -0.1500 -0.0560 0.2740
v -0.1500 -0.0340 0.2740
v -0.1500 -0.0120 0.2740
v -0.1500 0.0100 0.2740
v -0.1500 -0.2100 0.2770
v -0.1500 -0.1880 0.2770
v -0.1500 -0.1660 0.2770
v -0.1500 -0.1440 0.2770
v -0.1500 -0.1220 0.2770
v -0.1500 -0.1000 0.2770
v -0.1500 -0.0780 0.2770
v -0.1500 -0.0560 0.2770
v -0.1500 -0.0340 0.2770
v -0.1500 -0.0120 0.2770
v -0.1500 0.0100 0.2770
v -0.1500 -0.2100 0.2800
v -0.1500 -0.1880 0.2800
v -0.1500 -0.1660 0.2800
v -0.1500 -0.1440 0.2800
v -0.1500 -0.1220 0.2800
v -0.1500 -0.1000 0.2800
v -0.1500 -0.0780 0.2800
v -0.1500 -0.0560 0.2800
v -0.1500 -0.0340 0.2800
v -0.1500 -0.0120 0.2800
v -0.1500 0.0100 0.2800
v -0.1500 -0.2100 0.2830
v -0.1500 -0.1880 0.2830
v -0.1500 -0.1660 0.2830
v -0.1500 -0.1440 0.2830
v -0.1500 -0.1220 0.2830
v -0.1500 -0.1000 0.2830
v -0.1500 -0.0780 0.2830
v -0.1500 -0.0560 0.2830
v -0.1500 -0.0340 0.2830
v -0.1500 -0.0120 0.2830
v -0.1500 0.0100 0.2830
v -0.1500 -0.2100 0.2860
v -0.1500 -0.1880 0.2860
v -0.1500 -0.1660 0.2860
v -0.1500 -0.1440 0.2860
v -0.1500 -0.1220 0.2860
v -0.1500 -0.1000 0.2860
v -0.1500 -0.0780 0.2860
v -0.1500 -0.0560 0.2860
v -0.1500 -0.0340 0.2860
v -0.1500 -0.0120 0.2860
v -0.1500 0.0100 0.2860
v -0.1500 -0.2100 0.2890
v -0.1500 -0.1880 0.2890
v -0.1500 -0.1660 0.2890
v -0.1500 -0.1440 0.2890
v -0.1500 -0.1220 0.2890
v -0.1500 -0.1000 0.2890
v -0.1500 -0.0780 0.2890
v -0.1500 -0.0560 0.2890
v -0.1500 -0.0340 0.2890
v -0.1500 -0.0120 0.2890
v -0.1500 0.0100 0.2890
v -0.1500 -0.2100 0.2920
v -0.1500 -0.1880 0.2920
v -0.1500 -0.1660 0.2920
v -0.1500 -0.1440 0.2920
v -0.1500 -0.1220 0.2920
v -0.1500 -0.1000 0.2920
v -0.1500 -0.0780 0.2920
v -0.1500 -0.0560 0.2920
v -0.1500 -0.0340 0.2920
v -0.1500 -0.0120 0.2920
v -0.1500 0.0100 0.2920
v -0.1500 -0.2100 0.2950
v -0.1500 -0.1880 0.2950
v -0.1500 -0.1660 0.2950
v -0.1500 -0.1440 0.2950
v -0.1500 -0.1220 0.2950
v -0.1500 -0.1000 0.2950
v -0.1500 -0.0780 0.2950
v -0.1500 -0.0560 0.2950
v -0.1500 -0.0340 0.2950
v -0.1500 -0.0120 0.2950
v -0.1500 0.0100 0.2950
v 0.1500 -0.2100 0.2950
v 0.1500 -0.1880 0.2950
v 0.1500 -0.1660 0.2950
v 0.1500 -0.1440 0.2950
v 0.1500 -0.1220 0.2950
v 0.1500 -0.1000 0.2950
v 0.1500 -0.0780 0.2950
v 0.1500 -0.0560 0.2950
v 0.1500 -0.0340 0.2950
v 0.1500 -0.0120 0.2950
v 0.1500 0.0100 0.2950
v 0.1500 -0.2100 0.2920
v 0.1500 -0.1880 0.2920
v 0.1500 -0.1660 0.2920
v 0.1500 -0.1440 0.2920
v 0.1500 -0.1220 0.2920
v 0.1500 -0.1000 0.2920
v 0.1500 -0.0780 0.2920
v 0.1500 -0.0560 0.2920
v 0.1500 -0.0340 0.2920
v 0.1500 -0.0120 0.2920
v 0.1500 0.0100 0.2920
v 0.1500 -0.2100 0.2890
v 0.1500 -0.1880 0.2890
v 0.1500 -0.1660 0.2890
v 0.1500 -0.1440 0.2890
v 0.1500 -0.1220 0.2890
v 0.1500 -0.1000 0.2890
v 0.1500 -0.0780 0.2890
v 0.1500 -0.0560 0.2890
v 0.1500 -0.0340 0.2890
v 0.1500 -0.0120 0.2890
v 0.1500 0.0100 0.2890
v 0.1500 -0.2100 0.2860
v 0.1500 -0.1880 0.2860
v 0.1500 -0.1660 0.2860
v 0.1500 -0.1440 0.2860
v 0.1500 -0.1220 0.2860
v 0.1500 -0.1000 0.2860
v 0.1500 -0.0780 0.2860
v 0.1500 -0.0560 0.2860
v 0.1500 -0.0340 0.2860
v 0.1500 -0.0120 0.2860
v 0.1500 0.0100 0.2860
v 0.1500 -0.2100 0.2830
v 0.1500 -0.1880 0.2830
v 0.1500 -0.1660 0.2830
v 0.1500 -0.1440 0.2830
v 0.1500 -0.1220 0.2830
v 0.1500 -0.1000 0.2830
v 0.1500 -0.0780 0.2830
v 0.1500 -0.0560 0.2830
v 0.1500 -0.0340 0.2830
v 0.1500 -0.0120 0.2830
v 0.1500 0.0100 0.2830
v 0.1500 -0.2100 0.2800
v 0.1500 -0.1880 0.2800
v 0.1500 -0.1660 0.2800
v 0.1500 -0.1440 0.2800
v 0.1500 -0.1220 0.2800
v 0.1500 -0.1000 0.2800
v 0.1500 -0.0780 0.2800
v 0.1500 -0.0560 0.2800
v 0.1500 -0.0340 0.2800
v 0.1500 -0.0120 0.2800
v 0.1500 0.0100 0.2800
v 0.1500 -0.2100 0.2770
v 0.1500 -0.1880 0.2770
v 0.1500 -0.1660 0.2770
v 0.1500 -0.1440 0.2770
v 0.1500 -0.1220 0.2770
v 0.1500 -0.1000 0.2770
v 0.1500 -0.0780 0.2770
v 0.1500 -0.0560 0.2770
v 0.1500 -0.0340 0.2770
v 0.1500 -0.0120 0.2770
v 0.1500 0.0100 0.2770
v 0.1500 -0.2100 0.2740
v 0.1500 -0.1880 0.2740
v 0.1500 -0.1660 0.2740
v 0.1500 -0.1440 0.2740
v 0.1500 -0.1220 0.2740
v 0.1500 -0.1000 0.2740
v 0.1500 -0.0780 0.2740
v 0.1500 -0.0560 0.2740
v 0.1500 -0.0340 0.2740
v 0.1500 -0.0120 0.2740
v 0.1500 0.0100 0.2740
v 0.1500 -0.2100 0.2710
v 0.1500 -0.1880 0.2710
v 0.1500 -0.1660 0.2710
v 0.1500 -0.1440 0.2710
v 0.1500 -0.1220 0.2710
v 0.1500 -0.1000 0.2710
v 0.1500 -0.0780 0.2710
v 0.1500 -0.0560 0.2710
v 0.1500 -0.0340 0.2710
v 0.1500 -0.0120 0.2710
v 0.1500 0.0100 0.2710
v 0.1500 -0.2100 0.2680
v 0.1500 -0.1880 0.2680
v 0.1500 -0.1660 0.2680
v 0.1500 -0.1440 0.2680
v 0.1500 -0.1220 0.2680
v 0.1500 -0.1000 0.2680
v 0.1500 -0.0780 0.2680
v 0.1500 -0.0560 0.2680
v 0.1500 -0.0340 0.2680
v 0.1500 -0.0120 0.2680
v 0.1500 0.0100 0.2680
v 0.1500 -0.2100 0.2650
v 0.1500 -0.1880 0.2650
v 0.1500 -0.1660 0.2650
v 0.1500 -0.1440 0.2650
v 0.1500 -0.1220 0.2650
v 0.1500 -0.1000 0.2650
v 0.1500 -0.0780 0.2650
v 0.1500 -0.0560 0.2650
v 0.1500 -0.0340 0.2650
v 0.1500 -0.0120 0.2650
v 0.1500 0.0100 0.2650
v -0.1500 0.0100 0.2650
v -0.1500 0.0100 0.2680
v -0.1500 0.0100 0.2710
v -0.1500 0.0100 0.2740
v -0.1500 0.0100 0.2770
v -0.1500 0.0100 0.2800
v -0.1500 0.0100 0.2830
v -0.1500 0.0100 0.2860
v -0.1500 0.0100 0.2890
v -0.1500 0.0100 0.2920
v -0.1500 0.0100 0.2950
v -0.1200 0.0100 0.2650
v -0.1200 0.0100 0.2680
v -0.1200 0.0100 0.2710
v -0.1200 0.0100 0.2740
v -0.1200 0.0100 0.2770
v -0.1200 0.0100 0.2800
v -0.1200 0.0100 0.2830
v -0.1200 0.0100 0.2860
v -0.1200 0.0100 0.2890
v -0.1200 0.0100 0.2920
v -0.1200 0.0100 0.2950
v -0.0900 0.0100 0.2650
v -0.0900 0.0100 0.2680
v -0.0900 0.0100 0.2710
v -0.0900 0.0100 0.2740
v -0.0900 0.0100 0.2770
v -0.0900 0.0100 0.2800
v -0.0900 0.0100 0.2830
v -0.0900 0.0100 0.2860
v -0.0900 0.0100 0.2890
v -0.0900 0.0100 0.2920
v -0.0900 0.0100 0.2950
v -0.0600 0.0100 0.2650
v -0.0600 0.0100 0.2680
v -0.0600 0.0100 0.2710
v -0.0600 0.0100 0.2740
v -0.0600 0.0100 0.2770
v -0.0600 0.0100 0.2800
v -0.0600 0.0100 0.2830
v -0.0600 0.0100 0.2860
v -0.0600 0.0100 0.2890
v -0.0600 0.0100 0.2920
v -0.0600 0.0100 0.2950
v -0.0300 0.0100 0.2650
v -0.0300 0.0100 0.2680
v -0.0300 0.0100 0.2710
v -0.0300 0.0100 0.2740
v -0.0300 0.0100 0.2770
v -0.0300 0.0100 0.2800
v -0.0300 0.0100 0.2830
v -0.0300 0.0100 0.2860
v -0.0300 0.0100 0.2890
v -0.0300 0.0100 0.2920
v -0.0300 0.0100 0.2950
v 0.0000 0.0100 0.2650
v 0.0000 0.0100 0.2680
v 0.0000 0.0100 0.2710
v 0.0000 0.0100 0.2740
v 0.0000 0.0100 0.2770
v 0.0000 0.0100 0.2800
v 0.0000 0.0100 0.2830
v 0.0000 0.0100 0.2860
v 0.0000 0.0100 0.2890
v 0.0000 0.0100 0.2920
v 0.0000 0.0100 0.2950
v 0.0300 0.0100 0.2650
v 0.0300 0.0100 0.2680
v 0.0300 0.0100 0.2710
v 0.0300 0.0100 0.2740
v 0.0300 0.0100 0.2770
v 0.0300 0.0100 0.2800
v 0.0300 0.0100 0.2830
v 0.0300 0.0100 0.2860
v 0.0300 0.0100 0.2890
v 0.0300 0.0100 0.2920
v 0.0300 0.0100 0.2950
v 0.0600 0.0100 0.2650
v 0.0600 0.0100 0.2680
v 0.0600 0.0100 0.2710
v 0.0600 0.0100 0.2740
v 0.0600 0.0100 0.2770
v 0.0600 0.0100 0.2800
v 0.0600 0.0100 0.2830
v 0.0600 0.0100 0.2860
v 0.0600 0.0100 0.2890
v 0.0600 0.0100 0.2920
v 0.0600 0.0100 0.2950
v 0.0900 0.0100 0.2650
v 0.0900 0.0100 0.2680
v 0.0900 0.0100 0.2710
v 0.0900 0.0100 0.2740
v 0.0900 0.0100 0.2770
v 0.0900 0.0100 0.2800
v 0.0900 0.0100 0.2830
v 0.0900 0.0100 0.2860
v 0.0900 0.0100 0.2890
v 0.0900 0.0100 0.2920
v 0.0900 0.0100 0.2950
v 0.1200 0.0100 0.2650
v 0.1200 0.0100 0.2680
v 0.1200 0.0100 0.2710
v 0.1200 0.0100 0.2740
v 0.1200 0.0100 0.2770
v 0.1200 0.0100 0.2800
v 0.1200 0.0100 0.2830
v 0.1200 0.0100 0.2860
v 0.1200 0.0100 0.2890
v 0.1200 0.0100 0.2920
v 0.1200 0.0100 0.2950
v 0.1500 0.0100 0.2650
v 0.1500 0.0100 0.2680
v 0.1500 0.0100 0.2710
v 0.1500 0.0100 0.2740
v 0.1500 0.0100 0.2770
v 0.1500 0.0100 0.2800
v 0.1500 0.0100 0.2830
v 0.1500 0.0100 0.2860
v 0.1500 0.0100 0.2890
v 0.1500 0.0100 0.2920
v 0.1500 0.0100 0.2950
v -0.1500 -0.2100 0.2950
v -0.1500 -0.2100 0.2920
v -0.1500 -0.2100 0.2890
v -0.1500 -0.2100 0.2860
v -0.1500 -0.2100 0.2830
v -0.1500 -0.2100 0.2800
v -0.1500 -0.2100 0.2770
v -0.1500 -0.2100 0.2740
v -0.1500 -0.2100 0.2710
v -0.1500 -0.2100 0.2680
v -0.1500 -0.2100 0.2650
v -0.1200 -0.2100 0.2950
v -0.1200 -0.2100 0.2920
v -0.1200 -0.2100 0.2890
v -0.1200 -0.2100 0.2860
v -0.1200 -0.2100 0.2830
v -0.1200 -0.2100 0.2800
v -0.1200 -0.2100 0.2770
v -0.1200 -0.2100 0.2740
v -0.1200 -0.2100 0.2710
v -0.1200 -0.2100 0.2680
v -0.1200 -0.2100 0.2650
v -0.0900 -0.2100 0.2950
v -0.0900 -0.2100 0.2920
v -0.0900 -0.2100 0.2890
v -0.0900 -0.2100 0.2860
v -0.0900 -0.2100 0.2830
v -0.0900 -0.2100 0.2800
v -0.0900 -0.2100 0.2770
v -0.0900 -0.2100 0.2740
v -0.0900 -0.2100 0.2710
v -0.0900 -0.2100 0.2680
v -0.0900 -0.2100 0.2650
v -0.0600 -0.2100 0.2950
v -0.0600 -0.2100 0.2920
v -0.0600 -0.2100 0.2890
v -0.0600 -0.2100 0.2860
v -0.0600 -0.2100 0.2830
v -0.0600 -0.2100 0.2800
v -0.0600 -0.2100 0.2770
v -0.0600 -0.2100 0.2740
v -0.0600 -0.2100 0.2710
v -0.0600 -0.2100 0.2680
v -0.0600 -0.2100 0.2650
v -0.0300 -0.2100 0.2950
v -0.0300 -0.2100 0.2920
v -0.0300 -0.2100 0.2890
v -0.0300 -0.2100 0.2860
v -0.0300 -0.2100 0.2830
v -0.0300 -0.2100 0.2800
v -0.0300 -0.2100 0.2770
v -0.0300 -0.2100 0.2740
v -0.0300 -0.2100 0.2710
v -0.0300 -0.2100 0.2680
v -0.0300 -0.2100 0.2650
v 0.0000 -0.2100 0.2950
v 0.0000 -0.2100 0.2920
v 0.0000 -0.2100 0.2890
v 0.0000 -0.2100 0.2860
v 0.0000 -0.2100 0.2830
v 0.0000 -0.2100 0.2800
v 0.0000 -0.2100 0.2770
v 0.0000 -0.2100 0.2740
v 0.0000 -0.2100 0.2710
v 0.0000 -0.2100 0.2680
v 0.0000 -0.2100 0.2650
v 0.0300 -0.2100 0.2950
v 0.0300 -0.2100 0.2920
v 0.0300 -0.2100 0.2890
v 0.0300 -0.2100 0.2860
v 0.0300 -0.2100 0.2830
v 0.0300 -0.2100 0.2800
v 0.0300 -0.2100 0.2770
v 0.0300 -0.2100 0.2740
v 0.0300 -0.2100 0.2710
v 0.0300 -0.2100 0.2680
v 0.0300 -0.2100 0.2650
v 0.0600 -0.2100 0.2950
v 0.0600 -0.2100 0.2920
v 0.0600 -0.2100 0.2890
v 0.0600 -0.2100 0.2860
v 0.0600 -0.2100 0.2830
v 0.0600 -0.2100 0.2800
v 0.0600 -0.2100 0.2770
v 0.0600 -0.2100 0.2740
v 0.0600 -0.2100 0.2710
v 0.0600 -0.2100 0.2680
v 0.0600 -0.2100 0.2650
v 0.0900 -0.2100 0.2950
v 0.0900 -0.2100 0.2920
v 0.0900 -0.2100 0.2890
v 0.0900 -0.2100 0.2860
v 0.0900 -0.2100 0.2830
v 0.0900 -0.2100 0.2800
v 0.0900 -0.2100 0.2770
v 0.0900 -0.2100 0.2740
v 0.0900 -0.2100 0.2710
v 0.0900 -0.2100 0.2680
v 0.0900 -0.2100 0.2650
v 0.1200 -0.2100 0.2950
v 0.1200 -0.2100 0.2920
v 0.1200 -0.2100 0.2890
v 0.1200 -0.2100 0.2860
v 0.1200 -0.2100 0.2830
v 0.1200 -0.2100 0.2800
v 0.1200 -0.2100 0.2770
v 0.1200 -0.2100 0.2740
v 0.1200 -0.2100 0.2710
v 0.1200 -0.2100 0.2680
v 0.1200 -0.2100 0.2650
v 0.1500 -0.2100 0.2950
v 0.1500 -0.2100 0.2920
v 0.1500 -0.2100 0.2890
v 0.1500 -0.2100 0.2860
v 0.1500 -0.2100 0.2830
v 0.1500 -0.2100 0.2800
v 0.1500 -0.2100 0.2770
v 0.1500 -0.2100 0.2740
v 0.1500 -0.2100 0.2710
v 0.1500 -0.2100 0.2680
v 0.1500 -0.2100 0.2650
f 1 3 4
f 1 4 2
f 3 5 6
f 3 6 4
f 5 7 8
f 5 8 6
f 7 9 10
f 7 10 8
f 9 11 12
f 9 12 10
f 11 13 14
f 11 14 12
f 13 15 16
f 13 16 14
f 15 17 18
f 15 18 16
f 17 19 20
f 17 20 18
f 19 21 22
f 19 22 20
f 21 23 24
f 21 24 22
f 23 25 26
f 23 26 24
f 25 27 28
f 25 28 26
f 27 29 30
f 27 30 28
f 29 31 32
f 29 32 30
f 31 33 34
f 31 34 32
f 33 35 36
f 33 36 34
f 35 37 38
f 35 38 36
f 37 39 40
f 37 40 38
f 39 41 42
f 39 42 40
f 41 43 44
f 41 44 42
f 43 45 46
f 43 46 44
f 45 47 48
f 45 48 46
f 47 49 50
f 47 50 48
f 49 51 52
f 49 52 50
f 51 53 54
f 51 54 52
f 53 55 56
f 53 56 54
f 55 57 58
f 55 58 56
f 57 59 60
f 57 60 58
f 59 61 62
f 59 62 60
f 61 63 64
f 61 64 62
f 63 65 66
f 63 66 64
f 65 67 68
f 65 68 66
f 67 69 70
f 67 70 68
f 69 71 72
f 69 72 70
f 71 73 74
f 71 74 72
f 73 75 76
f 73 76 74
f 75 77 78
f 75 78 76
f 77 79 80
f 77 80 78
f 79 1 2
f 79 2 80
f 81 2 4
f 82 3 1
f 81 4 6
f 82 5 3
f 81 6 8
f 82 7 5
f 81 8 10
f 82 9 7
f 81 10 12
f 82 11 9
f 81 12 14
f 82 13 11
f 81 14 16
f 82 15 13
f 81 16 18
f 82 17 15
f 81 18 20
f 82 19 17
f 81 20 22
f 82 21 19
f 81 22 24
f 82 23 21
f 81 24 26
f 82 25 23
f 81 26 28
f 82 27 25
f 81 28 30
f 82 29 27
f 81 30 32
f 82 31 29
f 81 32 34
f 82 33 31
f 81 34 36
f 82 35 33
f 81 36 38
f 82 37 35
f 81 38 40
f 82 39 37
f 81 40 42
f 82 41 39
f 81 42 44
f 82 43 41
f 81 44 46
f 82 45 43
f 81 46 48
f 82 47 45
f 81 48 50
f 82 49 47
f 81 50 52
f 82 51 49
f 81 52 54
f 82 53 51
f 81 54 56
f 82 55 53
f 81 56 58
f 82 57 55
f 81 58 60
f 82 59 57
f 81 60 62
f 82 61 59
f 81 62 64
f 82 63 61
f 81 64 66
f 82 65 63
f 81 66 68
f 82 67 65
f 81 68 70
f 82 69 67
f 81 70 72
f 82 71 69
f 81 72 74
f 82 73 71
f 81 74 76
f 82 75 73
f 81 76 78
f 82 77 75
f 81 78 80
f 82 79 77
f 81 80 2
f 82 1 79
f 83 85 86
f 83 86 84
f 85 87 88
f 85 88 86
f 87 89 90
f 87 90 88
f 89 91 92
f 89 92 90
f 91 93 94
f 91 94 92
f 93 95 96
f 93 96 94
f 95 97 98
f 95 98 96
f 97 99 100
f 97 100 98
f 99 101 102
f 99 102 100
f 101 103 104
f 101 104 102
f 103 105 106
f 103 106 104
f 105 107 108
f 105 108 106
f 107 109 110
f 107 110 108
f 109 111 112
f 109 112 110
f 111 113 114
f 111 114 112
f 113 115 116
f 113 116 114
f 115 117 118
f 115 118 116
f 117 119 120
f 117 120 118
f 119 121 122
f 119 122 120
f 121 123 124
f 121 124 122
f 123 125 126
f 123 126 124
f 125 127 128
f 125 128 126
f 127 129 130
f 127 130 128
f 129 131 132
f 129 132 130
f 131 133 134
f 131 134 132
f 133 135 136
f 133 136 134
f 135 137 138
f 135 138 136
f 137 139 140
f 137 140 138
f 139 141 142
f 139 142 140
f 141 83 84
f 141 84 142
f 143 84 86
f 144 85 83
f 143 86 88
f 144 87 85
f 143 88 90
f 144 89 87
f 143 90 92
f 144 91 89
f 143 92 94
f 144 93 91
f 143 94 96
f 144 95 93
f 143 96 98
f 144 97 95
f 143 98 100
f 144 99 97
f 143 100 102
f 144 101 99
f 143 102 104
f 144 103 101
f 143 104 106
f 144 105 103
f 143 106 108
f 144 107 105
f 143 108 110
f 144 109 107
f 143 110 112
f 144 111 109
f 143 112 114
f 144 113 111
f 143 114 116
f 144 115 113
f 143 116 118
f 144 117 115
f 143 118 120
f 144 119 117
f 143 120 122
f 144 121 119
f 143 122 124
f 144 123 121
f 143 124 126
f 144 125 123
f 143 126 128
f 144 127 125
f 143 128 130
f 144 129 127
f 143 130 132
f 144 131 129
f 143 132 134
f 144 133 131
f 143 134 136
f 144 135 133
f 143 136 138
f 144 137 135
f 143 138 140
f 144 139 137
f 143 140 142
f 144 141 139
f 143 142 84
f 144 83 141
f 145 146 157
f 145 157 156
f 146 147 158
f 146 158 157
f 147 148 159
f 147 159 158
f 148 149 160
f 148 160 159
f 149 150 161
f 149 161 160
f 150 151 162
f 150 162 161
f 151 152 163
f 151 163 162
f 152 153 164
f 152 164 163
f 153 154 165
f 153 165 164
f 154 155 166
f 154 166 165
f 156 157 168
f 156 168 167
f 157 158 169
f 157 169 168
f 158 159 170
f 158 170 169
f 159 160 171
f 159 171 170
f 160 161 172
f 160 172 171
f 161 162 173
f 161 173 172
f 162 163 174
f 162 174 173
f 163 164 175
f 163 175 174
f 164 165 176
f 164 176 175
f 165 166 177
f 165 177 176
f 167 168 179
f 167 179 178
f 168 169 180
f 168 180 179
f 169 170 181
f 169 181 180
f 170 171 182
f 170 182 181
f 171 172 183
f 171 183 182
f 172 173 184
f 172 184 183
f 173 174 185
f 173 185 184
f 174 175 186
f 174 186 185
f 175 176 187
f 175 187 186
f 176 177 188
f 176 188 187
f 178 179 190
f 178 190 189
f 179 180 191
f 179 191 190
f 180 181 192
f 180 192 191
f 181 182 193
f 181 193 192
f 182 183 194
f 182 194 193
f 183 184 195
f 183 195 194
f 184 185 196
f 184 196 195
f 185 186 197
f 185 197 196
f 186 187 198
f 186 198 197
f 187 188 199
f 187 199 198
f 189 190 201
f 189 201 200
f 190 191 202
f 190 202 201
f 191 192 203
f 191 203 202
f 192 193 204
f 192 204 203
f 193 194 205
f 193 205 204
f 194 195 206
f 194 206 205
f 195 196 207
f 195 207 206
f 196 197 208
f 196 208 207
f 197 198 209
f 197 209 208
f 198 199 210
f 198 210 209
f 200 201 212
f 200 212 211
f 201 202 213
f 201 213 212
f 202 203 214
f 202 214 213
f 203 204 215
f 203 215 214
f 204 205 216
f 204 216 215
f 205 206 217
f 205 217 216
f 206 207 218
f 206 218 217
f 207 208 219
f 207 219 218
f 208 209 220
f 208 220 219
f 209 210 221
f 209 221 220
f 211 212 223
f 211 223 222
f 212 213 224
f 212 224 223
f 213 214 225
f 213 225 224
f 214 215 226
f 214 226 225
f 215 216 227
f 215 227 226
f 216 217 228
f 216 228 227
f 217 218 229
f 217 229 228
f 218 219 230
f 218 230 229
f 219 220 231
f 219 231 230
f 220 221 232
f 220 232 231
f 222 223 234
f 222 234 233
f 223 224 235
f 223 235 234
f 224 225 236
f 224 236 235
f 225 226 237
f 225 237 236
f 226 227 238
f 226 238 237
f 227 228 239
f 227 239 238
f 228 229 240
f 228 240 239
f 229 230 241
f 229 241 240
f 230 231 242
f 230 242 241
f 231 232 243
f 231 243 242
f 233 234 245
f 233 245 244
f 234 235 246
f 234 246 245
f 235 236 247
f 235 247 246
f 236 237 248
f 236 248 247
f 237 238 249
f 237 249 248
f 238 239 250
f 238 250 249
f 239 240 251
f 239 251 250
f 240 241 252
f 240 252 251
f 241 242 253
f 241 253 252
f 242 243 254
f 242 254 253
f 244 245 256
f 244 256 255
f 245 246 257
f 245 257 256
f 246 247 258
f 246 258 257
f 247 248 259
f 247 259 258
f 248 249 260
f 248 260 259
f 249 250 261
f 249 261 260
f 250 251 262
f 250 262 261
f 251 252 263
f 251 263 262
f 252 253 264
f 252 264 263
f 253 254 265
f 253 265 264
f 266 267 278
f 266 278 277
f 267 268 279
f 267 279 278
f 268 269 280
f 268 280 279
f 269 270 281
f 269 281 280
f 270 271 282
f 270 282 281
f 271 272 283
f 271 283 282
f 272 273 284
f 272 284 283
f 273 274 285
f 273 285 284
f 274 275 286
f 274 286 285
f 275 276 287
f 275 287 286
f 277 278 289
f 277 289 288
f 278 279 290
f 278 290 289
f 279 280 291
f 279 291 290
f 280 281 292
f 280 292 291
f 281 282 293
f 281 293 292
f 282 283 294
f 282 294 293
f 283 284 295
f 283 295 294
f 284 285 296
f 284 296 295
f 285 286 297
f 285 297 296
f 286 287 298
f 286 298 297
f 288 289 300
f 288 300 299
f 289 290 301
f 289 301 300
f 290 291 302
f 290 302 301
f 291 292 303
f 291 303 302
f 292 293 304
f 292 304 303
f 293 294 305
f 293 305 304
f 294 295 306
f 294 306 305
f 295 296 307
f 295 307 306
f 296 297 308
f 296 308 307
f 297 298 309
f 297 309 308
f 299 300 311
f 299 311 310
f 300 301 312
f 300 312 311
f 301 302 313
f 301 313 312
f 302 303 314
f 302 314 313
f 303 304 315
f 303 315 314
f 304 305 316
f 304 316 315
f 305 306 317
f 305 317 316
f 306 307 318
f 306 318 317
f 307 308 319
f 307 319 318
f 308 309 320
f 308 320 319
f 310 311 322
f 310 322 321
f 311 312 323
f 311 323 322
f 312 313 324
f 312 324 323
f 313 314 325
f 313 325 324
f 314 315 326
f 314 326 325
f 315 316 327
f 315 327 326
f 316 317 328
f 316 328 327
f 317 318 329
f 317 329 328
f 318 319 330
f 318 330 329
f 319 320 331
f 319 331 330
f 321 322 333
f 321 333 332
f 322 323 334
f 322 334 333
f 323 324 335
f 323 335 334
f 324 325 336
f 324 336 335
f 325 326 337
f 325 337 336
f 326 327 338
f 326 338 337
f 327 328 339
f 327 339 338
f 328 329 340
f 328 340 339
f 329 330 341
f 329 341 340
f 330 331 342
f 330 342 341
f 332 333 344
f 332 344 343
f 333 334 345
f 333 345 344
f 334 335 346
f 334 346 345
f 335 336 347
f 335 347 346
f 336 337 348
f 336 348 347
f 337 338 349
f 337 349 348
f 338 339 350
f 338 350 349
f 339 340 351
f 339 351 350
f 340 341 352
f 340 352 351
f 341 342 353
f 341 353 352
f 343 344 355
f 343 355 354
f 344 345 356
f 344 356 355
f 345 346 357
f 345 357 356
f 346 347 358
f 346 358 357
f 347 348 359
f 347 359 358
f 348 349 360
f 348 360 359
f 349 350 361
f 349 361 360
f 350 351 362
f 350 362 361
f 351 352 363
f 351 363 362
f 352 353 364
f 352 364 363
f 354 355 366
f 354 366 365
f 355 356 367
f 355 367 366
f 356 357 368
f 356 368 367
f 357 358 369
f 357 369 368
f 358 359 370
f 358 370 369
f 359 360 371
f 359 371 370
f 360 361 372
f 360 372 371
f 361 362 373
f 361 373 372
f 362 363 374
f 362 374 373
f 363 364 375
f 363 375 374
f 365 366 377
f 365 377 376
f 366 367 378
f 366 378 377
f 367 368 379
f 367 379 378
f 368 369 380
f 368 380 379
f 369 370 381
f 369 381 380
f 370 371 382
f 370 382 381
f 371 372 383
f 371 383 382
f 372 373 384
f 372 384 383
f 373 374 385
f 373 385 384
f 374 375 386
f 374 386 385
f 387 388 399
f 387 399 398
f 388 389 400
f 388 400 399
f 389 390 401
f 389 401 400
f 390 391 402
f 390 402 401
f 391 392 403
f 391 403 402
f 392 393 404
f 392 404 403
f 393 394 405
f 393 405 404
f 394 395 406
f 394 406 405
f 395 396 407
f 395 407 406
f 396 397 408
f 396 408 407
f 398 399 410
f 398 410 409
f 399 400 411
f 399 411 410
f 400 401 412
f 400 412 411
f 401 402 413
f 401 413 412
f 402 403 414
f 402 414 413
f 403 404 415
f 403 415 414
f 404 405 416
f 404 416 415
f 405 406 417
f 405 417 416
f 406 407 418
f 406 418 417
f 407 408 419
f 407 419 418
f 409 410 421
f 409 421 420
f 410 411 422
f 410 422 421
f 411 412 423
f 411 423 422
f 412 413 424
f 412 424 423
f 413 414 425
f 413 425 424
f 414 415 426
f 414 426 425
f 415 416 427
f 415 427 426
f 416 417 428
f 416 428 427
f 417 418 429
f 417 429 428
f 418 419 430
f 418 430 429
f 420 421 432
f 420 432 431
f 421 422 433
f 421 433 432
f 422 423 434
f 422 434 433
f 423 424 435
f 423 435 434
f 424 425 436
f 424 436 435
f 425 426 437
f 425 437 436
f 426 427 438
f 426 438 437
f 427 428 439
f 427 439 438
f 428 429 440
f 428 440 439
f 429 430 441
f 429 441 440
f 431 432 443
f 431 443 442
f 432 433 444
f 432 444 443
f 433 434 445
f 433 445 444
f 434 435 446
f 434 446 445
f 435 436 447
f 435 447 446
f 436 437 448
f 436 448 447
f 437 438 449
f 437 449 448
f 438 439 450
f 438 450 449
f 439 440 451
f 439 451 450
f 440 441 452
f 440 452 451
f 442 443 454
f 442 454 453
f 443 444 455
f 443 455 454
f 444 445 456
f 444 456 455
f 445 446 457
f 445 457 456
f 446 447 458
f 446 458 457
f 447 448 459
f 447 459 458
f 448 449 460
f 448 460 459
f 449 450 461
f 449 461 460
f 450 451 462
f 450 462 461
f 451 452 463
f 451 463 462
f 453 454 465
f 453 465 464
f 454 455 466
f 454 466 465
f 455 456 467
f 455 467 466
f 456 457 468
f 456 468 467
f 457 458 469
f 457 469 468
f 458 459 470
f 458 470 469
f 459 460 471
f 459 471 470
f 460 461 472
f 460 472 471
f 461 462 473
f 461 473 472
f 462 463 474
f 462 474 473
f 464 465 476
f 464 476 475
f 465 466 477
f 465 477 476
f 466 467 478
f 466 478 477
f 467 468 479
f 467 479 478
f 468 469 480
f 468 480 479
f 469 470 481
f 469 481 480
f 470 471 482
f 470 482 481
f 471 472 483
f 471 483 482
f 472 473 484
f 472 484 483
f 473 474 485
f 473 485 484
f 475 476 487
f 475 487 486
f 476 477 488
f 476 488 487
f 477 478 489
f 477 489 488
f 478 479 490
f 478 490 489
f 479 480 491
f 479 491 490
f 480 481 492
f 480 492 491
f 481 482 493
f 481 493 492
f 482 483 494
f 482 494 493
f 483 484 495
f 483 495 494
f 484 485 496
f 484 496 495
f 486 487 498
f 486 498 497
f 487 488 499
f 487 499 498
f 488 489 500
f 488 500 499
f 489 490 501
f 489 501 500
f 490 491 502
f 490 502 501
f 491 492 503
f 491 503 502
f 492 493 504
f 492 504 503
f 493 494 505
f 493 505 504
f 494 495 506
f 494 506 505
f 495 496 507
f 495 507 506
f 508 509 520
f 508 520 519
f 509 510 521
f 509 521 520
f 510 511 522
f 510 522 521
f 511 512 523
f 511 523 522
f 512 513 524
f 512 524 523
f 513 514 525
f 513 525 524
f 514 515 526
f 514 526 525
f 515 516 527
f 515 527 526
f 516 517 528
f 516 528 527
f 517 518 529
f 517 529 528
f 519 520 531
f 519 531 530
f 520 521 532
f 520 532 531
f 521 522 533
f 521 533 532
f 522 523 534
f 522 534 533
f 523 524 535
f 523 535 534
f 524 525 536
f 524 536 535
f 525 526 537
f 525 537 536
f 526 527 538
f 526 538 537
f 527 528 539
f 527 539 538
f 528 529 540
f 528 540 539
f 530 531 542
f 530 542 541
f 531 532 543
f 531 543 542
f 532 533 544
f 532 544 543
f 533 534 545
f 533 545 544
f 534 535 546
f 534 546 545
f 535 536 547
f 535 547 546
f 536 537 548
f 536 548 547
f 537 538 549
f 537 549 548
f 538 539 550
f 538 550 549
f 539 540 551
f 539 551 550
f 541 542 553
f 541 553 552
f 542 543 554
f 542 554 553
f 543 544 555
f 543 555 554
f 544 545 556
f 544 556 555
f 545 546 557
f 545 557 556
f 546 547 558
f 546 558 557
f 547 548 559
f 547 559 558
f 548 549 560
f 548 560 559
f 549 550 561
f 549 561 560
f 550 551 562
f 550 562 561
f 552 553 564
f 552 564 563
f 553 554 565
f 553 565 564
f 554 555 566
f 554 566 565
f 555 556 567
f 555 567 566
f 556 557 568
f 556 568 567
f 557 558 569
f 557 569 568
f 558 559 570
f 558 570 569
f 559 560 571
f 559 571 570
f 560 561 572
f 560 572 571
f 561 562 573
f 561 573 572
f 563 564 575
f 563 575 574
f 564 565 576
f 564 576 575
f 565 566 577
f 565 577 576
f 566 567 578
f 566 578 577
f 567 568 579
f 567 579 578
f 568 569 580
f 568 580 579
f 569 570 581
f 569 581 580
f 570 571 582
f 570 582 581
f 571 572 583
f 571 583 582
f 572 573 584
f 572 584 583
f 574 575 586
f 574 586 585
f 575 576 587
f 575 587 586
f 576 577 588
f 576 588 587
f 577 578 589
f 577 589 588
f 578 579 590
f 578 590 589
f 579 580 591
f 579 591 590
f 580 581 592
f 580 592 591
f 581 582 593
f 581 593 592
f 582 583 594
f 582 594 593
f 583 584 595
f 583 595 594
f 585 586 597
f 585 597 596
f 586 587 598
f 586 598 597
f 587 588 599
f 587 599 598
f 588 589 600
f 588 600 599
f 589 590 601
f 589 601 600
f 590 591 602
f 590 602 601
f 591 592 603
f 591 603 602
f 592 593 604
f 592 604 603
f 593 594 605
f 593 605 604
f 594 595 606
f 594 606 605
f 596 597 608
f 596 608 607
f 597 598 609
f 597 609 608
f 598 599 610
f 598 610 609
f 599 600 611
f 599 611 610
f 600 601 612
f 600 612 611
f 601 602 613
f 601 613 612
f 602 603 614
f 602 614 613
f 603 604 615
f 603 615 614
f 604 605 616
f 604 616 615
f 605 606 617
f 605 617 616
f 607 608 619
f 607 619 618
f 608 609 620
f 608 620 619
f 609 610 621
f 609 621 620
f 610 611 622
f 610 622 621
f 611 612 623
f 611 623 622
f 612 613 624
f 612 624 623
f 613 614 625
f 613 625 624
f 614 615 626
f 614 626 625
f 615 616 627
f 615 627 626
f 616 617 628
f 616 628 627
f 629 630 641
f 629 641 640
f 630 631 642
f 630 642 641
f 631 632 643
f 631 643 642
f 632 633 644
f 632 644 643
f 633 634 645
f 633 645 644
f 634 635 646
f 634 646 645
f 635 636 647
f 635 647 646
f 636 637 648
f 636 648 647
f 637 638 649
f 637 649 648
f 638 639 650
f 638 650 649
f 640 641 652
f 640 652 651
f 641 642 653
f 641 653 652
f 642 643 654
f 642 654 653
f 643 644 655
f 643 655 654
f 644 645 656
f 644 656 655
f 645 646 657
f 645 657 656
f 646 647 658
f 646 658 657
f 647 648 659
f 647 659 658
f 648 649 660
f 648 660 659
f 649 650 661
f 649 661 660
f 651 652 663
f 651 663 662
f 652 653 664
f 652 664 663
f 653 654 665
f 653 665 664
f 654 655 666
f 654 666 665
f 655 656 667
f 655 667 666
f 656 657 668
f 656 668 667
f 657 658 669
f 657 669 668
f 658 659 670
f 658 670 669
f 659 660 671
f 659 671 670
f 660 661 672
f 660 672 671
f 662 663 674
f 662 674 673
f 663 664 675
f 663 675 674
f 664 665 676
f 664 676 675
f 665 666 677
f 665 677 676
f 666 667 678
f 666 678 677
f 667 668 679
f 667 679 678
f 668 669 680
f 668 680 679
f 669 670 681
f 669 681 680
f 670 671 682
f 670 682 681
f 671 672 683
f 671 683 682
f 673 674 685
f 673 685 684
f 674 675 686
f 674 686 685
f 675 676 687
f 675 687 686
f 676 677 688
f 676 688 687
f 677 678 689
f 677 689 688
f 678 679 690
f 678 690 689
f 679 680 691
f 679 691 690
f 680 681 692
f 680 692 691
f 681 682 693
f 681 693 692
f 682 683 694
f 682 694 693
f 684 685 696
f 684 696 695
f 685 686 697
f 685 697 696
f 686 687 698
f 686 698 697
f 687 688 699
f 687 699 698
f 688 689 700
f 688 700 699
f 689 690 701
f 689 701 700
f 690 691 702
f 690 702 701
f 691 692 703
f 691 703 702
f 692 693 704
f 692 704 703
f 693 694 705
f 693 705 704
f 695 696 707
f 695 707 706
f 696 697 708
f 696 708 707
f 697 698 709
f 697 709 708
f 698 699 710
f 698 710 709
f 699 700 711
f 699 711 710
f 700 701 712
f 700 712 711
f 701 702 713
f 701 713 712
f 702 703 714
f 702 714 713
f 703 704 715
f 703 715 714
f 704 705 716
f 704 716 715
f 706 707 718
f 706 718 717
f 707 708 719
f 707 719 718
f 708 709 720
f 708 720 719
f 709 710 721
f 709 721 720
f 710 711 722
f 710 722 721
f 711 712 723
f 711 723 722
f 712 713 724
f 712 724 723
f 713 714 725
f 713 725 724
f 714 715 726
f 714 726 725
f 715 716 727
f 715 727 726
f 717 718 729
f 717 729 728
f 718 719 730
f 718 730 729
f 719 720 731
f 719 731 730
f 720 721 732
f 720 732 731
f 721 722 733
f 721 733 732
f 722 723 734
f 722 734 733
f 723 724 735
f 723 735 734
f 724 725 736
f 724 736 735
f 725 726 737
f 725 737 736
f 726 727 738
f 726 738 737
f 728 729 740
f 728 740 739
f 729 730 741
f 729 741 740
f 730 731 742
f 730 742 741
f 731 732 743
f 731 743 742
f 732 733 744
f 732 744 743
f 733 734 745
f 733 745 744
f 734 735 746
f 734 746 745
f 735 736 747
f 735 747 746
f 736 737 748
f 736 748 747
f 737 738 749
f 737 749 748
f 750 751 762
f 750 762 761
f 751 752 763
f 751 763 762
f 752 753 764
f 752 764 763
f 753 754 765
f 753 765 764
f 754 755 766
f 754 766 765
f 755 756 767
f 755 767 766
f 756 757 768
f 756 768 767
f 757 758 769
f 757 769 768
f 758 759 770
f 758 770 769
f 759 760 771
f 759 771 770
f 761 762 773
f 761 773 772
f 762 763 774
f 762 774 773
f 763 764 775
f 763 775 774
f 764 765 776
f 764 776 775
f 765 766 777
f 765 777 776
f 766 767 778
f 766 778 777
f 767 768 779
f 767 779 778
f 768 769 780
f 768 780 779
f 769 770 781
f 769 781 780
f 770 771 782
f 770 782 781
f 772 773 784
f 772 784 783
f 773 774 785
f 773 785 784
f 774 775 786
f 774 786 785
f 775 776 787
f 775 787 786
f 776 777 788
f 776 788 787
f 777 778 789
f 777 789 788
f 778 779 790
f 778 790 789
f 779 780 791
f 779 791 790
f 780 781 792
f 780 792 791
f 781 782 793
f 781 793 792
f 783 784 795
f 783 795 794
f 784 785 796
f 784 796 795
f 785 786 797
f 785 797 796
f 786 787 798
f 786 798 797
f 787 788 799
f 787 799 798
f 788 789 800
f 788 800 799
f 789 790 801
f 789 801 800
f 790 791 802
f 790 802 801
f 791 792 803
f 791 803 802
f 792 793 804
f 792 804 803
f 794 795 806
f 794 806 805
f 795 796 807
f 795 807 806
f 796 797 808
f 796 808 807
f 797 798 809
f 797 809 808
f 798 799 810
f 798 810 809
f 799 800 811
f 799 811 810
f 800 801 812
f 800 812 811
f 801 802 813
f 801 813 812
f 802 803 814
f 802 814 813
f 803 804 815
f 803 815 814
f 805 806 817
f 805 817 816
f 806 807 818
f 806 818 817
f 807 808 819
f 807 819 818
f 808 809 820
f 808 820 819
f 809 810 821
f 809 821 820
f 810 811 822
f 810 822 821
f 811 812 823
f 811 823 822
f 812 813 824
f 812 824 823
f 813 814 825
f 813 825 824
f 814 815 826
f 814 826 825
f 816 817 828
f 816 828 827
f 817 818 829
f 817 829 828
f 818 819 830
f 818 830 829
f 819 820 831
f 819 831 830
f 820 821 832
f 820 832 831
f 821 822 833
f 821 833 832
f 822 823 834
f 822 834 833
f 823 824 835
f 823 835 834
f 824 825 836
f 824 836 835
f 825 826 837
f 825 837 836
f 827 828 839
f 827 839 838
f 828 829 840
f 828 840 839
f 829 830 841
f 829 841 840
f 830 831 842
f 830 842 841
f 831 832 843
f 831 843 842
f 832 833 844
f 832 844 843
f 833 834 845
f 833 845 844
f 834 835 846
f 834 846 845
f 835 836 847
f 835 847 846
f 836 837 848
f 836 848 847
f 838 839 850
f 838 850 849
f 839 840 851
f 839 851 850
f 840 841 852
f 840 852 851
f 841 842 853
f 841 853 852
f 842 843 854
f 842 854 853
f 843 844 855
f 843 855 854
f 844 845 856
f 844 856 855
f 845 846 857
f 845 857 856
f 846 847 858
f 846 858 857
f 847 848 859
f 847 859 858
f 849 850 861
f 849 861 860
f 850 851 862
f 850 862 861
f 851 852 863
f 851 863 862
f 852 853 864
f 852 864 863
f 853 854 865
f 853 865 864
f 854 855 866
f 854 866 865
f 855 856 867
f 855 867 866
f 856 857 868
f 856 868 867
f 857 858 869
f 857 869 868
f 858 859 870
f 858 870 869
