# 공구함 — 블록아웃 (예산 1500 tris)
# 삼각형 1308 · 조각 1
# 생성: tools/blockout — 손으로 고치지 말 것, 생성기를 고칠 것
g toolChest
v -0.3500 -0.2500 0.2100
v -0.3500 -0.1875 0.2100
v -0.3500 -0.1250 0.2100
v -0.3500 -0.0625 0.2100
v -0.3500 0.0000 0.2100
v -0.3500 0.0625 0.2100
v -0.3500 0.1250 0.2100
v -0.3500 0.1875 0.2100
v -0.3500 0.2500 0.2100
v -0.2625 -0.2500 0.2100
v -0.2625 -0.1875 0.2100
v -0.2625 -0.1250 0.2100
v -0.2625 -0.0625 0.2100
v -0.2625 0.0000 0.2100
v -0.2625 0.0625 0.2100
v -0.2625 0.1250 0.2100
v -0.2625 0.1875 0.2100
v -0.2625 0.2500 0.2100
v -0.1750 -0.2500 0.2100
v -0.1750 -0.1875 0.2100
v -0.1750 -0.1250 0.2100
v -0.1750 -0.0625 0.2100
v -0.1750 0.0000 0.2100
v -0.1750 0.0625 0.2100
v -0.1750 0.1250 0.2100
v -0.1750 0.1875 0.2100
v -0.1750 0.2500 0.2100
v -0.0875 -0.2500 0.2100
v -0.0875 -0.1875 0.2100
v -0.0875 -0.1250 0.2100
v -0.0875 -0.0625 0.2100
v -0.0875 0.0000 0.2100
v -0.0875 0.0625 0.2100
v -0.0875 0.1250 0.2100
v -0.0875 0.1875 0.2100
v -0.0875 0.2500 0.2100
v 0.0000 -0.2500 0.2100
v 0.0000 -0.1875 0.2100
v 0.0000 -0.1250 0.2100
v 0.0000 -0.0625 0.2100
v 0.0000 0.0000 0.2100
v 0.0000 0.0625 0.2100
v 0.0000 0.1250 0.2100
v 0.0000 0.1875 0.2100
v 0.0000 0.2500 0.2100
v 0.0875 -0.2500 0.2100
v 0.0875 -0.1875 0.2100
v 0.0875 -0.1250 0.2100
v 0.0875 -0.0625 0.2100
v 0.0875 0.0000 0.2100
v 0.0875 0.0625 0.2100
v 0.0875 0.1250 0.2100
v 0.0875 0.1875 0.2100
v 0.0875 0.2500 0.2100
v 0.1750 -0.2500 0.2100
v 0.1750 -0.1875 0.2100
v 0.1750 -0.1250 0.2100
v 0.1750 -0.0625 0.2100
v 0.1750 0.0000 0.2100
v 0.1750 0.0625 0.2100
v 0.1750 0.1250 0.2100
v 0.1750 0.1875 0.2100
v 0.1750 0.2500 0.2100
v 0.2625 -0.2500 0.2100
v 0.2625 -0.1875 0.2100
v 0.2625 -0.1250 0.2100
v 0.2625 -0.0625 0.2100
v 0.2625 0.0000 0.2100
v 0.2625 0.0625 0.2100
v 0.2625 0.1250 0.2100
v 0.2625 0.1875 0.2100
v 0.2625 0.2500 0.2100
v 0.3500 -0.2500 0.2100
v 0.3500 -0.1875 0.2100
v 0.3500 -0.1250 0.2100
v 0.3500 -0.0625 0.2100
v 0.3500 0.0000 0.2100
v 0.3500 0.0625 0.2100
v 0.3500 0.1250 0.2100
v 0.3500 0.1875 0.2100
v 0.3500 0.2500 0.2100
v 0.3500 -0.2500 -0.2100
v 0.3500 -0.1875 -0.2100
v 0.3500 -0.1250 -0.2100
v 0.3500 -0.0625 -0.2100
v 0.3500 0.0000 -0.2100
v 0.3500 0.0625 -0.2100
v 0.3500 0.1250 -0.2100
v 0.3500 0.1875 -0.2100
v 0.3500 0.2500 -0.2100
v 0.2625 -0.2500 -0.2100
v 0.2625 -0.1875 -0.2100
v 0.2625 -0.1250 -0.2100
v 0.2625 -0.0625 -0.2100
v 0.2625 0.0000 -0.2100
v 0.2625 0.0625 -0.2100
v 0.2625 0.1250 -0.2100
v 0.2625 0.1875 -0.2100
v 0.2625 0.2500 -0.2100
v 0.1750 -0.2500 -0.2100
v 0.1750 -0.1875 -0.2100
v 0.1750 -0.1250 -0.2100
v 0.1750 -0.0625 -0.2100
v 0.1750 0.0000 -0.2100
v 0.1750 0.0625 -0.2100
v 0.1750 0.1250 -0.2100
v 0.1750 0.1875 -0.2100
v 0.1750 0.2500 -0.2100
v 0.0875 -0.2500 -0.2100
v 0.0875 -0.1875 -0.2100
v 0.0875 -0.1250 -0.2100
v 0.0875 -0.0625 -0.2100
v 0.0875 0.0000 -0.2100
v 0.0875 0.0625 -0.2100
v 0.0875 0.1250 -0.2100
v 0.0875 0.1875 -0.2100
v 0.0875 0.2500 -0.2100
v 0.0000 -0.2500 -0.2100
v 0.0000 -0.1875 -0.2100
v 0.0000 -0.1250 -0.2100
v 0.0000 -0.0625 -0.2100
v 0.0000 0.0000 -0.2100
v 0.0000 0.0625 -0.2100
v 0.0000 0.1250 -0.2100
v 0.0000 0.1875 -0.2100
v 0.0000 0.2500 -0.2100
v -0.0875 -0.2500 -0.2100
v -0.0875 -0.1875 -0.2100
v -0.0875 -0.1250 -0.2100
v -0.0875 -0.0625 -0.2100
v -0.0875 0.0000 -0.2100
v -0.0875 0.0625 -0.2100
v -0.0875 0.1250 -0.2100
v -0.0875 0.1875 -0.2100
v -0.0875 0.2500 -0.2100
v -0.1750 -0.2500 -0.2100
v -0.1750 -0.1875 -0.2100
v -0.1750 -0.1250 -0.2100
v -0.1750 -0.0625 -0.2100
v -0.1750 0.0000 -0.2100
v -0.1750 0.0625 -0.2100
v -0.1750 0.1250 -0.2100
v -0.1750 0.1875 -0.2100
v -0.1750 0.2500 -0.2100
v -0.2625 -0.2500 -0.2100
v -0.2625 -0.1875 -0.2100
v -0.2625 -0.1250 -0.2100
v -0.2625 -0.0625 -0.2100
v -0.2625 0.0000 -0.2100
v -0.2625 0.0625 -0.2100
v -0.2625 0.1250 -0.2100
v -0.2625 0.1875 -0.2100
v -0.2625 0.2500 -0.2100
v -0.3500 -0.2500 -0.2100
v -0.3500 -0.1875 -0.2100
v -0.3500 -0.1250 -0.2100
v -0.3500 -0.0625 -0.2100
v -0.3500 0.0000 -0.2100
v -0.3500 0.0625 -0.2100
v -0.3500 0.1250 -0.2100
v -0.3500 0.1875 -0.2100
v -0.3500 0.2500 -0.2100
v -0.3500 -0.2500 -0.2100
v -0.3500 -0.1875 -0.2100
v -0.3500 -0.1250 -0.2100
v -0.3500 -0.0625 -0.2100
v -0.3500 0.0000 -0.2100
v -0.3500 0.0625 -0.2100
v -0.3500 0.1250 -0.2100
v -0.3500 0.1875 -0.2100
v -0.3500 0.2500 -0.2100
v -0.3500 -0.2500 -0.1575
v -0.3500 -0.1875 -0.1575
v -0.3500 -0.1250 -0.1575
v -0.3500 -0.0625 -0.1575
v -0.3500 0.0000 -0.1575
v -0.3500 0.0625 -0.1575
v -0.3500 0.1250 -0.1575
v -0.3500 0.1875 -0.1575
v -0.3500 0.2500 -0.1575
v -0.3500 -0.2500 -0.1050
v -0.3500 -0.1875 -0.1050
v -0.3500 -0.1250 -0.1050
v -0.3500 -0.0625 -0.1050
v -0.3500 0.0000 -0.1050
v -0.3500 0.0625 -0.1050
v -0.3500 0.1250 -0.1050
v -0.3500 0.1875 -0.1050
v -0.3500 0.2500 -0.1050
v -0.3500 -0.2500 -0.0525
v -0.3500 -0.1875 -0.0525
v -0.3500 -0.1250 -0.0525
v -0.3500 -0.0625 -0.0525
v -0.3500 0.0000 -0.0525
v -0.3500 0.0625 -0.0525
v -0.3500 0.1250 -0.0525
v -0.3500 0.1875 -0.0525
v -0.3500 0.2500 -0.0525
v -0.3500 -0.2500 0.0000
v -0.3500 -0.1875 0.0000
v -0.3500 -0.1250 0.0000
v -0.3500 -0.0625 0.0000
v -0.3500 0.0000 0.0000
v -0.3500 0.0625 0.0000
v -0.3500 0.1250 0.0000
v -0.3500 0.1875 0.0000
v -0.3500 0.2500 0.0000
v -0.3500 -0.2500 0.0525
v -0.3500 -0.1875 0.0525
v -0.3500 -0.1250 0.0525
v -0.3500 -0.0625 0.0525
v -0.3500 0.0000 0.0525
v -0.3500 0.0625 0.0525
v -0.3500 0.1250 0.0525
v -0.3500 0.1875 0.0525
v -0.3500 0.2500 0.0525
v -0.3500 -0.2500 0.1050
v -0.3500 -0.1875 0.1050
v -0.3500 -0.1250 0.1050
v -0.3500 -0.0625 0.1050
v -0.3500 0.0000 0.1050
v -0.3500 0.0625 0.1050
v -0.3500 0.1250 0.1050
v -0.3500 0.1875 0.1050
v -0.3500 0.2500 0.1050
v -0.3500 -0.2500 0.1575
v -0.3500 -0.1875 0.1575
v -0.3500 -0.1250 0.1575
v -0.3500 -0.0625 0.1575
v -0.3500 0.0000 0.1575
v -0.3500 0.0625 0.1575
v -0.3500 0.1250 0.1575
v -0.3500 0.1875 0.1575
v -0.3500 0.2500 0.1575
v -0.3500 -0.2500 0.2100
v -0.3500 -0.1875 0.2100
v -0.3500 -0.1250 0.2100
v -0.3500 -0.0625 0.2100
v -0.3500 0.0000 0.2100
v -0.3500 0.0625 0.2100
v -0.3500 0.1250 0.2100
v -0.3500 0.1875 0.2100
v -0.3500 0.2500 0.2100
v 0.3500 -0.2500 0.2100
v 0.3500 -0.1875 0.2100
v 0.3500 -0.1250 0.2100
v 0.3500 -0.0625 0.2100
v 0.3500 0.0000 0.2100
v 0.3500 0.0625 0.2100
v 0.3500 0.1250 0.2100
v 0.3500 0.1875 0.2100
v 0.3500 0.2500 0.2100
v 0.3500 -0.2500 0.1575
v 0.3500 -0.1875 0.1575
v 0.3500 -0.1250 0.1575
v 0.3500 -0.0625 0.1575
v 0.3500 0.0000 0.1575
v 0.3500 0.0625 0.1575
v 0.3500 0.1250 0.1575
v 0.3500 0.1875 0.1575
v 0.3500 0.2500 0.1575
v 0.3500 -0.2500 0.1050
v 0.3500 -0.1875 0.1050
v 0.3500 -0.1250 0.1050
v 0.3500 -0.0625 0.1050
v 0.3500 0.0000 0.1050
v 0.3500 0.0625 0.1050
v 0.3500 0.1250 0.1050
v 0.3500 0.1875 0.1050
v 0.3500 0.2500 0.1050
v 0.3500 -0.2500 0.0525
v 0.3500 -0.1875 0.0525
v 0.3500 -0.1250 0.0525
v 0.3500 -0.0625 0.0525
v 0.3500 0.0000 0.0525
v 0.3500 0.0625 0.0525
v 0.3500 0.1250 0.0525
v 0.3500 0.1875 0.0525
v 0.3500 0.2500 0.0525
v 0.3500 -0.2500 0.0000
v 0.3500 -0.1875 0.0000
v 0.3500 -0.1250 0.0000
v 0.3500 -0.0625 0.0000
v 0.3500 0.0000 0.0000
v 0.3500 0.0625 0.0000
v 0.3500 0.1250 0.0000
v 0.3500 0.1875 0.0000
v 0.3500 0.2500 0.0000
v 0.3500 -0.2500 -0.0525
v 0.3500 -0.1875 -0.0525
v 0.3500 -0.1250 -0.0525
v 0.3500 -0.0625 -0.0525
v 0.3500 0.0000 -0.0525
v 0.3500 0.0625 -0.0525
v 0.3500 0.1250 -0.0525
v 0.3500 0.1875 -0.0525
v 0.3500 0.2500 -0.0525
v 0.3500 -0.2500 -0.1050
v 0.3500 -0.1875 -0.1050
v 0.3500 -0.1250 -0.1050
v 0.3500 -0.0625 -0.1050
v 0.3500 0.0000 -0.1050
v 0.3500 0.0625 -0.1050
v 0.3500 0.1250 -0.1050
v 0.3500 0.1875 -0.1050
v 0.3500 0.2500 -0.1050
v 0.3500 -0.2500 -0.1575
v 0.3500 -0.1875 -0.1575
v 0.3500 -0.1250 -0.1575
v 0.3500 -0.0625 -0.1575
v 0.3500 0.0000 -0.1575
v 0.3500 0.0625 -0.1575
v 0.3500 0.1250 -0.1575
v 0.3500 0.1875 -0.1575
v 0.3500 0.2500 -0.1575
v 0.3500 -0.2500 -0.2100
v 0.3500 -0.1875 -0.2100
v 0.3500 -0.1250 -0.2100
v 0.3500 -0.0625 -0.2100
v 0.3500 0.0000 -0.2100
v 0.3500 0.0625 -0.2100
v 0.3500 0.1250 -0.2100
v 0.3500 0.1875 -0.2100
v 0.3500 0.2500 -0.2100
v -0.3500 0.2500 -0.2100
v -0.3500 0.2500 -0.1575
v -0.3500 0.2500 -0.1050
v -0.3500 0.2500 -0.0525
v -0.3500 0.2500 0.0000
v -0.3500 0.2500 0.0525
v -0.3500 0.2500 0.1050
v -0.3500 0.2500 0.1575
v -0.3500 0.2500 0.2100
v -0.2625 0.2500 -0.2100
v -0.2625 0.2500 -0.1575
v -0.2625 0.2500 -0.1050
v -0.2625 0.2500 -0.0525
v -0.2625 0.2500 0.0000
v -0.2625 0.2500 0.0525
v -0.2625 0.2500 0.1050
v -0.2625 0.2500 0.1575
v -0.2625 0.2500 0.2100
v -0.1750 0.2500 -0.2100
v -0.1750 0.2500 -0.1575
v -0.1750 0.2500 -0.1050
v -0.1750 0.2500 -0.0525
v -0.1750 0.2500 0.0000
v -0.1750 0.2500 0.0525
v -0.1750 0.2500 0.1050
v -0.1750 0.2500 0.1575
v -0.1750 0.2500 0.2100
v -0.0875 0.2500 -0.2100
v -0.0875 0.2500 -0.1575
v -0.0875 0.2500 -0.1050
v -0.0875 0.2500 -0.0525
v -0.0875 0.2500 0.0000
v -0.0875 0.2500 0.0525
v -0.0875 0.2500 0.1050
v -0.0875 0.2500 0.1575
v -0.0875 0.2500 0.2100
v 0.0000 0.2500 -0.2100
v 0.0000 0.2500 -0.1575
v 0.0000 0.2500 -0.1050
v 0.0000 0.2500 -0.0525
v 0.0000 0.2500 0.0000
v 0.0000 0.2500 0.0525
v 0.0000 0.2500 0.1050
v 0.0000 0.2500 0.1575
v 0.0000 0.2500 0.2100
v 0.0875 0.2500 -0.2100
v 0.0875 0.2500 -0.1575
v 0.0875 0.2500 -0.1050
v 0.0875 0.2500 -0.0525
v 0.0875 0.2500 0.0000
v 0.0875 0.2500 0.0525
v 0.0875 0.2500 0.1050
v 0.0875 0.2500 0.1575
v 0.0875 0.2500 0.2100
v 0.1750 0.2500 -0.2100
v 0.1750 0.2500 -0.1575
v 0.1750 0.2500 -0.1050
v 0.1750 0.2500 -0.0525
v 0.1750 0.2500 0.0000
v 0.1750 0.2500 0.0525
v 0.1750 0.2500 0.1050
v 0.1750 0.2500 0.1575
v 0.1750 0.2500 0.2100
v 0.2625 0.2500 -0.2100
v 0.2625 0.2500 -0.1575
v 0.2625 0.2500 -0.1050
v 0.2625 0.2500 -0.0525
v 0.2625 0.2500 0.0000
v 0.2625 0.2500 0.0525
v 0.2625 0.2500 0.1050
v 0.2625 0.2500 0.1575
v 0.2625 0.2500 0.2100
v 0.3500 0.2500 -0.2100
v 0.3500 0.2500 -0.1575
v 0.3500 0.2500 -0.1050
v 0.3500 0.2500 -0.0525
v 0.3500 0.2500 0.0000
v 0.3500 0.2500 0.0525
v 0.3500 0.2500 0.1050
v 0.3500 0.2500 0.1575
v 0.3500 0.2500 0.2100
v -0.3500 -0.2500 0.2100
v -0.3500 -0.2500 0.1575
v -0.3500 -0.2500 0.1050
v -0.3500 -0.2500 0.0525
v -0.3500 -0.2500 0.0000
v -0.3500 -0.2500 -0.0525
v -0.3500 -0.2500 -0.1050
v -0.3500 -0.2500 -0.1575
v -0.3500 -0.2500 -0.2100
v -0.2625 -0.2500 0.2100
v -0.2625 -0.2500 0.1575
v -0.2625 -0.2500 0.1050
v -0.2625 -0.2500 0.0525
v -0.2625 -0.2500 0.0000
v -0.2625 -0.2500 -0.0525
v -0.2625 -0.2500 -0.1050
v -0.2625 -0.2500 -0.1575
v -0.2625 -0.2500 -0.2100
v -0.1750 -0.2500 0.2100
v -0.1750 -0.2500 0.1575
v -0.1750 -0.2500 0.1050
v -0.1750 -0.2500 0.0525
v -0.1750 -0.2500 0.0000
v -0.1750 -0.2500 -0.0525
v -0.1750 -0.2500 -0.1050
v -0.1750 -0.2500 -0.1575
v -0.1750 -0.2500 -0.2100
v -0.0875 -0.2500 0.2100
v -0.0875 -0.2500 0.1575
v -0.0875 -0.2500 0.1050
v -0.0875 -0.2500 0.0525
v -0.0875 -0.2500 0.0000
v -0.0875 -0.2500 -0.0525
v -0.0875 -0.2500 -0.1050
v -0.0875 -0.2500 -0.1575
v -0.0875 -0.2500 -0.2100
v 0.0000 -0.2500 0.2100
v 0.0000 -0.2500 0.1575
v 0.0000 -0.2500 0.1050
v 0.0000 -0.2500 0.0525
v 0.0000 -0.2500 0.0000
v 0.0000 -0.2500 -0.0525
v 0.0000 -0.2500 -0.1050
v 0.0000 -0.2500 -0.1575
v 0.0000 -0.2500 -0.2100
v 0.0875 -0.2500 0.2100
v 0.0875 -0.2500 0.1575
v 0.0875 -0.2500 0.1050
v 0.0875 -0.2500 0.0525
v 0.0875 -0.2500 0.0000
v 0.0875 -0.2500 -0.0525
v 0.0875 -0.2500 -0.1050
v 0.0875 -0.2500 -0.1575
v 0.0875 -0.2500 -0.2100
v 0.1750 -0.2500 0.2100
v 0.1750 -0.2500 0.1575
v 0.1750 -0.2500 0.1050
v 0.1750 -0.2500 0.0525
v 0.1750 -0.2500 0.0000
v 0.1750 -0.2500 -0.0525
v 0.1750 -0.2500 -0.1050
v 0.1750 -0.2500 -0.1575
v 0.1750 -0.2500 -0.2100
v 0.2625 -0.2500 0.2100
v 0.2625 -0.2500 0.1575
v 0.2625 -0.2500 0.1050
v 0.2625 -0.2500 0.0525
v 0.2625 -0.2500 0.0000
v 0.2625 -0.2500 -0.0525
v 0.2625 -0.2500 -0.1050
v 0.2625 -0.2500 -0.1575
v 0.2625 -0.2500 -0.2100
v 0.3500 -0.2500 0.2100
v 0.3500 -0.2500 0.1575
v 0.3500 -0.2500 0.1050
v 0.3500 -0.2500 0.0525
v 0.3500 -0.2500 0.0000
v 0.3500 -0.2500 -0.0525
v 0.3500 -0.2500 -0.1050
v 0.3500 -0.2500 -0.1575
v 0.3500 -0.2500 -0.2100
v -0.3300 0.2500 0.1900
v -0.3300 0.2600 0.1900
v -0.3300 0.2700 0.1900
v -0.3300 0.2800 0.1900
v -0.3300 0.2900 0.1900
v -0.3300 0.3000 0.1900
v -0.3300 0.3100 0.1900
v -0.2200 0.2500 0.1900
v -0.2200 0.2600 0.1900
v -0.2200 0.2700 0.1900
v -0.2200 0.2800 0.1900
v -0.2200 0.2900 0.1900
v -0.2200 0.3000 0.1900
v -0.2200 0.3100 0.1900
v -0.1100 0.2500 0.1900
v -0.1100 0.2600 0.1900
v -0.1100 0.2700 0.1900
v -0.1100 0.2800 0.1900
v -0.1100 0.2900 0.1900
v -0.1100 0.3000 0.1900
v -0.1100 0.3100 0.1900
v 0.0000 0.2500 0.1900
v 0.0000 0.2600 0.1900
v 0.0000 0.2700 0.1900
v 0.0000 0.2800 0.1900
v 0.0000 0.2900 0.1900
v 0.0000 0.3000 0.1900
v 0.0000 0.3100 0.1900
v 0.1100 0.2500 0.1900
v 0.1100 0.2600 0.1900
v 0.1100 0.2700 0.1900
v 0.1100 0.2800 0.1900
v 0.1100 0.2900 0.1900
v 0.1100 0.3000 0.1900
v 0.1100 0.3100 0.1900
v 0.2200 0.2500 0.1900
v 0.2200 0.2600 0.1900
v 0.2200 0.2700 0.1900
v 0.2200 0.2800 0.1900
v 0.2200 0.2900 0.1900
v 0.2200 0.3000 0.1900
v 0.2200 0.3100 0.1900
v 0.3300 0.2500 0.1900
v 0.3300 0.2600 0.1900
v 0.3300 0.2700 0.1900
v 0.3300 0.2800 0.1900
v 0.3300 0.2900 0.1900
v 0.3300 0.3000 0.1900
v 0.3300 0.3100 0.1900
v 0.3300 0.2500 -0.1900
v 0.3300 0.2600 -0.1900
v 0.3300 0.2700 -0.1900
v 0.3300 0.2800 -0.1900
v 0.3300 0.2900 -0.1900
v 0.3300 0.3000 -0.1900
v 0.3300 0.3100 -0.1900
v 0.2200 0.2500 -0.1900
v 0.2200 0.2600 -0.1900
v 0.2200 0.2700 -0.1900
v 0.2200 0.2800 -0.1900
v 0.2200 0.2900 -0.1900
v 0.2200 0.3000 -0.1900
v 0.2200 0.3100 -0.1900
v 0.1100 0.2500 -0.1900
v 0.1100 0.2600 -0.1900
v 0.1100 0.2700 -0.1900
v 0.1100 0.2800 -0.1900
v 0.1100 0.2900 -0.1900
v 0.1100 0.3000 -0.1900
v 0.1100 0.3100 -0.1900
v 0.0000 0.2500 -0.1900
v 0.0000 0.2600 -0.1900
v 0.0000 0.2700 -0.1900
v 0.0000 0.2800 -0.1900
v 0.0000 0.2900 -0.1900
v 0.0000 0.3000 -0.1900
v 0.0000 0.3100 -0.1900
v -0.1100 0.2500 -0.1900
v -0.1100 0.2600 -0.1900
v -0.1100 0.2700 -0.1900
v -0.1100 0.2800 -0.1900
v -0.1100 0.2900 -0.1900
v -0.1100 0.3000 -0.1900
v -0.1100 0.3100 -0.1900
v -0.2200 0.2500 -0.1900
v -0.2200 0.2600 -0.1900
v -0.2200 0.2700 -0.1900
v -0.2200 0.2800 -0.1900
v -0.2200 0.2900 -0.1900
v -0.2200 0.3000 -0.1900
v -0.2200 0.3100 -0.1900
v -0.3300 0.2500 -0.1900
v -0.3300 0.2600 -0.1900
v -0.3300 0.2700 -0.1900
v -0.3300 0.2800 -0.1900
v -0.3300 0.2900 -0.1900
v -0.3300 0.3000 -0.1900
v -0.3300 0.3100 -0.1900
v -0.3300 0.2500 -0.1900
v -0.3300 0.2600 -0.1900
v -0.3300 0.2700 -0.1900
v -0.3300 0.2800 -0.1900
v -0.3300 0.2900 -0.1900
v -0.3300 0.3000 -0.1900
v -0.3300 0.3100 -0.1900
v -0.3300 0.2500 -0.1267
v -0.3300 0.2600 -0.1267
v -0.3300 0.2700 -0.1267
v -0.3300 0.2800 -0.1267
v -0.3300 0.2900 -0.1267
v -0.3300 0.3000 -0.1267
v -0.3300 0.3100 -0.1267
v -0.3300 0.2500 -0.0633
v -0.3300 0.2600 -0.0633
v -0.3300 0.2700 -0.0633
v -0.3300 0.2800 -0.0633
v -0.3300 0.2900 -0.0633
v -0.3300 0.3000 -0.0633
v -0.3300 0.3100 -0.0633
v -0.3300 0.2500 0.0000
v -0.3300 0.2600 0.0000
v -0.3300 0.2700 0.0000
v -0.3300 0.2800 0.0000
v -0.3300 0.2900 0.0000
v -0.3300 0.3000 0.0000
v -0.3300 0.3100 0.0000
v -0.3300 0.2500 0.0633
v -0.3300 0.2600 0.0633
v -0.3300 0.2700 0.0633
v -0.3300 0.2800 0.0633
v -0.3300 0.2900 0.0633
v -0.3300 0.3000 0.0633
v -0.3300 0.3100 0.0633
v -0.3300 0.2500 0.1267
v -0.3300 0.2600 0.1267
v -0.3300 0.2700 0.1267
v -0.3300 0.2800 0.1267
v -0.3300 0.2900 0.1267
v -0.3300 0.3000 0.1267
v -0.3300 0.3100 0.1267
v -0.3300 0.2500 0.1900
v -0.3300 0.2600 0.1900
v -0.3300 0.2700 0.1900
v -0.3300 0.2800 0.1900
v -0.3300 0.2900 0.1900
v -0.3300 0.3000 0.1900
v -0.3300 0.3100 0.1900
v 0.3300 0.2500 0.1900
v 0.3300 0.2600 0.1900
v 0.3300 0.2700 0.1900
v 0.3300 0.2800 0.1900
v 0.3300 0.2900 0.1900
v 0.3300 0.3000 0.1900
v 0.3300 0.3100 0.1900
v 0.3300 0.2500 0.1267
v 0.3300 0.2600 0.1267
v 0.3300 0.2700 0.1267
v 0.3300 0.2800 0.1267
v 0.3300 0.2900 0.1267
v 0.3300 0.3000 0.1267
v 0.3300 0.3100 0.1267
v 0.3300 0.2500 0.0633
v 0.3300 0.2600 0.0633
v 0.3300 0.2700 0.0633
v 0.3300 0.2800 0.0633
v 0.3300 0.2900 0.0633
v 0.3300 0.3000 0.0633
v 0.3300 0.3100 0.0633
v 0.3300 0.2500 0.0000
v 0.3300 0.2600 0.0000
v 0.3300 0.2700 0.0000
v 0.3300 0.2800 0.0000
v 0.3300 0.2900 0.0000
v 0.3300 0.3000 0.0000
v 0.3300 0.3100 0.0000
v 0.3300 0.2500 -0.0633
v 0.3300 0.2600 -0.0633
v 0.3300 0.2700 -0.0633
v 0.3300 0.2800 -0.0633
v 0.3300 0.2900 -0.0633
v 0.3300 0.3000 -0.0633
v 0.3300 0.3100 -0.0633
v 0.3300 0.2500 -0.1267
v 0.3300 0.2600 -0.1267
v 0.3300 0.2700 -0.1267
v 0.3300 0.2800 -0.1267
v 0.3300 0.2900 -0.1267
v 0.3300 0.3000 -0.1267
v 0.3300 0.3100 -0.1267
v 0.3300 0.2500 -0.1900
v 0.3300 0.2600 -0.1900
v 0.3300 0.2700 -0.1900
v 0.3300 0.2800 -0.1900
v 0.3300 0.2900 -0.1900
v 0.3300 0.3000 -0.1900
v 0.3300 0.3100 -0.1900
v -0.3300 0.3100 -0.1900
v -0.3300 0.3100 -0.1267
v -0.3300 0.3100 -0.0633
v -0.3300 0.3100 0.0000
v -0.3300 0.3100 0.0633
v -0.3300 0.3100 0.1267
v -0.3300 0.3100 0.1900
v -0.2200 0.3100 -0.1900
v -0.2200 0.3100 -0.1267
v -0.2200 0.3100 -0.0633
v -0.2200 0.3100 0.0000
v -0.2200 0.3100 0.0633
v -0.2200 0.3100 0.1267
v -0.2200 0.3100 0.1900
v -0.1100 0.3100 -0.1900
v -0.1100 0.3100 -0.1267
v -0.1100 0.3100 -0.0633
v -0.1100 0.3100 0.0000
v -0.1100 0.3100 0.0633
v -0.1100 0.3100 0.1267
v -0.1100 0.3100 0.1900
v 0.0000 0.3100 -0.1900
v 0.0000 0.3100 -0.1267
v 0.0000 0.3100 -0.0633
v 0.0000 0.3100 0.0000
v 0.0000 0.3100 0.0633
v 0.0000 0.3100 0.1267
v 0.0000 0.3100 0.1900
v 0.1100 0.3100 -0.1900
v 0.1100 0.3100 -0.1267
v 0.1100 0.3100 -0.0633
v 0.1100 0.3100 0.0000
v 0.1100 0.3100 0.0633
v 0.1100 0.3100 0.1267
v 0.1100 0.3100 0.1900
v 0.2200 0.3100 -0.1900
v 0.2200 0.3100 -0.1267
v 0.2200 0.3100 -0.0633
v 0.2200 0.3100 0.0000
v 0.2200 0.3100 0.0633
v 0.2200 0.3100 0.1267
v 0.2200 0.3100 0.1900
v 0.3300 0.3100 -0.1900
v 0.3300 0.3100 -0.1267
v 0.3300 0.3100 -0.0633
v 0.3300 0.3100 0.0000
v 0.3300 0.3100 0.0633
v 0.3300 0.3100 0.1267
v 0.3300 0.3100 0.1900
v -0.3300 0.2500 0.1900
v -0.3300 0.2500 0.1267
v -0.3300 0.2500 0.0633
v -0.3300 0.2500 0.0000
v -0.3300 0.2500 -0.0633
v -0.3300 0.2500 -0.1267
v -0.3300 0.2500 -0.1900
v -0.2200 0.2500 0.1900
v -0.2200 0.2500 0.1267
v -0.2200 0.2500 0.0633
v -0.2200 0.2500 0.0000
v -0.2200 0.2500 -0.0633
v -0.2200 0.2500 -0.1267
v -0.2200 0.2500 -0.1900
v -0.1100 0.2500 0.1900
v -0.1100 0.2500 0.1267
v -0.1100 0.2500 0.0633
v -0.1100 0.2500 0.0000
v -0.1100 0.2500 -0.0633
v -0.1100 0.2500 -0.1267
v -0.1100 0.2500 -0.1900
v 0.0000 0.2500 0.1900
v 0.0000 0.2500 0.1267
v 0.0000 0.2500 0.0633
v 0.0000 0.2500 0.0000
v 0.0000 0.2500 -0.0633
v 0.0000 0.2500 -0.1267
v 0.0000 0.2500 -0.1900
v 0.1100 0.2500 0.1900
v 0.1100 0.2500 0.1267
v 0.1100 0.2500 0.0633
v 0.1100 0.2500 0.0000
v 0.1100 0.2500 -0.0633
v 0.1100 0.2500 -0.1267
v 0.1100 0.2500 -0.1900
v 0.2200 0.2500 0.1900
v 0.2200 0.2500 0.1267
v 0.2200 0.2500 0.0633
v 0.2200 0.2500 0.0000
v 0.2200 0.2500 -0.0633
v 0.2200 0.2500 -0.1267
v 0.2200 0.2500 -0.1900
v 0.3300 0.2500 0.1900
v 0.3300 0.2500 0.1267
v 0.3300 0.2500 0.0633
v 0.3300 0.2500 0.0000
v 0.3300 0.2500 -0.0633
v 0.3300 0.2500 -0.1267
v 0.3300 0.2500 -0.1900
v -0.1100 0.3100 0.0200
v -0.1100 0.3233 0.0200
v -0.1100 0.3367 0.0200
v -0.1100 0.3500 0.0200
v -0.0367 0.3100 0.0200
v -0.0367 0.3233 0.0200
v -0.0367 0.3367 0.0200
v -0.0367 0.3500 0.0200
v 0.0367 0.3100 0.0200
v 0.0367 0.3233 0.0200
v 0.0367 0.3367 0.0200
v 0.0367 0.3500 0.0200
v 0.1100 0.3100 0.0200
v 0.1100 0.3233 0.0200
v 0.1100 0.3367 0.0200
v 0.1100 0.3500 0.0200
v 0.1100 0.3100 -0.0200
v 0.1100 0.3233 -0.0200
v 0.1100 0.3367 -0.0200
v 0.1100 0.3500 -0.0200
v 0.0367 0.3100 -0.0200
v 0.0367 0.3233 -0.0200
v 0.0367 0.3367 -0.0200
v 0.0367 0.3500 -0.0200
v -0.0367 0.3100 -0.0200
v -0.0367 0.3233 -0.0200
v -0.0367 0.3367 -0.0200
v -0.0367 0.3500 -0.0200
v -0.1100 0.3100 -0.0200
v -0.1100 0.3233 -0.0200
v -0.1100 0.3367 -0.0200
v -0.1100 0.3500 -0.0200
v -0.1100 0.3100 -0.0200
v -0.1100 0.3233 -0.0200
v -0.1100 0.3367 -0.0200
v -0.1100 0.3500 -0.0200
v -0.1100 0.3100 -0.0067
v -0.1100 0.3233 -0.0067
v -0.1100 0.3367 -0.0067
v -0.1100 0.3500 -0.0067
v -0.1100 0.3100 0.0067
v -0.1100 0.3233 0.0067
v -0.1100 0.3367 0.0067
v -0.1100 0.3500 0.0067
v -0.1100 0.3100 0.0200
v -0.1100 0.3233 0.0200
v -0.1100 0.3367 0.0200
v -0.1100 0.3500 0.0200
v 0.1100 0.3100 0.0200
v 0.1100 0.3233 0.0200
v 0.1100 0.3367 0.0200
v 0.1100 0.3500 0.0200
v 0.1100 0.3100 0.0067
v 0.1100 0.3233 0.0067
v 0.1100 0.3367 0.0067
v 0.1100 0.3500 0.0067
v 0.1100 0.3100 -0.0067
v 0.1100 0.3233 -0.0067
v 0.1100 0.3367 -0.0067
v 0.1100 0.3500 -0.0067
v 0.1100 0.3100 -0.0200
v 0.1100 0.3233 -0.0200
v 0.1100 0.3367 -0.0200
v 0.1100 0.3500 -0.0200
v -0.1100 0.3500 -0.0200
v -0.1100 0.3500 -0.0067
v -0.1100 0.3500 0.0067
v -0.1100 0.3500 0.0200
v -0.0367 0.3500 -0.0200
v -0.0367 0.3500 -0.0067
v -0.0367 0.3500 0.0067
v -0.0367 0.3500 0.0200
v 0.0367 0.3500 -0.0200
v 0.0367 0.3500 -0.0067
v 0.0367 0.3500 0.0067
v 0.0367 0.3500 0.0200
v 0.1100 0.3500 -0.0200
v 0.1100 0.3500 -0.0067
v 0.1100 0.3500 0.0067
v 0.1100 0.3500 0.0200
v -0.1100 0.3100 0.0200
v -0.1100 0.3100 0.0067
v -0.1100 0.3100 -0.0067
v -0.1100 0.3100 -0.0200
v -0.0367 0.3100 0.0200
v -0.0367 0.3100 0.0067
v -0.0367 0.3100 -0.0067
v -0.0367 0.3100 -0.0200
v 0.0367 0.3100 0.0200
v 0.0367 0.3100 0.0067
v 0.0367 0.3100 -0.0067
v 0.0367 0.3100 -0.0200
v 0.1100 0.3100 0.0200
v 0.1100 0.3100 0.0067
v 0.1100 0.3100 -0.0067
v 0.1100 0.3100 -0.0200
f 1 2 11
f 1 11 10
f 2 3 12
f 2 12 11
f 3 4 13
f 3 13 12
f 4 5 14
f 4 14 13
f 5 6 15
f 5 15 14
f 6 7 16
f 6 16 15
f 7 8 17
f 7 17 16
f 8 9 18
f 8 18 17
f 10 11 20
f 10 20 19
f 11 12 21
f 11 21 20
f 12 13 22
f 12 22 21
f 13 14 23
f 13 23 22
f 14 15 24
f 14 24 23
f 15 16 25
f 15 25 24
f 16 17 26
f 16 26 25
f 17 18 27
f 17 27 26
f 19 20 29
f 19 29 28
f 20 21 30
f 20 30 29
f 21 22 31
f 21 31 30
f 22 23 32
f 22 32 31
f 23 24 33
f 23 33 32
f 24 25 34
f 24 34 33
f 25 26 35
f 25 35 34
f 26 27 36
f 26 36 35
f 28 29 38
f 28 38 37
f 29 30 39
f 29 39 38
f 30 31 40
f 30 40 39
f 31 32 41
f 31 41 40
f 32 33 42
f 32 42 41
f 33 34 43
f 33 43 42
f 34 35 44
f 34 44 43
f 35 36 45
f 35 45 44
f 37 38 47
f 37 47 46
f 38 39 48
f 38 48 47
f 39 40 49
f 39 49 48
f 40 41 50
f 40 50 49
f 41 42 51
f 41 51 50
f 42 43 52
f 42 52 51
f 43 44 53
f 43 53 52
f 44 45 54
f 44 54 53
f 46 47 56
f 46 56 55
f 47 48 57
f 47 57 56
f 48 49 58
f 48 58 57
f 49 50 59
f 49 59 58
f 50 51 60
f 50 60 59
f 51 52 61
f 51 61 60
f 52 53 62
f 52 62 61
f 53 54 63
f 53 63 62
f 55 56 65
f 55 65 64
f 56 57 66
f 56 66 65
f 57 58 67
f 57 67 66
f 58 59 68
f 58 68 67
f 59 60 69
f 59 69 68
f 60 61 70
f 60 70 69
f 61 62 71
f 61 71 70
f 62 63 72
f 62 72 71
f 64 65 74
f 64 74 73
f 65 66 75
f 65 75 74
f 66 67 76
f 66 76 75
f 67 68 77
f 67 77 76
f 68 69 78
f 68 78 77
f 69 70 79
f 69 79 78
f 70 71 80
f 70 80 79
f 71 72 81
f 71 81 80
f 82 83 92
f 82 92 91
f 83 84 93
f 83 93 92
f 84 85 94
f 84 94 93
f 85 86 95
f 85 95 94
f 86 87 96
f 86 96 95
f 87 88 97
f 87 97 96
f 88 89 98
f 88 98 97
f 89 90 99
f 89 99 98
f 91 92 101
f 91 101 100
f 92 93 102
f 92 102 101
f 93 94 103
f 93 103 102
f 94 95 104
f 94 104 103
f 95 96 105
f 95 105 104
f 96 97 106
f 96 106 105
f 97 98 107
f 97 107 106
f 98 99 108
f 98 108 107
f 100 101 110
f 100 110 109
f 101 102 111
f 101 111 110
f 102 103 112
f 102 112 111
f 103 104 113
f 103 113 112
f 104 105 114
f 104 114 113
f 105 106 115
f 105 115 114
f 106 107 116
f 106 116 115
f 107 108 117
f 107 117 116
f 109 110 119
f 109 119 118
f 110 111 120
f 110 120 119
f 111 112 121
f 111 121 120
f 112 113 122
f 112 122 121
f 113 114 123
f 113 123 122
f 114 115 124
f 114 124 123
f 115 116 125
f 115 125 124
f 116 117 126
f 116 126 125
f 118 119 128
f 118 128 127
f 119 120 129
f 119 129 128
f 120 121 130
f 120 130 129
f 121 122 131
f 121 131 130
f 122 123 132
f 122 132 131
f 123 124 133
f 123 133 132
f 124 125 134
f 124 134 133
f 125 126 135
f 125 135 134
f 127 128 137
f 127 137 136
f 128 129 138
f 128 138 137
f 129 130 139
f 129 139 138
f 130 131 140
f 130 140 139
f 131 132 141
f 131 141 140
f 132 133 142
f 132 142 141
f 133 134 143
f 133 143 142
f 134 135 144
f 134 144 143
f 136 137 146
f 136 146 145
f 137 138 147
f 137 147 146
f 138 139 148
f 138 148 147
f 139 140 149
f 139 149 148
f 140 141 150
f 140 150 149
f 141 142 151
f 141 151 150
f 142 143 152
f 142 152 151
f 143 144 153
f 143 153 152
f 145 146 155
f 145 155 154
f 146 147 156
f 146 156 155
f 147 148 157
f 147 157 156
f 148 149 158
f 148 158 157
f 149 150 159
f 149 159 158
f 150 151 160
f 150 160 159
f 151 152 161
f 151 161 160
f 152 153 162
f 152 162 161
f 163 164 173
f 163 173 172
f 164 165 174
f 164 174 173
f 165 166 175
f 165 175 174
f 166 167 176
f 166 176 175
f 167 168 177
f 167 177 176
f 168 169 178
f 168 178 177
f 169 170 179
f 169 179 178
f 170 171 180
f 170 180 179
f 172 173 182
f 172 182 181
f 173 174 183
f 173 183 182
f 174 175 184
f 174 184 183
f 175 176 185
f 175 185 184
f 176 177 186
f 176 186 185
f 177 178 187
f 177 187 186
f 178 179 188
f 178 188 187
f 179 180 189
f 179 189 188
f 181 182 191
f 181 191 190
f 182 183 192
f 182 192 191
f 183 184 193
f 183 193 192
f 184 185 194
f 184 194 193
f 185 186 195
f 185 195 194
f 186 187 196
f 186 196 195
f 187 188 197
f 187 197 196
f 188 189 198
f 188 198 197
f 190 191 200
f 190 200 199
f 191 192 201
f 191 201 200
f 192 193 202
f 192 202 201
f 193 194 203
f 193 203 202
f 194 195 204
f 194 204 203
f 195 196 205
f 195 205 204
f 196 197 206
f 196 206 205
f 197 198 207
f 197 207 206
f 199 200 209
f 199 209 208
f 200 201 210
f 200 210 209
f 201 202 211
f 201 211 210
f 202 203 212
f 202 212 211
f 203 204 213
f 203 213 212
f 204 205 214
f 204 214 213
f 205 206 215
f 205 215 214
f 206 207 216
f 206 216 215
f 208 209 218
f 208 218 217
f 209 210 219
f 209 219 218
f 210 211 220
f 210 220 219
f 211 212 221
f 211 221 220
f 212 213 222
f 212 222 221
f 213 214 223
f 213 223 222
f 214 215 224
f 214 224 223
f 215 216 225
f 215 225 224
f 217 218 227
f 217 227 226
f 218 219 228
f 218 228 227
f 219 220 229
f 219 229 228
f 220 221 230
f 220 230 229
f 221 222 231
f 221 231 230
f 222 223 232
f 222 232 231
f 223 224 233
f 223 233 232
f 224 225 234
f 224 234 233
f 226 227 236
f 226 236 235
f 227 228 237
f 227 237 236
f 228 229 238
f 228 238 237
f 229 230 239
f 229 239 238
f 230 231 240
f 230 240 239
f 231 232 241
f 231 241 240
f 232 233 242
f 232 242 241
f 233 234 243
f 233 243 242
f 244 245 254
f 244 254 253
f 245 246 255
f 245 255 254
f 246 247 256
f 246 256 255
f 247 248 257
f 247 257 256
f 248 249 258
f 248 258 257
f 249 250 259
f 249 259 258
f 250 251 260
f 250 260 259
f 251 252 261
f 251 261 260
f 253 254 263
f 253 263 262
f 254 255 264
f 254 264 263
f 255 256 265
f 255 265 264
f 256 257 266
f 256 266 265
f 257 258 267
f 257 267 266
f 258 259 268
f 258 268 267
f 259 260 269
f 259 269 268
f 260 261 270
f 260 270 269
f 262 263 272
f 262 272 271
f 263 264 273
f 263 273 272
f 264 265 274
f 264 274 273
f 265 266 275
f 265 275 274
f 266 267 276
f 266 276 275
f 267 268 277
f 267 277 276
f 268 269 278
f 268 278 277
f 269 270 279
f 269 279 278
f 271 272 281
f 271 281 280
f 272 273 282
f 272 282 281
f 273 274 283
f 273 283 282
f 274 275 284
f 274 284 283
f 275 276 285
f 275 285 284
f 276 277 286
f 276 286 285
f 277 278 287
f 277 287 286
f 278 279 288
f 278 288 287
f 280 281 290
f 280 290 289
f 281 282 291
f 281 291 290
f 282 283 292
f 282 292 291
f 283 284 293
f 283 293 292
f 284 285 294
f 284 294 293
f 285 286 295
f 285 295 294
f 286 287 296
f 286 296 295
f 287 288 297
f 287 297 296
f 289 290 299
f 289 299 298
f 290 291 300
f 290 300 299
f 291 292 301
f 291 301 300
f 292 293 302
f 292 302 301
f 293 294 303
f 293 303 302
f 294 295 304
f 294 304 303
f 295 296 305
f 295 305 304
f 296 297 306
f 296 306 305
f 298 299 308
f 298 308 307
f 299 300 309
f 299 309 308
f 300 301 310
f 300 310 309
f 301 302 311
f 301 311 310
f 302 303 312
f 302 312 311
f 303 304 313
f 303 313 312
f 304 305 314
f 304 314 313
f 305 306 315
f 305 315 314
f 307 308 317
f 307 317 316
f 308 309 318
f 308 318 317
f 309 310 319
f 309 319 318
f 310 311 320
f 310 320 319
f 311 312 321
f 311 321 320
f 312 313 322
f 312 322 321
f 313 314 323
f 313 323 322
f 314 315 324
f 314 324 323
f 325 326 335
f 325 335 334
f 326 327 336
f 326 336 335
f 327 328 337
f 327 337 336
f 328 329 338
f 328 338 337
f 329 330 339
f 329 339 338
f 330 331 340
f 330 340 339
f 331 332 341
f 331 341 340
f 332 333 342
f 332 342 341
f 334 335 344
f 334 344 343
f 335 336 345
f 335 345 344
f 336 337 346
f 336 346 345
f 337 338 347
f 337 347 346
f 338 339 348
f 338 348 347
f 339 340 349
f 339 349 348
f 340 341 350
f 340 350 349
f 341 342 351
f 341 351 350
f 343 344 353
f 343 353 352
f 344 345 354
f 344 354 353
f 345 346 355
f 345 355 354
f 346 347 356
f 346 356 355
f 347 348 357
f 347 357 356
f 348 349 358
f 348 358 357
f 349 350 359
f 349 359 358
f 350 351 360
f 350 360 359
f 352 353 362
f 352 362 361
f 353 354 363
f 353 363 362
f 354 355 364
f 354 364 363
f 355 356 365
f 355 365 364
f 356 357 366
f 356 366 365
f 357 358 367
f 357 367 366
f 358 359 368
f 358 368 367
f 359 360 369
f 359 369 368
f 361 362 371
f 361 371 370
f 362 363 372
f 362 372 371
f 363 364 373
f 363 373 372
f 364 365 374
f 364 374 373
f 365 366 375
f 365 375 374
f 366 367 376
f 366 376 375
f 367 368 377
f 367 377 376
f 368 369 378
f 368 378 377
f 370 371 380
f 370 380 379
f 371 372 381
f 371 381 380
f 372 373 382
f 372 382 381
f 373 374 383
f 373 383 382
f 374 375 384
f 374 384 383
f 375 376 385
f 375 385 384
f 376 377 386
f 376 386 385
f 377 378 387
f 377 387 386
f 379 380 389
f 379 389 388
f 380 381 390
f 380 390 389
f 381 382 391
f 381 391 390
f 382 383 392
f 382 392 391
f 383 384 393
f 383 393 392
f 384 385 394
f 384 394 393
f 385 386 395
f 385 395 394
f 386 387 396
f 386 396 395
f 388 389 398
f 388 398 397
f 389 390 399
f 389 399 398
f 390 391 400
f 390 400 399
f 391 392 401
f 391 401 400
f 392 393 402
f 392 402 401
f 393 394 403
f 393 403 402
f 394 395 404
f 394 404 403
f 395 396 405
f 395 405 404
f 406 407 416
f 406 416 415
f 407 408 417
f 407 417 416
f 408 409 418
f 408 418 417
f 409 410 419
f 409 419 418
f 410 411 420
f 410 420 419
f 411 412 421
f 411 421 420
f 412 413 422
f 412 422 421
f 413 414 423
f 413 423 422
f 415 416 425
f 415 425 424
f 416 417 426
f 416 426 425
f 417 418 427
f 417 427 426
f 418 419 428
f 418 428 427
f 419 420 429
f 419 429 428
f 420 421 430
f 420 430 429
f 421 422 431
f 421 431 430
f 422 423 432
f 422 432 431
f 424 425 434
f 424 434 433
f 425 426 435
f 425 435 434
f 426 427 436
f 426 436 435
f 427 428 437
f 427 437 436
f 428 429 438
f 428 438 437
f 429 430 439
f 429 439 438
f 430 431 440
f 430 440 439
f 431 432 441
f 431 441 440
f 433 434 443
f 433 443 442
f 434 435 444
f 434 444 443
f 435 436 445
f 435 445 444
f 436 437 446
f 436 446 445
f 437 438 447
f 437 447 446
f 438 439 448
f 438 448 447
f 439 440 449
f 439 449 448
f 440 441 450
f 440 450 449
f 442 443 452
f 442 452 451
f 443 444 453
f 443 453 452
f 444 445 454
f 444 454 453
f 445 446 455
f 445 455 454
f 446 447 456
f 446 456 455
f 447 448 457
f 447 457 456
f 448 449 458
f 448 458 457
f 449 450 459
f 449 459 458
f 451 452 461
f 451 461 460
f 452 453 462
f 452 462 461
f 453 454 463
f 453 463 462
f 454 455 464
f 454 464 463
f 455 456 465
f 455 465 464
f 456 457 466
f 456 466 465
f 457 458 467
f 457 467 466
f 458 459 468
f 458 468 467
f 460 461 470
f 460 470 469
f 461 462 471
f 461 471 470
f 462 463 472
f 462 472 471
f 463 464 473
f 463 473 472
f 464 465 474
f 464 474 473
f 465 466 475
f 465 475 474
f 466 467 476
f 466 476 475
f 467 468 477
f 467 477 476
f 469 470 479
f 469 479 478
f 470 471 480
f 470 480 479
f 471 472 481
f 471 481 480
f 472 473 482
f 472 482 481
f 473 474 483
f 473 483 482
f 474 475 484
f 474 484 483
f 475 476 485
f 475 485 484
f 476 477 486
f 476 486 485
f 487 488 495
f 487 495 494
f 488 489 496
f 488 496 495
f 489 490 497
f 489 497 496
f 490 491 498
f 490 498 497
f 491 492 499
f 491 499 498
f 492 493 500
f 492 500 499
f 494 495 502
f 494 502 501
f 495 496 503
f 495 503 502
f 496 497 504
f 496 504 503
f 497 498 505
f 497 505 504
f 498 499 506
f 498 506 505
f 499 500 507
f 499 507 506
f 501 502 509
f 501 509 508
f 502 503 510
f 502 510 509
f 503 504 511
f 503 511 510
f 504 505 512
f 504 512 511
f 505 506 513
f 505 513 512
f 506 507 514
f 506 514 513
f 508 509 516
f 508 516 515
f 509 510 517
f 509 517 516
f 510 511 518
f 510 518 517
f 511 512 519
f 511 519 518
f 512 513 520
f 512 520 519
f 513 514 521
f 513 521 520
f 515 516 523
f 515 523 522
f 516 517 524
f 516 524 523
f 517 518 525
f 517 525 524
f 518 519 526
f 518 526 525
f 519 520 527
f 519 527 526
f 520 521 528
f 520 528 527
f 522 523 530
f 522 530 529
f 523 524 531
f 523 531 530
f 524 525 532
f 524 532 531
f 525 526 533
f 525 533 532
f 526 527 534
f 526 534 533
f 527 528 535
f 527 535 534
f 536 537 544
f 536 544 543
f 537 538 545
f 537 545 544
f 538 539 546
f 538 546 545
f 539 540 547
f 539 547 546
f 540 541 548
f 540 548 547
f 541 542 549
f 541 549 548
f 543 544 551
f 543 551 550
f 544 545 552
f 544 552 551
f 545 546 553
f 545 553 552
f 546 547 554
f 546 554 553
f 547 548 555
f 547 555 554
f 548 549 556
f 548 556 555
f 550 551 558
f 550 558 557
f 551 552 559
f 551 559 558
f 552 553 560
f 552 560 559
f 553 554 561
f 553 561 560
f 554 555 562
f 554 562 561
f 555 556 563
f 555 563 562
f 557 558 565
f 557 565 564
f 558 559 566
f 558 566 565
f 559 560 567
f 559 567 566
f 560 561 568
f 560 568 567
f 561 562 569
f 561 569 568
f 562 563 570
f 562 570 569
f 564 565 572
f 564 572 571
f 565 566 573
f 565 573 572
f 566 567 574
f 566 574 573
f 567 568 575
f 567 575 574
f 568 569 576
f 568 576 575
f 569 570 577
f 569 577 576
f 571 572 579
f 571 579 578
f 572 573 580
f 572 580 579
f 573 574 581
f 573 581 580
f 574 575 582
f 574 582 581
f 575 576 583
f 575 583 582
f 576 577 584
f 576 584 583
f 585 586 593
f 585 593 592
f 586 587 594
f 586 594 593
f 587 588 595
f 587 595 594
f 588 589 596
f 588 596 595
f 589 590 597
f 589 597 596
f 590 591 598
f 590 598 597
f 592 593 600
f 592 600 599
f 593 594 601
f 593 601 600
f 594 595 602
f 594 602 601
f 595 596 603
f 595 603 602
f 596 597 604
f 596 604 603
f 597 598 605
f 597 605 604
f 599 600 607
f 599 607 606
f 600 601 608
f 600 608 607
f 601 602 609
f 601 609 608
f 602 603 610
f 602 610 609
f 603 604 611
f 603 611 610
f 604 605 612
f 604 612 611
f 606 607 614
f 606 614 613
f 607 608 615
f 607 615 614
f 608 609 616
f 608 616 615
f 609 610 617
f 609 617 616
f 610 611 618
f 610 618 617
f 611 612 619
f 611 619 618
f 613 614 621
f 613 621 620
f 614 615 622
f 614 622 621
f 615 616 623
f 615 623 622
f 616 617 624
f 616 624 623
f 617 618 625
f 617 625 624
f 618 619 626
f 618 626 625
f 620 621 628
f 620 628 627
f 621 622 629
f 621 629 628
f 622 623 630
f 622 630 629
f 623 624 631
f 623 631 630
f 624 625 632
f 624 632 631
f 625 626 633
f 625 633 632
f 634 635 642
f 634 642 641
f 635 636 643
f 635 643 642
f 636 637 644
f 636 644 643
f 637 638 645
f 637 645 644
f 638 639 646
f 638 646 645
f 639 640 647
f 639 647 646
f 641 642 649
f 641 649 648
f 642 643 650
f 642 650 649
f 643 644 651
f 643 651 650
f 644 645 652
f 644 652 651
f 645 646 653
f 645 653 652
f 646 647 654
f 646 654 653
f 648 649 656
f 648 656 655
f 649 650 657
f 649 657 656
f 650 651 658
f 650 658 657
f 651 652 659
f 651 659 658
f 652 653 660
f 652 660 659
f 653 654 661
f 653 661 660
f 655 656 663
f 655 663 662
f 656 657 664
f 656 664 663
f 657 658 665
f 657 665 664
f 658 659 666
f 658 666 665
f 659 660 667
f 659 667 666
f 660 661 668
f 660 668 667
f 662 663 670
f 662 670 669
f 663 664 671
f 663 671 670
f 664 665 672
f 664 672 671
f 665 666 673
f 665 673 672
f 666 667 674
f 666 674 673
f 667 668 675
f 667 675 674
f 669 670 677
f 669 677 676
f 670 671 678
f 670 678 677
f 671 672 679
f 671 679 678
f 672 673 680
f 672 680 679
f 673 674 681
f 673 681 680
f 674 675 682
f 674 682 681
f 683 684 691
f 683 691 690
f 684 685 692
f 684 692 691
f 685 686 693
f 685 693 692
f 686 687 694
f 686 694 693
f 687 688 695
f 687 695 694
f 688 689 696
f 688 696 695
f 690 691 698
f 690 698 697
f 691 692 699
f 691 699 698
f 692 693 700
f 692 700 699
f 693 694 701
f 693 701 700
f 694 695 702
f 694 702 701
f 695 696 703
f 695 703 702
f 697 698 705
f 697 705 704
f 698 699 706
f 698 706 705
f 699 700 707
f 699 707 706
f 700 701 708
f 700 708 707
f 701 702 709
f 701 709 708
f 702 703 710
f 702 710 709
f 704 705 712
f 704 712 711
f 705 706 713
f 705 713 712
f 706 707 714
f 706 714 713
f 707 708 715
f 707 715 714
f 708 709 716
f 708 716 715
f 709 710 717
f 709 717 716
f 711 712 719
f 711 719 718
f 712 713 720
f 712 720 719
f 713 714 721
f 713 721 720
f 714 715 722
f 714 722 721
f 715 716 723
f 715 723 722
f 716 717 724
f 716 724 723
f 718 719 726
f 718 726 725
f 719 720 727
f 719 727 726
f 720 721 728
f 720 728 727
f 721 722 729
f 721 729 728
f 722 723 730
f 722 730 729
f 723 724 731
f 723 731 730
f 732 733 740
f 732 740 739
f 733 734 741
f 733 741 740
f 734 735 742
f 734 742 741
f 735 736 743
f 735 743 742
f 736 737 744
f 736 744 743
f 737 738 745
f 737 745 744
f 739 740 747
f 739 747 746
f 740 741 748
f 740 748 747
f 741 742 749
f 741 749 748
f 742 743 750
f 742 750 749
f 743 744 751
f 743 751 750
f 744 745 752
f 744 752 751
f 746 747 754
f 746 754 753
f 747 748 755
f 747 755 754
f 748 749 756
f 748 756 755
f 749 750 757
f 749 757 756
f 750 751 758
f 750 758 757
f 751 752 759
f 751 759 758
f 753 754 761
f 753 761 760
f 754 755 762
f 754 762 761
f 755 756 763
f 755 763 762
f 756 757 764
f 756 764 763
f 757 758 765
f 757 765 764
f 758 759 766
f 758 766 765
f 760 761 768
f 760 768 767
f 761 762 769
f 761 769 768
f 762 763 770
f 762 770 769
f 763 764 771
f 763 771 770
f 764 765 772
f 764 772 771
f 765 766 773
f 765 773 772
f 767 768 775
f 767 775 774
f 768 769 776
f 768 776 775
f 769 770 777
f 769 777 776
f 770 771 778
f 770 778 777
f 771 772 779
f 771 779 778
f 772 773 780
f 772 780 779
f 781 782 786
f 781 786 785
f 782 783 787
f 782 787 786
f 783 784 788
f 783 788 787
f 785 786 790
f 785 790 789
f 786 787 791
f 786 791 790
f 787 788 792
f 787 792 791
f 789 790 794
f 789 794 793
f 790 791 795
f 790 795 794
f 791 792 796
f 791 796 795
f 797 798 802
f 797 802 801
f 798 799 803
f 798 803 802
f 799 800 804
f 799 804 803
f 801 802 806
f 801 806 805
f 802 803 807
f 802 807 806
f 803 804 808
f 803 808 807
f 805 806 810
f 805 810 809
f 806 807 811
f 806 811 810
f 807 808 812
f 807 812 811
f 813 814 818
f 813 818 817
f 814 815 819
f 814 819 818
f 815 816 820
f 815 820 819
f 817 818 822
f 817 822 821
f 818 819 823
f 818 823 822
f 819 820 824
f 819 824 823
f 821 822 826
f 821 826 825
f 822 823 827
f 822 827 826
f 823 824 828
f 823 828 827
f 829 830 834
f 829 834 833
f 830 831 835
f 830 835 834
f 831 832 836
f 831 836 835
f 833 834 838
f 833 838 837
f 834 835 839
f 834 839 838
f 835 836 840
f 835 840 839
f 837 838 842
f 837 842 841
f 838 839 843
f 838 843 842
f 839 840 844
f 839 844 843
f 845 846 850
f 845 850 849
f 846 847 851
f 846 851 850
f 847 848 852
f 847 852 851
f 849 850 854
f 849 854 853
f 850 851 855
f 850 855 854
f 851 852 856
f 851 856 855
f 853 854 858
f 853 858 857
f 854 855 859
f 854 859 858
f 855 856 860
f 855 860 859
f 861 862 866
f 861 866 865
f 862 863 867
f 862 867 866
f 863 864 868
f 863 868 867
f 865 866 870
f 865 870 869
f 866 867 871
f 866 871 870
f 867 868 872
f 867 872 871
f 869 870 874
f 869 874 873
f 870 871 875
f 870 875 874
f 871 872 876
f 871 876 875
