# 관물대 — 블록아웃 (예산 1500 tris)
# 삼각형 1476 · 조각 1
# 생성: tools/blockout — 손으로 고치지 말 것, 생성기를 고칠 것
g wallLocker
v -0.4500 -1.0000 0.2750
v -0.4500 -0.7500 0.2750
v -0.4500 -0.5000 0.2750
v -0.4500 -0.2500 0.2750
v -0.4500 0.0000 0.2750
v -0.4500 0.2500 0.2750
v -0.4500 0.5000 0.2750
v -0.4500 0.7500 0.2750
v -0.4500 1.0000 0.2750
v -0.3375 -1.0000 0.2750
v -0.3375 -0.7500 0.2750
v -0.3375 -0.5000 0.2750
v -0.3375 -0.2500 0.2750
v -0.3375 0.0000 0.2750
v -0.3375 0.2500 0.2750
v -0.3375 0.5000 0.2750
v -0.3375 0.7500 0.2750
v -0.3375 1.0000 0.2750
v -0.2250 -1.0000 0.2750
v -0.2250 -0.7500 0.2750
v -0.2250 -0.5000 0.2750
v -0.2250 -0.2500 0.2750
v -0.2250 0.0000 0.2750
v -0.2250 0.2500 0.2750
v -0.2250 0.5000 0.2750
v -0.2250 0.7500 0.2750
v -0.2250 1.0000 0.2750
v -0.1125 -1.0000 0.2750
v -0.1125 -0.7500 0.2750
v -0.1125 -0.5000 0.2750
v -0.1125 -0.2500 0.2750
v -0.1125 0.0000 0.2750
v -0.1125 0.2500 0.2750
v -0.1125 0.5000 0.2750
v -0.1125 0.7500 0.2750
v -0.1125 1.0000 0.2750
v 0.0000 -1.0000 0.2750
v 0.0000 -0.7500 0.2750
v 0.0000 -0.5000 0.2750
v 0.0000 -0.2500 0.2750
v 0.0000 0.0000 0.2750
v 0.0000 0.2500 0.2750
v 0.0000 0.5000 0.2750
v 0.0000 0.7500 0.2750
v 0.0000 1.0000 0.2750
v 0.1125 -1.0000 0.2750
v 0.1125 -0.7500 0.2750
v 0.1125 -0.5000 0.2750
v 0.1125 -0.2500 0.2750
v 0.1125 0.0000 0.2750
v 0.1125 0.2500 0.2750
v 0.1125 0.5000 0.2750
v 0.1125 0.7500 0.2750
v 0.1125 1.0000 0.2750
v 0.2250 -1.0000 0.2750
v 0.2250 -0.7500 0.2750
v 0.2250 -0.5000 0.2750
v 0.2250 -0.2500 0.2750
v 0.2250 0.0000 0.2750
v 0.2250 0.2500 0.2750
v 0.2250 0.5000 0.2750
v 0.2250 0.7500 0.2750
v 0.2250 1.0000 0.2750
v 0.3375 -1.0000 0.2750
v 0.3375 -0.7500 0.2750
v 0.3375 -0.5000 0.2750
v 0.3375 -0.2500 0.2750
v 0.3375 0.0000 0.2750
v 0.3375 0.2500 0.2750
v 0.3375 0.5000 0.2750
v 0.3375 0.7500 0.2750
v 0.3375 1.0000 0.2750
v 0.4500 -1.0000 0.2750
v 0.4500 -0.7500 0.2750
v 0.4500 -0.5000 0.2750
v 0.4500 -0.2500 0.2750
v 0.4500 0.0000 0.2750
v 0.4500 0.2500 0.2750
v 0.4500 0.5000 0.2750
v 0.4500 0.7500 0.2750
v 0.4500 1.0000 0.2750
v 0.4500 -1.0000 -0.2750
v 0.4500 -0.7500 -0.2750
v 0.4500 -0.5000 -0.2750
v 0.4500 -0.2500 -0.2750
v 0.4500 0.0000 -0.2750
v 0.4500 0.2500 -0.2750
v 0.4500 0.5000 -0.2750
v 0.4500 0.7500 -0.2750
v 0.4500 1.0000 -0.2750
v 0.3375 -1.0000 -0.2750
v 0.3375 -0.7500 -0.2750
v 0.3375 -0.5000 -0.2750
v 0.3375 -0.2500 -0.2750
v 0.3375 0.0000 -0.2750
v 0.3375 0.2500 -0.2750
v 0.3375 0.5000 -0.2750
v 0.3375 0.7500 -0.2750
v 0.3375 1.0000 -0.2750
v 0.2250 -1.0000 -0.2750
v 0.2250 -0.7500 -0.2750
v 0.2250 -0.5000 -0.2750
v 0.2250 -0.2500 -0.2750
v 0.2250 0.0000 -0.2750
v 0.2250 0.2500 -0.2750
v 0.2250 0.5000 -0.2750
v 0.2250 0.7500 -0.2750
v 0.2250 1.0000 -0.2750
v 0.1125 -1.0000 -0.2750
v 0.1125 -0.7500 -0.2750
v 0.1125 -0.5000 -0.2750
v 0.1125 -0.2500 -0.2750
v 0.1125 0.0000 -0.2750
v 0.1125 0.2500 -0.2750
v 0.1125 0.5000 -0.2750
v 0.1125 0.7500 -0.2750
v 0.1125 1.0000 -0.2750
v 0.0000 -1.0000 -0.2750
v 0.0000 -0.7500 -0.2750
v 0.0000 -0.5000 -0.2750
v 0.0000 -0.2500 -0.2750
v 0.0000 0.0000 -0.2750
v 0.0000 0.2500 -0.2750
v 0.0000 0.5000 -0.2750
v 0.0000 0.7500 -0.2750
v 0.0000 1.0000 -0.2750
v -0.1125 -1.0000 -0.2750
v -0.1125 -0.7500 -0.2750
v -0.1125 -0.5000 -0.2750
v -0.1125 -0.2500 -0.2750
v -0.1125 0.0000 -0.2750
v -0.1125 0.2500 -0.2750
v -0.1125 0.5000 -0.2750
v -0.1125 0.7500 -0.2750
v -0.1125 1.0000 -0.2750
v -0.2250 -1.0000 -0.2750
v -0.2250 -0.7500 -0.2750
v -0.2250 -0.5000 -0.2750
v -0.2250 -0.2500 -0.2750
v -0.2250 0.0000 -0.2750
v -0.2250 0.2500 -0.2750
v -0.2250 0.5000 -0.2750
v -0.2250 0.7500 -0.2750
v -0.2250 1.0000 -0.2750
v -0.3375 -1.0000 -0.2750
v -0.3375 -0.7500 -0.2750
v -0.3375 -0.5000 -0.2750
v -0.3375 -0.2500 -0.2750
v -0.3375 0.0000 -0.2750
v -0.3375 0.2500 -0.2750
v -0.3375 0.5000 -0.2750
v -0.3375 0.7500 -0.2750
v -0.3375 1.0000 -0.2750
v -0.4500 -1.0000 -0.2750
v -0.4500 -0.7500 -0.2750
v -0.4500 -0.5000 -0.2750
v -0.4500 -0.2500 -0.2750
v -0.4500 0.0000 -0.2750
v -0.4500 0.2500 -0.2750
v -0.4500 0.5000 -0.2750
v -0.4500 0.7500 -0.2750
v -0.4500 1.0000 -0.2750
v -0.4500 -1.0000 -0.2750
v -0.4500 -0.7500 -0.2750
v -0.4500 -0.5000 -0.2750
v -0.4500 -0.2500 -0.2750
v -0.4500 0.0000 -0.2750
v -0.4500 0.2500 -0.2750
v -0.4500 0.5000 -0.2750
v -0.4500 0.7500 -0.2750
v -0.4500 1.0000 -0.2750
v -0.4500 -1.0000 -0.2063
v -0.4500 -0.7500 -0.2063
v -0.4500 -0.5000 -0.2063
v -0.4500 -0.2500 -0.2063
v -0.4500 0.0000 -0.2063
v -0.4500 0.2500 -0.2063
v -0.4500 0.5000 -0.2063
v -0.4500 0.7500 -0.2063
v -0.4500 1.0000 -0.2063
v -0.4500 -1.0000 -0.1375
v -0.4500 -0.7500 -0.1375
v -0.4500 -0.5000 -0.1375
v -0.4500 -0.2500 -0.1375
v -0.4500 0.0000 -0.1375
v -0.4500 0.2500 -0.1375
v -0.4500 0.5000 -0.1375
v -0.4500 0.7500 -0.1375
v -0.4500 1.0000 -0.1375
v -0.4500 -1.0000 -0.0688
v -0.4500 -0.7500 -0.0688
v -0.4500 -0.5000 -0.0688
v -0.4500 -0.2500 -0.0688
v -0.4500 0.0000 -0.0688
v -0.4500 0.2500 -0.0688
v -0.4500 0.5000 -0.0688
v -0.4500 0.7500 -0.0688
v -0.4500 1.0000 -0.0688
v -0.4500 -1.0000 0.0000
v -0.4500 -0.7500 0.0000
v -0.4500 -0.5000 0.0000
v -0.4500 -0.2500 0.0000
v -0.4500 0.0000 0.0000
v -0.4500 0.2500 0.0000
v -0.4500 0.5000 0.0000
v -0.4500 0.7500 0.0000
v -0.4500 1.0000 0.0000
v -0.4500 -1.0000 0.0687
v -0.4500 -0.7500 0.0687
v -0.4500 -0.5000 0.0687
v -0.4500 -0.2500 0.0687
v -0.4500 0.0000 0.0687
v -0.4500 0.2500 0.0687
v -0.4500 0.5000 0.0687
v -0.4500 0.7500 0.0687
v -0.4500 1.0000 0.0687
v -0.4500 -1.0000 0.1375
v -0.4500 -0.7500 0.1375
v -0.4500 -0.5000 0.1375
v -0.4500 -0.2500 0.1375
v -0.4500 0.0000 0.1375
v -0.4500 0.2500 0.1375
v -0.4500 0.5000 0.1375
v -0.4500 0.7500 0.1375
v -0.4500 1.0000 0.1375
v -0.4500 -1.0000 0.2063
v -0.4500 -0.7500 0.2063
v -0.4500 -0.5000 0.2063
v -0.4500 -0.2500 0.2063
v -0.4500 0.0000 0.2063
v -0.4500 0.2500 0.2063
v -0.4500 0.5000 0.2063
v -0.4500 0.7500 0.2063
v -0.4500 1.0000 0.2063
v -0.4500 -1.0000 0.2750
v -0.4500 -0.7500 0.2750
v -0.4500 -0.5000 0.2750
v -0.4500 -0.2500 0.2750
v -0.4500 0.0000 0.2750
v -0.4500 0.2500 0.2750
v -0.4500 0.5000 0.2750
v -0.4500 0.7500 0.2750
v -0.4500 1.0000 0.2750
v 0.4500 -1.0000 0.2750
v 0.4500 -0.7500 0.2750
v 0.4500 -0.5000 0.2750
v 0.4500 -0.2500 0.2750
v 0.4500 0.0000 0.2750
v 0.4500 0.2500 0.2750
v 0.4500 0.5000 0.2750
v 0.4500 0.7500 0.2750
v 0.4500 1.0000 0.2750
v 0.4500 -1.0000 0.2063
v 0.4500 -0.7500 0.2063
v 0.4500 -0.5000 0.2063
v 0.4500 -0.2500 0.2063
v 0.4500 0.0000 0.2063
v 0.4500 0.2500 0.2063
v 0.4500 0.5000 0.2063
v 0.4500 0.7500 0.2063
v 0.4500 1.0000 0.2063
v 0.4500 -1.0000 0.1375
v 0.4500 -0.7500 0.1375
v 0.4500 -0.5000 0.1375
v 0.4500 -0.2500 0.1375
v 0.4500 0.0000 0.1375
v 0.4500 0.2500 0.1375
v 0.4500 0.5000 0.1375
v 0.4500 0.7500 0.1375
v 0.4500 1.0000 0.1375
v 0.4500 -1.0000 0.0688
v 0.4500 -0.7500 0.0688
v 0.4500 -0.5000 0.0688
v 0.4500 -0.2500 0.0688
v 0.4500 0.0000 0.0688
v 0.4500 0.2500 0.0688
v 0.4500 0.5000 0.0688
v 0.4500 0.7500 0.0688
v 0.4500 1.0000 0.0688
v 0.4500 -1.0000 0.0000
v 0.4500 -0.7500 0.0000
v 0.4500 -0.5000 0.0000
v 0.4500 -0.2500 0.0000
v 0.4500 0.0000 0.0000
v 0.4500 0.2500 0.0000
v 0.4500 0.5000 0.0000
v 0.4500 0.7500 0.0000
v 0.4500 1.0000 0.0000
v 0.4500 -1.0000 -0.0687
v 0.4500 -0.7500 -0.0687
v 0.4500 -0.5000 -0.0687
v 0.4500 -0.2500 -0.0687
v 0.4500 0.0000 -0.0687
v 0.4500 0.2500 -0.0687
v 0.4500 0.5000 -0.0687
v 0.4500 0.7500 -0.0687
v 0.4500 1.0000 -0.0687
v 0.4500 -1.0000 -0.1375
v 0.4500 -0.7500 -0.1375
v 0.4500 -0.5000 -0.1375
v 0.4500 -0.2500 -0.1375
v 0.4500 0.0000 -0.1375
v 0.4500 0.2500 -0.1375
v 0.4500 0.5000 -0.1375
v 0.4500 0.7500 -0.1375
v 0.4500 1.0000 -0.1375
v 0.4500 -1.0000 -0.2063
v 0.4500 -0.7500 -0.2063
v 0.4500 -0.5000 -0.2063
v 0.4500 -0.2500 -0.2063
v 0.4500 0.0000 -0.2063
v 0.4500 0.2500 -0.2063
v 0.4500 0.5000 -0.2063
v 0.4500 0.7500 -0.2063
v 0.4500 1.0000 -0.2063
v 0.4500 -1.0000 -0.2750
v 0.4500 -0.7500 -0.2750
v 0.4500 -0.5000 -0.2750
v 0.4500 -0.2500 -0.2750
v 0.4500 0.0000 -0.2750
v 0.4500 0.2500 -0.2750
v 0.4500 0.5000 -0.2750
v 0.4500 0.7500 -0.2750
v 0.4500 1.0000 -0.2750
v -0.4500 1.0000 -0.2750
v -0.4500 1.0000 -0.2063
v -0.4500 1.0000 -0.1375
v -0.4500 1.0000 -0.0688
v -0.4500 1.0000 0.0000
v -0.4500 1.0000 0.0687
v -0.4500 1.0000 0.1375
v -0.4500 1.0000 0.2063
v -0.4500 1.0000 0.2750
v -0.3375 1.0000 -0.2750
v -0.3375 1.0000 -0.2063
v -0.3375 1.0000 -0.1375
v -0.3375 1.0000 -0.0688
v -0.3375 1.0000 0.0000
v -0.3375 1.0000 0.0687
v -0.3375 1.0000 0.1375
v -0.3375 1.0000 0.2063
v -0.3375 1.0000 0.2750
v -0.2250 1.0000 -0.2750
v -0.2250 1.0000 -0.2063
v -0.2250 1.0000 -0.1375
v -0.2250 1.0000 -0.0688
v -0.2250 1.0000 0.0000
v -0.2250 1.0000 0.0687
v -0.2250 1.0000 0.1375
v -0.2250 1.0000 0.2063
v -0.2250 1.0000 0.2750
v -0.1125 1.0000 -0.2750
v -0.1125 1.0000 -0.2063
v -0.1125 1.0000 -0.1375
v -0.1125 1.0000 -0.0688
v -0.1125 1.0000 0.0000
v -0.1125 1.0000 0.0687
v -0.1125 1.0000 0.1375
v -0.1125 1.0000 0.2063
v -0.1125 1.0000 0.2750
v 0.0000 1.0000 -0.2750
v 0.0000 1.0000 -0.2063
v 0.0000 1.0000 -0.1375
v 0.0000 1.0000 -0.0688
v 0.0000 1.0000 0.0000
v 0.0000 1.0000 0.0687
v 0.0000 1.0000 0.1375
v 0.0000 1.0000 0.2063
v 0.0000 1.0000 0.2750
v 0.1125 1.0000 -0.2750
v 0.1125 1.0000 -0.2063
v 0.1125 1.0000 -0.1375
v 0.1125 1.0000 -0.0688
v 0.1125 1.0000 0.0000
v 0.1125 1.0000 0.0687
v 0.1125 1.0000 0.1375
v 0.1125 1.0000 0.2063
v 0.1125 1.0000 0.2750
v 0.2250 1.0000 -0.2750
v 0.2250 1.0000 -0.2063
v 0.2250 1.0000 -0.1375
v 0.2250 1.0000 -0.0688
v 0.2250 1.0000 0.0000
v 0.2250 1.0000 0.0687
v 0.2250 1.0000 0.1375
v 0.2250 1.0000 0.2063
v 0.2250 1.0000 0.2750
v 0.3375 1.0000 -0.2750
v 0.3375 1.0000 -0.2063
v 0.3375 1.0000 -0.1375
v 0.3375 1.0000 -0.0688
v 0.3375 1.0000 0.0000
v 0.3375 1.0000 0.0687
v 0.3375 1.0000 0.1375
v 0.3375 1.0000 0.2063
v 0.3375 1.0000 0.2750
v 0.4500 1.0000 -0.2750
v 0.4500 1.0000 -0.2063
v 0.4500 1.0000 -0.1375
v 0.4500 1.0000 -0.0688
v 0.4500 1.0000 0.0000
v 0.4500 1.0000 0.0687
v 0.4500 1.0000 0.1375
v 0.4500 1.0000 0.2063
v 0.4500 1.0000 0.2750
v -0.4500 -1.0000 0.2750
v -0.4500 -1.0000 0.2063
v -0.4500 -1.0000 0.1375
v -0.4500 -1.0000 0.0688
v -0.4500 -1.0000 0.0000
v -0.4500 -1.0000 -0.0687
v -0.4500 -1.0000 -0.1375
v -0.4500 -1.0000 -0.2063
v -0.4500 -1.0000 -0.2750
v -0.3375 -1.0000 0.2750
v -0.3375 -1.0000 0.2063
v -0.3375 -1.0000 0.1375
v -0.3375 -1.0000 0.0688
v -0.3375 -1.0000 0.0000
v -0.3375 -1.0000 -0.0687
v -0.3375 -1.0000 -0.1375
v -0.3375 -1.0000 -0.2063
v -0.3375 -1.0000 -0.2750
v -0.2250 -1.0000 0.2750
v -0.2250 -1.0000 0.2063
v -0.2250 -1.0000 0.1375
v -0.2250 -1.0000 0.0688
v -0.2250 -1.0000 0.0000
v -0.2250 -1.0000 -0.0687
v -0.2250 -1.0000 -0.1375
v -0.2250 -1.0000 -0.2063
v -0.2250 -1.0000 -0.2750
v -0.1125 -1.0000 0.2750
v -0.1125 -1.0000 0.2063
v -0.1125 -1.0000 0.1375
v -0.1125 -1.0000 0.0688
v -0.1125 -1.0000 0.0000
v -0.1125 -1.0000 -0.0687
v -0.1125 -1.0000 -0.1375
v -0.1125 -1.0000 -0.2063
v -0.1125 -1.0000 -0.2750
v 0.0000 -1.0000 0.2750
v 0.0000 -1.0000 0.2063
v 0.0000 -1.0000 0.1375
v 0.0000 -1.0000 0.0688
v 0.0000 -1.0000 0.0000
v 0.0000 -1.0000 -0.0687
v 0.0000 -1.0000 -0.1375
v 0.0000 -1.0000 -0.2063
v 0.0000 -1.0000 -0.2750
v 0.1125 -1.0000 0.2750
v 0.1125 -1.0000 0.2063
v 0.1125 -1.0000 0.1375
v 0.1125 -1.0000 0.0688
v 0.1125 -1.0000 0.0000
v 0.1125 -1.0000 -0.0687
v 0.1125 -1.0000 -0.1375
v 0.1125 -1.0000 -0.2063
v 0.1125 -1.0000 -0.2750
v 0.2250 -1.0000 0.2750
v 0.2250 -1.0000 0.2063
v 0.2250 -1.0000 0.1375
v 0.2250 -1.0000 0.0688
v 0.2250 -1.0000 0.0000
v 0.2250 -1.0000 -0.0687
v 0.2250 -1.0000 -0.1375
v 0.2250 -1.0000 -0.2063
v 0.2250 -1.0000 -0.2750
v 0.3375 -1.0000 0.2750
v 0.3375 -1.0000 0.2063
v 0.3375 -1.0000 0.1375
v 0.3375 -1.0000 0.0688
v 0.3375 -1.0000 0.0000
v 0.3375 -1.0000 -0.0687
v 0.3375 -1.0000 -0.1375
v 0.3375 -1.0000 -0.2063
v 0.3375 -1.0000 -0.2750
v 0.4500 -1.0000 0.2750
v 0.4500 -1.0000 0.2063
v 0.4500 -1.0000 0.1375
v 0.4500 -1.0000 0.0688
v 0.4500 -1.0000 0.0000
v 0.4500 -1.0000 -0.0687
v 0.4500 -1.0000 -0.1375
v 0.4500 -1.0000 -0.2063
v 0.4500 -1.0000 -0.2750
v -0.4250 0.3300 0.2500
v -0.4250 0.3380 0.2500
v -0.4250 0.3460 0.2500
v -0.4250 0.3540 0.2500
v -0.4250 0.3620 0.2500
v -0.4250 0.3700 0.2500
v -0.2550 0.3300 0.2500
v -0.2550 0.3380 0.2500
v -0.2550 0.3460 0.2500
v -0.2550 0.3540 0.2500
v -0.2550 0.3620 0.2500
v -0.2550 0.3700 0.2500
v -0.0850 0.3300 0.2500
v -0.0850 0.3380 0.2500
v -0.0850 0.3460 0.2500
v -0.0850 0.3540 0.2500
v -0.0850 0.3620 0.2500
v -0.0850 0.3700 0.2500
v 0.0850 0.3300 0.2500
v 0.0850 0.3380 0.2500
v 0.0850 0.3460 0.2500
v 0.0850 0.3540 0.2500
v 0.0850 0.3620 0.2500
v 0.0850 0.3700 0.2500
v 0.2550 0.3300 0.2500
v 0.2550 0.3380 0.2500
v 0.2550 0.3460 0.2500
v 0.2550 0.3540 0.2500
v 0.2550 0.3620 0.2500
v 0.2550 0.3700 0.2500
v 0.4250 0.3300 0.2500
v 0.4250 0.3380 0.2500
v 0.4250 0.3460 0.2500
v 0.4250 0.3540 0.2500
v 0.4250 0.3620 0.2500
v 0.4250 0.3700 0.2500
v 0.4250 0.3300 -0.2500
v 0.4250 0.3380 -0.2500
v 0.4250 0.3460 -0.2500
v 0.4250 0.3540 -0.2500
v 0.4250 0.3620 -0.2500
v 0.4250 0.3700 -0.2500
v 0.2550 0.3300 -0.2500
v 0.2550 0.3380 -0.2500
v 0.2550 0.3460 -0.2500
v 0.2550 0.3540 -0.2500
v 0.2550 0.3620 -0.2500
v 0.2550 0.3700 -0.2500
v 0.0850 0.3300 -0.2500
v 0.0850 0.3380 -0.2500
v 0.0850 0.3460 -0.2500
v 0.0850 0.3540 -0.2500
v 0.0850 0.3620 -0.2500
v 0.0850 0.3700 -0.2500
v -0.0850 0.3300 -0.2500
v -0.0850 0.3380 -0.2500
v -0.0850 0.3460 -0.2500
v -0.0850 0.3540 -0.2500
v -0.0850 0.3620 -0.2500
v -0.0850 0.3700 -0.2500
v -0.2550 0.3300 -0.2500
v -0.2550 0.3380 -0.2500
v -0.2550 0.3460 -0.2500
v -0.2550 0.3540 -0.2500
v -0.2550 0.3620 -0.2500
v -0.2550 0.3700 -0.2500
v -0.4250 0.3300 -0.2500
v -0.4250 0.3380 -0.2500
v -0.4250 0.3460 -0.2500
v -0.4250 0.3540 -0.2500
v -0.4250 0.3620 -0.2500
v -0.4250 0.3700 -0.2500
v -0.4250 0.3300 -0.2500
v -0.4250 0.3380 -0.2500
v -0.4250 0.3460 -0.2500
v -0.4250 0.3540 -0.2500
v -0.4250 0.3620 -0.2500
v -0.4250 0.3700 -0.2500
v -0.4250 0.3300 -0.1500
v -0.4250 0.3380 -0.1500
v -0.4250 0.3460 -0.1500
v -0.4250 0.3540 -0.1500
v -0.4250 0.3620 -0.1500
v -0.4250 0.3700 -0.1500
v -0.4250 0.3300 -0.0500
v -0.4250 0.3380 -0.0500
v -0.4250 0.3460 -0.0500
v -0.4250 0.3540 -0.0500
v -0.4250 0.3620 -0.0500
v -0.4250 0.3700 -0.0500
v -0.4250 0.3300 0.0500
v -0.4250 0.3380 0.0500
v -0.4250 0.3460 0.0500
v -0.4250 0.3540 0.0500
v -0.4250 0.3620 0.0500
v -0.4250 0.3700 0.0500
v -0.4250 0.3300 0.1500
v -0.4250 0.3380 0.1500
v -0.4250 0.3460 0.1500
v -0.4250 0.3540 0.1500
v -0.4250 0.3620 0.1500
v -0.4250 0.3700 0.1500
v -0.4250 0.3300 0.2500
v -0.4250 0.3380 0.2500
v -0.4250 0.3460 0.2500
v -0.4250 0.3540 0.2500
v -0.4250 0.3620 0.2500
v -0.4250 0.3700 0.2500
v 0.4250 0.3300 0.2500
v 0.4250 0.3380 0.2500
v 0.4250 0.3460 0.2500
v 0.4250 0.3540 0.2500
v 0.4250 0.3620 0.2500
v 0.4250 0.3700 0.2500
v 0.4250 0.3300 0.1500
v 0.4250 0.3380 0.1500
v 0.4250 0.3460 0.1500
v 0.4250 0.3540 0.1500
v 0.4250 0.3620 0.1500
v 0.4250 0.3700 0.1500
v 0.4250 0.3300 0.0500
v 0.4250 0.3380 0.0500
v 0.4250 0.3460 0.0500
v 0.4250 0.3540 0.0500
v 0.4250 0.3620 0.0500
v 0.4250 0.3700 0.0500
v 0.4250 0.3300 -0.0500
v 0.4250 0.3380 -0.0500
v 0.4250 0.3460 -0.0500
v 0.4250 0.3540 -0.0500
v 0.4250 0.3620 -0.0500
v 0.4250 0.3700 -0.0500
v 0.4250 0.3300 -0.1500
v 0.4250 0.3380 -0.1500
v 0.4250 0.3460 -0.1500
v 0.4250 0.3540 -0.1500
v 0.4250 0.3620 -0.1500
v 0.4250 0.3700 -0.1500
v 0.4250 0.3300 -0.2500
v 0.4250 0.3380 -0.2500
v 0.4250 0.3460 -0.2500
v 0.4250 0.3540 -0.2500
v 0.4250 0.3620 -0.2500
v 0.4250 0.3700 -0.2500
v -0.4250 0.3700 -0.2500
v -0.4250 0.3700 -0.1500
v -0.4250 0.3700 -0.0500
v -0.4250 0.3700 0.0500
v -0.4250 0.3700 0.1500
v -0.4250 0.3700 0.2500
v -0.2550 0.3700 -0.2500
v -0.2550 0.3700 -0.1500
v -0.2550 0.3700 -0.0500
v -0.2550 0.3700 0.0500
v -0.2550 0.3700 0.1500
v -0.2550 0.3700 0.2500
v -0.0850 0.3700 -0.2500
v -0.0850 0.3700 -0.1500
v -0.0850 0.3700 -0.0500
v -0.0850 0.3700 0.0500
v -0.0850 0.3700 0.1500
v -0.0850 0.3700 0.2500
v 0.0850 0.3700 -0.2500
v 0.0850 0.3700 -0.1500
v 0.0850 0.3700 -0.0500
v 0.0850 0.3700 0.0500
v 0.0850 0.3700 0.1500
v 0.0850 0.3700 0.2500
v 0.2550 0.3700 -0.2500
v 0.2550 0.3700 -0.1500
v 0.2550 0.3700 -0.0500
v 0.2550 0.3700 0.0500
v 0.2550 0.3700 0.1500
v 0.2550 0.3700 0.2500
v 0.4250 0.3700 -0.2500
v 0.4250 0.3700 -0.1500
v 0.4250 0.3700 -0.0500
v 0.4250 0.3700 0.0500
v 0.4250 0.3700 0.1500
v 0.4250 0.3700 0.2500
v -0.4250 0.3300 0.2500
v -0.4250 0.3300 0.1500
v -0.4250 0.3300 0.0500
v -0.4250 0.3300 -0.0500
v -0.4250 0.3300 -0.1500
v -0.4250 0.3300 -0.2500
v -0.2550 0.3300 0.2500
v -0.2550 0.3300 0.1500
v -0.2550 0.3300 0.0500
v -0.2550 0.3300 -0.0500
v -0.2550 0.3300 -0.1500
v -0.2550 0.3300 -0.2500
v -0.0850 0.3300 0.2500
v -0.0850 0.3300 0.1500
v -0.0850 0.3300 0.0500
v -0.0850 0.3300 -0.0500
v -0.0850 0.3300 -0.1500
v -0.0850 0.3300 -0.2500
v 0.0850 0.3300 0.2500
v 0.0850 0.3300 0.1500
v 0.0850 0.3300 0.0500
v 0.0850 0.3300 -0.0500
v 0.0850 0.3300 -0.1500
v 0.0850 0.3300 -0.2500
v 0.2550 0.3300 0.2500
v 0.2550 0.3300 0.1500
v 0.2550 0.3300 0.0500
v 0.2550 0.3300 -0.0500
v 0.2550 0.3300 -0.1500
v 0.2550 0.3300 -0.2500
v 0.4250 0.3300 0.2500
v 0.4250 0.3300 0.1500
v 0.4250 0.3300 0.0500
v 0.4250 0.3300 -0.0500
v 0.4250 0.3300 -0.1500
v 0.4250 0.3300 -0.2500
v -0.4250 -0.3200 0.2500
v -0.4250 -0.3120 0.2500
v -0.4250 -0.3040 0.2500
v -0.4250 -0.2960 0.2500
v -0.4250 -0.2880 0.2500
v -0.4250 -0.2800 0.2500
v -0.2550 -0.3200 0.2500
v -0.2550 -0.3120 0.2500
v -0.2550 -0.3040 0.2500
v -0.2550 -0.2960 0.2500
v -0.2550 -0.2880 0.2500
v -0.2550 -0.2800 0.2500
v -0.0850 -0.3200 0.2500
v -0.0850 -0.3120 0.2500
v -0.0850 -0.3040 0.2500
v -0.0850 -0.2960 0.2500
v -0.0850 -0.2880 0.2500
v -0.0850 -0.2800 0.2500
v 0.0850 -0.3200 0.2500
v 0.0850 -0.3120 0.2500
v 0.0850 -0.3040 0.2500
v 0.0850 -0.2960 0.2500
v 0.0850 -0.2880 0.2500
v 0.0850 -0.2800 0.2500
v 0.2550 -0.3200 0.2500
v 0.2550 -0.3120 0.2500
v 0.2550 -0.3040 0.2500
v 0.2550 -0.2960 0.2500
v 0.2550 -0.2880 0.2500
v 0.2550 -0.2800 0.2500
v 0.4250 -0.3200 0.2500
v 0.4250 -0.3120 0.2500
v 0.4250 -0.3040 0.2500
v 0.4250 -0.2960 0.2500
v 0.4250 -0.2880 0.2500
v 0.4250 -0.2800 0.2500
v 0.4250 -0.3200 -0.2500
v 0.4250 -0.3120 -0.2500
v 0.4250 -0.3040 -0.2500
v 0.4250 -0.2960 -0.2500
v 0.4250 -0.2880 -0.2500
v 0.4250 -0.2800 -0.2500
v 0.2550 -0.3200 -0.2500
v 0.2550 -0.3120 -0.2500
v 0.2550 -0.3040 -0.2500
v 0.2550 -0.2960 -0.2500
v 0.2550 -0.2880 -0.2500
v 0.2550 -0.2800 -0.2500
v 0.0850 -0.3200 -0.2500
v 0.0850 -0.3120 -0.2500
v 0.0850 -0.3040 -0.2500
v 0.0850 -0.2960 -0.2500
v 0.0850 -0.2880 -0.2500
v 0.0850 -0.2800 -0.2500
v -0.0850 -0.3200 -0.2500
v -0.0850 -0.3120 -0.2500
v -0.0850 -0.3040 -0.2500
v -0.0850 -0.2960 -0.2500
v -0.0850 -0.2880 -0.2500
v -0.0850 -0.2800 -0.2500
v -0.2550 -0.3200 -0.2500
v -0.2550 -0.3120 -0.2500
v -0.2550 -0.3040 -0.2500
v -0.2550 -0.2960 -0.2500
v -0.2550 -0.2880 -0.2500
v -0.2550 -0.2800 -0.2500
v -0.4250 -0.3200 -0.2500
v -0.4250 -0.3120 -0.2500
v -0.4250 -0.3040 -0.2500
v -0.4250 -0.2960 -0.2500
v -0.4250 -0.2880 -0.2500
v -0.4250 -0.2800 -0.2500
v -0.4250 -0.3200 -0.2500
v -0.4250 -0.3120 -0.2500
v -0.4250 -0.3040 -0.2500
v -0.4250 -0.2960 -0.2500
v -0.4250 -0.2880 -0.2500
v -0.4250 -0.2800 -0.2500
v -0.4250 -0.3200 -0.1500
v -0.4250 -0.3120 -0.1500
v -0.4250 -0.3040 -0.1500
v -0.4250 -0.2960 -0.1500
v -0.4250 -0.2880 -0.1500
v -0.4250 -0.2800 -0.1500
v -0.4250 -0.3200 -0.0500
v -0.4250 -0.3120 -0.0500
v -0.4250 -0.3040 -0.0500
v -0.4250 -0.2960 -0.0500
v -0.4250 -0.2880 -0.0500
v -0.4250 -0.2800 -0.0500
v -0.4250 -0.3200 0.0500
v -0.4250 -0.3120 0.0500
v -0.4250 -0.3040 0.0500
v -0.4250 -0.2960 0.0500
v -0.4250 -0.2880 0.0500
v -0.4250 -0.2800 0.0500
v -0.4250 -0.3200 0.1500
v -0.4250 -0.3120 0.1500
v -0.4250 -0.3040 0.1500
v -0.4250 -0.2960 0.1500
v -0.4250 -0.2880 0.1500
v -0.4250 -0.2800 0.1500
v -0.4250 -0.3200 0.2500
v -0.4250 -0.3120 0.2500
v -0.4250 -0.3040 0.2500
v -0.4250 -0.2960 0.2500
v -0.4250 -0.2880 0.2500
v -0.4250 -0.2800 0.2500
v 0.4250 -0.3200 0.2500
v 0.4250 -0.3120 0.2500
v 0.4250 -0.3040 0.2500
v 0.4250 -0.2960 0.2500
v 0.4250 -0.2880 0.2500
v 0.4250 -0.2800 0.2500
v 0.4250 -0.3200 0.1500
v 0.4250 -0.3120 0.1500
v 0.4250 -0.3040 0.1500
v 0.4250 -0.2960 0.1500
v 0.4250 -0.2880 0.1500
v 0.4250 -0.2800 0.1500
v 0.4250 -0.3200 0.0500
v 0.4250 -0.3120 0.0500
v 0.4250 -0.3040 0.0500
v 0.4250 -0.2960 0.0500
v 0.4250 -0.2880 0.0500
v 0.4250 -0.2800 0.0500
v 0.4250 -0.3200 -0.0500
v 0.4250 -0.3120 -0.0500
v 0.4250 -0.3040 -0.0500
v 0.4250 -0.2960 -0.0500
v 0.4250 -0.2880 -0.0500
v 0.4250 -0.2800 -0.0500
v 0.4250 -0.3200 -0.1500
v 0.4250 -0.3120 -0.1500
v 0.4250 -0.3040 -0.1500
v 0.4250 -0.2960 -0.1500
v 0.4250 -0.2880 -0.1500
v 0.4250 -0.2800 -0.1500
v 0.4250 -0.3200 -0.2500
v 0.4250 -0.3120 -0.2500
v 0.4250 -0.3040 -0.2500
v 0.4250 -0.2960 -0.2500
v 0.4250 -0.2880 -0.2500
v 0.4250 -0.2800 -0.2500
v -0.4250 -0.2800 -0.2500
v -0.4250 -0.2800 -0.1500
v -0.4250 -0.2800 -0.0500
v -0.4250 -0.2800 0.0500
v -0.4250 -0.2800 0.1500
v -0.4250 -0.2800 0.2500
v -0.2550 -0.2800 -0.2500
v -0.2550 -0.2800 -0.1500
v -0.2550 -0.2800 -0.0500
v -0.2550 -0.2800 0.0500
v -0.2550 -0.2800 0.1500
v -0.2550 -0.2800 0.2500
v -0.0850 -0.2800 -0.2500
v -0.0850 -0.2800 -0.1500
v -0.0850 -0.2800 -0.0500
v -0.0850 -0.2800 0.0500
v -0.0850 -0.2800 0.1500
v -0.0850 -0.2800 0.2500
v 0.0850 -0.2800 -0.2500
v 0.0850 -0.2800 -0.1500
v 0.0850 -0.2800 -0.0500
v 0.0850 -0.2800 0.0500
v 0.0850 -0.2800 0.1500
v 0.0850 -0.2800 0.2500
v 0.2550 -0.2800 -0.2500
v 0.2550 -0.2800 -0.1500
v 0.2550 -0.2800 -0.0500
v 0.2550 -0.2800 0.0500
v 0.2550 -0.2800 0.1500
v 0.2550 -0.2800 0.2500
v 0.4250 -0.2800 -0.2500
v 0.4250 -0.2800 -0.1500
v 0.4250 -0.2800 -0.0500
v 0.4250 -0.2800 0.0500
v 0.4250 -0.2800 0.1500
v 0.4250 -0.2800 0.2500
v -0.4250 -0.3200 0.2500
v -0.4250 -0.3200 0.1500
v -0.4250 -0.3200 0.0500
v -0.4250 -0.3200 -0.0500
v -0.4250 -0.3200 -0.1500
v -0.4250 -0.3200 -0.2500
v -0.2550 -0.3200 0.2500
v -0.2550 -0.3200 0.1500
v -0.2550 -0.3200 0.0500
v -0.2550 -0.3200 -0.0500
v -0.2550 -0.3200 -0.1500
v -0.2550 -0.3200 -0.2500
v -0.0850 -0.3200 0.2500
v -0.0850 -0.3200 0.1500
v -0.0850 -0.3200 0.0500
v -0.0850 -0.3200 -0.0500
v -0.0850 -0.3200 -0.1500
v -0.0850 -0.3200 -0.2500
v 0.0850 -0.3200 0.2500
v 0.0850 -0.3200 0.1500
v 0.0850 -0.3200 0.0500
v 0.0850 -0.3200 -0.0500
v 0.0850 -0.3200 -0.1500
v 0.0850 -0.3200 -0.2500
v 0.2550 -0.3200 0.2500
v 0.2550 -0.3200 0.1500
v 0.2550 -0.3200 0.0500
v 0.2550 -0.3200 -0.0500
v 0.2550 -0.3200 -0.1500
v 0.2550 -0.3200 -0.2500
v 0.4250 -0.3200 0.2500
v 0.4250 -0.3200 0.1500
v 0.4250 -0.3200 0.0500
v 0.4250 -0.3200 -0.0500
v 0.4250 -0.3200 -0.1500
v 0.4250 -0.3200 -0.2500
v 0.3200 -0.0600 0.3050
v 0.3200 -0.0200 0.3050
v 0.3200 0.0200 0.3050
v 0.3200 0.0600 0.3050
v 0.3400 -0.0600 0.3050
v 0.3400 -0.0200 0.3050
v 0.3400 0.0200 0.3050
v 0.3400 0.0600 0.3050
v 0.3600 -0.0600 0.3050
v 0.3600 -0.0200 0.3050
v 0.3600 0.0200 0.3050
v 0.3600 0.0600 0.3050
v 0.3800 -0.0600 0.3050
v 0.3800 -0.0200 0.3050
v 0.3800 0.0200 0.3050
v 0.3800 0.0600 0.3050
v 0.3800 -0.0600 0.2750
v 0.3800 -0.0200 0.2750
v 0.3800 0.0200 0.2750
v 0.3800 0.0600 0.2750
v 0.3600 -0.0600 0.2750
v 0.3600 -0.0200 0.2750
v 0.3600 0.0200 0.2750
v 0.3600 0.0600 0.2750
v 0.3400 -0.0600 0.2750
v 0.3400 -0.0200 0.2750
v 0.3400 0.0200 0.2750
v 0.3400 0.0600 0.2750
v 0.3200 -0.0600 0.2750
v 0.3200 -0.0200 0.2750
v 0.3200 0.0200 0.2750
v 0.3200 0.0600 0.2750
v 0.3200 -0.0600 0.2750
v 0.3200 -0.0200 0.2750
v 0.3200 0.0200 0.2750
v 0.3200 0.0600 0.2750
v 0.3200 -0.0600 0.2850
v 0.3200 -0.0200 0.2850
v 0.3200 0.0200 0.2850
v 0.3200 0.0600 0.2850
v 0.3200 -0.0600 0.2950
v 0.3200 -0.0200 0.2950
v 0.3200 0.0200 0.2950
v 0.3200 0.0600 0.2950
v 0.3200 -0.0600 0.3050
v 0.3200 -0.0200 0.3050
v 0.3200 0.0200 0.3050
v 0.3200 0.0600 0.3050
v 0.3800 -0.0600 0.3050
v 0.3800 -0.0200 0.3050
v 0.3800 0.0200 0.3050
v 0.3800 0.0600 0.3050
v 0.3800 -0.0600 0.2950
v 0.3800 -0.0200 0.2950
v 0.3800 0.0200 0.2950
v 0.3800 0.0600 0.2950
v 0.3800 -0.0600 0.2850
v 0.3800 -0.0200 0.2850
v 0.3800 0.0200 0.2850
v 0.3800 0.0600 0.2850
v 0.3800 -0.0600 0.2750
v 0.3800 -0.0200 0.2750
v 0.3800 0.0200 0.2750
v 0.3800 0.0600 0.2750
v 0.3200 0.0600 0.2750
v 0.3200 0.0600 0.2850
v 0.3200 0.0600 0.2950
v 0.3200 0.0600 0.3050
v 0.3400 0.0600 0.2750
v 0.3400 0.0600 0.2850
v 0.3400 0.0600 0.2950
v 0.3400 0.0600 0.3050
v 0.3600 0.0600 0.2750
v 0.3600 0.0600 0.2850
v 0.3600 0.0600 0.2950
v 0.3600 0.0600 0.3050
v 0.3800 0.0600 0.2750
v 0.3800 0.0600 0.2850
v 0.3800 0.0600 0.2950
v 0.3800 0.0600 0.3050
v 0.3200 -0.0600 0.3050
v 0.3200 -0.0600 0.2950
v 0.3200 -0.0600 0.2850
v 0.3200 -0.0600 0.2750
v 0.3400 -0.0600 0.3050
v 0.3400 -0.0600 0.2950
v 0.3400 -0.0600 0.2850
v 0.3400 -0.0600 0.2750
v 0.3600 -0.0600 0.3050
v 0.3600 -0.0600 0.2950
v 0.3600 -0.0600 0.2850
v 0.3600 -0.0600 0.2750
v 0.3800 -0.0600 0.3050
v 0.3800 -0.0600 0.2950
v 0.3800 -0.0600 0.2850
v 0.3800 -0.0600 0.2750
f 1 2 11
f 1 11 10
f 2 3 12
f 2 12 11
f 3 4 13
f 3 13 12
f 4 5 14
f 4 14 13
f 5 6 15
f 5 15 14
f 6 7 16
f 6 16 15
f 7 8 17
f 7 17 16
f 8 9 18
f 8 18 17
f 10 11 20
f 10 20 19
f 11 12 21
f 11 21 20
f 12 13 22
f 12 22 21
f 13 14 23
f 13 23 22
f 14 15 24
f 14 24 23
f 15 16 25
f 15 25 24
f 16 17 26
f 16 26 25
f 17 18 27
f 17 27 26
f 19 20 29
f 19 29 28
f 20 21 30
f 20 30 29
f 21 22 31
f 21 31 30
f 22 23 32
f 22 32 31
f 23 24 33
f 23 33 32
f 24 25 34
f 24 34 33
f 25 26 35
f 25 35 34
f 26 27 36
f 26 36 35
f 28 29 38
f 28 38 37
f 29 30 39
f 29 39 38
f 30 31 40
f 30 40 39
f 31 32 41
f 31 41 40
f 32 33 42
f 32 42 41
f 33 34 43
f 33 43 42
f 34 35 44
f 34 44 43
f 35 36 45
f 35 45 44
f 37 38 47
f 37 47 46
f 38 39 48
f 38 48 47
f 39 40 49
f 39 49 48
f 40 41 50
f 40 50 49
f 41 42 51
f 41 51 50
f 42 43 52
f 42 52 51
f 43 44 53
f 43 53 52
f 44 45 54
f 44 54 53
f 46 47 56
f 46 56 55
f 47 48 57
f 47 57 56
f 48 49 58
f 48 58 57
f 49 50 59
f 49 59 58
f 50 51 60
f 50 60 59
f 51 52 61
f 51 61 60
f 52 53 62
f 52 62 61
f 53 54 63
f 53 63 62
f 55 56 65
f 55 65 64
f 56 57 66
f 56 66 65
f 57 58 67
f 57 67 66
f 58 59 68
f 58 68 67
f 59 60 69
f 59 69 68
f 60 61 70
f 60 70 69
f 61 62 71
f 61 71 70
f 62 63 72
f 62 72 71
f 64 65 74
f 64 74 73
f 65 66 75
f 65 75 74
f 66 67 76
f 66 76 75
f 67 68 77
f 67 77 76
f 68 69 78
f 68 78 77
f 69 70 79
f 69 79 78
f 70 71 80
f 70 80 79
f 71 72 81
f 71 81 80
f 82 83 92
f 82 92 91
f 83 84 93
f 83 93 92
f 84 85 94
f 84 94 93
f 85 86 95
f 85 95 94
f 86 87 96
f 86 96 95
f 87 88 97
f 87 97 96
f 88 89 98
f 88 98 97
f 89 90 99
f 89 99 98
f 91 92 101
f 91 101 100
f 92 93 102
f 92 102 101
f 93 94 103
f 93 103 102
f 94 95 104
f 94 104 103
f 95 96 105
f 95 105 104
f 96 97 106
f 96 106 105
f 97 98 107
f 97 107 106
f 98 99 108
f 98 108 107
f 100 101 110
f 100 110 109
f 101 102 111
f 101 111 110
f 102 103 112
f 102 112 111
f 103 104 113
f 103 113 112
f 104 105 114
f 104 114 113
f 105 106 115
f 105 115 114
f 106 107 116
f 106 116 115
f 107 108 117
f 107 117 116
f 109 110 119
f 109 119 118
f 110 111 120
f 110 120 119
f 111 112 121
f 111 121 120
f 112 113 122
f 112 122 121
f 113 114 123
f 113 123 122
f 114 115 124
f 114 124 123
f 115 116 125
f 115 125 124
f 116 117 126
f 116 126 125
f 118 119 128
f 118 128 127
f 119 120 129
f 119 129 128
f 120 121 130
f 120 130 129
f 121 122 131
f 121 131 130
f 122 123 132
f 122 132 131
f 123 124 133
f 123 133 132
f 124 125 134
f 124 134 133
f 125 126 135
f 125 135 134
f 127 128 137
f 127 137 136
f 128 129 138
f 128 138 137
f 129 130 139
f 129 139 138
f 130 131 140
f 130 140 139
f 131 132 141
f 131 141 140
f 132 133 142
f 132 142 141
f 133 134 143
f 133 143 142
f 134 135 144
f 134 144 143
f 136 137 146
f 136 146 145
f 137 138 147
f 137 147 146
f 138 139 148
f 138 148 147
f 139 140 149
f 139 149 148
f 140 141 150
f 140 150 149
f 141 142 151
f 141 151 150
f 142 143 152
f 142 152 151
f 143 144 153
f 143 153 152
f 145 146 155
f 145 155 154
f 146 147 156
f 146 156 155
f 147 148 157
f 147 157 156
f 148 149 158
f 148 158 157
f 149 150 159
f 149 159 158
f 150 151 160
f 150 160 159
f 151 152 161
f 151 161 160
f 152 153 162
f 152 162 161
f 163 164 173
f 163 173 172
f 164 165 174
f 164 174 173
f 165 166 175
f 165 175 174
f 166 167 176
f 166 176 175
f 167 168 177
f 167 177 176
f 168 169 178
f 168 178 177
f 169 170 179
f 169 179 178
f 170 171 180
f 170 180 179
f 172 173 182
f 172 182 181
f 173 174 183
f 173 183 182
f 174 175 184
f 174 184 183
f 175 176 185
f 175 185 184
f 176 177 186
f 176 186 185
f 177 178 187
f 177 187 186
f 178 179 188
f 178 188 187
f 179 180 189
f 179 189 188
f 181 182 191
f 181 191 190
f 182 183 192
f 182 192 191
f 183 184 193
f 183 193 192
f 184 185 194
f 184 194 193
f 185 186 195
f 185 195 194
f 186 187 196
f 186 196 195
f 187 188 197
f 187 197 196
f 188 189 198
f 188 198 197
f 190 191 200
f 190 200 199
f 191 192 201
f 191 201 200
f 192 193 202
f 192 202 201
f 193 194 203
f 193 203 202
f 194 195 204
f 194 204 203
f 195 196 205
f 195 205 204
f 196 197 206
f 196 206 205
f 197 198 207
f 197 207 206
f 199 200 209
f 199 209 208
f 200 201 210
f 200 210 209
f 201 202 211
f 201 211 210
f 202 203 212
f 202 212 211
f 203 204 213
f 203 213 212
f 204 205 214
f 204 214 213
f 205 206 215
f 205 215 214
f 206 207 216
f 206 216 215
f 208 209 218
f 208 218 217
f 209 210 219
f 209 219 218
f 210 211 220
f 210 220 219
f 211 212 221
f 211 221 220
f 212 213 222
f 212 222 221
f 213 214 223
f 213 223 222
f 214 215 224
f 214 224 223
f 215 216 225
f 215 225 224
f 217 218 227
f 217 227 226
f 218 219 228
f 218 228 227
f 219 220 229
f 219 229 228
f 220 221 230
f 220 230 229
f 221 222 231
f 221 231 230
f 222 223 232
f 222 232 231
f 223 224 233
f 223 233 232
f 224 225 234
f 224 234 233
f 226 227 236
f 226 236 235
f 227 228 237
f 227 237 236
f 228 229 238
f 228 238 237
f 229 230 239
f 229 239 238
f 230 231 240
f 230 240 239
f 231 232 241
f 231 241 240
f 232 233 242
f 232 242 241
f 233 234 243
f 233 243 242
f 244 245 254
f 244 254 253
f 245 246 255
f 245 255 254
f 246 247 256
f 246 256 255
f 247 248 257
f 247 257 256
f 248 249 258
f 248 258 257
f 249 250 259
f 249 259 258
f 250 251 260
f 250 260 259
f 251 252 261
f 251 261 260
f 253 254 263
f 253 263 262
f 254 255 264
f 254 264 263
f 255 256 265
f 255 265 264
f 256 257 266
f 256 266 265
f 257 258 267
f 257 267 266
f 258 259 268
f 258 268 267
f 259 260 269
f 259 269 268
f 260 261 270
f 260 270 269
f 262 263 272
f 262 272 271
f 263 264 273
f 263 273 272
f 264 265 274
f 264 274 273
f 265 266 275
f 265 275 274
f 266 267 276
f 266 276 275
f 267 268 277
f 267 277 276
f 268 269 278
f 268 278 277
f 269 270 279
f 269 279 278
f 271 272 281
f 271 281 280
f 272 273 282
f 272 282 281
f 273 274 283
f 273 283 282
f 274 275 284
f 274 284 283
f 275 276 285
f 275 285 284
f 276 277 286
f 276 286 285
f 277 278 287
f 277 287 286
f 278 279 288
f 278 288 287
f 280 281 290
f 280 290 289
f 281 282 291
f 281 291 290
f 282 283 292
f 282 292 291
f 283 284 293
f 283 293 292
f 284 285 294
f 284 294 293
f 285 286 295
f 285 295 294
f 286 287 296
f 286 296 295
f 287 288 297
f 287 297 296
f 289 290 299
f 289 299 298
f 290 291 300
f 290 300 299
f 291 292 301
f 291 301 300
f 292 293 302
f 292 302 301
f 293 294 303
f 293 303 302
f 294 295 304
f 294 304 303
f 295 296 305
f 295 305 304
f 296 297 306
f 296 306 305
f 298 299 308
f 298 308 307
f 299 300 309
f 299 309 308
f 300 301 310
f 300 310 309
f 301 302 311
f 301 311 310
f 302 303 312
f 302 312 311
f 303 304 313
f 303 313 312
f 304 305 314
f 304 314 313
f 305 306 315
f 305 315 314
f 307 308 317
f 307 317 316
f 308 309 318
f 308 318 317
f 309 310 319
f 309 319 318
f 310 311 320
f 310 320 319
f 311 312 321
f 311 321 320
f 312 313 322
f 312 322 321
f 313 314 323
f 313 323 322
f 314 315 324
f 314 324 323
f 325 326 335
f 325 335 334
f 326 327 336
f 326 336 335
f 327 328 337
f 327 337 336
f 328 329 338
f 328 338 337
f 329 330 339
f 329 339 338
f 330 331 340
f 330 340 339
f 331 332 341
f 331 341 340
f 332 333 342
f 332 342 341
f 334 335 344
f 334 344 343
f 335 336 345
f 335 345 344
f 336 337 346
f 336 346 345
f 337 338 347
f 337 347 346
f 338 339 348
f 338 348 347
f 339 340 349
f 339 349 348
f 340 341 350
f 340 350 349
f 341 342 351
f 341 351 350
f 343 344 353
f 343 353 352
f 344 345 354
f 344 354 353
f 345 346 355
f 345 355 354
f 346 347 356
f 346 356 355
f 347 348 357
f 347 357 356
f 348 349 358
f 348 358 357
f 349 350 359
f 349 359 358
f 350 351 360
f 350 360 359
f 352 353 362
f 352 362 361
f 353 354 363
f 353 363 362
f 354 355 364
f 354 364 363
f 355 356 365
f 355 365 364
f 356 357 366
f 356 366 365
f 357 358 367
f 357 367 366
f 358 359 368
f 358 368 367
f 359 360 369
f 359 369 368
f 361 362 371
f 361 371 370
f 362 363 372
f 362 372 371
f 363 364 373
f 363 373 372
f 364 365 374
f 364 374 373
f 365 366 375
f 365 375 374
f 366 367 376
f 366 376 375
f 367 368 377
f 367 377 376
f 368 369 378
f 368 378 377
f 370 371 380
f 370 380 379
f 371 372 381
f 371 381 380
f 372 373 382
f 372 382 381
f 373 374 383
f 373 383 382
f 374 375 384
f 374 384 383
f 375 376 385
f 375 385 384
f 376 377 386
f 376 386 385
f 377 378 387
f 377 387 386
f 379 380 389
f 379 389 388
f 380 381 390
f 380 390 389
f 381 382 391
f 381 391 390
f 382 383 392
f 382 392 391
f 383 384 393
f 383 393 392
f 384 385 394
f 384 394 393
f 385 386 395
f 385 395 394
f 386 387 396
f 386 396 395
f 388 389 398
f 388 398 397
f 389 390 399
f 389 399 398
f 390 391 400
f 390 400 399
f 391 392 401
f 391 401 400
f 392 393 402
f 392 402 401
f 393 394 403
f 393 403 402
f 394 395 404
f 394 404 403
f 395 396 405
f 395 405 404
f 406 407 416
f 406 416 415
f 407 408 417
f 407 417 416
f 408 409 418
f 408 418 417
f 409 410 419
f 409 419 418
f 410 411 420
f 410 420 419
f 411 412 421
f 411 421 420
f 412 413 422
f 412 422 421
f 413 414 423
f 413 423 422
f 415 416 425
f 415 425 424
f 416 417 426
f 416 426 425
f 417 418 427
f 417 427 426
f 418 419 428
f 418 428 427
f 419 420 429
f 419 429 428
f 420 421 430
f 420 430 429
f 421 422 431
f 421 431 430
f 422 423 432
f 422 432 431
f 424 425 434
f 424 434 433
f 425 426 435
f 425 435 434
f 426 427 436
f 426 436 435
f 427 428 437
f 427 437 436
f 428 429 438
f 428 438 437
f 429 430 439
f 429 439 438
f 430 431 440
f 430 440 439
f 431 432 441
f 431 441 440
f 433 434 443
f 433 443 442
f 434 435 444
f 434 444 443
f 435 436 445
f 435 445 444
f 436 437 446
f 436 446 445
f 437 438 447
f 437 447 446
f 438 439 448
f 438 448 447
f 439 440 449
f 439 449 448
f 440 441 450
f 440 450 449
f 442 443 452
f 442 452 451
f 443 444 453
f 443 453 452
f 444 445 454
f 444 454 453
f 445 446 455
f 445 455 454
f 446 447 456
f 446 456 455
f 447 448 457
f 447 457 456
f 448 449 458
f 448 458 457
f 449 450 459
f 449 459 458
f 451 452 461
f 451 461 460
f 452 453 462
f 452 462 461
f 453 454 463
f 453 463 462
f 454 455 464
f 454 464 463
f 455 456 465
f 455 465 464
f 456 457 466
f 456 466 465
f 457 458 467
f 457 467 466
f 458 459 468
f 458 468 467
f 460 461 470
f 460 470 469
f 461 462 471
f 461 471 470
f 462 463 472
f 462 472 471
f 463 464 473
f 463 473 472
f 464 465 474
f 464 474 473
f 465 466 475
f 465 475 474
f 466 467 476
f 466 476 475
f 467 468 477
f 467 477 476
f 469 470 479
f 469 479 478
f 470 471 480
f 470 480 479
f 471 472 481
f 471 481 480
f 472 473 482
f 472 482 481
f 473 474 483
f 473 483 482
f 474 475 484
f 474 484 483
f 475 476 485
f 475 485 484
f 476 477 486
f 476 486 485
f 487 488 494
f 487 494 493
f 488 489 495
f 488 495 494
f 489 490 496
f 489 496 495
f 490 491 497
f 490 497 496
f 491 492 498
f 491 498 497
f 493 494 500
f 493 500 499
f 494 495 501
f 494 501 500
f 495 496 502
f 495 502 501
f 496 497 503
f 496 503 502
f 497 498 504
f 497 504 503
f 499 500 506
f 499 506 505
f 500 501 507
f 500 507 506
f 501 502 508
f 501 508 507
f 502 503 509
f 502 509 508
f 503 504 510
f 503 510 509
f 505 506 512
f 505 512 511
f 506 507 513
f 506 513 512
f 507 508 514
f 507 514 513
f 508 509 515
f 508 515 514
f 509 510 516
f 509 516 515
f 511 512 518
f 511 518 517
f 512 513 519
f 512 519 518
f 513 514 520
f 513 520 519
f 514 515 521
f 514 521 520
f 515 516 522
f 515 522 521
f 523 524 530
f 523 530 529
f 524 525 531
f 524 531 530
f 525 526 532
f 525 532 531
f 526 527 533
f 526 533 532
f 527 528 534
f 527 534 533
f 529 530 536
f 529 536 535
f 530 531 537
f 530 537 536
f 531 532 538
f 531 538 537
f 532 533 539
f 532 539 538
f 533 534 540
f 533 540 539
f 535 536 542
f 535 542 541
f 536 537 543
f 536 543 542
f 537 538 544
f 537 544 543
f 538 539 545
f 538 545 544
f 539 540 546
f 539 546 545
f 541 542 548
f 541 548 547
f 542 543 549
f 542 549 548
f 543 544 550
f 543 550 549
f 544 545 551
f 544 551 550
f 545 546 552
f 545 552 551
f 547 548 554
f 547 554 553
f 548 549 555
f 548 555 554
f 549 550 556
f 549 556 555
f 550 551 557
f 550 557 556
f 551 552 558
f 551 558 557
f 559 560 566
f 559 566 565
f 560 561 567
f 560 567 566
f 561 562 568
f 561 568 567
f 562 563 569
f 562 569 568
f 563 564 570
f 563 570 569
f 565 566 572
f 565 572 571
f 566 567 573
f 566 573 572
f 567 568 574
f 567 574 573
f 568 569 575
f 568 575 574
f 569 570 576
f 569 576 575
f 571 572 578
f 571 578 577
f 572 573 579
f 572 579 578
f 573 574 580
f 573 580 579
f 574 575 581
f 574 581 580
f 575 576 582
f 575 582 581
f 577 578 584
f 577 584 583
f 578 579 585
f 578 585 584
f 579 580 586
f 579 586 585
f 580 581 587
f 580 587 586
f 581 582 588
f 581 588 587
f 583 584 590
f 583 590 589
f 584 585 591
f 584 591 590
f 585 586 592
f 585 592 591
f 586 587 593
f 586 593 592
f 587 588 594
f 587 594 593
f 595 596 602
f 595 602 601
f 596 597 603
f 596 603 602
f 597 598 604
f 597 604 603
f 598 599 605
f 598 605 604
f 599 600 606
f 599 606 605
f 601 602 608
f 601 608 607
f 602 603 609
f 602 609 608
f 603 604 610
f 603 610 609
f 604 605 611
f 604 611 610
f 605 606 612
f 605 612 611
f 607 608 614
f 607 614 613
f 608 609 615
f 608 615 614
f 609 610 616
f 609 616 615
f 610 611 617
f 610 617 616
f 611 612 618
f 611 618 617
f 613 614 620
f 613 620 619
f 614 615 621
f 614 621 620
f 615 616 622
f 615 622 621
f 616 617 623
f 616 623 622
f 617 618 624
f 617 624 623
f 619 620 626
f 619 626 625
f 620 621 627
f 620 627 626
f 621 622 628
f 621 628 627
f 622 623 629
f 622 629 628
f 623 624 630
f 623 630 629
f 631 632 638
f 631 638 637
f 632 633 639
f 632 639 638
f 633 634 640
f 633 640 639
f 634 635 641
f 634 641 640
f 635 636 642
f 635 642 641
f 637 638 644
f 637 644 643
f 638 639 645
f 638 645 644
f 639 640 646
f 639 646 645
f 640 641 647
f 640 647 646
f 641 642 648
f 641 648 647
f 643 644 650
f 643 650 649
f 644 645 651
f 644 651 650
f 645 646 652
f 645 652 651
f 646 647 653
f 646 653 652
f 647 648 654
f 647 654 653
f 649 650 656
f 649 656 655
f 650 651 657
f 650 657 656
f 651 652 658
f 651 658 657
f 652 653 659
f 652 659 658
f 653 654 660
f 653 660 659
f 655 656 662
f 655 662 661
f 656 657 663
f 656 663 662
f 657 658 664
f 657 664 663
f 658 659 665
f 658 665 664
f 659 660 666
f 659 666 665
f 667 668 674
f 667 674 673
f 668 669 675
f 668 675 674
f 669 670 676
f 669 676 675
f 670 671 677
f 670 677 676
f 671 672 678
f 671 678 677
f 673 674 680
f 673 680 679
f 674 675 681
f 674 681 680
f 675 676 682
f 675 682 681
f 676 677 683
f 676 683 682
f 677 678 684
f 677 684 683
f 679 680 686
f 679 686 685
f 680 681 687
f 680 687 686
f 681 682 688
f 681 688 687
f 682 683 689
f 682 689 688
f 683 684 690
f 683 690 689
f 685 686 692
f 685 692 691
f 686 687 693
f 686 693 692
f 687 688 694
f 687 694 693
f 688 689 695
f 688 695 694
f 689 690 696
f 689 696 695
f 691 692 698
f 691 698 697
f 692 693 699
f 692 699 698
f 693 694 700
f 693 700 699
f 694 695 701
f 694 701 700
f 695 696 702
f 695 702 701
f 703 704 710
f 703 710 709
f 704 705 711
f 704 711 710
f 705 706 712
f 705 712 711
f 706 707 713
f 706 713 712
f 707 708 714
f 707 714 713
f 709 710 716
f 709 716 715
f 710 711 717
f 710 717 716
f 711 712 718
f 711 718 717
f 712 713 719
f 712 719 718
f 713 714 720
f 713 720 719
f 715 716 722
f 715 722 721
f 716 717 723
f 716 723 722
f 717 718 724
f 717 724 723
f 718 719 725
f 718 725 724
f 719 720 726
f 719 726 725
f 721 722 728
f 721 728 727
f 722 723 729
f 722 729 728
f 723 724 730
f 723 730 729
f 724 725 731
f 724 731 730
f 725 726 732
f 725 732 731
f 727 728 734
f 727 734 733
f 728 729 735
f 728 735 734
f 729 730 736
f 729 736 735
f 730 731 737
f 730 737 736
f 731 732 738
f 731 738 737
f 739 740 746
f 739 746 745
f 740 741 747
f 740 747 746
f 741 742 748
f 741 748 747
f 742 743 749
f 742 749 748
f 743 744 750
f 743 750 749
f 745 746 752
f 745 752 751
f 746 747 753
f 746 753 752
f 747 748 754
f 747 754 753
f 748 749 755
f 748 755 754
f 749 750 756
f 749 756 755
f 751 752 758
f 751 758 757
f 752 753 759
f 752 759 758
f 753 754 760
f 753 760 759
f 754 755 761
f 754 761 760
f 755 756 762
f 755 762 761
f 757 758 764
f 757 764 763
f 758 759 765
f 758 765 764
f 759 760 766
f 759 766 765
f 760 761 767
f 760 767 766
f 761 762 768
f 761 768 767
f 763 764 770
f 763 770 769
f 764 765 771
f 764 771 770
f 765 766 772
f 765 772 771
f 766 767 773
f 766 773 772
f 767 768 774
f 767 774 773
f 775 776 782
f 775 782 781
f 776 777 783
f 776 783 782
f 777 778 784
f 777 784 783
f 778 779 785
f 778 785 784
f 779 780 786
f 779 786 785
f 781 782 788
f 781 788 787
f 782 783 789
f 782 789 788
f 783 784 790
f 783 790 789
f 784 785 791
f 784 791 790
f 785 786 792
f 785 792 791
f 787 788 794
f 787 794 793
f 788 789 795
f 788 795 794
f 789 790 796
f 789 796 795
f 790 791 797
f 790 797 796
f 791 792 798
f 791 798 797
f 793 794 800
f 793 800 799
f 794 795 801
f 794 801 800
f 795 796 802
f 795 802 801
f 796 797 803
f 796 803 802
f 797 798 804
f 797 804 803
f 799 800 806
f 799 806 805
f 800 801 807
f 800 807 806
f 801 802 808
f 801 808 807
f 802 803 809
f 802 809 808
f 803 804 810
f 803 810 809
f 811 812 818
f 811 818 817
f 812 813 819
f 812 819 818
f 813 814 820
f 813 820 819
f 814 815 821
f 814 821 820
f 815 816 822
f 815 822 821
f 817 818 824
f 817 824 823
f 818 819 825
f 818 825 824
f 819 820 826
f 819 826 825
f 820 821 827
f 820 827 826
f 821 822 828
f 821 828 827
f 823 824 830
f 823 830 829
f 824 825 831
f 824 831 830
f 825 826 832
f 825 832 831
f 826 827 833
f 826 833 832
f 827 828 834
f 827 834 833
f 829 830 836
f 829 836 835
f 830 831 837
f 830 837 836
f 831 832 838
f 831 838 837
f 832 833 839
f 832 839 838
f 833 834 840
f 833 840 839
f 835 836 842
f 835 842 841
f 836 837 843
f 836 843 842
f 837 838 844
f 837 844 843
f 838 839 845
f 838 845 844
f 839 840 846
f 839 846 845
f 847 848 854
f 847 854 853
f 848 849 855
f 848 855 854
f 849 850 856
f 849 856 855
f 850 851 857
f 850 857 856
f 851 852 858
f 851 858 857
f 853 854 860
f 853 860 859
f 854 855 861
f 854 861 860
f 855 856 862
f 855 862 861
f 856 857 863
f 856 863 862
f 857 858 864
f 857 864 863
f 859 860 866
f 859 866 865
f 860 861 867
f 860 867 866
f 861 862 868
f 861 868 867
f 862 863 869
f 862 869 868
f 863 864 870
f 863 870 869
f 865 866 872
f 865 872 871
f 866 867 873
f 866 873 872
f 867 868 874
f 867 874 873
f 868 869 875
f 868 875 874
f 869 870 876
f 869 876 875
f 871 872 878
f 871 878 877
f 872 873 879
f 872 879 878
f 873 874 880
f 873 880 879
f 874 875 881
f 874 881 880
f 875 876 882
f 875 882 881
f 883 884 890
f 883 890 889
f 884 885 891
f 884 891 890
f 885 886 892
f 885 892 891
f 886 887 893
f 886 893 892
f 887 888 894
f 887 894 893
f 889 890 896
f 889 896 895
f 890 891 897
f 890 897 896
f 891 892 898
f 891 898 897
f 892 893 899
f 892 899 898
f 893 894 900
f 893 900 899
f 895 896 902
f 895 902 901
f 896 897 903
f 896 903 902
f 897 898 904
f 897 904 903
f 898 899 905
f 898 905 904
f 899 900 906
f 899 906 905
f 901 902 908
f 901 908 907
f 902 903 909
f 902 909 908
f 903 904 910
f 903 910 909
f 904 905 911
f 904 911 910
f 905 906 912
f 905 912 911
f 907 908 914
f 907 914 913
f 908 909 915
f 908 915 914
f 909 910 916
f 909 916 915
f 910 911 917
f 910 917 916
f 911 912 918
f 911 918 917
f 919 920 924
f 919 924 923
f 920 921 925
f 920 925 924
f 921 922 926
f 921 926 925
f 923 924 928
f 923 928 927
f 924 925 929
f 924 929 928
f 925 926 930
f 925 930 929
f 927 928 932
f 927 932 931
f 928 929 933
f 928 933 932
f 929 930 934
f 929 934 933
f 935 936 940
f 935 940 939
f 936 937 941
f 936 941 940
f 937 938 942
f 937 942 941
f 939 940 944
f 939 944 943
f 940 941 945
f 940 945 944
f 941 942 946
f 941 946 945
f 943 944 948
f 943 948 947
f 944 945 949
f 944 949 948
f 945 946 950
f 945 950 949
f 951 952 956
f 951 956 955
f 952 953 957
f 952 957 956
f 953 954 958
f 953 958 957
f 955 956 960
f 955 960 959
f 956 957 961
f 956 961 960
f 957 958 962
f 957 962 961
f 959 960 964
f 959 964 963
f 960 961 965
f 960 965 964
f 961 962 966
f 961 966 965
f 967 968 972
f 967 972 971
f 968 969 973
f 968 973 972
f 969 970 974
f 969 974 973
f 971 972 976
f 971 976 975
f 972 973 977
f 972 977 976
f 973 974 978
f 973 978 977
f 975 976 980
f 975 980 979
f 976 977 981
f 976 981 980
f 977 978 982
f 977 982 981
f 983 984 988
f 983 988 987
f 984 985 989
f 984 989 988
f 985 986 990
f 985 990 989
f 987 988 992
f 987 992 991
f 988 989 993
f 988 993 992
f 989 990 994
f 989 994 993
f 991 992 996
f 991 996 995
f 992 993 997
f 992 997 996
f 993 994 998
f 993 998 997
f 999 1000 1004
f 999 1004 1003
f 1000 1001 1005
f 1000 1005 1004
f 1001 1002 1006
f 1001 1006 1005
f 1003 1004 1008
f 1003 1008 1007
f 1004 1005 1009
f 1004 1009 1008
f 1005 1006 1010
f 1005 1010 1009
f 1007 1008 1012
f 1007 1012 1011
f 1008 1009 1013
f 1008 1013 1012
f 1009 1010 1014
f 1009 1014 1013
