# 세탁기 — 블록아웃 (예산 1500 tris)
# 삼각형 1476 · 조각 1
# 생성: tools/blockout — 손으로 고치지 말 것, 생성기를 고칠 것
g washingMachine
v -0.3100 -0.4400 0.3000
v -0.3100 -0.3422 0.3000
v -0.3100 -0.2444 0.3000
v -0.3100 -0.1467 0.3000
v -0.3100 -0.0489 0.3000
v -0.3100 0.0489 0.3000
v -0.3100 0.1467 0.3000
v -0.3100 0.2444 0.3000
v -0.3100 0.3422 0.3000
v -0.3100 0.4400 0.3000
v -0.2411 -0.4400 0.3000
v -0.2411 -0.3422 0.3000
v -0.2411 -0.2444 0.3000
v -0.2411 -0.1467 0.3000
v -0.2411 -0.0489 0.3000
v -0.2411 0.0489 0.3000
v -0.2411 0.1467 0.3000
v -0.2411 0.2444 0.3000
v -0.2411 0.3422 0.3000
v -0.2411 0.4400 0.3000
v -0.1722 -0.4400 0.3000
v -0.1722 -0.3422 0.3000
v -0.1722 -0.2444 0.3000
v -0.1722 -0.1467 0.3000
v -0.1722 -0.0489 0.3000
v -0.1722 0.0489 0.3000
v -0.1722 0.1467 0.3000
v -0.1722 0.2444 0.3000
v -0.1722 0.3422 0.3000
v -0.1722 0.4400 0.3000
v -0.1033 -0.4400 0.3000
v -0.1033 -0.3422 0.3000
v -0.1033 -0.2444 0.3000
v -0.1033 -0.1467 0.3000
v -0.1033 -0.0489 0.3000
v -0.1033 0.0489 0.3000
v -0.1033 0.1467 0.3000
v -0.1033 0.2444 0.3000
v -0.1033 0.3422 0.3000
v -0.1033 0.4400 0.3000
v -0.0344 -0.4400 0.3000
v -0.0344 -0.3422 0.3000
v -0.0344 -0.2444 0.3000
v -0.0344 -0.1467 0.3000
v -0.0344 -0.0489 0.3000
v -0.0344 0.0489 0.3000
v -0.0344 0.1467 0.3000
v -0.0344 0.2444 0.3000
v -0.0344 0.3422 0.3000
v -0.0344 0.4400 0.3000
v 0.0344 -0.4400 0.3000
v 0.0344 -0.3422 0.3000
v 0.0344 -0.2444 0.3000
v 0.0344 -0.1467 0.3000
v 0.0344 -0.0489 0.3000
v 0.0344 0.0489 0.3000
v 0.0344 0.1467 0.3000
v 0.0344 0.2444 0.3000
v 0.0344 0.3422 0.3000
v 0.0344 0.4400 0.3000
v 0.1033 -0.4400 0.3000
v 0.1033 -0.3422 0.3000
v 0.1033 -0.2444 0.3000
v 0.1033 -0.1467 0.3000
v 0.1033 -0.0489 0.3000
v 0.1033 0.0489 0.3000
v 0.1033 0.1467 0.3000
v 0.1033 0.2444 0.3000
v 0.1033 0.3422 0.3000
v 0.1033 0.4400 0.3000
v 0.1722 -0.4400 0.3000
v 0.1722 -0.3422 0.3000
v 0.1722 -0.2444 0.3000
v 0.1722 -0.1467 0.3000
v 0.1722 -0.0489 0.3000
v 0.1722 0.0489 0.3000
v 0.1722 0.1467 0.3000
v 0.1722 0.2444 0.3000
v 0.1722 0.3422 0.3000
v 0.1722 0.4400 0.3000
v 0.2411 -0.4400 0.3000
v 0.2411 -0.3422 0.3000
v 0.2411 -0.2444 0.3000
v 0.2411 -0.1467 0.3000
v 0.2411 -0.0489 0.3000
v 0.2411 0.0489 0.3000
v 0.2411 0.1467 0.3000
v 0.2411 0.2444 0.3000
v 0.2411 0.3422 0.3000
v 0.2411 0.4400 0.3000
v 0.3100 -0.4400 0.3000
v 0.3100 -0.3422 0.3000
v 0.3100 -0.2444 0.3000
v 0.3100 -0.1467 0.3000
v 0.3100 -0.0489 0.3000
v 0.3100 0.0489 0.3000
v 0.3100 0.1467 0.3000
v 0.3100 0.2444 0.3000
v 0.3100 0.3422 0.3000
v 0.3100 0.4400 0.3000
v 0.3100 -0.4400 -0.3000
v 0.3100 -0.3422 -0.3000
v 0.3100 -0.2444 -0.3000
v 0.3100 -0.1467 -0.3000
v 0.3100 -0.0489 -0.3000
v 0.3100 0.0489 -0.3000
v 0.3100 0.1467 -0.3000
v 0.3100 0.2444 -0.3000
v 0.3100 0.3422 -0.3000
v 0.3100 0.4400 -0.3000
v 0.2411 -0.4400 -0.3000
v 0.2411 -0.3422 -0.3000
v 0.2411 -0.2444 -0.3000
v 0.2411 -0.1467 -0.3000
v 0.2411 -0.0489 -0.3000
v 0.2411 0.0489 -0.3000
v 0.2411 0.1467 -0.3000
v 0.2411 0.2444 -0.3000
v 0.2411 0.3422 -0.3000
v 0.2411 0.4400 -0.3000
v 0.1722 -0.4400 -0.3000
v 0.1722 -0.3422 -0.3000
v 0.1722 -0.2444 -0.3000
v 0.1722 -0.1467 -0.3000
v 0.1722 -0.0489 -0.3000
v 0.1722 0.0489 -0.3000
v 0.1722 0.1467 -0.3000
v 0.1722 0.2444 -0.3000
v 0.1722 0.3422 -0.3000
v 0.1722 0.4400 -0.3000
v 0.1033 -0.4400 -0.3000
v 0.1033 -0.3422 -0.3000
v 0.1033 -0.2444 -0.3000
v 0.1033 -0.1467 -0.3000
v 0.1033 -0.0489 -0.3000
v 0.1033 0.0489 -0.3000
v 0.1033 0.1467 -0.3000
v 0.1033 0.2444 -0.3000
v 0.1033 0.3422 -0.3000
v 0.1033 0.4400 -0.3000
v 0.0344 -0.4400 -0.3000
v 0.0344 -0.3422 -0.3000
v 0.0344 -0.2444 -0.3000
v 0.0344 -0.1467 -0.3000
v 0.0344 -0.0489 -0.3000
v 0.0344 0.0489 -0.3000
v 0.0344 0.1467 -0.3000
v 0.0344 0.2444 -0.3000
v 0.0344 0.3422 -0.3000
v 0.0344 0.4400 -0.3000
v -0.0344 -0.4400 -0.3000
v -0.0344 -0.3422 -0.3000
v -0.0344 -0.2444 -0.3000
v -0.0344 -0.1467 -0.3000
v -0.0344 -0.0489 -0.3000
v -0.0344 0.0489 -0.3000
v -0.0344 0.1467 -0.3000
v -0.0344 0.2444 -0.3000
v -0.0344 0.3422 -0.3000
v -0.0344 0.4400 -0.3000
v -0.1033 -0.4400 -0.3000
v -0.1033 -0.3422 -0.3000
v -0.1033 -0.2444 -0.3000
v -0.1033 -0.1467 -0.3000
v -0.1033 -0.0489 -0.3000
v -0.1033 0.0489 -0.3000
v -0.1033 0.1467 -0.3000
v -0.1033 0.2444 -0.3000
v -0.1033 0.3422 -0.3000
v -0.1033 0.4400 -0.3000
v -0.1722 -0.4400 -0.3000
v -0.1722 -0.3422 -0.3000
v -0.1722 -0.2444 -0.3000
v -0.1722 -0.1467 -0.3000
v -0.1722 -0.0489 -0.3000
v -0.1722 0.0489 -0.3000
v -0.1722 0.1467 -0.3000
v -0.1722 0.2444 -0.3000
v -0.1722 0.3422 -0.3000
v -0.1722 0.4400 -0.3000
v -0.2411 -0.4400 -0.3000
v -0.2411 -0.3422 -0.3000
v -0.2411 -0.2444 -0.3000
v -0.2411 -0.1467 -0.3000
v -0.2411 -0.0489 -0.3000
v -0.2411 0.0489 -0.3000
v -0.2411 0.1467 -0.3000
v -0.2411 0.2444 -0.3000
v -0.2411 0.3422 -0.3000
v -0.2411 0.4400 -0.3000
v -0.3100 -0.4400 -0.3000
v -0.3100 -0.3422 -0.3000
v -0.3100 -0.2444 -0.3000
v -0.3100 -0.1467 -0.3000
v -0.3100 -0.0489 -0.3000
v -0.3100 0.0489 -0.3000
v -0.3100 0.1467 -0.3000
v -0.3100 0.2444 -0.3000
v -0.3100 0.3422 -0.3000
v -0.3100 0.4400 -0.3000
v -0.3100 -0.4400 -0.3000
v -0.3100 -0.3422 -0.3000
v -0.3100 -0.2444 -0.3000
v -0.3100 -0.1467 -0.3000
v -0.3100 -0.0489 -0.3000
v -0.3100 0.0489 -0.3000
v -0.3100 0.1467 -0.3000
v -0.3100 0.2444 -0.3000
v -0.3100 0.3422 -0.3000
v -0.3100 0.4400 -0.3000
v -0.3100 -0.4400 -0.2333
v -0.3100 -0.3422 -0.2333
v -0.3100 -0.2444 -0.2333
v -0.3100 -0.1467 -0.2333
v -0.3100 -0.0489 -0.2333
v -0.3100 0.0489 -0.2333
v -0.3100 0.1467 -0.2333
v -0.3100 0.2444 -0.2333
v -0.3100 0.3422 -0.2333
v -0.3100 0.4400 -0.2333
v -0.3100 -0.4400 -0.1667
v -0.3100 -0.3422 -0.1667
v -0.3100 -0.2444 -0.1667
v -0.3100 -0.1467 -0.1667
v -0.3100 -0.0489 -0.1667
v -0.3100 0.0489 -0.1667
v -0.3100 0.1467 -0.1667
v -0.3100 0.2444 -0.1667
v -0.3100 0.3422 -0.1667
v -0.3100 0.4400 -0.1667
v -0.3100 -0.4400 -0.1000
v -0.3100 -0.3422 -0.1000
v -0.3100 -0.2444 -0.1000
v -0.3100 -0.1467 -0.1000
v -0.3100 -0.0489 -0.1000
v -0.3100 0.0489 -0.1000
v -0.3100 0.1467 -0.1000
v -0.3100 0.2444 -0.1000
v -0.3100 0.3422 -0.1000
v -0.3100 0.4400 -0.1000
v -0.3100 -0.4400 -0.0333
v -0.3100 -0.3422 -0.0333
v -0.3100 -0.2444 -0.0333
v -0.3100 -0.1467 -0.0333
v -0.3100 -0.0489 -0.0333
v -0.3100 0.0489 -0.0333
v -0.3100 0.1467 -0.0333
v -0.3100 0.2444 -0.0333
v -0.3100 0.3422 -0.0333
v -0.3100 0.4400 -0.0333
v -0.3100 -0.4400 0.0333
v -0.3100 -0.3422 0.0333
v -0.3100 -0.2444 0.0333
v -0.3100 -0.1467 0.0333
v -0.3100 -0.0489 0.0333
v -0.3100 0.0489 0.0333
v -0.3100 0.1467 0.0333
v -0.3100 0.2444 0.0333
v -0.3100 0.3422 0.0333
v -0.3100 0.4400 0.0333
v -0.3100 -0.4400 0.1000
v -0.3100 -0.3422 0.1000
v -0.3100 -0.2444 0.1000
v -0.3100 -0.1467 0.1000
v -0.3100 -0.0489 0.1000
v -0.3100 0.0489 0.1000
v -0.3100 0.1467 0.1000
v -0.3100 0.2444 0.1000
v -0.3100 0.3422 0.1000
v -0.3100 0.4400 0.1000
v -0.3100 -0.4400 0.1667
v -0.3100 -0.3422 0.1667
v -0.3100 -0.2444 0.1667
v -0.3100 -0.1467 0.1667
v -0.3100 -0.0489 0.1667
v -0.3100 0.0489 0.1667
v -0.3100 0.1467 0.1667
v -0.3100 0.2444 0.1667
v -0.3100 0.3422 0.1667
v -0.3100 0.4400 0.1667
v -0.3100 -0.4400 0.2333
v -0.3100 -0.3422 0.2333
v -0.3100 -0.2444 0.2333
v -0.3100 -0.1467 0.2333
v -0.3100 -0.0489 0.2333
v -0.3100 0.0489 0.2333
v -0.3100 0.1467 0.2333
v -0.3100 0.2444 0.2333
v -0.3100 0.3422 0.2333
v -0.3100 0.4400 0.2333
v -0.3100 -0.4400 0.3000
v -0.3100 -0.3422 0.3000
v -0.3100 -0.2444 0.3000
v -0.3100 -0.1467 0.3000
v -0.3100 -0.0489 0.3000
v -0.3100 0.0489 0.3000
v -0.3100 0.1467 0.3000
v -0.3100 0.2444 0.3000
v -0.3100 0.3422 0.3000
v -0.3100 0.4400 0.3000
v 0.3100 -0.4400 0.3000
v 0.3100 -0.3422 0.3000
v 0.3100 -0.2444 0.3000
v 0.3100 -0.1467 0.3000
v 0.3100 -0.0489 0.3000
v 0.3100 0.0489 0.3000
v 0.3100 0.1467 0.3000
v 0.3100 0.2444 0.3000
v 0.3100 0.3422 0.3000
v 0.3100 0.4400 0.3000
v 0.3100 -0.4400 0.2333
v 0.3100 -0.3422 0.2333
v 0.3100 -0.2444 0.2333
v 0.3100 -0.1467 0.2333
v 0.3100 -0.0489 0.2333
v 0.3100 0.0489 0.2333
v 0.3100 0.1467 0.2333
v 0.3100 0.2444 0.2333
v 0.3100 0.3422 0.2333
v 0.3100 0.4400 0.2333
v 0.3100 -0.4400 0.1667
v 0.3100 -0.3422 0.1667
v 0.3100 -0.2444 0.1667
v 0.3100 -0.1467 0.1667
v 0.3100 -0.0489 0.1667
v 0.3100 0.0489 0.1667
v 0.3100 0.1467 0.1667
v 0.3100 0.2444 0.1667
v 0.3100 0.3422 0.1667
v 0.3100 0.4400 0.1667
v 0.3100 -0.4400 0.1000
v 0.3100 -0.3422 0.1000
v 0.3100 -0.2444 0.1000
v 0.3100 -0.1467 0.1000
v 0.3100 -0.0489 0.1000
v 0.3100 0.0489 0.1000
v 0.3100 0.1467 0.1000
v 0.3100 0.2444 0.1000
v 0.3100 0.3422 0.1000
v 0.3100 0.4400 0.1000
v 0.3100 -0.4400 0.0333
v 0.3100 -0.3422 0.0333
v 0.3100 -0.2444 0.0333
v 0.3100 -0.1467 0.0333
v 0.3100 -0.0489 0.0333
v 0.3100 0.0489 0.0333
v 0.3100 0.1467 0.0333
v 0.3100 0.2444 0.0333
v 0.3100 0.3422 0.0333
v 0.3100 0.4400 0.0333
v 0.3100 -0.4400 -0.0333
v 0.3100 -0.3422 -0.0333
v 0.3100 -0.2444 -0.0333
v 0.3100 -0.1467 -0.0333
v 0.3100 -0.0489 -0.0333
v 0.3100 0.0489 -0.0333
v 0.3100 0.1467 -0.0333
v 0.3100 0.2444 -0.0333
v 0.3100 0.3422 -0.0333
v 0.3100 0.4400 -0.0333
v 0.3100 -0.4400 -0.1000
v 0.3100 -0.3422 -0.1000
v 0.3100 -0.2444 -0.1000
v 0.3100 -0.1467 -0.1000
v 0.3100 -0.0489 -0.1000
v 0.3100 0.0489 -0.1000
v 0.3100 0.1467 -0.1000
v 0.3100 0.2444 -0.1000
v 0.3100 0.3422 -0.1000
v 0.3100 0.4400 -0.1000
v 0.3100 -0.4400 -0.1667
v 0.3100 -0.3422 -0.1667
v 0.3100 -0.2444 -0.1667
v 0.3100 -0.1467 -0.1667
v 0.3100 -0.0489 -0.1667
v 0.3100 0.0489 -0.1667
v 0.3100 0.1467 -0.1667
v 0.3100 0.2444 -0.1667
v 0.3100 0.3422 -0.1667
v 0.3100 0.4400 -0.1667
v 0.3100 -0.4400 -0.2333
v 0.3100 -0.3422 -0.2333
v 0.3100 -0.2444 -0.2333
v 0.3100 -0.1467 -0.2333
v 0.3100 -0.0489 -0.2333
v 0.3100 0.0489 -0.2333
v 0.3100 0.1467 -0.2333
v 0.3100 0.2444 -0.2333
v 0.3100 0.3422 -0.2333
v 0.3100 0.4400 -0.2333
v 0.3100 -0.4400 -0.3000
v 0.3100 -0.3422 -0.3000
v 0.3100 -0.2444 -0.3000
v 0.3100 -0.1467 -0.3000
v 0.3100 -0.0489 -0.3000
v 0.3100 0.0489 -0.3000
v 0.3100 0.1467 -0.3000
v 0.3100 0.2444 -0.3000
v 0.3100 0.3422 -0.3000
v 0.3100 0.4400 -0.3000
v -0.3100 0.4400 -0.3000
v -0.3100 0.4400 -0.2333
v -0.3100 0.4400 -0.1667
v -0.3100 0.4400 -0.1000
v -0.3100 0.4400 -0.0333
v -0.3100 0.4400 0.0333
v -0.3100 0.4400 0.1000
v -0.3100 0.4400 0.1667
v -0.3100 0.4400 0.2333
v -0.3100 0.4400 0.3000
v -0.2411 0.4400 -0.3000
v -0.2411 0.4400 -0.2333
v -0.2411 0.4400 -0.1667
v -0.2411 0.4400 -0.1000
v -0.2411 0.4400 -0.0333
v -0.2411 0.4400 0.0333
v -0.2411 0.4400 0.1000
v -0.2411 0.4400 0.1667
v -0.2411 0.4400 0.2333
v -0.2411 0.4400 0.3000
v -0.1722 0.4400 -0.3000
v -0.1722 0.4400 -0.2333
v -0.1722 0.4400 -0.1667
v -0.1722 0.4400 -0.1000
v -0.1722 0.4400 -0.0333
v -0.1722 0.4400 0.0333
v -0.1722 0.4400 0.1000
v -0.1722 0.4400 0.1667
v -0.1722 0.4400 0.2333
v -0.1722 0.4400 0.3000
v -0.1033 0.4400 -0.3000
v -0.1033 0.4400 -0.2333
v -0.1033 0.4400 -0.1667
v -0.1033 0.4400 -0.1000
v -0.1033 0.4400 -0.0333
v -0.1033 0.4400 0.0333
v -0.1033 0.4400 0.1000
v -0.1033 0.4400 0.1667
v -0.1033 0.4400 0.2333
v -0.1033 0.4400 0.3000
v -0.0344 0.4400 -0.3000
v -0.0344 0.4400 -0.2333
v -0.0344 0.4400 -0.1667
v -0.0344 0.4400 -0.1000
v -0.0344 0.4400 -0.0333
v -0.0344 0.4400 0.0333
v -0.0344 0.4400 0.1000
v -0.0344 0.4400 0.1667
v -0.0344 0.4400 0.2333
v -0.0344 0.4400 0.3000
v 0.0344 0.4400 -0.3000
v 0.0344 0.4400 -0.2333
v 0.0344 0.4400 -0.1667
v 0.0344 0.4400 -0.1000
v 0.0344 0.4400 -0.0333
v 0.0344 0.4400 0.0333
v 0.0344 0.4400 0.1000
v 0.0344 0.4400 0.1667
v 0.0344 0.4400 0.2333
v 0.0344 0.4400 0.3000
v 0.1033 0.4400 -0.3000
v 0.1033 0.4400 -0.2333
v 0.1033 0.4400 -0.1667
v 0.1033 0.4400 -0.1000
v 0.1033 0.4400 -0.0333
v 0.1033 0.4400 0.0333
v 0.1033 0.4400 0.1000
v 0.1033 0.4400 0.1667
v 0.1033 0.4400 0.2333
v 0.1033 0.4400 0.3000
v 0.1722 0.4400 -0.3000
v 0.1722 0.4400 -0.2333
v 0.1722 0.4400 -0.1667
v 0.1722 0.4400 -0.1000
v 0.1722 0.4400 -0.0333
v 0.1722 0.4400 0.0333
v 0.1722 0.4400 0.1000
v 0.1722 0.4400 0.1667
v 0.1722 0.4400 0.2333
v 0.1722 0.4400 0.3000
v 0.2411 0.4400 -0.3000
v 0.2411 0.4400 -0.2333
v 0.2411 0.4400 -0.1667
v 0.2411 0.4400 -0.1000
v 0.2411 0.4400 -0.0333
v 0.2411 0.4400 0.0333
v 0.2411 0.4400 0.1000
v 0.2411 0.4400 0.1667
v 0.2411 0.4400 0.2333
v 0.2411 0.4400 0.3000
v 0.3100 0.4400 -0.3000
v 0.3100 0.4400 -0.2333
v 0.3100 0.4400 -0.1667
v 0.3100 0.4400 -0.1000
v 0.3100 0.4400 -0.0333
v 0.3100 0.4400 0.0333
v 0.3100 0.4400 0.1000
v 0.3100 0.4400 0.1667
v 0.3100 0.4400 0.2333
v 0.3100 0.4400 0.3000
v -0.3100 -0.4400 0.3000
v -0.3100 -0.4400 0.2333
v -0.3100 -0.4400 0.1667
v -0.3100 -0.4400 0.1000
v -0.3100 -0.4400 0.0333
v -0.3100 -0.4400 -0.0333
v -0.3100 -0.4400 -0.1000
v -0.3100 -0.4400 -0.1667
v -0.3100 -0.4400 -0.2333
v -0.3100 -0.4400 -0.3000
v -0.2411 -0.4400 0.3000
v -0.2411 -0.4400 0.2333
v -0.2411 -0.4400 0.1667
v -0.2411 -0.4400 0.1000
v -0.2411 -0.4400 0.0333
v -0.2411 -0.4400 -0.0333
v -0.2411 -0.4400 -0.1000
v -0.2411 -0.4400 -0.1667
v -0.2411 -0.4400 -0.2333
v -0.2411 -0.4400 -0.3000
v -0.1722 -0.4400 0.3000
v -0.1722 -0.4400 0.2333
v -0.1722 -0.4400 0.1667
v -0.1722 -0.4400 0.1000
v -0.1722 -0.4400 0.0333
v -0.1722 -0.4400 -0.0333
v -0.1722 -0.4400 -0.1000
v -0.1722 -0.4400 -0.1667
v -0.1722 -0.4400 -0.2333
v -0.1722 -0.4400 -0.3000
v -0.1033 -0.4400 0.3000
v -0.1033 -0.4400 0.2333
v -0.1033 -0.4400 0.1667
v -0.1033 -0.4400 0.1000
v -0.1033 -0.4400 0.0333
v -0.1033 -0.4400 -0.0333
v -0.1033 -0.4400 -0.1000
v -0.1033 -0.4400 -0.1667
v -0.1033 -0.4400 -0.2333
v -0.1033 -0.4400 -0.3000
v -0.0344 -0.4400 0.3000
v -0.0344 -0.4400 0.2333
v -0.0344 -0.4400 0.1667
v -0.0344 -0.4400 0.1000
v -0.0344 -0.4400 0.0333
v -0.0344 -0.4400 -0.0333
v -0.0344 -0.4400 -0.1000
v -0.0344 -0.4400 -0.1667
v -0.0344 -0.4400 -0.2333
v -0.0344 -0.4400 -0.3000
v 0.0344 -0.4400 0.3000
v 0.0344 -0.4400 0.2333
v 0.0344 -0.4400 0.1667
v 0.0344 -0.4400 0.1000
v 0.0344 -0.4400 0.0333
v 0.0344 -0.4400 -0.0333
v 0.0344 -0.4400 -0.1000
v 0.0344 -0.4400 -0.1667
v 0.0344 -0.4400 -0.2333
v 0.0344 -0.4400 -0.3000
v 0.1033 -0.4400 0.3000
v 0.1033 -0.4400 0.2333
v 0.1033 -0.4400 0.1667
v 0.1033 -0.4400 0.1000
v 0.1033 -0.4400 0.0333
v 0.1033 -0.4400 -0.0333
v 0.1033 -0.4400 -0.1000
v 0.1033 -0.4400 -0.1667
v 0.1033 -0.4400 -0.2333
v 0.1033 -0.4400 -0.3000
v 0.1722 -0.4400 0.3000
v 0.1722 -0.4400 0.2333
v 0.1722 -0.4400 0.1667
v 0.1722 -0.4400 0.1000
v 0.1722 -0.4400 0.0333
v 0.1722 -0.4400 -0.0333
v 0.1722 -0.4400 -0.1000
v 0.1722 -0.4400 -0.1667
v 0.1722 -0.4400 -0.2333
v 0.1722 -0.4400 -0.3000
v 0.2411 -0.4400 0.3000
v 0.2411 -0.4400 0.2333
v 0.2411 -0.4400 0.1667
v 0.2411 -0.4400 0.1000
v 0.2411 -0.4400 0.0333
v 0.2411 -0.4400 -0.0333
v 0.2411 -0.4400 -0.1000
v 0.2411 -0.4400 -0.1667
v 0.2411 -0.4400 -0.2333
v 0.2411 -0.4400 -0.3000
v 0.3100 -0.4400 0.3000
v 0.3100 -0.4400 0.2333
v 0.3100 -0.4400 0.1667
v 0.3100 -0.4400 0.1000
v 0.3100 -0.4400 0.0333
v 0.3100 -0.4400 -0.0333
v 0.3100 -0.4400 -0.1000
v 0.3100 -0.4400 -0.1667
v 0.3100 -0.4400 -0.2333
v 0.3100 -0.4400 -0.3000
v 0.2200 0.0500 0.2700
v 0.2200 0.0500 0.3300
v 0.2067 0.1252 0.2700
v 0.2067 0.1252 0.3300
v 0.1685 0.1914 0.2700
v 0.1685 0.1914 0.3300
v 0.1100 0.2405 0.2700
v 0.1100 0.2405 0.3300
v 0.0382 0.2667 0.2700
v 0.0382 0.2667 0.3300
v -0.0382 0.2667 0.2700
v -0.0382 0.2667 0.3300
v -0.1100 0.2405 0.2700
v -0.1100 0.2405 0.3300
v -0.1685 0.1914 0.2700
v -0.1685 0.1914 0.3300
v -0.2067 0.1252 0.2700
v -0.2067 0.1252 0.3300
v -0.2200 0.0500 0.2700
v -0.2200 0.0500 0.3300
v -0.2067 -0.0252 0.2700
v -0.2067 -0.0252 0.3300
v -0.1685 -0.0914 0.2700
v -0.1685 -0.0914 0.3300
v -0.1100 -0.1405 0.2700
v -0.1100 -0.1405 0.3300
v -0.0382 -0.1667 0.2700
v -0.0382 -0.1667 0.3300
v 0.0382 -0.1667 0.2700
v 0.0382 -0.1667 0.3300
v 0.1100 -0.1405 0.2700
v 0.1100 -0.1405 0.3300
v 0.1685 -0.0914 0.2700
v 0.1685 -0.0914 0.3300
v 0.2067 -0.0252 0.2700
v 0.2067 -0.0252 0.3300
v 0.0000 0.0500 0.3300
v 0.0000 0.0500 0.2700
v -0.2750 0.3600 0.3050
v -0.2750 0.3800 0.3050
v -0.2750 0.4000 0.3050
v -0.2750 0.4200 0.3050
v -0.2750 0.4400 0.3050
v -0.2750 0.4600 0.3050
v -0.2750 0.4800 0.3050
v -0.1833 0.3600 0.3050
v -0.1833 0.3800 0.3050
v -0.1833 0.4000 0.3050
v -0.1833 0.4200 0.3050
v -0.1833 0.4400 0.3050
v -0.1833 0.4600 0.3050
v -0.1833 0.4800 0.3050
v -0.0917 0.3600 0.3050
v -0.0917 0.3800 0.3050
v -0.0917 0.4000 0.3050
v -0.0917 0.4200 0.3050
v -0.0917 0.4400 0.3050
v -0.0917 0.4600 0.3050
v -0.0917 0.4800 0.3050
v 0.0000 0.3600 0.3050
v 0.0000 0.3800 0.3050
v 0.0000 0.4000 0.3050
v 0.0000 0.4200 0.3050
v 0.0000 0.4400 0.3050
v 0.0000 0.4600 0.3050
v 0.0000 0.4800 0.3050
v 0.0917 0.3600 0.3050
v 0.0917 0.3800 0.3050
v 0.0917 0.4000 0.3050
v 0.0917 0.4200 0.3050
v 0.0917 0.4400 0.3050
v 0.0917 0.4600 0.3050
v 0.0917 0.4800 0.3050
v 0.1833 0.3600 0.3050
v 0.1833 0.3800 0.3050
v 0.1833 0.4000 0.3050
v 0.1833 0.4200 0.3050
v 0.1833 0.4400 0.3050
v 0.1833 0.4600 0.3050
v 0.1833 0.4800 0.3050
v 0.2750 0.3600 0.3050
v 0.2750 0.3800 0.3050
v 0.2750 0.4000 0.3050
v 0.2750 0.4200 0.3050
v 0.2750 0.4400 0.3050
v 0.2750 0.4600 0.3050
v 0.2750 0.4800 0.3050
v 0.2750 0.3600 0.2550
v 0.2750 0.3800 0.2550
v 0.2750 0.4000 0.2550
v 0.2750 0.4200 0.2550
v 0.2750 0.4400 0.2550
v 0.2750 0.4600 0.2550
v 0.2750 0.4800 0.2550
v 0.1833 0.3600 0.2550
v 0.1833 0.3800 0.2550
v 0.1833 0.4000 0.2550
v 0.1833 0.4200 0.2550
v 0.1833 0.4400 0.2550
v 0.1833 0.4600 0.2550
v 0.1833 0.4800 0.2550
v 0.0917 0.3600 0.2550
v 0.0917 0.3800 0.2550
v 0.0917 0.4000 0.2550
v 0.0917 0.4200 0.2550
v 0.0917 0.4400 0.2550
v 0.0917 0.4600 0.2550
v 0.0917 0.4800 0.2550
v 0.0000 0.3600 0.2550
v 0.0000 0.3800 0.2550
v 0.0000 0.4000 0.2550
v 0.0000 0.4200 0.2550
v 0.0000 0.4400 0.2550
v 0.0000 0.4600 0.2550
v 0.0000 0.4800 0.2550
v -0.0917 0.3600 0.2550
v -0.0917 0.3800 0.2550
v -0.0917 0.4000 0.2550
v -0.0917 0.4200 0.2550
v -0.0917 0.4400 0.2550
v -0.0917 0.4600 0.2550
v -0.0917 0.4800 0.2550
v -0.1833 0.3600 0.2550
v -0.1833 0.3800 0.2550
v -0.1833 0.4000 0.2550
v -0.1833 0.4200 0.2550
v -0.1833 0.4400 0.2550
v -0.1833 0.4600 0.2550
v -0.1833 0.4800 0.2550
v -0.2750 0.3600 0.2550
v -0.2750 0.3800 0.2550
v -0.2750 0.4000 0.2550
v -0.2750 0.4200 0.2550
v -0.2750 0.4400 0.2550
v -0.2750 0.4600 0.2550
v -0.2750 0.4800 0.2550
v -0.2750 0.3600 0.2550
v -0.2750 0.3800 0.2550
v -0.2750 0.4000 0.2550
v -0.2750 0.4200 0.2550
v -0.2750 0.4400 0.2550
v -0.2750 0.4600 0.2550
v -0.2750 0.4800 0.2550
v -0.2750 0.3600 0.2633
v -0.2750 0.3800 0.2633
v -0.2750 0.4000 0.2633
v -0.2750 0.4200 0.2633
v -0.2750 0.4400 0.2633
v -0.2750 0.4600 0.2633
v -0.2750 0.4800 0.2633
v -0.2750 0.3600 0.2717
v -0.2750 0.3800 0.2717
v -0.2750 0.4000 0.2717
v -0.2750 0.4200 0.2717
v -0.2750 0.4400 0.2717
v -0.2750 0.4600 0.2717
v -0.2750 0.4800 0.2717
v -0.2750 0.3600 0.2800
v -0.2750 0.3800 0.2800
v -0.2750 0.4000 0.2800
v -0.2750 0.4200 0.2800
v -0.2750 0.4400 0.2800
v -0.2750 0.4600 0.2800
v -0.2750 0.4800 0.2800
v -0.2750 0.3600 0.2883
v -0.2750 0.3800 0.2883
v -0.2750 0.4000 0.2883
v -0.2750 0.4200 0.2883
v -0.2750 0.4400 0.2883
v -0.2750 0.4600 0.2883
v -0.2750 0.4800 0.2883
v -0.2750 0.3600 0.2967
v -0.2750 0.3800 0.2967
v -0.2750 0.4000 0.2967
v -0.2750 0.4200 0.2967
v -0.2750 0.4400 0.2967
v -0.2750 0.4600 0.2967
v -0.2750 0.4800 0.2967
v -0.2750 0.3600 0.3050
v -0.2750 0.3800 0.3050
v -0.2750 0.4000 0.3050
v -0.2750 0.4200 0.3050
v -0.2750 0.4400 0.3050
v -0.2750 0.4600 0.3050
v -0.2750 0.4800 0.3050
v 0.2750 0.3600 0.3050
v 0.2750 0.3800 0.3050
v 0.2750 0.4000 0.3050
v 0.2750 0.4200 0.3050
v 0.2750 0.4400 0.3050
v 0.2750 0.4600 0.3050
v 0.2750 0.4800 0.3050
v 0.2750 0.3600 0.2967
v 0.2750 0.3800 0.2967
v 0.2750 0.4000 0.2967
v 0.2750 0.4200 0.2967
v 0.2750 0.4400 0.2967
v 0.2750 0.4600 0.2967
v 0.2750 0.4800 0.2967
v 0.2750 0.3600 0.2883
v 0.2750 0.3800 0.2883
v 0.2750 0.4000 0.2883
v 0.2750 0.4200 0.2883
v 0.2750 0.4400 0.2883
v 0.2750 0.4600 0.2883
v 0.2750 0.4800 0.2883
v 0.2750 0.3600 0.2800
v 0.2750 0.3800 0.2800
v 0.2750 0.4000 0.2800
v 0.2750 0.4200 0.2800
v 0.2750 0.4400 0.2800
v 0.2750 0.4600 0.2800
v 0.2750 0.4800 0.2800
v 0.2750 0.3600 0.2717
v 0.2750 0.3800 0.2717
v 0.2750 0.4000 0.2717
v 0.2750 0.4200 0.2717
v 0.2750 0.4400 0.2717
v 0.2750 0.4600 0.2717
v 0.2750 0.4800 0.2717
v 0.2750 0.3600 0.2633
v 0.2750 0.3800 0.2633
v 0.2750 0.4000 0.2633
v 0.2750 0.4200 0.2633
v 0.2750 0.4400 0.2633
v 0.2750 0.4600 0.2633
v 0.2750 0.4800 0.2633
v 0.2750 0.3600 0.2550
v 0.2750 0.3800 0.2550
v 0.2750 0.4000 0.2550
v 0.2750 0.4200 0.2550
v 0.2750 0.4400 0.2550
v 0.2750 0.4600 0.2550
v 0.2750 0.4800 0.2550
v -0.2750 0.4800 0.2550
v -0.2750 0.4800 0.2633
v -0.2750 0.4800 0.2717
v -0.2750 0.4800 0.2800
v -0.2750 0.4800 0.2883
v -0.2750 0.4800 0.2967
v -0.2750 0.4800 0.3050
v -0.1833 0.4800 0.2550
v -0.1833 0.4800 0.2633
v -0.1833 0.4800 0.2717
v -0.1833 0.4800 0.2800
v -0.1833 0.4800 0.2883
v -0.1833 0.4800 0.2967
v -0.1833 0.4800 0.3050
v -0.0917 0.4800 0.2550
v -0.0917 0.4800 0.2633
v -0.0917 0.4800 0.2717
v -0.0917 0.4800 0.2800
v -0.0917 0.4800 0.2883
v -0.0917 0.4800 0.2967
v -0.0917 0.4800 0.3050
v 0.0000 0.4800 0.2550
v 0.0000 0.4800 0.2633
v 0.0000 0.4800 0.2717
v 0.0000 0.4800 0.2800
v 0.0000 0.4800 0.2883
v 0.0000 0.4800 0.2967
v 0.0000 0.4800 0.3050
v 0.0917 0.4800 0.2550
v 0.0917 0.4800 0.2633
v 0.0917 0.4800 0.2717
v 0.0917 0.4800 0.2800
v 0.0917 0.4800 0.2883
v 0.0917 0.4800 0.2967
v 0.0917 0.4800 0.3050
v 0.1833 0.4800 0.2550
v 0.1833 0.4800 0.2633
v 0.1833 0.4800 0.2717
v 0.1833 0.4800 0.2800
v 0.1833 0.4800 0.2883
v 0.1833 0.4800 0.2967
v 0.1833 0.4800 0.3050
v 0.2750 0.4800 0.2550
v 0.2750 0.4800 0.2633
v 0.2750 0.4800 0.2717
v 0.2750 0.4800 0.2800
v 0.2750 0.4800 0.2883
v 0.2750 0.4800 0.2967
v 0.2750 0.4800 0.3050
v -0.2750 0.3600 0.3050
v -0.2750 0.3600 0.2967
v -0.2750 0.3600 0.2883
v -0.2750 0.3600 0.2800
v -0.2750 0.3600 0.2717
v -0.2750 0.3600 0.2633
v -0.2750 0.3600 0.2550
v -0.1833 0.3600 0.3050
v -0.1833 0.3600 0.2967
v -0.1833 0.3600 0.2883
v -0.1833 0.3600 0.2800
v -0.1833 0.3600 0.2717
v -0.1833 0.3600 0.2633
v -0.1833 0.3600 0.2550
v -0.0917 0.3600 0.3050
v -0.0917 0.3600 0.2967
v -0.0917 0.3600 0.2883
v -0.0917 0.3600 0.2800
v -0.0917 0.3600 0.2717
v -0.0917 0.3600 0.2633
v -0.0917 0.3600 0.2550
v 0.0000 0.3600 0.3050
v 0.0000 0.3600 0.2967
v 0.0000 0.3600 0.2883
v 0.0000 0.3600 0.2800
v 0.0000 0.3600 0.2717
v 0.0000 0.3600 0.2633
v 0.0000 0.3600 0.2550
v 0.0917 0.3600 0.3050
v 0.0917 0.3600 0.2967
v 0.0917 0.3600 0.2883
v 0.0917 0.3600 0.2800
v 0.0917 0.3600 0.2717
v 0.0917 0.3600 0.2633
v 0.0917 0.3600 0.2550
v 0.1833 0.3600 0.3050
v 0.1833 0.3600 0.2967
v 0.1833 0.3600 0.2883
v 0.1833 0.3600 0.2800
v 0.1833 0.3600 0.2717
v 0.1833 0.3600 0.2633
v 0.1833 0.3600 0.2550
v 0.2750 0.3600 0.3050
v 0.2750 0.3600 0.2967
v 0.2750 0.3600 0.2883
v 0.2750 0.3600 0.2800
v 0.2750 0.3600 0.2717
v 0.2750 0.3600 0.2633
v 0.2750 0.3600 0.2550
f 1 2 12
f 1 12 11
f 2 3 13
f 2 13 12
f 3 4 14
f 3 14 13
f 4 5 15
f 4 15 14
f 5 6 16
f 5 16 15
f 6 7 17
f 6 17 16
f 7 8 18
f 7 18 17
f 8 9 19
f 8 19 18
f 9 10 20
f 9 20 19
f 11 12 22
f 11 22 21
f 12 13 23
f 12 23 22
f 13 14 24
f 13 24 23
f 14 15 25
f 14 25 24
f 15 16 26
f 15 26 25
f 16 17 27
f 16 27 26
f 17 18 28
f 17 28 27
f 18 19 29
f 18 29 28
f 19 20 30
f 19 30 29
f 21 22 32
f 21 32 31
f 22 23 33
f 22 33 32
f 23 24 34
f 23 34 33
f 24 25 35
f 24 35 34
f 25 26 36
f 25 36 35
f 26 27 37
f 26 37 36
f 27 28 38
f 27 38 37
f 28 29 39
f 28 39 38
f 29 30 40
f 29 40 39
f 31 32 42
f 31 42 41
f 32 33 43
f 32 43 42
f 33 34 44
f 33 44 43
f 34 35 45
f 34 45 44
f 35 36 46
f 35 46 45
f 36 37 47
f 36 47 46
f 37 38 48
f 37 48 47
f 38 39 49
f 38 49 48
f 39 40 50
f 39 50 49
f 41 42 52
f 41 52 51
f 42 43 53
f 42 53 52
f 43 44 54
f 43 54 53
f 44 45 55
f 44 55 54
f 45 46 56
f 45 56 55
f 46 47 57
f 46 57 56
f 47 48 58
f 47 58 57
f 48 49 59
f 48 59 58
f 49 50 60
f 49 60 59
f 51 52 62
f 51 62 61
f 52 53 63
f 52 63 62
f 53 54 64
f 53 64 63
f 54 55 65
f 54 65 64
f 55 56 66
f 55 66 65
f 56 57 67
f 56 67 66
f 57 58 68
f 57 68 67
f 58 59 69
f 58 69 68
f 59 60 70
f 59 70 69
f 61 62 72
f 61 72 71
f 62 63 73
f 62 73 72
f 63 64 74
f 63 74 73
f 64 65 75
f 64 75 74
f 65 66 76
f 65 76 75
f 66 67 77
f 66 77 76
f 67 68 78
f 67 78 77
f 68 69 79
f 68 79 78
f 69 70 80
f 69 80 79
f 71 72 82
f 71 82 81
f 72 73 83
f 72 83 82
f 73 74 84
f 73 84 83
f 74 75 85
f 74 85 84
f 75 76 86
f 75 86 85
f 76 77 87
f 76 87 86
f 77 78 88
f 77 88 87
f 78 79 89
f 78 89 88
f 79 80 90
f 79 90 89
f 81 82 92
f 81 92 91
f 82 83 93
f 82 93 92
f 83 84 94
f 83 94 93
f 84 85 95
f 84 95 94
f 85 86 96
f 85 96 95
f 86 87 97
f 86 97 96
f 87 88 98
f 87 98 97
f 88 89 99
f 88 99 98
f 89 90 100
f 89 100 99
f 101 102 112
f 101 112 111
f 102 103 113
f 102 113 112
f 103 104 114
f 103 114 113
f 104 105 115
f 104 115 114
f 105 106 116
f 105 116 115
f 106 107 117
f 106 117 116
f 107 108 118
f 107 118 117
f 108 109 119
f 108 119 118
f 109 110 120
f 109 120 119
f 111 112 122
f 111 122 121
f 112 113 123
f 112 123 122
f 113 114 124
f 113 124 123
f 114 115 125
f 114 125 124
f 115 116 126
f 115 126 125
f 116 117 127
f 116 127 126
f 117 118 128
f 117 128 127
f 118 119 129
f 118 129 128
f 119 120 130
f 119 130 129
f 121 122 132
f 121 132 131
f 122 123 133
f 122 133 132
f 123 124 134
f 123 134 133
f 124 125 135
f 124 135 134
f 125 126 136
f 125 136 135
f 126 127 137
f 126 137 136
f 127 128 138
f 127 138 137
f 128 129 139
f 128 139 138
f 129 130 140
f 129 140 139
f 131 132 142
f 131 142 141
f 132 133 143
f 132 143 142
f 133 134 144
f 133 144 143
f 134 135 145
f 134 145 144
f 135 136 146
f 135 146 145
f 136 137 147
f 136 147 146
f 137 138 148
f 137 148 147
f 138 139 149
f 138 149 148
f 139 140 150
f 139 150 149
f 141 142 152
f 141 152 151
f 142 143 153
f 142 153 152
f 143 144 154
f 143 154 153
f 144 145 155
f 144 155 154
f 145 146 156
f 145 156 155
f 146 147 157
f 146 157 156
f 147 148 158
f 147 158 157
f 148 149 159
f 148 159 158
f 149 150 160
f 149 160 159
f 151 152 162
f 151 162 161
f 152 153 163
f 152 163 162
f 153 154 164
f 153 164 163
f 154 155 165
f 154 165 164
f 155 156 166
f 155 166 165
f 156 157 167
f 156 167 166
f 157 158 168
f 157 168 167
f 158 159 169
f 158 169 168
f 159 160 170
f 159 170 169
f 161 162 172
f 161 172 171
f 162 163 173
f 162 173 172
f 163 164 174
f 163 174 173
f 164 165 175
f 164 175 174
f 165 166 176
f 165 176 175
f 166 167 177
f 166 177 176
f 167 168 178
f 167 178 177
f 168 169 179
f 168 179 178
f 169 170 180
f 169 180 179
f 171 172 182
f 171 182 181
f 172 173 183
f 172 183 182
f 173 174 184
f 173 184 183
f 174 175 185
f 174 185 184
f 175 176 186
f 175 186 185
f 176 177 187
f 176 187 186
f 177 178 188
f 177 188 187
f 178 179 189
f 178 189 188
f 179 180 190
f 179 190 189
f 181 182 192
f 181 192 191
f 182 183 193
f 182 193 192
f 183 184 194
f 183 194 193
f 184 185 195
f 184 195 194
f 185 186 196
f 185 196 195
f 186 187 197
f 186 197 196
f 187 188 198
f 187 198 197
f 188 189 199
f 188 199 198
f 189 190 200
f 189 200 199
f 201 202 212
f 201 212 211
f 202 203 213
f 202 213 212
f 203 204 214
f 203 214 213
f 204 205 215
f 204 215 214
f 205 206 216
f 205 216 215
f 206 207 217
f 206 217 216
f 207 208 218
f 207 218 217
f 208 209 219
f 208 219 218
f 209 210 220
f 209 220 219
f 211 212 222
f 211 222 221
f 212 213 223
f 212 223 222
f 213 214 224
f 213 224 223
f 214 215 225
f 214 225 224
f 215 216 226
f 215 226 225
f 216 217 227
f 216 227 226
f 217 218 228
f 217 228 227
f 218 219 229
f 218 229 228
f 219 220 230
f 219 230 229
f 221 222 232
f 221 232 231
f 222 223 233
f 222 233 232
f 223 224 234
f 223 234 233
f 224 225 235
f 224 235 234
f 225 226 236
f 225 236 235
f 226 227 237
f 226 237 236
f 227 228 238
f 227 238 237
f 228 229 239
f 228 239 238
f 229 230 240
f 229 240 239
f 231 232 242
f 231 242 241
f 232 233 243
f 232 243 242
f 233 234 244
f 233 244 243
f 234 235 245
f 234 245 244
f 235 236 246
f 235 246 245
f 236 237 247
f 236 247 246
f 237 238 248
f 237 248 247
f 238 239 249
f 238 249 248
f 239 240 250
f 239 250 249
f 241 242 252
f 241 252 251
f 242 243 253
f 242 253 252
f 243 244 254
f 243 254 253
f 244 245 255
f 244 255 254
f 245 246 256
f 245 256 255
f 246 247 257
f 246 257 256
f 247 248 258
f 247 258 257
f 248 249 259
f 248 259 258
f 249 250 260
f 249 260 259
f 251 252 262
f 251 262 261
f 252 253 263
f 252 263 262
f 253 254 264
f 253 264 263
f 254 255 265
f 254 265 264
f 255 256 266
f 255 266 265
f 256 257 267
f 256 267 266
f 257 258 268
f 257 268 267
f 258 259 269
f 258 269 268
f 259 260 270
f 259 270 269
f 261 262 272
f 261 272 271
f 262 263 273
f 262 273 272
f 263 264 274
f 263 274 273
f 264 265 275
f 264 275 274
f 265 266 276
f 265 276 275
f 266 267 277
f 266 277 276
f 267 268 278
f 267 278 277
f 268 269 279
f 268 279 278
f 269 270 280
f 269 280 279
f 271 272 282
f 271 282 281
f 272 273 283
f 272 283 282
f 273 274 284
f 273 284 283
f 274 275 285
f 274 285 284
f 275 276 286
f 275 286 285
f 276 277 287
f 276 287 286
f 277 278 288
f 277 288 287
f 278 279 289
f 278 289 288
f 279 280 290
f 279 290 289
f 281 282 292
f 281 292 291
f 282 283 293
f 282 293 292
f 283 284 294
f 283 294 293
f 284 285 295
f 284 295 294
f 285 286 296
f 285 296 295
f 286 287 297
f 286 297 296
f 287 288 298
f 287 298 297
f 288 289 299
f 288 299 298
f 289 290 300
f 289 300 299
f 301 302 312
f 301 312 311
f 302 303 313
f 302 313 312
f 303 304 314
f 303 314 313
f 304 305 315
f 304 315 314
f 305 306 316
f 305 316 315
f 306 307 317
f 306 317 316
f 307 308 318
f 307 318 317
f 308 309 319
f 308 319 318
f 309 310 320
f 309 320 319
f 311 312 322
f 311 322 321
f 312 313 323
f 312 323 322
f 313 314 324
f 313 324 323
f 314 315 325
f 314 325 324
f 315 316 326
f 315 326 325
f 316 317 327
f 316 327 326
f 317 318 328
f 317 328 327
f 318 319 329
f 318 329 328
f 319 320 330
f 319 330 329
f 321 322 332
f 321 332 331
f 322 323 333
f 322 333 332
f 323 324 334
f 323 334 333
f 324 325 335
f 324 335 334
f 325 326 336
f 325 336 335
f 326 327 337
f 326 337 336
f 327 328 338
f 327 338 337
f 328 329 339
f 328 339 338
f 329 330 340
f 329 340 339
f 331 332 342
f 331 342 341
f 332 333 343
f 332 343 342
f 333 334 344
f 333 344 343
f 334 335 345
f 334 345 344
f 335 336 346
f 335 346 345
f 336 337 347
f 336 347 346
f 337 338 348
f 337 348 347
f 338 339 349
f 338 349 348
f 339 340 350
f 339 350 349
f 341 342 352
f 341 352 351
f 342 343 353
f 342 353 352
f 343 344 354
f 343 354 353
f 344 345 355
f 344 355 354
f 345 346 356
f 345 356 355
f 346 347 357
f 346 357 356
f 347 348 358
f 347 358 357
f 348 349 359
f 348 359 358
f 349 350 360
f 349 360 359
f 351 352 362
f 351 362 361
f 352 353 363
f 352 363 362
f 353 354 364
f 353 364 363
f 354 355 365
f 354 365 364
f 355 356 366
f 355 366 365
f 356 357 367
f 356 367 366
f 357 358 368
f 357 368 367
f 358 359 369
f 358 369 368
f 359 360 370
f 359 370 369
f 361 362 372
f 361 372 371
f 362 363 373
f 362 373 372
f 363 364 374
f 363 374 373
f 364 365 375
f 364 375 374
f 365 366 376
f 365 376 375
f 366 367 377
f 366 377 376
f 367 368 378
f 367 378 377
f 368 369 379
f 368 379 378
f 369 370 380
f 369 380 379
f 371 372 382
f 371 382 381
f 372 373 383
f 372 383 382
f 373 374 384
f 373 384 383
f 374 375 385
f 374 385 384
f 375 376 386
f 375 386 385
f 376 377 387
f 376 387 386
f 377 378 388
f 377 388 387
f 378 379 389
f 378 389 388
f 379 380 390
f 379 390 389
f 381 382 392
f 381 392 391
f 382 383 393
f 382 393 392
f 383 384 394
f 383 394 393
f 384 385 395
f 384 395 394
f 385 386 396
f 385 396 395
f 386 387 397
f 386 397 396
f 387 388 398
f 387 398 397
f 388 389 399
f 388 399 398
f 389 390 400
f 389 400 399
f 401 402 412
f 401 412 411
f 402 403 413
f 402 413 412
f 403 404 414
f 403 414 413
f 404 405 415
f 404 415 414
f 405 406 416
f 405 416 415
f 406 407 417
f 406 417 416
f 407 408 418
f 407 418 417
f 408 409 419
f 408 419 418
f 409 410 420
f 409 420 419
f 411 412 422
f 411 422 421
f 412 413 423
f 412 423 422
f 413 414 424
f 413 424 423
f 414 415 425
f 414 425 424
f 415 416 426
f 415 426 425
f 416 417 427
f 416 427 426
f 417 418 428
f 417 428 427
f 418 419 429
f 418 429 428
f 419 420 430
f 419 430 429
f 421 422 432
f 421 432 431
f 422 423 433
f 422 433 432
f 423 424 434
f 423 434 433
f 424 425 435
f 424 435 434
f 425 426 436
f 425 436 435
f 426 427 437
f 426 437 436
f 427 428 438
f 427 438 437
f 428 429 439
f 428 439 438
f 429 430 440
f 429 440 439
f 431 432 442
f 431 442 441
f 432 433 443
f 432 443 442
f 433 434 444
f 433 444 443
f 434 435 445
f 434 445 444
f 435 436 446
f 435 446 445
f 436 437 447
f 436 447 446
f 437 438 448
f 437 448 447
f 438 439 449
f 438 449 448
f 439 440 450
f 439 450 449
f 441 442 452
f 441 452 451
f 442 443 453
f 442 453 452
f 443 444 454
f 443 454 453
f 444 445 455
f 444 455 454
f 445 446 456
f 445 456 455
f 446 447 457
f 446 457 456
f 447 448 458
f 447 458 457
f 448 449 459
f 448 459 458
f 449 450 460
f 449 460 459
f 451 452 462
f 451 462 461
f 452 453 463
f 452 463 462
f 453 454 464
f 453 464 463
f 454 455 465
f 454 465 464
f 455 456 466
f 455 466 465
f 456 457 467
f 456 467 466
f 457 458 468
f 457 468 467
f 458 459 469
f 458 469 468
f 459 460 470
f 459 470 469
f 461 462 472
f 461 472 471
f 462 463 473
f 462 473 472
f 463 464 474
f 463 474 473
f 464 465 475
f 464 475 474
f 465 466 476
f 465 476 475
f 466 467 477
f 466 477 476
f 467 468 478
f 467 478 477
f 468 469 479
f 468 479 478
f 469 470 480
f 469 480 479
f 471 472 482
f 471 482 481
f 472 473 483
f 472 483 482
f 473 474 484
f 473 484 483
f 474 475 485
f 474 485 484
f 475 476 486
f 475 486 485
f 476 477 487
f 476 487 486
f 477 478 488
f 477 488 487
f 478 479 489
f 478 489 488
f 479 480 490
f 479 490 489
f 481 482 492
f 481 492 491
f 482 483 493
f 482 493 492
f 483 484 494
f 483 494 493
f 484 485 495
f 484 495 494
f 485 486 496
f 485 496 495
f 486 487 497
f 486 497 496
f 487 488 498
f 487 498 497
f 488 489 499
f 488 499 498
f 489 490 500
f 489 500 499
f 501 502 512
f 501 512 511
f 502 503 513
f 502 513 512
f 503 504 514
f 503 514 513
f 504 505 515
f 504 515 514
f 505 506 516
f 505 516 515
f 506 507 517
f 506 517 516
f 507 508 518
f 507 518 517
f 508 509 519
f 508 519 518
f 509 510 520
f 509 520 519
f 511 512 522
f 511 522 521
f 512 513 523
f 512 523 522
f 513 514 524
f 513 524 523
f 514 515 525
f 514 525 524
f 515 516 526
f 515 526 525
f 516 517 527
f 516 527 526
f 517 518 528
f 517 528 527
f 518 519 529
f 518 529 528
f 519 520 530
f 519 530 529
f 521 522 532
f 521 532 531
f 522 523 533
f 522 533 532
f 523 524 534
f 523 534 533
f 524 525 535
f 524 535 534
f 525 526 536
f 525 536 535
f 526 527 537
f 526 537 536
f 527 528 538
f 527 538 537
f 528 529 539
f 528 539 538
f 529 530 540
f 529 540 539
f 531 532 542
f 531 542 541
f 532 533 543
f 532 543 542
f 533 534 544
f 533 544 543
f 534 535 545
f 534 545 544
f 535 536 546
f 535 546 545
f 536 537 547
f 536 547 546
f 537 538 548
f 537 548 547
f 538 539 549
f 538 549 548
f 539 540 550
f 539 550 549
f 541 542 552
f 541 552 551
f 542 543 553
f 542 553 552
f 543 544 554
f 543 554 553
f 544 545 555
f 544 555 554
f 545 546 556
f 545 556 555
f 546 547 557
f 546 557 556
f 547 548 558
f 547 558 557
f 548 549 559
f 548 559 558
f 549 550 560
f 549 560 559
f 551 552 562
f 551 562 561
f 552 553 563
f 552 563 562
f 553 554 564
f 553 564 563
f 554 555 565
f 554 565 564
f 555 556 566
f 555 566 565
f 556 557 567
f 556 567 566
f 557 558 568
f 557 568 567
f 558 559 569
f 558 569 568
f 559 560 570
f 559 570 569
f 561 562 572
f 561 572 571
f 562 563 573
f 562 573 572
f 563 564 574
f 563 574 573
f 564 565 575
f 564 575 574
f 565 566 576
f 565 576 575
f 566 567 577
f 566 577 576
f 567 568 578
f 567 578 577
f 568 569 579
f 568 579 578
f 569 570 580
f 569 580 579
f 571 572 582
f 571 582 581
f 572 573 583
f 572 583 582
f 573 574 584
f 573 584 583
f 574 575 585
f 574 585 584
f 575 576 586
f 575 586 585
f 576 577 587
f 576 587 586
f 577 578 588
f 577 588 587
f 578 579 589
f 578 589 588
f 579 580 590
f 579 590 589
f 581 582 592
f 581 592 591
f 582 583 593
f 582 593 592
f 583 584 594
f 583 594 593
f 584 585 595
f 584 595 594
f 585 586 596
f 585 596 595
f 586 587 597
f 586 597 596
f 587 588 598
f 587 598 597
f 588 589 599
f 588 599 598
f 589 590 600
f 589 600 599
f 601 603 604
f 601 604 602
f 603 605 606
f 603 606 604
f 605 607 608
f 605 608 606
f 607 609 610
f 607 610 608
f 609 611 612
f 609 612 610
f 611 613 614
f 611 614 612
f 613 615 616
f 613 616 614
f 615 617 618
f 615 618 616
f 617 619 620
f 617 620 618
f 619 621 622
f 619 622 620
f 621 623 624
f 621 624 622
f 623 625 626
f 623 626 624
f 625 627 628
f 625 628 626
f 627 629 630
f 627 630 628
f 629 631 632
f 629 632 630
f 631 633 634
f 631 634 632
f 633 635 636
f 633 636 634
f 635 601 602
f 635 602 636
f 637 602 604
f 638 603 601
f 637 604 606
f 638 605 603
f 637 606 608
f 638 607 605
f 637 608 610
f 638 609 607
f 637 610 612
f 638 611 609
f 637 612 614
f 638 613 611
f 637 614 616
f 638 615 613
f 637 616 618
f 638 617 615
f 637 618 620
f 638 619 617
f 637 620 622
f 638 621 619
f 637 622 624
f 638 623 621
f 637 624 626
f 638 625 623
f 637 626 628
f 638 627 625
f 637 628 630
f 638 629 627
f 637 630 632
f 638 631 629
f 637 632 634
f 638 633 631
f 637 634 636
f 638 635 633
f 637 636 602
f 638 601 635
f 639 640 647
f 639 647 646
f 640 641 648
f 640 648 647
f 641 642 649
f 641 649 648
f 642 643 650
f 642 650 649
f 643 644 651
f 643 651 650
f 644 645 652
f 644 652 651
f 646 647 654
f 646 654 653
f 647 648 655
f 647 655 654
f 648 649 656
f 648 656 655
f 649 650 657
f 649 657 656
f 650 651 658
f 650 658 657
f 651 652 659
f 651 659 658
f 653 654 661
f 653 661 660
f 654 655 662
f 654 662 661
f 655 656 663
f 655 663 662
f 656 657 664
f 656 664 663
f 657 658 665
f 657 665 664
f 658 659 666
f 658 666 665
f 660 661 668
f 660 668 667
f 661 662 669
f 661 669 668
f 662 663 670
f 662 670 669
f 663 664 671
f 663 671 670
f 664 665 672
f 664 672 671
f 665 666 673
f 665 673 672
f 667 668 675
f 667 675 674
f 668 669 676
f 668 676 675
f 669 670 677
f 669 677 676
f 670 671 678
f 670 678 677
f 671 672 679
f 671 679 678
f 672 673 680
f 672 680 679
f 674 675 682
f 674 682 681
f 675 676 683
f 675 683 682
f 676 677 684
f 676 684 683
f 677 678 685
f 677 685 684
f 678 679 686
f 678 686 685
f 679 680 687
f 679 687 686
f 688 689 696
f 688 696 695
f 689 690 697
f 689 697 696
f 690 691 698
f 690 698 697
f 691 692 699
f 691 699 698
f 692 693 700
f 692 700 699
f 693 694 701
f 693 701 700
f 695 696 703
f 695 703 702
f 696 697 704
f 696 704 703
f 697 698 705
f 697 705 704
f 698 699 706
f 698 706 705
f 699 700 707
f 699 707 706
f 700 701 708
f 700 708 707
f 702 703 710
f 702 710 709
f 703 704 711
f 703 711 710
f 704 705 712
f 704 712 711
f 705 706 713
f 705 713 712
f 706 707 714
f 706 714 713
f 707 708 715
f 707 715 714
f 709 710 717
f 709 717 716
f 710 711 718
f 710 718 717
f 711 712 719
f 711 719 718
f 712 713 720
f 712 720 719
f 713 714 721
f 713 721 720
f 714 715 722
f 714 722 721
f 716 717 724
f 716 724 723
f 717 718 725
f 717 725 724
f 718 719 726
f 718 726 725
f 719 720 727
f 719 727 726
f 720 721 728
f 720 728 727
f 721 722 729
f 721 729 728
f 723 724 731
f 723 731 730
f 724 725 732
f 724 732 731
f 725 726 733
f 725 733 732
f 726 727 734
f 726 734 733
f 727 728 735
f 727 735 734
f 728 729 736
f 728 736 735
f 737 738 745
f 737 745 744
f 738 739 746
f 738 746 745
f 739 740 747
f 739 747 746
f 740 741 748
f 740 748 747
f 741 742 749
f 741 749 748
f 742 743 750
f 742 750 749
f 744 745 752
f 744 752 751
f 745 746 753
f 745 753 752
f 746 747 754
f 746 754 753
f 747 748 755
f 747 755 754
f 748 749 756
f 748 756 755
f 749 750 757
f 749 757 756
f 751 752 759
f 751 759 758
f 752 753 760
f 752 760 759
f 753 754 761
f 753 761 760
f 754 755 762
f 754 762 761
f 755 756 763
f 755 763 762
f 756 757 764
f 756 764 763
f 758 759 766
f 758 766 765
f 759 760 767
f 759 767 766
f 760 761 768
f 760 768 767
f 761 762 769
f 761 769 768
f 762 763 770
f 762 770 769
f 763 764 771
f 763 771 770
f 765 766 773
f 765 773 772
f 766 767 774
f 766 774 773
f 767 768 775
f 767 775 774
f 768 769 776
f 768 776 775
f 769 770 777
f 769 777 776
f 770 771 778
f 770 778 777
f 772 773 780
f 772 780 779
f 773 774 781
f 773 781 780
f 774 775 782
f 774 782 781
f 775 776 783
f 775 783 782
f 776 777 784
f 776 784 783
f 777 778 785
f 777 785 784
f 786 787 794
f 786 794 793
f 787 788 795
f 787 795 794
f 788 789 796
f 788 796 795
f 789 790 797
f 789 797 796
f 790 791 798
f 790 798 797
f 791 792 799
f 791 799 798
f 793 794 801
f 793 801 800
f 794 795 802
f 794 802 801
f 795 796 803
f 795 803 802
f 796 797 804
f 796 804 803
f 797 798 805
f 797 805 804
f 798 799 806
f 798 806 805
f 800 801 808
f 800 808 807
f 801 802 809
f 801 809 808
f 802 803 810
f 802 810 809
f 803 804 811
f 803 811 810
f 804 805 812
f 804 812 811
f 805 806 813
f 805 813 812
f 807 808 815
f 807 815 814
f 808 809 816
f 808 816 815
f 809 810 817
f 809 817 816
f 810 811 818
f 810 818 817
f 811 812 819
f 811 819 818
f 812 813 820
f 812 820 819
f 814 815 822
f 814 822 821
f 815 816 823
f 815 823 822
f 816 817 824
f 816 824 823
f 817 818 825
f 817 825 824
f 818 819 826
f 818 826 825
f 819 820 827
f 819 827 826
f 821 822 829
f 821 829 828
f 822 823 830
f 822 830 829
f 823 824 831
f 823 831 830
f 824 825 832
f 824 832 831
f 825 826 833
f 825 833 832
f 826 827 834
f 826 834 833
f 835 836 843
f 835 843 842
f 836 837 844
f 836 844 843
f 837 838 845
f 837 845 844
f 838 839 846
f 838 846 845
f 839 840 847
f 839 847 846
f 840 841 848
f 840 848 847
f 842 843 850
f 842 850 849
f 843 844 851
f 843 851 850
f 844 845 852
f 844 852 851
f 845 846 853
f 845 853 852
f 846 847 854
f 846 854 853
f 847 848 855
f 847 855 854
f 849 850 857
f 849 857 856
f 850 851 858
f 850 858 857
f 851 852 859
f 851 859 858
f 852 853 860
f 852 860 859
f 853 854 861
f 853 861 860
f 854 855 862
f 854 862 861
f 856 857 864
f 856 864 863
f 857 858 865
f 857 865 864
f 858 859 866
f 858 866 865
f 859 860 867
f 859 867 866
f 860 861 868
f 860 868 867
f 861 862 869
f 861 869 868
f 863 864 871
f 863 871 870
f 864 865 872
f 864 872 871
f 865 866 873
f 865 873 872
f 866 867 874
f 866 874 873
f 867 868 875
f 867 875 874
f 868 869 876
f 868 876 875
f 870 871 878
f 870 878 877
f 871 872 879
f 871 879 878
f 872 873 880
f 872 880 879
f 873 874 881
f 873 881 880
f 874 875 882
f 874 882 881
f 875 876 883
f 875 883 882
f 884 885 892
f 884 892 891
f 885 886 893
f 885 893 892
f 886 887 894
f 886 894 893
f 887 888 895
f 887 895 894
f 888 889 896
f 888 896 895
f 889 890 897
f 889 897 896
f 891 892 899
f 891 899 898
f 892 893 900
f 892 900 899
f 893 894 901
f 893 901 900
f 894 895 902
f 894 902 901
f 895 896 903
f 895 903 902
f 896 897 904
f 896 904 903
f 898 899 906
f 898 906 905
f 899 900 907
f 899 907 906
f 900 901 908
f 900 908 907
f 901 902 909
f 901 909 908
f 902 903 910
f 902 910 909
f 903 904 911
f 903 911 910
f 905 906 913
f 905 913 912
f 906 907 914
f 906 914 913
f 907 908 915
f 907 915 914
f 908 909 916
f 908 916 915
f 909 910 917
f 909 917 916
f 910 911 918
f 910 918 917
f 912 913 920
f 912 920 919
f 913 914 921
f 913 921 920
f 914 915 922
f 914 922 921
f 915 916 923
f 915 923 922
f 916 917 924
f 916 924 923
f 917 918 925
f 917 925 924
f 919 920 927
f 919 927 926
f 920 921 928
f 920 928 927
f 921 922 929
f 921 929 928
f 922 923 930
f 922 930 929
f 923 924 931
f 923 931 930
f 924 925 932
f 924 932 931
