# 소독약병 — 블록아웃 (예산 300 tris)
# 삼각형 288 · 조각 1
# 생성: tools/blockout — 손으로 고치지 말 것, 생성기를 고칠 것
g antiseptic
v 0.0330 -0.0650 0.0000
v 0.0330 0.0650 0.0000
v 0.0328 -0.0650 0.0036
v 0.0328 0.0650 0.0036
v 0.0322 -0.0650 0.0071
v 0.0322 0.0650 0.0071
v 0.0313 -0.0650 0.0105
v 0.0313 0.0650 0.0105
v 0.0299 -0.0650 0.0139
v 0.0299 0.0650 0.0139
v 0.0283 -0.0650 0.0170
v 0.0283 0.0650 0.0170
v 0.0263 -0.0650 0.0200
v 0.0263 0.0650 0.0200
v 0.0240 -0.0650 0.0227
v 0.0240 0.0650 0.0227
v 0.0214 -0.0650 0.0252
v 0.0214 0.0650 0.0252
v 0.0185 -0.0650 0.0273
v 0.0185 0.0650 0.0273
v 0.0155 -0.0650 0.0292
v 0.0155 0.0650 0.0292
v 0.0122 -0.0650 0.0307
v 0.0122 0.0650 0.0307
v 0.0088 -0.0650 0.0318
v 0.0088 0.0650 0.0318
v 0.0053 -0.0650 0.0326
v 0.0053 0.0650 0.0326
v 0.0018 -0.0650 0.0330
v 0.0018 0.0650 0.0330
v -0.0018 -0.0650 0.0330
v -0.0018 0.0650 0.0330
v -0.0053 -0.0650 0.0326
v -0.0053 0.0650 0.0326
v -0.0088 -0.0650 0.0318
v -0.0088 0.0650 0.0318
v -0.0122 -0.0650 0.0307
v -0.0122 0.0650 0.0307
v -0.0155 -0.0650 0.0292
v -0.0155 0.0650 0.0292
v -0.0185 -0.0650 0.0273
v -0.0185 0.0650 0.0273
v -0.0214 -0.0650 0.0252
v -0.0214 0.0650 0.0252
v -0.0240 -0.0650 0.0227
v -0.0240 0.0650 0.0227
v -0.0263 -0.0650 0.0200
v -0.0263 0.0650 0.0200
v -0.0283 -0.0650 0.0170
v -0.0283 0.0650 0.0170
v -0.0299 -0.0650 0.0139
v -0.0299 0.0650 0.0139
v -0.0313 -0.0650 0.0105
v -0.0313 0.0650 0.0105
v -0.0322 -0.0650 0.0071
v -0.0322 0.0650 0.0071
v -0.0328 -0.0650 0.0036
v -0.0328 0.0650 0.0036
v -0.0330 -0.0650 0.0000
v -0.0330 0.0650 0.0000
v -0.0328 -0.0650 -0.0036
v -0.0328 0.0650 -0.0036
v -0.0322 -0.0650 -0.0071
v -0.0322 0.0650 -0.0071
v -0.0313 -0.0650 -0.0105
v -0.0313 0.0650 -0.0105
v -0.0299 -0.0650 -0.0139
v -0.0299 0.0650 -0.0139
v -0.0283 -0.0650 -0.0170
v -0.0283 0.0650 -0.0170
v -0.0263 -0.0650 -0.0200
v -0.0263 0.0650 -0.0200
v -0.0240 -0.0650 -0.0227
v -0.0240 0.0650 -0.0227
v -0.0214 -0.0650 -0.0252
v -0.0214 0.0650 -0.0252
v -0.0185 -0.0650 -0.0273
v -0.0185 0.0650 -0.0273
v -0.0155 -0.0650 -0.0292
v -0.0155 0.0650 -0.0292
v -0.0122 -0.0650 -0.0307
v -0.0122 0.0650 -0.0307
v -0.0088 -0.0650 -0.0318
v -0.0088 0.0650 -0.0318
v -0.0053 -0.0650 -0.0326
v -0.0053 0.0650 -0.0326
v -0.0018 -0.0650 -0.0330
v -0.0018 0.0650 -0.0330
v 0.0018 -0.0650 -0.0330
v 0.0018 0.0650 -0.0330
v 0.0053 -0.0650 -0.0326
v 0.0053 0.0650 -0.0326
v 0.0088 -0.0650 -0.0318
v 0.0088 0.0650 -0.0318
v 0.0122 -0.0650 -0.0307
v 0.0122 0.0650 -0.0307
v 0.0155 -0.0650 -0.0292
v 0.0155 0.0650 -0.0292
v 0.0185 -0.0650 -0.0273
v 0.0185 0.0650 -0.0273
v 0.0214 -0.0650 -0.0252
v 0.0214 0.0650 -0.0252
v 0.0240 -0.0650 -0.0227
v 0.0240 0.0650 -0.0227
v 0.0263 -0.0650 -0.0200
v 0.0263 0.0650 -0.0200
v 0.0283 -0.0650 -0.0170
v 0.0283 0.0650 -0.0170
v 0.0299 -0.0650 -0.0139
v 0.0299 0.0650 -0.0139
v 0.0313 -0.0650 -0.0105
v 0.0313 0.0650 -0.0105
v 0.0322 -0.0650 -0.0071
v 0.0322 0.0650 -0.0071
v 0.0328 -0.0650 -0.0036
v 0.0328 0.0650 -0.0036
v 0.0000 0.0650 0.0000
v 0.0000 -0.0650 0.0000
v 0.0120 0.0650 0.0000
v 0.0120 0.0950 0.0000
v 0.0108 0.0650 0.0052
v 0.0108 0.0950 0.0052
v 0.0075 0.0650 0.0094
v 0.0075 0.0950 0.0094
v 0.0027 0.0650 0.0117
v 0.0027 0.0950 0.0117
v -0.0027 0.0650 0.0117
v -0.0027 0.0950 0.0117
v -0.0075 0.0650 0.0094
v -0.0075 0.0950 0.0094
v -0.0108 0.0650 0.0052
v -0.0108 0.0950 0.0052
v -0.0120 0.0650 0.0000
v -0.0120 0.0950 0.0000
v -0.0108 0.0650 -0.0052
v -0.0108 0.0950 -0.0052
v -0.0075 0.0650 -0.0094
v -0.0075 0.0950 -0.0094
v -0.0027 0.0650 -0.0117
v -0.0027 0.0950 -0.0117
v 0.0027 0.0650 -0.0117
v 0.0027 0.0950 -0.0117
v 0.0075 0.0650 -0.0094
v 0.0075 0.0950 -0.0094
v 0.0108 0.0650 -0.0052
v 0.0108 0.0950 -0.0052
v 0.0000 0.0950 0.0000
v 0.0000 0.0650 0.0000
f 1 3 4
f 1 4 2
f 3 5 6
f 3 6 4
f 5 7 8
f 5 8 6
f 7 9 10
f 7 10 8
f 9 11 12
f 9 12 10
f 11 13 14
f 11 14 12
f 13 15 16
f 13 16 14
f 15 17 18
f 15 18 16
f 17 19 20
f 17 20 18
f 19 21 22
f 19 22 20
f 21 23 24
f 21 24 22
f 23 25 26
f 23 26 24
f 25 27 28
f 25 28 26
f 27 29 30
f 27 30 28
f 29 31 32
f 29 32 30
f 31 33 34
f 31 34 32
f 33 35 36
f 33 36 34
f 35 37 38
f 35 38 36
f 37 39 40
f 37 40 38
f 39 41 42
f 39 42 40
f 41 43 44
f 41 44 42
f 43 45 46
f 43 46 44
f 45 47 48
f 45 48 46
f 47 49 50
f 47 50 48
f 49 51 52
f 49 52 50
f 51 53 54
f 51 54 52
f 53 55 56
f 53 56 54
f 55 57 58
f 55 58 56
f 57 59 60
f 57 60 58
f 59 61 62
f 59 62 60
f 61 63 64
f 61 64 62
f 63 65 66
f 63 66 64
f 65 67 68
f 65 68 66
f 67 69 70
f 67 70 68
f 69 71 72
f 69 72 70
f 71 73 74
f 71 74 72
f 73 75 76
f 73 76 74
f 75 77 78
f 75 78 76
f 77 79 80
f 77 80 78
f 79 81 82
f 79 82 80
f 81 83 84
f 81 84 82
f 83 85 86
f 83 86 84
f 85 87 88
f 85 88 86
f 87 89 90
f 87 90 88
f 89 91 92
f 89 92 90
f 91 93 94
f 91 94 92
f 93 95 96
f 93 96 94
f 95 97 98
f 95 98 96
f 97 99 100
f 97 100 98
f 99 101 102
f 99 102 100
f 101 103 104
f 101 104 102
f 103 105 106
f 103 106 104
f 105 107 108
f 105 108 106
f 107 109 110
f 107 110 108
f 109 111 112
f 109 112 110
f 111 113 114
f 111 114 112
f 113 115 116
f 113 116 114
f 115 1 2
f 115 2 116
f 117 2 4
f 118 3 1
f 117 4 6
f 118 5 3
f 117 6 8
f 118 7 5
f 117 8 10
f 118 9 7
f 117 10 12
f 118 11 9
f 117 12 14
f 118 13 11
f 117 14 16
f 118 15 13
f 117 16 18
f 118 17 15
f 117 18 20
f 118 19 17
f 117 20 22
f 118 21 19
f 117 22 24
f 118 23 21
f 117 24 26
f 118 25 23
f 117 26 28
f 118 27 25
f 117 28 30
f 118 29 27
f 117 30 32
f 118 31 29
f 117 32 34
f 118 33 31
f 117 34 36
f 118 35 33
f 117 36 38
f 118 37 35
f 117 38 40
f 118 39 37
f 117 40 42
f 118 41 39
f 117 42 44
f 118 43 41
f 117 44 46
f 118 45 43
f 117 46 48
f 118 47 45
f 117 48 50
f 118 49 47
f 117 50 52
f 118 51 49
f 117 52 54
f 118 53 51
f 117 54 56
f 118 55 53
f 117 56 58
f 118 57 55
f 117 58 60
f 118 59 57
f 117 60 62
f 118 61 59
f 117 62 64
f 118 63 61
f 117 64 66
f 118 65 63
f 117 66 68
f 118 67 65
f 117 68 70
f 118 69 67
f 117 70 72
f 118 71 69
f 117 72 74
f 118 73 71
f 117 74 76
f 118 75 73
f 117 76 78
f 118 77 75
f 117 78 80
f 118 79 77
f 117 80 82
f 118 81 79
f 117 82 84
f 118 83 81
f 117 84 86
f 118 85 83
f 117 86 88
f 118 87 85
f 117 88 90
f 118 89 87
f 117 90 92
f 118 91 89
f 117 92 94
f 118 93 91
f 117 94 96
f 118 95 93
f 117 96 98
f 118 97 95
f 117 98 100
f 118 99 97
f 117 100 102
f 118 101 99
f 117 102 104
f 118 103 101
f 117 104 106
f 118 105 103
f 117 106 108
f 118 107 105
f 117 108 110
f 118 109 107
f 117 110 112
f 118 111 109
f 117 112 114
f 118 113 111
f 117 114 116
f 118 115 113
f 117 116 2
f 118 1 115
f 119 121 122
f 119 122 120
f 121 123 124
f 121 124 122
f 123 125 126
f 123 126 124
f 125 127 128
f 125 128 126
f 127 129 130
f 127 130 128
f 129 131 132
f 129 132 130
f 131 133 134
f 131 134 132
f 133 135 136
f 133 136 134
f 135 137 138
f 135 138 136
f 137 139 140
f 137 140 138
f 139 141 142
f 139 142 140
f 141 143 144
f 141 144 142
f 143 145 146
f 143 146 144
f 145 119 120
f 145 120 146
f 147 120 122
f 148 121 119
f 147 122 124
f 148 123 121
f 147 124 126
f 148 125 123
f 147 126 128
f 148 127 125
f 147 128 130
f 148 129 127
f 147 130 132
f 148 131 129
f 147 132 134
f 148 133 131
f 147 134 136
f 148 135 133
f 147 136 138
f 148 137 135
f 147 138 140
f 148 139 137
f 147 140 142
f 148 141 139
f 147 142 144
f 148 143 141
f 147 144 146
f 148 145 143
f 147 146 120
f 148 119 145
