# 수통 — 블록아웃 (예산 300 tris)
# 삼각형 296 · 조각 1
# 생성: tools/blockout — 손으로 고치지 말 것, 생성기를 고칠 것
g canteen
v 0.0550 -0.0950 0.0000
v 0.0550 0.0950 0.0000
v 0.0547 -0.0950 0.0062
v 0.0547 0.0950 0.0062
v 0.0536 -0.0950 0.0122
v 0.0536 0.0950 0.0122
v 0.0519 -0.0950 0.0182
v 0.0519 0.0950 0.0182
v 0.0496 -0.0950 0.0239
v 0.0496 0.0950 0.0239
v 0.0466 -0.0950 0.0293
v 0.0466 0.0950 0.0293
v 0.0430 -0.0950 0.0343
v 0.0430 0.0950 0.0343
v 0.0389 -0.0950 0.0389
v 0.0389 0.0950 0.0389
v 0.0343 -0.0950 0.0430
v 0.0343 0.0950 0.0430
v 0.0293 -0.0950 0.0466
v 0.0293 0.0950 0.0466
v 0.0239 -0.0950 0.0496
v 0.0239 0.0950 0.0496
v 0.0182 -0.0950 0.0519
v 0.0182 0.0950 0.0519
v 0.0122 -0.0950 0.0536
v 0.0122 0.0950 0.0536
v 0.0062 -0.0950 0.0547
v 0.0062 0.0950 0.0547
v 0.0000 -0.0950 0.0550
v 0.0000 0.0950 0.0550
v -0.0062 -0.0950 0.0547
v -0.0062 0.0950 0.0547
v -0.0122 -0.0950 0.0536
v -0.0122 0.0950 0.0536
v -0.0182 -0.0950 0.0519
v -0.0182 0.0950 0.0519
v -0.0239 -0.0950 0.0496
v -0.0239 0.0950 0.0496
v -0.0293 -0.0950 0.0466
v -0.0293 0.0950 0.0466
v -0.0343 -0.0950 0.0430
v -0.0343 0.0950 0.0430
v -0.0389 -0.0950 0.0389
v -0.0389 0.0950 0.0389
v -0.0430 -0.0950 0.0343
v -0.0430 0.0950 0.0343
v -0.0466 -0.0950 0.0293
v -0.0466 0.0950 0.0293
v -0.0496 -0.0950 0.0239
v -0.0496 0.0950 0.0239
v -0.0519 -0.0950 0.0182
v -0.0519 0.0950 0.0182
v -0.0536 -0.0950 0.0122
v -0.0536 0.0950 0.0122
v -0.0547 -0.0950 0.0062
v -0.0547 0.0950 0.0062
v -0.0550 -0.0950 0.0000
v -0.0550 0.0950 0.0000
v -0.0547 -0.0950 -0.0062
v -0.0547 0.0950 -0.0062
v -0.0536 -0.0950 -0.0122
v -0.0536 0.0950 -0.0122
v -0.0519 -0.0950 -0.0182
v -0.0519 0.0950 -0.0182
v -0.0496 -0.0950 -0.0239
v -0.0496 0.0950 -0.0239
v -0.0466 -0.0950 -0.0293
v -0.0466 0.0950 -0.0293
v -0.0430 -0.0950 -0.0343
v -0.0430 0.0950 -0.0343
v -0.0389 -0.0950 -0.0389
v -0.0389 0.0950 -0.0389
v -0.0343 -0.0950 -0.0430
v -0.0343 0.0950 -0.0430
v -0.0293 -0.0950 -0.0466
v -0.0293 0.0950 -0.0466
v -0.0239 -0.0950 -0.0496
v -0.0239 0.0950 -0.0496
v -0.0182 -0.0950 -0.0519
v -0.0182 0.0950 -0.0519
v -0.0122 -0.0950 -0.0536
v -0.0122 0.0950 -0.0536
v -0.0062 -0.0950 -0.0547
v -0.0062 0.0950 -0.0547
v -0.0000 -0.0950 -0.0550
v -0.0000 0.0950 -0.0550
v 0.0062 -0.0950 -0.0547
v 0.0062 0.0950 -0.0547
v 0.0122 -0.0950 -0.0536
v 0.0122 0.0950 -0.0536
v 0.0182 -0.0950 -0.0519
v 0.0182 0.0950 -0.0519
v 0.0239 -0.0950 -0.0496
v 0.0239 0.0950 -0.0496
v 0.0293 -0.0950 -0.0466
v 0.0293 0.0950 -0.0466
v 0.0343 -0.0950 -0.0430
v 0.0343 0.0950 -0.0430
v 0.0389 -0.0950 -0.0389
v 0.0389 0.0950 -0.0389
v 0.0430 -0.0950 -0.0343
v 0.0430 0.0950 -0.0343
v 0.0466 -0.0950 -0.0293
v 0.0466 0.0950 -0.0293
v 0.0496 -0.0950 -0.0239
v 0.0496 0.0950 -0.0239
v 0.0519 -0.0950 -0.0182
v 0.0519 0.0950 -0.0182
v 0.0536 -0.0950 -0.0122
v 0.0536 0.0950 -0.0122
v 0.0547 -0.0950 -0.0062
v 0.0547 0.0950 -0.0062
v 0.0000 0.0950 0.0000
v 0.0000 -0.0950 0.0000
v 0.0200 0.0900 0.0000
v 0.0200 0.1300 0.0000
v 0.0188 0.0900 0.0068
v 0.0188 0.1300 0.0068
v 0.0153 0.0900 0.0129
v 0.0153 0.1300 0.0129
v 0.0100 0.0900 0.0173
v 0.0100 0.1300 0.0173
v 0.0035 0.0900 0.0197
v 0.0035 0.1300 0.0197
v -0.0035 0.0900 0.0197
v -0.0035 0.1300 0.0197
v -0.0100 0.0900 0.0173
v -0.0100 0.1300 0.0173
v -0.0153 0.0900 0.0129
v -0.0153 0.1300 0.0129
v -0.0188 0.0900 0.0068
v -0.0188 0.1300 0.0068
v -0.0200 0.0900 0.0000
v -0.0200 0.1300 0.0000
v -0.0188 0.0900 -0.0068
v -0.0188 0.1300 -0.0068
v -0.0153 0.0900 -0.0129
v -0.0153 0.1300 -0.0129
v -0.0100 0.0900 -0.0173
v -0.0100 0.1300 -0.0173
v -0.0035 0.0900 -0.0197
v -0.0035 0.1300 -0.0197
v 0.0035 0.0900 -0.0197
v 0.0035 0.1300 -0.0197
v 0.0100 0.0900 -0.0173
v 0.0100 0.1300 -0.0173
v 0.0153 0.0900 -0.0129
v 0.0153 0.1300 -0.0129
v 0.0188 0.0900 -0.0068
v 0.0188 0.1300 -0.0068
v 0.0000 0.1300 0.0000
v 0.0000 0.0900 0.0000
f 1 3 4
f 1 4 2
f 3 5 6
f 3 6 4
f 5 7 8
f 5 8 6
f 7 9 10
f 7 10 8
f 9 11 12
f 9 12 10
f 11 13 14
f 11 14 12
f 13 15 16
f 13 16 14
f 15 17 18
f 15 18 16
f 17 19 20
f 17 20 18
f 19 21 22
f 19 22 20
f 21 23 24
f 21 24 22
f 23 25 26
f 23 26 24
f 25 27 28
f 25 28 26
f 27 29 30
f 27 30 28
f 29 31 32
f 29 32 30
f 31 33 34
f 31 34 32
f 33 35 36
f 33 36 34
f 35 37 38
f 35 38 36
f 37 39 40
f 37 40 38
f 39 41 42
f 39 42 40
f 41 43 44
f 41 44 42
f 43 45 46
f 43 46 44
f 45 47 48
f 45 48 46
f 47 49 50
f 47 50 48
f 49 51 52
f 49 52 50
f 51 53 54
f 51 54 52
f 53 55 56
f 53 56 54
f 55 57 58
f 55 58 56
f 57 59 60
f 57 60 58
f 59 61 62
f 59 62 60
f 61 63 64
f 61 64 62
f 63 65 66
f 63 66 64
f 65 67 68
f 65 68 66
f 67 69 70
f 67 70 68
f 69 71 72
f 69 72 70
f 71 73 74
f 71 74 72
f 73 75 76
f 73 76 74
f 75 77 78
f 75 78 76
f 77 79 80
f 77 80 78
f 79 81 82
f 79 82 80
f 81 83 84
f 81 84 82
f 83 85 86
f 83 86 84
f 85 87 88
f 85 88 86
f 87 89 90
f 87 90 88
f 89 91 92
f 89 92 90
f 91 93 94
f 91 94 92
f 93 95 96
f 93 96 94
f 95 97 98
f 95 98 96
f 97 99 100
f 97 100 98
f 99 101 102
f 99 102 100
f 101 103 104
f 101 104 102
f 103 105 106
f 103 106 104
f 105 107 108
f 105 108 106
f 107 109 110
f 107 110 108
f 109 111 112
f 109 112 110
f 111 1 2
f 111 2 112
f 113 2 4
f 114 3 1
f 113 4 6
f 114 5 3
f 113 6 8
f 114 7 5
f 113 8 10
f 114 9 7
f 113 10 12
f 114 11 9
f 113 12 14
f 114 13 11
f 113 14 16
f 114 15 13
f 113 16 18
f 114 17 15
f 113 18 20
f 114 19 17
f 113 20 22
f 114 21 19
f 113 22 24
f 114 23 21
f 113 24 26
f 114 25 23
f 113 26 28
f 114 27 25
f 113 28 30
f 114 29 27
f 113 30 32
f 114 31 29
f 113 32 34
f 114 33 31
f 113 34 36
f 114 35 33
f 113 36 38
f 114 37 35
f 113 38 40
f 114 39 37
f 113 40 42
f 114 41 39
f 113 42 44
f 114 43 41
f 113 44 46
f 114 45 43
f 113 46 48
f 114 47 45
f 113 48 50
f 114 49 47
f 113 50 52
f 114 51 49
f 113 52 54
f 114 53 51
f 113 54 56
f 114 55 53
f 113 56 58
f 114 57 55
f 113 58 60
f 114 59 57
f 113 60 62
f 114 61 59
f 113 62 64
f 114 63 61
f 113 64 66
f 114 65 63
f 113 66 68
f 114 67 65
f 113 68 70
f 114 69 67
f 113 70 72
f 114 71 69
f 113 72 74
f 114 73 71
f 113 74 76
f 114 75 73
f 113 76 78
f 114 77 75
f 113 78 80
f 114 79 77
f 113 80 82
f 114 81 79
f 113 82 84
f 114 83 81
f 113 84 86
f 114 85 83
f 113 86 88
f 114 87 85
f 113 88 90
f 114 89 87
f 113 90 92
f 114 91 89
f 113 92 94
f 114 93 91
f 113 94 96
f 114 95 93
f 113 96 98
f 114 97 95
f 113 98 100
f 114 99 97
f 113 100 102
f 114 101 99
f 113 102 104
f 114 103 101
f 113 104 106
f 114 105 103
f 113 106 108
f 114 107 105
f 113 108 110
f 114 109 107
f 113 110 112
f 114 111 109
f 113 112 2
f 114 1 111
f 115 117 118
f 115 118 116
f 117 119 120
f 117 120 118
f 119 121 122
f 119 122 120
f 121 123 124
f 121 124 122
f 123 125 126
f 123 126 124
f 125 127 128
f 125 128 126
f 127 129 130
f 127 130 128
f 129 131 132
f 129 132 130
f 131 133 134
f 131 134 132
f 133 135 136
f 133 136 134
f 135 137 138
f 135 138 136
f 137 139 140
f 137 140 138
f 139 141 142
f 139 142 140
f 141 143 144
f 141 144 142
f 143 145 146
f 143 146 144
f 145 147 148
f 145 148 146
f 147 149 150
f 147 150 148
f 149 115 116
f 149 116 150
f 151 116 118
f 152 117 115
f 151 118 120
f 152 119 117
f 151 120 122
f 152 121 119
f 151 122 124
f 152 123 121
f 151 124 126
f 152 125 123
f 151 126 128
f 152 127 125
f 151 128 130
f 152 129 127
f 151 130 132
f 152 131 129
f 151 132 134
f 152 133 131
f 151 134 136
f 152 135 133
f 151 136 138
f 152 137 135
f 151 138 140
f 152 139 137
f 151 140 142
f 152 141 139
f 151 142 144
f 152 143 141
f 151 144 146
f 152 145 143
f 151 146 148
f 152 147 145
f 151 148 150
f 152 149 147
f 151 150 116
f 152 115 149
