# 서류철 — 블록아웃 (예산 300 tris)
# 삼각형 240 · 조각 1
# 생성: tools/blockout — 손으로 고치지 말 것, 생성기를 고칠 것
g documentFolder
v -0.1100 -0.0150 0.1500
v -0.1100 0.0000 0.1500
v -0.1100 0.0150 0.1500
v 0.0000 -0.0150 0.1500
v 0.0000 0.0000 0.1500
v 0.0000 0.0150 0.1500
v 0.1100 -0.0150 0.1500
v 0.1100 0.0000 0.1500
v 0.1100 0.0150 0.1500
v 0.1100 -0.0150 -0.1500
v 0.1100 0.0000 -0.1500
v 0.1100 0.0150 -0.1500
v 0.0000 -0.0150 -0.1500
v 0.0000 0.0000 -0.1500
v 0.0000 0.0150 -0.1500
v -0.1100 -0.0150 -0.1500
v -0.1100 0.0000 -0.1500
v -0.1100 0.0150 -0.1500
v -0.1100 -0.0150 -0.1500
v -0.1100 0.0000 -0.1500
v -0.1100 0.0150 -0.1500
v -0.1100 -0.0150 0.0000
v -0.1100 0.0000 0.0000
v -0.1100 0.0150 0.0000
v -0.1100 -0.0150 0.1500
v -0.1100 0.0000 0.1500
v -0.1100 0.0150 0.1500
v 0.1100 -0.0150 0.1500
v 0.1100 0.0000 0.1500
v 0.1100 0.0150 0.1500
v 0.1100 -0.0150 0.0000
v 0.1100 0.0000 0.0000
v 0.1100 0.0150 0.0000
v 0.1100 -0.0150 -0.1500
v 0.1100 0.0000 -0.1500
v 0.1100 0.0150 -0.1500
v -0.1100 0.0150 -0.1500
v -0.1100 0.0150 0.0000
v -0.1100 0.0150 0.1500
v 0.0000 0.0150 -0.1500
v 0.0000 0.0150 0.0000
v 0.0000 0.0150 0.1500
v 0.1100 0.0150 -0.1500
v 0.1100 0.0150 0.0000
v 0.1100 0.0150 0.1500
v -0.1100 -0.0150 0.1500
v -0.1100 -0.0150 0.0000
v -0.1100 -0.0150 -0.1500
v 0.0000 -0.0150 0.1500
v 0.0000 -0.0150 0.0000
v 0.0000 -0.0150 -0.1500
v 0.1100 -0.0150 0.1500
v 0.1100 -0.0150 0.0000
v 0.1100 -0.0150 -0.1500
v -0.1100 -0.0175 0.1500
v -0.1100 -0.0088 0.1500
v -0.1100 0.0000 0.1500
v -0.1100 0.0088 0.1500
v -0.1100 0.0175 0.1500
v -0.1050 -0.0175 0.1500
v -0.1050 -0.0088 0.1500
v -0.1050 0.0000 0.1500
v -0.1050 0.0088 0.1500
v -0.1050 0.0175 0.1500
v -0.1000 -0.0175 0.1500
v -0.1000 -0.0088 0.1500
v -0.1000 0.0000 0.1500
v -0.1000 0.0088 0.1500
v -0.1000 0.0175 0.1500
v -0.0950 -0.0175 0.1500
v -0.0950 -0.0088 0.1500
v -0.0950 0.0000 0.1500
v -0.0950 0.0088 0.1500
v -0.0950 0.0175 0.1500
v -0.0900 -0.0175 0.1500
v -0.0900 -0.0088 0.1500
v -0.0900 0.0000 0.1500
v -0.0900 0.0088 0.1500
v -0.0900 0.0175 0.1500
v -0.0900 -0.0175 -0.1500
v -0.0900 -0.0088 -0.1500
v -0.0900 0.0000 -0.1500
v -0.0900 0.0088 -0.1500
v -0.0900 0.0175 -0.1500
v -0.0950 -0.0175 -0.1500
v -0.0950 -0.0088 -0.1500
v -0.0950 0.0000 -0.1500
v -0.0950 0.0088 -0.1500
v -0.0950 0.0175 -0.1500
v -0.1000 -0.0175 -0.1500
v -0.1000 -0.0088 -0.1500
v -0.1000 0.0000 -0.1500
v -0.1000 0.0088 -0.1500
v -0.1000 0.0175 -0.1500
v -0.1050 -0.0175 -0.1500
v -0.1050 -0.0088 -0.1500
v -0.1050 0.0000 -0.1500
v -0.1050 0.0088 -0.1500
v -0.1050 0.0175 -0.1500
v -0.1100 -0.0175 -0.1500
v -0.1100 -0.0088 -0.1500
v -0.1100 0.0000 -0.1500
v -0.1100 0.0088 -0.1500
v -0.1100 0.0175 -0.1500
v -0.1100 -0.0175 -0.1500
v -0.1100 -0.0088 -0.1500
v -0.1100 0.0000 -0.1500
v -0.1100 0.0088 -0.1500
v -0.1100 0.0175 -0.1500
v -0.1100 -0.0175 -0.0750
v -0.1100 -0.0088 -0.0750
v -0.1100 0.0000 -0.0750
v -0.1100 0.0088 -0.0750
v -0.1100 0.0175 -0.0750
v -0.1100 -0.0175 0.0000
v -0.1100 -0.0088 0.0000
v -0.1100 0.0000 0.0000
v -0.1100 0.0088 0.0000
v -0.1100 0.0175 0.0000
v -0.1100 -0.0175 0.0750
v -0.1100 -0.0088 0.0750
v -0.1100 0.0000 0.0750
v -0.1100 0.0088 0.0750
v -0.1100 0.0175 0.0750
v -0.1100 -0.0175 0.1500
v -0.1100 -0.0088 0.1500
v -0.1100 0.0000 0.1500
v -0.1100 0.0088 0.1500
v -0.1100 0.0175 0.1500
v -0.0900 -0.0175 0.1500
v -0.0900 -0.0088 0.1500
v -0.0900 0.0000 0.1500
v -0.0900 0.0088 0.1500
v -0.0900 0.0175 0.1500
v -0.0900 -0.0175 0.0750
v -0.0900 -0.0088 0.0750
v -0.0900 0.0000 0.0750
v -0.0900 0.0088 0.0750
v -0.0900 0.0175 0.0750
v -0.0900 -0.0175 0.0000
v -0.0900 -0.0088 0.0000
v -0.0900 0.0000 0.0000
v -0.0900 0.0088 0.0000
v -0.0900 0.0175 0.0000
v -0.0900 -0.0175 -0.0750
v -0.0900 -0.0088 -0.0750
v -0.0900 0.0000 -0.0750
v -0.0900 0.0088 -0.0750
v -0.0900 0.0175 -0.0750
v -0.0900 -0.0175 -0.1500
v -0.0900 -0.0088 -0.1500
v -0.0900 0.0000 -0.1500
v -0.0900 0.0088 -0.1500
v -0.0900 0.0175 -0.1500
v -0.1100 0.0175 -0.1500
v -0.1100 0.0175 -0.0750
v -0.1100 0.0175 0.0000
v -0.1100 0.0175 0.0750
v -0.1100 0.0175 0.1500
v -0.1050 0.0175 -0.1500
v -0.1050 0.0175 -0.0750
v -0.1050 0.0175 0.0000
v -0.1050 0.0175 0.0750
v -0.1050 0.0175 0.1500
v -0.1000 0.0175 -0.1500
v -0.1000 0.0175 -0.0750
v -0.1000 0.0175 0.0000
v -0.1000 0.0175 0.0750
v -0.1000 0.0175 0.1500
v -0.0950 0.0175 -0.1500
v -0.0950 0.0175 -0.0750
v -0.0950 0.0175 0.0000
v -0.0950 0.0175 0.0750
v -0.0950 0.0175 0.1500
v -0.0900 0.0175 -0.1500
v -0.0900 0.0175 -0.0750
v -0.0900 0.0175 0.0000
v -0.0900 0.0175 0.0750
v -0.0900 0.0175 0.1500
v -0.1100 -0.0175 0.1500
v -0.1100 -0.0175 0.0750
v -0.1100 -0.0175 0.0000
v -0.1100 -0.0175 -0.0750
v -0.1100 -0.0175 -0.1500
v -0.1050 -0.0175 0.1500
v -0.1050 -0.0175 0.0750
v -0.1050 -0.0175 0.0000
v -0.1050 -0.0175 -0.0750
v -0.1050 -0.0175 -0.1500
v -0.1000 -0.0175 0.1500
v -0.1000 -0.0175 0.0750
v -0.1000 -0.0175 0.0000
v -0.1000 -0.0175 -0.0750
v -0.1000 -0.0175 -0.1500
v -0.0950 -0.0175 0.1500
v -0.0950 -0.0175 0.0750
v -0.0950 -0.0175 0.0000
v -0.0950 -0.0175 -0.0750
v -0.0950 -0.0175 -0.1500
v -0.0900 -0.0175 0.1500
v -0.0900 -0.0175 0.0750
v -0.0900 -0.0175 0.0000
v -0.0900 -0.0175 -0.0750
v -0.0900 -0.0175 -0.1500
f 1 2 5
f 1 5 4
f 2 3 6
f 2 6 5
f 4 5 8
f 4 8 7
f 5 6 9
f 5 9 8
f 10 11 14
f 10 14 13
f 11 12 15
f 11 15 14
f 13 14 17
f 13 17 16
f 14 15 18
f 14 18 17
f 19 20 23
f 19 23 22
f 20 21 24
f 20 24 23
f 22 23 26
f 22 26 25
f 23 24 27
f 23 27 26
f 28 29 32
f 28 32 31
f 29 30 33
f 29 33 32
f 31 32 35
f 31 35 34
f 32 33 36
f 32 36 35
f 37 38 41
f 37 41 40
f 38 39 42
f 38 42 41
f 40 41 44
f 40 44 43
f 41 42 45
f 41 45 44
f 46 47 50
f 46 50 49
f 47 48 51
f 47 51 50
f 49 50 53
f 49 53 52
f 50 51 54
f 50 54 53
f 55 56 61
f 55 61 60
f 56 57 62
f 56 62 61
f 57 58 63
f 57 63 62
f 58 59 64
f 58 64 63
f 60 61 66
f 60 66 65
f 61 62 67
f 61 67 66
f 62 63 68
f 62 68 67
f 63 64 69
f 63 69 68
f 65 66 71
f 65 71 70
f 66 67 72
f 66 72 71
f 67 68 73
f 67 73 72
f 68 69 74
f 68 74 73
f 70 71 76
f 70 76 75
f 71 72 77
f 71 77 76
f 72 73 78
f 72 78 77
f 73 74 79
f 73 79 78
f 80 81 86
f 80 86 85
f 81 82 87
f 81 87 86
f 82 83 88
f 82 88 87
f 83 84 89
f 83 89 88
f 85 86 91
f 85 91 90
f 86 87 92
f 86 92 91
f 87 88 93
f 87 93 92
f 88 89 94
f 88 94 93
f 90 91 96
f 90 96 95
f 91 92 97
f 91 97 96
f 92 93 98
f 92 98 97
f 93 94 99
f 93 99 98
f 95 96 101
f 95 101 100
f 96 97 102
f 96 102 101
f 97 98 103
f 97 103 102
f 98 99 104
f 98 104 103
f 105 106 111
f 105 111 110
f 106 107 112
f 106 112 111
f 107 108 113
f 107 113 112
f 108 109 114
f 108 114 113
f 110 111 116
f 110 116 115
f 111 112 117
f 111 117 116
f 112 113 118
f 112 118 117
f 113 114 119
f 113 119 118
f 115 116 121
f 115 121 120
f 116 117 122
f 116 122 121
f 117 118 123
f 117 123 122
f 118 119 124
f 118 124 123
f 120 121 126
f 120 126 125
f 121 122 127
f 121 127 126
f 122 123 128
f 122 128 127
f 123 124 129
f 123 129 128
f 130 131 136
f 130 136 135
f 131 132 137
f 131 137 136
f 132 133 138
f 132 138 137
f 133 134 139
f 133 139 138
f 135 136 141
f 135 141 140
f 136 137 142
f 136 142 141
f 137 138 143
f 137 143 142
f 138 139 144
f 138 144 143
f 140 141 146
f 140 146 145
f 141 142 147
f 141 147 146
f 142 143 148
f 142 148 147
f 143 144 149
f 143 149 148
f 145 146 151
f 145 151 150
f 146 147 152
f 146 152 151
f 147 148 153
f 147 153 152
f 148 149 154
f 148 154 153
f 155 156 161
f 155 161 160
f 156 157 162
f 156 162 161
f 157 158 163
f 157 163 162
f 158 159 164
f 158 164 163
f 160 161 166
f 160 166 165
f 161 162 167
f 161 167 166
f 162 163 168
f 162 168 167
f 163 164 169
f 163 169 168
f 165 166 171
f 165 171 170
f 166 167 172
f 166 172 171
f 167 168 173
f 167 173 172
f 168 169 174
f 168 174 173
f 170 171 176
f 170 176 175
f 171 172 177
f 171 177 176
f 172 173 178
f 172 178 177
f 173 174 179
f 173 179 178
f 180 181 186
f 180 186 185
f 181 182 187
f 181 187 186
f 182 183 188
f 182 188 187
f 183 184 189
f 183 189 188
f 185 186 191
f 185 191 190
f 186 187 192
f 186 192 191
f 187 188 193
f 187 193 192
f 188 189 194
f 188 194 193
f 190 191 196
f 190 196 195
f 191 192 197
f 191 197 196
f 192 193 198
f 192 198 197
f 193 194 199
f 193 199 198
f 195 196 201
f 195 201 200
f 196 197 202
f 196 202 201
f 197 198 203
f 197 203 202
f 198 199 204
f 198 204 203
