# 손전등 — 블록아웃 (예산 300 tris)
# 삼각형 296 · 조각 1
# 생성: tools/blockout — 손으로 고치지 말 것, 생성기를 고칠 것
g flashlight
v 0.0220 -0.0800 0.0000
v 0.0220 0.0800 0.0000
v 0.0218 -0.0800 0.0031
v 0.0218 0.0800 0.0031
v 0.0211 -0.0800 0.0062
v 0.0211 0.0800 0.0062
v 0.0200 -0.0800 0.0091
v 0.0200 0.0800 0.0091
v 0.0185 -0.0800 0.0119
v 0.0185 0.0800 0.0119
v 0.0166 -0.0800 0.0144
v 0.0166 0.0800 0.0144
v 0.0144 -0.0800 0.0166
v 0.0144 0.0800 0.0166
v 0.0119 -0.0800 0.0185
v 0.0119 0.0800 0.0185
v 0.0091 -0.0800 0.0200
v 0.0091 0.0800 0.0200
v 0.0062 -0.0800 0.0211
v 0.0062 0.0800 0.0211
v 0.0031 -0.0800 0.0218
v 0.0031 0.0800 0.0218
v 0.0000 -0.0800 0.0220
v 0.0000 0.0800 0.0220
v -0.0031 -0.0800 0.0218
v -0.0031 0.0800 0.0218
v -0.0062 -0.0800 0.0211
v -0.0062 0.0800 0.0211
v -0.0091 -0.0800 0.0200
v -0.0091 0.0800 0.0200
v -0.0119 -0.0800 0.0185
v -0.0119 0.0800 0.0185
v -0.0144 -0.0800 0.0166
v -0.0144 0.0800 0.0166
v -0.0166 -0.0800 0.0144
v -0.0166 0.0800 0.0144
v -0.0185 -0.0800 0.0119
v -0.0185 0.0800 0.0119
v -0.0200 -0.0800 0.0091
v -0.0200 0.0800 0.0091
v -0.0211 -0.0800 0.0062
v -0.0211 0.0800 0.0062
v -0.0218 -0.0800 0.0031
v -0.0218 0.0800 0.0031
v -0.0220 -0.0800 0.0000
v -0.0220 0.0800 0.0000
v -0.0218 -0.0800 -0.0031
v -0.0218 0.0800 -0.0031
v -0.0211 -0.0800 -0.0062
v -0.0211 0.0800 -0.0062
v -0.0200 -0.0800 -0.0091
v -0.0200 0.0800 -0.0091
v -0.0185 -0.0800 -0.0119
v -0.0185 0.0800 -0.0119
v -0.0166 -0.0800 -0.0144
v -0.0166 0.0800 -0.0144
v -0.0144 -0.0800 -0.0166
v -0.0144 0.0800 -0.0166
v -0.0119 -0.0800 -0.0185
v -0.0119 0.0800 -0.0185
v -0.0091 -0.0800 -0.0200
v -0.0091 0.0800 -0.0200
v -0.0062 -0.0800 -0.0211
v -0.0062 0.0800 -0.0211
v -0.0031 -0.0800 -0.0218
v -0.0031 0.0800 -0.0218
v -0.0000 -0.0800 -0.0220
v -0.0000 0.0800 -0.0220
v 0.0031 -0.0800 -0.0218
v 0.0031 0.0800 -0.0218
v 0.0062 -0.0800 -0.0211
v 0.0062 0.0800 -0.0211
v 0.0091 -0.0800 -0.0200
v 0.0091 0.0800 -0.0200
v 0.0119 -0.0800 -0.0185
v 0.0119 0.0800 -0.0185
v 0.0144 -0.0800 -0.0166
v 0.0144 0.0800 -0.0166
v 0.0166 -0.0800 -0.0144
v 0.0166 0.0800 -0.0144
v 0.0185 -0.0800 -0.0119
v 0.0185 0.0800 -0.0119
v 0.0200 -0.0800 -0.0091
v 0.0200 0.0800 -0.0091
v 0.0211 -0.0800 -0.0062
v 0.0211 0.0800 -0.0062
v 0.0218 -0.0800 -0.0031
v 0.0218 0.0800 -0.0031
v 0.0000 0.0800 0.0000
v 0.0000 -0.0800 0.0000
v 0.0350 0.0800 0.0000
v 0.0350 0.1200 0.0000
v 0.0342 0.0800 0.0073
v 0.0342 0.1200 0.0073
v 0.0320 0.0800 0.0142
v 0.0320 0.1200 0.0142
v 0.0283 0.0800 0.0206
v 0.0283 0.1200 0.0206
v 0.0234 0.0800 0.0260
v 0.0234 0.1200 0.0260
v 0.0175 0.0800 0.0303
v 0.0175 0.1200 0.0303
v 0.0108 0.0800 0.0333
v 0.0108 0.1200 0.0333
v 0.0037 0.0800 0.0348
v 0.0037 0.1200 0.0348
v -0.0037 0.0800 0.0348
v -0.0037 0.1200 0.0348
v -0.0108 0.0800 0.0333
v -0.0108 0.1200 0.0333
v -0.0175 0.0800 0.0303
v -0.0175 0.1200 0.0303
v -0.0234 0.0800 0.0260
v -0.0234 0.1200 0.0260
v -0.0283 0.0800 0.0206
v -0.0283 0.1200 0.0206
v -0.0320 0.0800 0.0142
v -0.0320 0.1200 0.0142
v -0.0342 0.0800 0.0073
v -0.0342 0.1200 0.0073
v -0.0350 0.0800 0.0000
v -0.0350 0.1200 0.0000
v -0.0342 0.0800 -0.0073
v -0.0342 0.1200 -0.0073
v -0.0320 0.0800 -0.0142
v -0.0320 0.1200 -0.0142
v -0.0283 0.0800 -0.0206
v -0.0283 0.1200 -0.0206
v -0.0234 0.0800 -0.0260
v -0.0234 0.1200 -0.0260
v -0.0175 0.0800 -0.0303
v -0.0175 0.1200 -0.0303
v -0.0108 0.0800 -0.0333
v -0.0108 0.1200 -0.0333
v -0.0037 0.0800 -0.0348
v -0.0037 0.1200 -0.0348
v 0.0037 0.0800 -0.0348
v 0.0037 0.1200 -0.0348
v 0.0108 0.0800 -0.0333
v 0.0108 0.1200 -0.0333
v 0.0175 0.0800 -0.0303
v 0.0175 0.1200 -0.0303
v 0.0234 0.0800 -0.0260
v 0.0234 0.1200 -0.0260
v 0.0283 0.0800 -0.0206
v 0.0283 0.1200 -0.0206
v 0.0320 0.0800 -0.0142
v 0.0320 0.1200 -0.0142
v 0.0342 0.0800 -0.0073
v 0.0342 0.1200 -0.0073
v 0.0000 0.1200 0.0000
v 0.0000 0.0800 0.0000
f 1 3 4
f 1 4 2
f 3 5 6
f 3 6 4
f 5 7 8
f 5 8 6
f 7 9 10
f 7 10 8
f 9 11 12
f 9 12 10
f 11 13 14
f 11 14 12
f 13 15 16
f 13 16 14
f 15 17 18
f 15 18 16
f 17 19 20
f 17 20 18
f 19 21 22
f 19 22 20
f 21 23 24
f 21 24 22
f 23 25 26
f 23 26 24
f 25 27 28
f 25 28 26
f 27 29 30
f 27 30 28
f 29 31 32
f 29 32 30
f 31 33 34
f 31 34 32
f 33 35 36
f 33 36 34
f 35 37 38
f 35 38 36
f 37 39 40
f 37 40 38
f 39 41 42
f 39 42 40
f 41 43 44
f 41 44 42
f 43 45 46
f 43 46 44
f 45 47 48
f 45 48 46
f 47 49 50
f 47 50 48
f 49 51 52
f 49 52 50
f 51 53 54
f 51 54 52
f 53 55 56
f 53 56 54
f 55 57 58
f 55 58 56
f 57 59 60
f 57 60 58
f 59 61 62
f 59 62 60
f 61 63 64
f 61 64 62
f 63 65 66
f 63 66 64
f 65 67 68
f 65 68 66
f 67 69 70
f 67 70 68
f 69 71 72
f 69 72 70
f 71 73 74
f 71 74 72
f 73 75 76
f 73 76 74
f 75 77 78
f 75 78 76
f 77 79 80
f 77 80 78
f 79 81 82
f 79 82 80
f 81 83 84
f 81 84 82
f 83 85 86
f 83 86 84
f 85 87 88
f 85 88 86
f 87 1 2
f 87 2 88
f 89 2 4
f 90 3 1
f 89 4 6
f 90 5 3
f 89 6 8
f 90 7 5
f 89 8 10
f 90 9 7
f 89 10 12
f 90 11 9
f 89 12 14
f 90 13 11
f 89 14 16
f 90 15 13
f 89 16 18
f 90 17 15
f 89 18 20
f 90 19 17
f 89 20 22
f 90 21 19
f 89 22 24
f 90 23 21
f 89 24 26
f 90 25 23
f 89 26 28
f 90 27 25
f 89 28 30
f 90 29 27
f 89 30 32
f 90 31 29
f 89 32 34
f 90 33 31
f 89 34 36
f 90 35 33
f 89 36 38
f 90 37 35
f 89 38 40
f 90 39 37
f 89 40 42
f 90 41 39
f 89 42 44
f 90 43 41
f 89 44 46
f 90 45 43
f 89 46 48
f 90 47 45
f 89 48 50
f 90 49 47
f 89 50 52
f 90 51 49
f 89 52 54
f 90 53 51
f 89 54 56
f 90 55 53
f 89 56 58
f 90 57 55
f 89 58 60
f 90 59 57
f 89 60 62
f 90 61 59
f 89 62 64
f 90 63 61
f 89 64 66
f 90 65 63
f 89 66 68
f 90 67 65
f 89 68 70
f 90 69 67
f 89 70 72
f 90 71 69
f 89 72 74
f 90 73 71
f 89 74 76
f 90 75 73
f 89 76 78
f 90 77 75
f 89 78 80
f 90 79 77
f 89 80 82
f 90 81 79
f 89 82 84
f 90 83 81
f 89 84 86
f 90 85 83
f 89 86 88
f 90 87 85
f 89 88 2
f 90 1 87
f 91 93 94
f 91 94 92
f 93 95 96
f 93 96 94
f 95 97 98
f 95 98 96
f 97 99 100
f 97 100 98
f 99 101 102
f 99 102 100
f 101 103 104
f 101 104 102
f 103 105 106
f 103 106 104
f 105 107 108
f 105 108 106
f 107 109 110
f 107 110 108
f 109 111 112
f 109 112 110
f 111 113 114
f 111 114 112
f 113 115 116
f 113 116 114
f 115 117 118
f 115 118 116
f 117 119 120
f 117 120 118
f 119 121 122
f 119 122 120
f 121 123 124
f 121 124 122
f 123 125 126
f 123 126 124
f 125 127 128
f 125 128 126
f 127 129 130
f 127 130 128
f 129 131 132
f 129 132 130
f 131 133 134
f 131 134 132
f 133 135 136
f 133 136 134
f 135 137 138
f 135 138 136
f 137 139 140
f 137 140 138
f 139 141 142
f 139 142 140
f 141 143 144
f 141 144 142
f 143 145 146
f 143 146 144
f 145 147 148
f 145 148 146
f 147 149 150
f 147 150 148
f 149 91 92
f 149 92 150
f 151 92 94
f 152 93 91
f 151 94 96
f 152 95 93
f 151 96 98
f 152 97 95
f 151 98 100
f 152 99 97
f 151 100 102
f 152 101 99
f 151 102 104
f 152 103 101
f 151 104 106
f 152 105 103
f 151 106 108
f 152 107 105
f 151 108 110
f 152 109 107
f 151 110 112
f 152 111 109
f 151 112 114
f 152 113 111
f 151 114 116
f 152 115 113
f 151 116 118
f 152 117 115
f 151 118 120
f 152 119 117
f 151 120 122
f 152 121 119
f 151 122 124
f 152 123 121
f 151 124 126
f 152 125 123
f 151 126 128
f 152 127 125
f 151 128 130
f 152 129 127
f 151 130 132
f 152 131 129
f 151 132 134
f 152 133 131
f 151 134 136
f 152 135 133
f 151 136 138
f 152 137 135
f 151 138 140
f 152 139 137
f 151 140 142
f 152 141 139
f 151 142 144
f 152 143 141
f 151 144 146
f 152 145 143
f 151 146 148
f 152 147 145
f 151 148 150
f 152 149 147
f 151 150 92
f 152 91 149
