# 열쇠꾸러미 — 블록아웃 (예산 300 tris)
# 삼각형 248 · 조각 1
# 생성: tools/blockout — 손으로 고치지 말 것, 생성기를 고칠 것
g keyRing
v 0.0300 -0.0030 0.0000
v 0.0300 0.0030 0.0000
v 0.0270 -0.0030 0.0130
v 0.0270 0.0030 0.0130
v 0.0187 -0.0030 0.0235
v 0.0187 0.0030 0.0235
v 0.0067 -0.0030 0.0292
v 0.0067 0.0030 0.0292
v -0.0067 -0.0030 0.0292
v -0.0067 0.0030 0.0292
v -0.0187 -0.0030 0.0235
v -0.0187 0.0030 0.0235
v -0.0270 -0.0030 0.0130
v -0.0270 0.0030 0.0130
v -0.0300 -0.0030 0.0000
v -0.0300 0.0030 0.0000
v -0.0270 -0.0030 -0.0130
v -0.0270 0.0030 -0.0130
v -0.0187 -0.0030 -0.0235
v -0.0187 0.0030 -0.0235
v -0.0067 -0.0030 -0.0292
v -0.0067 0.0030 -0.0292
v 0.0067 -0.0030 -0.0292
v 0.0067 0.0030 -0.0292
v 0.0187 -0.0030 -0.0235
v 0.0187 0.0030 -0.0235
v 0.0270 -0.0030 -0.0130
v 0.0270 0.0030 -0.0130
v 0.0000 0.0030 0.0000
v 0.0000 -0.0030 0.0000
v 0.0140 -0.0550 0.0015
v 0.0140 -0.0425 0.0015
v 0.0140 -0.0300 0.0015
v 0.0140 -0.0175 0.0015
v 0.0140 -0.0050 0.0015
v 0.0170 -0.0550 0.0015
v 0.0170 -0.0425 0.0015
v 0.0170 -0.0300 0.0015
v 0.0170 -0.0175 0.0015
v 0.0170 -0.0050 0.0015
v 0.0200 -0.0550 0.0015
v 0.0200 -0.0425 0.0015
v 0.0200 -0.0300 0.0015
v 0.0200 -0.0175 0.0015
v 0.0200 -0.0050 0.0015
v 0.0230 -0.0550 0.0015
v 0.0230 -0.0425 0.0015
v 0.0230 -0.0300 0.0015
v 0.0230 -0.0175 0.0015
v 0.0230 -0.0050 0.0015
v 0.0260 -0.0550 0.0015
v 0.0260 -0.0425 0.0015
v 0.0260 -0.0300 0.0015
v 0.0260 -0.0175 0.0015
v 0.0260 -0.0050 0.0015
v 0.0260 -0.0550 -0.0015
v 0.0260 -0.0425 -0.0015
v 0.0260 -0.0300 -0.0015
v 0.0260 -0.0175 -0.0015
v 0.0260 -0.0050 -0.0015
v 0.0230 -0.0550 -0.0015
v 0.0230 -0.0425 -0.0015
v 0.0230 -0.0300 -0.0015
v 0.0230 -0.0175 -0.0015
v 0.0230 -0.0050 -0.0015
v 0.0200 -0.0550 -0.0015
v 0.0200 -0.0425 -0.0015
v 0.0200 -0.0300 -0.0015
v 0.0200 -0.0175 -0.0015
v 0.0200 -0.0050 -0.0015
v 0.0170 -0.0550 -0.0015
v 0.0170 -0.0425 -0.0015
v 0.0170 -0.0300 -0.0015
v 0.0170 -0.0175 -0.0015
v 0.0170 -0.0050 -0.0015
v 0.0140 -0.0550 -0.0015
v 0.0140 -0.0425 -0.0015
v 0.0140 -0.0300 -0.0015
v 0.0140 -0.0175 -0.0015
v 0.0140 -0.0050 -0.0015
v 0.0140 -0.0550 -0.0015
v 0.0140 -0.0425 -0.0015
v 0.0140 -0.0300 -0.0015
v 0.0140 -0.0175 -0.0015
v 0.0140 -0.0050 -0.0015
v 0.0140 -0.0550 -0.0008
v 0.0140 -0.0425 -0.0008
v 0.0140 -0.0300 -0.0008
v 0.0140 -0.0175 -0.0008
v 0.0140 -0.0050 -0.0008
v 0.0140 -0.0550 0.0000
v 0.0140 -0.0425 0.0000
v 0.0140 -0.0300 0.0000
v 0.0140 -0.0175 0.0000
v 0.0140 -0.0050 0.0000
v 0.0140 -0.0550 0.0008
v 0.0140 -0.0425 0.0008
v 0.0140 -0.0300 0.0008
v 0.0140 -0.0175 0.0008
v 0.0140 -0.0050 0.0008
v 0.0140 -0.0550 0.0015
v 0.0140 -0.0425 0.0015
v 0.0140 -0.0300 0.0015
v 0.0140 -0.0175 0.0015
v 0.0140 -0.0050 0.0015
v 0.0260 -0.0550 0.0015
v 0.0260 -0.0425 0.0015
v 0.0260 -0.0300 0.0015
v 0.0260 -0.0175 0.0015
v 0.0260 -0.0050 0.0015
v 0.0260 -0.0550 0.0008
v 0.0260 -0.0425 0.0008
v 0.0260 -0.0300 0.0008
v 0.0260 -0.0175 0.0008
v 0.0260 -0.0050 0.0008
v 0.0260 -0.0550 0.0000
v 0.0260 -0.0425 0.0000
v 0.0260 -0.0300 0.0000
v 0.0260 -0.0175 0.0000
v 0.0260 -0.0050 0.0000
v 0.0260 -0.0550 -0.0008
v 0.0260 -0.0425 -0.0008
v 0.0260 -0.0300 -0.0008
v 0.0260 -0.0175 -0.0008
v 0.0260 -0.0050 -0.0008
v 0.0260 -0.0550 -0.0015
v 0.0260 -0.0425 -0.0015
v 0.0260 -0.0300 -0.0015
v 0.0260 -0.0175 -0.0015
v 0.0260 -0.0050 -0.0015
v 0.0140 -0.0050 -0.0015
v 0.0140 -0.0050 -0.0008
v 0.0140 -0.0050 0.0000
v 0.0140 -0.0050 0.0008
v 0.0140 -0.0050 0.0015
v 0.0170 -0.0050 -0.0015
v 0.0170 -0.0050 -0.0008
v 0.0170 -0.0050 0.0000
v 0.0170 -0.0050 0.0008
v 0.0170 -0.0050 0.0015
v 0.0200 -0.0050 -0.0015
v 0.0200 -0.0050 -0.0008
v 0.0200 -0.0050 0.0000
v 0.0200 -0.0050 0.0008
v 0.0200 -0.0050 0.0015
v 0.0230 -0.0050 -0.0015
v 0.0230 -0.0050 -0.0008
v 0.0230 -0.0050 0.0000
v 0.0230 -0.0050 0.0008
v 0.0230 -0.0050 0.0015
v 0.0260 -0.0050 -0.0015
v 0.0260 -0.0050 -0.0008
v 0.0260 -0.0050 0.0000
v 0.0260 -0.0050 0.0008
v 0.0260 -0.0050 0.0015
v 0.0140 -0.0550 0.0015
v 0.0140 -0.0550 0.0008
v 0.0140 -0.0550 0.0000
v 0.0140 -0.0550 -0.0008
v 0.0140 -0.0550 -0.0015
v 0.0170 -0.0550 0.0015
v 0.0170 -0.0550 0.0008
v 0.0170 -0.0550 0.0000
v 0.0170 -0.0550 -0.0008
v 0.0170 -0.0550 -0.0015
v 0.0200 -0.0550 0.0015
v 0.0200 -0.0550 0.0008
v 0.0200 -0.0550 0.0000
v 0.0200 -0.0550 -0.0008
v 0.0200 -0.0550 -0.0015
v 0.0230 -0.0550 0.0015
v 0.0230 -0.0550 0.0008
v 0.0230 -0.0550 0.0000
v 0.0230 -0.0550 -0.0008
v 0.0230 -0.0550 -0.0015
v 0.0260 -0.0550 0.0015
v 0.0260 -0.0550 0.0008
v 0.0260 -0.0550 0.0000
v 0.0260 -0.0550 -0.0008
v 0.0260 -0.0550 -0.0015
f 1 3 4
f 1 4 2
f 3 5 6
f 3 6 4
f 5 7 8
f 5 8 6
f 7 9 10
f 7 10 8
f 9 11 12
f 9 12 10
f 11 13 14
f 11 14 12
f 13 15 16
f 13 16 14
f 15 17 18
f 15 18 16
f 17 19 20
f 17 20 18
f 19 21 22
f 19 22 20
f 21 23 24
f 21 24 22
f 23 25 26
f 23 26 24
f 25 27 28
f 25 28 26
f 27 1 2
f 27 2 28
f 29 2 4
f 30 3 1
f 29 4 6
f 30 5 3
f 29 6 8
f 30 7 5
f 29 8 10
f 30 9 7
f 29 10 12
f 30 11 9
f 29 12 14
f 30 13 11
f 29 14 16
f 30 15 13
f 29 16 18
f 30 17 15
f 29 18 20
f 30 19 17
f 29 20 22
f 30 21 19
f 29 22 24
f 30 23 21
f 29 24 26
f 30 25 23
f 29 26 28
f 30 27 25
f 29 28 2
f 30 1 27
f 31 32 37
f 31 37 36
f 32 33 38
f 32 38 37
f 33 34 39
f 33 39 38
f 34 35 40
f 34 40 39
f 36 37 42
f 36 42 41
f 37 38 43
f 37 43 42
f 38 39 44
f 38 44 43
f 39 40 45
f 39 45 44
f 41 42 47
f 41 47 46
f 42 43 48
f 42 48 47
f 43 44 49
f 43 49 48
f 44 45 50
f 44 50 49
f 46 47 52
f 46 52 51
f 47 48 53
f 47 53 52
f 48 49 54
f 48 54 53
f 49 50 55
f 49 55 54
f 56 57 62
f 56 62 61
f 57 58 63
f 57 63 62
f 58 59 64
f 58 64 63
f 59 60 65
f 59 65 64
f 61 62 67
f 61 67 66
f 62 63 68
f 62 68 67
f 63 64 69
f 63 69 68
f 64 65 70
f 64 70 69
f 66 67 72
f 66 72 71
f 67 68 73
f 67 73 72
f 68 69 74
f 68 74 73
f 69 70 75
f 69 75 74
f 71 72 77
f 71 77 76
f 72 73 78
f 72 78 77
f 73 74 79
f 73 79 78
f 74 75 80
f 74 80 79
f 81 82 87
f 81 87 86
f 82 83 88
f 82 88 87
f 83 84 89
f 83 89 88
f 84 85 90
f 84 90 89
f 86 87 92
f 86 92 91
f 87 88 93
f 87 93 92
f 88 89 94
f 88 94 93
f 89 90 95
f 89 95 94
f 91 92 97
f 91 97 96
f 92 93 98
f 92 98 97
f 93 94 99
f 93 99 98
f 94 95 100
f 94 100 99
f 96 97 102
f 96 102 101
f 97 98 103
f 97 103 102
f 98 99 104
f 98 104 103
f 99 100 105
f 99 105 104
f 106 107 112
f 106 112 111
f 107 108 113
f 107 113 112
f 108 109 114
f 108 114 113
f 109 110 115
f 109 115 114
f 111 112 117
f 111 117 116
f 112 113 118
f 112 118 117
f 113 114 119
f 113 119 118
f 114 115 120
f 114 120 119
f 116 117 122
f 116 122 121
f 117 118 123
f 117 123 122
f 118 119 124
f 118 124 123
f 119 120 125
f 119 125 124
f 121 122 127
f 121 127 126
f 122 123 128
f 122 128 127
f 123 124 129
f 123 129 128
f 124 125 130
f 124 130 129
f 131 132 137
f 131 137 136
f 132 133 138
f 132 138 137
f 133 134 139
f 133 139 138
f 134 135 140
f 134 140 139
f 136 137 142
f 136 142 141
f 137 138 143
f 137 143 142
f 138 139 144
f 138 144 143
f 139 140 145
f 139 145 144
f 141 142 147
f 141 147 146
f 142 143 148
f 142 148 147
f 143 144 149
f 143 149 148
f 144 145 150
f 144 150 149
f 146 147 152
f 146 152 151
f 147 148 153
f 147 153 152
f 148 149 154
f 148 154 153
f 149 150 155
f 149 155 154
f 156 157 162
f 156 162 161
f 157 158 163
f 157 163 162
f 158 159 164
f 158 164 163
f 159 160 165
f 159 165 164
f 161 162 167
f 161 167 166
f 162 163 168
f 162 168 167
f 163 164 169
f 163 169 168
f 164 165 170
f 164 170 169
f 166 167 172
f 166 172 171
f 167 168 173
f 167 173 172
f 168 169 174
f 168 174 173
f 169 170 175
f 169 175 174
f 171 172 177
f 171 177 176
f 172 173 178
f 172 178 177
f 173 174 179
f 173 179 178
f 174 175 180
f 174 180 179
