# 필기구통 — 블록아웃 (예산 300 tris)
# 삼각형 296 · 조각 1
# 생성: tools/blockout — 손으로 고치지 말 것, 생성기를 고칠 것
g penHolder
v 0.0400 -0.0550 0.0000
v 0.0400 0.0550 0.0000
v 0.0399 -0.0550 0.0034
v 0.0399 0.0550 0.0034
v 0.0394 -0.0550 0.0068
v 0.0394 0.0550 0.0068
v 0.0387 -0.0550 0.0101
v 0.0387 0.0550 0.0101
v 0.0377 -0.0550 0.0133
v 0.0377 0.0550 0.0133
v 0.0364 -0.0550 0.0165
v 0.0364 0.0550 0.0165
v 0.0349 -0.0550 0.0195
v 0.0349 0.0550 0.0195
v 0.0331 -0.0550 0.0224
v 0.0331 0.0550 0.0224
v 0.0311 -0.0550 0.0251
v 0.0311 0.0550 0.0251
v 0.0289 -0.0550 0.0277
v 0.0289 0.0550 0.0277
v 0.0264 -0.0550 0.0300
v 0.0264 0.0550 0.0300
v 0.0238 -0.0550 0.0322
v 0.0238 0.0550 0.0322
v 0.0210 -0.0550 0.0341
v 0.0210 0.0550 0.0341
v 0.0180 -0.0550 0.0357
v 0.0180 0.0550 0.0357
v 0.0149 -0.0550 0.0371
v 0.0149 0.0550 0.0371
v 0.0117 -0.0550 0.0382
v 0.0117 0.0550 0.0382
v 0.0084 -0.0550 0.0391
v 0.0084 0.0550 0.0391
v 0.0051 -0.0550 0.0397
v 0.0051 0.0550 0.0397
v 0.0017 -0.0550 0.0400
v 0.0017 0.0550 0.0400
v -0.0017 -0.0550 0.0400
v -0.0017 0.0550 0.0400
v -0.0051 -0.0550 0.0397
v -0.0051 0.0550 0.0397
v -0.0084 -0.0550 0.0391
v -0.0084 0.0550 0.0391
v -0.0117 -0.0550 0.0382
v -0.0117 0.0550 0.0382
v -0.0149 -0.0550 0.0371
v -0.0149 0.0550 0.0371
v -0.0180 -0.0550 0.0357
v -0.0180 0.0550 0.0357
v -0.0210 -0.0550 0.0341
v -0.0210 0.0550 0.0341
v -0.0238 -0.0550 0.0322
v -0.0238 0.0550 0.0322
v -0.0264 -0.0550 0.0300
v -0.0264 0.0550 0.0300
v -0.0289 -0.0550 0.0277
v -0.0289 0.0550 0.0277
v -0.0311 -0.0550 0.0251
v -0.0311 0.0550 0.0251
v -0.0331 -0.0550 0.0224
v -0.0331 0.0550 0.0224
v -0.0349 -0.0550 0.0195
v -0.0349 0.0550 0.0195
v -0.0364 -0.0550 0.0165
v -0.0364 0.0550 0.0165
v -0.0377 -0.0550 0.0133
v -0.0377 0.0550 0.0133
v -0.0387 -0.0550 0.0101
v -0.0387 0.0550 0.0101
v -0.0394 -0.0550 0.0068
v -0.0394 0.0550 0.0068
v -0.0399 -0.0550 0.0034
v -0.0399 0.0550 0.0034
v -0.0400 -0.0550 0.0000
v -0.0400 0.0550 0.0000
v -0.0399 -0.0550 -0.0034
v -0.0399 0.0550 -0.0034
v -0.0394 -0.0550 -0.0068
v -0.0394 0.0550 -0.0068
v -0.0387 -0.0550 -0.0101
v -0.0387 0.0550 -0.0101
v -0.0377 -0.0550 -0.0133
v -0.0377 0.0550 -0.0133
v -0.0364 -0.0550 -0.0165
v -0.0364 0.0550 -0.0165
v -0.0349 -0.0550 -0.0195
v -0.0349 0.0550 -0.0195
v -0.0331 -0.0550 -0.0224
v -0.0331 0.0550 -0.0224
v -0.0311 -0.0550 -0.0251
v -0.0311 0.0550 -0.0251
v -0.0289 -0.0550 -0.0277
v -0.0289 0.0550 -0.0277
v -0.0264 -0.0550 -0.0300
v -0.0264 0.0550 -0.0300
v -0.0238 -0.0550 -0.0322
v -0.0238 0.0550 -0.0322
v -0.0210 -0.0550 -0.0341
v -0.0210 0.0550 -0.0341
v -0.0180 -0.0550 -0.0357
v -0.0180 0.0550 -0.0357
v -0.0149 -0.0550 -0.0371
v -0.0149 0.0550 -0.0371
v -0.0117 -0.0550 -0.0382
v -0.0117 0.0550 -0.0382
v -0.0084 -0.0550 -0.0391
v -0.0084 0.0550 -0.0391
v -0.0051 -0.0550 -0.0397
v -0.0051 0.0550 -0.0397
v -0.0017 -0.0550 -0.0400
v -0.0017 0.0550 -0.0400
v 0.0017 -0.0550 -0.0400
v 0.0017 0.0550 -0.0400
v 0.0051 -0.0550 -0.0397
v 0.0051 0.0550 -0.0397
v 0.0084 -0.0550 -0.0391
v 0.0084 0.0550 -0.0391
v 0.0117 -0.0550 -0.0382
v 0.0117 0.0550 -0.0382
v 0.0149 -0.0550 -0.0371
v 0.0149 0.0550 -0.0371
v 0.0180 -0.0550 -0.0357
v 0.0180 0.0550 -0.0357
v 0.0210 -0.0550 -0.0341
v 0.0210 0.0550 -0.0341
v 0.0238 -0.0550 -0.0322
v 0.0238 0.0550 -0.0322
v 0.0264 -0.0550 -0.0300
v 0.0264 0.0550 -0.0300
v 0.0289 -0.0550 -0.0277
v 0.0289 0.0550 -0.0277
v 0.0311 -0.0550 -0.0251
v 0.0311 0.0550 -0.0251
v 0.0331 -0.0550 -0.0224
v 0.0331 0.0550 -0.0224
v 0.0349 -0.0550 -0.0195
v 0.0349 0.0550 -0.0195
v 0.0364 -0.0550 -0.0165
v 0.0364 0.0550 -0.0165
v 0.0377 -0.0550 -0.0133
v 0.0377 0.0550 -0.0133
v 0.0387 -0.0550 -0.0101
v 0.0387 0.0550 -0.0101
v 0.0394 -0.0550 -0.0068
v 0.0394 0.0550 -0.0068
v 0.0399 -0.0550 -0.0034
v 0.0399 0.0550 -0.0034
v 0.0000 0.0550 0.0000
v 0.0000 -0.0550 0.0000
f 1 3 4
f 1 4 2
f 3 5 6
f 3 6 4
f 5 7 8
f 5 8 6
f 7 9 10
f 7 10 8
f 9 11 12
f 9 12 10
f 11 13 14
f 11 14 12
f 13 15 16
f 13 16 14
f 15 17 18
f 15 18 16
f 17 19 20
f 17 20 18
f 19 21 22
f 19 22 20
f 21 23 24
f 21 24 22
f 23 25 26
f 23 26 24
f 25 27 28
f 25 28 26
f 27 29 30
f 27 30 28
f 29 31 32
f 29 32 30
f 31 33 34
f 31 34 32
f 33 35 36
f 33 36 34
f 35 37 38
f 35 38 36
f 37 39 40
f 37 40 38
f 39 41 42
f 39 42 40
f 41 43 44
f 41 44 42
f 43 45 46
f 43 46 44
f 45 47 48
f 45 48 46
f 47 49 50
f 47 50 48
f 49 51 52
f 49 52 50
f 51 53 54
f 51 54 52
f 53 55 56
f 53 56 54
f 55 57 58
f 55 58 56
f 57 59 60
f 57 60 58
f 59 61 62
f 59 62 60
f 61 63 64
f 61 64 62
f 63 65 66
f 63 66 64
f 65 67 68
f 65 68 66
f 67 69 70
f 67 70 68
f 69 71 72
f 69 72 70
f 71 73 74
f 71 74 72
f 73 75 76
f 73 76 74
f 75 77 78
f 75 78 76
f 77 79 80
f 77 80 78
f 79 81 82
f 79 82 80
f 81 83 84
f 81 84 82
f 83 85 86
f 83 86 84
f 85 87 88
f 85 88 86
f 87 89 90
f 87 90 88
f 89 91 92
f 89 92 90
f 91 93 94
f 91 94 92
f 93 95 96
f 93 96 94
f 95 97 98
f 95 98 96
f 97 99 100
f 97 100 98
f 99 101 102
f 99 102 100
f 101 103 104
f 101 104 102
f 103 105 106
f 103 106 104
f 105 107 108
f 105 108 106
f 107 109 110
f 107 110 108
f 109 111 112
f 109 112 110
f 111 113 114
f 111 114 112
f 113 115 116
f 113 116 114
f 115 117 118
f 115 118 116
f 117 119 120
f 117 120 118
f 119 121 122
f 119 122 120
f 121 123 124
f 121 124 122
f 123 125 126
f 123 126 124
f 125 127 128
f 125 128 126
f 127 129 130
f 127 130 128
f 129 131 132
f 129 132 130
f 131 133 134
f 131 134 132
f 133 135 136
f 133 136 134
f 135 137 138
f 135 138 136
f 137 139 140
f 137 140 138
f 139 141 142
f 139 142 140
f 141 143 144
f 141 144 142
f 143 145 146
f 143 146 144
f 145 147 148
f 145 148 146
f 147 1 2
f 147 2 148
f 149 2 4
f 150 3 1
f 149 4 6
f 150 5 3
f 149 6 8
f 150 7 5
f 149 8 10
f 150 9 7
f 149 10 12
f 150 11 9
f 149 12 14
f 150 13 11
f 149 14 16
f 150 15 13
f 149 16 18
f 150 17 15
f 149 18 20
f 150 19 17
f 149 20 22
f 150 21 19
f 149 22 24
f 150 23 21
f 149 24 26
f 150 25 23
f 149 26 28
f 150 27 25
f 149 28 30
f 150 29 27
f 149 30 32
f 150 31 29
f 149 32 34
f 150 33 31
f 149 34 36
f 150 35 33
f 149 36 38
f 150 37 35
f 149 38 40
f 150 39 37
f 149 40 42
f 150 41 39
f 149 42 44
f 150 43 41
f 149 44 46
f 150 45 43
f 149 46 48
f 150 47 45
f 149 48 50
f 150 49 47
f 149 50 52
f 150 51 49
f 149 52 54
f 150 53 51
f 149 54 56
f 150 55 53
f 149 56 58
f 150 57 55
f 149 58 60
f 150 59 57
f 149 60 62
f 150 61 59
f 149 62 64
f 150 63 61
f 149 64 66
f 150 65 63
f 149 66 68
f 150 67 65
f 149 68 70
f 150 69 67
f 149 70 72
f 150 71 69
f 149 72 74
f 150 73 71
f 149 74 76
f 150 75 73
f 149 76 78
f 150 77 75
f 149 78 80
f 150 79 77
f 149 80 82
f 150 81 79
f 149 82 84
f 150 83 81
f 149 84 86
f 150 85 83
f 149 86 88
f 150 87 85
f 149 88 90
f 150 89 87
f 149 90 92
f 150 91 89
f 149 92 94
f 150 93 91
f 149 94 96
f 150 95 93
f 149 96 98
f 150 97 95
f 149 98 100
f 150 99 97
f 149 100 102
f 150 101 99
f 149 102 104
f 150 103 101
f 149 104 106
f 150 105 103
f 149 106 108
f 150 107 105
f 149 108 110
f 150 109 107
f 149 110 112
f 150 111 109
f 149 112 114
f 150 113 111
f 149 114 116
f 150 115 113
f 149 116 118
f 150 117 115
f 149 118 120
f 150 119 117
f 149 120 122
f 150 121 119
f 149 122 124
f 150 123 121
f 149 124 126
f 150 125 123
f 149 126 128
f 150 127 125
f 149 128 130
f 150 129 127
f 149 130 132
f 150 131 129
f 149 132 134
f 150 133 131
f 149 134 136
f 150 135 133
f 149 136 138
f 150 137 135
f 149 138 140
f 150 139 137
f 149 140 142
f 150 141 139
f 149 142 144
f 150 143 141
f 149 144 146
f 150 145 143
f 149 146 148
f 150 147 145
f 149 148 2
f 150 1 147
