# 걸레 — 블록아웃 (예산 300 tris)
# 삼각형 300 · 조각 1
# 생성: tools/blockout — 손으로 고치지 말 것, 생성기를 고칠 것
g rag
v -0.1250 -0.0100 0.1000
v -0.1250 -0.0060 0.1000
v -0.1250 -0.0020 0.1000
v -0.1250 0.0020 0.1000
v -0.1250 0.0060 0.1000
v -0.1250 0.0100 0.1000
v -0.0750 -0.0100 0.1000
v -0.0750 -0.0060 0.1000
v -0.0750 -0.0020 0.1000
v -0.0750 0.0020 0.1000
v -0.0750 0.0060 0.1000
v -0.0750 0.0100 0.1000
v -0.0250 -0.0100 0.1000
v -0.0250 -0.0060 0.1000
v -0.0250 -0.0020 0.1000
v -0.0250 0.0020 0.1000
v -0.0250 0.0060 0.1000
v -0.0250 0.0100 0.1000
v 0.0250 -0.0100 0.1000
v 0.0250 -0.0060 0.1000
v 0.0250 -0.0020 0.1000
v 0.0250 0.0020 0.1000
v 0.0250 0.0060 0.1000
v 0.0250 0.0100 0.1000
v 0.0750 -0.0100 0.1000
v 0.0750 -0.0060 0.1000
v 0.0750 -0.0020 0.1000
v 0.0750 0.0020 0.1000
v 0.0750 0.0060 0.1000
v 0.0750 0.0100 0.1000
v 0.1250 -0.0100 0.1000
v 0.1250 -0.0060 0.1000
v 0.1250 -0.0020 0.1000
v 0.1250 0.0020 0.1000
v 0.1250 0.0060 0.1000
v 0.1250 0.0100 0.1000
v 0.1250 -0.0100 -0.1000
v 0.1250 -0.0060 -0.1000
v 0.1250 -0.0020 -0.1000
v 0.1250 0.0020 -0.1000
v 0.1250 0.0060 -0.1000
v 0.1250 0.0100 -0.1000
v 0.0750 -0.0100 -0.1000
v 0.0750 -0.0060 -0.1000
v 0.0750 -0.0020 -0.1000
v 0.0750 0.0020 -0.1000
v 0.0750 0.0060 -0.1000
v 0.0750 0.0100 -0.1000
v 0.0250 -0.0100 -0.1000
v 0.0250 -0.0060 -0.1000
v 0.0250 -0.0020 -0.1000
v 0.0250 0.0020 -0.1000
v 0.0250 0.0060 -0.1000
v 0.0250 0.0100 -0.1000
v -0.0250 -0.0100 -0.1000
v -0.0250 -0.0060 -0.1000
v -0.0250 -0.0020 -0.1000
v -0.0250 0.0020 -0.1000
v -0.0250 0.0060 -0.1000
v -0.0250 0.0100 -0.1000
v -0.0750 -0.0100 -0.1000
v -0.0750 -0.0060 -0.1000
v -0.0750 -0.0020 -0.1000
v -0.0750 0.0020 -0.1000
v -0.0750 0.0060 -0.1000
v -0.0750 0.0100 -0.1000
v -0.1250 -0.0100 -0.1000
v -0.1250 -0.0060 -0.1000
v -0.1250 -0.0020 -0.1000
v -0.1250 0.0020 -0.1000
v -0.1250 0.0060 -0.1000
v -0.1250 0.0100 -0.1000
v -0.1250 -0.0100 -0.1000
v -0.1250 -0.0060 -0.1000
v -0.1250 -0.0020 -0.1000
v -0.1250 0.0020 -0.1000
v -0.1250 0.0060 -0.1000
v -0.1250 0.0100 -0.1000
v -0.1250 -0.0100 -0.0600
v -0.1250 -0.0060 -0.0600
v -0.1250 -0.0020 -0.0600
v -0.1250 0.0020 -0.0600
v -0.1250 0.0060 -0.0600
v -0.1250 0.0100 -0.0600
v -0.1250 -0.0100 -0.0200
v -0.1250 -0.0060 -0.0200
v -0.1250 -0.0020 -0.0200
v -0.1250 0.0020 -0.0200
v -0.1250 0.0060 -0.0200
v -0.1250 0.0100 -0.0200
v -0.1250 -0.0100 0.0200
v -0.1250 -0.0060 0.0200
v -0.1250 -0.0020 0.0200
v -0.1250 0.0020 0.0200
v -0.1250 0.0060 0.0200
v -0.1250 0.0100 0.0200
v -0.1250 -0.0100 0.0600
v -0.1250 -0.0060 0.0600
v -0.1250 -0.0020 0.0600
v -0.1250 0.0020 0.0600
v -0.1250 0.0060 0.0600
v -0.1250 0.0100 0.0600
v -0.1250 -0.0100 0.1000
v -0.1250 -0.0060 0.1000
v -0.1250 -0.0020 0.1000
v -0.1250 0.0020 0.1000
v -0.1250 0.0060 0.1000
v -0.1250 0.0100 0.1000
v 0.1250 -0.0100 0.1000
v 0.1250 -0.0060 0.1000
v 0.1250 -0.0020 0.1000
v 0.1250 0.0020 0.1000
v 0.1250 0.0060 0.1000
v 0.1250 0.0100 0.1000
v 0.1250 -0.0100 0.0600
v 0.1250 -0.0060 0.0600
v 0.1250 -0.0020 0.0600
v 0.1250 0.0020 0.0600
v 0.1250 0.0060 0.0600
v 0.1250 0.0100 0.0600
v 0.1250 -0.0100 0.0200
v 0.1250 -0.0060 0.0200
v 0.1250 -0.0020 0.0200
v 0.1250 0.0020 0.0200
v 0.1250 0.0060 0.0200
v 0.1250 0.0100 0.0200
v 0.1250 -0.0100 -0.0200
v 0.1250 -0.0060 -0.0200
v 0.1250 -0.0020 -0.0200
v 0.1250 0.0020 -0.0200
v 0.1250 0.0060 -0.0200
v 0.1250 0.0100 -0.0200
v 0.1250 -0.0100 -0.0600
v 0.1250 -0.0060 -0.0600
v 0.1250 -0.0020 -0.0600
v 0.1250 0.0020 -0.0600
v 0.1250 0.0060 -0.0600
v 0.1250 0.0100 -0.0600
v 0.1250 -0.0100 -0.1000
v 0.1250 -0.0060 -0.1000
v 0.1250 -0.0020 -0.1000
v 0.1250 0.0020 -0.1000
v 0.1250 0.0060 -0.1000
v 0.1250 0.0100 -0.1000
v -0.1250 0.0100 -0.1000
v -0.1250 0.0100 -0.0600
v -0.1250 0.0100 -0.0200
v -0.1250 0.0100 0.0200
v -0.1250 0.0100 0.0600
v -0.1250 0.0100 0.1000
v -0.0750 0.0100 -0.1000
v -0.0750 0.0100 -0.0600
v -0.0750 0.0100 -0.0200
v -0.0750 0.0100 0.0200
v -0.0750 0.0100 0.0600
v -0.0750 0.0100 0.1000
v -0.0250 0.0100 -0.1000
v -0.0250 0.0100 -0.0600
v -0.0250 0.0100 -0.0200
v -0.0250 0.0100 0.0200
v -0.0250 0.0100 0.0600
v -0.0250 0.0100 0.1000
v 0.0250 0.0100 -0.1000
v 0.0250 0.0100 -0.0600
v 0.0250 0.0100 -0.0200
v 0.0250 0.0100 0.0200
v 0.0250 0.0100 0.0600
v 0.0250 0.0100 0.1000
v 0.0750 0.0100 -0.1000
v 0.0750 0.0100 -0.0600
v 0.0750 0.0100 -0.0200
v 0.0750 0.0100 0.0200
v 0.0750 0.0100 0.0600
v 0.0750 0.0100 0.1000
v 0.1250 0.0100 -0.1000
v 0.1250 0.0100 -0.0600
v 0.1250 0.0100 -0.0200
v 0.1250 0.0100 0.0200
v 0.1250 0.0100 0.0600
v 0.1250 0.0100 0.1000
v -0.1250 -0.0100 0.1000
v -0.1250 -0.0100 0.0600
v -0.1250 -0.0100 0.0200
v -0.1250 -0.0100 -0.0200
v -0.1250 -0.0100 -0.0600
v -0.1250 -0.0100 -0.1000
v -0.0750 -0.0100 0.1000
v -0.0750 -0.0100 0.0600
v -0.0750 -0.0100 0.0200
v -0.0750 -0.0100 -0.0200
v -0.0750 -0.0100 -0.0600
v -0.0750 -0.0100 -0.1000
v -0.0250 -0.0100 0.1000
v -0.0250 -0.0100 0.0600
v -0.0250 -0.0100 0.0200
v -0.0250 -0.0100 -0.0200
v -0.0250 -0.0100 -0.0600
v -0.0250 -0.0100 -0.1000
v 0.0250 -0.0100 0.1000
v 0.0250 -0.0100 0.0600
v 0.0250 -0.0100 0.0200
v 0.0250 -0.0100 -0.0200
v 0.0250 -0.0100 -0.0600
v 0.0250 -0.0100 -0.1000
v 0.0750 -0.0100 0.1000
v 0.0750 -0.0100 0.0600
v 0.0750 -0.0100 0.0200
v 0.0750 -0.0100 -0.0200
v 0.0750 -0.0100 -0.0600
v 0.0750 -0.0100 -0.1000
v 0.1250 -0.0100 0.1000
v 0.1250 -0.0100 0.0600
v 0.1250 -0.0100 0.0200
v 0.1250 -0.0100 -0.0200
v 0.1250 -0.0100 -0.0600
v 0.1250 -0.0100 -0.1000
f 1 2 8
f 1 8 7
f 2 3 9
f 2 9 8
f 3 4 10
f 3 10 9
f 4 5 11
f 4 11 10
f 5 6 12
f 5 12 11
f 7 8 14
f 7 14 13
f 8 9 15
f 8 15 14
f 9 10 16
f 9 16 15
f 10 11 17
f 10 17 16
f 11 12 18
f 11 18 17
f 13 14 20
f 13 20 19
f 14 15 21
f 14 21 20
f 15 16 22
f 15 22 21
f 16 17 23
f 16 23 22
f 17 18 24
f 17 24 23
f 19 20 26
f 19 26 25
f 20 21 27
f 20 27 26
f 21 22 28
f 21 28 27
f 22 23 29
f 22 29 28
f 23 24 30
f 23 30 29
f 25 26 32
f 25 32 31
f 26 27 33
f 26 33 32
f 27 28 34
f 27 34 33
f 28 29 35
f 28 35 34
f 29 30 36
f 29 36 35
f 37 38 44
f 37 44 43
f 38 39 45
f 38 45 44
f 39 40 46
f 39 46 45
f 40 41 47
f 40 47 46
f 41 42 48
f 41 48 47
f 43 44 50
f 43 50 49
f 44 45 51
f 44 51 50
f 45 46 52
f 45 52 51
f 46 47 53
f 46 53 52
f 47 48 54
f 47 54 53
f 49 50 56
f 49 56 55
f 50 51 57
f 50 57 56
f 51 52 58
f 51 58 57
f 52 53 59
f 52 59 58
f 53 54 60
f 53 60 59
f 55 56 62
f 55 62 61
f 56 57 63
f 56 63 62
f 57 58 64
f 57 64 63
f 58 59 65
f 58 65 64
f 59 60 66
f 59 66 65
f 61 62 68
f 61 68 67
f 62 63 69
f 62 69 68
f 63 64 70
f 63 70 69
f 64 65 71
f 64 71 70
f 65 66 72
f 65 72 71
f 73 74 80
f 73 80 79
f 74 75 81
f 74 81 80
f 75 76 82
f 75 82 81
f 76 77 83
f 76 83 82
f 77 78 84
f 77 84 83
f 79 80 86
f 79 86 85
f 80 81 87
f 80 87 86
f 81 82 88
f 81 88 87
f 82 83 89
f 82 89 88
f 83 84 90
f 83 90 89
f 85 86 92
f 85 92 91
f 86 87 93
f 86 93 92
f 87 88 94
f 87 94 93
f 88 89 95
f 88 95 94
f 89 90 96
f 89 96 95
f 91 92 98
f 91 98 97
f 92 93 99
f 92 99 98
f 93 94 100
f 93 100 99
f 94 95 101
f 94 101 100
f 95 96 102
f 95 102 101
f 97 98 104
f 97 104 103
f 98 99 105
f 98 105 104
f 99 100 106
f 99 106 105
f 100 101 107
f 100 107 106
f 101 102 108
f 101 108 107
f 109 110 116
f 109 116 115
f 110 111 117
f 110 117 116
f 111 112 118
f 111 118 117
f 112 113 119
f 112 119 118
f 113 114 120
f 113 120 119
f 115 116 122
f 115 122 121
f 116 117 123
f 116 123 122
f 117 118 124
f 117 124 123
f 118 119 125
f 118 125 124
f 119 120 126
f 119 126 125
f 121 122 128
f 121 128 127
f 122 123 129
f 122 129 128
f 123 124 130
f 123 130 129
f 124 125 131
f 124 131 130
f 125 126 132
f 125 132 131
f 127 128 134
f 127 134 133
f 128 129 135
f 128 135 134
f 129 130 136
f 129 136 135
f 130 131 137
f 130 137 136
f 131 132 138
f 131 138 137
f 133 134 140
f 133 140 139
f 134 135 141
f 134 141 140
f 135 136 142
f 135 142 141
f 136 137 143
f 136 143 142
f 137 138 144
f 137 144 143
f 145 146 152
f 145 152 151
f 146 147 153
f 146 153 152
f 147 148 154
f 147 154 153
f 148 149 155
f 148 155 154
f 149 150 156
f 149 156 155
f 151 152 158
f 151 158 157
f 152 153 159
f 152 159 158
f 153 154 160
f 153 160 159
f 154 155 161
f 154 161 160
f 155 156 162
f 155 162 161
f 157 158 164
f 157 164 163
f 158 159 165
f 158 165 164
f 159 160 166
f 159 166 165
f 160 161 167
f 160 167 166
f 161 162 168
f 161 168 167
f 163 164 170
f 163 170 169
f 164 165 171
f 164 171 170
f 165 166 172
f 165 172 171
f 166 167 173
f 166 173 172
f 167 168 174
f 167 174 173
f 169 170 176
f 169 176 175
f 170 171 177
f 170 177 176
f 171 172 178
f 171 178 177
f 172 173 179
f 172 179 178
f 173 174 180
f 173 180 179
f 181 182 188
f 181 188 187
f 182 183 189
f 182 189 188
f 183 184 190
f 183 190 189
f 184 185 191
f 184 191 190
f 185 186 192
f 185 192 191
f 187 188 194
f 187 194 193
f 188 189 195
f 188 195 194
f 189 190 196
f 189 196 195
f 190 191 197
f 190 197 196
f 191 192 198
f 191 198 197
f 193 194 200
f 193 200 199
f 194 195 201
f 194 201 200
f 195 196 202
f 195 202 201
f 196 197 203
f 196 203 202
f 197 198 204
f 197 204 203
f 199 200 206
f 199 206 205
f 200 201 207
f 200 207 206
f 201 202 208
f 201 208 207
f 202 203 209
f 202 209 208
f 203 204 210
f 203 210 209
f 205 206 212
f 205 212 211
f 206 207 213
f 206 213 212
f 207 208 214
f 207 214 213
f 208 209 215
f 208 215 214
f 209 210 216
f 209 216 215
