# 삽 — 블록아웃 (예산 300 tris)
# 삼각형 220 · 조각 1
# 생성: tools/blockout — 손으로 고치지 말 것, 생성기를 고칠 것
g shovel
v 0.0160 0.0250 0.0000
v 0.0160 0.9750 0.0000
v 0.0000 0.0250 0.0160
v 0.0000 0.9750 0.0160
v -0.0160 0.0250 0.0000
v -0.0160 0.9750 0.0000
v -0.0000 0.0250 -0.0160
v -0.0000 0.9750 -0.0160
v 0.0000 0.9750 0.0000
v 0.0000 0.0250 0.0000
v -0.1000 -0.0900 0.0100
v -0.1000 -0.0300 0.0100
v -0.1000 0.0300 0.0100
v -0.1000 0.0900 0.0100
v -0.1000 0.1500 0.0100
v -0.0500 -0.0900 0.0100
v -0.0500 -0.0300 0.0100
v -0.0500 0.0300 0.0100
v -0.0500 0.0900 0.0100
v -0.0500 0.1500 0.0100
v 0.0000 -0.0900 0.0100
v 0.0000 -0.0300 0.0100
v 0.0000 0.0300 0.0100
v 0.0000 0.0900 0.0100
v 0.0000 0.1500 0.0100
v 0.0500 -0.0900 0.0100
v 0.0500 -0.0300 0.0100
v 0.0500 0.0300 0.0100
v 0.0500 0.0900 0.0100
v 0.0500 0.1500 0.0100
v 0.1000 -0.0900 0.0100
v 0.1000 -0.0300 0.0100
v 0.1000 0.0300 0.0100
v 0.1000 0.0900 0.0100
v 0.1000 0.1500 0.0100
v 0.1000 -0.0900 -0.0100
v 0.1000 -0.0300 -0.0100
v 0.1000 0.0300 -0.0100
v 0.1000 0.0900 -0.0100
v 0.1000 0.1500 -0.0100
v 0.0500 -0.0900 -0.0100
v 0.0500 -0.0300 -0.0100
v 0.0500 0.0300 -0.0100
v 0.0500 0.0900 -0.0100
v 0.0500 0.1500 -0.0100
v 0.0000 -0.0900 -0.0100
v 0.0000 -0.0300 -0.0100
v 0.0000 0.0300 -0.0100
v 0.0000 0.0900 -0.0100
v 0.0000 0.1500 -0.0100
v -0.0500 -0.0900 -0.0100
v -0.0500 -0.0300 -0.0100
v -0.0500 0.0300 -0.0100
v -0.0500 0.0900 -0.0100
v -0.0500 0.1500 -0.0100
v -0.1000 -0.0900 -0.0100
v -0.1000 -0.0300 -0.0100
v -0.1000 0.0300 -0.0100
v -0.1000 0.0900 -0.0100
v -0.1000 0.1500 -0.0100
v -0.1000 -0.0900 -0.0100
v -0.1000 -0.0300 -0.0100
v -0.1000 0.0300 -0.0100
v -0.1000 0.0900 -0.0100
v -0.1000 0.1500 -0.0100
v -0.1000 -0.0900 -0.0050
v -0.1000 -0.0300 -0.0050
v -0.1000 0.0300 -0.0050
v -0.1000 0.0900 -0.0050
v -0.1000 0.1500 -0.0050
v -0.1000 -0.0900 0.0000
v -0.1000 -0.0300 0.0000
v -0.1000 0.0300 0.0000
v -0.1000 0.0900 0.0000
v -0.1000 0.1500 0.0000
v -0.1000 -0.0900 0.0050
v -0.1000 -0.0300 0.0050
v -0.1000 0.0300 0.0050
v -0.1000 0.0900 0.0050
v -0.1000 0.1500 0.0050
v -0.1000 -0.0900 0.0100
v -0.1000 -0.0300 0.0100
v -0.1000 0.0300 0.0100
v -0.1000 0.0900 0.0100
v -0.1000 0.1500 0.0100
v 0.1000 -0.0900 0.0100
v 0.1000 -0.0300 0.0100
v 0.1000 0.0300 0.0100
v 0.1000 0.0900 0.0100
v 0.1000 0.1500 0.0100
v 0.1000 -0.0900 0.0050
v 0.1000 -0.0300 0.0050
v 0.1000 0.0300 0.0050
v 0.1000 0.0900 0.0050
v 0.1000 0.1500 0.0050
v 0.1000 -0.0900 0.0000
v 0.1000 -0.0300 0.0000
v 0.1000 0.0300 0.0000
v 0.1000 0.0900 0.0000
v 0.1000 0.1500 0.0000
v 0.1000 -0.0900 -0.0050
v 0.1000 -0.0300 -0.0050
v 0.1000 0.0300 -0.0050
v 0.1000 0.0900 -0.0050
v 0.1000 0.1500 -0.0050
v 0.1000 -0.0900 -0.0100
v 0.1000 -0.0300 -0.0100
v 0.1000 0.0300 -0.0100
v 0.1000 0.0900 -0.0100
v 0.1000 0.1500 -0.0100
v -0.1000 0.1500 -0.0100
v -0.1000 0.1500 -0.0050
v -0.1000 0.1500 0.0000
v -0.1000 0.1500 0.0050
v -0.1000 0.1500 0.0100
v -0.0500 0.1500 -0.0100
v -0.0500 0.1500 -0.0050
v -0.0500 0.1500 0.0000
v -0.0500 0.1500 0.0050
v -0.0500 0.1500 0.0100
v 0.0000 0.1500 -0.0100
v 0.0000 0.1500 -0.0050
v 0.0000 0.1500 0.0000
v 0.0000 0.1500 0.0050
v 0.0000 0.1500 0.0100
v 0.0500 0.1500 -0.0100
v 0.0500 0.1500 -0.0050
v 0.0500 0.1500 0.0000
v 0.0500 0.1500 0.0050
v 0.0500 0.1500 0.0100
v 0.1000 0.1500 -0.0100
v 0.1000 0.1500 -0.0050
v 0.1000 0.1500 0.0000
v 0.1000 0.1500 0.0050
v 0.1000 0.1500 0.0100
v -0.1000 -0.0900 0.0100
v -0.1000 -0.0900 0.0050
v -0.1000 -0.0900 0.0000
v -0.1000 -0.0900 -0.0050
v -0.1000 -0.0900 -0.0100
v -0.0500 -0.0900 0.0100
v -0.0500 -0.0900 0.0050
v -0.0500 -0.0900 0.0000
v -0.0500 -0.0900 -0.0050
v -0.0500 -0.0900 -0.0100
v 0.0000 -0.0900 0.0100
v 0.0000 -0.0900 0.0050
v 0.0000 -0.0900 0.0000
v 0.0000 -0.0900 -0.0050
v 0.0000 -0.0900 -0.0100
v 0.0500 -0.0900 0.0100
v 0.0500 -0.0900 0.0050
v 0.0500 -0.0900 0.0000
v 0.0500 -0.0900 -0.0050
v 0.0500 -0.0900 -0.0100
v 0.1000 -0.0900 0.0100
v 0.1000 -0.0900 0.0050
v 0.1000 -0.0900 0.0000
v 0.1000 -0.0900 -0.0050
v 0.1000 -0.0900 -0.0100
v -0.0550 0.9900 0.0150
v -0.0550 1.0100 0.0150
v 0.0550 0.9900 0.0150
v 0.0550 1.0100 0.0150
v 0.0550 0.9900 -0.0150
v 0.0550 1.0100 -0.0150
v -0.0550 0.9900 -0.0150
v -0.0550 1.0100 -0.0150
v -0.0550 0.9900 -0.0150
v -0.0550 1.0100 -0.0150
v -0.0550 0.9900 0.0150
v -0.0550 1.0100 0.0150
v 0.0550 0.9900 0.0150
v 0.0550 1.0100 0.0150
v 0.0550 0.9900 -0.0150
v 0.0550 1.0100 -0.0150
v -0.0550 1.0100 -0.0150
v -0.0550 1.0100 0.0150
v 0.0550 1.0100 -0.0150
v 0.0550 1.0100 0.0150
v -0.0550 0.9900 0.0150
v -0.0550 0.9900 -0.0150
v 0.0550 0.9900 0.0150
v 0.0550 0.9900 -0.0150
f 1 3 4
f 1 4 2
f 3 5 6
f 3 6 4
f 5 7 8
f 5 8 6
f 7 1 2
f 7 2 8
f 9 2 4
f 10 3 1
f 9 4 6
f 10 5 3
f 9 6 8
f 10 7 5
f 9 8 2
f 10 1 7
f 11 12 17
f 11 17 16
f 12 13 18
f 12 18 17
f 13 14 19
f 13 19 18
f 14 15 20
f 14 20 19
f 16 17 22
f 16 22 21
f 17 18 23
f 17 23 22
f 18 19 24
f 18 24 23
f 19 20 25
f 19 25 24
f 21 22 27
f 21 27 26
f 22 23 28
f 22 28 27
f 23 24 29
f 23 29 28
f 24 25 30
f 24 30 29
f 26 27 32
f 26 32 31
f 27 28 33
f 27 33 32
f 28 29 34
f 28 34 33
f 29 30 35
f 29 35 34
f 36 37 42
f 36 42 41
f 37 38 43
f 37 43 42
f 38 39 44
f 38 44 43
f 39 40 45
f 39 45 44
f 41 42 47
f 41 47 46
f 42 43 48
f 42 48 47
f 43 44 49
f 43 49 48
f 44 45 50
f 44 50 49
f 46 47 52
f 46 52 51
f 47 48 53
f 47 53 52
f 48 49 54
f 48 54 53
f 49 50 55
f 49 55 54
f 51 52 57
f 51 57 56
f 52 53 58
f 52 58 57
f 53 54 59
f 53 59 58
f 54 55 60
f 54 60 59
f 61 62 67
f 61 67 66
f 62 63 68
f 62 68 67
f 63 64 69
f 63 69 68
f 64 65 70
f 64 70 69
f 66 67 72
f 66 72 71
f 67 68 73
f 67 73 72
f 68 69 74
f 68 74 73
f 69 70 75
f 69 75 74
f 71 72 77
f 71 77 76
f 72 73 78
f 72 78 77
f 73 74 79
f 73 79 78
f 74 75 80
f 74 80 79
f 76 77 82
f 76 82 81
f 77 78 83
f 77 83 82
f 78 79 84
f 78 84 83
f 79 80 85
f 79 85 84
f 86 87 92
f 86 92 91
f 87 88 93
f 87 93 92
f 88 89 94
f 88 94 93
f 89 90 95
f 89 95 94
f 91 92 97
f 91 97 96
f 92 93 98
f 92 98 97
f 93 94 99
f 93 99 98
f 94 95 100
f 94 100 99
f 96 97 102
f 96 102 101
f 97 98 103
f 97 103 102
f 98 99 104
f 98 104 103
f 99 100 105
f 99 105 104
f 101 102 107
f 101 107 106
f 102 103 108
f 102 108 107
f 103 104 109
f 103 109 108
f 104 105 110
f 104 110 109
f 111 112 117
f 111 117 116
f 112 113 118
f 112 118 117
f 113 114 119
f 113 119 118
f 114 115 120
f 114 120 119
f 116 117 122
f 116 122 121
f 117 118 123
f 117 123 122
f 118 119 124
f 118 124 123
f 119 120 125
f 119 125 124
f 121 122 127
f 121 127 126
f 122 123 128
f 122 128 127
f 123 124 129
f 123 129 128
f 124 125 130
f 124 130 129
f 126 127 132
f 126 132 131
f 127 128 133
f 127 133 132
f 128 129 134
f 128 134 133
f 129 130 135
f 129 135 134
f 136 137 142
f 136 142 141
f 137 138 143
f 137 143 142
f 138 139 144
f 138 144 143
f 139 140 145
f 139 145 144
f 141 142 147
f 141 147 146
f 142 143 148
f 142 148 147
f 143 144 149
f 143 149 148
f 144 145 150
f 144 150 149
f 146 147 152
f 146 152 151
f 147 148 153
f 147 153 152
f 148 149 154
f 148 154 153
f 149 150 155
f 149 155 154
f 151 152 157
f 151 157 156
f 152 153 158
f 152 158 157
f 153 154 159
f 153 159 158
f 154 155 160
f 154 160 159
f 161 162 164
f 161 164 163
f 165 166 168
f 165 168 167
f 169 170 172
f 169 172 171
f 173 174 176
f 173 176 175
f 177 178 180
f 177 180 179
f 181 182 184
f 181 184 183
