# 체온계 — 블록아웃 (예산 300 tris)
# 삼각형 240 · 조각 1
# 생성: tools/blockout — 손으로 고치지 말 것, 생성기를 고칠 것
g thermometer
v -0.0090 -0.0650 0.0060
v -0.0090 -0.0325 0.0060
v -0.0090 0.0000 0.0060
v -0.0090 0.0325 0.0060
v -0.0090 0.0650 0.0060
v -0.0045 -0.0650 0.0060
v -0.0045 -0.0325 0.0060
v -0.0045 0.0000 0.0060
v -0.0045 0.0325 0.0060
v -0.0045 0.0650 0.0060
v 0.0000 -0.0650 0.0060
v 0.0000 -0.0325 0.0060
v 0.0000 0.0000 0.0060
v 0.0000 0.0325 0.0060
v 0.0000 0.0650 0.0060
v 0.0045 -0.0650 0.0060
v 0.0045 -0.0325 0.0060
v 0.0045 0.0000 0.0060
v 0.0045 0.0325 0.0060
v 0.0045 0.0650 0.0060
v 0.0090 -0.0650 0.0060
v 0.0090 -0.0325 0.0060
v 0.0090 0.0000 0.0060
v 0.0090 0.0325 0.0060
v 0.0090 0.0650 0.0060
v 0.0090 -0.0650 -0.0060
v 0.0090 -0.0325 -0.0060
v 0.0090 0.0000 -0.0060
v 0.0090 0.0325 -0.0060
v 0.0090 0.0650 -0.0060
v 0.0045 -0.0650 -0.0060
v 0.0045 -0.0325 -0.0060
v 0.0045 0.0000 -0.0060
v 0.0045 0.0325 -0.0060
v 0.0045 0.0650 -0.0060
v 0.0000 -0.0650 -0.0060
v 0.0000 -0.0325 -0.0060
v 0.0000 0.0000 -0.0060
v 0.0000 0.0325 -0.0060
v 0.0000 0.0650 -0.0060
v -0.0045 -0.0650 -0.0060
v -0.0045 -0.0325 -0.0060
v -0.0045 0.0000 -0.0060
v -0.0045 0.0325 -0.0060
v -0.0045 0.0650 -0.0060
v -0.0090 -0.0650 -0.0060
v -0.0090 -0.0325 -0.0060
v -0.0090 0.0000 -0.0060
v -0.0090 0.0325 -0.0060
v -0.0090 0.0650 -0.0060
v -0.0090 -0.0650 -0.0060
v -0.0090 -0.0325 -0.0060
v -0.0090 0.0000 -0.0060
v -0.0090 0.0325 -0.0060
v -0.0090 0.0650 -0.0060
v -0.0090 -0.0650 -0.0030
v -0.0090 -0.0325 -0.0030
v -0.0090 0.0000 -0.0030
v -0.0090 0.0325 -0.0030
v -0.0090 0.0650 -0.0030
v -0.0090 -0.0650 0.0000
v -0.0090 -0.0325 0.0000
v -0.0090 0.0000 0.0000
v -0.0090 0.0325 0.0000
v -0.0090 0.0650 0.0000
v -0.0090 -0.0650 0.0030
v -0.0090 -0.0325 0.0030
v -0.0090 0.0000 0.0030
v -0.0090 0.0325 0.0030
v -0.0090 0.0650 0.0030
v -0.0090 -0.0650 0.0060
v -0.0090 -0.0325 0.0060
v -0.0090 0.0000 0.0060
v -0.0090 0.0325 0.0060
v -0.0090 0.0650 0.0060
v 0.0090 -0.0650 0.0060
v 0.0090 -0.0325 0.0060
v 0.0090 0.0000 0.0060
v 0.0090 0.0325 0.0060
v 0.0090 0.0650 0.0060
v 0.0090 -0.0650 0.0030
v 0.0090 -0.0325 0.0030
v 0.0090 0.0000 0.0030
v 0.0090 0.0325 0.0030
v 0.0090 0.0650 0.0030
v 0.0090 -0.0650 0.0000
v 0.0090 -0.0325 0.0000
v 0.0090 0.0000 0.0000
v 0.0090 0.0325 0.0000
v 0.0090 0.0650 0.0000
v 0.0090 -0.0650 -0.0030
v 0.0090 -0.0325 -0.0030
v 0.0090 0.0000 -0.0030
v 0.0090 0.0325 -0.0030
v 0.0090 0.0650 -0.0030
v 0.0090 -0.0650 -0.0060
v 0.0090 -0.0325 -0.0060
v 0.0090 0.0000 -0.0060
v 0.0090 0.0325 -0.0060
v 0.0090 0.0650 -0.0060
v -0.0090 0.0650 -0.0060
v -0.0090 0.0650 -0.0030
v -0.0090 0.0650 0.0000
v -0.0090 0.0650 0.0030
v -0.0090 0.0650 0.0060
v -0.0045 0.0650 -0.0060
v -0.0045 0.0650 -0.0030
v -0.0045 0.0650 0.0000
v -0.0045 0.0650 0.0030
v -0.0045 0.0650 0.0060
v 0.0000 0.0650 -0.0060
v 0.0000 0.0650 -0.0030
v 0.0000 0.0650 0.0000
v 0.0000 0.0650 0.0030
v 0.0000 0.0650 0.0060
v 0.0045 0.0650 -0.0060
v 0.0045 0.0650 -0.0030
v 0.0045 0.0650 0.0000
v 0.0045 0.0650 0.0030
v 0.0045 0.0650 0.0060
v 0.0090 0.0650 -0.0060
v 0.0090 0.0650 -0.0030
v 0.0090 0.0650 0.0000
v 0.0090 0.0650 0.0030
v 0.0090 0.0650 0.0060
v -0.0090 -0.0650 0.0060
v -0.0090 -0.0650 0.0030
v -0.0090 -0.0650 0.0000
v -0.0090 -0.0650 -0.0030
v -0.0090 -0.0650 -0.0060
v -0.0045 -0.0650 0.0060
v -0.0045 -0.0650 0.0030
v -0.0045 -0.0650 0.0000
v -0.0045 -0.0650 -0.0030
v -0.0045 -0.0650 -0.0060
v 0.0000 -0.0650 0.0060
v 0.0000 -0.0650 0.0030
v 0.0000 -0.0650 0.0000
v 0.0000 -0.0650 -0.0030
v 0.0000 -0.0650 -0.0060
v 0.0045 -0.0650 0.0060
v 0.0045 -0.0650 0.0030
v 0.0045 -0.0650 0.0000
v 0.0045 -0.0650 -0.0030
v 0.0045 -0.0650 -0.0060
v 0.0090 -0.0650 0.0060
v 0.0090 -0.0650 0.0030
v 0.0090 -0.0650 0.0000
v 0.0090 -0.0650 -0.0030
v 0.0090 -0.0650 -0.0060
v -0.0130 0.0550 0.0070
v -0.0130 0.0700 0.0070
v -0.0130 0.0850 0.0070
v 0.0000 0.0550 0.0070
v 0.0000 0.0700 0.0070
v 0.0000 0.0850 0.0070
v 0.0130 0.0550 0.0070
v 0.0130 0.0700 0.0070
v 0.0130 0.0850 0.0070
v 0.0130 0.0550 -0.0070
v 0.0130 0.0700 -0.0070
v 0.0130 0.0850 -0.0070
v 0.0000 0.0550 -0.0070
v 0.0000 0.0700 -0.0070
v 0.0000 0.0850 -0.0070
v -0.0130 0.0550 -0.0070
v -0.0130 0.0700 -0.0070
v -0.0130 0.0850 -0.0070
v -0.0130 0.0550 -0.0070
v -0.0130 0.0700 -0.0070
v -0.0130 0.0850 -0.0070
v -0.0130 0.0550 0.0000
v -0.0130 0.0700 0.0000
v -0.0130 0.0850 0.0000
v -0.0130 0.0550 0.0070
v -0.0130 0.0700 0.0070
v -0.0130 0.0850 0.0070
v 0.0130 0.0550 0.0070
v 0.0130 0.0700 0.0070
v 0.0130 0.0850 0.0070
v 0.0130 0.0550 0.0000
v 0.0130 0.0700 0.0000
v 0.0130 0.0850 0.0000
v 0.0130 0.0550 -0.0070
v 0.0130 0.0700 -0.0070
v 0.0130 0.0850 -0.0070
v -0.0130 0.0850 -0.0070
v -0.0130 0.0850 0.0000
v -0.0130 0.0850 0.0070
v 0.0000 0.0850 -0.0070
v 0.0000 0.0850 0.0000
v 0.0000 0.0850 0.0070
v 0.0130 0.0850 -0.0070
v 0.0130 0.0850 0.0000
v 0.0130 0.0850 0.0070
v -0.0130 0.0550 0.0070
v -0.0130 0.0550 0.0000
v -0.0130 0.0550 -0.0070
v 0.0000 0.0550 0.0070
v 0.0000 0.0550 0.0000
v 0.0000 0.0550 -0.0070
v 0.0130 0.0550 0.0070
v 0.0130 0.0550 0.0000
v 0.0130 0.0550 -0.0070
f 1 2 7
f 1 7 6
f 2 3 8
f 2 8 7
f 3 4 9
f 3 9 8
f 4 5 10
f 4 10 9
f 6 7 12
f 6 12 11
f 7 8 13
f 7 13 12
f 8 9 14
f 8 14 13
f 9 10 15
f 9 15 14
f 11 12 17
f 11 17 16
f 12 13 18
f 12 18 17
f 13 14 19
f 13 19 18
f 14 15 20
f 14 20 19
f 16 17 22
f 16 22 21
f 17 18 23
f 17 23 22
f 18 19 24
f 18 24 23
f 19 20 25
f 19 25 24
f 26 27 32
f 26 32 31
f 27 28 33
f 27 33 32
f 28 29 34
f 28 34 33
f 29 30 35
f 29 35 34
f 31 32 37
f 31 37 36
f 32 33 38
f 32 38 37
f 33 34 39
f 33 39 38
f 34 35 40
f 34 40 39
f 36 37 42
f 36 42 41
f 37 38 43
f 37 43 42
f 38 39 44
f 38 44 43
f 39 40 45
f 39 45 44
f 41 42 47
f 41 47 46
f 42 43 48
f 42 48 47
f 43 44 49
f 43 49 48
f 44 45 50
f 44 50 49
f 51 52 57
f 51 57 56
f 52 53 58
f 52 58 57
f 53 54 59
f 53 59 58
f 54 55 60
f 54 60 59
f 56 57 62
f 56 62 61
f 57 58 63
f 57 63 62
f 58 59 64
f 58 64 63
f 59 60 65
f 59 65 64
f 61 62 67
f 61 67 66
f 62 63 68
f 62 68 67
f 63 64 69
f 63 69 68
f 64 65 70
f 64 70 69
f 66 67 72
f 66 72 71
f 67 68 73
f 67 73 72
f 68 69 74
f 68 74 73
f 69 70 75
f 69 75 74
f 76 77 82
f 76 82 81
f 77 78 83
f 77 83 82
f 78 79 84
f 78 84 83
f 79 80 85
f 79 85 84
f 81 82 87
f 81 87 86
f 82 83 88
f 82 88 87
f 83 84 89
f 83 89 88
f 84 85 90
f 84 90 89
f 86 87 92
f 86 92 91
f 87 88 93
f 87 93 92
f 88 89 94
f 88 94 93
f 89 90 95
f 89 95 94
f 91 92 97
f 91 97 96
f 92 93 98
f 92 98 97
f 93 94 99
f 93 99 98
f 94 95 100
f 94 100 99
f 101 102 107
f 101 107 106
f 102 103 108
f 102 108 107
f 103 104 109
f 103 109 108
f 104 105 110
f 104 110 109
f 106 107 112
f 106 112 111
f 107 108 113
f 107 113 112
f 108 109 114
f 108 114 113
f 109 110 115
f 109 115 114
f 111 112 117
f 111 117 116
f 112 113 118
f 112 118 117
f 113 114 119
f 113 119 118
f 114 115 120
f 114 120 119
f 116 117 122
f 116 122 121
f 117 118 123
f 117 123 122
f 118 119 124
f 118 124 123
f 119 120 125
f 119 125 124
f 126 127 132
f 126 132 131
f 127 128 133
f 127 133 132
f 128 129 134
f 128 134 133
f 129 130 135
f 129 135 134
f 131 132 137
f 131 137 136
f 132 133 138
f 132 138 137
f 133 134 139
f 133 139 138
f 134 135 140
f 134 140 139
f 136 137 142
f 136 142 141
f 137 138 143
f 137 143 142
f 138 139 144
f 138 144 143
f 139 140 145
f 139 145 144
f 141 142 147
f 141 147 146
f 142 143 148
f 142 148 147
f 143 144 149
f 143 149 148
f 144 145 150
f 144 150 149
f 151 152 155
f 151 155 154
f 152 153 156
f 152 156 155
f 154 155 158
f 154 158 157
f 155 156 159
f 155 159 158
f 160 161 164
f 160 164 163
f 161 162 165
f 161 165 164
f 163 164 167
f 163 167 166
f 164 165 168
f 164 168 167
f 169 170 173
f 169 173 172
f 170 171 174
f 170 174 173
f 172 173 176
f 172 176 175
f 173 174 177
f 173 177 176
f 178 179 182
f 178 182 181
f 179 180 183
f 179 183 182
f 181 182 185
f 181 185 184
f 182 183 186
f 182 186 185
f 187 188 191
f 187 191 190
f 188 189 192
f 188 192 191
f 190 191 194
f 190 194 193
f 191 192 195
f 191 195 194
f 196 197 200
f 196 200 199
f 197 198 201
f 197 201 200
f 199 200 203
f 199 203 202
f 200 201 204
f 200 204 203
