# 야시장비 — 블록아웃
# 삼각형 892 · 조각 1
# 생성: tools/blockout — 손으로 고치지 말 것, 생성기를 고칠 것
g nightVision
v -0.0600 -0.0350 0.0250
v -0.0600 -0.0250 0.0250
v -0.0600 -0.0150 0.0250
v -0.0600 -0.0050 0.0250
v -0.0600 0.0050 0.0250
v -0.0600 0.0150 0.0250
v -0.0600 0.0250 0.0250
v -0.0600 0.0350 0.0250
v -0.0429 -0.0350 0.0250
v -0.0429 -0.0250 0.0250
v -0.0429 -0.0150 0.0250
v -0.0429 -0.0050 0.0250
v -0.0429 0.0050 0.0250
v -0.0429 0.0150 0.0250
v -0.0429 0.0250 0.0250
v -0.0429 0.0350 0.0250
v -0.0257 -0.0350 0.0250
v -0.0257 -0.0250 0.0250
v -0.0257 -0.0150 0.0250
v -0.0257 -0.0050 0.0250
v -0.0257 0.0050 0.0250
v -0.0257 0.0150 0.0250
v -0.0257 0.0250 0.0250
v -0.0257 0.0350 0.0250
v -0.0086 -0.0350 0.0250
v -0.0086 -0.0250 0.0250
v -0.0086 -0.0150 0.0250
v -0.0086 -0.0050 0.0250
v -0.0086 0.0050 0.0250
v -0.0086 0.0150 0.0250
v -0.0086 0.0250 0.0250
v -0.0086 0.0350 0.0250
v 0.0086 -0.0350 0.0250
v 0.0086 -0.0250 0.0250
v 0.0086 -0.0150 0.0250
v 0.0086 -0.0050 0.0250
v 0.0086 0.0050 0.0250
v 0.0086 0.0150 0.0250
v 0.0086 0.0250 0.0250
v 0.0086 0.0350 0.0250
v 0.0257 -0.0350 0.0250
v 0.0257 -0.0250 0.0250
v 0.0257 -0.0150 0.0250
v 0.0257 -0.0050 0.0250
v 0.0257 0.0050 0.0250
v 0.0257 0.0150 0.0250
v 0.0257 0.0250 0.0250
v 0.0257 0.0350 0.0250
v 0.0429 -0.0350 0.0250
v 0.0429 -0.0250 0.0250
v 0.0429 -0.0150 0.0250
v 0.0429 -0.0050 0.0250
v 0.0429 0.0050 0.0250
v 0.0429 0.0150 0.0250
v 0.0429 0.0250 0.0250
v 0.0429 0.0350 0.0250
v 0.0600 -0.0350 0.0250
v 0.0600 -0.0250 0.0250
v 0.0600 -0.0150 0.0250
v 0.0600 -0.0050 0.0250
v 0.0600 0.0050 0.0250
v 0.0600 0.0150 0.0250
v 0.0600 0.0250 0.0250
v 0.0600 0.0350 0.0250
v 0.0600 -0.0350 -0.0250
v 0.0600 -0.0250 -0.0250
v 0.0600 -0.0150 -0.0250
v 0.0600 -0.0050 -0.0250
v 0.0600 0.0050 -0.0250
v 0.0600 0.0150 -0.0250
v 0.0600 0.0250 -0.0250
v 0.0600 0.0350 -0.0250
v 0.0429 -0.0350 -0.0250
v 0.0429 -0.0250 -0.0250
v 0.0429 -0.0150 -0.0250
v 0.0429 -0.0050 -0.0250
v 0.0429 0.0050 -0.0250
v 0.0429 0.0150 -0.0250
v 0.0429 0.0250 -0.0250
v 0.0429 0.0350 -0.0250
v 0.0257 -0.0350 -0.0250
v 0.0257 -0.0250 -0.0250
v 0.0257 -0.0150 -0.0250
v 0.0257 -0.0050 -0.0250
v 0.0257 0.0050 -0.0250
v 0.0257 0.0150 -0.0250
v 0.0257 0.0250 -0.0250
v 0.0257 0.0350 -0.0250
v 0.0086 -0.0350 -0.0250
v 0.0086 -0.0250 -0.0250
v 0.0086 -0.0150 -0.0250
v 0.0086 -0.0050 -0.0250
v 0.0086 0.0050 -0.0250
v 0.0086 0.0150 -0.0250
v 0.0086 0.0250 -0.0250
v 0.0086 0.0350 -0.0250
v -0.0086 -0.0350 -0.0250
v -0.0086 -0.0250 -0.0250
v -0.0086 -0.0150 -0.0250
v -0.0086 -0.0050 -0.0250
v -0.0086 0.0050 -0.0250
v -0.0086 0.0150 -0.0250
v -0.0086 0.0250 -0.0250
v -0.0086 0.0350 -0.0250
v -0.0257 -0.0350 -0.0250
v -0.0257 -0.0250 -0.0250
v -0.0257 -0.0150 -0.0250
v -0.0257 -0.0050 -0.0250
v -0.0257 0.0050 -0.0250
v -0.0257 0.0150 -0.0250
v -0.0257 0.0250 -0.0250
v -0.0257 0.0350 -0.0250
v -0.0429 -0.0350 -0.0250
v -0.0429 -0.0250 -0.0250
v -0.0429 -0.0150 -0.0250
v -0.0429 -0.0050 -0.0250
v -0.0429 0.0050 -0.0250
v -0.0429 0.0150 -0.0250
v -0.0429 0.0250 -0.0250
v -0.0429 0.0350 -0.0250
v -0.0600 -0.0350 -0.0250
v -0.0600 -0.0250 -0.0250
v -0.0600 -0.0150 -0.0250
v -0.0600 -0.0050 -0.0250
v -0.0600 0.0050 -0.0250
v -0.0600 0.0150 -0.0250
v -0.0600 0.0250 -0.0250
v -0.0600 0.0350 -0.0250
v -0.0600 -0.0350 -0.0250
v -0.0600 -0.0250 -0.0250
v -0.0600 -0.0150 -0.0250
v -0.0600 -0.0050 -0.0250
v -0.0600 0.0050 -0.0250
v -0.0600 0.0150 -0.0250
v -0.0600 0.0250 -0.0250
v -0.0600 0.0350 -0.0250
v -0.0600 -0.0350 -0.0179
v -0.0600 -0.0250 -0.0179
v -0.0600 -0.0150 -0.0179
v -0.0600 -0.0050 -0.0179
v -0.0600 0.0050 -0.0179
v -0.0600 0.0150 -0.0179
v -0.0600 0.0250 -0.0179
v -0.0600 0.0350 -0.0179
v -0.0600 -0.0350 -0.0107
v -0.0600 -0.0250 -0.0107
v -0.0600 -0.0150 -0.0107
v -0.0600 -0.0050 -0.0107
v -0.0600 0.0050 -0.0107
v -0.0600 0.0150 -0.0107
v -0.0600 0.0250 -0.0107
v -0.0600 0.0350 -0.0107
v -0.0600 -0.0350 -0.0036
v -0.0600 -0.0250 -0.0036
v -0.0600 -0.0150 -0.0036
v -0.0600 -0.0050 -0.0036
v -0.0600 0.0050 -0.0036
v -0.0600 0.0150 -0.0036
v -0.0600 0.0250 -0.0036
v -0.0600 0.0350 -0.0036
v -0.0600 -0.0350 0.0036
v -0.0600 -0.0250 0.0036
v -0.0600 -0.0150 0.0036
v -0.0600 -0.0050 0.0036
v -0.0600 0.0050 0.0036
v -0.0600 0.0150 0.0036
v -0.0600 0.0250 0.0036
v -0.0600 0.0350 0.0036
v -0.0600 -0.0350 0.0107
v -0.0600 -0.0250 0.0107
v -0.0600 -0.0150 0.0107
v -0.0600 -0.0050 0.0107
v -0.0600 0.0050 0.0107
v -0.0600 0.0150 0.0107
v -0.0600 0.0250 0.0107
v -0.0600 0.0350 0.0107
v -0.0600 -0.0350 0.0179
v -0.0600 -0.0250 0.0179
v -0.0600 -0.0150 0.0179
v -0.0600 -0.0050 0.0179
v -0.0600 0.0050 0.0179
v -0.0600 0.0150 0.0179
v -0.0600 0.0250 0.0179
v -0.0600 0.0350 0.0179
v -0.0600 -0.0350 0.0250
v -0.0600 -0.0250 0.0250
v -0.0600 -0.0150 0.0250
v -0.0600 -0.0050 0.0250
v -0.0600 0.0050 0.0250
v -0.0600 0.0150 0.0250
v -0.0600 0.0250 0.0250
v -0.0600 0.0350 0.0250
v 0.0600 -0.0350 0.0250
v 0.0600 -0.0250 0.0250
v 0.0600 -0.0150 0.0250
v 0.0600 -0.0050 0.0250
v 0.0600 0.0050 0.0250
v 0.0600 0.0150 0.0250
v 0.0600 0.0250 0.0250
v 0.0600 0.0350 0.0250
v 0.0600 -0.0350 0.0179
v 0.0600 -0.0250 0.0179
v 0.0600 -0.0150 0.0179
v 0.0600 -0.0050 0.0179
v 0.0600 0.0050 0.0179
v 0.0600 0.0150 0.0179
v 0.0600 0.0250 0.0179
v 0.0600 0.0350 0.0179
v 0.0600 -0.0350 0.0107
v 0.0600 -0.0250 0.0107
v 0.0600 -0.0150 0.0107
v 0.0600 -0.0050 0.0107
v 0.0600 0.0050 0.0107
v 0.0600 0.0150 0.0107
v 0.0600 0.0250 0.0107
v 0.0600 0.0350 0.0107
v 0.0600 -0.0350 0.0036
v 0.0600 -0.0250 0.0036
v 0.0600 -0.0150 0.0036
v 0.0600 -0.0050 0.0036
v 0.0600 0.0050 0.0036
v 0.0600 0.0150 0.0036
v 0.0600 0.0250 0.0036
v 0.0600 0.0350 0.0036
v 0.0600 -0.0350 -0.0036
v 0.0600 -0.0250 -0.0036
v 0.0600 -0.0150 -0.0036
v 0.0600 -0.0050 -0.0036
v 0.0600 0.0050 -0.0036
v 0.0600 0.0150 -0.0036
v 0.0600 0.0250 -0.0036
v 0.0600 0.0350 -0.0036
v 0.0600 -0.0350 -0.0107
v 0.0600 -0.0250 -0.0107
v 0.0600 -0.0150 -0.0107
v 0.0600 -0.0050 -0.0107
v 0.0600 0.0050 -0.0107
v 0.0600 0.0150 -0.0107
v 0.0600 0.0250 -0.0107
v 0.0600 0.0350 -0.0107
v 0.0600 -0.0350 -0.0179
v 0.0600 -0.0250 -0.0179
v 0.0600 -0.0150 -0.0179
v 0.0600 -0.0050 -0.0179
v 0.0600 0.0050 -0.0179
v 0.0600 0.0150 -0.0179
v 0.0600 0.0250 -0.0179
v 0.0600 0.0350 -0.0179
v 0.0600 -0.0350 -0.0250
v 0.0600 -0.0250 -0.0250
v 0.0600 -0.0150 -0.0250
v 0.0600 -0.0050 -0.0250
v 0.0600 0.0050 -0.0250
v 0.0600 0.0150 -0.0250
v 0.0600 0.0250 -0.0250
v 0.0600 0.0350 -0.0250
v -0.0600 0.0350 -0.0250
v -0.0600 0.0350 -0.0179
v -0.0600 0.0350 -0.0107
v -0.0600 0.0350 -0.0036
v -0.0600 0.0350 0.0036
v -0.0600 0.0350 0.0107
v -0.0600 0.0350 0.0179
v -0.0600 0.0350 0.0250
v -0.0429 0.0350 -0.0250
v -0.0429 0.0350 -0.0179
v -0.0429 0.0350 -0.0107
v -0.0429 0.0350 -0.0036
v -0.0429 0.0350 0.0036
v -0.0429 0.0350 0.0107
v -0.0429 0.0350 0.0179
v -0.0429 0.0350 0.0250
v -0.0257 0.0350 -0.0250
v -0.0257 0.0350 -0.0179
v -0.0257 0.0350 -0.0107
v -0.0257 0.0350 -0.0036
v -0.0257 0.0350 0.0036
v -0.0257 0.0350 0.0107
v -0.0257 0.0350 0.0179
v -0.0257 0.0350 0.0250
v -0.0086 0.0350 -0.0250
v -0.0086 0.0350 -0.0179
v -0.0086 0.0350 -0.0107
v -0.0086 0.0350 -0.0036
v -0.0086 0.0350 0.0036
v -0.0086 0.0350 0.0107
v -0.0086 0.0350 0.0179
v -0.0086 0.0350 0.0250
v 0.0086 0.0350 -0.0250
v 0.0086 0.0350 -0.0179
v 0.0086 0.0350 -0.0107
v 0.0086 0.0350 -0.0036
v 0.0086 0.0350 0.0036
v 0.0086 0.0350 0.0107
v 0.0086 0.0350 0.0179
v 0.0086 0.0350 0.0250
v 0.0257 0.0350 -0.0250
v 0.0257 0.0350 -0.0179
v 0.0257 0.0350 -0.0107
v 0.0257 0.0350 -0.0036
v 0.0257 0.0350 0.0036
v 0.0257 0.0350 0.0107
v 0.0257 0.0350 0.0179
v 0.0257 0.0350 0.0250
v 0.0429 0.0350 -0.0250
v 0.0429 0.0350 -0.0179
v 0.0429 0.0350 -0.0107
v 0.0429 0.0350 -0.0036
v 0.0429 0.0350 0.0036
v 0.0429 0.0350 0.0107
v 0.0429 0.0350 0.0179
v 0.0429 0.0350 0.0250
v 0.0600 0.0350 -0.0250
v 0.0600 0.0350 -0.0179
v 0.0600 0.0350 -0.0107
v 0.0600 0.0350 -0.0036
v 0.0600 0.0350 0.0036
v 0.0600 0.0350 0.0107
v 0.0600 0.0350 0.0179
v 0.0600 0.0350 0.0250
v -0.0600 -0.0350 0.0250
v -0.0600 -0.0350 0.0179
v -0.0600 -0.0350 0.0107
v -0.0600 -0.0350 0.0036
v -0.0600 -0.0350 -0.0036
v -0.0600 -0.0350 -0.0107
v -0.0600 -0.0350 -0.0179
v -0.0600 -0.0350 -0.0250
v -0.0429 -0.0350 0.0250
v -0.0429 -0.0350 0.0179
v -0.0429 -0.0350 0.0107
v -0.0429 -0.0350 0.0036
v -0.0429 -0.0350 -0.0036
v -0.0429 -0.0350 -0.0107
v -0.0429 -0.0350 -0.0179
v -0.0429 -0.0350 -0.0250
v -0.0257 -0.0350 0.0250
v -0.0257 -0.0350 0.0179
v -0.0257 -0.0350 0.0107
v -0.0257 -0.0350 0.0036
v -0.0257 -0.0350 -0.0036
v -0.0257 -0.0350 -0.0107
v -0.0257 -0.0350 -0.0179
v -0.0257 -0.0350 -0.0250
v -0.0086 -0.0350 0.0250
v -0.0086 -0.0350 0.0179
v -0.0086 -0.0350 0.0107
v -0.0086 -0.0350 0.0036
v -0.0086 -0.0350 -0.0036
v -0.0086 -0.0350 -0.0107
v -0.0086 -0.0350 -0.0179
v -0.0086 -0.0350 -0.0250
v 0.0086 -0.0350 0.0250
v 0.0086 -0.0350 0.0179
v 0.0086 -0.0350 0.0107
v 0.0086 -0.0350 0.0036
v 0.0086 -0.0350 -0.0036
v 0.0086 -0.0350 -0.0107
v 0.0086 -0.0350 -0.0179
v 0.0086 -0.0350 -0.0250
v 0.0257 -0.0350 0.0250
v 0.0257 -0.0350 0.0179
v 0.0257 -0.0350 0.0107
v 0.0257 -0.0350 0.0036
v 0.0257 -0.0350 -0.0036
v 0.0257 -0.0350 -0.0107
v 0.0257 -0.0350 -0.0179
v 0.0257 -0.0350 -0.0250
v 0.0429 -0.0350 0.0250
v 0.0429 -0.0350 0.0179
v 0.0429 -0.0350 0.0107
v 0.0429 -0.0350 0.0036
v 0.0429 -0.0350 -0.0036
v 0.0429 -0.0350 -0.0107
v 0.0429 -0.0350 -0.0179
v 0.0429 -0.0350 -0.0250
v 0.0600 -0.0350 0.0250
v 0.0600 -0.0350 0.0179
v 0.0600 -0.0350 0.0107
v 0.0600 -0.0350 0.0036
v 0.0600 -0.0350 -0.0036
v 0.0600 -0.0350 -0.0107
v 0.0600 -0.0350 -0.0179
v 0.0600 -0.0350 -0.0250
v -0.0060 0.0000 0.0150
v -0.0060 0.0000 0.1050
v -0.0086 0.0113 0.0150
v -0.0086 0.0113 0.1050
v -0.0158 0.0203 0.0150
v -0.0158 0.0203 0.1050
v -0.0262 0.0253 0.0150
v -0.0262 0.0253 0.1050
v -0.0378 0.0253 0.0150
v -0.0378 0.0253 0.1050
v -0.0482 0.0203 0.0150
v -0.0482 0.0203 0.1050
v -0.0554 0.0113 0.0150
v -0.0554 0.0113 0.1050
v -0.0580 0.0000 0.0150
v -0.0580 0.0000 0.1050
v -0.0554 -0.0113 0.0150
v -0.0554 -0.0113 0.1050
v -0.0482 -0.0203 0.0150
v -0.0482 -0.0203 0.1050
v -0.0378 -0.0253 0.0150
v -0.0378 -0.0253 0.1050
v -0.0262 -0.0253 0.0150
v -0.0262 -0.0253 0.1050
v -0.0158 -0.0203 0.0150
v -0.0158 -0.0203 0.1050
v -0.0086 -0.0113 0.0150
v -0.0086 -0.0113 0.1050
v -0.0320 0.0000 0.1050
v -0.0320 0.0000 0.0150
v 0.0580 0.0000 0.0150
v 0.0580 0.0000 0.1050
v 0.0554 0.0113 0.0150
v 0.0554 0.0113 0.1050
v 0.0482 0.0203 0.0150
v 0.0482 0.0203 0.1050
v 0.0378 0.0253 0.0150
v 0.0378 0.0253 0.1050
v 0.0262 0.0253 0.0150
v 0.0262 0.0253 0.1050
v 0.0158 0.0203 0.0150
v 0.0158 0.0203 0.1050
v 0.0086 0.0113 0.0150
v 0.0086 0.0113 0.1050
v 0.0060 0.0000 0.0150
v 0.0060 0.0000 0.1050
v 0.0086 -0.0113 0.0150
v 0.0086 -0.0113 0.1050
v 0.0158 -0.0203 0.0150
v 0.0158 -0.0203 0.1050
v 0.0262 -0.0253 0.0150
v 0.0262 -0.0253 0.1050
v 0.0378 -0.0253 0.0150
v 0.0378 -0.0253 0.1050
v 0.0482 -0.0203 0.0150
v 0.0482 -0.0203 0.1050
v 0.0554 -0.0113 0.0150
v 0.0554 -0.0113 0.1050
v 0.0320 0.0000 0.1050
v 0.0320 0.0000 0.0150
v -0.0250 0.0350 0.0000
v -0.0250 0.0425 0.0000
v -0.0250 0.0500 0.0000
v -0.0250 0.0575 0.0000
v -0.0250 0.0650 0.0000
v -0.0125 0.0350 0.0000
v -0.0125 0.0425 0.0000
v -0.0125 0.0500 0.0000
v -0.0125 0.0575 0.0000
v -0.0125 0.0650 0.0000
v 0.0000 0.0350 0.0000
v 0.0000 0.0425 0.0000
v 0.0000 0.0500 0.0000
v 0.0000 0.0575 0.0000
v 0.0000 0.0650 0.0000
v 0.0125 0.0350 0.0000
v 0.0125 0.0425 0.0000
v 0.0125 0.0500 0.0000
v 0.0125 0.0575 0.0000
v 0.0125 0.0650 0.0000
v 0.0250 0.0350 0.0000
v 0.0250 0.0425 0.0000
v 0.0250 0.0500 0.0000
v 0.0250 0.0575 0.0000
v 0.0250 0.0650 0.0000
v 0.0250 0.0350 -0.0400
v 0.0250 0.0425 -0.0400
v 0.0250 0.0500 -0.0400
v 0.0250 0.0575 -0.0400
v 0.0250 0.0650 -0.0400
v 0.0125 0.0350 -0.0400
v 0.0125 0.0425 -0.0400
v 0.0125 0.0500 -0.0400
v 0.0125 0.0575 -0.0400
v 0.0125 0.0650 -0.0400
v 0.0000 0.0350 -0.0400
v 0.0000 0.0425 -0.0400
v 0.0000 0.0500 -0.0400
v 0.0000 0.0575 -0.0400
v 0.0000 0.0650 -0.0400
v -0.0125 0.0350 -0.0400
v -0.0125 0.0425 -0.0400
v -0.0125 0.0500 -0.0400
v -0.0125 0.0575 -0.0400
v -0.0125 0.0650 -0.0400
v -0.0250 0.0350 -0.0400
v -0.0250 0.0425 -0.0400
v -0.0250 0.0500 -0.0400
v -0.0250 0.0575 -0.0400
v -0.0250 0.0650 -0.0400
v -0.0250 0.0350 -0.0400
v -0.0250 0.0425 -0.0400
v -0.0250 0.0500 -0.0400
v -0.0250 0.0575 -0.0400
v -0.0250 0.0650 -0.0400
v -0.0250 0.0350 -0.0300
v -0.0250 0.0425 -0.0300
v -0.0250 0.0500 -0.0300
v -0.0250 0.0575 -0.0300
v -0.0250 0.0650 -0.0300
v -0.0250 0.0350 -0.0200
v -0.0250 0.0425 -0.0200
v -0.0250 0.0500 -0.0200
v -0.0250 0.0575 -0.0200
v -0.0250 0.0650 -0.0200
v -0.0250 0.0350 -0.0100
v -0.0250 0.0425 -0.0100
v -0.0250 0.0500 -0.0100
v -0.0250 0.0575 -0.0100
v -0.0250 0.0650 -0.0100
v -0.0250 0.0350 0.0000
v -0.0250 0.0425 0.0000
v -0.0250 0.0500 0.0000
v -0.0250 0.0575 0.0000
v -0.0250 0.0650 0.0000
v 0.0250 0.0350 0.0000
v 0.0250 0.0425 0.0000
v 0.0250 0.0500 0.0000
v 0.0250 0.0575 0.0000
v 0.0250 0.0650 0.0000
v 0.0250 0.0350 -0.0100
v 0.0250 0.0425 -0.0100
v 0.0250 0.0500 -0.0100
v 0.0250 0.0575 -0.0100
v 0.0250 0.0650 -0.0100
v 0.0250 0.0350 -0.0200
v 0.0250 0.0425 -0.0200
v 0.0250 0.0500 -0.0200
v 0.0250 0.0575 -0.0200
v 0.0250 0.0650 -0.0200
v 0.0250 0.0350 -0.0300
v 0.0250 0.0425 -0.0300
v 0.0250 0.0500 -0.0300
v 0.0250 0.0575 -0.0300
v 0.0250 0.0650 -0.0300
v 0.0250 0.0350 -0.0400
v 0.0250 0.0425 -0.0400
v 0.0250 0.0500 -0.0400
v 0.0250 0.0575 -0.0400
v 0.0250 0.0650 -0.0400
v -0.0250 0.0650 -0.0400
v -0.0250 0.0650 -0.0300
v -0.0250 0.0650 -0.0200
v -0.0250 0.0650 -0.0100
v -0.0250 0.0650 0.0000
v -0.0125 0.0650 -0.0400
v -0.0125 0.0650 -0.0300
v -0.0125 0.0650 -0.0200
v -0.0125 0.0650 -0.0100
v -0.0125 0.0650 0.0000
v 0.0000 0.0650 -0.0400
v 0.0000 0.0650 -0.0300
v 0.0000 0.0650 -0.0200
v 0.0000 0.0650 -0.0100
v 0.0000 0.0650 0.0000
v 0.0125 0.0650 -0.0400
v 0.0125 0.0650 -0.0300
v 0.0125 0.0650 -0.0200
v 0.0125 0.0650 -0.0100
v 0.0125 0.0650 0.0000
v 0.0250 0.0650 -0.0400
v 0.0250 0.0650 -0.0300
v 0.0250 0.0650 -0.0200
v 0.0250 0.0650 -0.0100
v 0.0250 0.0650 0.0000
v -0.0250 0.0350 0.0000
v -0.0250 0.0350 -0.0100
v -0.0250 0.0350 -0.0200
v -0.0250 0.0350 -0.0300
v -0.0250 0.0350 -0.0400
v -0.0125 0.0350 0.0000
v -0.0125 0.0350 -0.0100
v -0.0125 0.0350 -0.0200
v -0.0125 0.0350 -0.0300
v -0.0125 0.0350 -0.0400
v 0.0000 0.0350 0.0000
v 0.0000 0.0350 -0.0100
v 0.0000 0.0350 -0.0200
v 0.0000 0.0350 -0.0300
v 0.0000 0.0350 -0.0400
v 0.0125 0.0350 0.0000
v 0.0125 0.0350 -0.0100
v 0.0125 0.0350 -0.0200
v 0.0125 0.0350 -0.0300
v 0.0125 0.0350 -0.0400
v 0.0250 0.0350 0.0000
v 0.0250 0.0350 -0.0100
v 0.0250 0.0350 -0.0200
v 0.0250 0.0350 -0.0300
v 0.0250 0.0350 -0.0400
f 1 2 10
f 1 10 9
f 2 3 11
f 2 11 10
f 3 4 12
f 3 12 11
f 4 5 13
f 4 13 12
f 5 6 14
f 5 14 13
f 6 7 15
f 6 15 14
f 7 8 16
f 7 16 15
f 9 10 18
f 9 18 17
f 10 11 19
f 10 19 18
f 11 12 20
f 11 20 19
f 12 13 21
f 12 21 20
f 13 14 22
f 13 22 21
f 14 15 23
f 14 23 22
f 15 16 24
f 15 24 23
f 17 18 26
f 17 26 25
f 18 19 27
f 18 27 26
f 19 20 28
f 19 28 27
f 20 21 29
f 20 29 28
f 21 22 30
f 21 30 29
f 22 23 31
f 22 31 30
f 23 24 32
f 23 32 31
f 25 26 34
f 25 34 33
f 26 27 35
f 26 35 34
f 27 28 36
f 27 36 35
f 28 29 37
f 28 37 36
f 29 30 38
f 29 38 37
f 30 31 39
f 30 39 38
f 31 32 40
f 31 40 39
f 33 34 42
f 33 42 41
f 34 35 43
f 34 43 42
f 35 36 44
f 35 44 43
f 36 37 45
f 36 45 44
f 37 38 46
f 37 46 45
f 38 39 47
f 38 47 46
f 39 40 48
f 39 48 47
f 41 42 50
f 41 50 49
f 42 43 51
f 42 51 50
f 43 44 52
f 43 52 51
f 44 45 53
f 44 53 52
f 45 46 54
f 45 54 53
f 46 47 55
f 46 55 54
f 47 48 56
f 47 56 55
f 49 50 58
f 49 58 57
f 50 51 59
f 50 59 58
f 51 52 60
f 51 60 59
f 52 53 61
f 52 61 60
f 53 54 62
f 53 62 61
f 54 55 63
f 54 63 62
f 55 56 64
f 55 64 63
f 65 66 74
f 65 74 73
f 66 67 75
f 66 75 74
f 67 68 76
f 67 76 75
f 68 69 77
f 68 77 76
f 69 70 78
f 69 78 77
f 70 71 79
f 70 79 78
f 71 72 80
f 71 80 79
f 73 74 82
f 73 82 81
f 74 75 83
f 74 83 82
f 75 76 84
f 75 84 83
f 76 77 85
f 76 85 84
f 77 78 86
f 77 86 85
f 78 79 87
f 78 87 86
f 79 80 88
f 79 88 87
f 81 82 90
f 81 90 89
f 82 83 91
f 82 91 90
f 83 84 92
f 83 92 91
f 84 85 93
f 84 93 92
f 85 86 94
f 85 94 93
f 86 87 95
f 86 95 94
f 87 88 96
f 87 96 95
f 89 90 98
f 89 98 97
f 90 91 99
f 90 99 98
f 91 92 100
f 91 100 99
f 92 93 101
f 92 101 100
f 93 94 102
f 93 102 101
f 94 95 103
f 94 103 102
f 95 96 104
f 95 104 103
f 97 98 106
f 97 106 105
f 98 99 107
f 98 107 106
f 99 100 108
f 99 108 107
f 100 101 109
f 100 109 108
f 101 102 110
f 101 110 109
f 102 103 111
f 102 111 110
f 103 104 112
f 103 112 111
f 105 106 114
f 105 114 113
f 106 107 115
f 106 115 114
f 107 108 116
f 107 116 115
f 108 109 117
f 108 117 116
f 109 110 118
f 109 118 117
f 110 111 119
f 110 119 118
f 111 112 120
f 111 120 119
f 113 114 122
f 113 122 121
f 114 115 123
f 114 123 122
f 115 116 124
f 115 124 123
f 116 117 125
f 116 125 124
f 117 118 126
f 117 126 125
f 118 119 127
f 118 127 126
f 119 120 128
f 119 128 127
f 129 130 138
f 129 138 137
f 130 131 139
f 130 139 138
f 131 132 140
f 131 140 139
f 132 133 141
f 132 141 140
f 133 134 142
f 133 142 141
f 134 135 143
f 134 143 142
f 135 136 144
f 135 144 143
f 137 138 146
f 137 146 145
f 138 139 147
f 138 147 146
f 139 140 148
f 139 148 147
f 140 141 149
f 140 149 148
f 141 142 150
f 141 150 149
f 142 143 151
f 142 151 150
f 143 144 152
f 143 152 151
f 145 146 154
f 145 154 153
f 146 147 155
f 146 155 154
f 147 148 156
f 147 156 155
f 148 149 157
f 148 157 156
f 149 150 158
f 149 158 157
f 150 151 159
f 150 159 158
f 151 152 160
f 151 160 159
f 153 154 162
f 153 162 161
f 154 155 163
f 154 163 162
f 155 156 164
f 155 164 163
f 156 157 165
f 156 165 164
f 157 158 166
f 157 166 165
f 158 159 167
f 158 167 166
f 159 160 168
f 159 168 167
f 161 162 170
f 161 170 169
f 162 163 171
f 162 171 170
f 163 164 172
f 163 172 171
f 164 165 173
f 164 173 172
f 165 166 174
f 165 174 173
f 166 167 175
f 166 175 174
f 167 168 176
f 167 176 175
f 169 170 178
f 169 178 177
f 170 171 179
f 170 179 178
f 171 172 180
f 171 180 179
f 172 173 181
f 172 181 180
f 173 174 182
f 173 182 181
f 174 175 183
f 174 183 182
f 175 176 184
f 175 184 183
f 177 178 186
f 177 186 185
f 178 179 187
f 178 187 186
f 179 180 188
f 179 188 187
f 180 181 189
f 180 189 188
f 181 182 190
f 181 190 189
f 182 183 191
f 182 191 190
f 183 184 192
f 183 192 191
f 193 194 202
f 193 202 201
f 194 195 203
f 194 203 202
f 195 196 204
f 195 204 203
f 196 197 205
f 196 205 204
f 197 198 206
f 197 206 205
f 198 199 207
f 198 207 206
f 199 200 208
f 199 208 207
f 201 202 210
f 201 210 209
f 202 203 211
f 202 211 210
f 203 204 212
f 203 212 211
f 204 205 213
f 204 213 212
f 205 206 214
f 205 214 213
f 206 207 215
f 206 215 214
f 207 208 216
f 207 216 215
f 209 210 218
f 209 218 217
f 210 211 219
f 210 219 218
f 211 212 220
f 211 220 219
f 212 213 221
f 212 221 220
f 213 214 222
f 213 222 221
f 214 215 223
f 214 223 222
f 215 216 224
f 215 224 223
f 217 218 226
f 217 226 225
f 218 219 227
f 218 227 226
f 219 220 228
f 219 228 227
f 220 221 229
f 220 229 228
f 221 222 230
f 221 230 229
f 222 223 231
f 222 231 230
f 223 224 232
f 223 232 231
f 225 226 234
f 225 234 233
f 226 227 235
f 226 235 234
f 227 228 236
f 227 236 235
f 228 229 237
f 228 237 236
f 229 230 238
f 229 238 237
f 230 231 239
f 230 239 238
f 231 232 240
f 231 240 239
f 233 234 242
f 233 242 241
f 234 235 243
f 234 243 242
f 235 236 244
f 235 244 243
f 236 237 245
f 236 245 244
f 237 238 246
f 237 246 245
f 238 239 247
f 238 247 246
f 239 240 248
f 239 248 247
f 241 242 250
f 241 250 249
f 242 243 251
f 242 251 250
f 243 244 252
f 243 252 251
f 244 245 253
f 244 253 252
f 245 246 254
f 245 254 253
f 246 247 255
f 246 255 254
f 247 248 256
f 247 256 255
f 257 258 266
f 257 266 265
f 258 259 267
f 258 267 266
f 259 260 268
f 259 268 267
f 260 261 269
f 260 269 268
f 261 262 270
f 261 270 269
f 262 263 271
f 262 271 270
f 263 264 272
f 263 272 271
f 265 266 274
f 265 274 273
f 266 267 275
f 266 275 274
f 267 268 276
f 267 276 275
f 268 269 277
f 268 277 276
f 269 270 278
f 269 278 277
f 270 271 279
f 270 279 278
f 271 272 280
f 271 280 279
f 273 274 282
f 273 282 281
f 274 275 283
f 274 283 282
f 275 276 284
f 275 284 283
f 276 277 285
f 276 285 284
f 277 278 286
f 277 286 285
f 278 279 287
f 278 287 286
f 279 280 288
f 279 288 287
f 281 282 290
f 281 290 289
f 282 283 291
f 282 291 290
f 283 284 292
f 283 292 291
f 284 285 293
f 284 293 292
f 285 286 294
f 285 294 293
f 286 287 295
f 286 295 294
f 287 288 296
f 287 296 295
f 289 290 298
f 289 298 297
f 290 291 299
f 290 299 298
f 291 292 300
f 291 300 299
f 292 293 301
f 292 301 300
f 293 294 302
f 293 302 301
f 294 295 303
f 294 303 302
f 295 296 304
f 295 304 303
f 297 298 306
f 297 306 305
f 298 299 307
f 298 307 306
f 299 300 308
f 299 308 307
f 300 301 309
f 300 309 308
f 301 302 310
f 301 310 309
f 302 303 311
f 302 311 310
f 303 304 312
f 303 312 311
f 305 306 314
f 305 314 313
f 306 307 315
f 306 315 314
f 307 308 316
f 307 316 315
f 308 309 317
f 308 317 316
f 309 310 318
f 309 318 317
f 310 311 319
f 310 319 318
f 311 312 320
f 311 320 319
f 321 322 330
f 321 330 329
f 322 323 331
f 322 331 330
f 323 324 332
f 323 332 331
f 324 325 333
f 324 333 332
f 325 326 334
f 325 334 333
f 326 327 335
f 326 335 334
f 327 328 336
f 327 336 335
f 329 330 338
f 329 338 337
f 330 331 339
f 330 339 338
f 331 332 340
f 331 340 339
f 332 333 341
f 332 341 340
f 333 334 342
f 333 342 341
f 334 335 343
f 334 343 342
f 335 336 344
f 335 344 343
f 337 338 346
f 337 346 345
f 338 339 347
f 338 347 346
f 339 340 348
f 339 348 347
f 340 341 349
f 340 349 348
f 341 342 350
f 341 350 349
f 342 343 351
f 342 351 350
f 343 344 352
f 343 352 351
f 345 346 354
f 345 354 353
f 346 347 355
f 346 355 354
f 347 348 356
f 347 356 355
f 348 349 357
f 348 357 356
f 349 350 358
f 349 358 357
f 350 351 359
f 350 359 358
f 351 352 360
f 351 360 359
f 353 354 362
f 353 362 361
f 354 355 363
f 354 363 362
f 355 356 364
f 355 364 363
f 356 357 365
f 356 365 364
f 357 358 366
f 357 366 365
f 358 359 367
f 358 367 366
f 359 360 368
f 359 368 367
f 361 362 370
f 361 370 369
f 362 363 371
f 362 371 370
f 363 364 372
f 363 372 371
f 364 365 373
f 364 373 372
f 365 366 374
f 365 374 373
f 366 367 375
f 366 375 374
f 367 368 376
f 367 376 375
f 369 370 378
f 369 378 377
f 370 371 379
f 370 379 378
f 371 372 380
f 371 380 379
f 372 373 381
f 372 381 380
f 373 374 382
f 373 382 381
f 374 375 383
f 374 383 382
f 375 376 384
f 375 384 383
f 385 387 388
f 385 388 386
f 387 389 390
f 387 390 388
f 389 391 392
f 389 392 390
f 391 393 394
f 391 394 392
f 393 395 396
f 393 396 394
f 395 397 398
f 395 398 396
f 397 399 400
f 397 400 398
f 399 401 402
f 399 402 400
f 401 403 404
f 401 404 402
f 403 405 406
f 403 406 404
f 405 407 408
f 405 408 406
f 407 409 410
f 407 410 408
f 409 411 412
f 409 412 410
f 411 385 386
f 411 386 412
f 413 386 388
f 414 387 385
f 413 388 390
f 414 389 387
f 413 390 392
f 414 391 389
f 413 392 394
f 414 393 391
f 413 394 396
f 414 395 393
f 413 396 398
f 414 397 395
f 413 398 400
f 414 399 397
f 413 400 402
f 414 401 399
f 413 402 404
f 414 403 401
f 413 404 406
f 414 405 403
f 413 406 408
f 414 407 405
f 413 408 410
f 414 409 407
f 413 410 412
f 414 411 409
f 413 412 386
f 414 385 411
f 415 417 418
f 415 418 416
f 417 419 420
f 417 420 418
f 419 421 422
f 419 422 420
f 421 423 424
f 421 424 422
f 423 425 426
f 423 426 424
f 425 427 428
f 425 428 426
f 427 429 430
f 427 430 428
f 429 431 432
f 429 432 430
f 431 433 434
f 431 434 432
f 433 435 436
f 433 436 434
f 435 437 438
f 435 438 436
f 437 439 440
f 437 440 438
f 439 441 442
f 439 442 440
f 441 415 416
f 441 416 442
f 443 416 418
f 444 417 415
f 443 418 420
f 444 419 417
f 443 420 422
f 444 421 419
f 443 422 424
f 444 423 421
f 443 424 426
f 444 425 423
f 443 426 428
f 444 427 425
f 443 428 430
f 444 429 427
f 443 430 432
f 444 431 429
f 443 432 434
f 444 433 431
f 443 434 436
f 444 435 433
f 443 436 438
f 444 437 435
f 443 438 440
f 444 439 437
f 443 440 442
f 444 441 439
f 443 442 416
f 444 415 441
f 445 446 451
f 445 451 450
f 446 447 452
f 446 452 451
f 447 448 453
f 447 453 452
f 448 449 454
f 448 454 453
f 450 451 456
f 450 456 455
f 451 452 457
f 451 457 456
f 452 453 458
f 452 458 457
f 453 454 459
f 453 459 458
f 455 456 461
f 455 461 460
f 456 457 462
f 456 462 461
f 457 458 463
f 457 463 462
f 458 459 464
f 458 464 463
f 460 461 466
f 460 466 465
f 461 462 467
f 461 467 466
f 462 463 468
f 462 468 467
f 463 464 469
f 463 469 468
f 470 471 476
f 470 476 475
f 471 472 477
f 471 477 476
f 472 473 478
f 472 478 477
f 473 474 479
f 473 479 478
f 475 476 481
f 475 481 480
f 476 477 482
f 476 482 481
f 477 478 483
f 477 483 482
f 478 479 484
f 478 484 483
f 480 481 486
f 480 486 485
f 481 482 487
f 481 487 486
f 482 483 488
f 482 488 487
f 483 484 489
f 483 489 488
f 485 486 491
f 485 491 490
f 486 487 492
f 486 492 491
f 487 488 493
f 487 493 492
f 488 489 494
f 488 494 493
f 495 496 501
f 495 501 500
f 496 497 502
f 496 502 501
f 497 498 503
f 497 503 502
f 498 499 504
f 498 504 503
f 500 501 506
f 500 506 505
f 501 502 507
f 501 507 506
f 502 503 508
f 502 508 507
f 503 504 509
f 503 509 508
f 505 506 511
f 505 511 510
f 506 507 512
f 506 512 511
f 507 508 513
f 507 513 512
f 508 509 514
f 508 514 513
f 510 511 516
f 510 516 515
f 511 512 517
f 511 517 516
f 512 513 518
f 512 518 517
f 513 514 519
f 513 519 518
f 520 521 526
f 520 526 525
f 521 522 527
f 521 527 526
f 522 523 528
f 522 528 527
f 523 524 529
f 523 529 528
f 525 526 531
f 525 531 530
f 526 527 532
f 526 532 531
f 527 528 533
f 527 533 532
f 528 529 534
f 528 534 533
f 530 531 536
f 530 536 535
f 531 532 537
f 531 537 536
f 532 533 538
f 532 538 537
f 533 534 539
f 533 539 538
f 535 536 541
f 535 541 540
f 536 537 542
f 536 542 541
f 537 538 543
f 537 543 542
f 538 539 544
f 538 544 543
f 545 546 551
f 545 551 550
f 546 547 552
f 546 552 551
f 547 548 553
f 547 553 552
f 548 549 554
f 548 554 553
f 550 551 556
f 550 556 555
f 551 552 557
f 551 557 556
f 552 553 558
f 552 558 557
f 553 554 559
f 553 559 558
f 555 556 561
f 555 561 560
f 556 557 562
f 556 562 561
f 557 558 563
f 557 563 562
f 558 559 564
f 558 564 563
f 560 561 566
f 560 566 565
f 561 562 567
f 561 567 566
f 562 563 568
f 562 568 567
f 563 564 569
f 563 569 568
f 570 571 576
f 570 576 575
f 571 572 577
f 571 577 576
f 572 573 578
f 572 578 577
f 573 574 579
f 573 579 578
f 575 576 581
f 575 581 580
f 576 577 582
f 576 582 581
f 577 578 583
f 577 583 582
f 578 579 584
f 578 584 583
f 580 581 586
f 580 586 585
f 581 582 587
f 581 587 586
f 582 583 588
f 582 588 587
f 583 584 589
f 583 589 588
f 585 586 591
f 585 591 590
f 586 587 592
f 586 592 591
f 587 588 593
f 587 593 592
f 588 589 594
f 588 594 593
