# 소총 — 블록아웃 (예산 3,000 tris · 디테일 5.25)
# 삼각형 2836 · 조각 1
# 생성: tools/blockout — 손으로 고치지 말 것, 생성기를 고칠 것
g rifle
v -0.1800 -0.0450 0.0250
v -0.1800 -0.0270 0.0250
v -0.1800 -0.0090 0.0250
v -0.1800 0.0090 0.0250
v -0.1800 0.0270 0.0250
v -0.1800 0.0450 0.0250
v -0.1080 -0.0450 0.0250
v -0.1080 -0.0270 0.0250
v -0.1080 -0.0090 0.0250
v -0.1080 0.0090 0.0250
v -0.1080 0.0270 0.0250
v -0.1080 0.0450 0.0250
v -0.0360 -0.0450 0.0250
v -0.0360 -0.0270 0.0250
v -0.0360 -0.0090 0.0250
v -0.0360 0.0090 0.0250
v -0.0360 0.0270 0.0250
v -0.0360 0.0450 0.0250
v 0.0360 -0.0450 0.0250
v 0.0360 -0.0270 0.0250
v 0.0360 -0.0090 0.0250
v 0.0360 0.0090 0.0250
v 0.0360 0.0270 0.0250
v 0.0360 0.0450 0.0250
v 0.1080 -0.0450 0.0250
v 0.1080 -0.0270 0.0250
v 0.1080 -0.0090 0.0250
v 0.1080 0.0090 0.0250
v 0.1080 0.0270 0.0250
v 0.1080 0.0450 0.0250
v 0.1800 -0.0450 0.0250
v 0.1800 -0.0270 0.0250
v 0.1800 -0.0090 0.0250
v 0.1800 0.0090 0.0250
v 0.1800 0.0270 0.0250
v 0.1800 0.0450 0.0250
v 0.1800 -0.0450 -0.0250
v 0.1800 -0.0270 -0.0250
v 0.1800 -0.0090 -0.0250
v 0.1800 0.0090 -0.0250
v 0.1800 0.0270 -0.0250
v 0.1800 0.0450 -0.0250
v 0.1080 -0.0450 -0.0250
v 0.1080 -0.0270 -0.0250
v 0.1080 -0.0090 -0.0250
v 0.1080 0.0090 -0.0250
v 0.1080 0.0270 -0.0250
v 0.1080 0.0450 -0.0250
v 0.0360 -0.0450 -0.0250
v 0.0360 -0.0270 -0.0250
v 0.0360 -0.0090 -0.0250
v 0.0360 0.0090 -0.0250
v 0.0360 0.0270 -0.0250
v 0.0360 0.0450 -0.0250
v -0.0360 -0.0450 -0.0250
v -0.0360 -0.0270 -0.0250
v -0.0360 -0.0090 -0.0250
v -0.0360 0.0090 -0.0250
v -0.0360 0.0270 -0.0250
v -0.0360 0.0450 -0.0250
v -0.1080 -0.0450 -0.0250
v -0.1080 -0.0270 -0.0250
v -0.1080 -0.0090 -0.0250
v -0.1080 0.0090 -0.0250
v -0.1080 0.0270 -0.0250
v -0.1080 0.0450 -0.0250
v -0.1800 -0.0450 -0.0250
v -0.1800 -0.0270 -0.0250
v -0.1800 -0.0090 -0.0250
v -0.1800 0.0090 -0.0250
v -0.1800 0.0270 -0.0250
v -0.1800 0.0450 -0.0250
v -0.1800 -0.0450 -0.0250
v -0.1800 -0.0270 -0.0250
v -0.1800 -0.0090 -0.0250
v -0.1800 0.0090 -0.0250
v -0.1800 0.0270 -0.0250
v -0.1800 0.0450 -0.0250
v -0.1800 -0.0450 -0.0150
v -0.1800 -0.0270 -0.0150
v -0.1800 -0.0090 -0.0150
v -0.1800 0.0090 -0.0150
v -0.1800 0.0270 -0.0150
v -0.1800 0.0450 -0.0150
v -0.1800 -0.0450 -0.0050
v -0.1800 -0.0270 -0.0050
v -0.1800 -0.0090 -0.0050
v -0.1800 0.0090 -0.0050
v -0.1800 0.0270 -0.0050
v -0.1800 0.0450 -0.0050
v -0.1800 -0.0450 0.0050
v -0.1800 -0.0270 0.0050
v -0.1800 -0.0090 0.0050
v -0.1800 0.0090 0.0050
v -0.1800 0.0270 0.0050
v -0.1800 0.0450 0.0050
v -0.1800 -0.0450 0.0150
v -0.1800 -0.0270 0.0150
v -0.1800 -0.0090 0.0150
v -0.1800 0.0090 0.0150
v -0.1800 0.0270 0.0150
v -0.1800 0.0450 0.0150
v -0.1800 -0.0450 0.0250
v -0.1800 -0.0270 0.0250
v -0.1800 -0.0090 0.0250
v -0.1800 0.0090 0.0250
v -0.1800 0.0270 0.0250
v -0.1800 0.0450 0.0250
v 0.1800 -0.0450 0.0250
v 0.1800 -0.0270 0.0250
v 0.1800 -0.0090 0.0250
v 0.1800 0.0090 0.0250
v 0.1800 0.0270 0.0250
v 0.1800 0.0450 0.0250
v 0.1800 -0.0450 0.0150
v 0.1800 -0.0270 0.0150
v 0.1800 -0.0090 0.0150
v 0.1800 0.0090 0.0150
v 0.1800 0.0270 0.0150
v 0.1800 0.0450 0.0150
v 0.1800 -0.0450 0.0050
v 0.1800 -0.0270 0.0050
v 0.1800 -0.0090 0.0050
v 0.1800 0.0090 0.0050
v 0.1800 0.0270 0.0050
v 0.1800 0.0450 0.0050
v 0.1800 -0.0450 -0.0050
v 0.1800 -0.0270 -0.0050
v 0.1800 -0.0090 -0.0050
v 0.1800 0.0090 -0.0050
v 0.1800 0.0270 -0.0050
v 0.1800 0.0450 -0.0050
v 0.1800 -0.0450 -0.0150
v 0.1800 -0.0270 -0.0150
v 0.1800 -0.0090 -0.0150
v 0.1800 0.0090 -0.0150
v 0.1800 0.0270 -0.0150
v 0.1800 0.0450 -0.0150
v 0.1800 -0.0450 -0.0250
v 0.1800 -0.0270 -0.0250
v 0.1800 -0.0090 -0.0250
v 0.1800 0.0090 -0.0250
v 0.1800 0.0270 -0.0250
v 0.1800 0.0450 -0.0250
v -0.1800 0.0450 -0.0250
v -0.1800 0.0450 -0.0150
v -0.1800 0.0450 -0.0050
v -0.1800 0.0450 0.0050
v -0.1800 0.0450 0.0150
v -0.1800 0.0450 0.0250
v -0.1080 0.0450 -0.0250
v -0.1080 0.0450 -0.0150
v -0.1080 0.0450 -0.0050
v -0.1080 0.0450 0.0050
v -0.1080 0.0450 0.0150
v -0.1080 0.0450 0.0250
v -0.0360 0.0450 -0.0250
v -0.0360 0.0450 -0.0150
v -0.0360 0.0450 -0.0050
v -0.0360 0.0450 0.0050
v -0.0360 0.0450 0.0150
v -0.0360 0.0450 0.0250
v 0.0360 0.0450 -0.0250
v 0.0360 0.0450 -0.0150
v 0.0360 0.0450 -0.0050
v 0.0360 0.0450 0.0050
v 0.0360 0.0450 0.0150
v 0.0360 0.0450 0.0250
v 0.1080 0.0450 -0.0250
v 0.1080 0.0450 -0.0150
v 0.1080 0.0450 -0.0050
v 0.1080 0.0450 0.0050
v 0.1080 0.0450 0.0150
v 0.1080 0.0450 0.0250
v 0.1800 0.0450 -0.0250
v 0.1800 0.0450 -0.0150
v 0.1800 0.0450 -0.0050
v 0.1800 0.0450 0.0050
v 0.1800 0.0450 0.0150
v 0.1800 0.0450 0.0250
v -0.1800 -0.0450 0.0250
v -0.1800 -0.0450 0.0150
v -0.1800 -0.0450 0.0050
v -0.1800 -0.0450 -0.0050
v -0.1800 -0.0450 -0.0150
v -0.1800 -0.0450 -0.0250
v -0.1080 -0.0450 0.0250
v -0.1080 -0.0450 0.0150
v -0.1080 -0.0450 0.0050
v -0.1080 -0.0450 -0.0050
v -0.1080 -0.0450 -0.0150
v -0.1080 -0.0450 -0.0250
v -0.0360 -0.0450 0.0250
v -0.0360 -0.0450 0.0150
v -0.0360 -0.0450 0.0050
v -0.0360 -0.0450 -0.0050
v -0.0360 -0.0450 -0.0150
v -0.0360 -0.0450 -0.0250
v 0.0360 -0.0450 0.0250
v 0.0360 -0.0450 0.0150
v 0.0360 -0.0450 0.0050
v 0.0360 -0.0450 -0.0050
v 0.0360 -0.0450 -0.0150
v 0.0360 -0.0450 -0.0250
v 0.1080 -0.0450 0.0250
v 0.1080 -0.0450 0.0150
v 0.1080 -0.0450 0.0050
v 0.1080 -0.0450 -0.0050
v 0.1080 -0.0450 -0.0150
v 0.1080 -0.0450 -0.0250
v 0.1800 -0.0450 0.0250
v 0.1800 -0.0450 0.0150
v 0.1800 -0.0450 0.0050
v 0.1800 -0.0450 -0.0050
v 0.1800 -0.0450 -0.0150
v 0.1800 -0.0450 -0.0250
v 0.3510 -0.1500 0.0000
v 0.3510 0.1900 0.0000
v 0.3493 -0.1500 0.0059
v 0.3493 0.1900 0.0059
v 0.3446 -0.1500 0.0100
v 0.3446 0.1900 0.0100
v 0.3384 -0.1500 0.0109
v 0.3384 0.1900 0.0109
v 0.3328 -0.1500 0.0083
v 0.3328 0.1900 0.0083
v 0.3294 -0.1500 0.0031
v 0.3294 0.1900 0.0031
v 0.3294 -0.1500 -0.0031
v 0.3294 0.1900 -0.0031
v 0.3328 -0.1500 -0.0083
v 0.3328 0.1900 -0.0083
v 0.3384 -0.1500 -0.0109
v 0.3384 0.1900 -0.0109
v 0.3446 -0.1500 -0.0100
v 0.3446 0.1900 -0.0100
v 0.3493 -0.1500 -0.0059
v 0.3493 0.1900 -0.0059
v 0.3400 0.1900 0.0000
v 0.3400 -0.1500 0.0000
v 0.5180 -0.0100 0.0000
v 0.5180 0.0500 0.0000
v 0.5151 -0.0100 0.0097
v 0.5151 0.0500 0.0097
v 0.5075 -0.0100 0.0164
v 0.5075 0.0500 0.0164
v 0.4974 -0.0100 0.0178
v 0.4974 0.0500 0.0178
v 0.4882 -0.0100 0.0136
v 0.4882 0.0500 0.0136
v 0.4827 -0.0100 0.0051
v 0.4827 0.0500 0.0051
v 0.4827 -0.0100 -0.0051
v 0.4827 0.0500 -0.0051
v 0.4882 -0.0100 -0.0136
v 0.4882 0.0500 -0.0136
v 0.4974 -0.0100 -0.0178
v 0.4974 0.0500 -0.0178
v 0.5075 -0.0100 -0.0164
v 0.5075 0.0500 -0.0164
v 0.5151 -0.0100 -0.0097
v 0.5151 0.0500 -0.0097
v 0.5000 0.0500 0.0000
v 0.5000 -0.0100 0.0000
v 0.1700 -0.0150 0.0250
v 0.1700 -0.0030 0.0250
v 0.1700 0.0090 0.0250
v 0.1700 0.0210 0.0250
v 0.1700 0.0330 0.0250
v 0.1700 0.0450 0.0250
v 0.2180 -0.0150 0.0250
v 0.2180 -0.0030 0.0250
v 0.2180 0.0090 0.0250
v 0.2180 0.0210 0.0250
v 0.2180 0.0330 0.0250
v 0.2180 0.0450 0.0250
v 0.2660 -0.0150 0.0250
v 0.2660 -0.0030 0.0250
v 0.2660 0.0090 0.0250
v 0.2660 0.0210 0.0250
v 0.2660 0.0330 0.0250
v 0.2660 0.0450 0.0250
v 0.3140 -0.0150 0.0250
v 0.3140 -0.0030 0.0250
v 0.3140 0.0090 0.0250
v 0.3140 0.0210 0.0250
v 0.3140 0.0330 0.0250
v 0.3140 0.0450 0.0250
v 0.3620 -0.0150 0.0250
v 0.3620 -0.0030 0.0250
v 0.3620 0.0090 0.0250
v 0.3620 0.0210 0.0250
v 0.3620 0.0330 0.0250
v 0.3620 0.0450 0.0250
v 0.4100 -0.0150 0.0250
v 0.4100 -0.0030 0.0250
v 0.4100 0.0090 0.0250
v 0.4100 0.0210 0.0250
v 0.4100 0.0330 0.0250
v 0.4100 0.0450 0.0250
v 0.4100 -0.0150 -0.0250
v 0.4100 -0.0030 -0.0250
v 0.4100 0.0090 -0.0250
v 0.4100 0.0210 -0.0250
v 0.4100 0.0330 -0.0250
v 0.4100 0.0450 -0.0250
v 0.3620 -0.0150 -0.0250
v 0.3620 -0.0030 -0.0250
v 0.3620 0.0090 -0.0250
v 0.3620 0.0210 -0.0250
v 0.3620 0.0330 -0.0250
v 0.3620 0.0450 -0.0250
v 0.3140 -0.0150 -0.0250
v 0.3140 -0.0030 -0.0250
v 0.3140 0.0090 -0.0250
v 0.3140 0.0210 -0.0250
v 0.3140 0.0330 -0.0250
v 0.3140 0.0450 -0.0250
v 0.2660 -0.0150 -0.0250
v 0.2660 -0.0030 -0.0250
v 0.2660 0.0090 -0.0250
v 0.2660 0.0210 -0.0250
v 0.2660 0.0330 -0.0250
v 0.2660 0.0450 -0.0250
v 0.2180 -0.0150 -0.0250
v 0.2180 -0.0030 -0.0250
v 0.2180 0.0090 -0.0250
v 0.2180 0.0210 -0.0250
v 0.2180 0.0330 -0.0250
v 0.2180 0.0450 -0.0250
v 0.1700 -0.0150 -0.0250
v 0.1700 -0.0030 -0.0250
v 0.1700 0.0090 -0.0250
v 0.1700 0.0210 -0.0250
v 0.1700 0.0330 -0.0250
v 0.1700 0.0450 -0.0250
v 0.1700 -0.0150 -0.0250
v 0.1700 -0.0030 -0.0250
v 0.1700 0.0090 -0.0250
v 0.1700 0.0210 -0.0250
v 0.1700 0.0330 -0.0250
v 0.1700 0.0450 -0.0250
v 0.1700 -0.0150 -0.0150
v 0.1700 -0.0030 -0.0150
v 0.1700 0.0090 -0.0150
v 0.1700 0.0210 -0.0150
v 0.1700 0.0330 -0.0150
v 0.1700 0.0450 -0.0150
v 0.1700 -0.0150 -0.0050
v 0.1700 -0.0030 -0.0050
v 0.1700 0.0090 -0.0050
v 0.1700 0.0210 -0.0050
v 0.1700 0.0330 -0.0050
v 0.1700 0.0450 -0.0050
v 0.1700 -0.0150 0.0050
v 0.1700 -0.0030 0.0050
v 0.1700 0.0090 0.0050
v 0.1700 0.0210 0.0050
v 0.1700 0.0330 0.0050
v 0.1700 0.0450 0.0050
v 0.1700 -0.0150 0.0150
v 0.1700 -0.0030 0.0150
v 0.1700 0.0090 0.0150
v 0.1700 0.0210 0.0150
v 0.1700 0.0330 0.0150
v 0.1700 0.0450 0.0150
v 0.1700 -0.0150 0.0250
v 0.1700 -0.0030 0.0250
v 0.1700 0.0090 0.0250
v 0.1700 0.0210 0.0250
v 0.1700 0.0330 0.0250
v 0.1700 0.0450 0.0250
v 0.4100 -0.0150 0.0250
v 0.4100 -0.0030 0.0250
v 0.4100 0.0090 0.0250
v 0.4100 0.0210 0.0250
v 0.4100 0.0330 0.0250
v 0.4100 0.0450 0.0250
v 0.4100 -0.0150 0.0150
v 0.4100 -0.0030 0.0150
v 0.4100 0.0090 0.0150
v 0.4100 0.0210 0.0150
v 0.4100 0.0330 0.0150
v 0.4100 0.0450 0.0150
v 0.4100 -0.0150 0.0050
v 0.4100 -0.0030 0.0050
v 0.4100 0.0090 0.0050
v 0.4100 0.0210 0.0050
v 0.4100 0.0330 0.0050
v 0.4100 0.0450 0.0050
v 0.4100 -0.0150 -0.0050
v 0.4100 -0.0030 -0.0050
v 0.4100 0.0090 -0.0050
v 0.4100 0.0210 -0.0050
v 0.4100 0.0330 -0.0050
v 0.4100 0.0450 -0.0050
v 0.4100 -0.0150 -0.0150
v 0.4100 -0.0030 -0.0150
v 0.4100 0.0090 -0.0150
v 0.4100 0.0210 -0.0150
v 0.4100 0.0330 -0.0150
v 0.4100 0.0450 -0.0150
v 0.4100 -0.0150 -0.0250
v 0.4100 -0.0030 -0.0250
v 0.4100 0.0090 -0.0250
v 0.4100 0.0210 -0.0250
v 0.4100 0.0330 -0.0250
v 0.4100 0.0450 -0.0250
v 0.1700 0.0450 -0.0250
v 0.1700 0.0450 -0.0150
v 0.1700 0.0450 -0.0050
v 0.1700 0.0450 0.0050
v 0.1700 0.0450 0.0150
v 0.1700 0.0450 0.0250
v 0.2180 0.0450 -0.0250
v 0.2180 0.0450 -0.0150
v 0.2180 0.0450 -0.0050
v 0.2180 0.0450 0.0050
v 0.2180 0.0450 0.0150
v 0.2180 0.0450 0.0250
v 0.2660 0.0450 -0.0250
v 0.2660 0.0450 -0.0150
v 0.2660 0.0450 -0.0050
v 0.2660 0.0450 0.0050
v 0.2660 0.0450 0.0150
v 0.2660 0.0450 0.0250
v 0.3140 0.0450 -0.0250
v 0.3140 0.0450 -0.0150
v 0.3140 0.0450 -0.0050
v 0.3140 0.0450 0.0050
v 0.3140 0.0450 0.0150
v 0.3140 0.0450 0.0250
v 0.3620 0.0450 -0.0250
v 0.3620 0.0450 -0.0150
v 0.3620 0.0450 -0.0050
v 0.3620 0.0450 0.0050
v 0.3620 0.0450 0.0150
v 0.3620 0.0450 0.0250
v 0.4100 0.0450 -0.0250
v 0.4100 0.0450 -0.0150
v 0.4100 0.0450 -0.0050
v 0.4100 0.0450 0.0050
v 0.4100 0.0450 0.0150
v 0.4100 0.0450 0.0250
v 0.1700 -0.0150 0.0250
v 0.1700 -0.0150 0.0150
v 0.1700 -0.0150 0.0050
v 0.1700 -0.0150 -0.0050
v 0.1700 -0.0150 -0.0150
v 0.1700 -0.0150 -0.0250
v 0.2180 -0.0150 0.0250
v 0.2180 -0.0150 0.0150
v 0.2180 -0.0150 0.0050
v 0.2180 -0.0150 -0.0050
v 0.2180 -0.0150 -0.0150
v 0.2180 -0.0150 -0.0250
v 0.2660 -0.0150 0.0250
v 0.2660 -0.0150 0.0150
v 0.2660 -0.0150 0.0050
v 0.2660 -0.0150 -0.0050
v 0.2660 -0.0150 -0.0150
v 0.2660 -0.0150 -0.0250
v 0.3140 -0.0150 0.0250
v 0.3140 -0.0150 0.0150
v 0.3140 -0.0150 0.0050
v 0.3140 -0.0150 -0.0050
v 0.3140 -0.0150 -0.0150
v 0.3140 -0.0150 -0.0250
v 0.3620 -0.0150 0.0250
v 0.3620 -0.0150 0.0150
v 0.3620 -0.0150 0.0050
v 0.3620 -0.0150 -0.0050
v 0.3620 -0.0150 -0.0150
v 0.3620 -0.0150 -0.0250
v 0.4100 -0.0150 0.0250
v 0.4100 -0.0150 0.0150
v 0.4100 -0.0150 0.0050
v 0.4100 -0.0150 -0.0050
v 0.4100 -0.0150 -0.0150
v 0.4100 -0.0150 -0.0250
v -0.3900 -0.0450 0.0225
v -0.3900 -0.0290 0.0225
v -0.3900 -0.0130 0.0225
v -0.3900 0.0030 0.0225
v -0.3900 0.0190 0.0225
v -0.3900 0.0350 0.0225
v -0.3460 -0.0450 0.0225
v -0.3460 -0.0290 0.0225
v -0.3460 -0.0130 0.0225
v -0.3460 0.0030 0.0225
v -0.3460 0.0190 0.0225
v -0.3460 0.0350 0.0225
v -0.3020 -0.0450 0.0225
v -0.3020 -0.0290 0.0225
v -0.3020 -0.0130 0.0225
v -0.3020 0.0030 0.0225
v -0.3020 0.0190 0.0225
v -0.3020 0.0350 0.0225
v -0.2580 -0.0450 0.0225
v -0.2580 -0.0290 0.0225
v -0.2580 -0.0130 0.0225
v -0.2580 0.0030 0.0225
v -0.2580 0.0190 0.0225
v -0.2580 0.0350 0.0225
v -0.2140 -0.0450 0.0225
v -0.2140 -0.0290 0.0225
v -0.2140 -0.0130 0.0225
v -0.2140 0.0030 0.0225
v -0.2140 0.0190 0.0225
v -0.2140 0.0350 0.0225
v -0.1700 -0.0450 0.0225
v -0.1700 -0.0290 0.0225
v -0.1700 -0.0130 0.0225
v -0.1700 0.0030 0.0225
v -0.1700 0.0190 0.0225
v -0.1700 0.0350 0.0225
v -0.1700 -0.0450 -0.0225
v -0.1700 -0.0290 -0.0225
v -0.1700 -0.0130 -0.0225
v -0.1700 0.0030 -0.0225
v -0.1700 0.0190 -0.0225
v -0.1700 0.0350 -0.0225
v -0.2140 -0.0450 -0.0225
v -0.2140 -0.0290 -0.0225
v -0.2140 -0.0130 -0.0225
v -0.2140 0.0030 -0.0225
v -0.2140 0.0190 -0.0225
v -0.2140 0.0350 -0.0225
v -0.2580 -0.0450 -0.0225
v -0.2580 -0.0290 -0.0225
v -0.2580 -0.0130 -0.0225
v -0.2580 0.0030 -0.0225
v -0.2580 0.0190 -0.0225
v -0.2580 0.0350 -0.0225
v -0.3020 -0.0450 -0.0225
v -0.3020 -0.0290 -0.0225
v -0.3020 -0.0130 -0.0225
v -0.3020 0.0030 -0.0225
v -0.3020 0.0190 -0.0225
v -0.3020 0.0350 -0.0225
v -0.3460 -0.0450 -0.0225
v -0.3460 -0.0290 -0.0225
v -0.3460 -0.0130 -0.0225
v -0.3460 0.0030 -0.0225
v -0.3460 0.0190 -0.0225
v -0.3460 0.0350 -0.0225
v -0.3900 -0.0450 -0.0225
v -0.3900 -0.0290 -0.0225
v -0.3900 -0.0130 -0.0225
v -0.3900 0.0030 -0.0225
v -0.3900 0.0190 -0.0225
v -0.3900 0.0350 -0.0225
v -0.3900 -0.0450 -0.0225
v -0.3900 -0.0290 -0.0225
v -0.3900 -0.0130 -0.0225
v -0.3900 0.0030 -0.0225
v -0.3900 0.0190 -0.0225
v -0.3900 0.0350 -0.0225
v -0.3900 -0.0450 -0.0135
v -0.3900 -0.0290 -0.0135
v -0.3900 -0.0130 -0.0135
v -0.3900 0.0030 -0.0135
v -0.3900 0.0190 -0.0135
v -0.3900 0.0350 -0.0135
v -0.3900 -0.0450 -0.0045
v -0.3900 -0.0290 -0.0045
v -0.3900 -0.0130 -0.0045
v -0.3900 0.0030 -0.0045
v -0.3900 0.0190 -0.0045
v -0.3900 0.0350 -0.0045
v -0.3900 -0.0450 0.0045
v -0.3900 -0.0290 0.0045
v -0.3900 -0.0130 0.0045
v -0.3900 0.0030 0.0045
v -0.3900 0.0190 0.0045
v -0.3900 0.0350 0.0045
v -0.3900 -0.0450 0.0135
v -0.3900 -0.0290 0.0135
v -0.3900 -0.0130 0.0135
v -0.3900 0.0030 0.0135
v -0.3900 0.0190 0.0135
v -0.3900 0.0350 0.0135
v -0.3900 -0.0450 0.0225
v -0.3900 -0.0290 0.0225
v -0.3900 -0.0130 0.0225
v -0.3900 0.0030 0.0225
v -0.3900 0.0190 0.0225
v -0.3900 0.0350 0.0225
v -0.1700 -0.0450 0.0225
v -0.1700 -0.0290 0.0225
v -0.1700 -0.0130 0.0225
v -0.1700 0.0030 0.0225
v -0.1700 0.0190 0.0225
v -0.1700 0.0350 0.0225
v -0.1700 -0.0450 0.0135
v -0.1700 -0.0290 0.0135
v -0.1700 -0.0130 0.0135
v -0.1700 0.0030 0.0135
v -0.1700 0.0190 0.0135
v -0.1700 0.0350 0.0135
v -0.1700 -0.0450 0.0045
v -0.1700 -0.0290 0.0045
v -0.1700 -0.0130 0.0045
v -0.1700 0.0030 0.0045
v -0.1700 0.0190 0.0045
v -0.1700 0.0350 0.0045
v -0.1700 -0.0450 -0.0045
v -0.1700 -0.0290 -0.0045
v -0.1700 -0.0130 -0.0045
v -0.1700 0.0030 -0.0045
v -0.1700 0.0190 -0.0045
v -0.1700 0.0350 -0.0045
v -0.1700 -0.0450 -0.0135
v -0.1700 -0.0290 -0.0135
v -0.1700 -0.0130 -0.0135
v -0.1700 0.0030 -0.0135
v -0.1700 0.0190 -0.0135
v -0.1700 0.0350 -0.0135
v -0.1700 -0.0450 -0.0225
v -0.1700 -0.0290 -0.0225
v -0.1700 -0.0130 -0.0225
v -0.1700 0.0030 -0.0225
v -0.1700 0.0190 -0.0225
v -0.1700 0.0350 -0.0225
v -0.3900 0.0350 -0.0225
v -0.3900 0.0350 -0.0135
v -0.3900 0.0350 -0.0045
v -0.3900 0.0350 0.0045
v -0.3900 0.0350 0.0135
v -0.3900 0.0350 0.0225
v -0.3460 0.0350 -0.0225
v -0.3460 0.0350 -0.0135
v -0.3460 0.0350 -0.0045
v -0.3460 0.0350 0.0045
v -0.3460 0.0350 0.0135
v -0.3460 0.0350 0.0225
v -0.3020 0.0350 -0.0225
v -0.3020 0.0350 -0.0135
v -0.3020 0.0350 -0.0045
v -0.3020 0.0350 0.0045
v -0.3020 0.0350 0.0135
v -0.3020 0.0350 0.0225
v -0.2580 0.0350 -0.0225
v -0.2580 0.0350 -0.0135
v -0.2580 0.0350 -0.0045
v -0.2580 0.0350 0.0045
v -0.2580 0.0350 0.0135
v -0.2580 0.0350 0.0225
v -0.2140 0.0350 -0.0225
v -0.2140 0.0350 -0.0135
v -0.2140 0.0350 -0.0045
v -0.2140 0.0350 0.0045
v -0.2140 0.0350 0.0135
v -0.2140 0.0350 0.0225
v -0.1700 0.0350 -0.0225
v -0.1700 0.0350 -0.0135
v -0.1700 0.0350 -0.0045
v -0.1700 0.0350 0.0045
v -0.1700 0.0350 0.0135
v -0.1700 0.0350 0.0225
v -0.3900 -0.0450 0.0225
v -0.3900 -0.0450 0.0135
v -0.3900 -0.0450 0.0045
v -0.3900 -0.0450 -0.0045
v -0.3900 -0.0450 -0.0135
v -0.3900 -0.0450 -0.0225
v -0.3460 -0.0450 0.0225
v -0.3460 -0.0450 0.0135
v -0.3460 -0.0450 0.0045
v -0.3460 -0.0450 -0.0045
v -0.3460 -0.0450 -0.0135
v -0.3460 -0.0450 -0.0225
v -0.3020 -0.0450 0.0225
v -0.3020 -0.0450 0.0135
v -0.3020 -0.0450 0.0045
v -0.3020 -0.0450 -0.0045
v -0.3020 -0.0450 -0.0135
v -0.3020 -0.0450 -0.0225
v -0.2580 -0.0450 0.0225
v -0.2580 -0.0450 0.0135
v -0.2580 -0.0450 0.0045
v -0.2580 -0.0450 -0.0045
v -0.2580 -0.0450 -0.0135
v -0.2580 -0.0450 -0.0225
v -0.2140 -0.0450 0.0225
v -0.2140 -0.0450 0.0135
v -0.2140 -0.0450 0.0045
v -0.2140 -0.0450 -0.0045
v -0.2140 -0.0450 -0.0135
v -0.2140 -0.0450 -0.0225
v -0.1700 -0.0450 0.0225
v -0.1700 -0.0450 0.0135
v -0.1700 -0.0450 0.0045
v -0.1700 -0.0450 -0.0045
v -0.1700 -0.0450 -0.0135
v -0.1700 -0.0450 -0.0225
v -0.4250 -0.0650 0.0225
v -0.4250 -0.0430 0.0225
v -0.4250 -0.0210 0.0225
v -0.4250 0.0010 0.0225
v -0.4250 0.0230 0.0225
v -0.4250 0.0450 0.0225
v -0.4150 -0.0650 0.0225
v -0.4150 -0.0430 0.0225
v -0.4150 -0.0210 0.0225
v -0.4150 0.0010 0.0225
v -0.4150 0.0230 0.0225
v -0.4150 0.0450 0.0225
v -0.4050 -0.0650 0.0225
v -0.4050 -0.0430 0.0225
v -0.4050 -0.0210 0.0225
v -0.4050 0.0010 0.0225
v -0.4050 0.0230 0.0225
v -0.4050 0.0450 0.0225
v -0.3950 -0.0650 0.0225
v -0.3950 -0.0430 0.0225
v -0.3950 -0.0210 0.0225
v -0.3950 0.0010 0.0225
v -0.3950 0.0230 0.0225
v -0.3950 0.0450 0.0225
v -0.3850 -0.0650 0.0225
v -0.3850 -0.0430 0.0225
v -0.3850 -0.0210 0.0225
v -0.3850 0.0010 0.0225
v -0.3850 0.0230 0.0225
v -0.3850 0.0450 0.0225
v -0.3750 -0.0650 0.0225
v -0.3750 -0.0430 0.0225
v -0.3750 -0.0210 0.0225
v -0.3750 0.0010 0.0225
v -0.3750 0.0230 0.0225
v -0.3750 0.0450 0.0225
v -0.3750 -0.0650 -0.0225
v -0.3750 -0.0430 -0.0225
v -0.3750 -0.0210 -0.0225
v -0.3750 0.0010 -0.0225
v -0.3750 0.0230 -0.0225
v -0.3750 0.0450 -0.0225
v -0.3850 -0.0650 -0.0225
v -0.3850 -0.0430 -0.0225
v -0.3850 -0.0210 -0.0225
v -0.3850 0.0010 -0.0225
v -0.3850 0.0230 -0.0225
v -0.3850 0.0450 -0.0225
v -0.3950 -0.0650 -0.0225
v -0.3950 -0.0430 -0.0225
v -0.3950 -0.0210 -0.0225
v -0.3950 0.0010 -0.0225
v -0.3950 0.0230 -0.0225
v -0.3950 0.0450 -0.0225
v -0.4050 -0.0650 -0.0225
v -0.4050 -0.0430 -0.0225
v -0.4050 -0.0210 -0.0225
v -0.4050 0.0010 -0.0225
v -0.4050 0.0230 -0.0225
v -0.4050 0.0450 -0.0225
v -0.4150 -0.0650 -0.0225
v -0.4150 -0.0430 -0.0225
v -0.4150 -0.0210 -0.0225
v -0.4150 0.0010 -0.0225
v -0.4150 0.0230 -0.0225
v -0.4150 0.0450 -0.0225
v -0.4250 -0.0650 -0.0225
v -0.4250 -0.0430 -0.0225
v -0.4250 -0.0210 -0.0225
v -0.4250 0.0010 -0.0225
v -0.4250 0.0230 -0.0225
v -0.4250 0.0450 -0.0225
v -0.4250 -0.0650 -0.0225
v -0.4250 -0.0430 -0.0225
v -0.4250 -0.0210 -0.0225
v -0.4250 0.0010 -0.0225
v -0.4250 0.0230 -0.0225
v -0.4250 0.0450 -0.0225
v -0.4250 -0.0650 -0.0135
v -0.4250 -0.0430 -0.0135
v -0.4250 -0.0210 -0.0135
v -0.4250 0.0010 -0.0135
v -0.4250 0.0230 -0.0135
v -0.4250 0.0450 -0.0135
v -0.4250 -0.0650 -0.0045
v -0.4250 -0.0430 -0.0045
v -0.4250 -0.0210 -0.0045
v -0.4250 0.0010 -0.0045
v -0.4250 0.0230 -0.0045
v -0.4250 0.0450 -0.0045
v -0.4250 -0.0650 0.0045
v -0.4250 -0.0430 0.0045
v -0.4250 -0.0210 0.0045
v -0.4250 0.0010 0.0045
v -0.4250 0.0230 0.0045
v -0.4250 0.0450 0.0045
v -0.4250 -0.0650 0.0135
v -0.4250 -0.0430 0.0135
v -0.4250 -0.0210 0.0135
v -0.4250 0.0010 0.0135
v -0.4250 0.0230 0.0135
v -0.4250 0.0450 0.0135
v -0.4250 -0.0650 0.0225
v -0.4250 -0.0430 0.0225
v -0.4250 -0.0210 0.0225
v -0.4250 0.0010 0.0225
v -0.4250 0.0230 0.0225
v -0.4250 0.0450 0.0225
v -0.3750 -0.0650 0.0225
v -0.3750 -0.0430 0.0225
v -0.3750 -0.0210 0.0225
v -0.3750 0.0010 0.0225
v -0.3750 0.0230 0.0225
v -0.3750 0.0450 0.0225
v -0.3750 -0.0650 0.0135
v -0.3750 -0.0430 0.0135
v -0.3750 -0.0210 0.0135
v -0.3750 0.0010 0.0135
v -0.3750 0.0230 0.0135
v -0.3750 0.0450 0.0135
v -0.3750 -0.0650 0.0045
v -0.3750 -0.0430 0.0045
v -0.3750 -0.0210 0.0045
v -0.3750 0.0010 0.0045
v -0.3750 0.0230 0.0045
v -0.3750 0.0450 0.0045
v -0.3750 -0.0650 -0.0045
v -0.3750 -0.0430 -0.0045
v -0.3750 -0.0210 -0.0045
v -0.3750 0.0010 -0.0045
v -0.3750 0.0230 -0.0045
v -0.3750 0.0450 -0.0045
v -0.3750 -0.0650 -0.0135
v -0.3750 -0.0430 -0.0135
v -0.3750 -0.0210 -0.0135
v -0.3750 0.0010 -0.0135
v -0.3750 0.0230 -0.0135
v -0.3750 0.0450 -0.0135
v -0.3750 -0.0650 -0.0225
v -0.3750 -0.0430 -0.0225
v -0.3750 -0.0210 -0.0225
v -0.3750 0.0010 -0.0225
v -0.3750 0.0230 -0.0225
v -0.3750 0.0450 -0.0225
v -0.4250 0.0450 -0.0225
v -0.4250 0.0450 -0.0135
v -0.4250 0.0450 -0.0045
v -0.4250 0.0450 0.0045
v -0.4250 0.0450 0.0135
v -0.4250 0.0450 0.0225
v -0.4150 0.0450 -0.0225
v -0.4150 0.0450 -0.0135
v -0.4150 0.0450 -0.0045
v -0.4150 0.0450 0.0045
v -0.4150 0.0450 0.0135
v -0.4150 0.0450 0.0225
v -0.4050 0.0450 -0.0225
v -0.4050 0.0450 -0.0135
v -0.4050 0.0450 -0.0045
v -0.4050 0.0450 0.0045
v -0.4050 0.0450 0.0135
v -0.4050 0.0450 0.0225
v -0.3950 0.0450 -0.0225
v -0.3950 0.0450 -0.0135
v -0.3950 0.0450 -0.0045
v -0.3950 0.0450 0.0045
v -0.3950 0.0450 0.0135
v -0.3950 0.0450 0.0225
v -0.3850 0.0450 -0.0225
v -0.3850 0.0450 -0.0135
v -0.3850 0.0450 -0.0045
v -0.3850 0.0450 0.0045
v -0.3850 0.0450 0.0135
v -0.3850 0.0450 0.0225
v -0.3750 0.0450 -0.0225
v -0.3750 0.0450 -0.0135
v -0.3750 0.0450 -0.0045
v -0.3750 0.0450 0.0045
v -0.3750 0.0450 0.0135
v -0.3750 0.0450 0.0225
v -0.4250 -0.0650 0.0225
v -0.4250 -0.0650 0.0135
v -0.4250 -0.0650 0.0045
v -0.4250 -0.0650 -0.0045
v -0.4250 -0.0650 -0.0135
v -0.4250 -0.0650 -0.0225
v -0.4150 -0.0650 0.0225
v -0.4150 -0.0650 0.0135
v -0.4150 -0.0650 0.0045
v -0.4150 -0.0650 -0.0045
v -0.4150 -0.0650 -0.0135
v -0.4150 -0.0650 -0.0225
v -0.4050 -0.0650 0.0225
v -0.4050 -0.0650 0.0135
v -0.4050 -0.0650 0.0045
v -0.4050 -0.0650 -0.0045
v -0.4050 -0.0650 -0.0135
v -0.4050 -0.0650 -0.0225
v -0.3950 -0.0650 0.0225
v -0.3950 -0.0650 0.0135
v -0.3950 -0.0650 0.0045
v -0.3950 -0.0650 -0.0045
v -0.3950 -0.0650 -0.0135
v -0.3950 -0.0650 -0.0225
v -0.3850 -0.0650 0.0225
v -0.3850 -0.0650 0.0135
v -0.3850 -0.0650 0.0045
v -0.3850 -0.0650 -0.0045
v -0.3850 -0.0650 -0.0135
v -0.3850 -0.0650 -0.0225
v -0.3750 -0.0650 0.0225
v -0.3750 -0.0650 0.0135
v -0.3750 -0.0650 0.0045
v -0.3750 -0.0650 -0.0045
v -0.3750 -0.0650 -0.0135
v -0.3750 -0.0650 -0.0225
v -0.0825 -0.1650 0.0200
v -0.0825 -0.1390 0.0200
v -0.0825 -0.1130 0.0200
v -0.0825 -0.0870 0.0200
v -0.0825 -0.0610 0.0200
v -0.0825 -0.0350 0.0200
v -0.0735 -0.1650 0.0200
v -0.0735 -0.1390 0.0200
v -0.0735 -0.1130 0.0200
v -0.0735 -0.0870 0.0200
v -0.0735 -0.0610 0.0200
v -0.0735 -0.0350 0.0200
v -0.0645 -0.1650 0.0200
v -0.0645 -0.1390 0.0200
v -0.0645 -0.1130 0.0200
v -0.0645 -0.0870 0.0200
v -0.0645 -0.0610 0.0200
v -0.0645 -0.0350 0.0200
v -0.0555 -0.1650 0.0200
v -0.0555 -0.1390 0.0200
v -0.0555 -0.1130 0.0200
v -0.0555 -0.0870 0.0200
v -0.0555 -0.0610 0.0200
v -0.0555 -0.0350 0.0200
v -0.0465 -0.1650 0.0200
v -0.0465 -0.1390 0.0200
v -0.0465 -0.1130 0.0200
v -0.0465 -0.0870 0.0200
v -0.0465 -0.0610 0.0200
v -0.0465 -0.0350 0.0200
v -0.0375 -0.1650 0.0200
v -0.0375 -0.1390 0.0200
v -0.0375 -0.1130 0.0200
v -0.0375 -0.0870 0.0200
v -0.0375 -0.0610 0.0200
v -0.0375 -0.0350 0.0200
v -0.0375 -0.1650 -0.0200
v -0.0375 -0.1390 -0.0200
v -0.0375 -0.1130 -0.0200
v -0.0375 -0.0870 -0.0200
v -0.0375 -0.0610 -0.0200
v -0.0375 -0.0350 -0.0200
v -0.0465 -0.1650 -0.0200
v -0.0465 -0.1390 -0.0200
v -0.0465 -0.1130 -0.0200
v -0.0465 -0.0870 -0.0200
v -0.0465 -0.0610 -0.0200
v -0.0465 -0.0350 -0.0200
v -0.0555 -0.1650 -0.0200
v -0.0555 -0.1390 -0.0200
v -0.0555 -0.1130 -0.0200
v -0.0555 -0.0870 -0.0200
v -0.0555 -0.0610 -0.0200
v -0.0555 -0.0350 -0.0200
v -0.0645 -0.1650 -0.0200
v -0.0645 -0.1390 -0.0200
v -0.0645 -0.1130 -0.0200
v -0.0645 -0.0870 -0.0200
v -0.0645 -0.0610 -0.0200
v -0.0645 -0.0350 -0.0200
v -0.0735 -0.1650 -0.0200
v -0.0735 -0.1390 -0.0200
v -0.0735 -0.1130 -0.0200
v -0.0735 -0.0870 -0.0200
v -0.0735 -0.0610 -0.0200
v -0.0735 -0.0350 -0.0200
v -0.0825 -0.1650 -0.0200
v -0.0825 -0.1390 -0.0200
v -0.0825 -0.1130 -0.0200
v -0.0825 -0.0870 -0.0200
v -0.0825 -0.0610 -0.0200
v -0.0825 -0.0350 -0.0200
v -0.0825 -0.1650 -0.0200
v -0.0825 -0.1390 -0.0200
v -0.0825 -0.1130 -0.0200
v -0.0825 -0.0870 -0.0200
v -0.0825 -0.0610 -0.0200
v -0.0825 -0.0350 -0.0200
v -0.0825 -0.1650 -0.0120
v -0.0825 -0.1390 -0.0120
v -0.0825 -0.1130 -0.0120
v -0.0825 -0.0870 -0.0120
v -0.0825 -0.0610 -0.0120
v -0.0825 -0.0350 -0.0120
v -0.0825 -0.1650 -0.0040
v -0.0825 -0.1390 -0.0040
v -0.0825 -0.1130 -0.0040
v -0.0825 -0.0870 -0.0040
v -0.0825 -0.0610 -0.0040
v -0.0825 -0.0350 -0.0040
v -0.0825 -0.1650 0.0040
v -0.0825 -0.1390 0.0040
v -0.0825 -0.1130 0.0040
v -0.0825 -0.0870 0.0040
v -0.0825 -0.0610 0.0040
v -0.0825 -0.0350 0.0040
v -0.0825 -0.1650 0.0120
v -0.0825 -0.1390 0.0120
v -0.0825 -0.1130 0.0120
v -0.0825 -0.0870 0.0120
v -0.0825 -0.0610 0.0120
v -0.0825 -0.0350 0.0120
v -0.0825 -0.1650 0.0200
v -0.0825 -0.1390 0.0200
v -0.0825 -0.1130 0.0200
v -0.0825 -0.0870 0.0200
v -0.0825 -0.0610 0.0200
v -0.0825 -0.0350 0.0200
v -0.0375 -0.1650 0.0200
v -0.0375 -0.1390 0.0200
v -0.0375 -0.1130 0.0200
v -0.0375 -0.0870 0.0200
v -0.0375 -0.0610 0.0200
v -0.0375 -0.0350 0.0200
v -0.0375 -0.1650 0.0120
v -0.0375 -0.1390 0.0120
v -0.0375 -0.1130 0.0120
v -0.0375 -0.0870 0.0120
v -0.0375 -0.0610 0.0120
v -0.0375 -0.0350 0.0120
v -0.0375 -0.1650 0.0040
v -0.0375 -0.1390 0.0040
v -0.0375 -0.1130 0.0040
v -0.0375 -0.0870 0.0040
v -0.0375 -0.0610 0.0040
v -0.0375 -0.0350 0.0040
v -0.0375 -0.1650 -0.0040
v -0.0375 -0.1390 -0.0040
v -0.0375 -0.1130 -0.0040
v -0.0375 -0.0870 -0.0040
v -0.0375 -0.0610 -0.0040
v -0.0375 -0.0350 -0.0040
v -0.0375 -0.1650 -0.0120
v -0.0375 -0.1390 -0.0120
v -0.0375 -0.1130 -0.0120
v -0.0375 -0.0870 -0.0120
v -0.0375 -0.0610 -0.0120
v -0.0375 -0.0350 -0.0120
v -0.0375 -0.1650 -0.0200
v -0.0375 -0.1390 -0.0200
v -0.0375 -0.1130 -0.0200
v -0.0375 -0.0870 -0.0200
v -0.0375 -0.0610 -0.0200
v -0.0375 -0.0350 -0.0200
v -0.0825 -0.0350 -0.0200
v -0.0825 -0.0350 -0.0120
v -0.0825 -0.0350 -0.0040
v -0.0825 -0.0350 0.0040
v -0.0825 -0.0350 0.0120
v -0.0825 -0.0350 0.0200
v -0.0735 -0.0350 -0.0200
v -0.0735 -0.0350 -0.0120
v -0.0735 -0.0350 -0.0040
v -0.0735 -0.0350 0.0040
v -0.0735 -0.0350 0.0120
v -0.0735 -0.0350 0.0200
v -0.0645 -0.0350 -0.0200
v -0.0645 -0.0350 -0.0120
v -0.0645 -0.0350 -0.0040
v -0.0645 -0.0350 0.0040
v -0.0645 -0.0350 0.0120
v -0.0645 -0.0350 0.0200
v -0.0555 -0.0350 -0.0200
v -0.0555 -0.0350 -0.0120
v -0.0555 -0.0350 -0.0040
v -0.0555 -0.0350 0.0040
v -0.0555 -0.0350 0.0120
v -0.0555 -0.0350 0.0200
v -0.0465 -0.0350 -0.0200
v -0.0465 -0.0350 -0.0120
v -0.0465 -0.0350 -0.0040
v -0.0465 -0.0350 0.0040
v -0.0465 -0.0350 0.0120
v -0.0465 -0.0350 0.0200
v -0.0375 -0.0350 -0.0200
v -0.0375 -0.0350 -0.0120
v -0.0375 -0.0350 -0.0040
v -0.0375 -0.0350 0.0040
v -0.0375 -0.0350 0.0120
v -0.0375 -0.0350 0.0200
v -0.0825 -0.1650 0.0200
v -0.0825 -0.1650 0.0120
v -0.0825 -0.1650 0.0040
v -0.0825 -0.1650 -0.0040
v -0.0825 -0.1650 -0.0120
v -0.0825 -0.1650 -0.0200
v -0.0735 -0.1650 0.0200
v -0.0735 -0.1650 0.0120
v -0.0735 -0.1650 0.0040
v -0.0735 -0.1650 -0.0040
v -0.0735 -0.1650 -0.0120
v -0.0735 -0.1650 -0.0200
v -0.0645 -0.1650 0.0200
v -0.0645 -0.1650 0.0120
v -0.0645 -0.1650 0.0040
v -0.0645 -0.1650 -0.0040
v -0.0645 -0.1650 -0.0120
v -0.0645 -0.1650 -0.0200
v -0.0555 -0.1650 0.0200
v -0.0555 -0.1650 0.0120
v -0.0555 -0.1650 0.0040
v -0.0555 -0.1650 -0.0040
v -0.0555 -0.1650 -0.0120
v -0.0555 -0.1650 -0.0200
v -0.0465 -0.1650 0.0200
v -0.0465 -0.1650 0.0120
v -0.0465 -0.1650 0.0040
v -0.0465 -0.1650 -0.0040
v -0.0465 -0.1650 -0.0120
v -0.0465 -0.1650 -0.0200
v -0.0375 -0.1650 0.0200
v -0.0375 -0.1650 0.0120
v -0.0375 -0.1650 0.0040
v -0.0375 -0.1650 -0.0040
v -0.0375 -0.1650 -0.0120
v -0.0375 -0.1650 -0.0200
v 0.0125 -0.2150 0.0175
v 0.0125 -0.1810 0.0175
v 0.0125 -0.1470 0.0175
v 0.0125 -0.1130 0.0175
v 0.0125 -0.0790 0.0175
v 0.0125 -0.0450 0.0175
v 0.0235 -0.2150 0.0175
v 0.0235 -0.1810 0.0175
v 0.0235 -0.1470 0.0175
v 0.0235 -0.1130 0.0175
v 0.0235 -0.0790 0.0175
v 0.0235 -0.0450 0.0175
v 0.0345 -0.2150 0.0175
v 0.0345 -0.1810 0.0175
v 0.0345 -0.1470 0.0175
v 0.0345 -0.1130 0.0175
v 0.0345 -0.0790 0.0175
v 0.0345 -0.0450 0.0175
v 0.0455 -0.2150 0.0175
v 0.0455 -0.1810 0.0175
v 0.0455 -0.1470 0.0175
v 0.0455 -0.1130 0.0175
v 0.0455 -0.0790 0.0175
v 0.0455 -0.0450 0.0175
v 0.0565 -0.2150 0.0175
v 0.0565 -0.1810 0.0175
v 0.0565 -0.1470 0.0175
v 0.0565 -0.1130 0.0175
v 0.0565 -0.0790 0.0175
v 0.0565 -0.0450 0.0175
v 0.0675 -0.2150 0.0175
v 0.0675 -0.1810 0.0175
v 0.0675 -0.1470 0.0175
v 0.0675 -0.1130 0.0175
v 0.0675 -0.0790 0.0175
v 0.0675 -0.0450 0.0175
v 0.0675 -0.2150 -0.0175
v 0.0675 -0.1810 -0.0175
v 0.0675 -0.1470 -0.0175
v 0.0675 -0.1130 -0.0175
v 0.0675 -0.0790 -0.0175
v 0.0675 -0.0450 -0.0175
v 0.0565 -0.2150 -0.0175
v 0.0565 -0.1810 -0.0175
v 0.0565 -0.1470 -0.0175
v 0.0565 -0.1130 -0.0175
v 0.0565 -0.0790 -0.0175
v 0.0565 -0.0450 -0.0175
v 0.0455 -0.2150 -0.0175
v 0.0455 -0.1810 -0.0175
v 0.0455 -0.1470 -0.0175
v 0.0455 -0.1130 -0.0175
v 0.0455 -0.0790 -0.0175
v 0.0455 -0.0450 -0.0175
v 0.0345 -0.2150 -0.0175
v 0.0345 -0.1810 -0.0175
v 0.0345 -0.1470 -0.0175
v 0.0345 -0.1130 -0.0175
v 0.0345 -0.0790 -0.0175
v 0.0345 -0.0450 -0.0175
v 0.0235 -0.2150 -0.0175
v 0.0235 -0.1810 -0.0175
v 0.0235 -0.1470 -0.0175
v 0.0235 -0.1130 -0.0175
v 0.0235 -0.0790 -0.0175
v 0.0235 -0.0450 -0.0175
v 0.0125 -0.2150 -0.0175
v 0.0125 -0.1810 -0.0175
v 0.0125 -0.1470 -0.0175
v 0.0125 -0.1130 -0.0175
v 0.0125 -0.0790 -0.0175
v 0.0125 -0.0450 -0.0175
v 0.0125 -0.2150 -0.0175
v 0.0125 -0.1810 -0.0175
v 0.0125 -0.1470 -0.0175
v 0.0125 -0.1130 -0.0175
v 0.0125 -0.0790 -0.0175
v 0.0125 -0.0450 -0.0175
v 0.0125 -0.2150 -0.0105
v 0.0125 -0.1810 -0.0105
v 0.0125 -0.1470 -0.0105
v 0.0125 -0.1130 -0.0105
v 0.0125 -0.0790 -0.0105
v 0.0125 -0.0450 -0.0105
v 0.0125 -0.2150 -0.0035
v 0.0125 -0.1810 -0.0035
v 0.0125 -0.1470 -0.0035
v 0.0125 -0.1130 -0.0035
v 0.0125 -0.0790 -0.0035
v 0.0125 -0.0450 -0.0035
v 0.0125 -0.2150 0.0035
v 0.0125 -0.1810 0.0035
v 0.0125 -0.1470 0.0035
v 0.0125 -0.1130 0.0035
v 0.0125 -0.0790 0.0035
v 0.0125 -0.0450 0.0035
v 0.0125 -0.2150 0.0105
v 0.0125 -0.1810 0.0105
v 0.0125 -0.1470 0.0105
v 0.0125 -0.1130 0.0105
v 0.0125 -0.0790 0.0105
v 0.0125 -0.0450 0.0105
v 0.0125 -0.2150 0.0175
v 0.0125 -0.1810 0.0175
v 0.0125 -0.1470 0.0175
v 0.0125 -0.1130 0.0175
v 0.0125 -0.0790 0.0175
v 0.0125 -0.0450 0.0175
v 0.0675 -0.2150 0.0175
v 0.0675 -0.1810 0.0175
v 0.0675 -0.1470 0.0175
v 0.0675 -0.1130 0.0175
v 0.0675 -0.0790 0.0175
v 0.0675 -0.0450 0.0175
v 0.0675 -0.2150 0.0105
v 0.0675 -0.1810 0.0105
v 0.0675 -0.1470 0.0105
v 0.0675 -0.1130 0.0105
v 0.0675 -0.0790 0.0105
v 0.0675 -0.0450 0.0105
v 0.0675 -0.2150 0.0035
v 0.0675 -0.1810 0.0035
v 0.0675 -0.1470 0.0035
v 0.0675 -0.1130 0.0035
v 0.0675 -0.0790 0.0035
v 0.0675 -0.0450 0.0035
v 0.0675 -0.2150 -0.0035
v 0.0675 -0.1810 -0.0035
v 0.0675 -0.1470 -0.0035
v 0.0675 -0.1130 -0.0035
v 0.0675 -0.0790 -0.0035
v 0.0675 -0.0450 -0.0035
v 0.0675 -0.2150 -0.0105
v 0.0675 -0.1810 -0.0105
v 0.0675 -0.1470 -0.0105
v 0.0675 -0.1130 -0.0105
v 0.0675 -0.0790 -0.0105
v 0.0675 -0.0450 -0.0105
v 0.0675 -0.2150 -0.0175
v 0.0675 -0.1810 -0.0175
v 0.0675 -0.1470 -0.0175
v 0.0675 -0.1130 -0.0175
v 0.0675 -0.0790 -0.0175
v 0.0675 -0.0450 -0.0175
v 0.0125 -0.0450 -0.0175
v 0.0125 -0.0450 -0.0105
v 0.0125 -0.0450 -0.0035
v 0.0125 -0.0450 0.0035
v 0.0125 -0.0450 0.0105
v 0.0125 -0.0450 0.0175
v 0.0235 -0.0450 -0.0175
v 0.0235 -0.0450 -0.0105
v 0.0235 -0.0450 -0.0035
v 0.0235 -0.0450 0.0035
v 0.0235 -0.0450 0.0105
v 0.0235 -0.0450 0.0175
v 0.0345 -0.0450 -0.0175
v 0.0345 -0.0450 -0.0105
v 0.0345 -0.0450 -0.0035
v 0.0345 -0.0450 0.0035
v 0.0345 -0.0450 0.0105
v 0.0345 -0.0450 0.0175
v 0.0455 -0.0450 -0.0175
v 0.0455 -0.0450 -0.0105
v 0.0455 -0.0450 -0.0035
v 0.0455 -0.0450 0.0035
v 0.0455 -0.0450 0.0105
v 0.0455 -0.0450 0.0175
v 0.0565 -0.0450 -0.0175
v 0.0565 -0.0450 -0.0105
v 0.0565 -0.0450 -0.0035
v 0.0565 -0.0450 0.0035
v 0.0565 -0.0450 0.0105
v 0.0565 -0.0450 0.0175
v 0.0675 -0.0450 -0.0175
v 0.0675 -0.0450 -0.0105
v 0.0675 -0.0450 -0.0035
v 0.0675 -0.0450 0.0035
v 0.0675 -0.0450 0.0105
v 0.0675 -0.0450 0.0175
v 0.0125 -0.2150 0.0175
v 0.0125 -0.2150 0.0105
v 0.0125 -0.2150 0.0035
v 0.0125 -0.2150 -0.0035
v 0.0125 -0.2150 -0.0105
v 0.0125 -0.2150 -0.0175
v 0.0235 -0.2150 0.0175
v 0.0235 -0.2150 0.0105
v 0.0235 -0.2150 0.0035
v 0.0235 -0.2150 -0.0035
v 0.0235 -0.2150 -0.0105
v 0.0235 -0.2150 -0.0175
v 0.0345 -0.2150 0.0175
v 0.0345 -0.2150 0.0105
v 0.0345 -0.2150 0.0035
v 0.0345 -0.2150 -0.0035
v 0.0345 -0.2150 -0.0105
v 0.0345 -0.2150 -0.0175
v 0.0455 -0.2150 0.0175
v 0.0455 -0.2150 0.0105
v 0.0455 -0.2150 0.0035
v 0.0455 -0.2150 -0.0035
v 0.0455 -0.2150 -0.0105
v 0.0455 -0.2150 -0.0175
v 0.0565 -0.2150 0.0175
v 0.0565 -0.2150 0.0105
v 0.0565 -0.2150 0.0035
v 0.0565 -0.2150 -0.0035
v 0.0565 -0.2150 -0.0105
v 0.0565 -0.2150 -0.0175
v 0.0675 -0.2150 0.0175
v 0.0675 -0.2150 0.0105
v 0.0675 -0.2150 0.0035
v 0.0675 -0.2150 -0.0035
v 0.0675 -0.2150 -0.0105
v 0.0675 -0.2150 -0.0175
v -0.0150 -0.0810 0.0150
v -0.0150 -0.0786 0.0150
v -0.0150 -0.0762 0.0150
v -0.0150 -0.0738 0.0150
v -0.0150 -0.0714 0.0150
v -0.0150 -0.0690 0.0150
v -0.0010 -0.0810 0.0150
v -0.0010 -0.0786 0.0150
v -0.0010 -0.0762 0.0150
v -0.0010 -0.0738 0.0150
v -0.0010 -0.0714 0.0150
v -0.0010 -0.0690 0.0150
v 0.0130 -0.0810 0.0150
v 0.0130 -0.0786 0.0150
v 0.0130 -0.0762 0.0150
v 0.0130 -0.0738 0.0150
v 0.0130 -0.0714 0.0150
v 0.0130 -0.0690 0.0150
v 0.0270 -0.0810 0.0150
v 0.0270 -0.0786 0.0150
v 0.0270 -0.0762 0.0150
v 0.0270 -0.0738 0.0150
v 0.0270 -0.0714 0.0150
v 0.0270 -0.0690 0.0150
v 0.0410 -0.0810 0.0150
v 0.0410 -0.0786 0.0150
v 0.0410 -0.0762 0.0150
v 0.0410 -0.0738 0.0150
v 0.0410 -0.0714 0.0150
v 0.0410 -0.0690 0.0150
v 0.0550 -0.0810 0.0150
v 0.0550 -0.0786 0.0150
v 0.0550 -0.0762 0.0150
v 0.0550 -0.0738 0.0150
v 0.0550 -0.0714 0.0150
v 0.0550 -0.0690 0.0150
v 0.0550 -0.0810 -0.0150
v 0.0550 -0.0786 -0.0150
v 0.0550 -0.0762 -0.0150
v 0.0550 -0.0738 -0.0150
v 0.0550 -0.0714 -0.0150
v 0.0550 -0.0690 -0.0150
v 0.0410 -0.0810 -0.0150
v 0.0410 -0.0786 -0.0150
v 0.0410 -0.0762 -0.0150
v 0.0410 -0.0738 -0.0150
v 0.0410 -0.0714 -0.0150
v 0.0410 -0.0690 -0.0150
v 0.0270 -0.0810 -0.0150
v 0.0270 -0.0786 -0.0150
v 0.0270 -0.0762 -0.0150
v 0.0270 -0.0738 -0.0150
v 0.0270 -0.0714 -0.0150
v 0.0270 -0.0690 -0.0150
v 0.0130 -0.0810 -0.0150
v 0.0130 -0.0786 -0.0150
v 0.0130 -0.0762 -0.0150
v 0.0130 -0.0738 -0.0150
v 0.0130 -0.0714 -0.0150
v 0.0130 -0.0690 -0.0150
v -0.0010 -0.0810 -0.0150
v -0.0010 -0.0786 -0.0150
v -0.0010 -0.0762 -0.0150
v -0.0010 -0.0738 -0.0150
v -0.0010 -0.0714 -0.0150
v -0.0010 -0.0690 -0.0150
v -0.0150 -0.0810 -0.0150
v -0.0150 -0.0786 -0.0150
v -0.0150 -0.0762 -0.0150
v -0.0150 -0.0738 -0.0150
v -0.0150 -0.0714 -0.0150
v -0.0150 -0.0690 -0.0150
v -0.0150 -0.0810 -0.0150
v -0.0150 -0.0786 -0.0150
v -0.0150 -0.0762 -0.0150
v -0.0150 -0.0738 -0.0150
v -0.0150 -0.0714 -0.0150
v -0.0150 -0.0690 -0.0150
v -0.0150 -0.0810 -0.0090
v -0.0150 -0.0786 -0.0090
v -0.0150 -0.0762 -0.0090
v -0.0150 -0.0738 -0.0090
v -0.0150 -0.0714 -0.0090
v -0.0150 -0.0690 -0.0090
v -0.0150 -0.0810 -0.0030
v -0.0150 -0.0786 -0.0030
v -0.0150 -0.0762 -0.0030
v -0.0150 -0.0738 -0.0030
v -0.0150 -0.0714 -0.0030
v -0.0150 -0.0690 -0.0030
v -0.0150 -0.0810 0.0030
v -0.0150 -0.0786 0.0030
v -0.0150 -0.0762 0.0030
v -0.0150 -0.0738 0.0030
v -0.0150 -0.0714 0.0030
v -0.0150 -0.0690 0.0030
v -0.0150 -0.0810 0.0090
v -0.0150 -0.0786 0.0090
v -0.0150 -0.0762 0.0090
v -0.0150 -0.0738 0.0090
v -0.0150 -0.0714 0.0090
v -0.0150 -0.0690 0.0090
v -0.0150 -0.0810 0.0150
v -0.0150 -0.0786 0.0150
v -0.0150 -0.0762 0.0150
v -0.0150 -0.0738 0.0150
v -0.0150 -0.0714 0.0150
v -0.0150 -0.0690 0.0150
v 0.0550 -0.0810 0.0150
v 0.0550 -0.0786 0.0150
v 0.0550 -0.0762 0.0150
v 0.0550 -0.0738 0.0150
v 0.0550 -0.0714 0.0150
v 0.0550 -0.0690 0.0150
v 0.0550 -0.0810 0.0090
v 0.0550 -0.0786 0.0090
v 0.0550 -0.0762 0.0090
v 0.0550 -0.0738 0.0090
v 0.0550 -0.0714 0.0090
v 0.0550 -0.0690 0.0090
v 0.0550 -0.0810 0.0030
v 0.0550 -0.0786 0.0030
v 0.0550 -0.0762 0.0030
v 0.0550 -0.0738 0.0030
v 0.0550 -0.0714 0.0030
v 0.0550 -0.0690 0.0030
v 0.0550 -0.0810 -0.0030
v 0.0550 -0.0786 -0.0030
v 0.0550 -0.0762 -0.0030
v 0.0550 -0.0738 -0.0030
v 0.0550 -0.0714 -0.0030
v 0.0550 -0.0690 -0.0030
v 0.0550 -0.0810 -0.0090
v 0.0550 -0.0786 -0.0090
v 0.0550 -0.0762 -0.0090
v 0.0550 -0.0738 -0.0090
v 0.0550 -0.0714 -0.0090
v 0.0550 -0.0690 -0.0090
v 0.0550 -0.0810 -0.0150
v 0.0550 -0.0786 -0.0150
v 0.0550 -0.0762 -0.0150
v 0.0550 -0.0738 -0.0150
v 0.0550 -0.0714 -0.0150
v 0.0550 -0.0690 -0.0150
v -0.0150 -0.0690 -0.0150
v -0.0150 -0.0690 -0.0090
v -0.0150 -0.0690 -0.0030
v -0.0150 -0.0690 0.0030
v -0.0150 -0.0690 0.0090
v -0.0150 -0.0690 0.0150
v -0.0010 -0.0690 -0.0150
v -0.0010 -0.0690 -0.0090
v -0.0010 -0.0690 -0.0030
v -0.0010 -0.0690 0.0030
v -0.0010 -0.0690 0.0090
v -0.0010 -0.0690 0.0150
v 0.0130 -0.0690 -0.0150
v 0.0130 -0.0690 -0.0090
v 0.0130 -0.0690 -0.0030
v 0.0130 -0.0690 0.0030
v 0.0130 -0.0690 0.0090
v 0.0130 -0.0690 0.0150
v 0.0270 -0.0690 -0.0150
v 0.0270 -0.0690 -0.0090
v 0.0270 -0.0690 -0.0030
v 0.0270 -0.0690 0.0030
v 0.0270 -0.0690 0.0090
v 0.0270 -0.0690 0.0150
v 0.0410 -0.0690 -0.0150
v 0.0410 -0.0690 -0.0090
v 0.0410 -0.0690 -0.0030
v 0.0410 -0.0690 0.0030
v 0.0410 -0.0690 0.0090
v 0.0410 -0.0690 0.0150
v 0.0550 -0.0690 -0.0150
v 0.0550 -0.0690 -0.0090
v 0.0550 -0.0690 -0.0030
v 0.0550 -0.0690 0.0030
v 0.0550 -0.0690 0.0090
v 0.0550 -0.0690 0.0150
v -0.0150 -0.0810 0.0150
v -0.0150 -0.0810 0.0090
v -0.0150 -0.0810 0.0030
v -0.0150 -0.0810 -0.0030
v -0.0150 -0.0810 -0.0090
v -0.0150 -0.0810 -0.0150
v -0.0010 -0.0810 0.0150
v -0.0010 -0.0810 0.0090
v -0.0010 -0.0810 0.0030
v -0.0010 -0.0810 -0.0030
v -0.0010 -0.0810 -0.0090
v -0.0010 -0.0810 -0.0150
v 0.0130 -0.0810 0.0150
v 0.0130 -0.0810 0.0090
v 0.0130 -0.0810 0.0030
v 0.0130 -0.0810 -0.0030
v 0.0130 -0.0810 -0.0090
v 0.0130 -0.0810 -0.0150
v 0.0270 -0.0810 0.0150
v 0.0270 -0.0810 0.0090
v 0.0270 -0.0810 0.0030
v 0.0270 -0.0810 -0.0030
v 0.0270 -0.0810 -0.0090
v 0.0270 -0.0810 -0.0150
v 0.0410 -0.0810 0.0150
v 0.0410 -0.0810 0.0090
v 0.0410 -0.0810 0.0030
v 0.0410 -0.0810 -0.0030
v 0.0410 -0.0810 -0.0090
v 0.0410 -0.0810 -0.0150
v 0.0550 -0.0810 0.0150
v 0.0550 -0.0810 0.0090
v 0.0550 -0.0810 0.0030
v 0.0550 -0.0810 -0.0030
v 0.0550 -0.0810 -0.0090
v 0.0550 -0.0810 -0.0150
v -0.1350 0.0425 0.0150
v -0.1350 0.0495 0.0150
v -0.1350 0.0565 0.0150
v -0.1350 0.0635 0.0150
v -0.1350 0.0705 0.0150
v -0.1350 0.0775 0.0150
v -0.1290 0.0425 0.0150
v -0.1290 0.0495 0.0150
v -0.1290 0.0565 0.0150
v -0.1290 0.0635 0.0150
v -0.1290 0.0705 0.0150
v -0.1290 0.0775 0.0150
v -0.1230 0.0425 0.0150
v -0.1230 0.0495 0.0150
v -0.1230 0.0565 0.0150
v -0.1230 0.0635 0.0150
v -0.1230 0.0705 0.0150
v -0.1230 0.0775 0.0150
v -0.1170 0.0425 0.0150
v -0.1170 0.0495 0.0150
v -0.1170 0.0565 0.0150
v -0.1170 0.0635 0.0150
v -0.1170 0.0705 0.0150
v -0.1170 0.0775 0.0150
v -0.1110 0.0425 0.0150
v -0.1110 0.0495 0.0150
v -0.1110 0.0565 0.0150
v -0.1110 0.0635 0.0150
v -0.1110 0.0705 0.0150
v -0.1110 0.0775 0.0150
v -0.1050 0.0425 0.0150
v -0.1050 0.0495 0.0150
v -0.1050 0.0565 0.0150
v -0.1050 0.0635 0.0150
v -0.1050 0.0705 0.0150
v -0.1050 0.0775 0.0150
v -0.1050 0.0425 -0.0150
v -0.1050 0.0495 -0.0150
v -0.1050 0.0565 -0.0150
v -0.1050 0.0635 -0.0150
v -0.1050 0.0705 -0.0150
v -0.1050 0.0775 -0.0150
v -0.1110 0.0425 -0.0150
v -0.1110 0.0495 -0.0150
v -0.1110 0.0565 -0.0150
v -0.1110 0.0635 -0.0150
v -0.1110 0.0705 -0.0150
v -0.1110 0.0775 -0.0150
v -0.1170 0.0425 -0.0150
v -0.1170 0.0495 -0.0150
v -0.1170 0.0565 -0.0150
v -0.1170 0.0635 -0.0150
v -0.1170 0.0705 -0.0150
v -0.1170 0.0775 -0.0150
v -0.1230 0.0425 -0.0150
v -0.1230 0.0495 -0.0150
v -0.1230 0.0565 -0.0150
v -0.1230 0.0635 -0.0150
v -0.1230 0.0705 -0.0150
v -0.1230 0.0775 -0.0150
v -0.1290 0.0425 -0.0150
v -0.1290 0.0495 -0.0150
v -0.1290 0.0565 -0.0150
v -0.1290 0.0635 -0.0150
v -0.1290 0.0705 -0.0150
v -0.1290 0.0775 -0.0150
v -0.1350 0.0425 -0.0150
v -0.1350 0.0495 -0.0150
v -0.1350 0.0565 -0.0150
v -0.1350 0.0635 -0.0150
v -0.1350 0.0705 -0.0150
v -0.1350 0.0775 -0.0150
v -0.1350 0.0425 -0.0150
v -0.1350 0.0495 -0.0150
v -0.1350 0.0565 -0.0150
v -0.1350 0.0635 -0.0150
v -0.1350 0.0705 -0.0150
v -0.1350 0.0775 -0.0150
v -0.1350 0.0425 -0.0090
v -0.1350 0.0495 -0.0090
v -0.1350 0.0565 -0.0090
v -0.1350 0.0635 -0.0090
v -0.1350 0.0705 -0.0090
v -0.1350 0.0775 -0.0090
v -0.1350 0.0425 -0.0030
v -0.1350 0.0495 -0.0030
v -0.1350 0.0565 -0.0030
v -0.1350 0.0635 -0.0030
v -0.1350 0.0705 -0.0030
v -0.1350 0.0775 -0.0030
v -0.1350 0.0425 0.0030
v -0.1350 0.0495 0.0030
v -0.1350 0.0565 0.0030
v -0.1350 0.0635 0.0030
v -0.1350 0.0705 0.0030
v -0.1350 0.0775 0.0030
v -0.1350 0.0425 0.0090
v -0.1350 0.0495 0.0090
v -0.1350 0.0565 0.0090
v -0.1350 0.0635 0.0090
v -0.1350 0.0705 0.0090
v -0.1350 0.0775 0.0090
v -0.1350 0.0425 0.0150
v -0.1350 0.0495 0.0150
v -0.1350 0.0565 0.0150
v -0.1350 0.0635 0.0150
v -0.1350 0.0705 0.0150
v -0.1350 0.0775 0.0150
v -0.1050 0.0425 0.0150
v -0.1050 0.0495 0.0150
v -0.1050 0.0565 0.0150
v -0.1050 0.0635 0.0150
v -0.1050 0.0705 0.0150
v -0.1050 0.0775 0.0150
v -0.1050 0.0425 0.0090
v -0.1050 0.0495 0.0090
v -0.1050 0.0565 0.0090
v -0.1050 0.0635 0.0090
v -0.1050 0.0705 0.0090
v -0.1050 0.0775 0.0090
v -0.1050 0.0425 0.0030
v -0.1050 0.0495 0.0030
v -0.1050 0.0565 0.0030
v -0.1050 0.0635 0.0030
v -0.1050 0.0705 0.0030
v -0.1050 0.0775 0.0030
v -0.1050 0.0425 -0.0030
v -0.1050 0.0495 -0.0030
v -0.1050 0.0565 -0.0030
v -0.1050 0.0635 -0.0030
v -0.1050 0.0705 -0.0030
v -0.1050 0.0775 -0.0030
v -0.1050 0.0425 -0.0090
v -0.1050 0.0495 -0.0090
v -0.1050 0.0565 -0.0090
v -0.1050 0.0635 -0.0090
v -0.1050 0.0705 -0.0090
v -0.1050 0.0775 -0.0090
v -0.1050 0.0425 -0.0150
v -0.1050 0.0495 -0.0150
v -0.1050 0.0565 -0.0150
v -0.1050 0.0635 -0.0150
v -0.1050 0.0705 -0.0150
v -0.1050 0.0775 -0.0150
v -0.1350 0.0775 -0.0150
v -0.1350 0.0775 -0.0090
v -0.1350 0.0775 -0.0030
v -0.1350 0.0775 0.0030
v -0.1350 0.0775 0.0090
v -0.1350 0.0775 0.0150
v -0.1290 0.0775 -0.0150
v -0.1290 0.0775 -0.0090
v -0.1290 0.0775 -0.0030
v -0.1290 0.0775 0.0030
v -0.1290 0.0775 0.0090
v -0.1290 0.0775 0.0150
v -0.1230 0.0775 -0.0150
v -0.1230 0.0775 -0.0090
v -0.1230 0.0775 -0.0030
v -0.1230 0.0775 0.0030
v -0.1230 0.0775 0.0090
v -0.1230 0.0775 0.0150
v -0.1170 0.0775 -0.0150
v -0.1170 0.0775 -0.0090
v -0.1170 0.0775 -0.0030
v -0.1170 0.0775 0.0030
v -0.1170 0.0775 0.0090
v -0.1170 0.0775 0.0150
v -0.1110 0.0775 -0.0150
v -0.1110 0.0775 -0.0090
v -0.1110 0.0775 -0.0030
v -0.1110 0.0775 0.0030
v -0.1110 0.0775 0.0090
v -0.1110 0.0775 0.0150
v -0.1050 0.0775 -0.0150
v -0.1050 0.0775 -0.0090
v -0.1050 0.0775 -0.0030
v -0.1050 0.0775 0.0030
v -0.1050 0.0775 0.0090
v -0.1050 0.0775 0.0150
v -0.1350 0.0425 0.0150
v -0.1350 0.0425 0.0090
v -0.1350 0.0425 0.0030
v -0.1350 0.0425 -0.0030
v -0.1350 0.0425 -0.0090
v -0.1350 0.0425 -0.0150
v -0.1290 0.0425 0.0150
v -0.1290 0.0425 0.0090
v -0.1290 0.0425 0.0030
v -0.1290 0.0425 -0.0030
v -0.1290 0.0425 -0.0090
v -0.1290 0.0425 -0.0150
v -0.1230 0.0425 0.0150
v -0.1230 0.0425 0.0090
v -0.1230 0.0425 0.0030
v -0.1230 0.0425 -0.0030
v -0.1230 0.0425 -0.0090
v -0.1230 0.0425 -0.0150
v -0.1170 0.0425 0.0150
v -0.1170 0.0425 0.0090
v -0.1170 0.0425 0.0030
v -0.1170 0.0425 -0.0030
v -0.1170 0.0425 -0.0090
v -0.1170 0.0425 -0.0150
v -0.1110 0.0425 0.0150
v -0.1110 0.0425 0.0090
v -0.1110 0.0425 0.0030
v -0.1110 0.0425 -0.0030
v -0.1110 0.0425 -0.0090
v -0.1110 0.0425 -0.0150
v -0.1050 0.0425 0.0150
v -0.1050 0.0425 0.0090
v -0.1050 0.0425 0.0030
v -0.1050 0.0425 -0.0030
v -0.1050 0.0425 -0.0090
v -0.1050 0.0425 -0.0150
v 0.3700 0.0400 0.0125
v 0.3700 0.0480 0.0125
v 0.3700 0.0560 0.0125
v 0.3700 0.0640 0.0125
v 0.3700 0.0720 0.0125
v 0.3700 0.0800 0.0125
v 0.3740 0.0400 0.0125
v 0.3740 0.0480 0.0125
v 0.3740 0.0560 0.0125
v 0.3740 0.0640 0.0125
v 0.3740 0.0720 0.0125
v 0.3740 0.0800 0.0125
v 0.3780 0.0400 0.0125
v 0.3780 0.0480 0.0125
v 0.3780 0.0560 0.0125
v 0.3780 0.0640 0.0125
v 0.3780 0.0720 0.0125
v 0.3780 0.0800 0.0125
v 0.3820 0.0400 0.0125
v 0.3820 0.0480 0.0125
v 0.3820 0.0560 0.0125
v 0.3820 0.0640 0.0125
v 0.3820 0.0720 0.0125
v 0.3820 0.0800 0.0125
v 0.3860 0.0400 0.0125
v 0.3860 0.0480 0.0125
v 0.3860 0.0560 0.0125
v 0.3860 0.0640 0.0125
v 0.3860 0.0720 0.0125
v 0.3860 0.0800 0.0125
v 0.3900 0.0400 0.0125
v 0.3900 0.0480 0.0125
v 0.3900 0.0560 0.0125
v 0.3900 0.0640 0.0125
v 0.3900 0.0720 0.0125
v 0.3900 0.0800 0.0125
v 0.3900 0.0400 -0.0125
v 0.3900 0.0480 -0.0125
v 0.3900 0.0560 -0.0125
v 0.3900 0.0640 -0.0125
v 0.3900 0.0720 -0.0125
v 0.3900 0.0800 -0.0125
v 0.3860 0.0400 -0.0125
v 0.3860 0.0480 -0.0125
v 0.3860 0.0560 -0.0125
v 0.3860 0.0640 -0.0125
v 0.3860 0.0720 -0.0125
v 0.3860 0.0800 -0.0125
v 0.3820 0.0400 -0.0125
v 0.3820 0.0480 -0.0125
v 0.3820 0.0560 -0.0125
v 0.3820 0.0640 -0.0125
v 0.3820 0.0720 -0.0125
v 0.3820 0.0800 -0.0125
v 0.3780 0.0400 -0.0125
v 0.3780 0.0480 -0.0125
v 0.3780 0.0560 -0.0125
v 0.3780 0.0640 -0.0125
v 0.3780 0.0720 -0.0125
v 0.3780 0.0800 -0.0125
v 0.3740 0.0400 -0.0125
v 0.3740 0.0480 -0.0125
v 0.3740 0.0560 -0.0125
v 0.3740 0.0640 -0.0125
v 0.3740 0.0720 -0.0125
v 0.3740 0.0800 -0.0125
v 0.3700 0.0400 -0.0125
v 0.3700 0.0480 -0.0125
v 0.3700 0.0560 -0.0125
v 0.3700 0.0640 -0.0125
v 0.3700 0.0720 -0.0125
v 0.3700 0.0800 -0.0125
v 0.3700 0.0400 -0.0125
v 0.3700 0.0480 -0.0125
v 0.3700 0.0560 -0.0125
v 0.3700 0.0640 -0.0125
v 0.3700 0.0720 -0.0125
v 0.3700 0.0800 -0.0125
v 0.3700 0.0400 -0.0075
v 0.3700 0.0480 -0.0075
v 0.3700 0.0560 -0.0075
v 0.3700 0.0640 -0.0075
v 0.3700 0.0720 -0.0075
v 0.3700 0.0800 -0.0075
v 0.3700 0.0400 -0.0025
v 0.3700 0.0480 -0.0025
v 0.3700 0.0560 -0.0025
v 0.3700 0.0640 -0.0025
v 0.3700 0.0720 -0.0025
v 0.3700 0.0800 -0.0025
v 0.3700 0.0400 0.0025
v 0.3700 0.0480 0.0025
v 0.3700 0.0560 0.0025
v 0.3700 0.0640 0.0025
v 0.3700 0.0720 0.0025
v 0.3700 0.0800 0.0025
v 0.3700 0.0400 0.0075
v 0.3700 0.0480 0.0075
v 0.3700 0.0560 0.0075
v 0.3700 0.0640 0.0075
v 0.3700 0.0720 0.0075
v 0.3700 0.0800 0.0075
v 0.3700 0.0400 0.0125
v 0.3700 0.0480 0.0125
v 0.3700 0.0560 0.0125
v 0.3700 0.0640 0.0125
v 0.3700 0.0720 0.0125
v 0.3700 0.0800 0.0125
v 0.3900 0.0400 0.0125
v 0.3900 0.0480 0.0125
v 0.3900 0.0560 0.0125
v 0.3900 0.0640 0.0125
v 0.3900 0.0720 0.0125
v 0.3900 0.0800 0.0125
v 0.3900 0.0400 0.0075
v 0.3900 0.0480 0.0075
v 0.3900 0.0560 0.0075
v 0.3900 0.0640 0.0075
v 0.3900 0.0720 0.0075
v 0.3900 0.0800 0.0075
v 0.3900 0.0400 0.0025
v 0.3900 0.0480 0.0025
v 0.3900 0.0560 0.0025
v 0.3900 0.0640 0.0025
v 0.3900 0.0720 0.0025
v 0.3900 0.0800 0.0025
v 0.3900 0.0400 -0.0025
v 0.3900 0.0480 -0.0025
v 0.3900 0.0560 -0.0025
v 0.3900 0.0640 -0.0025
v 0.3900 0.0720 -0.0025
v 0.3900 0.0800 -0.0025
v 0.3900 0.0400 -0.0075
v 0.3900 0.0480 -0.0075
v 0.3900 0.0560 -0.0075
v 0.3900 0.0640 -0.0075
v 0.3900 0.0720 -0.0075
v 0.3900 0.0800 -0.0075
v 0.3900 0.0400 -0.0125
v 0.3900 0.0480 -0.0125
v 0.3900 0.0560 -0.0125
v 0.3900 0.0640 -0.0125
v 0.3900 0.0720 -0.0125
v 0.3900 0.0800 -0.0125
v 0.3700 0.0800 -0.0125
v 0.3700 0.0800 -0.0075
v 0.3700 0.0800 -0.0025
v 0.3700 0.0800 0.0025
v 0.3700 0.0800 0.0075
v 0.3700 0.0800 0.0125
v 0.3740 0.0800 -0.0125
v 0.3740 0.0800 -0.0075
v 0.3740 0.0800 -0.0025
v 0.3740 0.0800 0.0025
v 0.3740 0.0800 0.0075
v 0.3740 0.0800 0.0125
v 0.3780 0.0800 -0.0125
v 0.3780 0.0800 -0.0075
v 0.3780 0.0800 -0.0025
v 0.3780 0.0800 0.0025
v 0.3780 0.0800 0.0075
v 0.3780 0.0800 0.0125
v 0.3820 0.0800 -0.0125
v 0.3820 0.0800 -0.0075
v 0.3820 0.0800 -0.0025
v 0.3820 0.0800 0.0025
v 0.3820 0.0800 0.0075
v 0.3820 0.0800 0.0125
v 0.3860 0.0800 -0.0125
v 0.3860 0.0800 -0.0075
v 0.3860 0.0800 -0.0025
v 0.3860 0.0800 0.0025
v 0.3860 0.0800 0.0075
v 0.3860 0.0800 0.0125
v 0.3900 0.0800 -0.0125
v 0.3900 0.0800 -0.0075
v 0.3900 0.0800 -0.0025
v 0.3900 0.0800 0.0025
v 0.3900 0.0800 0.0075
v 0.3900 0.0800 0.0125
v 0.3700 0.0400 0.0125
v 0.3700 0.0400 0.0075
v 0.3700 0.0400 0.0025
v 0.3700 0.0400 -0.0025
v 0.3700 0.0400 -0.0075
v 0.3700 0.0400 -0.0125
v 0.3740 0.0400 0.0125
v 0.3740 0.0400 0.0075
v 0.3740 0.0400 0.0025
v 0.3740 0.0400 -0.0025
v 0.3740 0.0400 -0.0075
v 0.3740 0.0400 -0.0125
v 0.3780 0.0400 0.0125
v 0.3780 0.0400 0.0075
v 0.3780 0.0400 0.0025
v 0.3780 0.0400 -0.0025
v 0.3780 0.0400 -0.0075
v 0.3780 0.0400 -0.0125
v 0.3820 0.0400 0.0125
v 0.3820 0.0400 0.0075
v 0.3820 0.0400 0.0025
v 0.3820 0.0400 -0.0025
v 0.3820 0.0400 -0.0075
v 0.3820 0.0400 -0.0125
v 0.3860 0.0400 0.0125
v 0.3860 0.0400 0.0075
v 0.3860 0.0400 0.0025
v 0.3860 0.0400 -0.0025
v 0.3860 0.0400 -0.0075
v 0.3860 0.0400 -0.0125
v 0.3900 0.0400 0.0125
v 0.3900 0.0400 0.0075
v 0.3900 0.0400 0.0025
v 0.3900 0.0400 -0.0025
v 0.3900 0.0400 -0.0075
v 0.3900 0.0400 -0.0125
v -0.2920 0.0400 0.0000
v -0.2920 0.0600 0.0000
v -0.2960 0.0400 0.0069
v -0.2960 0.0600 0.0069
v -0.3040 0.0400 0.0069
v -0.3040 0.0600 0.0069
v -0.3080 0.0400 0.0000
v -0.3080 0.0600 0.0000
v -0.3040 0.0400 -0.0069
v -0.3040 0.0600 -0.0069
v -0.2960 0.0400 -0.0069
v -0.2960 0.0600 -0.0069
v -0.3000 0.0600 0.0000
v -0.3000 0.0400 0.0000
v 0.3080 0.0400 0.0000
v 0.3080 0.0600 0.0000
v 0.3040 0.0400 0.0069
v 0.3040 0.0600 0.0069
v 0.2960 0.0400 0.0069
v 0.2960 0.0600 0.0069
v 0.2920 0.0400 0.0000
v 0.2920 0.0600 0.0000
v 0.2960 0.0400 -0.0069
v 0.2960 0.0600 -0.0069
v 0.3040 0.0400 -0.0069
v 0.3040 0.0600 -0.0069
v 0.3000 0.0600 0.0000
v 0.3000 0.0400 0.0000
f 1 2 8
f 1 8 7
f 2 3 9
f 2 9 8
f 3 4 10
f 3 10 9
f 4 5 11
f 4 11 10
f 5 6 12
f 5 12 11
f 7 8 14
f 7 14 13
f 8 9 15
f 8 15 14
f 9 10 16
f 9 16 15
f 10 11 17
f 10 17 16
f 11 12 18
f 11 18 17
f 13 14 20
f 13 20 19
f 14 15 21
f 14 21 20
f 15 16 22
f 15 22 21
f 16 17 23
f 16 23 22
f 17 18 24
f 17 24 23
f 19 20 26
f 19 26 25
f 20 21 27
f 20 27 26
f 21 22 28
f 21 28 27
f 22 23 29
f 22 29 28
f 23 24 30
f 23 30 29
f 25 26 32
f 25 32 31
f 26 27 33
f 26 33 32
f 27 28 34
f 27 34 33
f 28 29 35
f 28 35 34
f 29 30 36
f 29 36 35
f 37 38 44
f 37 44 43
f 38 39 45
f 38 45 44
f 39 40 46
f 39 46 45
f 40 41 47
f 40 47 46
f 41 42 48
f 41 48 47
f 43 44 50
f 43 50 49
f 44 45 51
f 44 51 50
f 45 46 52
f 45 52 51
f 46 47 53
f 46 53 52
f 47 48 54
f 47 54 53
f 49 50 56
f 49 56 55
f 50 51 57
f 50 57 56
f 51 52 58
f 51 58 57
f 52 53 59
f 52 59 58
f 53 54 60
f 53 60 59
f 55 56 62
f 55 62 61
f 56 57 63
f 56 63 62
f 57 58 64
f 57 64 63
f 58 59 65
f 58 65 64
f 59 60 66
f 59 66 65
f 61 62 68
f 61 68 67
f 62 63 69
f 62 69 68
f 63 64 70
f 63 70 69
f 64 65 71
f 64 71 70
f 65 66 72
f 65 72 71
f 73 74 80
f 73 80 79
f 74 75 81
f 74 81 80
f 75 76 82
f 75 82 81
f 76 77 83
f 76 83 82
f 77 78 84
f 77 84 83
f 79 80 86
f 79 86 85
f 80 81 87
f 80 87 86
f 81 82 88
f 81 88 87
f 82 83 89
f 82 89 88
f 83 84 90
f 83 90 89
f 85 86 92
f 85 92 91
f 86 87 93
f 86 93 92
f 87 88 94
f 87 94 93
f 88 89 95
f 88 95 94
f 89 90 96
f 89 96 95
f 91 92 98
f 91 98 97
f 92 93 99
f 92 99 98
f 93 94 100
f 93 100 99
f 94 95 101
f 94 101 100
f 95 96 102
f 95 102 101
f 97 98 104
f 97 104 103
f 98 99 105
f 98 105 104
f 99 100 106
f 99 106 105
f 100 101 107
f 100 107 106
f 101 102 108
f 101 108 107
f 109 110 116
f 109 116 115
f 110 111 117
f 110 117 116
f 111 112 118
f 111 118 117
f 112 113 119
f 112 119 118
f 113 114 120
f 113 120 119
f 115 116 122
f 115 122 121
f 116 117 123
f 116 123 122
f 117 118 124
f 117 124 123
f 118 119 125
f 118 125 124
f 119 120 126
f 119 126 125
f 121 122 128
f 121 128 127
f 122 123 129
f 122 129 128
f 123 124 130
f 123 130 129
f 124 125 131
f 124 131 130
f 125 126 132
f 125 132 131
f 127 128 134
f 127 134 133
f 128 129 135
f 128 135 134
f 129 130 136
f 129 136 135
f 130 131 137
f 130 137 136
f 131 132 138
f 131 138 137
f 133 134 140
f 133 140 139
f 134 135 141
f 134 141 140
f 135 136 142
f 135 142 141
f 136 137 143
f 136 143 142
f 137 138 144
f 137 144 143
f 145 146 152
f 145 152 151
f 146 147 153
f 146 153 152
f 147 148 154
f 147 154 153
f 148 149 155
f 148 155 154
f 149 150 156
f 149 156 155
f 151 152 158
f 151 158 157
f 152 153 159
f 152 159 158
f 153 154 160
f 153 160 159
f 154 155 161
f 154 161 160
f 155 156 162
f 155 162 161
f 157 158 164
f 157 164 163
f 158 159 165
f 158 165 164
f 159 160 166
f 159 166 165
f 160 161 167
f 160 167 166
f 161 162 168
f 161 168 167
f 163 164 170
f 163 170 169
f 164 165 171
f 164 171 170
f 165 166 172
f 165 172 171
f 166 167 173
f 166 173 172
f 167 168 174
f 167 174 173
f 169 170 176
f 169 176 175
f 170 171 177
f 170 177 176
f 171 172 178
f 171 178 177
f 172 173 179
f 172 179 178
f 173 174 180
f 173 180 179
f 181 182 188
f 181 188 187
f 182 183 189
f 182 189 188
f 183 184 190
f 183 190 189
f 184 185 191
f 184 191 190
f 185 186 192
f 185 192 191
f 187 188 194
f 187 194 193
f 188 189 195
f 188 195 194
f 189 190 196
f 189 196 195
f 190 191 197
f 190 197 196
f 191 192 198
f 191 198 197
f 193 194 200
f 193 200 199
f 194 195 201
f 194 201 200
f 195 196 202
f 195 202 201
f 196 197 203
f 196 203 202
f 197 198 204
f 197 204 203
f 199 200 206
f 199 206 205
f 200 201 207
f 200 207 206
f 201 202 208
f 201 208 207
f 202 203 209
f 202 209 208
f 203 204 210
f 203 210 209
f 205 206 212
f 205 212 211
f 206 207 213
f 206 213 212
f 207 208 214
f 207 214 213
f 208 209 215
f 208 215 214
f 209 210 216
f 209 216 215
f 217 219 220
f 217 220 218
f 219 221 222
f 219 222 220
f 221 223 224
f 221 224 222
f 223 225 226
f 223 226 224
f 225 227 228
f 225 228 226
f 227 229 230
f 227 230 228
f 229 231 232
f 229 232 230
f 231 233 234
f 231 234 232
f 233 235 236
f 233 236 234
f 235 237 238
f 235 238 236
f 237 217 218
f 237 218 238
f 239 218 220
f 240 219 217
f 239 220 222
f 240 221 219
f 239 222 224
f 240 223 221
f 239 224 226
f 240 225 223
f 239 226 228
f 240 227 225
f 239 228 230
f 240 229 227
f 239 230 232
f 240 231 229
f 239 232 234
f 240 233 231
f 239 234 236
f 240 235 233
f 239 236 238
f 240 237 235
f 239 238 218
f 240 217 237
f 241 243 244
f 241 244 242
f 243 245 246
f 243 246 244
f 245 247 248
f 245 248 246
f 247 249 250
f 247 250 248
f 249 251 252
f 249 252 250
f 251 253 254
f 251 254 252
f 253 255 256
f 253 256 254
f 255 257 258
f 255 258 256
f 257 259 260
f 257 260 258
f 259 261 262
f 259 262 260
f 261 241 242
f 261 242 262
f 263 242 244
f 264 243 241
f 263 244 246
f 264 245 243
f 263 246 248
f 264 247 245
f 263 248 250
f 264 249 247
f 263 250 252
f 264 251 249
f 263 252 254
f 264 253 251
f 263 254 256
f 264 255 253
f 263 256 258
f 264 257 255
f 263 258 260
f 264 259 257
f 263 260 262
f 264 261 259
f 263 262 242
f 264 241 261
f 265 266 272
f 265 272 271
f 266 267 273
f 266 273 272
f 267 268 274
f 267 274 273
f 268 269 275
f 268 275 274
f 269 270 276
f 269 276 275
f 271 272 278
f 271 278 277
f 272 273 279
f 272 279 278
f 273 274 280
f 273 280 279
f 274 275 281
f 274 281 280
f 275 276 282
f 275 282 281
f 277 278 284
f 277 284 283
f 278 279 285
f 278 285 284
f 279 280 286
f 279 286 285
f 280 281 287
f 280 287 286
f 281 282 288
f 281 288 287
f 283 284 290
f 283 290 289
f 284 285 291
f 284 291 290
f 285 286 292
f 285 292 291
f 286 287 293
f 286 293 292
f 287 288 294
f 287 294 293
f 289 290 296
f 289 296 295
f 290 291 297
f 290 297 296
f 291 292 298
f 291 298 297
f 292 293 299
f 292 299 298
f 293 294 300
f 293 300 299
f 301 302 308
f 301 308 307
f 302 303 309
f 302 309 308
f 303 304 310
f 303 310 309
f 304 305 311
f 304 311 310
f 305 306 312
f 305 312 311
f 307 308 314
f 307 314 313
f 308 309 315
f 308 315 314
f 309 310 316
f 309 316 315
f 310 311 317
f 310 317 316
f 311 312 318
f 311 318 317
f 313 314 320
f 313 320 319
f 314 315 321
f 314 321 320
f 315 316 322
f 315 322 321
f 316 317 323
f 316 323 322
f 317 318 324
f 317 324 323
f 319 320 326
f 319 326 325
f 320 321 327
f 320 327 326
f 321 322 328
f 321 328 327
f 322 323 329
f 322 329 328
f 323 324 330
f 323 330 329
f 325 326 332
f 325 332 331
f 326 327 333
f 326 333 332
f 327 328 334
f 327 334 333
f 328 329 335
f 328 335 334
f 329 330 336
f 329 336 335
f 337 338 344
f 337 344 343
f 338 339 345
f 338 345 344
f 339 340 346
f 339 346 345
f 340 341 347
f 340 347 346
f 341 342 348
f 341 348 347
f 343 344 350
f 343 350 349
f 344 345 351
f 344 351 350
f 345 346 352
f 345 352 351
f 346 347 353
f 346 353 352
f 347 348 354
f 347 354 353
f 349 350 356
f 349 356 355
f 350 351 357
f 350 357 356
f 351 352 358
f 351 358 357
f 352 353 359
f 352 359 358
f 353 354 360
f 353 360 359
f 355 356 362
f 355 362 361
f 356 357 363
f 356 363 362
f 357 358 364
f 357 364 363
f 358 359 365
f 358 365 364
f 359 360 366
f 359 366 365
f 361 362 368
f 361 368 367
f 362 363 369
f 362 369 368
f 363 364 370
f 363 370 369
f 364 365 371
f 364 371 370
f 365 366 372
f 365 372 371
f 373 374 380
f 373 380 379
f 374 375 381
f 374 381 380
f 375 376 382
f 375 382 381
f 376 377 383
f 376 383 382
f 377 378 384
f 377 384 383
f 379 380 386
f 379 386 385
f 380 381 387
f 380 387 386
f 381 382 388
f 381 388 387
f 382 383 389
f 382 389 388
f 383 384 390
f 383 390 389
f 385 386 392
f 385 392 391
f 386 387 393
f 386 393 392
f 387 388 394
f 387 394 393
f 388 389 395
f 388 395 394
f 389 390 396
f 389 396 395
f 391 392 398
f 391 398 397
f 392 393 399
f 392 399 398
f 393 394 400
f 393 400 399
f 394 395 401
f 394 401 400
f 395 396 402
f 395 402 401
f 397 398 404
f 397 404 403
f 398 399 405
f 398 405 404
f 399 400 406
f 399 406 405
f 400 401 407
f 400 407 406
f 401 402 408
f 401 408 407
f 409 410 416
f 409 416 415
f 410 411 417
f 410 417 416
f 411 412 418
f 411 418 417
f 412 413 419
f 412 419 418
f 413 414 420
f 413 420 419
f 415 416 422
f 415 422 421
f 416 417 423
f 416 423 422
f 417 418 424
f 417 424 423
f 418 419 425
f 418 425 424
f 419 420 426
f 419 426 425
f 421 422 428
f 421 428 427
f 422 423 429
f 422 429 428
f 423 424 430
f 423 430 429
f 424 425 431
f 424 431 430
f 425 426 432
f 425 432 431
f 427 428 434
f 427 434 433
f 428 429 435
f 428 435 434
f 429 430 436
f 429 436 435
f 430 431 437
f 430 437 436
f 431 432 438
f 431 438 437
f 433 434 440
f 433 440 439
f 434 435 441
f 434 441 440
f 435 436 442
f 435 442 441
f 436 437 443
f 436 443 442
f 437 438 444
f 437 444 443
f 445 446 452
f 445 452 451
f 446 447 453
f 446 453 452
f 447 448 454
f 447 454 453
f 448 449 455
f 448 455 454
f 449 450 456
f 449 456 455
f 451 452 458
f 451 458 457
f 452 453 459
f 452 459 458
f 453 454 460
f 453 460 459
f 454 455 461
f 454 461 460
f 455 456 462
f 455 462 461
f 457 458 464
f 457 464 463
f 458 459 465
f 458 465 464
f 459 460 466
f 459 466 465
f 460 461 467
f 460 467 466
f 461 462 468
f 461 468 467
f 463 464 470
f 463 470 469
f 464 465 471
f 464 471 470
f 465 466 472
f 465 472 471
f 466 467 473
f 466 473 472
f 467 468 474
f 467 474 473
f 469 470 476
f 469 476 475
f 470 471 477
f 470 477 476
f 471 472 478
f 471 478 477
f 472 473 479
f 472 479 478
f 473 474 480
f 473 480 479
f 481 482 488
f 481 488 487
f 482 483 489
f 482 489 488
f 483 484 490
f 483 490 489
f 484 485 491
f 484 491 490
f 485 486 492
f 485 492 491
f 487 488 494
f 487 494 493
f 488 489 495
f 488 495 494
f 489 490 496
f 489 496 495
f 490 491 497
f 490 497 496
f 491 492 498
f 491 498 497
f 493 494 500
f 493 500 499
f 494 495 501
f 494 501 500
f 495 496 502
f 495 502 501
f 496 497 503
f 496 503 502
f 497 498 504
f 497 504 503
f 499 500 506
f 499 506 505
f 500 501 507
f 500 507 506
f 501 502 508
f 501 508 507
f 502 503 509
f 502 509 508
f 503 504 510
f 503 510 509
f 505 506 512
f 505 512 511
f 506 507 513
f 506 513 512
f 507 508 514
f 507 514 513
f 508 509 515
f 508 515 514
f 509 510 516
f 509 516 515
f 517 518 524
f 517 524 523
f 518 519 525
f 518 525 524
f 519 520 526
f 519 526 525
f 520 521 527
f 520 527 526
f 521 522 528
f 521 528 527
f 523 524 530
f 523 530 529
f 524 525 531
f 524 531 530
f 525 526 532
f 525 532 531
f 526 527 533
f 526 533 532
f 527 528 534
f 527 534 533
f 529 530 536
f 529 536 535
f 530 531 537
f 530 537 536
f 531 532 538
f 531 538 537
f 532 533 539
f 532 539 538
f 533 534 540
f 533 540 539
f 535 536 542
f 535 542 541
f 536 537 543
f 536 543 542
f 537 538 544
f 537 544 543
f 538 539 545
f 538 545 544
f 539 540 546
f 539 546 545
f 541 542 548
f 541 548 547
f 542 543 549
f 542 549 548
f 543 544 550
f 543 550 549
f 544 545 551
f 544 551 550
f 545 546 552
f 545 552 551
f 553 554 560
f 553 560 559
f 554 555 561
f 554 561 560
f 555 556 562
f 555 562 561
f 556 557 563
f 556 563 562
f 557 558 564
f 557 564 563
f 559 560 566
f 559 566 565
f 560 561 567
f 560 567 566
f 561 562 568
f 561 568 567
f 562 563 569
f 562 569 568
f 563 564 570
f 563 570 569
f 565 566 572
f 565 572 571
f 566 567 573
f 566 573 572
f 567 568 574
f 567 574 573
f 568 569 575
f 568 575 574
f 569 570 576
f 569 576 575
f 571 572 578
f 571 578 577
f 572 573 579
f 572 579 578
f 573 574 580
f 573 580 579
f 574 575 581
f 574 581 580
f 575 576 582
f 575 582 581
f 577 578 584
f 577 584 583
f 578 579 585
f 578 585 584
f 579 580 586
f 579 586 585
f 580 581 587
f 580 587 586
f 581 582 588
f 581 588 587
f 589 590 596
f 589 596 595
f 590 591 597
f 590 597 596
f 591 592 598
f 591 598 597
f 592 593 599
f 592 599 598
f 593 594 600
f 593 600 599
f 595 596 602
f 595 602 601
f 596 597 603
f 596 603 602
f 597 598 604
f 597 604 603
f 598 599 605
f 598 605 604
f 599 600 606
f 599 606 605
f 601 602 608
f 601 608 607
f 602 603 609
f 602 609 608
f 603 604 610
f 603 610 609
f 604 605 611
f 604 611 610
f 605 606 612
f 605 612 611
f 607 608 614
f 607 614 613
f 608 609 615
f 608 615 614
f 609 610 616
f 609 616 615
f 610 611 617
f 610 617 616
f 611 612 618
f 611 618 617
f 613 614 620
f 613 620 619
f 614 615 621
f 614 621 620
f 615 616 622
f 615 622 621
f 616 617 623
f 616 623 622
f 617 618 624
f 617 624 623
f 625 626 632
f 625 632 631
f 626 627 633
f 626 633 632
f 627 628 634
f 627 634 633
f 628 629 635
f 628 635 634
f 629 630 636
f 629 636 635
f 631 632 638
f 631 638 637
f 632 633 639
f 632 639 638
f 633 634 640
f 633 640 639
f 634 635 641
f 634 641 640
f 635 636 642
f 635 642 641
f 637 638 644
f 637 644 643
f 638 639 645
f 638 645 644
f 639 640 646
f 639 646 645
f 640 641 647
f 640 647 646
f 641 642 648
f 641 648 647
f 643 644 650
f 643 650 649
f 644 645 651
f 644 651 650
f 645 646 652
f 645 652 651
f 646 647 653
f 646 653 652
f 647 648 654
f 647 654 653
f 649 650 656
f 649 656 655
f 650 651 657
f 650 657 656
f 651 652 658
f 651 658 657
f 652 653 659
f 652 659 658
f 653 654 660
f 653 660 659
f 661 662 668
f 661 668 667
f 662 663 669
f 662 669 668
f 663 664 670
f 663 670 669
f 664 665 671
f 664 671 670
f 665 666 672
f 665 672 671
f 667 668 674
f 667 674 673
f 668 669 675
f 668 675 674
f 669 670 676
f 669 676 675
f 670 671 677
f 670 677 676
f 671 672 678
f 671 678 677
f 673 674 680
f 673 680 679
f 674 675 681
f 674 681 680
f 675 676 682
f 675 682 681
f 676 677 683
f 676 683 682
f 677 678 684
f 677 684 683
f 679 680 686
f 679 686 685
f 680 681 687
f 680 687 686
f 681 682 688
f 681 688 687
f 682 683 689
f 682 689 688
f 683 684 690
f 683 690 689
f 685 686 692
f 685 692 691
f 686 687 693
f 686 693 692
f 687 688 694
f 687 694 693
f 688 689 695
f 688 695 694
f 689 690 696
f 689 696 695
f 697 698 704
f 697 704 703
f 698 699 705
f 698 705 704
f 699 700 706
f 699 706 705
f 700 701 707
f 700 707 706
f 701 702 708
f 701 708 707
f 703 704 710
f 703 710 709
f 704 705 711
f 704 711 710
f 705 706 712
f 705 712 711
f 706 707 713
f 706 713 712
f 707 708 714
f 707 714 713
f 709 710 716
f 709 716 715
f 710 711 717
f 710 717 716
f 711 712 718
f 711 718 717
f 712 713 719
f 712 719 718
f 713 714 720
f 713 720 719
f 715 716 722
f 715 722 721
f 716 717 723
f 716 723 722
f 717 718 724
f 717 724 723
f 718 719 725
f 718 725 724
f 719 720 726
f 719 726 725
f 721 722 728
f 721 728 727
f 722 723 729
f 722 729 728
f 723 724 730
f 723 730 729
f 724 725 731
f 724 731 730
f 725 726 732
f 725 732 731
f 733 734 740
f 733 740 739
f 734 735 741
f 734 741 740
f 735 736 742
f 735 742 741
f 736 737 743
f 736 743 742
f 737 738 744
f 737 744 743
f 739 740 746
f 739 746 745
f 740 741 747
f 740 747 746
f 741 742 748
f 741 748 747
f 742 743 749
f 742 749 748
f 743 744 750
f 743 750 749
f 745 746 752
f 745 752 751
f 746 747 753
f 746 753 752
f 747 748 754
f 747 754 753
f 748 749 755
f 748 755 754
f 749 750 756
f 749 756 755
f 751 752 758
f 751 758 757
f 752 753 759
f 752 759 758
f 753 754 760
f 753 760 759
f 754 755 761
f 754 761 760
f 755 756 762
f 755 762 761
f 757 758 764
f 757 764 763
f 758 759 765
f 758 765 764
f 759 760 766
f 759 766 765
f 760 761 767
f 760 767 766
f 761 762 768
f 761 768 767
f 769 770 776
f 769 776 775
f 770 771 777
f 770 777 776
f 771 772 778
f 771 778 777
f 772 773 779
f 772 779 778
f 773 774 780
f 773 780 779
f 775 776 782
f 775 782 781
f 776 777 783
f 776 783 782
f 777 778 784
f 777 784 783
f 778 779 785
f 778 785 784
f 779 780 786
f 779 786 785
f 781 782 788
f 781 788 787
f 782 783 789
f 782 789 788
f 783 784 790
f 783 790 789
f 784 785 791
f 784 791 790
f 785 786 792
f 785 792 791
f 787 788 794
f 787 794 793
f 788 789 795
f 788 795 794
f 789 790 796
f 789 796 795
f 790 791 797
f 790 797 796
f 791 792 798
f 791 798 797
f 793 794 800
f 793 800 799
f 794 795 801
f 794 801 800
f 795 796 802
f 795 802 801
f 796 797 803
f 796 803 802
f 797 798 804
f 797 804 803
f 805 806 812
f 805 812 811
f 806 807 813
f 806 813 812
f 807 808 814
f 807 814 813
f 808 809 815
f 808 815 814
f 809 810 816
f 809 816 815
f 811 812 818
f 811 818 817
f 812 813 819
f 812 819 818
f 813 814 820
f 813 820 819
f 814 815 821
f 814 821 820
f 815 816 822
f 815 822 821
f 817 818 824
f 817 824 823
f 818 819 825
f 818 825 824
f 819 820 826
f 819 826 825
f 820 821 827
f 820 827 826
f 821 822 828
f 821 828 827
f 823 824 830
f 823 830 829
f 824 825 831
f 824 831 830
f 825 826 832
f 825 832 831
f 826 827 833
f 826 833 832
f 827 828 834
f 827 834 833
f 829 830 836
f 829 836 835
f 830 831 837
f 830 837 836
f 831 832 838
f 831 838 837
f 832 833 839
f 832 839 838
f 833 834 840
f 833 840 839
f 841 842 848
f 841 848 847
f 842 843 849
f 842 849 848
f 843 844 850
f 843 850 849
f 844 845 851
f 844 851 850
f 845 846 852
f 845 852 851
f 847 848 854
f 847 854 853
f 848 849 855
f 848 855 854
f 849 850 856
f 849 856 855
f 850 851 857
f 850 857 856
f 851 852 858
f 851 858 857
f 853 854 860
f 853 860 859
f 854 855 861
f 854 861 860
f 855 856 862
f 855 862 861
f 856 857 863
f 856 863 862
f 857 858 864
f 857 864 863
f 859 860 866
f 859 866 865
f 860 861 867
f 860 867 866
f 861 862 868
f 861 868 867
f 862 863 869
f 862 869 868
f 863 864 870
f 863 870 869
f 865 866 872
f 865 872 871
f 866 867 873
f 866 873 872
f 867 868 874
f 867 874 873
f 868 869 875
f 868 875 874
f 869 870 876
f 869 876 875
f 877 878 884
f 877 884 883
f 878 879 885
f 878 885 884
f 879 880 886
f 879 886 885
f 880 881 887
f 880 887 886
f 881 882 888
f 881 888 887
f 883 884 890
f 883 890 889
f 884 885 891
f 884 891 890
f 885 886 892
f 885 892 891
f 886 887 893
f 886 893 892
f 887 888 894
f 887 894 893
f 889 890 896
f 889 896 895
f 890 891 897
f 890 897 896
f 891 892 898
f 891 898 897
f 892 893 899
f 892 899 898
f 893 894 900
f 893 900 899
f 895 896 902
f 895 902 901
f 896 897 903
f 896 903 902
f 897 898 904
f 897 904 903
f 898 899 905
f 898 905 904
f 899 900 906
f 899 906 905
f 901 902 908
f 901 908 907
f 902 903 909
f 902 909 908
f 903 904 910
f 903 910 909
f 904 905 911
f 904 911 910
f 905 906 912
f 905 912 911
f 913 914 920
f 913 920 919
f 914 915 921
f 914 921 920
f 915 916 922
f 915 922 921
f 916 917 923
f 916 923 922
f 917 918 924
f 917 924 923
f 919 920 926
f 919 926 925
f 920 921 927
f 920 927 926
f 921 922 928
f 921 928 927
f 922 923 929
f 922 929 928
f 923 924 930
f 923 930 929
f 925 926 932
f 925 932 931
f 926 927 933
f 926 933 932
f 927 928 934
f 927 934 933
f 928 929 935
f 928 935 934
f 929 930 936
f 929 936 935
f 931 932 938
f 931 938 937
f 932 933 939
f 932 939 938
f 933 934 940
f 933 940 939
f 934 935 941
f 934 941 940
f 935 936 942
f 935 942 941
f 937 938 944
f 937 944 943
f 938 939 945
f 938 945 944
f 939 940 946
f 939 946 945
f 940 941 947
f 940 947 946
f 941 942 948
f 941 948 947
f 949 950 956
f 949 956 955
f 950 951 957
f 950 957 956
f 951 952 958
f 951 958 957
f 952 953 959
f 952 959 958
f 953 954 960
f 953 960 959
f 955 956 962
f 955 962 961
f 956 957 963
f 956 963 962
f 957 958 964
f 957 964 963
f 958 959 965
f 958 965 964
f 959 960 966
f 959 966 965
f 961 962 968
f 961 968 967
f 962 963 969
f 962 969 968
f 963 964 970
f 963 970 969
f 964 965 971
f 964 971 970
f 965 966 972
f 965 972 971
f 967 968 974
f 967 974 973
f 968 969 975
f 968 975 974
f 969 970 976
f 969 976 975
f 970 971 977
f 970 977 976
f 971 972 978
f 971 978 977
f 973 974 980
f 973 980 979
f 974 975 981
f 974 981 980
f 975 976 982
f 975 982 981
f 976 977 983
f 976 983 982
f 977 978 984
f 977 984 983
f 985 986 992
f 985 992 991
f 986 987 993
f 986 993 992
f 987 988 994
f 987 994 993
f 988 989 995
f 988 995 994
f 989 990 996
f 989 996 995
f 991 992 998
f 991 998 997
f 992 993 999
f 992 999 998
f 993 994 1000
f 993 1000 999
f 994 995 1001
f 994 1001 1000
f 995 996 1002
f 995 1002 1001
f 997 998 1004
f 997 1004 1003
f 998 999 1005
f 998 1005 1004
f 999 1000 1006
f 999 1006 1005
f 1000 1001 1007
f 1000 1007 1006
f 1001 1002 1008
f 1001 1008 1007
f 1003 1004 1010
f 1003 1010 1009
f 1004 1005 1011
f 1004 1011 1010
f 1005 1006 1012
f 1005 1012 1011
f 1006 1007 1013
f 1006 1013 1012
f 1007 1008 1014
f 1007 1014 1013
f 1009 1010 1016
f 1009 1016 1015
f 1010 1011 1017
f 1010 1017 1016
f 1011 1012 1018
f 1011 1018 1017
f 1012 1013 1019
f 1012 1019 1018
f 1013 1014 1020
f 1013 1020 1019
f 1021 1022 1028
f 1021 1028 1027
f 1022 1023 1029
f 1022 1029 1028
f 1023 1024 1030
f 1023 1030 1029
f 1024 1025 1031
f 1024 1031 1030
f 1025 1026 1032
f 1025 1032 1031
f 1027 1028 1034
f 1027 1034 1033
f 1028 1029 1035
f 1028 1035 1034
f 1029 1030 1036
f 1029 1036 1035
f 1030 1031 1037
f 1030 1037 1036
f 1031 1032 1038
f 1031 1038 1037
f 1033 1034 1040
f 1033 1040 1039
f 1034 1035 1041
f 1034 1041 1040
f 1035 1036 1042
f 1035 1042 1041
f 1036 1037 1043
f 1036 1043 1042
f 1037 1038 1044
f 1037 1044 1043
f 1039 1040 1046
f 1039 1046 1045
f 1040 1041 1047
f 1040 1047 1046
f 1041 1042 1048
f 1041 1048 1047
f 1042 1043 1049
f 1042 1049 1048
f 1043 1044 1050
f 1043 1050 1049
f 1045 1046 1052
f 1045 1052 1051
f 1046 1047 1053
f 1046 1053 1052
f 1047 1048 1054
f 1047 1054 1053
f 1048 1049 1055
f 1048 1055 1054
f 1049 1050 1056
f 1049 1056 1055
f 1057 1058 1064
f 1057 1064 1063
f 1058 1059 1065
f 1058 1065 1064
f 1059 1060 1066
f 1059 1066 1065
f 1060 1061 1067
f 1060 1067 1066
f 1061 1062 1068
f 1061 1068 1067
f 1063 1064 1070
f 1063 1070 1069
f 1064 1065 1071
f 1064 1071 1070
f 1065 1066 1072
f 1065 1072 1071
f 1066 1067 1073
f 1066 1073 1072
f 1067 1068 1074
f 1067 1074 1073
f 1069 1070 1076
f 1069 1076 1075
f 1070 1071 1077
f 1070 1077 1076
f 1071 1072 1078
f 1071 1078 1077
f 1072 1073 1079
f 1072 1079 1078
f 1073 1074 1080
f 1073 1080 1079
f 1075 1076 1082
f 1075 1082 1081
f 1076 1077 1083
f 1076 1083 1082
f 1077 1078 1084
f 1077 1084 1083
f 1078 1079 1085
f 1078 1085 1084
f 1079 1080 1086
f 1079 1086 1085
f 1081 1082 1088
f 1081 1088 1087
f 1082 1083 1089
f 1082 1089 1088
f 1083 1084 1090
f 1083 1090 1089
f 1084 1085 1091
f 1084 1091 1090
f 1085 1086 1092
f 1085 1092 1091
f 1093 1094 1100
f 1093 1100 1099
f 1094 1095 1101
f 1094 1101 1100
f 1095 1096 1102
f 1095 1102 1101
f 1096 1097 1103
f 1096 1103 1102
f 1097 1098 1104
f 1097 1104 1103
f 1099 1100 1106
f 1099 1106 1105
f 1100 1101 1107
f 1100 1107 1106
f 1101 1102 1108
f 1101 1108 1107
f 1102 1103 1109
f 1102 1109 1108
f 1103 1104 1110
f 1103 1110 1109
f 1105 1106 1112
f 1105 1112 1111
f 1106 1107 1113
f 1106 1113 1112
f 1107 1108 1114
f 1107 1114 1113
f 1108 1109 1115
f 1108 1115 1114
f 1109 1110 1116
f 1109 1116 1115
f 1111 1112 1118
f 1111 1118 1117
f 1112 1113 1119
f 1112 1119 1118
f 1113 1114 1120
f 1113 1120 1119
f 1114 1115 1121
f 1114 1121 1120
f 1115 1116 1122
f 1115 1122 1121
f 1117 1118 1124
f 1117 1124 1123
f 1118 1119 1125
f 1118 1125 1124
f 1119 1120 1126
f 1119 1126 1125
f 1120 1121 1127
f 1120 1127 1126
f 1121 1122 1128
f 1121 1128 1127
f 1129 1130 1136
f 1129 1136 1135
f 1130 1131 1137
f 1130 1137 1136
f 1131 1132 1138
f 1131 1138 1137
f 1132 1133 1139
f 1132 1139 1138
f 1133 1134 1140
f 1133 1140 1139
f 1135 1136 1142
f 1135 1142 1141
f 1136 1137 1143
f 1136 1143 1142
f 1137 1138 1144
f 1137 1144 1143
f 1138 1139 1145
f 1138 1145 1144
f 1139 1140 1146
f 1139 1146 1145
f 1141 1142 1148
f 1141 1148 1147
f 1142 1143 1149
f 1142 1149 1148
f 1143 1144 1150
f 1143 1150 1149
f 1144 1145 1151
f 1144 1151 1150
f 1145 1146 1152
f 1145 1152 1151
f 1147 1148 1154
f 1147 1154 1153
f 1148 1149 1155
f 1148 1155 1154
f 1149 1150 1156
f 1149 1156 1155
f 1150 1151 1157
f 1150 1157 1156
f 1151 1152 1158
f 1151 1158 1157
f 1153 1154 1160
f 1153 1160 1159
f 1154 1155 1161
f 1154 1161 1160
f 1155 1156 1162
f 1155 1162 1161
f 1156 1157 1163
f 1156 1163 1162
f 1157 1158 1164
f 1157 1164 1163
f 1165 1166 1172
f 1165 1172 1171
f 1166 1167 1173
f 1166 1173 1172
f 1167 1168 1174
f 1167 1174 1173
f 1168 1169 1175
f 1168 1175 1174
f 1169 1170 1176
f 1169 1176 1175
f 1171 1172 1178
f 1171 1178 1177
f 1172 1173 1179
f 1172 1179 1178
f 1173 1174 1180
f 1173 1180 1179
f 1174 1175 1181
f 1174 1181 1180
f 1175 1176 1182
f 1175 1182 1181
f 1177 1178 1184
f 1177 1184 1183
f 1178 1179 1185
f 1178 1185 1184
f 1179 1180 1186
f 1179 1186 1185
f 1180 1181 1187
f 1180 1187 1186
f 1181 1182 1188
f 1181 1188 1187
f 1183 1184 1190
f 1183 1190 1189
f 1184 1185 1191
f 1184 1191 1190
f 1185 1186 1192
f 1185 1192 1191
f 1186 1187 1193
f 1186 1193 1192
f 1187 1188 1194
f 1187 1194 1193
f 1189 1190 1196
f 1189 1196 1195
f 1190 1191 1197
f 1190 1197 1196
f 1191 1192 1198
f 1191 1198 1197
f 1192 1193 1199
f 1192 1199 1198
f 1193 1194 1200
f 1193 1200 1199
f 1201 1202 1208
f 1201 1208 1207
f 1202 1203 1209
f 1202 1209 1208
f 1203 1204 1210
f 1203 1210 1209
f 1204 1205 1211
f 1204 1211 1210
f 1205 1206 1212
f 1205 1212 1211
f 1207 1208 1214
f 1207 1214 1213
f 1208 1209 1215
f 1208 1215 1214
f 1209 1210 1216
f 1209 1216 1215
f 1210 1211 1217
f 1210 1217 1216
f 1211 1212 1218
f 1211 1218 1217
f 1213 1214 1220
f 1213 1220 1219
f 1214 1215 1221
f 1214 1221 1220
f 1215 1216 1222
f 1215 1222 1221
f 1216 1217 1223
f 1216 1223 1222
f 1217 1218 1224
f 1217 1224 1223
f 1219 1220 1226
f 1219 1226 1225
f 1220 1221 1227
f 1220 1227 1226
f 1221 1222 1228
f 1221 1228 1227
f 1222 1223 1229
f 1222 1229 1228
f 1223 1224 1230
f 1223 1230 1229
f 1225 1226 1232
f 1225 1232 1231
f 1226 1227 1233
f 1226 1233 1232
f 1227 1228 1234
f 1227 1234 1233
f 1228 1229 1235
f 1228 1235 1234
f 1229 1230 1236
f 1229 1236 1235
f 1237 1238 1244
f 1237 1244 1243
f 1238 1239 1245
f 1238 1245 1244
f 1239 1240 1246
f 1239 1246 1245
f 1240 1241 1247
f 1240 1247 1246
f 1241 1242 1248
f 1241 1248 1247
f 1243 1244 1250
f 1243 1250 1249
f 1244 1245 1251
f 1244 1251 1250
f 1245 1246 1252
f 1245 1252 1251
f 1246 1247 1253
f 1246 1253 1252
f 1247 1248 1254
f 1247 1254 1253
f 1249 1250 1256
f 1249 1256 1255
f 1250 1251 1257
f 1250 1257 1256
f 1251 1252 1258
f 1251 1258 1257
f 1252 1253 1259
f 1252 1259 1258
f 1253 1254 1260
f 1253 1260 1259
f 1255 1256 1262
f 1255 1262 1261
f 1256 1257 1263
f 1256 1263 1262
f 1257 1258 1264
f 1257 1264 1263
f 1258 1259 1265
f 1258 1265 1264
f 1259 1260 1266
f 1259 1266 1265
f 1261 1262 1268
f 1261 1268 1267
f 1262 1263 1269
f 1262 1269 1268
f 1263 1264 1270
f 1263 1270 1269
f 1264 1265 1271
f 1264 1271 1270
f 1265 1266 1272
f 1265 1272 1271
f 1273 1274 1280
f 1273 1280 1279
f 1274 1275 1281
f 1274 1281 1280
f 1275 1276 1282
f 1275 1282 1281
f 1276 1277 1283
f 1276 1283 1282
f 1277 1278 1284
f 1277 1284 1283
f 1279 1280 1286
f 1279 1286 1285
f 1280 1281 1287
f 1280 1287 1286
f 1281 1282 1288
f 1281 1288 1287
f 1282 1283 1289
f 1282 1289 1288
f 1283 1284 1290
f 1283 1290 1289
f 1285 1286 1292
f 1285 1292 1291
f 1286 1287 1293
f 1286 1293 1292
f 1287 1288 1294
f 1287 1294 1293
f 1288 1289 1295
f 1288 1295 1294
f 1289 1290 1296
f 1289 1296 1295
f 1291 1292 1298
f 1291 1298 1297
f 1292 1293 1299
f 1292 1299 1298
f 1293 1294 1300
f 1293 1300 1299
f 1294 1295 1301
f 1294 1301 1300
f 1295 1296 1302
f 1295 1302 1301
f 1297 1298 1304
f 1297 1304 1303
f 1298 1299 1305
f 1298 1305 1304
f 1299 1300 1306
f 1299 1306 1305
f 1300 1301 1307
f 1300 1307 1306
f 1301 1302 1308
f 1301 1308 1307
f 1309 1310 1316
f 1309 1316 1315
f 1310 1311 1317
f 1310 1317 1316
f 1311 1312 1318
f 1311 1318 1317
f 1312 1313 1319
f 1312 1319 1318
f 1313 1314 1320
f 1313 1320 1319
f 1315 1316 1322
f 1315 1322 1321
f 1316 1317 1323
f 1316 1323 1322
f 1317 1318 1324
f 1317 1324 1323
f 1318 1319 1325
f 1318 1325 1324
f 1319 1320 1326
f 1319 1326 1325
f 1321 1322 1328
f 1321 1328 1327
f 1322 1323 1329
f 1322 1329 1328
f 1323 1324 1330
f 1323 1330 1329
f 1324 1325 1331
f 1324 1331 1330
f 1325 1326 1332
f 1325 1332 1331
f 1327 1328 1334
f 1327 1334 1333
f 1328 1329 1335
f 1328 1335 1334
f 1329 1330 1336
f 1329 1336 1335
f 1330 1331 1337
f 1330 1337 1336
f 1331 1332 1338
f 1331 1338 1337
f 1333 1334 1340
f 1333 1340 1339
f 1334 1335 1341
f 1334 1341 1340
f 1335 1336 1342
f 1335 1342 1341
f 1336 1337 1343
f 1336 1343 1342
f 1337 1338 1344
f 1337 1344 1343
f 1345 1346 1352
f 1345 1352 1351
f 1346 1347 1353
f 1346 1353 1352
f 1347 1348 1354
f 1347 1354 1353
f 1348 1349 1355
f 1348 1355 1354
f 1349 1350 1356
f 1349 1356 1355
f 1351 1352 1358
f 1351 1358 1357
f 1352 1353 1359
f 1352 1359 1358
f 1353 1354 1360
f 1353 1360 1359
f 1354 1355 1361
f 1354 1361 1360
f 1355 1356 1362
f 1355 1362 1361
f 1357 1358 1364
f 1357 1364 1363
f 1358 1359 1365
f 1358 1365 1364
f 1359 1360 1366
f 1359 1366 1365
f 1360 1361 1367
f 1360 1367 1366
f 1361 1362 1368
f 1361 1368 1367
f 1363 1364 1370
f 1363 1370 1369
f 1364 1365 1371
f 1364 1371 1370
f 1365 1366 1372
f 1365 1372 1371
f 1366 1367 1373
f 1366 1373 1372
f 1367 1368 1374
f 1367 1374 1373
f 1369 1370 1376
f 1369 1376 1375
f 1370 1371 1377
f 1370 1377 1376
f 1371 1372 1378
f 1371 1378 1377
f 1372 1373 1379
f 1372 1379 1378
f 1373 1374 1380
f 1373 1380 1379
f 1381 1382 1388
f 1381 1388 1387
f 1382 1383 1389
f 1382 1389 1388
f 1383 1384 1390
f 1383 1390 1389
f 1384 1385 1391
f 1384 1391 1390
f 1385 1386 1392
f 1385 1392 1391
f 1387 1388 1394
f 1387 1394 1393
f 1388 1389 1395
f 1388 1395 1394
f 1389 1390 1396
f 1389 1396 1395
f 1390 1391 1397
f 1390 1397 1396
f 1391 1392 1398
f 1391 1398 1397
f 1393 1394 1400
f 1393 1400 1399
f 1394 1395 1401
f 1394 1401 1400
f 1395 1396 1402
f 1395 1402 1401
f 1396 1397 1403
f 1396 1403 1402
f 1397 1398 1404
f 1397 1404 1403
f 1399 1400 1406
f 1399 1406 1405
f 1400 1401 1407
f 1400 1407 1406
f 1401 1402 1408
f 1401 1408 1407
f 1402 1403 1409
f 1402 1409 1408
f 1403 1404 1410
f 1403 1410 1409
f 1405 1406 1412
f 1405 1412 1411
f 1406 1407 1413
f 1406 1413 1412
f 1407 1408 1414
f 1407 1414 1413
f 1408 1409 1415
f 1408 1415 1414
f 1409 1410 1416
f 1409 1416 1415
f 1417 1418 1424
f 1417 1424 1423
f 1418 1419 1425
f 1418 1425 1424
f 1419 1420 1426
f 1419 1426 1425
f 1420 1421 1427
f 1420 1427 1426
f 1421 1422 1428
f 1421 1428 1427
f 1423 1424 1430
f 1423 1430 1429
f 1424 1425 1431
f 1424 1431 1430
f 1425 1426 1432
f 1425 1432 1431
f 1426 1427 1433
f 1426 1433 1432
f 1427 1428 1434
f 1427 1434 1433
f 1429 1430 1436
f 1429 1436 1435
f 1430 1431 1437
f 1430 1437 1436
f 1431 1432 1438
f 1431 1438 1437
f 1432 1433 1439
f 1432 1439 1438
f 1433 1434 1440
f 1433 1440 1439
f 1435 1436 1442
f 1435 1442 1441
f 1436 1437 1443
f 1436 1443 1442
f 1437 1438 1444
f 1437 1444 1443
f 1438 1439 1445
f 1438 1445 1444
f 1439 1440 1446
f 1439 1446 1445
f 1441 1442 1448
f 1441 1448 1447
f 1442 1443 1449
f 1442 1449 1448
f 1443 1444 1450
f 1443 1450 1449
f 1444 1445 1451
f 1444 1451 1450
f 1445 1446 1452
f 1445 1452 1451
f 1453 1454 1460
f 1453 1460 1459
f 1454 1455 1461
f 1454 1461 1460
f 1455 1456 1462
f 1455 1462 1461
f 1456 1457 1463
f 1456 1463 1462
f 1457 1458 1464
f 1457 1464 1463
f 1459 1460 1466
f 1459 1466 1465
f 1460 1461 1467
f 1460 1467 1466
f 1461 1462 1468
f 1461 1468 1467
f 1462 1463 1469
f 1462 1469 1468
f 1463 1464 1470
f 1463 1470 1469
f 1465 1466 1472
f 1465 1472 1471
f 1466 1467 1473
f 1466 1473 1472
f 1467 1468 1474
f 1467 1474 1473
f 1468 1469 1475
f 1468 1475 1474
f 1469 1470 1476
f 1469 1476 1475
f 1471 1472 1478
f 1471 1478 1477
f 1472 1473 1479
f 1472 1479 1478
f 1473 1474 1480
f 1473 1480 1479
f 1474 1475 1481
f 1474 1481 1480
f 1475 1476 1482
f 1475 1482 1481
f 1477 1478 1484
f 1477 1484 1483
f 1478 1479 1485
f 1478 1485 1484
f 1479 1480 1486
f 1479 1486 1485
f 1480 1481 1487
f 1480 1487 1486
f 1481 1482 1488
f 1481 1488 1487
f 1489 1490 1496
f 1489 1496 1495
f 1490 1491 1497
f 1490 1497 1496
f 1491 1492 1498
f 1491 1498 1497
f 1492 1493 1499
f 1492 1499 1498
f 1493 1494 1500
f 1493 1500 1499
f 1495 1496 1502
f 1495 1502 1501
f 1496 1497 1503
f 1496 1503 1502
f 1497 1498 1504
f 1497 1504 1503
f 1498 1499 1505
f 1498 1505 1504
f 1499 1500 1506
f 1499 1506 1505
f 1501 1502 1508
f 1501 1508 1507
f 1502 1503 1509
f 1502 1509 1508
f 1503 1504 1510
f 1503 1510 1509
f 1504 1505 1511
f 1504 1511 1510
f 1505 1506 1512
f 1505 1512 1511
f 1507 1508 1514
f 1507 1514 1513
f 1508 1509 1515
f 1508 1515 1514
f 1509 1510 1516
f 1509 1516 1515
f 1510 1511 1517
f 1510 1517 1516
f 1511 1512 1518
f 1511 1518 1517
f 1513 1514 1520
f 1513 1520 1519
f 1514 1515 1521
f 1514 1521 1520
f 1515 1516 1522
f 1515 1522 1521
f 1516 1517 1523
f 1516 1523 1522
f 1517 1518 1524
f 1517 1524 1523
f 1525 1526 1532
f 1525 1532 1531
f 1526 1527 1533
f 1526 1533 1532
f 1527 1528 1534
f 1527 1534 1533
f 1528 1529 1535
f 1528 1535 1534
f 1529 1530 1536
f 1529 1536 1535
f 1531 1532 1538
f 1531 1538 1537
f 1532 1533 1539
f 1532 1539 1538
f 1533 1534 1540
f 1533 1540 1539
f 1534 1535 1541
f 1534 1541 1540
f 1535 1536 1542
f 1535 1542 1541
f 1537 1538 1544
f 1537 1544 1543
f 1538 1539 1545
f 1538 1545 1544
f 1539 1540 1546
f 1539 1546 1545
f 1540 1541 1547
f 1540 1547 1546
f 1541 1542 1548
f 1541 1548 1547
f 1543 1544 1550
f 1543 1550 1549
f 1544 1545 1551
f 1544 1551 1550
f 1545 1546 1552
f 1545 1552 1551
f 1546 1547 1553
f 1546 1553 1552
f 1547 1548 1554
f 1547 1554 1553
f 1549 1550 1556
f 1549 1556 1555
f 1550 1551 1557
f 1550 1557 1556
f 1551 1552 1558
f 1551 1558 1557
f 1552 1553 1559
f 1552 1559 1558
f 1553 1554 1560
f 1553 1560 1559
f 1561 1562 1568
f 1561 1568 1567
f 1562 1563 1569
f 1562 1569 1568
f 1563 1564 1570
f 1563 1570 1569
f 1564 1565 1571
f 1564 1571 1570
f 1565 1566 1572
f 1565 1572 1571
f 1567 1568 1574
f 1567 1574 1573
f 1568 1569 1575
f 1568 1575 1574
f 1569 1570 1576
f 1569 1576 1575
f 1570 1571 1577
f 1570 1577 1576
f 1571 1572 1578
f 1571 1578 1577
f 1573 1574 1580
f 1573 1580 1579
f 1574 1575 1581
f 1574 1581 1580
f 1575 1576 1582
f 1575 1582 1581
f 1576 1577 1583
f 1576 1583 1582
f 1577 1578 1584
f 1577 1584 1583
f 1579 1580 1586
f 1579 1586 1585
f 1580 1581 1587
f 1580 1587 1586
f 1581 1582 1588
f 1581 1588 1587
f 1582 1583 1589
f 1582 1589 1588
f 1583 1584 1590
f 1583 1590 1589
f 1585 1586 1592
f 1585 1592 1591
f 1586 1587 1593
f 1586 1593 1592
f 1587 1588 1594
f 1587 1594 1593
f 1588 1589 1595
f 1588 1595 1594
f 1589 1590 1596
f 1589 1596 1595
f 1597 1598 1604
f 1597 1604 1603
f 1598 1599 1605
f 1598 1605 1604
f 1599 1600 1606
f 1599 1606 1605
f 1600 1601 1607
f 1600 1607 1606
f 1601 1602 1608
f 1601 1608 1607
f 1603 1604 1610
f 1603 1610 1609
f 1604 1605 1611
f 1604 1611 1610
f 1605 1606 1612
f 1605 1612 1611
f 1606 1607 1613
f 1606 1613 1612
f 1607 1608 1614
f 1607 1614 1613
f 1609 1610 1616
f 1609 1616 1615
f 1610 1611 1617
f 1610 1617 1616
f 1611 1612 1618
f 1611 1618 1617
f 1612 1613 1619
f 1612 1619 1618
f 1613 1614 1620
f 1613 1620 1619
f 1615 1616 1622
f 1615 1622 1621
f 1616 1617 1623
f 1616 1623 1622
f 1617 1618 1624
f 1617 1624 1623
f 1618 1619 1625
f 1618 1625 1624
f 1619 1620 1626
f 1619 1626 1625
f 1621 1622 1628
f 1621 1628 1627
f 1622 1623 1629
f 1622 1629 1628
f 1623 1624 1630
f 1623 1630 1629
f 1624 1625 1631
f 1624 1631 1630
f 1625 1626 1632
f 1625 1632 1631
f 1633 1634 1640
f 1633 1640 1639
f 1634 1635 1641
f 1634 1641 1640
f 1635 1636 1642
f 1635 1642 1641
f 1636 1637 1643
f 1636 1643 1642
f 1637 1638 1644
f 1637 1644 1643
f 1639 1640 1646
f 1639 1646 1645
f 1640 1641 1647
f 1640 1647 1646
f 1641 1642 1648
f 1641 1648 1647
f 1642 1643 1649
f 1642 1649 1648
f 1643 1644 1650
f 1643 1650 1649
f 1645 1646 1652
f 1645 1652 1651
f 1646 1647 1653
f 1646 1653 1652
f 1647 1648 1654
f 1647 1654 1653
f 1648 1649 1655
f 1648 1655 1654
f 1649 1650 1656
f 1649 1656 1655
f 1651 1652 1658
f 1651 1658 1657
f 1652 1653 1659
f 1652 1659 1658
f 1653 1654 1660
f 1653 1660 1659
f 1654 1655 1661
f 1654 1661 1660
f 1655 1656 1662
f 1655 1662 1661
f 1657 1658 1664
f 1657 1664 1663
f 1658 1659 1665
f 1658 1665 1664
f 1659 1660 1666
f 1659 1666 1665
f 1660 1661 1667
f 1660 1667 1666
f 1661 1662 1668
f 1661 1668 1667
f 1669 1670 1676
f 1669 1676 1675
f 1670 1671 1677
f 1670 1677 1676
f 1671 1672 1678
f 1671 1678 1677
f 1672 1673 1679
f 1672 1679 1678
f 1673 1674 1680
f 1673 1680 1679
f 1675 1676 1682
f 1675 1682 1681
f 1676 1677 1683
f 1676 1683 1682
f 1677 1678 1684
f 1677 1684 1683
f 1678 1679 1685
f 1678 1685 1684
f 1679 1680 1686
f 1679 1686 1685
f 1681 1682 1688
f 1681 1688 1687
f 1682 1683 1689
f 1682 1689 1688
f 1683 1684 1690
f 1683 1690 1689
f 1684 1685 1691
f 1684 1691 1690
f 1685 1686 1692
f 1685 1692 1691
f 1687 1688 1694
f 1687 1694 1693
f 1688 1689 1695
f 1688 1695 1694
f 1689 1690 1696
f 1689 1696 1695
f 1690 1691 1697
f 1690 1697 1696
f 1691 1692 1698
f 1691 1698 1697
f 1693 1694 1700
f 1693 1700 1699
f 1694 1695 1701
f 1694 1701 1700
f 1695 1696 1702
f 1695 1702 1701
f 1696 1697 1703
f 1696 1703 1702
f 1697 1698 1704
f 1697 1704 1703
f 1705 1706 1712
f 1705 1712 1711
f 1706 1707 1713
f 1706 1713 1712
f 1707 1708 1714
f 1707 1714 1713
f 1708 1709 1715
f 1708 1715 1714
f 1709 1710 1716
f 1709 1716 1715
f 1711 1712 1718
f 1711 1718 1717
f 1712 1713 1719
f 1712 1719 1718
f 1713 1714 1720
f 1713 1720 1719
f 1714 1715 1721
f 1714 1721 1720
f 1715 1716 1722
f 1715 1722 1721
f 1717 1718 1724
f 1717 1724 1723
f 1718 1719 1725
f 1718 1725 1724
f 1719 1720 1726
f 1719 1726 1725
f 1720 1721 1727
f 1720 1727 1726
f 1721 1722 1728
f 1721 1728 1727
f 1723 1724 1730
f 1723 1730 1729
f 1724 1725 1731
f 1724 1731 1730
f 1725 1726 1732
f 1725 1732 1731
f 1726 1727 1733
f 1726 1733 1732
f 1727 1728 1734
f 1727 1734 1733
f 1729 1730 1736
f 1729 1736 1735
f 1730 1731 1737
f 1730 1737 1736
f 1731 1732 1738
f 1731 1738 1737
f 1732 1733 1739
f 1732 1739 1738
f 1733 1734 1740
f 1733 1740 1739
f 1741 1742 1748
f 1741 1748 1747
f 1742 1743 1749
f 1742 1749 1748
f 1743 1744 1750
f 1743 1750 1749
f 1744 1745 1751
f 1744 1751 1750
f 1745 1746 1752
f 1745 1752 1751
f 1747 1748 1754
f 1747 1754 1753
f 1748 1749 1755
f 1748 1755 1754
f 1749 1750 1756
f 1749 1756 1755
f 1750 1751 1757
f 1750 1757 1756
f 1751 1752 1758
f 1751 1758 1757
f 1753 1754 1760
f 1753 1760 1759
f 1754 1755 1761
f 1754 1761 1760
f 1755 1756 1762
f 1755 1762 1761
f 1756 1757 1763
f 1756 1763 1762
f 1757 1758 1764
f 1757 1764 1763
f 1759 1760 1766
f 1759 1766 1765
f 1760 1761 1767
f 1760 1767 1766
f 1761 1762 1768
f 1761 1768 1767
f 1762 1763 1769
f 1762 1769 1768
f 1763 1764 1770
f 1763 1770 1769
f 1765 1766 1772
f 1765 1772 1771
f 1766 1767 1773
f 1766 1773 1772
f 1767 1768 1774
f 1767 1774 1773
f 1768 1769 1775
f 1768 1775 1774
f 1769 1770 1776
f 1769 1776 1775
f 1777 1778 1784
f 1777 1784 1783
f 1778 1779 1785
f 1778 1785 1784
f 1779 1780 1786
f 1779 1786 1785
f 1780 1781 1787
f 1780 1787 1786
f 1781 1782 1788
f 1781 1788 1787
f 1783 1784 1790
f 1783 1790 1789
f 1784 1785 1791
f 1784 1791 1790
f 1785 1786 1792
f 1785 1792 1791
f 1786 1787 1793
f 1786 1793 1792
f 1787 1788 1794
f 1787 1794 1793
f 1789 1790 1796
f 1789 1796 1795
f 1790 1791 1797
f 1790 1797 1796
f 1791 1792 1798
f 1791 1798 1797
f 1792 1793 1799
f 1792 1799 1798
f 1793 1794 1800
f 1793 1800 1799
f 1795 1796 1802
f 1795 1802 1801
f 1796 1797 1803
f 1796 1803 1802
f 1797 1798 1804
f 1797 1804 1803
f 1798 1799 1805
f 1798 1805 1804
f 1799 1800 1806
f 1799 1806 1805
f 1801 1802 1808
f 1801 1808 1807
f 1802 1803 1809
f 1802 1809 1808
f 1803 1804 1810
f 1803 1810 1809
f 1804 1805 1811
f 1804 1811 1810
f 1805 1806 1812
f 1805 1812 1811
f 1813 1814 1820
f 1813 1820 1819
f 1814 1815 1821
f 1814 1821 1820
f 1815 1816 1822
f 1815 1822 1821
f 1816 1817 1823
f 1816 1823 1822
f 1817 1818 1824
f 1817 1824 1823
f 1819 1820 1826
f 1819 1826 1825
f 1820 1821 1827
f 1820 1827 1826
f 1821 1822 1828
f 1821 1828 1827
f 1822 1823 1829
f 1822 1829 1828
f 1823 1824 1830
f 1823 1830 1829
f 1825 1826 1832
f 1825 1832 1831
f 1826 1827 1833
f 1826 1833 1832
f 1827 1828 1834
f 1827 1834 1833
f 1828 1829 1835
f 1828 1835 1834
f 1829 1830 1836
f 1829 1836 1835
f 1831 1832 1838
f 1831 1838 1837
f 1832 1833 1839
f 1832 1839 1838
f 1833 1834 1840
f 1833 1840 1839
f 1834 1835 1841
f 1834 1841 1840
f 1835 1836 1842
f 1835 1842 1841
f 1837 1838 1844
f 1837 1844 1843
f 1838 1839 1845
f 1838 1845 1844
f 1839 1840 1846
f 1839 1846 1845
f 1840 1841 1847
f 1840 1847 1846
f 1841 1842 1848
f 1841 1848 1847
f 1849 1850 1856
f 1849 1856 1855
f 1850 1851 1857
f 1850 1857 1856
f 1851 1852 1858
f 1851 1858 1857
f 1852 1853 1859
f 1852 1859 1858
f 1853 1854 1860
f 1853 1860 1859
f 1855 1856 1862
f 1855 1862 1861
f 1856 1857 1863
f 1856 1863 1862
f 1857 1858 1864
f 1857 1864 1863
f 1858 1859 1865
f 1858 1865 1864
f 1859 1860 1866
f 1859 1866 1865
f 1861 1862 1868
f 1861 1868 1867
f 1862 1863 1869
f 1862 1869 1868
f 1863 1864 1870
f 1863 1870 1869
f 1864 1865 1871
f 1864 1871 1870
f 1865 1866 1872
f 1865 1872 1871
f 1867 1868 1874
f 1867 1874 1873
f 1868 1869 1875
f 1868 1875 1874
f 1869 1870 1876
f 1869 1876 1875
f 1870 1871 1877
f 1870 1877 1876
f 1871 1872 1878
f 1871 1878 1877
f 1873 1874 1880
f 1873 1880 1879
f 1874 1875 1881
f 1874 1881 1880
f 1875 1876 1882
f 1875 1882 1881
f 1876 1877 1883
f 1876 1883 1882
f 1877 1878 1884
f 1877 1884 1883
f 1885 1886 1892
f 1885 1892 1891
f 1886 1887 1893
f 1886 1893 1892
f 1887 1888 1894
f 1887 1894 1893
f 1888 1889 1895
f 1888 1895 1894
f 1889 1890 1896
f 1889 1896 1895
f 1891 1892 1898
f 1891 1898 1897
f 1892 1893 1899
f 1892 1899 1898
f 1893 1894 1900
f 1893 1900 1899
f 1894 1895 1901
f 1894 1901 1900
f 1895 1896 1902
f 1895 1902 1901
f 1897 1898 1904
f 1897 1904 1903
f 1898 1899 1905
f 1898 1905 1904
f 1899 1900 1906
f 1899 1906 1905
f 1900 1901 1907
f 1900 1907 1906
f 1901 1902 1908
f 1901 1908 1907
f 1903 1904 1910
f 1903 1910 1909
f 1904 1905 1911
f 1904 1911 1910
f 1905 1906 1912
f 1905 1912 1911
f 1906 1907 1913
f 1906 1913 1912
f 1907 1908 1914
f 1907 1914 1913
f 1909 1910 1916
f 1909 1916 1915
f 1910 1911 1917
f 1910 1917 1916
f 1911 1912 1918
f 1911 1918 1917
f 1912 1913 1919
f 1912 1919 1918
f 1913 1914 1920
f 1913 1920 1919
f 1921 1922 1928
f 1921 1928 1927
f 1922 1923 1929
f 1922 1929 1928
f 1923 1924 1930
f 1923 1930 1929
f 1924 1925 1931
f 1924 1931 1930
f 1925 1926 1932
f 1925 1932 1931
f 1927 1928 1934
f 1927 1934 1933
f 1928 1929 1935
f 1928 1935 1934
f 1929 1930 1936
f 1929 1936 1935
f 1930 1931 1937
f 1930 1937 1936
f 1931 1932 1938
f 1931 1938 1937
f 1933 1934 1940
f 1933 1940 1939
f 1934 1935 1941
f 1934 1941 1940
f 1935 1936 1942
f 1935 1942 1941
f 1936 1937 1943
f 1936 1943 1942
f 1937 1938 1944
f 1937 1944 1943
f 1939 1940 1946
f 1939 1946 1945
f 1940 1941 1947
f 1940 1947 1946
f 1941 1942 1948
f 1941 1948 1947
f 1942 1943 1949
f 1942 1949 1948
f 1943 1944 1950
f 1943 1950 1949
f 1945 1946 1952
f 1945 1952 1951
f 1946 1947 1953
f 1946 1953 1952
f 1947 1948 1954
f 1947 1954 1953
f 1948 1949 1955
f 1948 1955 1954
f 1949 1950 1956
f 1949 1956 1955
f 1957 1958 1964
f 1957 1964 1963
f 1958 1959 1965
f 1958 1965 1964
f 1959 1960 1966
f 1959 1966 1965
f 1960 1961 1967
f 1960 1967 1966
f 1961 1962 1968
f 1961 1968 1967
f 1963 1964 1970
f 1963 1970 1969
f 1964 1965 1971
f 1964 1971 1970
f 1965 1966 1972
f 1965 1972 1971
f 1966 1967 1973
f 1966 1973 1972
f 1967 1968 1974
f 1967 1974 1973
f 1969 1970 1976
f 1969 1976 1975
f 1970 1971 1977
f 1970 1977 1976
f 1971 1972 1978
f 1971 1978 1977
f 1972 1973 1979
f 1972 1979 1978
f 1973 1974 1980
f 1973 1980 1979
f 1975 1976 1982
f 1975 1982 1981
f 1976 1977 1983
f 1976 1983 1982
f 1977 1978 1984
f 1977 1984 1983
f 1978 1979 1985
f 1978 1985 1984
f 1979 1980 1986
f 1979 1986 1985
f 1981 1982 1988
f 1981 1988 1987
f 1982 1983 1989
f 1982 1989 1988
f 1983 1984 1990
f 1983 1990 1989
f 1984 1985 1991
f 1984 1991 1990
f 1985 1986 1992
f 1985 1992 1991
f 1993 1995 1996
f 1993 1996 1994
f 1995 1997 1998
f 1995 1998 1996
f 1997 1999 2000
f 1997 2000 1998
f 1999 2001 2002
f 1999 2002 2000
f 2001 2003 2004
f 2001 2004 2002
f 2003 1993 1994
f 2003 1994 2004
f 2005 1994 1996
f 2006 1995 1993
f 2005 1996 1998
f 2006 1997 1995
f 2005 1998 2000
f 2006 1999 1997
f 2005 2000 2002
f 2006 2001 1999
f 2005 2002 2004
f 2006 2003 2001
f 2005 2004 1994
f 2006 1993 2003
f 2007 2009 2010
f 2007 2010 2008
f 2009 2011 2012
f 2009 2012 2010
f 2011 2013 2014
f 2011 2014 2012
f 2013 2015 2016
f 2013 2016 2014
f 2015 2017 2018
f 2015 2018 2016
f 2017 2007 2008
f 2017 2008 2018
f 2019 2008 2010
f 2020 2009 2007
f 2019 2010 2012
f 2020 2011 2009
f 2019 2012 2014
f 2020 2013 2011
f 2019 2014 2016
f 2020 2015 2013
f 2019 2016 2018
f 2020 2017 2015
f 2019 2018 2008
f 2020 2007 2017
